<svg id="Grupo_1078250" data-name="Grupo 1078250" xmlns="http://www.w3.org/2000/svg" width="57" height="58" viewBox="0 0 57 58">
  <ellipse id="Elipse_4871" data-name="Elipse 4871" cx="28.5" cy="29" rx="28.5" ry="29" fill="#2efec7"/>
  <g id="Grupo_158442" data-name="Grupo 158442" transform="translate(-676.498 63.647)">
    <path id="Trazado_208362" data-name="Trazado 208362" d="M720.066-42.792c-.167-.092-.3-.155-.311-.406a4.574,4.574,0,0,0-5.386-4.326c-.305.049-.411-.02-.517-.3A9.827,9.827,0,0,0,704.7-54.18a9.841,9.841,0,0,0-9.235,6.3c-.128.335-.257.4-.6.349a4.578,4.578,0,0,0-5.316,4.193.6.6,0,0,1-.374.579,7.871,7.871,0,0,0-4.14,8.3,7.866,7.866,0,0,0,6.808,6.488c.272.032.34.133.322.383-.02.286-.007.575,0,.862,0,.564.237.8.793.805.643,0,1.287.007,1.931,0a.288.288,0,0,1,.339.252,7.756,7.756,0,0,0,.72,1.735.312.312,0,0,1-.071.454c-.456.434-.9.885-1.339,1.333-.4.41-.413.727-.016,1.127q1.3,1.312,2.615,2.614a.673.673,0,0,0,1.1-.007c.46-.45.916-.9,1.363-1.367a.289.289,0,0,1,.419-.071,7.546,7.546,0,0,0,1.735.719c.244.066.28.191.275.408-.012.63-.008,1.26,0,1.89,0,.533.245.773.78.777.616,0,1.232,0,1.849,0s1.232,0,1.848,0c.534,0,.776-.244.78-.777,0-.63.008-1.26,0-1.89,0-.216.028-.337.277-.4a7.079,7.079,0,0,0,1.7-.706.334.334,0,0,1,.487.083c.433.457.883.9,1.332,1.339a.683.683,0,0,0,1.1,0q1.314-1.3,2.614-2.614a.674.674,0,0,0,0-1.1c-.44-.451-.884-.9-1.34-1.333-.162-.154-.214-.274-.09-.486a7.122,7.122,0,0,0,.706-1.7c.066-.24.179-.287.4-.282.643.013,1.287.01,1.931,0a.666.666,0,0,0,.742-.732,8.591,8.591,0,0,0,0-.944c-.024-.274.088-.342.338-.371a7.823,7.823,0,0,0,6.885-7.693A7.7,7.7,0,0,0,720.066-42.792Zm-4.583,15.566c-.575-.016-1.15-.008-1.725,0a.683.683,0,0,0-.785.616,8.7,8.7,0,0,1-1.079,2.6.671.671,0,0,0,.13.987c.413.42.824.841,1.251,1.247.161.154.191.246.012.416-.5.471-.98.957-1.453,1.451-.159.166-.252.178-.416,0-.4-.429-.826-.839-1.246-1.252a.681.681,0,0,0-1.022-.12,8.557,8.557,0,0,1-2.561,1.058c-.471.109-.623.323-.626.819,0,.589-.009,1.178,0,1.766,0,.211-.049.287-.27.275-.355-.019-.712-.005-1.068-.005s-.685-.012-1.027,0c-.213.01-.281-.051-.275-.27.015-.6,0-1.205.008-1.807a.7.7,0,0,0-.588-.769,8.8,8.8,0,0,1-2.636-1.09.669.669,0,0,0-.986.138c-.429.423-.86.845-1.275,1.28-.14.147-.22.14-.357,0q-.743-.767-1.511-1.51c-.149-.144-.13-.223.01-.357.425-.407.837-.828,1.251-1.247a.7.7,0,0,0,.138-1.053,8.487,8.487,0,0,1-1.045-2.523c-.117-.5-.321-.653-.838-.656-.575,0-1.15-.009-1.725,0-.215,0-.313-.029-.307-.281q.028-1.047,0-2.095c-.006-.234.085-.266.283-.262.589.01,1.178.006,1.766,0,.478,0,.7-.152.8-.6a8.552,8.552,0,0,1,1.1-2.633.7.7,0,0,0-.123-.959c-.429-.423-.847-.857-1.282-1.274-.148-.142-.177-.228-.012-.386.5-.483,1-.978,1.482-1.481.147-.152.232-.167.386,0,.4.428.827.838,1.246,1.252a.7.7,0,0,0,1.053.122,8.551,8.551,0,0,1,2.525-1.04c.491-.114.642-.325.644-.848,0-.589.009-1.178,0-1.766,0-.2.055-.254.252-.251q1.068.017,2.136,0c.2,0,.254.057.25.253-.012.6-.007,1.2,0,1.807a.683.683,0,0,0,.608.791,8.668,8.668,0,0,1,2.6,1.077.673.673,0,0,0,.99-.118c.421-.412.839-.826,1.247-1.251.145-.151.238-.212.416-.024.48.507.976,1,1.481,1.481.168.161.129.246-.016.386-.434.418-.852.852-1.282,1.274a.694.694,0,0,0-.122.959,8.387,8.387,0,0,1,1.093,2.634.7.7,0,0,0,.763.6c.589-.008,1.178.008,1.766-.007.236-.006.335.031.326.3-.023.67-.025,1.342,0,2.012C715.843-27.258,715.731-27.22,715.483-27.226ZM717.6-29.3c-.361.06-.517-.008-.464-.406a4.636,4.636,0,0,0,0-.78.652.652,0,0,0-.7-.691c-.643-.01-1.288-.015-1.931,0-.257.007-.388-.05-.459-.322a6.291,6.291,0,0,0-.673-1.621c-.143-.241-.084-.378.1-.553.448-.422.88-.863,1.312-1.3a.672.672,0,0,0,0-1.1q-1.3-1.314-2.614-2.615a.672.672,0,0,0-1.1,0c-.45.441-.9.88-1.332,1.34a.357.357,0,0,1-.524.073,6.511,6.511,0,0,0-1.622-.673c-.269-.07-.332-.2-.324-.457.02-.616.01-1.232.005-1.849,0-.538-.242-.782-.772-.784q-1.849-.006-3.7,0c-.554,0-.785.241-.787.81,0,.63-.009,1.26,0,1.89a.31.31,0,0,1-.27.368,7.866,7.866,0,0,0-1.735.721.289.289,0,0,1-.42-.062c-.436-.454-.885-.9-1.333-1.339a.7.7,0,0,0-1.164-.012q-1.283,1.274-2.557,2.556a.692.692,0,0,0-.01,1.158c.442.449.882.9,1.338,1.334a.312.312,0,0,1,.068.454,7.752,7.752,0,0,0-.72,1.736.287.287,0,0,1-.341.249c-.589-.01-1.178,0-1.767,0-.776,0-.954.181-.954.974v.94a6.542,6.542,0,0,1-5.837-5.586,6.52,6.52,0,0,1,3.97-6.985.832.832,0,0,0,.567-.916,3.26,3.26,0,0,1,4.494-3.3c.584.212.882.045,1.072-.564a8.3,8.3,0,0,1,6.69-6.091,8.5,8.5,0,0,1,9.741,6c.219.757.457.879,1.191.613a3.279,3.279,0,0,1,4.4,3.176c-.02.823-.02.823.734,1.158a6.594,6.594,0,0,1,3.843,6.615A6.617,6.617,0,0,1,717.6-29.3Z" transform="translate(0 0)"/>
    <path id="Trazado_208363" data-name="Trazado 208363" d="M811.365,119.388a6.572,6.572,0,1,0,6.562,6.514A6.58,6.58,0,0,0,811.365,119.388Zm.02,11.832a5.259,5.259,0,1,1,5.227-5.23A5.266,5.266,0,0,1,811.385,131.22Z" transform="translate(-106.705 -154.507)"/>
    <path id="Trazado_208364" data-name="Trazado 208364" d="M838,149.318a3.286,3.286,0,1,0,3.28,3.336A3.289,3.289,0,0,0,838,149.318Zm.008,5.258a1.971,1.971,0,1,1,1.957-1.963A1.982,1.982,0,0,1,838.007,154.576Z" transform="translate(-133.344 -181.151)"/>
  </g>
</svg>
