<svg xmlns="http://www.w3.org/2000/svg" xmlns:xlink="http://www.w3.org/1999/xlink" width="1126.503" height="389.396" viewBox="0 0 1126.503 389.396">
  <defs>
    <clipPath id="clip-path">
      <path id="Trazado_827368" data-name="Trazado 827368" d="M128.78,156.285a94.453,94.453,0,1,0-13.342,187.959H440.721A94.451,94.451,0,1,0,427.38,156.285a161.421,161.421,0,0,0-298.6,0" transform="translate(-20.987 -56.233)" fill="#d2e1f1"/>
    </clipPath>
    <linearGradient id="linear-gradient" x1="-0.047" y1="2.381" x2="-0.045" y2="2.381" gradientUnits="objectBoundingBox">
      <stop offset="0" stop-color="#277cc8"/>
      <stop offset="1" stop-color="#3186e5"/>
    </linearGradient>
    <clipPath id="clip-path-2">
      <path id="Trazado_827419" data-name="Trazado 827419" d="M215.287,349.2a20.142,20.142,0,1,0,20.142-20.141A20.142,20.142,0,0,0,215.287,349.2" fill="none"/>
    </clipPath>
    <linearGradient id="linear-gradient-2" x1="-5.344" y1="8.091" x2="-5.32" y2="8.091" xlink:href="#linear-gradient"/>
    <clipPath id="clip-path-3">
      <rect id="Rectángulo_378593" data-name="Rectángulo 378593" width="46.832" height="46.832" transform="translate(73.437 405.789)" fill="#ffca9e"/>
    </clipPath>
    <clipPath id="clip-path-4">
      <path id="Trazado_827445" data-name="Trazado 827445" d="M119.769,429.2a22.916,22.916,0,1,1-22.916-22.916A22.916,22.916,0,0,1,119.769,429.2" fill="#ffca9e"/>
    </clipPath>
    <clipPath id="clip-path-5">
      <rect id="Rectángulo_378585" data-name="Rectángulo 378585" width="19.676" height="19.676" transform="translate(157.405 348.699)" fill="#ffca9e"/>
    </clipPath>
    <clipPath id="clip-path-6">
      <path id="Trazado_827437" data-name="Trazado 827437" d="M176.581,358.537a9.338,9.338,0,1,1-9.338-9.338,9.338,9.338,0,0,1,9.338,9.338" fill="#ffca9e"/>
    </clipPath>
    <clipPath id="clip-path-7">
      <path id="Trazado_827405" data-name="Trazado 827405" d="M358.073,364.809A37.3,37.3,0,1,0,396.9,329.093c-.53-.022-1.056-.033-1.581-.033a37.306,37.306,0,0,0-37.244,35.749" fill="none"/>
    </clipPath>
    <linearGradient id="linear-gradient-3" x1="-4.799" y1="4.369" x2="-4.785" y2="4.369" xlink:href="#linear-gradient"/>
    <clipPath id="clip-path-8">
      <rect id="Rectángulo_378563" data-name="Rectángulo 378563" width="74.608" height="74.609" transform="translate(358.04 329.059)" fill="none"/>
    </clipPath>
    <clipPath id="clip-path-9">
      <rect id="Rectángulo_378581" data-name="Rectángulo 378581" width="40.809" height="40.808" transform="translate(362.099 410.057)" fill="#ffca9e"/>
    </clipPath>
    <clipPath id="clip-path-10">
      <path id="Trazado_827433" data-name="Trazado 827433" d="M402.408,430.461a19.9,19.9,0,1,1-19.9-19.9,19.9,19.9,0,0,1,19.9,19.9" fill="#ffca9e"/>
    </clipPath>
    <clipPath id="clip-path-11">
      <path id="Trazado_827393" data-name="Trazado 827393" d="M211.411,513.422a31.029,31.029,0,1,0,31.029-31.029,31.028,31.028,0,0,0-31.029,31.029" fill="none"/>
    </clipPath>
    <linearGradient id="linear-gradient-4" x1="-3.407" y1="2.782" x2="-3.391" y2="2.782" xlink:href="#linear-gradient"/>
    <clipPath id="clip-path-12">
      <rect id="Rectángulo_378577" data-name="Rectángulo 378577" width="32.134" height="32.134" transform="translate(292.671 485.632)" fill="#ffca9e"/>
    </clipPath>
    <clipPath id="clip-path-13">
      <path id="Trazado_827429" data-name="Trazado 827429" d="M324.3,501.7a15.567,15.567,0,1,1-15.567-15.567A15.568,15.568,0,0,1,324.3,501.7" fill="#ffca9e"/>
    </clipPath>
    <clipPath id="clip-path-14">
      <path id="Trazado_827413" data-name="Trazado 827413" d="M274.882,429.2a38.088,38.088,0,1,0,38.088-38.088A38.088,38.088,0,0,0,274.882,429.2" fill="none"/>
    </clipPath>
    <linearGradient id="linear-gradient-5" x1="-3.609" y1="3.464" x2="-3.595" y2="3.464" xlink:href="#linear-gradient"/>
    <clipPath id="clip-path-15">
      <rect id="Rectángulo_378583" data-name="Rectángulo 378583" width="40.147" height="40.147" transform="translate(286.653 328.997)" fill="#ffca9e"/>
    </clipPath>
    <clipPath id="clip-path-16">
      <path id="Trazado_827435" data-name="Trazado 827435" d="M326.3,349.071A19.573,19.573,0,1,1,306.727,329.5,19.573,19.573,0,0,1,326.3,349.071" fill="#ffca9e"/>
    </clipPath>
    <clipPath id="clip-path-17">
      <path id="Trazado_827392" data-name="Trazado 827392" d="M263.049,551.608" transform="translate(-263.049 -551.608)" fill="none"/>
    </clipPath>
  </defs>
  <g id="Grupo_1079626" data-name="Grupo 1079626" transform="translate(-293.497 -6468.432)">
    <g id="Grupo_1078728" data-name="Grupo 1078728" transform="translate(0 2.61)">
      <g id="Grupo_1078559" data-name="Grupo 1078559" transform="translate(507.465 6465.821)">
        <g id="Grupo_1078558" data-name="Grupo 1078558" transform="translate(0 0)" clip-path="url(#clip-path)">
          <path id="Trazado_827456" data-name="Trazado 827456" d="M0,0H514.185V288.011H0Z" transform="translate(0 0)" fill="#d2e1f1"/>
        </g>
      </g>
      <path id="Trazado_827369" data-name="Trazado 827369" d="M440.721,155.343h0a95.28,95.28,0,0,0-13.342.942,161.421,161.421,0,0,0-298.6,0,94.453,94.453,0,1,0-13.341,187.959H440.721a94.451,94.451,0,0,0,0-188.9h0a94.451,94.451,0,0,1,0,188.9H115.438a94.451,94.451,0,1,1,13.341-187.959,161.421,161.421,0,0,1,298.6,0,95.28,95.28,0,0,1,13.342-.942Z" transform="translate(486.478 6409.588)" fill="url(#linear-gradient)"/>
      <path id="Trazado_827451" data-name="Trazado 827451" d="M315.514,571.041c-24.266,1.526-39.842,13.741-47.146,16.8s-23.127,4.58-47.877,4.962-19.374,17.941-19.374,17.941c3.956,7.443,12.68,7.73,12.68,7.73l31.04,1.447-17.447,6.855s-49.5-5.344-72.629-6.855c-17.358-1.134-25.116,10.821-27.906,16.856a3.427,3.427,0,0,0,3.189,4.018l8.488,1.248c-6.944,3.811-6.666,9.366-5.935,12.241a4.117,4.117,0,0,0,3.2,1.786c15.522-.245,72.888,2.84,84.294,3.913,12.171,1.145,16.017,5.024,26.373,6.488,12,1.7,10.47.314,30.43-1.908,20.072-2.234,68.977-7.635,68.977-7.635V576.766s-6.086-7.252-30.352-5.726" transform="translate(702.735 6187.993)" fill="#efc797"/>
      <path id="Trazado_827453" data-name="Trazado 827453" d="M127.257,630.287H140.14s1.425,2.5,1.167,3.5l-10.462-1.5a4.565,4.565,0,0,1-3.588-2" transform="translate(702.799 6196.621)" fill="#f5e9d9"/>
      <path id="Trazado_827454" data-name="Trazado 827454" d="M137.427,633.014l98.8,7.252-101.806-5.119s.433-.94,3.008-2.133" transform="translate(703.838 6197.017)" fill="#e2b689"/>
      <path id="Trazado_827455" data-name="Trazado 827455" d="M211.481,593.592l-1.015,20.04-11.056-.859s-14.2-8.875,0-19.181c0,0,10.893-2.455,11.411-1.837a3.174,3.174,0,0,1,.66,1.837" transform="translate(712.354 6191.015)" fill="#fbebdc"/>
      <rect id="Rectángulo_378598" data-name="Rectángulo 378598" width="14.505" height="97.716" transform="translate(1044.402 6753.308)" fill="#fff"/>
      <rect id="Rectángulo_378599" data-name="Rectángulo 378599" width="361.093" height="105.213" transform="translate(1058.907 6749.56)" fill="#535354"/>
      <text id="Infraestructura_como_servicio_IaaS_._Plataforma_como_servicio_PaaS_._Software_como_servicio_SaaS_._Red_como_servicio_NaaS_._Otros_adicionales." data-name="Infraestructura como servicio (IaaS).
Plataforma como servicio (PaaS).
Software como servicio (SaaS).
Red como servicio (NaaS).
Otros adicionales." transform="translate(644 6578.708)" fill="#12263f" font-size="16" font-family="SegoeUI, Segoe UI"><tspan x="0" y="17">Infraestructura como servicio (IaaS).</tspan><tspan x="0" y="49">Plataforma como servicio (PaaS).</tspan><tspan x="0" y="81">Software como servicio (SaaS).</tspan><tspan x="0" y="113">Red como servicio (NaaS).</tspan><tspan x="0" y="145">Otros adicionales.</tspan></text>
      <g id="Grupo_944" data-name="Grupo 944" transform="translate(628 6582.851)">
        <g id="Grupo_423" data-name="Grupo 423">
          <path id="Trazado_635" data-name="Trazado 635" d="M8.385,6.763,1.856.234A.8.8,0,0,0,.725.23l0,0L.24.715a.8.8,0,0,0,0,1.131l0,0L5.722,7.332.234,12.82a.8.8,0,0,0,0,1.131l0,0,.481.481a.8.8,0,0,0,1.131,0l0,0L8.385,7.9a.81.81,0,0,0,0-1.139Z" transform="translate(0.002 0.002)" fill="#12263f"/>
        </g>
      </g>
      <g id="Grupo_944-2" data-name="Grupo 944" transform="translate(628 6646.851)">
        <g id="Grupo_423-2" data-name="Grupo 423">
          <path id="Trazado_635-2" data-name="Trazado 635" d="M8.385,6.763,1.856.234A.8.8,0,0,0,.725.23l0,0L.24.715a.8.8,0,0,0,0,1.131l0,0L5.722,7.332.234,12.82a.8.8,0,0,0,0,1.131l0,0,.481.481a.8.8,0,0,0,1.131,0l0,0L8.385,7.9a.81.81,0,0,0,0-1.139Z" transform="translate(0.002 0.002)" fill="#12263f"/>
        </g>
      </g>
      <g id="Grupo_944-3" data-name="Grupo 944" transform="translate(628 6614.851)">
        <g id="Grupo_423-3" data-name="Grupo 423">
          <path id="Trazado_635-3" data-name="Trazado 635" d="M8.385,6.763,1.856.234A.8.8,0,0,0,.725.23l0,0L.24.715a.8.8,0,0,0,0,1.131l0,0L5.722,7.332.234,12.82a.8.8,0,0,0,0,1.131l0,0,.481.481a.8.8,0,0,0,1.131,0l0,0L8.385,7.9a.81.81,0,0,0,0-1.139Z" transform="translate(0.002 0.002)" fill="#12263f"/>
        </g>
      </g>
      <g id="Grupo_944-4" data-name="Grupo 944" transform="translate(628 6678.851)">
        <g id="Grupo_423-4" data-name="Grupo 423">
          <path id="Trazado_635-4" data-name="Trazado 635" d="M8.385,6.763,1.856.234A.8.8,0,0,0,.725.23l0,0L.24.715a.8.8,0,0,0,0,1.131l0,0L5.722,7.332.234,12.82a.8.8,0,0,0,0,1.131l0,0,.481.481a.8.8,0,0,0,1.131,0l0,0L8.385,7.9a.81.81,0,0,0,0-1.139Z" transform="translate(0.002 0.002)" fill="#12263f"/>
        </g>
      </g>
      <g id="Grupo_944-5" data-name="Grupo 944" transform="translate(628 6710.851)">
        <g id="Grupo_423-5" data-name="Grupo 423">
          <path id="Trazado_635-5" data-name="Trazado 635" d="M8.385,6.763,1.856.234A.8.8,0,0,0,.725.23l0,0L.24.715a.8.8,0,0,0,0,1.131l0,0L5.722,7.332.234,12.82a.8.8,0,0,0,0,1.131l0,0,.481.481a.8.8,0,0,0,1.131,0l0,0L8.385,7.9a.81.81,0,0,0,0-1.139Z" transform="translate(0.002 0.002)" fill="#12263f"/>
        </g>
      </g>
      <g id="Grupo_1078727" data-name="Grupo 1078727" transform="translate(6856 11828.877)">
        <g id="Grupo_1078653" data-name="Grupo 1078653" transform="translate(-6549.156 -5598.756)">
          <g id="Grupo_1078652" data-name="Grupo 1078652" clip-path="url(#clip-path-2)">
            <rect id="Rectángulo_378570" data-name="Rectángulo 378570" width="40.283" height="40.283" transform="translate(215.287 329.06)" fill="#ffca9e"/>
          </g>
        </g>
        <path id="Trazado_827420" data-name="Trazado 827420" d="M255.57,349.2h0a20.142,20.142,0,1,1-20.141-20.142A20.141,20.141,0,0,1,255.57,349.2h0a20.142,20.142,0,1,0-20.141,20.141A20.142,20.142,0,0,0,255.57,349.2Z" transform="translate(-6549.156 -5598.756)" fill="url(#linear-gradient-2)"/>
        <path id="Trazado_827422" data-name="Trazado 827422" d="M238.607,341.771a7.41,7.41,0,1,0-1.015,11.315,1.571,1.571,0,0,0,.425.786l4.2,4.207a1.566,1.566,0,0,0,2.215-2.214l-4.205-4.206a1.555,1.555,0,0,0-.785-.422,7.42,7.42,0,0,0-.838-9.466m-1.33,9.151a5.531,5.531,0,1,1,0-7.824,5.538,5.538,0,0,1,0,7.824" transform="translate(-6549.156 -5598.756)" fill="#083142"/>
      </g>
      <g id="Grupo_1078712" data-name="Grupo 1078712" transform="translate(416.844 6215.221)" opacity="0.8">
        <g id="Grupo_1078711" data-name="Grupo 1078711">
          <g id="Grupo_1078710" data-name="Grupo 1078710" clip-path="url(#clip-path-3)">
            <g id="Grupo_1078709" data-name="Grupo 1078709">
              <g id="Grupo_1078708" data-name="Grupo 1078708" clip-path="url(#clip-path-4)">
                <rect id="Rectángulo_378592" data-name="Rectángulo 378592" width="45.832" height="45.832" transform="translate(73.937 406.289)" fill="#ffca9e"/>
              </g>
            </g>
            <path id="Trazado_827446" data-name="Trazado 827446" d="M119.769,429.2h0a22.916,22.916,0,1,1-22.916-22.916A22.916,22.916,0,0,1,119.769,429.2h0a22.916,22.916,0,1,0-22.916,22.916A22.916,22.916,0,0,0,119.769,429.2Z" fill="#ffca9e"/>
          </g>
        </g>
      </g>
      <g id="Grupo_1078692" data-name="Grupo 1078692" transform="translate(320.844 6238.675)" opacity="0.8">
        <g id="Grupo_1078691" data-name="Grupo 1078691">
          <g id="Grupo_1078690" data-name="Grupo 1078690" clip-path="url(#clip-path-5)">
            <g id="Grupo_1078689" data-name="Grupo 1078689">
              <g id="Grupo_1078688" data-name="Grupo 1078688" clip-path="url(#clip-path-6)">
                <rect id="Rectángulo_378584" data-name="Rectángulo 378584" width="18.676" height="18.676" transform="translate(157.905 349.199)" fill="#ffca9e"/>
              </g>
            </g>
            <path id="Trazado_827438" data-name="Trazado 827438" d="M176.581,358.537h0a9.338,9.338,0,1,1-9.338-9.338,9.338,9.338,0,0,1,9.338,9.338h0a9.338,9.338,0,1,0-9.338,9.338,9.338,9.338,0,0,0,9.338-9.338Z" fill="#ffca9e"/>
          </g>
        </g>
      </g>
      <g id="Grupo_1078725" data-name="Grupo 1078725" transform="translate(6632 11757.318)">
        <g id="Grupo_1078631" data-name="Grupo 1078631" transform="translate(-6549.156 -5598.756)">
          <g id="Grupo_1078630" data-name="Grupo 1078630" clip-path="url(#clip-path-7)">
            <rect id="Rectángulo_378562" data-name="Rectángulo 378562" width="78.548" height="79.338" transform="translate(354.072 404.363) rotate(-87.61)" fill="#ffca9e"/>
          </g>
        </g>
        <path id="Trazado_827406" data-name="Trazado 827406" d="M432.616,367.918h0a37.305,37.305,0,0,1-37.246,35.75q-.787,0-1.581-.033a37.306,37.306,0,0,1-35.75-37.245q0-.788.034-1.581a37.305,37.305,0,0,1,37.245-35.75q.786,0,1.58.033a37.3,37.3,0,0,1,35.75,37.244q0,.787-.032,1.582h0q.033-.793.032-1.582a37.3,37.3,0,0,0-35.75-37.244q-.794-.033-1.58-.033a37.305,37.305,0,0,0-37.245,35.75q-.035.794-.034,1.581a37.307,37.307,0,0,0,35.75,37.245q.793.033,1.581.033a37.305,37.305,0,0,0,37.246-35.75Z" transform="translate(-6549.156 -5598.756)" fill="url(#linear-gradient-3)"/>
        <path id="Trazado_827408" data-name="Trazado 827408" d="M412.175,351.62H378.522a2.344,2.344,0,0,0-2.338,2.329v24.2a2.344,2.344,0,0,0,2.338,2.329h33.653a2.336,2.336,0,0,0,2.329-2.329v-24.2a2.336,2.336,0,0,0-2.329-2.329m-.586,24.812H379.107V354.889h32.482Z" transform="translate(-6549.156 -5598.756)" fill="#083142"/>
        <path id="Trazado_827409" data-name="Trazado 827409" d="M391.032,381.587l-4.409,4.481h17.506l-4.4-4.481Z" transform="translate(-6549.156 -5598.756)" fill="#083142"/>
        <path id="Trazado_827410" data-name="Trazado 827410" d="M384.062,372.113a1.567,1.567,0,0,0,1.566-1.558,1.441,1.441,0,0,0-.1-.442c2-1.606,5.523-4.44,7.131-5.678a1.518,1.518,0,0,0,.882.306,1.492,1.492,0,0,0,.748-.218c1.034.876,2.786,2.371,4.037,3.429a2.06,2.06,0,0,0-.055.265,1.562,1.562,0,1,0,3.124,0,1.538,1.538,0,0,0-.088-.425l4.04-3.645a1.534,1.534,0,0,0,.713.191,1.561,1.561,0,1,0-1.445-.978c-1.125,1.02-2.866,2.594-3.951,3.573a1.474,1.474,0,0,0-.827-.274,1.5,1.5,0,0,0-.956.362c-1.036-.884-2.7-2.3-3.887-3.308a1.411,1.411,0,0,0,.105-.53,1.557,1.557,0,1,0-3.114,0,1.5,1.5,0,0,0,.1.539l-7.163,5.573a1.482,1.482,0,0,0-.867-.3,1.558,1.558,0,1,0,0,3.116" transform="translate(-6549.156 -5598.756)" fill="#083142"/>
      </g>
      <g id="Grupo_1078682" data-name="Grupo 1078682" transform="translate(56.844 6178.818)" opacity="0.8">
        <g id="Grupo_1078681" data-name="Grupo 1078681">
          <g id="Grupo_1078680" data-name="Grupo 1078680" clip-path="url(#clip-path-9)">
            <g id="Grupo_1078679" data-name="Grupo 1078679">
              <g id="Grupo_1078678" data-name="Grupo 1078678" clip-path="url(#clip-path-10)">
                <rect id="Rectángulo_378580" data-name="Rectángulo 378580" width="39.809" height="39.808" transform="translate(362.599 410.557)" fill="#ffca9e"/>
              </g>
            </g>
            <path id="Trazado_827434" data-name="Trazado 827434" d="M402.408,430.461h0a19.9,19.9,0,1,1-19.9-19.9,19.9,19.9,0,0,1,19.9,19.9h0a19.9,19.9,0,1,0-19.9,19.9,19.9,19.9,0,0,0,19.9-19.9Z" fill="#ffca9e"/>
          </g>
        </g>
      </g>
      <g id="Grupo_1078723" data-name="Grupo 1078723" transform="translate(6706 11758)">
        <g id="Grupo_1078609" data-name="Grupo 1078609" transform="translate(-6549.156 -5598.756)">
          <g id="Grupo_1078608" data-name="Grupo 1078608" clip-path="url(#clip-path-11)">
            <rect id="Rectángulo_378554" data-name="Rectángulo 378554" width="62.058" height="62.057" transform="translate(211.411 482.393)" fill="#ffca9e"/>
          </g>
        </g>
        <path id="Trazado_827394" data-name="Trazado 827394" d="M273.469,513.422h0a31.029,31.029,0,1,1-31.029-31.029,31.029,31.029,0,0,1,31.029,31.029h0a31.029,31.029,0,1,0-31.029,31.029,31.029,31.029,0,0,0,31.029-31.029Z" transform="translate(-6549.156 -5598.756)" fill="url(#linear-gradient-4)"/>
        <path id="Trazado_827396" data-name="Trazado 827396" d="M252.182,517.635a5.613,5.613,0,0,0-4.421,2.169l-9.62-4.918a5.647,5.647,0,0,0,.213-1.464,5.492,5.492,0,0,0-.254-1.588l9.571-4.9a5.987,5.987,0,1,0-.931-1.927l-9.614,4.918a5.664,5.664,0,1,0,.082,6.878l9.573,4.9a5.515,5.515,0,0,0-.263,1.595,5.663,5.663,0,1,0,5.664-5.663" transform="translate(-6549.156 -5598.756)" fill="#083142"/>
      </g>
      <g id="Grupo_1078672" data-name="Grupo 1078672" transform="translate(66.844 6235.112)" opacity="0.8">
        <g id="Grupo_1078671" data-name="Grupo 1078671">
          <g id="Grupo_1078670" data-name="Grupo 1078670" clip-path="url(#clip-path-12)">
            <g id="Grupo_1078669" data-name="Grupo 1078669">
              <g id="Grupo_1078668" data-name="Grupo 1078668" clip-path="url(#clip-path-13)">
                <rect id="Rectángulo_378576" data-name="Rectángulo 378576" width="31.134" height="31.134" transform="translate(293.171 486.132)" fill="#ffca9e"/>
              </g>
            </g>
            <path id="Trazado_827430" data-name="Trazado 827430" d="M324.3,501.7h0a15.567,15.567,0,1,1-15.567-15.567A15.568,15.568,0,0,1,324.3,501.7h0a15.567,15.567,0,1,0-15.567,15.567A15.568,15.568,0,0,0,324.3,501.7Z" fill="#ffca9e"/>
          </g>
        </g>
      </g>
      <g id="Grupo_1078724" data-name="Grupo 1078724" transform="translate(6580 11728.676)">
        <path id="Trazado_827390" data-name="Trazado 827390" d="M298.947,408.677" transform="translate(-6549.156 -5598.756)"/>
        <g id="Grupo_1078642" data-name="Grupo 1078642" transform="translate(-6549.156 -5598.756)">
          <g id="Grupo_1078641" data-name="Grupo 1078641" clip-path="url(#clip-path-14)">
            <rect id="Rectángulo_378566" data-name="Rectángulo 378566" width="76.176" height="76.175" transform="translate(274.882 391.117)" fill="#ffca9e"/>
          </g>
        </g>
        <path id="Trazado_827414" data-name="Trazado 827414" d="M351.057,429.2h0a38.088,38.088,0,1,1-38.088-38.087A38.088,38.088,0,0,1,351.057,429.2h0a38.088,38.088,0,1,0-38.088,38.088A38.087,38.087,0,0,0,351.057,429.2Z" transform="translate(-6549.156 -5598.756)" fill="url(#linear-gradient-5)"/>
        <path id="Trazado_827416" data-name="Trazado 827416" d="M323.017,406.584h-20.1a3.48,3.48,0,0,0-3.475,3.476v40.8a3.474,3.474,0,0,0,3.475,3.476h20.1a3.475,3.475,0,0,0,3.476-3.476v-40.8a3.481,3.481,0,0,0-3.476-3.476M308.012,408.7h9.915c.254,0,.459.374.459.833s-.2.842-.459.842h-9.915c-.256,0-.452-.374-.452-.842s.2-.833.452-.833m4.962,42.2a2.218,2.218,0,1,1,2.208-2.216,2.226,2.226,0,0,1-2.208,2.216m10.908-7.6H302.054V412.457h21.828Z" transform="translate(-6549.156 -5598.756)" fill="#083142"/>
      </g>
      <g id="Grupo_1078687" data-name="Grupo 1078687" transform="translate(6.844 6299.891)" opacity="0.8">
        <g id="Grupo_1078686" data-name="Grupo 1078686">
          <g id="Grupo_1078685" data-name="Grupo 1078685" clip-path="url(#clip-path-15)">
            <g id="Grupo_1078684" data-name="Grupo 1078684">
              <g id="Grupo_1078683" data-name="Grupo 1078683" clip-path="url(#clip-path-16)">
                <rect id="Rectángulo_378582" data-name="Rectángulo 378582" width="39.147" height="39.147" transform="translate(287.153 329.497)" fill="#ffca9e"/>
              </g>
            </g>
            <path id="Trazado_827436" data-name="Trazado 827436" d="M326.3,349.07h0A19.573,19.573,0,1,1,306.727,329.5,19.573,19.573,0,0,1,326.3,349.07h0a19.573,19.573,0,1,0-19.573,19.574A19.573,19.573,0,0,0,326.3,349.07Z" fill="#ffca9e"/>
          </g>
        </g>
      </g>
      <g id="Grupo_1078605" data-name="Grupo 1078605" transform="translate(985.554 6736.811)">
        <g id="Grupo_1078604" data-name="Grupo 1078604" clip-path="url(#clip-path-17)">
          <path id="Trazado_827391" data-name="Trazado 827391" d="M263.049,551.608Z" transform="translate(-263.049 -551.608)" fill="#fff"/>
        </g>
      </g>
    </g>
  </g>
</svg>
