<svg xmlns="http://www.w3.org/2000/svg" width="59.819" height="59.727" viewBox="0 0 59.819 59.727">
  <g id="Grupo_1077911" data-name="Grupo 1077911" transform="translate(-707.972 -312.255)">
    <path id="Trazado_197643" data-name="Trazado 197643" d="M764.477,353.132a3.979,3.979,0,0,0-4.406,2.555c-.106.266-.211.382-.522.381q-5.14-.02-10.281,0c-.38,0-.432-.136-.426-.463.018-1.036.016-2.073,0-3.109,0-.3.059-.4.387-.451a2.968,2.968,0,0,0,2.609-3.119c0-.767.031-1.535-.011-2.3-.025-.457.137-.535.554-.527,1.453.026,2.907.007,4.361.011a14.032,14.032,0,0,0,2.977-.188,9.942,9.942,0,0,0-2.976-19.645c-.463.066-.581-.051-.706-.471a18.921,18.921,0,0,0-21.46-13.238,18.591,18.591,0,0,0-13.135,9.241.749.749,0,0,1-.826.443,11.215,11.215,0,0,0-3.88.409,11.931,11.931,0,0,0,1.744,23.347,42.084,42.084,0,0,0,4.917.087c.445,0,.556.121.535.549-.037.765-.014,1.534-.01,2.3a2.953,2.953,0,0,0,2.627,3.1c.36.058.368.2.366.47-.008,1.016-.024,2.032.007,3.047.013.409-.105.509-.51.507q-5.047-.025-10.094,0a.584.584,0,0,1-.658-.455,3.978,3.978,0,1,0-.006,2.887c.155-.4.352-.46.72-.457,1.869.015,3.738.007,5.608.007,1.911,0,3.821,0,5.732,0,.813,0,1.183-.367,1.189-1.17.008-1.119,0-2.239,0-3.358,0-1.447,0-1.427,1.424-1.452.449-.008.59.081.584.564-.03,2.28-.027,4.56,0,6.84,0,.45-.084.587-.565.581-2.409-.029-4.818-.016-7.228-.012-.817,0-1.182.363-1.19,1.167-.008.767-.036,1.536.011,2.3a.724.724,0,0,1-.559.844,3.93,3.93,0,0,0-2.4,4.261,3.988,3.988,0,0,0,7.745.574,3.746,3.746,0,0,0-1.8-4.569,1.559,1.559,0,0,1-1-1.887.679.679,0,0,0,0-.186c-.086-.457.131-.53.546-.526,2.368.02,4.735.011,7.1.009,1.006,0,1.325-.325,1.326-1.347,0-2.674.016-5.348-.013-8.022-.006-.509.153-.608.618-.591.954.035,1.911.038,2.865,0,.458-.019.531.137.529.553q-.028,4.508,0,9.017c0,.4-.125.545-.5.694a3.931,3.931,0,0,0-2.312,4.888,3.986,3.986,0,1,0,5.265-4.907c-.286-.111-.488-.171-.486-.569.022-3.088.018-6.177,0-9.266,0-.337.105-.411.42-.405,1.017.018,2.036.032,3.052-.005.451-.017.537.125.534.549-.02,2.715-.012,5.431-.01,8.146,0,.928.343,1.266,1.28,1.267,2.015,0,4.029-.006,6.044.005.534,0,1.235-.232,1.555.093s.046,1.024.1,1.554c.036.353-.1.484-.429.611a3.941,3.941,0,0,0-2.378,4.91,3.984,3.984,0,1,0,5.272-4.887c-.382-.145-.5-.3-.487-.7.033-.766.012-1.534.009-2.3,0-.934-.341-1.275-1.271-1.276-2.388,0-4.777-.012-7.165.01-.429,0-.554-.089-.548-.535.027-1.99.012-3.98.012-5.97,0-1.491,0-1.476,1.523-1.477.378,0,.489.083.482.475-.027,1.388-.011,2.777-.01,4.166,0,1.02.317,1.339,1.332,1.34,3.738,0,7.477.006,11.215-.008a.617.617,0,0,1,.705.477,3.98,3.98,0,1,0,4.368-5.385Zm-52.486,5.912a1.989,1.989,0,1,1,1.962-1.991A2.005,2.005,0,0,1,711.991,359.044Zm12.929,8.964a1.993,1.993,0,1,1-1.955-2A2,2,0,0,1,724.92,368.008Zm27.916-2a1.988,1.988,0,1,1-1.992,2.021A2.012,2.012,0,0,1,752.836,366.011Zm-26.917-28.651c0-.845.363-1.2,1.219-1.2q10.74,0,21.48,0c.857,0,1.221.355,1.226,1.194q.01,1.771,0,3.542c0,.884-.356,1.232-1.251,1.232q-5.355,0-10.709,0-5.323,0-10.647,0c-.985,0-1.317-.325-1.319-1.289C725.916,339.679,725.914,338.519,725.919,337.359Zm0-4.413q-.007-1.771,0-3.542c0-.848.36-1.2,1.213-1.206q5.386,0,10.771,0h10.585c1.051,0,1.357.311,1.358,1.375,0,1.139.006,2.279,0,3.418a1.027,1.027,0,0,1-1.183,1.175q-10.771,0-21.543,0C726.277,334.166,725.923,333.8,725.919,332.947Zm-1.995-3.478c0,1.181.01,2.363,0,3.544a2.936,2.936,0,0,0,.556,1.867.4.4,0,0,1-.01.579,2.921,2.921,0,0,0-.545,1.809c.01,1.264.008,2.528,0,3.792a3.086,3.086,0,0,0,.524,1.756c.2.311-.185,1.3-.542,1.292-2.537-.062-5.11.315-7.574-.658a9.94,9.94,0,0,1,2.286-19.135,9.347,9.347,0,0,1,2.6,0c.911.13,1.125-.019,1.58-.837,3.485-6.269,8.84-9.41,16-9.164a16.766,16.766,0,0,1,15.548,12.911c.3,1.243.569,1.411,1.83,1.137a7.961,7.961,0,1,1,2.837,15.66,9.151,9.151,0,0,1-1.364.1c-1.724,0-3.452-.079-5.168.034-.819.054-.988-.457-1.317-.916-.127-.178.038-.261.111-.368a3.3,3.3,0,0,0,.563-1.994q-.027-1.834,0-3.668c.012-.784-.644-1.44-.629-2.064.015-.607.631-1.247.627-2.006-.008-1.305.009-2.611-.005-3.917a2.97,2.97,0,0,0-3.054-3.01c-3.634-.009-7.268,0-10.9,0q-5.357,0-10.715,0A3,3,0,0,0,723.924,329.468Zm15.951,36.512a1.993,1.993,0,1,1-1.992-1.96A2,2,0,0,1,739.875,365.98Zm-1.992-15.891q-5.323,0-10.647,0c-.984,0-1.316-.326-1.318-1.29,0-1.16,0-2.32,0-3.48,0-.844.363-1.2,1.219-1.2q10.74,0,21.48,0c.857,0,1.221.355,1.225,1.194q.01,1.771,0,3.542c0,.884-.355,1.231-1.252,1.232Q743.238,350.092,737.884,350.089Zm25.921,8.955a1.989,1.989,0,1,1,1.993-1.96A2.005,2.005,0,0,1,763.8,359.044Z" transform="translate(0 0)" fill="#12263f"/>
    <path id="Trazado_197644" data-name="Trazado 197644" d="M828.367,422.071c1.807-.023,3.613-.01,5.42-.01h4.61c1.441,0,1.418,0,1.447-1.43.009-.467-.11-.575-.575-.572-3.3.022-6.6.012-9.905.012-1.514,0-1.5,0-1.507,1.492C827.854,421.969,827.962,422.076,828.367,422.071Z" transform="translate(-99.955 -89.883)" fill="#12263f"/>
    <path id="Trazado_197645" data-name="Trazado 197645" d="M912.926,422.121c.956,0,.956,0,.956-.974,0-1.016,0-1.016-1.038-1.016-.956,0-.956,0-.956.974C911.888,422.121,911.888,422.121,912.926,422.121Z" transform="translate(-170.018 -89.943)" fill="#12263f"/>
    <path id="Trazado_197646" data-name="Trazado 197646" d="M936.846,422.121c1.027,0,1.027,0,1.027-1.027,0-.963,0-.963-.967-.963-1.027,0-1.027,0-1.027,1.027C935.879,422.121,935.879,422.121,936.846,422.121Z" transform="translate(-190.021 -89.943)" fill="#12263f"/>
    <path id="Trazado_197647" data-name="Trazado 197647" d="M828.371,469.967c1.807-.018,3.613-.008,5.42-.008h4.61c1.428,0,1.4,0,1.435-1.444.011-.5-.156-.558-.591-.556-3.3.018-6.6.01-9.905.01-1.5,0-1.483,0-1.5,1.507C827.841,469.91,827.992,469.97,828.371,469.967Z" transform="translate(-99.945 -129.82)" fill="#12263f"/>
    <path id="Trazado_197648" data-name="Trazado 197648" d="M912.922,470.008c.96,0,.96,0,.96-.969,0-1.021,0-1.021-1.034-1.021-.961,0-.961,0-.961.97C911.888,470.008,911.888,470.008,912.922,470.008Z" transform="translate(-170.018 -129.87)" fill="#12263f"/>
    <path id="Trazado_197649" data-name="Trazado 197649" d="M936.846,470.008c1.027,0,1.027,0,1.027-1.027,0-.963,0-.963-.967-.963-1.027,0-1.027,0-1.027,1.028C935.879,470.008,935.879,470.008,936.846,470.008Z" transform="translate(-190.021 -129.87)" fill="#12263f"/>
    <path id="Trazado_197650" data-name="Trazado 197650" d="M839.27,515.833c-3.3.023-6.6.012-9.905.012-1.514,0-1.5,0-1.507,1.492,0,.406.1.513.51.508,1.806-.023,3.613-.01,5.42-.01h4.61c1.441,0,1.419,0,1.448-1.43C839.854,515.938,839.734,515.83,839.27,515.833Z" transform="translate(-99.955 -169.736)" fill="#12263f"/>
    <path id="Trazado_197651" data-name="Trazado 197651" d="M912.859,515.906c-.971,0-.971,0-.971.958,0,1.032,0,1.032,1.023,1.032.971,0,.971,0,.971-.958C913.882,515.906,913.882,515.906,912.859,515.906Z" transform="translate(-170.018 -169.797)" fill="#12263f"/>
    <path id="Trazado_197652" data-name="Trazado 197652" d="M936.859,515.906c-.98,0-.98,0-.98.95,0,1.04,0,1.04,1.014,1.04.98,0,.98,0,.98-.95C937.873,515.906,937.873,515.906,936.859,515.906Z" transform="translate(-190.021 -169.797)" fill="#12263f"/>
  </g>
</svg>
