<svg xmlns="http://www.w3.org/2000/svg" xmlns:xlink="http://www.w3.org/1999/xlink" width="745" height="285.92" viewBox="0 0 745 285.92">
  <defs>
    <clipPath id="clip-path">
      <rect id="Rectángulo_378618" data-name="Rectángulo 378618" width="449" height="285.92" fill="none"/>
    </clipPath>
    <clipPath id="clip-path-2">
      <path id="Trazado_827461" data-name="Trazado 827461" d="M760.619,513.68c-.655.024-1.3.058-1.94.112a37.4,37.4,0,0,0-23.418,10.843c-.471.456-.912.922-1.344,1.4a37.63,37.63,0,0,0-4.274,5.725,49.433,49.433,0,0,0-20.463-11.022c-.64-.17-1.29-.325-1.941-.461a49.258,49.258,0,0,0-10.634-1.15c-.1,0-.189,0-.286,0-.65,0-1.3.015-1.941.044A49.211,49.211,0,0,0,670.6,526.5q-.99.6-1.941,1.261a49.515,49.515,0,0,0-21.162,34.4c-.087.641-.16,1.291-.214,1.941q-.211,2.256-.213,4.57a49.442,49.442,0,0,0,3.687,18.78,37.877,37.877,0,0,0-7.088-.674,37.5,37.5,0,0,0-29.346,14.108q-.757.946-1.456,1.941a37.574,37.574,0,0,0,4.167,48.034q.939.946,1.941,1.814a37.4,37.4,0,0,0,23.961,9.247c.243.01.49.01.732.01h234a37.163,37.163,0,0,0,9.616-1.257c.655-.175,1.3-.364,1.941-.577A37.188,37.188,0,0,0,907.6,602.7c-.49-.665-1-1.315-1.533-1.941a37.129,37.129,0,0,0-17.6-11.59c-.466-.145-.941-.281-1.417-.407a37.439,37.439,0,0,0-9.393-1.193,37.047,37.047,0,0,0-4.24.252,53.313,53.313,0,0,0-2.935-10.736q-.378-.982-.8-1.94a53.778,53.778,0,0,0-6.375-10.921q-.75-.99-1.533-1.941a53.8,53.8,0,0,0-24.005-16.592c-.64-.223-1.286-.432-1.941-.626a53.955,53.955,0,0,0-36.7,2.111,37.477,37.477,0,0,0-12.8-24.379c-.631-.544-1.276-1.067-1.941-1.562a37.389,37.389,0,0,0-22.617-7.573q-.582,0-1.164.015" transform="translate(-606.091 -513.665)" fill="none"/>
    </clipPath>
    <clipPath id="clip-path-4">
      <rect id="Rectángulo_378602" data-name="Rectángulo 378602" width="141.745" height="116.076" fill="none"/>
    </clipPath>
    <clipPath id="clip-path-5">
      <rect id="Rectángulo_378606" data-name="Rectángulo 378606" width="294.736" height="148.248" fill="none"/>
    </clipPath>
    <clipPath id="clip-path-6">
      <rect id="Rectángulo_378607" data-name="Rectángulo 378607" width="188.387" height="148.26" fill="none"/>
    </clipPath>
    <clipPath id="clip-path-7">
      <path id="Trazado_827505" data-name="Trazado 827505" d="M708.6,513.138a2.912,2.912,0,0,0,2.061-1.368,34.671,34.671,0,0,1,64.115,14.222,2.911,2.911,0,0,0,4.046,2.362,50.867,50.867,0,0,1,70.26,38.438,2.91,2.91,0,0,0,3.2,2.422,34.831,34.831,0,0,1,3.914-.229,34.266,34.266,0,1,1,0,68.532h-234a34.668,34.668,0,1,1,6.543-68.71,2.911,2.911,0,0,0,3.239-3.964,46.628,46.628,0,0,1,74.249-52.416,2.912,2.912,0,0,0,2.369.711m11.555-18.519a40.755,40.755,0,0,0-12.6,11.321,52.464,52.464,0,0,0-82.6,56.515q-1.381-.1-2.755-.1a40.489,40.489,0,1,0,0,80.979h234a40.088,40.088,0,1,0,0-80.175q-.919,0-1.868.046a56.706,56.706,0,0,0-74.342-41.564,40.5,40.5,0,0,0-59.832-27.027" transform="translate(-581.706 -489.252)" fill="#083142"/>
    </clipPath>
    <clipPath id="clip-path-8">
      <path id="Trazado_827506" data-name="Trazado 827506" d="M310.753,60.4a39.721,39.721,0,1,0,39.721-39.721A39.721,39.721,0,0,0,310.753,60.4" transform="translate(-310.753 -20.677)" fill="none"/>
    </clipPath>
    <radialGradient id="radial-gradient" cx="0.5" cy="0.5" r="0.62" gradientTransform="matrix(-1, 0, 0, 1, -0.933, 0)" gradientUnits="objectBoundingBox">
      <stop offset="0" stop-color="#fff"/>
      <stop offset="0.268" stop-color="#fbfbfc"/>
      <stop offset="0.5" stop-color="#f0f1f4"/>
      <stop offset="0.72" stop-color="#dfe1e6"/>
      <stop offset="0.929" stop-color="#c6cad3"/>
      <stop offset="1" stop-color="#bcc1cc"/>
    </radialGradient>
    <clipPath id="clip-path-9">
      <rect id="Rectángulo_378611" data-name="Rectángulo 378611" width="449" height="285.92" fill="#083142"/>
    </clipPath>
    <clipPath id="clip-path-10">
      <path id="Trazado_827518" data-name="Trazado 827518" d="M0,1770.176a39.721,39.721,0,1,0,39.721-39.721A39.721,39.721,0,0,0,0,1770.176" transform="translate(0 -1730.455)" fill="none"/>
    </clipPath>
    <radialGradient id="radial-gradient-2" cx="0.5" r="0.62" gradientTransform="matrix(-1, 0, 0, 1, 0, 0)" xlink:href="#radial-gradient"/>
    <clipPath id="clip-path-12">
      <circle id="Elipse_11392" data-name="Elipse 11392" cx="39.721" cy="39.721" r="39.721" transform="translate(0 56.174) rotate(-45)" fill="none"/>
    </clipPath>
    <radialGradient id="radial-gradient-3" cx="0.5" r="0.62" gradientTransform="matrix(-1, 0, 0, 1, -8.525, 0)" xlink:href="#radial-gradient"/>
    <clipPath id="clip-path-14">
      <path id="Trazado_827530" data-name="Trazado 827530" d="M3097.205,1748.083a39.721,39.721,0,1,0,39.721-39.721,39.721,39.721,0,0,0-39.721,39.721" transform="translate(-3097.205 -1708.362)" fill="none"/>
    </clipPath>
    <radialGradient id="radial-gradient-4" cx="0.5" r="0.62" gradientTransform="matrix(-1, 0, 0, 1, -9.304, 0)" xlink:href="#radial-gradient"/>
  </defs>
  <g id="Grupo_1079626" data-name="Grupo 1079626" transform="translate(-427.5 -7183.316)">
    <path id="Trazado_829288" data-name="Trazado 829288" d="M14.5,0h117a14.5,14.5,0,0,1,0,29H14.5a14.5,14.5,0,0,1,0-29Z" transform="translate(486.5 7209)" fill="#e8e8e8"/>
    <path id="Trazado_829290" data-name="Trazado 829290" d="M14.5,0h117a14.5,14.5,0,0,1,0,29H14.5a14.5,14.5,0,0,1,0-29Z" transform="translate(967.5 7209)" fill="#e8e8e8"/>
    <path id="Trazado_829292" data-name="Trazado 829292" d="M14.5,0h134a14.5,14.5,0,0,1,0,29H14.5a14.5,14.5,0,0,1,0-29Z" transform="translate(1009.5 7413)" fill="#e8e8e8"/>
    <path id="Trazado_829293" data-name="Trazado 829293" d="M14.5,0h134a14.5,14.5,0,0,1,0,29H14.5a14.5,14.5,0,0,1,0-29Z" transform="translate(427.5 7413)" fill="#e8e8e8"/>
    <g id="Grupo_1078762" data-name="Grupo 1078762" transform="translate(1769.5 621.316)">
      <g id="Grupo_1078761" data-name="Grupo 1078761" transform="translate(-1195 6562)">
        <g id="Grupo_1078760" data-name="Grupo 1078760" clip-path="url(#clip-path)">
          <path id="Trazado_827457" data-name="Trazado 827457" d="M404.676,1676.1l-47.791,47.791H305.839" transform="translate(-269.346 -1476.108)" fill="none" stroke="#083142" stroke-linecap="round" stroke-linejoin="round" stroke-width="6"/>
          <path id="Trazado_827458" data-name="Trazado 827458" d="M612.917,352.709H680.5l37.4,37.4" transform="translate(-539.784 -310.624)" fill="none" stroke="#083142" stroke-linecap="round" stroke-linejoin="round" stroke-width="6"/>
          <path id="Trazado_827459" data-name="Trazado 827459" d="M2246.68,341.528h-67.587L2118.124,402.5" transform="translate(-1865.39 -300.777)" fill="none" stroke="#083142" stroke-linecap="round" stroke-linejoin="round" stroke-width="6"/>
          <path id="Trazado_827460" data-name="Trazado 827460" d="M2589.474,1676.1l47.792,47.791h51.045" transform="translate(-2280.499 -1476.108)" fill="none" stroke="#083142" stroke-linecap="round" stroke-linejoin="round" stroke-width="6"/>
          <g id="Grupo_1078730" data-name="Grupo 1078730" transform="translate(72.319 61.29)">
            <g id="Grupo_1078729" data-name="Grupo 1078729" clip-path="url(#clip-path-2)">
              <rect id="Rectángulo_378601" data-name="Rectángulo 378601" width="323.156" height="323.156" transform="translate(-74.13 74.13) rotate(-45)" fill="#b0c0d2"/>
            </g>
          </g>
          <g id="Grupo_1078741" data-name="Grupo 1078741" transform="translate(0 0)">
            <g id="Grupo_1078740" data-name="Grupo 1078740" clip-path="url(#clip-path)">
              <g id="Grupo_1078733" data-name="Grupo 1078733" transform="translate(239.325 93.475)" opacity="0.5">
                <g id="Grupo_1078732" data-name="Grupo 1078732">
                  <g id="Grupo_1078731" data-name="Grupo 1078731" clip-path="url(#clip-path-4)">
                    <path id="Trazado_827462" data-name="Trazado 827462" d="M2147.492,862.3a37.171,37.171,0,0,1-37.177,37.177H2005.747c49.64-13.618,83.833-42.266,83.833-75.406,0-14.753-6.782-28.623-18.688-40.67a53.827,53.827,0,0,1,35.183,41.975,37.1,37.1,0,0,1,41.417,36.924" transform="translate(-2005.747 -783.4)" fill="#086080"/>
                  </g>
                </g>
              </g>
              <g id="Grupo_1078736" data-name="Grupo 1078736" transform="translate(79.096 61.306)" opacity="0.5">
                <g id="Grupo_1078735" data-name="Grupo 1078735">
                  <g id="Grupo_1078734" data-name="Grupo 1078734" clip-path="url(#clip-path-5)">
                    <path id="Trazado_827463" data-name="Trazado 827463" d="M1260.22,559.489v19.377h-13.827v-1.941h11.886V559.533c.645-.029,1.291-.044,1.941-.044" transform="translate(-1176.77 -554.036)" fill="#fff"/>
                    <path id="Trazado_827464" data-name="Trazado 827464" d="M1493.345,598.281v1.941H1480.13l-12.9-12.9H1453.8V569.085c.65.136,1.3.291,1.941.461v15.83h12.294l12.9,12.9Z" transform="translate(-1359.426 -562.487)" fill="#fff"/>
                    <path id="Trazado_827465" data-name="Trazado 827465" d="M937.021,1059.332H923.041v-1.941H935.08v-12.355l13-13,1.372,1.372-12.427,12.427Z" transform="translate(-892 -970.204)" fill="#fff"/>
                    <path id="Trazado_827466" data-name="Trazado 827466" d="M1132.406,1271.184h-1.941v-26.691h13.83v1.941h-11.89Z" transform="translate(-1074.675 -1157.306)" fill="#fff"/>
                    <path id="Trazado_827467" data-name="Trazado 827467" d="M1358.912,968.176h-13.877V953.991l12.907-12.907V928.625h1.941v13.262l-12.907,12.907v11.441h11.937Z" transform="translate(-1263.642 -879.127)" fill="#fff"/>
                    <rect id="Rectángulo_378603" data-name="Rectángulo 378603" width="1.941" height="25.879" transform="translate(107.231 36.559)" fill="#fff"/>
                    <path id="Trazado_827468" data-name="Trazado 827468" d="M1012.253,813.772v1.941H986.7l-12.682,12.682h-22.69c.053-.65.126-1.3.214-1.941h21.676l12.677-12.682Z" transform="translate(-916.912 -777.978)" fill="#fff"/>
                    <path id="Trazado_827469" data-name="Trazado 827469" d="M1132.414,621.209v23.947h-1.941V622.47q.953-.655,1.941-1.261" transform="translate(-1074.681 -608.392)" fill="#fff"/>
                    <path id="Trazado_827470" data-name="Trazado 827470" d="M1240.185,948.005h-1.941V921.137h13.712v1.941h-11.772Z" transform="translate(-1169.593 -872.532)" fill="#fff"/>
                    <path id="Trazado_827471" data-name="Trazado 827471" d="M931.724,1393.921h-1.941v-25.4l-12.492-12.492,1.372-1.372,13.061,13.06Z" transform="translate(-886.937 -1254.324)" fill="#fff"/>
                    <path id="Trazado_827472" data-name="Trazado 827472" d="M694.621,1141.923l-12.987,12.982H662.892q.7-1,1.455-1.94h16.485l12.415-12.415Z" transform="translate(-662.892 -1065.765)" fill="#fff"/>
                    <path id="Trazado_827473" data-name="Trazado 827473" d="M712.411,1356.036l-12.653,12.653v24.631q-1-.866-1.941-1.814v-23.622l13.22-13.22Z" transform="translate(-693.651 -1254.33)" fill="#fff"/>
                    <path id="Trazado_827474" data-name="Trazado 827474" d="M821.948,1480.074v22.477H820.74c-.243,0-.49,0-.733-.01v-20.526H807.151v-13.832h1.941v11.891Z" transform="translate(-789.938 -1354.305)" fill="#fff"/>
                    <path id="Trazado_827475" data-name="Trazado 827475" d="M1132.406,1499.137h-1.941v-21.6L1143.7,1464.3l1.372,1.372-12.664,12.664Z" transform="translate(-1074.675 -1350.889)" fill="#fff"/>
                    <path id="Trazado_827476" data-name="Trazado 827476" d="M1284.246,1366.765l-12.552-12.552h-25.318v-1.941H1272.5l13.121,13.121Z" transform="translate(-1176.755 -1252.225)" fill="#fff"/>
                    <path id="Trazado_827477" data-name="Trazado 827477" d="M1252.777,1470.054v13.322l-12.575,12.575v8.248h-1.941v-9.048l12.575-12.58v-12.517Z" transform="translate(-1169.609 -1355.953)" fill="#fff"/>
                    <path id="Trazado_827478" data-name="Trazado 827478" d="M1493.779,1496.727v9.62h-1.941v-7.68h-38.651v-26.174h1.941v24.233Z" transform="translate(-1358.889 -1358.101)" fill="#fff"/>
                    <path id="Trazado_827479" data-name="Trazado 827479" d="M1566.217,1288.024l-1.372-1.372,12.409-12.409V1262.02l-12.413-12.414,1.372-1.372,12.982,12.982v13.83Z" transform="translate(-1457.221 -1160.6)" fill="#fff"/>
                    <path id="Trazado_827480" data-name="Trazado 827480" d="M1486.163,1047.248h-26.377v-1.941h25.574l12.385-12.385,1.372,1.372Z" transform="translate(-1364.701 -970.98)" fill="#fff"/>
                    <path id="Trazado_827481" data-name="Trazado 827481" d="M1702.937,828.91h-25.929v-1.941h25.126l12.61-12.61,1.372,1.372Z" transform="translate(-1556.003 -778.495)" fill="#fff"/>
                    <path id="Trazado_827482" data-name="Trazado 827482" d="M1704.084,617.531V631.2h-1.941V619.472H1689.85L1677.382,607c.432-.48.873-.946,1.344-1.4l11.93,11.935Z" transform="translate(-1556.333 -594.643)" fill="#fff"/>
                    <path id="Trazado_827483" data-name="Trazado 827483" d="M1899.588,537.022l-1.373,1.373-13.308-13.307V513.9c.641-.053,1.286-.087,1.941-.112v10.5Z" transform="translate(-1739.097 -513.788)" fill="#fff"/>
                    <path id="Trazado_827484" data-name="Trazado 827484" d="M2114.082,605.37v1.941h-13.6V577.135c.665.495,1.31,1.019,1.941,1.562V605.37Z" transform="translate(-1928.95 -569.577)" fill="#fff"/>
                    <path id="Trazado_827485" data-name="Trazado 827485" d="M1994.625,947.851h-1.941V921.161h13.83V923.1h-11.89Z" transform="translate(-1834.014 -872.553)" fill="#fff"/>
                    <path id="Trazado_827486" data-name="Trazado 827486" d="M1779.071,1151.76h-1.941v-13.576h13.83v1.941h-11.89Z" transform="translate(-1644.18 -1063.681)" fill="#fff"/>
                    <path id="Trazado_827487" data-name="Trazado 827487" d="M1779.071,1284.929h-1.941v-26.69h13.179l12.74-12.74,1.372,1.372-13.309,13.309h-12.042Z" transform="translate(-1644.18 -1158.191)" fill="#fff"/>
                    <path id="Trazado_827488" data-name="Trazado 827488" d="M1898.329,1460.052v1.941h-11.847v33.4h-1.94v-35.338Z" transform="translate(-1738.774 -1347.144)" fill="#fff"/>
                    <path id="Trazado_827489" data-name="Trazado 827489" d="M2021.474,1584.726h-13.262l-13.144-13.144,1.372-1.372,12.576,12.576h12.458Z" transform="translate(-1836.113 -1444.158)" fill="#fff"/>
                    <path id="Trazado_827490" data-name="Trazado 827490" d="M2332.971,853.86h-1.941V828.437l-12.63-12.63,1.372-1.372,13.2,13.2Z" transform="translate(-2120.865 -778.562)" fill="#fff"/>
                    <path id="Trazado_827491" data-name="Trazado 827491" d="M2559.072,796.012h-27.479V776.854c.655.194,1.3.4,1.941.626v16.592h24q.786.953,1.533,1.941" transform="translate(-2308.62 -745.465)" fill="#fff"/>
                    <path id="Trazado_827492" data-name="Trazado 827492" d="M2101.673,962.731h-1.941v-13.1l26.091-26.092,1.372,1.372-25.523,25.523Z" transform="translate(-1928.289 -874.652)" fill="#fff"/>
                    <path id="Trazado_827493" data-name="Trazado 827493" d="M2342.041,1076.532l-26.023-26.023v-13.437h1.941v12.633l25.455,25.454Z" transform="translate(-2118.767 -974.634)" fill="#fff"/>
                    <rect id="Rectángulo_378604" data-name="Rectángulo 378604" width="1.941" height="25.677" transform="translate(184.347 75.341)" fill="#fff"/>
                    <path id="Trazado_827494" data-name="Trazado 827494" d="M2024.72,1380.118h-13.689v-25.9h-12.018v-1.941h13.958v25.9h11.748Z" transform="translate(-1839.588 -1252.225)" fill="#fff"/>
                    <path id="Trazado_827495" data-name="Trazado 827495" d="M2238,1378.473h-1.941v-24.816h-11.421L2212,1366.3l-1.372-1.372,13.211-13.211H2238Z" transform="translate(-2025.95 -1251.735)" fill="#fff"/>
                    <path id="Trazado_827496" data-name="Trazado 827496" d="M2357.54,1584.352v9.4H2355.6v-7.461h-25.267l-13.176-13.177,1.373-1.373,12.609,12.609Z" transform="translate(-2119.77 -1445.509)" fill="#fff"/>
                    <path id="Trazado_827497" data-name="Trazado 827497" d="M2568.534,1030.882h-20.42l-12.546,12.546-1.373-1.373,13.118-13.114h20.425c.277.641.543,1.286.8,1.941" transform="translate(-2310.912 -967.473)" fill="#fff"/>
                    <path id="Trazado_827498" data-name="Trazado 827498" d="M2566.4,1158.492h-26.69v-1.941h24.75v-11.94h1.941Z" transform="translate(-2315.766 -1069.343)" fill="#fff"/>
                    <path id="Trazado_827499" data-name="Trazado 827499" d="M2535.715,1386.857l-1.372-1.372,12.53-12.529v-12.551h1.941v13.354Z" transform="translate(-2311.042 -1259.387)" fill="#fff"/>
                    <path id="Trazado_827500" data-name="Trazado 827500" d="M2868.27,1179.22h-13.894v-27.15l13.208-13.208,1.372,1.372-12.639,12.639v24.406h11.953Z" transform="translate(-2592.889 -1064.279)" fill="#fff"/>
                    <path id="Trazado_827501" data-name="Trazado 827501" d="M2762.056,1400.179v8.878h-1.941v-8.073L2747.128,1388v-25.975h1.94v25.169Z" transform="translate(-2498.438 -1260.812)" fill="#fff"/>
                    <rect id="Rectángulo_378605" data-name="Rectángulo 378605" width="1.941" height="8.922" transform="translate(248.69 139.324)" fill="#fff"/>
                    <path id="Trazado_827502" data-name="Trazado 827502" d="M2985.1,1245.563h-6.055l-12.614,12.614-1.373-1.373,13.182-13.181h5.327c.533.626,1.043,1.276,1.533,1.941" transform="translate(-2690.367 -1156.539)" fill="#fff"/>
                    <path id="Trazado_827503" data-name="Trazado 827503" d="M2977.5,1359.868v26.8h-12.856v18.659c-.636.214-1.286.4-1.941.577v-21.177h12.856v-24.859Z" transform="translate(-2688.291 -1258.914)" fill="#fff"/>
                  </g>
                </g>
              </g>
              <g id="Grupo_1078739" data-name="Grupo 1078739" transform="translate(72.319 61.291)" opacity="0.24">
                <g id="Grupo_1078738" data-name="Grupo 1078738">
                  <g id="Grupo_1078737" data-name="Grupo 1078737" clip-path="url(#clip-path-6)">
                    <path id="Trazado_827504" data-name="Trazado 827504" d="M794.478,532.718q-2.249-.051-4.512-.048c-76.013,0-137.636,39.01-137.636,87.137,0,15.277,6.21,29.638,17.126,42.12H643.67a37.577,37.577,0,1,1,7.088-74.479,49.537,49.537,0,0,1,78.885-55.685,37.585,37.585,0,0,1,64.835.956" transform="translate(-606.091 -513.667)" fill="#fff"/>
                  </g>
                </g>
              </g>
            </g>
          </g>
          <g id="Grupo_1078743" data-name="Grupo 1078743" transform="translate(69.409 58.377)">
            <g id="Grupo_1078742" data-name="Grupo 1078742" clip-path="url(#clip-path-7)">
              <rect id="Rectángulo_378609" data-name="Rectángulo 378609" width="349.472" height="290.729" transform="translate(-66.721 38.522) rotate(-30)" fill="#083142"/>
            </g>
          </g>
          <g id="Grupo_1078745" data-name="Grupo 1078745" transform="translate(37.079 2.467)">
            <g id="Grupo_1078744" data-name="Grupo 1078744" clip-path="url(#clip-path-8)">
              <rect id="Rectángulo_378610" data-name="Rectángulo 378610" width="79.443" height="79.443" transform="translate(0 0)" fill="url(#radial-gradient)"/>
            </g>
          </g>
          <g id="Grupo_1078747" data-name="Grupo 1078747" transform="translate(0 0)">
            <g id="Grupo_1078746" data-name="Grupo 1078746" clip-path="url(#clip-path-9)">
              <path id="Trazado_827507" data-name="Trazado 827507" d="M495.515,206h13.8a.69.69,0,0,0,0-1.38h-13.8a2.072,2.072,0,0,1-2.069-2.069V171.164a2.072,2.072,0,0,1,2.069-2.069H512.76a2.072,2.072,0,0,1,2.069,2.069v13.8a.69.69,0,0,0,1.38,0v-13.8a3.453,3.453,0,0,0-3.449-3.449H495.515a3.453,3.453,0,0,0-3.449,3.449V202.55A3.453,3.453,0,0,0,495.515,206" transform="translate(-433.353 -147.703)" fill="#083142"/>
              <path id="Trazado_827508" data-name="Trazado 827508" d="M527.442,439.426a.69.69,0,1,0,0,1.38h11.727a.69.69,0,0,0,0-1.38Z" transform="translate(-463.9 -386.994)" fill="#083142"/>
              <path id="Trazado_827509" data-name="Trazado 827509" d="M542.617,208.872a.69.69,0,0,0-.69-.69H527.442a.69.69,0,1,0,0,1.38h14.486a.69.69,0,0,0,.69-.69" transform="translate(-463.9 -183.342)" fill="#083142"/>
              <path id="Trazado_827510" data-name="Trazado 827510" d="M564.624,247.353a4.484,4.484,0,1,0-4.484,4.484,4.489,4.489,0,0,0,4.484-4.484m-7.588,0a3.1,3.1,0,1,1,3.1,3.1,3.108,3.108,0,0,1-3.1-3.1" transform="translate(-489.356 -213.89)" fill="#083142"/>
              <path id="Trazado_827511" data-name="Trazado 827511" d="M551.419,340.753V336.96a4.489,4.489,0,0,0-4.484-4.484H542.8a4.489,4.489,0,0,0-4.484,4.484v3.794a.69.69,0,0,0,.69.69h11.727a.69.69,0,0,0,.69-.69m-1.38-.69H539.693v-3.1a3.108,3.108,0,0,1,3.1-3.1h4.139a3.108,3.108,0,0,1,3.1,3.1Z" transform="translate(-474.082 -292.805)" fill="#083142"/>
              <path id="Trazado_827512" data-name="Trazado 827512" d="M663.165,320.52h-.69a2.762,2.762,0,0,0-2.759,2.759v8.278a7.6,7.6,0,0,0,7.588,7.588h5.518a7.6,7.6,0,0,0,7.588-7.588v-8.278a2.762,2.762,0,0,0-2.759-2.759h-.69v-1.38a6.9,6.9,0,0,0-13.8,0Zm15.865,2.759v8.278a6.215,6.215,0,0,1-6.208,6.208H667.3a6.215,6.215,0,0,1-6.208-6.208v-8.278a1.381,1.381,0,0,1,1.38-1.38h15.176a1.381,1.381,0,0,1,1.38,1.38m-14.486-4.139a5.518,5.518,0,0,1,11.037,0v1.38H664.545Z" transform="translate(-580.999 -274.985)" fill="#083142"/>
              <path id="Trazado_827513" data-name="Trazado 827513" d="M692.2,411.983a.69.69,0,0,0,.69-.69,5.179,5.179,0,0,1,5.173-5.173.69.69,0,1,0,0-1.38,6.56,6.56,0,0,0-6.553,6.553.69.69,0,0,0,.69.69" transform="translate(-609.002 -356.446)" fill="#083142"/>
              <path id="Trazado_827514" data-name="Trazado 827514" d="M764.14,411.806a5.17,5.17,0,0,1,2.739,4.566.625.625,0,0,1,0,.345V421.2a.69.69,0,1,0,1.38,0v-4.484a.62.62,0,0,1,0-.345,6.546,6.546,0,0,0-3.469-5.783.69.69,0,1,0-.65,1.217" transform="translate(-672.641 -361.525)" fill="#083142"/>
              <path id="Trazado_827515" data-name="Trazado 827515" d="M692.2,477.906a.69.69,0,0,0,.69-.69V474.8a.69.69,0,1,0-1.38,0v2.414a.69.69,0,0,0,.69.69" transform="translate(-609.002 -417.541)" fill="#083142"/>
              <path id="Trazado_827516" data-name="Trazado 827516" d="M716.16,427.871a4.106,4.106,0,0,0-3.1,1.11,4.155,4.155,0,0,0-1.309,3.02v5.173a.69.69,0,1,0,1.38,0V432a2.759,2.759,0,0,1,2.944-2.753,2.827,2.827,0,0,1,2.574,2.871v3.676a.691.691,0,0,1-.69.69h-1.724a.69.69,0,0,1-.69-.69v-3.449a.62.62,0,0,1,0-.345.345.345,0,0,1,.69,0,.69.69,0,1,0,1.38,0,1.724,1.724,0,1,0-3.449,0,.623.623,0,0,1,0,.345v3.449a2.072,2.072,0,0,0,2.069,2.069h1.724a2.072,2.072,0,0,0,2.069-2.069v-3.676a4.209,4.209,0,0,0-3.865-4.248" transform="translate(-626.822 -376.809)" fill="#083142"/>
              <path id="Trazado_827517" data-name="Trazado 827517" d="M750.014,474.112a.69.69,0,0,0-.69.69v1.035a.69.69,0,1,0,1.38,0V474.8a.69.69,0,0,0-.69-.69" transform="translate(-659.915 -417.541)" fill="#083142"/>
            </g>
          </g>
          <g id="Grupo_1078749" data-name="Grupo 1078749" transform="translate(0 206.477)">
            <g id="Grupo_1078748" data-name="Grupo 1078748" clip-path="url(#clip-path-10)">
              <rect id="Rectángulo_378612" data-name="Rectángulo 378612" width="79.442" height="79.442" transform="translate(0 0)" fill="url(#radial-gradient-2)"/>
            </g>
          </g>
          <g id="Grupo_1078751" data-name="Grupo 1078751" transform="translate(0 0)">
            <g id="Grupo_1078750" data-name="Grupo 1078750" clip-path="url(#clip-path-9)">
              <path id="Trazado_827519" data-name="Trazado 827519" d="M366.136,2055.481a1.378,1.378,0,0,0-.98-.406h-7.016a1.378,1.378,0,0,0-.98.406l-5.459,5.459a1.377,1.377,0,0,0-.406.98v7.017a1.376,1.376,0,0,0,.406.98l5.459,5.459a1.377,1.377,0,0,0,.98.406h7.016a1.377,1.377,0,0,0,.98-.406l5.459-5.459a1.378,1.378,0,0,0,.406-.98v-7.017a1.376,1.376,0,0,0-.406-.98Zm-.98,18.908-7.012,0-5.457-5.455,0-7.012,5.455-5.457h7.014l5.455,5.452,0,7.012Z" transform="translate(-309.378 -1809.864)" fill="#083142"/>
              <path id="Trazado_827520" data-name="Trazado 827520" d="M171.658,1886.858a2.056,2.056,0,0,0,.606,1.463l1.808,1.808v5.578a4.143,4.143,0,0,0,4.139,4.139h12.416a4.143,4.143,0,0,0,4.139-4.139v-5.578l1.808-1.808a2.057,2.057,0,0,0,.606-1.463v-1.923a3.1,3.1,0,1,0-1.38,0v1.923a.685.685,0,0,1-.2.488l-.879.879a4.142,4.142,0,0,0-4.093-3.554H178.211a4.142,4.142,0,0,0-4.093,3.554l-.879-.879a.686.686,0,0,1-.2-.488v-1.923a3.1,3.1,0,1,0-1.38,0Zm23.108-4.947a1.724,1.724,0,1,1,1.725,1.724,1.726,1.726,0,0,1-1.725-1.724m-19.314,6.9a2.762,2.762,0,0,1,2.759-2.759h12.416a2.762,2.762,0,0,1,2.759,2.759v6.9a2.762,2.762,0,0,1-2.759,2.759H178.211a2.762,2.762,0,0,1-2.759-2.759Zm-4.829-6.9a1.724,1.724,0,1,1,1.725,1.724,1.726,1.726,0,0,1-1.725-1.724" transform="translate(-149.05 -1654.628)" fill="#083142"/>
              <path id="Trazado_827521" data-name="Trazado 827521" d="M205.9,2086.269H189a1.036,1.036,0,0,1-1.035-1.035v-6.9a4.489,4.489,0,0,1,4.484-4.484h14.486a.69.69,0,0,0,0-1.38H192.451a5.87,5.87,0,0,0-5.863,5.864v6.9a2.417,2.417,0,0,0,2.414,2.414h16.9a.69.69,0,0,0,0-1.38" transform="translate(-164.324 -1825.186)" fill="#083142"/>
              <path id="Trazado_827522" data-name="Trazado 827522" d="M280.334,2014.662h-3.449a.69.69,0,1,0,0,1.38h3.449a.69.69,0,1,0,0-1.38" transform="translate(-243.24 -1774.273)" fill="#083142"/>
              <path id="Trazado_827523" data-name="Trazado 827523" d="M237.107,1967.117h3.449a1.381,1.381,0,0,0,1.38-1.38v-1.725a1.381,1.381,0,0,0-1.38-1.379h-3.449a1.381,1.381,0,0,0-1.38,1.379v1.725a1.381,1.381,0,0,0,1.38,1.38m0-3.1h3.449v1.725h-3.45Z" transform="translate(-207.6 -1728.452)" fill="#083142"/>
              <path id="Trazado_827524" data-name="Trazado 827524" d="M306.48,1967.117h3.449a1.381,1.381,0,0,0,1.38-1.38v-1.725a1.381,1.381,0,0,0-1.38-1.379H306.48a1.381,1.381,0,0,0-1.38,1.379v1.725a1.381,1.381,0,0,0,1.38,1.38m0-3.1h3.449v1.725h-3.45Z" transform="translate(-268.696 -1728.452)" fill="#083142"/>
              <path id="Trazado_827525" data-name="Trazado 827525" d="M399.273,2121.613h-8.967a1.381,1.381,0,0,0-1.38,1.38v2.069a1.381,1.381,0,0,0,1.38,1.379h8.967a1.381,1.381,0,0,0,1.38-1.379v-2.069a1.381,1.381,0,0,0-1.38-1.38m-8.967,3.449v-2.069h8.967v2.069Z" transform="translate(-342.52 -1868.463)" fill="#083142"/>
            </g>
          </g>
          <g id="Grupo_1078753" data-name="Grupo 1078753" transform="translate(322.18 -16.453)">
            <g id="Grupo_1078752" data-name="Grupo 1078752" clip-path="url(#clip-path-12)">
              <rect id="Rectángulo_378614" data-name="Rectángulo 378614" width="79.442" height="79.442" transform="translate(16.453 16.453)" fill="url(#radial-gradient-3)"/>
            </g>
          </g>
          <g id="Grupo_1078755" data-name="Grupo 1078755" transform="translate(0 0)">
            <g id="Grupo_1078754" data-name="Grupo 1078754" clip-path="url(#clip-path-9)">
              <path id="Trazado_827526" data-name="Trazado 827526" d="M2990.867,181.739h17.59a.69.69,0,0,0,0-1.38h-17.59a2.762,2.762,0,0,1-2.759-2.759V161.39a2.739,2.739,0,0,1,.385-1.4l12.554,12.554a4.141,4.141,0,0,0,5.852,0l12.554-12.554a2.739,2.739,0,0,1,.385,1.4v1.725a.69.69,0,0,0,1.38,0V161.39a4.125,4.125,0,0,0-1.2-2.906c-.006-.007-.01-.014-.017-.02L3006.9,145.358a4.137,4.137,0,0,0-5.853,0l-13.106,13.106c-.006.006-.011.014-.017.02a4.125,4.125,0,0,0-1.2,2.906V177.6a4.144,4.144,0,0,0,4.139,4.139m15.057-10.169a2.761,2.761,0,0,1-3.9,0l-12.554-12.554a2.736,2.736,0,0,1,1.4-.385h26.212a2.737,2.737,0,0,1,1.4.385Zm-3.9-25.237a2.757,2.757,0,0,1,3.9,0l10.918,10.918H2991.1Z" transform="translate(-2630.353 -126.945)" fill="#083142"/>
              <path id="Trazado_827527" data-name="Trazado 827527" d="M3234.922,370.166v-.345a3.1,3.1,0,0,0-6.208,0v.345a2.072,2.072,0,0,0-2.069,2.069v4.139a2.072,2.072,0,0,0,2.069,2.069h6.208a2.072,2.072,0,0,0,2.069-2.069v-4.139a2.072,2.072,0,0,0-2.069-2.069m-4.829-.345a1.724,1.724,0,1,1,3.449,0v.345h-3.449Zm5.518,6.553a.691.691,0,0,1-.69.69h-6.208a.691.691,0,0,1-.69-.69v-4.139a.691.691,0,0,1,.69-.69h6.208a.691.691,0,0,1,.69.69Z" transform="translate(-2841.642 -322.96)" fill="#083142"/>
              <path id="Trazado_827528" data-name="Trazado 827528" d="M3259.82,418.746a1.38,1.38,0,1,0,1.379,1.38,1.381,1.381,0,0,0-1.379-1.38" transform="translate(-2869.644 -368.781)" fill="#083142"/>
              <path id="Trazado_827529" data-name="Trazado 827529" d="M3202.589,325.137,3195,320.8a2.984,2.984,0,0,0-2.738,0l-7.588,4.336h0a2.765,2.765,0,0,0-1.39,2.4v4.915a9.343,9.343,0,0,0,4.666,8.07l5.346,2.972a.69.69,0,0,0,.67,0l5.355-2.978a9.338,9.338,0,0,0,4.656-8.065v-4.915a2.765,2.765,0,0,0-1.39-2.4m.011,7.31a7.952,7.952,0,0,1-3.957,6.864l-5.011,2.786-5-2.78a7.955,7.955,0,0,1-3.966-6.87v-4.915a1.383,1.383,0,0,1,.7-1.2l7.587-4.336a1.628,1.628,0,0,1,1.369,0l7.588,4.336a1.383,1.383,0,0,1,.7,1.2Z" transform="translate(-2803.456 -282.23)" fill="#083142"/>
            </g>
          </g>
          <g id="Grupo_1078757" data-name="Grupo 1078757" transform="translate(369.558 203.841)">
            <g id="Grupo_1078756" data-name="Grupo 1078756" clip-path="url(#clip-path-14)">
              <rect id="Rectángulo_378616" data-name="Rectángulo 378616" width="79.442" height="79.442" transform="translate(0)" fill="url(#radial-gradient-4)"/>
            </g>
          </g>
          <g id="Grupo_1078759" data-name="Grupo 1078759" transform="translate(0 0)">
            <g id="Grupo_1078758" data-name="Grupo 1078758" clip-path="url(#clip-path-9)">
              <path id="Trazado_827531" data-name="Trazado 827531" d="M3483.367,2113.49v-.345a3.1,3.1,0,0,0-6.208,0v.345a2.072,2.072,0,0,0-2.069,2.069v4.139a2.072,2.072,0,0,0,2.069,2.069h6.208a2.072,2.072,0,0,0,2.069-2.069v-4.139a2.072,2.072,0,0,0-2.069-2.069m-4.829-.345a1.725,1.725,0,0,1,3.449,0v.345h-3.449Zm5.519,6.553a.691.691,0,0,1-.69.69h-6.208a.691.691,0,0,1-.69-.69v-4.139a.69.69,0,0,1,.69-.69h6.208a.69.69,0,0,1,.69.69Z" transform="translate(-3060.443 -1858.271)" fill="#083142"/>
              <path id="Trazado_827532" data-name="Trazado 827532" d="M3508.265,2162.071a1.38,1.38,0,1,0,1.379,1.38,1.381,1.381,0,0,0-1.379-1.38" transform="translate(-3088.444 -1904.093)" fill="#083142"/>
              <path id="Trazado_827533" data-name="Trazado 827533" d="M3451.035,2068.461l-7.588-4.336a2.984,2.984,0,0,0-2.738,0l-7.588,4.336h0a2.766,2.766,0,0,0-1.39,2.4v4.915a9.343,9.343,0,0,0,4.666,8.07l5.346,2.972a.69.69,0,0,0,.67,0l5.355-2.978a9.338,9.338,0,0,0,4.656-8.064v-4.915a2.766,2.766,0,0,0-1.39-2.4m.011,7.311a7.95,7.95,0,0,1-3.957,6.864l-5.011,2.786-5-2.78a7.955,7.955,0,0,1-3.966-6.87v-4.915a1.383,1.383,0,0,1,.7-1.2l7.588-4.336a1.626,1.626,0,0,1,1.369,0l7.588,4.336a1.383,1.383,0,0,1,.7,1.2Z" transform="translate(-3022.258 -1817.542)" fill="#083142"/>
              <path id="Trazado_827534" data-name="Trazado 827534" d="M3235.524,1901.175l7.933,4.484a.69.69,0,0,0,.679,0l3.268-1.847,2.686,1.516-4.563,2.579a.691.691,0,0,0-.35.6v7.933a.69.69,0,0,0,.35.6l7.933,4.484a.69.69,0,0,0,.679,0l2.759-1.559a.69.69,0,1,0-.679-1.2l-1.73.977v-6.348l7.582-4.286c.013-.008.024-.018.037-.026a.7.7,0,0,0,.061-.043.663.663,0,0,0,.049-.047.652.652,0,0,0,.045-.048.679.679,0,0,0,.044-.062c.008-.012.018-.022.025-.035s0-.011.007-.016a.636.636,0,0,0,.03-.069c.008-.019.017-.038.022-.058s.01-.043.014-.065.01-.044.012-.067,0-.044,0-.066,0-.044,0-.066-.007-.044-.012-.067-.008-.043-.014-.065-.015-.039-.022-.058a.634.634,0,0,0-.03-.069c0-.005,0-.011-.007-.016s-.017-.023-.025-.036a.667.667,0,0,0-.043-.062c-.014-.018-.031-.033-.046-.049s-.031-.031-.048-.045a.638.638,0,0,0-.063-.044c-.012-.008-.022-.018-.035-.025l-4.562-2.579,2.686-1.516,3.268,1.847a.689.689,0,0,0,.678,0l7.933-4.484a.69.69,0,0,0,.35-.6v-7.933a.691.691,0,0,0-.35-.6l-7.933-4.484a.689.689,0,0,0-.678,0l-7.933,4.484a.69.69,0,0,0-.35.6v5.518h-2.759v-5.518a.69.69,0,0,0-.351-.6l-7.933-4.484a.689.689,0,0,0-.679,0l-7.933,4.484a.69.69,0,0,0-.35.6v7.933a.69.69,0,0,0,.35.6m1.029-7.351,6.553,3.7v6.348l-6.553-3.7Zm23.776,14.683-6.531,3.691-6.531-3.691,6.531-3.691Zm-13.774,1.182,6.553,3.7v6.348l-6.553-3.7Zm17.935-5.813v-6.348l6.553-3.7v6.348Zm-.69-14.925,6.531,3.691-6.531,3.691-6.531-3.691Zm-7.243,4.874,6.553,3.7v6.348l-6.553-3.7v-.632h3.1a.69.69,0,0,0,0-1.38h-3.1Zm-1.379,5.716v1.035a.69.69,0,0,0,.35.6l3.262,1.844-2.685,1.516-1.968-1.112a.689.689,0,0,0-.679,0l-1.968,1.112-2.686-1.516,3.262-1.844a.689.689,0,0,0,.351-.6v-1.035Zm-7.243,0h3.1v.632l-6.553,3.7v-6.348l6.553-3.7v4.336h-3.1a.69.69,0,0,0,0,1.38m-4.139-10.589,6.531,3.691-6.531,3.691-6.531-3.691Z" transform="translate(-2849.154 -1662.256)" fill="#083142"/>
            </g>
          </g>
        </g>
      </g>
    </g>
    <path id="Trazado_829289" data-name="Trazado 829289" d="M-38.4,0h-1.609l-5.766-8.93a3.731,3.731,0,0,1-.359-.7h-.047a11.534,11.534,0,0,1,.063,1.539V0H-47.43V-11.2h1.7l5.609,8.789q.352.547.453.75h.031a11.853,11.853,0,0,1-.078-1.648V-11.2H-38.4Zm9.234,0h-1.281V-1.266h-.031A2.631,2.631,0,0,1-32.945.188Q-35.8.188-35.8-3.219V-8h1.273v4.578q0,2.531,1.938,2.531a1.96,1.96,0,0,0,1.543-.691,2.645,2.645,0,0,0,.605-1.809V-8h1.281Zm3.9-1.156H-25.3V0h-1.281V-11.844H-25.3v5.25h.031A3.03,3.03,0,0,1-22.5-8.187a2.932,2.932,0,0,1,2.41,1.074,4.436,4.436,0,0,1,.871,2.879A4.959,4.959,0,0,1-20.2-1.02,3.251,3.251,0,0,1-22.867.188,2.631,2.631,0,0,1-25.266-1.156ZM-25.3-4.383v1.117a2.379,2.379,0,0,0,.645,1.684,2.14,2.14,0,0,0,1.637.691,2.145,2.145,0,0,0,1.824-.891,4.086,4.086,0,0,0,.66-2.477,3.225,3.225,0,0,0-.617-2.094,2.043,2.043,0,0,0-1.672-.758,2.27,2.27,0,0,0-1.8.777A2.854,2.854,0,0,0-25.3-4.383Zm14.555.7h-5.648a2.992,2.992,0,0,0,.719,2.063,2.478,2.478,0,0,0,1.891.727A3.931,3.931,0,0,0-11.3-1.781v1.2a4.643,4.643,0,0,1-2.789.766A3.381,3.381,0,0,1-16.75-.9a4.461,4.461,0,0,1-.969-3.066A4.375,4.375,0,0,1-16.66-7.012a3.394,3.394,0,0,1,2.629-1.176A3.008,3.008,0,0,1-11.6-7.172a4.234,4.234,0,0,1,.859,2.82Zm-1.312-1.086a2.607,2.607,0,0,0-.535-1.727,1.823,1.823,0,0,0-1.465-.617,2.07,2.07,0,0,0-1.539.648,2.943,2.943,0,0,0-.781,1.7Zm8.945,3.609h-.031V3.68H-4.422V-8h1.281v1.406h.031A3.03,3.03,0,0,1-.344-8.187,2.93,2.93,0,0,1,2.07-7.113a4.449,4.449,0,0,1,.867,2.879A4.959,4.959,0,0,1,1.961-1.02,3.251,3.251,0,0,1-.711.188,2.676,2.676,0,0,1-3.109-1.156Zm-.031-3.227v1.117A2.379,2.379,0,0,0-2.5-1.582,2.14,2.14,0,0,0-.859-.891,2.145,2.145,0,0,0,.965-1.781a4.086,4.086,0,0,0,.66-2.477,3.225,3.225,0,0,0-.617-2.094A2.043,2.043,0,0,0-.664-7.109a2.27,2.27,0,0,0-1.8.777A2.854,2.854,0,0,0-3.141-4.383ZM11.453,0H10.172V-1.266h-.031A2.631,2.631,0,0,1,7.672.188q-2.859,0-2.859-3.406V-8H6.086v4.578q0,2.531,1.938,2.531a1.96,1.96,0,0,0,1.543-.691,2.645,2.645,0,0,0,.605-1.809V-8h1.281Zm-1.2-12.078L8.2-9.516H7.211l1.742-2.562Zm5.1,10.922H15.32V0H14.039V-11.844H15.32v5.25h.031a3.03,3.03,0,0,1,2.766-1.594,2.932,2.932,0,0,1,2.41,1.074A4.436,4.436,0,0,1,21.4-4.234a4.959,4.959,0,0,1-.977,3.215A3.251,3.251,0,0,1,17.75.188,2.631,2.631,0,0,1,15.352-1.156ZM15.32-4.383v1.117a2.379,2.379,0,0,0,.645,1.684A2.14,2.14,0,0,0,17.6-.891a2.145,2.145,0,0,0,1.824-.891,4.086,4.086,0,0,0,.66-2.477,3.225,3.225,0,0,0-.617-2.094A2.043,2.043,0,0,0,17.8-7.109a2.27,2.27,0,0,0-1.8.777A2.854,2.854,0,0,0,15.32-4.383ZM24.727,0H23.445V-11.844h1.281Zm3.25-10.031a.812.812,0,0,1-.586-.234.791.791,0,0,1-.242-.594.8.8,0,0,1,.242-.6.8.8,0,0,1,.586-.238.827.827,0,0,1,.6.238.8.8,0,0,1,.246.6.792.792,0,0,1-.246.586A.82.82,0,0,1,27.977-10.031ZM28.6,0H27.32V-8H28.6Zm8.047-.367a4.163,4.163,0,0,1-2.187.555A3.622,3.622,0,0,1,31.7-.926a4.035,4.035,0,0,1-1.051-2.887,4.435,4.435,0,0,1,1.133-3.176,3.963,3.963,0,0,1,3.023-1.2,4.209,4.209,0,0,1,1.859.391v1.313a3.258,3.258,0,0,0-1.906-.625,2.576,2.576,0,0,0-2.012.879,3.335,3.335,0,0,0-.785,2.309A3.176,3.176,0,0,0,32.7-1.7a2.545,2.545,0,0,0,1.98.813,3.211,3.211,0,0,0,1.969-.7ZM44.313,0H43.031V-1.25H43A2.682,2.682,0,0,1,40.539.188a2.63,2.63,0,0,1-1.871-.633,2.192,2.192,0,0,1-.676-1.68q0-2.242,2.641-2.609l2.4-.336q0-2.039-1.648-2.039a3.938,3.938,0,0,0-2.609.984V-7.437a4.958,4.958,0,0,1,2.719-.75q2.82,0,2.82,2.984ZM43.031-4.047l-1.93.266a3.133,3.133,0,0,0-1.344.441A1.273,1.273,0,0,0,39.3-2.219a1.221,1.221,0,0,0,.418.957,1.615,1.615,0,0,0,1.113.371,2.056,2.056,0,0,0,1.574-.668,2.387,2.387,0,0,0,.621-1.691ZM47.172.172a.829.829,0,0,1-.613-.258A.849.849,0,0,1,46.3-.7a.862.862,0,0,1,.254-.621.823.823,0,0,1,.613-.262.845.845,0,0,1,.625.262.855.855,0,0,1,.258.621.842.842,0,0,1-.258.617A.851.851,0,0,1,47.172.172Z" transform="translate(554.5 7230)" fill="#12263f"/>
    <path id="Trazado_829291" data-name="Trazado 829291" d="M-38.93,0h-1.609L-46.3-8.93a3.731,3.731,0,0,1-.359-.7h-.047a11.534,11.534,0,0,1,.063,1.539V0h-1.312V-11.2h1.7l5.609,8.789q.352.547.453.75h.031a11.853,11.853,0,0,1-.078-1.648V-11.2h1.313ZM-29.7,0h-1.281V-1.266h-.031A2.631,2.631,0,0,1-33.477.188q-2.859,0-2.859-3.406V-8h1.273v4.578q0,2.531,1.938,2.531a1.96,1.96,0,0,0,1.543-.691,2.645,2.645,0,0,0,.605-1.809V-8H-29.7Zm3.9-1.156h-.031V0h-1.281V-11.844h1.281v5.25h.031a3.03,3.03,0,0,1,2.766-1.594,2.932,2.932,0,0,1,2.41,1.074,4.436,4.436,0,0,1,.871,2.879,4.959,4.959,0,0,1-.977,3.215A3.251,3.251,0,0,1-23.4.188,2.631,2.631,0,0,1-25.8-1.156Zm-.031-3.227v1.117a2.379,2.379,0,0,0,.645,1.684,2.14,2.14,0,0,0,1.637.691,2.145,2.145,0,0,0,1.824-.891,4.086,4.086,0,0,0,.66-2.477,3.225,3.225,0,0,0-.617-2.094,2.043,2.043,0,0,0-1.672-.758,2.27,2.27,0,0,0-1.8.777A2.854,2.854,0,0,0-25.828-4.383Zm14.555.7h-5.648A2.992,2.992,0,0,0-16.2-1.617a2.478,2.478,0,0,0,1.891.727,3.931,3.931,0,0,0,2.484-.891v1.2a4.643,4.643,0,0,1-2.789.766A3.381,3.381,0,0,1-17.281-.9a4.461,4.461,0,0,1-.969-3.066,4.375,4.375,0,0,1,1.059-3.043,3.394,3.394,0,0,1,2.629-1.176,3.008,3.008,0,0,1,2.43,1.016,4.234,4.234,0,0,1,.859,2.82Zm-1.312-1.086a2.607,2.607,0,0,0-.535-1.727,1.823,1.823,0,0,0-1.465-.617,2.07,2.07,0,0,0-1.539.648,2.943,2.943,0,0,0-.781,1.7Zm8.945,3.609h-.031V3.68H-4.953V-8h1.281v1.406h.031A3.03,3.03,0,0,1-.875-8.187,2.93,2.93,0,0,1,1.539-7.113a4.449,4.449,0,0,1,.867,2.879A4.959,4.959,0,0,1,1.43-1.02,3.251,3.251,0,0,1-1.242.188,2.676,2.676,0,0,1-3.641-1.156Zm-.031-3.227v1.117a2.379,2.379,0,0,0,.645,1.684,2.14,2.14,0,0,0,1.637.691A2.145,2.145,0,0,0,.434-1.781a4.086,4.086,0,0,0,.66-2.477A3.225,3.225,0,0,0,.477-6.352,2.043,2.043,0,0,0-1.2-7.109a2.27,2.27,0,0,0-1.8.777A2.854,2.854,0,0,0-3.672-4.383ZM8.625-6.7a1.567,1.567,0,0,0-.969-.258,1.635,1.635,0,0,0-1.371.773,3.576,3.576,0,0,0-.551,2.109V0H4.453V-8H5.734v1.648h.031A2.793,2.793,0,0,1,6.6-7.668a1.906,1.906,0,0,1,1.258-.473,2.092,2.092,0,0,1,.766.109Zm2.047-3.328a.812.812,0,0,1-.586-.234.791.791,0,0,1-.242-.594.8.8,0,0,1,.242-.6.8.8,0,0,1,.586-.238.827.827,0,0,1,.6.238.8.8,0,0,1,.246.6.792.792,0,0,1-.246.586A.82.82,0,0,1,10.672-10.031ZM11.3,0H10.016V-8H11.3ZM20.18-8,16.992,0H15.734L12.7-8h1.406l2.031,5.813a5.217,5.217,0,0,1,.281,1.117h.031a5.283,5.283,0,0,1,.25-1.086L18.828-8Zm7.1,8H26V-1.25h-.031A2.682,2.682,0,0,1,23.508.188a2.63,2.63,0,0,1-1.871-.633,2.192,2.192,0,0,1-.676-1.68q0-2.242,2.641-2.609L26-5.07q0-2.039-1.648-2.039a3.938,3.938,0,0,0-2.609.984V-7.437a4.958,4.958,0,0,1,2.719-.75q2.82,0,2.82,2.984ZM26-4.047l-1.93.266a3.133,3.133,0,0,0-1.344.441,1.273,1.273,0,0,0-.453,1.121,1.221,1.221,0,0,0,.418.957A1.615,1.615,0,0,0,23.8-.891a2.056,2.056,0,0,0,1.574-.668A2.387,2.387,0,0,0,26-3.25ZM36.523,0H35.242V-1.359h-.031A2.958,2.958,0,0,1,32.461.188a2.988,2.988,0,0,1-2.41-1.074,4.407,4.407,0,0,1-.9-2.926,4.794,4.794,0,0,1,1-3.18,3.3,3.3,0,0,1,2.664-1.2,2.564,2.564,0,0,1,2.4,1.3h.031v-4.953h1.281ZM35.242-3.617V-4.8A2.289,2.289,0,0,0,34.6-6.437a2.149,2.149,0,0,0-1.625-.672,2.212,2.212,0,0,0-1.844.859,3.766,3.766,0,0,0-.672,2.375,3.387,3.387,0,0,0,.645,2.184,2.107,2.107,0,0,0,1.73.8,2.188,2.188,0,0,0,1.738-.773A2.882,2.882,0,0,0,35.242-3.617ZM44.844,0H43.563V-1.25h-.031A2.682,2.682,0,0,1,41.07.188,2.63,2.63,0,0,1,39.2-.445a2.192,2.192,0,0,1-.676-1.68q0-2.242,2.641-2.609l2.4-.336q0-2.039-1.648-2.039a3.938,3.938,0,0,0-2.609.984V-7.437a4.958,4.958,0,0,1,2.719-.75q2.82,0,2.82,2.984ZM43.563-4.047l-1.93.266a3.133,3.133,0,0,0-1.344.441,1.273,1.273,0,0,0-.453,1.121,1.221,1.221,0,0,0,.418.957,1.615,1.615,0,0,0,1.113.371,2.056,2.056,0,0,0,1.574-.668,2.387,2.387,0,0,0,.621-1.691ZM47.7.172a.829.829,0,0,1-.613-.258A.849.849,0,0,1,46.836-.7a.862.862,0,0,1,.254-.621.823.823,0,0,1,.613-.262.845.845,0,0,1,.625.262.855.855,0,0,1,.258.621.842.842,0,0,1-.258.617A.851.851,0,0,1,47.7.172Z" transform="translate(1049.5 7230)" fill="#12263f"/>
    <path id="Trazado_829294" data-name="Trazado 829294" d="M-54.66,0H-56.27l-5.766-8.93a3.731,3.731,0,0,1-.359-.7h-.047a11.534,11.534,0,0,1,.063,1.539V0h-1.312V-11.2h1.7l5.609,8.789q.352.547.453.75h.031a11.853,11.853,0,0,1-.078-1.648V-11.2h1.313Zm9.234,0h-1.281V-1.266h-.031A2.631,2.631,0,0,1-49.207.188q-2.859,0-2.859-3.406V-8h1.273v4.578q0,2.531,1.938,2.531a1.96,1.96,0,0,0,1.543-.691,2.645,2.645,0,0,0,.605-1.809V-8h1.281Zm3.9-1.156h-.031V0H-42.84V-11.844h1.281v5.25h.031a3.03,3.03,0,0,1,2.766-1.594,2.932,2.932,0,0,1,2.41,1.074,4.436,4.436,0,0,1,.871,2.879,4.959,4.959,0,0,1-.977,3.215A3.251,3.251,0,0,1-39.129.188,2.631,2.631,0,0,1-41.527-1.156Zm-.031-3.227v1.117a2.379,2.379,0,0,0,.645,1.684,2.14,2.14,0,0,0,1.637.691,2.145,2.145,0,0,0,1.824-.891,4.086,4.086,0,0,0,.66-2.477,3.225,3.225,0,0,0-.617-2.094,2.043,2.043,0,0,0-1.672-.758,2.27,2.27,0,0,0-1.8.777A2.854,2.854,0,0,0-41.559-4.383ZM-27-3.68h-5.648a2.992,2.992,0,0,0,.719,2.063,2.478,2.478,0,0,0,1.891.727,3.931,3.931,0,0,0,2.484-.891v1.2a4.643,4.643,0,0,1-2.789.766A3.381,3.381,0,0,1-33.012-.9a4.461,4.461,0,0,1-.969-3.066,4.375,4.375,0,0,1,1.059-3.043,3.394,3.394,0,0,1,2.629-1.176,3.008,3.008,0,0,1,2.43,1.016A4.234,4.234,0,0,1-27-4.352Zm-1.312-1.086a2.607,2.607,0,0,0-.535-1.727,1.823,1.823,0,0,0-1.465-.617,2.07,2.07,0,0,0-1.539.648,2.943,2.943,0,0,0-.781,1.7Zm13.086,4.4a4.163,4.163,0,0,1-2.187.555A3.622,3.622,0,0,1-20.18-.926,4.035,4.035,0,0,1-21.23-3.812,4.435,4.435,0,0,1-20.1-6.988a3.963,3.963,0,0,1,3.023-1.2,4.209,4.209,0,0,1,1.859.391v1.313a3.258,3.258,0,0,0-1.906-.625,2.576,2.576,0,0,0-2.012.879,3.335,3.335,0,0,0-.785,2.309A3.176,3.176,0,0,0-19.18-1.7a2.545,2.545,0,0,0,1.98.813,3.211,3.211,0,0,0,1.969-.7Zm5.281.555A3.711,3.711,0,0,1-12.781-.934,4.153,4.153,0,0,1-13.84-3.906a4.326,4.326,0,0,1,1.1-3.148A3.96,3.96,0,0,1-9.762-8.187a3.588,3.588,0,0,1,2.793,1.1,4.368,4.368,0,0,1,1,3.055A4.3,4.3,0,0,1-7.047-.965,3.791,3.791,0,0,1-9.949.188Zm.094-7.3a2.437,2.437,0,0,0-1.953.84,3.449,3.449,0,0,0-.719,2.316A3.262,3.262,0,0,0-11.8-1.711a2.469,2.469,0,0,0,1.945.82,2.342,2.342,0,0,0,1.91-.8,3.492,3.492,0,0,0,.668-2.289A3.552,3.552,0,0,0-7.945-6.3,2.332,2.332,0,0,0-9.855-7.109ZM7.441,0H6.16V-4.594a3.466,3.466,0,0,0-.41-1.922,1.555,1.555,0,0,0-1.379-.594,1.708,1.708,0,0,0-1.395.75,2.869,2.869,0,0,0-.574,1.8V0H1.121V-4.75q0-2.359-1.82-2.359A1.686,1.686,0,0,0-2.09-6.4a2.923,2.923,0,0,0-.547,1.84V0H-3.918V-8h1.281v1.266h.031A2.718,2.718,0,0,1-.121-8.187a2.316,2.316,0,0,1,1.43.457,2.3,2.3,0,0,1,.836,1.2A2.855,2.855,0,0,1,4.8-8.187q2.641,0,2.641,3.258Zm8.891,0H15.051V-1.266H15.02A2.631,2.631,0,0,1,12.551.188q-2.859,0-2.859-3.406V-8h1.273v4.578q0,2.531,1.938,2.531a1.96,1.96,0,0,0,1.543-.691,2.645,2.645,0,0,0,.605-1.809V-8h1.281Zm9.227,0H24.277V-4.562q0-2.547-1.859-2.547a2.017,2.017,0,0,0-1.59.723A2.679,2.679,0,0,0,20.2-4.562V0H18.918V-8H20.2v1.328h.031a2.887,2.887,0,0,1,2.625-1.516,2.448,2.448,0,0,1,2.008.848,3.776,3.776,0,0,1,.7,2.449Zm3.07-10.031a.812.812,0,0,1-.586-.234.791.791,0,0,1-.242-.594.8.8,0,0,1,.242-.6.8.8,0,0,1,.586-.238.827.827,0,0,1,.6.238.8.8,0,0,1,.246.6.792.792,0,0,1-.246.586A.82.82,0,0,1,28.629-10.031ZM29.254,0H27.973V-8h1.281Zm6.3-.078a2.47,2.47,0,0,1-1.2.25q-2.1,0-2.1-2.344V-6.906H30.887V-8h1.375V-9.953l1.281-.414V-8h2.016v1.094H33.543V-2.4a1.869,1.869,0,0,0,.273,1.148,1.091,1.091,0,0,0,.906.344,1.347,1.347,0,0,0,.836-.266ZM43,0H41.715V-1.25h-.031A2.682,2.682,0,0,1,39.223.188a2.63,2.63,0,0,1-1.871-.633,2.192,2.192,0,0,1-.676-1.68q0-2.242,2.641-2.609l2.4-.336q0-2.039-1.648-2.039a3.938,3.938,0,0,0-2.609.984V-7.437a4.958,4.958,0,0,1,2.719-.75Q43-8.187,43-5.2ZM41.715-4.047l-1.93.266a3.133,3.133,0,0,0-1.344.441,1.273,1.273,0,0,0-.453,1.121,1.221,1.221,0,0,0,.418.957,1.615,1.615,0,0,0,1.113.371,2.056,2.056,0,0,0,1.574-.668,2.387,2.387,0,0,0,.621-1.691ZM49.582-6.7a1.567,1.567,0,0,0-.969-.258,1.635,1.635,0,0,0-1.371.773,3.576,3.576,0,0,0-.551,2.109V0H45.41V-8h1.281v1.648h.031a2.794,2.794,0,0,1,.836-1.316,1.906,1.906,0,0,1,1.258-.473,2.092,2.092,0,0,1,.766.109Zm2.047-3.328a.812.812,0,0,1-.586-.234.791.791,0,0,1-.242-.594.8.8,0,0,1,.242-.6.8.8,0,0,1,.586-.238.827.827,0,0,1,.6.238.8.8,0,0,1,.246.6.792.792,0,0,1-.246.586A.82.82,0,0,1,51.629-10.031ZM52.254,0H50.973V-8h1.281Zm8.32,0H59.293V-1.25h-.031A2.682,2.682,0,0,1,56.8.188,2.63,2.63,0,0,1,54.93-.445a2.192,2.192,0,0,1-.676-1.68q0-2.242,2.641-2.609l2.4-.336q0-2.039-1.648-2.039a3.938,3.938,0,0,0-2.609.984V-7.437a4.958,4.958,0,0,1,2.719-.75q2.82,0,2.82,2.984ZM59.293-4.047l-1.93.266a3.133,3.133,0,0,0-1.344.441,1.273,1.273,0,0,0-.453,1.121,1.221,1.221,0,0,0,.418.957A1.615,1.615,0,0,0,57.1-.891a2.056,2.056,0,0,0,1.574-.668,2.387,2.387,0,0,0,.621-1.691ZM63.434.172a.829.829,0,0,1-.613-.258A.849.849,0,0,1,62.566-.7a.862.862,0,0,1,.254-.621.823.823,0,0,1,.613-.262.845.845,0,0,1,.625.262.855.855,0,0,1,.258.621.842.842,0,0,1-.258.617A.851.851,0,0,1,63.434.172Z" transform="translate(1098.5 7434)" fill="#12263f"/>
    <path id="Trazado_829295" data-name="Trazado 829295" d="M-37.492,0H-39.1l-5.766-8.93a3.731,3.731,0,0,1-.359-.7h-.047a11.534,11.534,0,0,1,.063,1.539V0h-1.312V-11.2h1.7l5.609,8.789q.352.547.453.75h.031A11.853,11.853,0,0,1-38.8-3.312V-11.2h1.313Zm9.234,0h-1.281V-1.266h-.031A2.631,2.631,0,0,1-32.039.188Q-34.9.188-34.9-3.219V-8h1.273v4.578q0,2.531,1.938,2.531a1.96,1.96,0,0,0,1.543-.691,2.645,2.645,0,0,0,.605-1.809V-8h1.281Zm3.9-1.156h-.031V0h-1.281V-11.844h1.281v5.25h.031a3.03,3.03,0,0,1,2.766-1.594,2.932,2.932,0,0,1,2.41,1.074,4.436,4.436,0,0,1,.871,2.879,4.959,4.959,0,0,1-.977,3.215A3.251,3.251,0,0,1-21.961.188,2.631,2.631,0,0,1-24.359-1.156Zm-.031-3.227v1.117a2.379,2.379,0,0,0,.645,1.684,2.14,2.14,0,0,0,1.637.691,2.145,2.145,0,0,0,1.824-.891,4.086,4.086,0,0,0,.66-2.477,3.225,3.225,0,0,0-.617-2.094,2.043,2.043,0,0,0-1.672-.758,2.27,2.27,0,0,0-1.8.777A2.854,2.854,0,0,0-24.391-4.383Zm14.555.7h-5.648a2.992,2.992,0,0,0,.719,2.063,2.478,2.478,0,0,0,1.891.727,3.931,3.931,0,0,0,2.484-.891v1.2A4.643,4.643,0,0,1-13.18.188,3.381,3.381,0,0,1-15.844-.9a4.461,4.461,0,0,1-.969-3.066,4.375,4.375,0,0,1,1.059-3.043,3.394,3.394,0,0,1,2.629-1.176A3.008,3.008,0,0,1-10.7-7.172a4.234,4.234,0,0,1,.859,2.82Zm-1.312-1.086a2.607,2.607,0,0,0-.535-1.727,1.823,1.823,0,0,0-1.465-.617,2.07,2.07,0,0,0-1.539.648,2.943,2.943,0,0,0-.781,1.7ZM3.125,0H1.844V-4.609q0-2.5-1.859-2.5a2.027,2.027,0,0,0-1.578.723,2.693,2.693,0,0,0-.641,1.855V0H-3.516V-11.844h1.281v5.172H-2.2A2.91,2.91,0,0,1,.422-8.187q2.7,0,2.7,3.258Zm3.7,0H5.539V-8H6.82ZM7.969-12.078,5.922-9.516H4.93l1.742-2.562ZM10.727-1.156H10.7V0H9.414V-11.844H10.7v5.25h.031a3.03,3.03,0,0,1,2.766-1.594A2.932,2.932,0,0,1,15.9-7.113a4.436,4.436,0,0,1,.871,2.879A4.959,4.959,0,0,1,15.8-1.02,3.251,3.251,0,0,1,13.125.188,2.631,2.631,0,0,1,10.727-1.156ZM10.7-4.383v1.117a2.379,2.379,0,0,0,.645,1.684,2.14,2.14,0,0,0,1.637.691A2.145,2.145,0,0,0,14.8-1.781a4.086,4.086,0,0,0,.66-2.477,3.225,3.225,0,0,0-.617-2.094,2.043,2.043,0,0,0-1.672-.758,2.27,2.27,0,0,0-1.8.777A2.854,2.854,0,0,0,10.7-4.383Zm12.3-2.32a1.567,1.567,0,0,0-.969-.258,1.635,1.635,0,0,0-1.371.773A3.576,3.576,0,0,0,20.1-4.078V0H18.82V-8H20.1v1.648h.031a2.793,2.793,0,0,1,.836-1.316,1.906,1.906,0,0,1,1.258-.473,2.092,2.092,0,0,1,.766.109Zm2.047-3.328a.812.812,0,0,1-.586-.234.791.791,0,0,1-.242-.594.8.8,0,0,1,.242-.6.8.8,0,0,1,.586-.238.827.827,0,0,1,.6.238.8.8,0,0,1,.246.6.792.792,0,0,1-.246.586A.82.82,0,0,1,25.039-10.031ZM25.664,0H24.383V-8h1.281Zm9.422,0H33.8V-1.359h-.031A2.958,2.958,0,0,1,31.023.188a2.988,2.988,0,0,1-2.41-1.074,4.407,4.407,0,0,1-.9-2.926,4.794,4.794,0,0,1,1-3.18,3.3,3.3,0,0,1,2.664-1.2,2.564,2.564,0,0,1,2.4,1.3H33.8v-4.953h1.281ZM33.8-3.617V-4.8a2.289,2.289,0,0,0-.641-1.641,2.149,2.149,0,0,0-1.625-.672A2.212,2.212,0,0,0,29.7-6.25a3.766,3.766,0,0,0-.672,2.375,3.387,3.387,0,0,0,.645,2.184,2.107,2.107,0,0,0,1.73.8,2.188,2.188,0,0,0,1.738-.773A2.882,2.882,0,0,0,33.8-3.617ZM43.406,0H42.125V-1.25h-.031A2.682,2.682,0,0,1,39.633.188a2.63,2.63,0,0,1-1.871-.633,2.192,2.192,0,0,1-.676-1.68q0-2.242,2.641-2.609l2.4-.336q0-2.039-1.648-2.039a3.938,3.938,0,0,0-2.609.984V-7.437a4.958,4.958,0,0,1,2.719-.75q2.82,0,2.82,2.984ZM42.125-4.047l-1.93.266a3.133,3.133,0,0,0-1.344.441A1.273,1.273,0,0,0,38.4-2.219a1.221,1.221,0,0,0,.418.957,1.615,1.615,0,0,0,1.113.371A2.056,2.056,0,0,0,41.5-1.559a2.387,2.387,0,0,0,.621-1.691ZM46.266.172a.829.829,0,0,1-.613-.258A.849.849,0,0,1,45.4-.7a.862.862,0,0,1,.254-.621.823.823,0,0,1,.613-.262.845.845,0,0,1,.625.262.855.855,0,0,1,.258.621.842.842,0,0,1-.258.617A.851.851,0,0,1,46.266.172Z" transform="translate(504.5 7434)" fill="#12263f"/>
  </g>
</svg>
