<svg xmlns="http://www.w3.org/2000/svg" xmlns:xlink="http://www.w3.org/1999/xlink" width="88" height="88" viewBox="0 0 88 88">
  <defs>
    <clipPath id="clip-path">
      <circle id="Elipse_10773" data-name="Elipse 10773" cx="44" cy="44" r="44" transform="translate(281.676 13707)" fill="#fff" stroke="#707070" stroke-width="1"/>
    </clipPath>
  </defs>
  <g id="Grupo_1078780" data-name="Grupo 1078780" transform="translate(-281.676 -1235.594)">
    <circle id="Elipse_10771" data-name="Elipse 10771" cx="44" cy="44" r="44" transform="translate(281.676 1235.595)" fill="#d2e1f1"/>
    <g id="Enmascarar_grupo_1068026" data-name="Enmascarar grupo 1068026" transform="translate(0 -12471.406)" clip-path="url(#clip-path)">
      <g id="Grupo_1078252" data-name="Grupo 1078252" transform="translate(740.012 13866.998)">
        <path id="Trazado_826913" data-name="Trazado 826913" d="M-400.848,108.325h-15.425a1.678,1.678,0,0,1-.235-1.194q-.008-5.184,0-10.367a3.07,3.07,0,0,0-.148-1.229.9.9,0,0,0-.958-.64.887.887,0,0,0-.813.725,6.984,6.984,0,0,0-.1,1.628,2.181,2.181,0,0,1-.2,1.284,1.342,1.342,0,0,1-.885.194,33.481,33.481,0,0,1-3.61-.066.676.676,0,0,1-.24-.135,1.409,1.409,0,0,1-.017-1.059c.78-4.31,1.537-8.626,2.379-12.924a6.63,6.63,0,0,1,2.635-4.1,15.345,15.345,0,0,1,2.5-1.041c2.365-.767,4.688-1.655,7.055-2.413.271-.087.532-.2.8-.311a1.445,1.445,0,0,0,.984-1.508c-.022-.8-.035-1.609.015-2.411.015-.242-.123-.68.409-.619a1.8,1.8,0,0,1,.163,1.06c.006,2.079,0,4.158,0,6.237a3.493,3.493,0,0,0,2.635,3.515,8.769,8.769,0,0,0,2.355.464c.666.062,1.361-.159,1.994.211a2.148,2.148,0,0,1,.2,1.284q.008,7.9,0,15.792a3.26,3.26,0,0,0,.97,2.6c.206.525-.228.49-.5.52a16.391,16.391,0,0,1-1.708.025c-1.307.007-1.931.33-2.151,1.118a2.607,2.607,0,0,0,1.186,2.745C-401.3,107.883-400.892,107.892-400.848,108.325Z" transform="translate(-20.597 -180.323)" fill="#6c7d86"/>
        <path id="Trazado_826914" data-name="Trazado 826914" d="M-363.583-151.924c1.108.359,2.277.414,3.4.724a17.7,17.7,0,0,1,13.421,17.3c.032,2.262,0,4.524-.008,6.787a.46.46,0,0,1-.446-.017,4.458,4.458,0,0,0-2.845-.433c-.426-.077-.464-.444-.57-.761-.353-1.768-1.167-2.325-2.95-2.2a12.471,12.471,0,0,1-8.272-1.828,10.528,10.528,0,0,1-1.975-1.867c-.169-.2-.319-.41-.508-.59-.634-.607-1.057-.591-1.637.07a14.685,14.685,0,0,1-1.493,1.689,11.1,11.1,0,0,1-7.259,2.566c-.233,0-.467.007-.7.007a6.817,6.817,0,0,1-1.07-.071,2.543,2.543,0,0,0-2.632.829c-.128.153-.263.322-.5.312a.932.932,0,0,1-.351-.826,25.62,25.62,0,0,1,1.107-9.374,18.38,18.38,0,0,1,13.477-12.073c.245-.062.525-.026.72-.241Z" transform="translate(-55.682 0)" fill="#4c4846"/>
        <path id="Trazado_826915" data-name="Trazado 826915" d="M-256.265,232.375c.852,0,1.7.009,2.556.012a1.994,1.994,0,0,1,2.032.982,2.4,2.4,0,0,1-.456,2.593,4.272,4.272,0,0,1-1.643,1.1h-32.875a2.848,2.848,0,0,1-1.827-4.276c-.68-.087-1.345.018-1.995-.069-.2-.027-.73.086-.407-.465a21.216,21.216,0,0,1,3.337-.118c7.129-.013,14.258-.079,21.385.031,2.692.042,5.387.062,8.079.128C-257.476,232.308-256.85,231.962-256.265,232.375Z" transform="translate(-127.316 -309.061)" fill="#c5c5c5"/>
        <path id="Trazado_826916" data-name="Trazado 826916" d="M-379.379-151.924c.157.35-.118.29-.306.336a20.29,20.29,0,0,0-5.076,1.886,17.93,17.93,0,0,0-8.079,8.8,18.629,18.629,0,0,0-1.535,6.762c-.044,1.136-.075,2.275-.119,3.412a3.683,3.683,0,0,0,.169,1.3c.259.534.016,1.065-.024,1.594a.343.343,0,0,1-.458.306,4.827,4.827,0,0,0-3.1.433.405.405,0,0,1-.3-.02,68.64,68.64,0,0,1,.173-8.8,18.217,18.217,0,0,1,5.916-11.327,17.65,17.65,0,0,1,9.931-4.531c.126-.016.262,0,.317-.157Z" transform="translate(-40.976 0)" fill="#3d3938"/>
        <path id="Trazado_826917" data-name="Trazado 826917" d="M-428.212,207.187l4.677-.023a1.305,1.305,0,0,1,.252,1.025q.013,3.886,0,7.773a1.425,1.425,0,0,1-.25,1.031h-3.428a3.465,3.465,0,0,1-2.466-4.306c.256-1.592.562-3.175.847-4.762C-428.528,207.644-428.5,207.352-428.212,207.187Z" transform="translate(-15.831 -288.991)" fill="#e9b782"/>
        <path id="Trazado_826918" data-name="Trazado 826918" d="M-444.043,206.03c-.36,1.978-.765,3.949-1.064,5.936a3.19,3.19,0,0,0,2.051,3.6c.106.036.177.175.265.267h-3.9a3.333,3.333,0,0,1-2.482-3.6,13.815,13.815,0,0,1,.308-1.972c.3-1.421.488-2.867.9-4.264a1.283,1.283,0,0,1,.953-.24c.991.074,2.008-.223,2.973.214Z" transform="translate(0 -287.833)" fill="#dca87a"/>
        <path id="Trazado_826919" data-name="Trazado 826919" d="M-313.1,232.669c.662.331,1.367.077,2.049.146.3.03.613.005,1.107.005a2.213,2.213,0,0,0-.825,2.009,2.657,2.657,0,0,0,.947,1.8,9.184,9.184,0,0,0,1.088.717h-7.479a3.374,3.374,0,0,1-1.972-1.729c-.66-1.616.094-3.025,1.861-2.972a6.665,6.665,0,0,0,2.586-.126A.486.486,0,0,1-313.1,232.669Z" transform="translate(-105.229 -309.344)" fill="#b6b6b6"/>
        <path id="Trazado_826920" data-name="Trazado 826920" d="M-398.919,200.88q0-4.914,0-9.829c0-.8-.009-1.608.007-2.412.02-1,.479-1.52,1.285-1.5.733.022,1.2.584,1.2,1.52q.013,6.108,0,12.216Z" transform="translate(-40.443 -272.878)" fill="#566a75"/>
        <path id="Trazado_826921" data-name="Trazado 826921" d="M-248.409,125.839a53.243,53.243,0,0,1-8,.127c-7.774-.269-15.549-.025-23.322-.128a1.99,1.99,0,0,1-1.4-1.78,7.447,7.447,0,0,1-.089-1.241q0-9.853,0-19.707a9.31,9.31,0,0,1,.041-.933,2.54,2.54,0,0,1,1.391-2.194,2.961,2.961,0,0,1,1.037-.136c3.863.015,7.727.028,11.59.018a2.99,2.99,0,0,0,1-.073.834.834,0,0,1,.426-.057c.1.509.514.346.818.346,5.115.008,10.231.048,15.345-.021a2.3,2.3,0,0,1,2.427,2.451q-.093,10.145,0,20.292A3.169,3.169,0,0,1-248.409,125.839Z" transform="translate(-135.171 -202.525)" fill="#ececec"/>
        <path id="Trazado_826922" data-name="Trazado 826922" d="M-256.677,22.286l-.141.2a1.212,1.212,0,0,1-.682.072c-2.767,0-5.535,0-8.3.006a7.105,7.105,0,0,1-3.323-.937,1.431,1.431,0,0,1-.819-1.319c-.006-1.294-.075-2.589.039-3.881.493-.707,1.326-.96,1.977-1.461a13.908,13.908,0,0,0,5.778-10.5c.018-.281-.021-.581.234-.793a16.3,16.3,0,0,0,2.807-.161c.369-.1.322.3.395.524a18.99,18.99,0,0,0,2.278,8.632,7.578,7.578,0,0,1,.643,6.572A16.769,16.769,0,0,0-256.677,22.286Z" transform="translate(-144.225 -125.077)" fill="#4c4846"/>
        <path id="Trazado_826923" data-name="Trazado 826923" d="M-226.719-23.987c-.159-.1-.046-.527-.347-.4a5.41,5.41,0,0,1-2.869.145,1.123,1.123,0,0,1-.269-.938q-.019-2.6,0-5.208a1.1,1.1,0,0,1,.273-.935c.184.206-.072.689.434.694a19.465,19.465,0,0,0-.1,2.392c-.015.571.25.788.793.79a4.574,4.574,0,0,0,2.848-1.052c.228-.174.416-.5.793-.29a3.009,3.009,0,0,1-1.029,3.866A1.041,1.041,0,0,0-226.719-23.987Z" transform="translate(-176.221 -97.059)" fill="#dca87a"/>
        <path id="Trazado_826924" data-name="Trazado 826924" d="M-223.642-26.544c-.656.29-1.073.952-1.793,1.148-.221.06-.423.189-.644.247-1.929.5-2.221.3-2.187-1.65.009-.53-.266-1.143.288-1.584a3.926,3.926,0,0,1,3.267.573A3.88,3.88,0,0,1-223.642-26.544Z" transform="translate(-177.741 -99.305)" fill="#e9b782"/>
        <path id="Trazado_826925" data-name="Trazado 826925" d="M-376.744-15.547l-.912.03a5.023,5.023,0,0,1-2.374.224c-2.144.023-2.683.554-2.691,2.741,0,.65.008,1.3-.005,1.95a1.127,1.127,0,0,1-.226.878l-2.035-.049a.991.991,0,0,1-.9-.719,5.054,5.054,0,0,1-.409-1.96c.011-2.122.006-4.244,0-6.367,0-1.181-.007-1.168-1.11-1.487a8.27,8.27,0,0,1-2.64-1.076,14.889,14.889,0,0,1-7.252-7.685c-.282-.643-.463-1.32-.683-1.984a13.137,13.137,0,0,1-.46-3.328c0-.7-.021-1.4.008-2.1.023-.546-.179-.746-.724-.693a3.815,3.815,0,0,1-2.665-.595,2.344,2.344,0,0,1-1.077-1.173c.164-.538.656-.825.96-1.255a4.263,4.263,0,0,1,3.666-.506,7.819,7.819,0,0,1,.216-1.806,2.835,2.835,0,0,1,3.265-1.32,6.79,6.79,0,0,0,.926.078,94.4,94.4,0,0,0-.05,10.04,14.417,14.417,0,0,0,10.992,13.011c1.827.427,3.467-.282,5.118-.91.317-.121.656-.52,1-.029a37.279,37.279,0,0,0,.153,5.021A1.641,1.641,0,0,1-376.744-15.547Z" transform="translate(-37.244 -86.921)" fill="#e9b783"/>
        <path id="Trazado_826926" data-name="Trazado 826926" d="M-405.605,3.716a18.019,18.019,0,0,0,.447,3.434,10.7,10.7,0,0,1-1.492,4.931,8.835,8.835,0,0,0-1.389,4.784,14.02,14.02,0,0,0,.724,3.1,20.437,20.437,0,0,1,.767,2.852,1.85,1.85,0,0,1-.146,1.5l-2.346.92a3.28,3.28,0,0,1-1.009.477c-.192.051-.5.262-.568-.172a9.78,9.78,0,0,0-.681-5.47,8.7,8.7,0,0,1-.544-5.314,8.254,8.254,0,0,1,.765-1.857,19.163,19.163,0,0,0,2.394-8.748c-.006-.595.243-.829.845-.642a3.271,3.271,0,0,0,1.588.07A.7.7,0,0,1-405.605,3.716Z" transform="translate(-29.864 -125.039)" fill="#3d3938"/>
        <path id="Trazado_826927" data-name="Trazado 826927" d="M-435.449,115.365c.583.2,1.027-.33,1.577-.3a7.285,7.285,0,0,0-2.48,3.655c-.344,1.264-.535,2.57-.773,3.862-.448,2.434-.883,4.87-1.32,7.306-.187,1.039-.368,2.08-.552,3.119l-3.926.027q.753-3.881,1.509-7.762c.274-1.395.582-2.783.845-4.179a6.713,6.713,0,0,1,4.353-5.241A1.454,1.454,0,0,0-435.449,115.365Z" transform="translate(-5.034 -214.866)" fill="#566a75"/>
        <path id="Trazado_826928" data-name="Trazado 826928" d="M-399.719-13.851a5.02,5.02,0,0,1-2.641-.068c-.53-.208-.2.409-.438.5.1-.542-.212-.828-.622-1.1a2.963,2.963,0,0,1-.974-3.865c.327.291.642.6.983.871a3.8,3.8,0,0,0,3.086.657c.637-.1.619.159.612.595C-399.727-15.458-399.718-14.655-399.719-13.851Z" transform="translate(-35.751 -107.472)" fill="#dca97a"/>
        <path id="Trazado_826929" data-name="Trazado 826929" d="M-300.721,107.326c0-1.164,0-2.328.016-3.492a2.066,2.066,0,0,1,2.338-2.312c.981,0,1.962.007,2.943.011a3.358,3.358,0,0,0-1.254,3.133q.029,9.783,0,19.566a3.253,3.253,0,0,0,1.257,3.052l-3.435.012-.638-.15a2.279,2.279,0,0,1-1.2-2.337q0-8.235,0-16.469C-300.691,108-300.71,107.663-300.721,107.326Z" transform="translate(-119.477 -203.971)" fill="#d9d9d9"/>
        <path id="Trazado_826930" data-name="Trazado 826930" d="M-391.1,39.589a9.93,9.93,0,0,0-.689-3.861,23.655,23.655,0,0,1-.783-2.832,6.13,6.13,0,0,1,.529-4,24.7,24.7,0,0,0,2.481-6.467,16.591,16.591,0,0,0,2.552,5.1,15.879,15.879,0,0,0,5.065,4.272c.157.1.134.2,0,.3a10.746,10.746,0,0,0-.083,2.93,1.73,1.73,0,0,1-1.312,1.922Q-387.224,38.263-391.1,39.589Z" transform="translate(-45.458 -140.314)" fill="#4c4846"/>
        <path id="Trazado_826931" data-name="Trazado 826931" d="M-337.641,70.76q0-.149,0-.3a13.881,13.881,0,0,0,3.427,1.219.713.713,0,0,1,.672.843c-.019,2.471-.047,4.943.012,7.412a2.482,2.482,0,0,0,1.062,2.344c-1.794-.2-3.568-.445-4.641-2.189a3.148,3.148,0,0,1-.5-1.688C-337.61,75.856-337.629,73.308-337.641,70.76Z" transform="translate(-89.763 -178.974)" fill="#dca87a"/>
        <path id="Trazado_826932" data-name="Trazado 826932" d="M-340.955-41.185a20.209,20.209,0,0,1-3.879,1.307,5.1,5.1,0,0,1-2.512-.084,14.655,14.655,0,0,1-10.709-11.725,10.713,10.713,0,0,1-.2-2.314c.032-2.754.013-5.509.01-8.264,0-.338-.045-.683.308-.895a14.52,14.52,0,0,0,4.219-.544,9.467,9.467,0,0,0,4.931-3.473c.861-1.169,1.508-1.148,2.371.015a10.014,10.014,0,0,0,7.994,3.965,16.576,16.576,0,0,0,2.717-.074,2.4,2.4,0,0,1,2.727,2.4q0,3.54,0,7.08a14.04,14.04,0,0,1-7.8,12.524A1.547,1.547,0,0,1-340.955-41.185Z" transform="translate(-73.17 -67.506)" fill="#f6ce9b"/>
        <path id="Trazado_826933" data-name="Trazado 826933" d="M-212.685,157.631a2.654,2.654,0,0,1-3.552,1.189,2.854,2.854,0,0,1-1.549-3.1,2.75,2.75,0,0,1,2.609-2.141.622.622,0,0,1,.084.657,2.539,2.539,0,0,0,2.079,3.215A.478.478,0,0,1-212.685,157.631Z" transform="translate(-186.174 -245.863)" fill="#c5c5c5"/>
        <path id="Trazado_826934" data-name="Trazado 826934" d="M-202.5,157.615a2.61,2.61,0,0,1-2.647-3.153c.054-.3.1-.6.155-.9a2.561,2.561,0,0,1,2.552,1.39A2.41,2.41,0,0,1-202.5,157.615Z" transform="translate(-196.356 -245.846)" fill="#d9d9d9"/>
        <path id="Trazado_826935" data-name="Trazado 826935" d="M-269.611,69.193l.168-.086c0,1.247.018,2.494-.014,3.74a1.436,1.436,0,0,0,.961,1.52,10.045,10.045,0,0,0,4.191.958c2.59-.089,5.184-.032,7.777-.036-.114.269-.355.161-.539.161q-6.2-.01-12.407-.035a15.561,15.561,0,0,1-.107-3.026C-269.619,71.325-269.6,70.258-269.611,69.193Z" transform="translate(-144.514 -177.884)" fill="#6e7e88"/>
      </g>
    </g>
  </g>
</svg>
