<svg id="Grupo_1076271" data-name="Grupo 1076271" xmlns="http://www.w3.org/2000/svg" width="125.119" height="125.303" viewBox="0 0 125.119 125.303">
  <circle id="Elipse_790" data-name="Elipse 790" cx="53.144" cy="53.144" r="53.144" transform="translate(9.304 9.51)" fill="#fcfcfc" opacity="0.598"/>
  <path id="Trazado_14817" data-name="Trazado 14817" d="M81.7,146.291a62.585,62.585,0,0,1-23.012-4.37l.681-1.717a60.812,60.812,0,0,0,82.7-63.874l1.834-.222a62.638,62.638,0,0,1-62.2,70.183Z" transform="translate(-19.251 -20.988)" fill="#12263f"/>
  <path id="Trazado_14818" data-name="Trazado 14818" d="M16.144,71.723l-1.841-.15A62.72,62.72,0,0,1,86.94,14.895l-.3,1.822a60.861,60.861,0,0,0-70.5,55.006Z" transform="translate(-14.303 -14.071)" fill="#12263f"/>
  <g id="Grupo_13080" data-name="Grupo 13080" transform="translate(110.258 14.706)">
    <path id="Trazado_14819" data-name="Trazado 14819" d="M143.271,39.547a1.23,1.23,0,0,1-1.231-1.23V31.849a1.231,1.231,0,0,1,2.463,0v6.463A1.232,1.232,0,0,1,143.271,39.547Z" transform="translate(-138.804 -30.622)" fill="#12263f"/>
    <path id="Trazado_14820" data-name="Trazado 14820" d="M146.093,36.721h-6.464a1.231,1.231,0,0,1,0-2.463h6.464a1.231,1.231,0,1,1,0,2.463Z" transform="translate(-138.398 -31.027)" fill="#12263f"/>
  </g>
  <g id="Grupo_13081" data-name="Grupo 13081" transform="translate(3.896 98.907)">
    <path id="Trazado_14821" data-name="Trazado 14821" d="M23.555,134.317a1.232,1.232,0,0,1-1.231-1.231v-6.464a1.231,1.231,0,0,1,2.463,0v6.464A1.232,1.232,0,0,1,23.555,134.317Z" transform="translate(-19.093 -125.39)" fill="#12263f"/>
    <path id="Trazado_14822" data-name="Trazado 14822" d="M26.381,131.49H19.918a1.231,1.231,0,0,1-1.231-1.23v0a1.231,1.231,0,0,1,1.231-1.231h6.463a1.231,1.231,0,0,1,0,2.463Z" transform="translate(-18.687 -125.796)" fill="#12263f"/>
  </g>
  <rect id="Rectángulo_3082" data-name="Rectángulo 3082" width="11.534" height="11.534" rx="5.152" transform="translate(61.052 92.142) rotate(-5.886)" fill="#e4c7a1"/>
  <path id="Trazado_14823" data-name="Trazado 14823" d="M92.777,98.874l-.8-8.3s15.243-7.152,13.607-24.012S88.333,44.741,78.431,45.7,54.168,54.541,55.8,71.4,73.776,92.345,73.776,92.345l.8,8.3Z" transform="translate(-18.917 -17.583)" fill="#ffb476"/>
  <g id="Grupo_13082" data-name="Grupo 13082" transform="translate(47.594 46.197)">
    <path id="Trazado_14824" data-name="Trazado 14824" d="M82.24,103.714l-.388-.078-.061-.2.3-.089-.307-.018c0-.555-1.664-15.316-4.59-22.668-2.791.49-6.1.307-7.894-1.586a4.244,4.244,0,0,1-.834-5.325,3.17,3.17,0,0,1,3.623-1.493c3.371,1.066,4.665,5.007,5.359,7.125.061.187.117.355.171.516a11.776,11.776,0,0,0,2.788-.927,5.892,5.892,0,0,0,1.555-1.217,8.41,8.41,0,0,1-3.956-7.217c.132-2.717,1.853-4.512,4.287-4.47a3.3,3.3,0,0,1,3.435,2.68c.578,2.5-.764,6.368-2.748,8.842A12.46,12.46,0,0,0,88.032,79c1.123-4.379,2.872-6.531,4-7.517a4.5,4.5,0,0,1,4.077-1.319c1.576.48,2.507,2.454,2.12,4.493-.513,2.7-3.339,5.388-9.7,5.04-1.1,4.7-1.47,11.936.355,22.976l-.654.108c-1.822-11.017-1.465-18.318-.355-23.129a13,13,0,0,1-5.337-1.542,6.674,6.674,0,0,1-1.829,1.456,12.309,12.309,0,0,1-2.853.968c2.5,6.405,4.625,20.411,4.564,22.717h0a.658.658,0,0,1-.05.312ZM71.222,72.788a2.637,2.637,0,0,0-2.2,1.315,3.61,3.61,0,0,0,.754,4.518c1.59,1.68,4.6,1.836,7.18,1.4-.045-.135-.089-.28-.144-.434-.657-2.005-1.882-5.739-4.928-6.7a2.213,2.213,0,0,0-.668-.1Zm17.466,6.253c5.852.286,8.431-2.108,8.885-4.51.32-1.683-.426-3.359-1.662-3.732a3.852,3.852,0,0,0-3.447,1.185c-1.063.927-2.7,2.948-3.776,7.056ZM82.2,66.732c-2.038,0-3.423,1.5-3.538,3.841A7.744,7.744,0,0,0,82.4,77.251c1.885-2.31,3.211-6.028,2.675-8.352a2.623,2.623,0,0,0-2.8-2.166Z" transform="translate(-67.869 -66.065)" fill="#636363"/>
  </g>
  <path id="Trazado_132980" data-name="Trazado 132980" d="M92.777,98.874l-.8-8.3s15.243-7.152,13.607-24.012S88.333,44.741,78.431,45.7,54.168,54.541,55.8,71.4,73.776,92.345,73.776,92.345l.8,8.3Z" transform="translate(-18.917 -17.585)" fill="none"/>
  <path id="Rectángulo_3083" data-name="Rectángulo 3083" d="M72.234,104.665,98.9,101.916h0l.806,7.816a12.216,12.216,0,0,1-10.9,13.4l-2.363.244a12.218,12.218,0,0,1-13.406-10.9l-.806-7.816Z" transform="translate(-20.763 -23.865)" fill="#636363"/>
  <rect id="Rectángulo_3084" data-name="Rectángulo 3084" width="34.632" height="2.309" rx="1.155" transform="translate(48.491 84.084) rotate(-5.886)" fill="#e4c7a1"/>
  <rect id="Rectángulo_3085" data-name="Rectángulo 3085" width="34.632" height="2.309" rx="1.155" transform="translate(49.045 88.301) rotate(-5.886)" fill="#e4c7a1"/>
</svg>
