<svg xmlns="http://www.w3.org/2000/svg" xmlns:xlink="http://www.w3.org/1999/xlink" width="505" height="288.937" viewBox="0 0 505 288.937">
  <defs>
    <clipPath id="clip-path">
      <path id="Trazado_165434" data-name="Trazado 165434" d="M0,4.151A4.149,4.149,0,1,0,4.148,0,4.148,4.148,0,0,0,0,4.151" fill="#2efec7"/>
    </clipPath>
    <clipPath id="clip-path-2">
      <path id="Trazado_165438" data-name="Trazado 165438" d="M4.147,0A4.148,4.148,0,1,0,8.3,4.15,4.148,4.148,0,0,0,4.147,0Z" fill="#2efec7"/>
    </clipPath>
    <clipPath id="clip-path-3">
      <path id="Trazado_165440" data-name="Trazado 165440" d="M0,4.151A4.148,4.148,0,1,0,4.148,0,4.149,4.149,0,0,0,0,4.151" fill="#2efec7"/>
    </clipPath>
    <clipPath id="clip-path-4">
      <path id="Trazado_165442" data-name="Trazado 165442" d="M0,4.149A4.148,4.148,0,1,0,4.148,0,4.148,4.148,0,0,0,0,4.149" fill="#2efec7"/>
    </clipPath>
    <clipPath id="clip-path-5">
      <path id="Trazado_165444" data-name="Trazado 165444" d="M4.146,0A4.148,4.148,0,1,0,8.3,4.149,4.147,4.147,0,0,0,4.146,0Z" fill="#2efec7"/>
    </clipPath>
    <clipPath id="clip-path-6">
      <path id="Trazado_165446" data-name="Trazado 165446" d="M0,4.151A4.149,4.149,0,1,0,4.148,0,4.149,4.149,0,0,0,0,4.151" fill="#2efec7"/>
    </clipPath>
    <clipPath id="clip-path-7">
      <path id="Trazado_165448" data-name="Trazado 165448" d="M0,4.149A4.149,4.149,0,1,0,4.15,0h0A4.153,4.153,0,0,0,0,4.149" fill="#2efec7"/>
    </clipPath>
    <clipPath id="clip-path-8">
      <path id="Trazado_165450" data-name="Trazado 165450" d="M4.146,0A4.148,4.148,0,1,0,8.3,4.15,4.147,4.147,0,0,0,4.146,0Z" fill="#2efec7"/>
    </clipPath>
    <clipPath id="clip-path-9">
      <path id="Trazado_165452" data-name="Trazado 165452" d="M0,4.151A4.148,4.148,0,1,0,4.147,0,4.148,4.148,0,0,0,0,4.151" fill="#2efec7"/>
    </clipPath>
    <clipPath id="clip-path-10">
      <path id="Trazado_165454" data-name="Trazado 165454" d="M0,4.149A4.148,4.148,0,1,0,4.147,0,4.147,4.147,0,0,0,0,4.149" fill="#2efec7"/>
    </clipPath>
    <clipPath id="clip-path-12">
      <path id="Trazado_165436" data-name="Trazado 165436" d="M0,4.149A4.149,4.149,0,1,0,4.149,0h0A4.153,4.153,0,0,0,0,4.149" fill="#2efec7"/>
    </clipPath>
  </defs>
  <g id="Grupo_1078884" data-name="Grupo 1078884" transform="translate(2484.026 7968.951)">
    <g id="Grupo_1078803" data-name="Grupo 1078803" transform="translate(-3294.026 -12615.435)">
      <g id="Grupo_1078481" data-name="Grupo 1078481" transform="translate(805.949 4646.483)">
        <rect id="Rectángulo_373681" data-name="Rectángulo 373681" width="12.041" height="70.838" rx="6.021" transform="translate(500.537 0) rotate(45)" fill="#ffb476"/>
        <g id="Grupo_1065536" data-name="Grupo 1065536" transform="translate(433.332 284.035) rotate(-90)">
          <g id="Group_881454" data-name="Group 881454" transform="translate(0 67.421)">
            <g id="Grupo_108438" data-name="Grupo 108438">
              <path id="Trazado_165433" data-name="Trazado 165433" d="M0,4.151A4.149,4.149,0,1,0,4.148,0,4.148,4.148,0,0,0,0,4.151" fill="#2efec7"/>
              <g id="Grupo_108437" data-name="Grupo 108437" clip-path="url(#clip-path)">
                <g id="Group_881453" data-name="Group 881453" transform="translate(0 0)">
                  <rect id="Rectangle_298909" data-name="Rectangle 298909" width="8.297" height="8.297" fill="#2efec7"/>
                </g>
              </g>
            </g>
          </g>
          <g id="Group_881458" data-name="Group 881458" transform="translate(0.001)">
            <g id="Grupo_108442" data-name="Grupo 108442">
              <path id="Trazado_165437" data-name="Trazado 165437" d="M4.147,0A4.148,4.148,0,1,0,8.3,4.15,4.148,4.148,0,0,0,4.147,0Z" fill="#2efec7"/>
              <g id="Grupo_108441" data-name="Grupo 108441" clip-path="url(#clip-path-2)">
                <g id="Group_881457" data-name="Group 881457" transform="translate(-0.001 0.001)">
                  <rect id="Rectangle_298911" data-name="Rectangle 298911" width="8.297" height="8.295" fill="#2efec7"/>
                </g>
              </g>
            </g>
          </g>
          <g id="Group_881460" data-name="Group 881460" transform="translate(28.117 67.421)">
            <g id="Grupo_108444" data-name="Grupo 108444">
              <path id="Trazado_165439" data-name="Trazado 165439" d="M0,4.151A4.148,4.148,0,1,0,4.148,0,4.149,4.149,0,0,0,0,4.151" fill="#2efec7"/>
              <g id="Grupo_108443" data-name="Grupo 108443" clip-path="url(#clip-path-3)">
                <g id="Group_881459" data-name="Group 881459" transform="translate(0 0)">
                  <rect id="Rectangle_298912" data-name="Rectangle 298912" width="8.297" height="8.297" fill="#2efec7"/>
                </g>
              </g>
            </g>
          </g>
          <g id="Group_881462" data-name="Group 881462" transform="translate(28.117 35.091)">
            <g id="Grupo_108446" data-name="Grupo 108446">
              <path id="Trazado_165441" data-name="Trazado 165441" d="M0,4.149A4.148,4.148,0,1,0,4.148,0,4.148,4.148,0,0,0,0,4.149" fill="#2efec7"/>
              <g id="Grupo_108445" data-name="Grupo 108445" clip-path="url(#clip-path-4)">
                <g id="Group_881461" data-name="Group 881461" transform="translate(0 0)">
                  <rect id="Rectangle_298913" data-name="Rectangle 298913" width="8.297" height="8.297" fill="#2efec7"/>
                </g>
              </g>
            </g>
          </g>
          <g id="Group_881464" data-name="Group 881464" transform="translate(28.119)">
            <g id="Grupo_108448" data-name="Grupo 108448">
              <path id="Trazado_165443" data-name="Trazado 165443" d="M4.146,0A4.148,4.148,0,1,0,8.3,4.149,4.147,4.147,0,0,0,4.146,0Z" fill="#2efec7"/>
              <g id="Grupo_108447" data-name="Grupo 108447" clip-path="url(#clip-path-5)">
                <g id="Group_881463" data-name="Group 881463" transform="translate(-0.002 0.001)">
                  <rect id="Rectangle_298914" data-name="Rectangle 298914" width="8.297" height="8.295" fill="#2efec7"/>
                </g>
              </g>
            </g>
          </g>
          <g id="Group_881454-2" data-name="Group 881454" transform="translate(57.451 67.421)">
            <g id="Grupo_108450" data-name="Grupo 108450">
              <path id="Trazado_165445" data-name="Trazado 165445" d="M0,4.151A4.149,4.149,0,1,0,4.148,0,4.149,4.149,0,0,0,0,4.151" fill="#2efec7"/>
              <g id="Grupo_108449" data-name="Grupo 108449" clip-path="url(#clip-path-6)">
                <g id="Group_881453-2" data-name="Group 881453" transform="translate(0 0)">
                  <rect id="Rectangle_298909-2" data-name="Rectangle 298909" width="8.297" height="8.297" fill="#2efec7"/>
                </g>
              </g>
            </g>
          </g>
          <g id="Group_881456" data-name="Group 881456" transform="translate(57.451 35.091)">
            <g id="Grupo_108452" data-name="Grupo 108452">
              <path id="Trazado_165447" data-name="Trazado 165447" d="M0,4.149A4.149,4.149,0,1,0,4.15,0h0A4.153,4.153,0,0,0,0,4.149" fill="#2efec7"/>
              <g id="Grupo_108451" data-name="Grupo 108451" clip-path="url(#clip-path-7)">
                <g id="Group_881455" data-name="Group 881455" transform="translate(0 0)">
                  <rect id="Rectangle_298910" data-name="Rectangle 298910" width="8.297" height="8.297" fill="#2efec7"/>
                </g>
              </g>
            </g>
          </g>
          <g id="Group_881458-2" data-name="Group 881458" transform="translate(57.453)">
            <g id="Grupo_108454" data-name="Grupo 108454">
              <path id="Trazado_165449" data-name="Trazado 165449" d="M4.146,0A4.148,4.148,0,1,0,8.3,4.15,4.147,4.147,0,0,0,4.146,0Z" fill="#2efec7"/>
              <g id="Grupo_108453" data-name="Grupo 108453" clip-path="url(#clip-path-8)">
                <g id="Group_881457-2" data-name="Group 881457" transform="translate(-0.001 0.001)">
                  <rect id="Rectangle_298911-2" data-name="Rectangle 298911" width="8.297" height="8.295" fill="#2efec7"/>
                </g>
              </g>
            </g>
          </g>
          <g id="Group_881460-2" data-name="Group 881460" transform="translate(85.569 67.421)">
            <g id="Grupo_108456" data-name="Grupo 108456">
              <path id="Trazado_165451" data-name="Trazado 165451" d="M0,4.151A4.148,4.148,0,1,0,4.147,0,4.148,4.148,0,0,0,0,4.151" fill="#2efec7"/>
              <g id="Grupo_108455" data-name="Grupo 108455" clip-path="url(#clip-path-9)">
                <g id="Group_881459-2" data-name="Group 881459" transform="translate(0 0)">
                  <rect id="Rectangle_298912-2" data-name="Rectangle 298912" width="8.297" height="8.297" fill="#2efec7"/>
                </g>
              </g>
            </g>
          </g>
          <g id="Group_881462-2" data-name="Group 881462" transform="translate(85.569 35.091)">
            <g id="Grupo_108458" data-name="Grupo 108458">
              <path id="Trazado_165453" data-name="Trazado 165453" d="M0,4.149A4.148,4.148,0,1,0,4.147,0,4.147,4.147,0,0,0,0,4.149" fill="#2efec7"/>
              <g id="Grupo_108457" data-name="Grupo 108457" clip-path="url(#clip-path-10)">
                <g id="Group_881461-2" data-name="Group 881461" transform="translate(0 0)">
                  <rect id="Rectangle_298913-2" data-name="Rectangle 298913" width="8.297" height="8.297" fill="#2efec7"/>
                </g>
              </g>
            </g>
          </g>
          <g id="Group_881464-2" data-name="Group 881464" transform="translate(85.57)">
            <g id="Grupo_108460" data-name="Grupo 108460">
              <path id="Trazado_165455" data-name="Trazado 165455" d="M4.146,0A4.148,4.148,0,1,0,8.3,4.149,4.147,4.147,0,0,0,4.146,0Z" fill="#2efec7"/>
              <g id="Grupo_108459" data-name="Grupo 108459" clip-path="url(#clip-path-5)">
                <g id="Group_881463-2" data-name="Group 881463" transform="translate(-0.001 0.001)">
                  <rect id="Rectangle_298914-2" data-name="Rectangle 298914" width="8.297" height="8.295" fill="#2efec7"/>
                </g>
              </g>
            </g>
          </g>
          <g id="Group_881456-2" data-name="Group 881456" transform="translate(0 35.091)">
            <g id="Grupo_108440" data-name="Grupo 108440">
              <path id="Trazado_165435" data-name="Trazado 165435" d="M0,4.149A4.149,4.149,0,1,0,4.149,0h0A4.153,4.153,0,0,0,0,4.149" fill="#2efec7"/>
              <g id="Grupo_108439" data-name="Grupo 108439" clip-path="url(#clip-path-12)">
                <g id="Group_881455-2" data-name="Group 881455" transform="translate(0 0)">
                  <rect id="Rectangle_298910-2" data-name="Rectangle 298910" width="8.297" height="8.297" fill="#2efec7"/>
                </g>
              </g>
            </g>
          </g>
        </g>
        <rect id="Rectángulo_373680" data-name="Rectángulo 373680" width="12.987" height="102.47" rx="6.494" transform="translate(76.508 202.395) rotate(45)" fill="#ff6148"/>
      </g>
    </g>
    <g id="Grupo_1078882" data-name="Grupo 1078882" transform="translate(-18 19.932)">
      <path id="Trazado_827717" data-name="Trazado 827717" d="M252.328,260.576c-16.112,28.164-65.661-4.45-92.957,6.92-36.128,15.049-52.347,67.218-87.929,46.862C8.979,278.623-21,191.061,16.433,125.624s134.418-67.5,196.881-31.763,76.449,101.278,39.013,166.716" transform="translate(-2360 -8018.956)" fill="#ffc8bf" fill-rule="evenodd"/>
      <path id="Trazado_827718" data-name="Trazado 827718" d="M567.97,221.821c-.9,12.367-2.725,14.073-14.516,15.025,11.791.952,13.614,2.658,14.516,15.024.9-12.366,2.725-14.072,14.516-15.024-11.791-.952-13.615-2.658-14.516-15.025M615.9,254.437c-.481,6.6-1.456,7.513-7.75,8.022,6.294.509,7.269,1.419,7.75,8.021.481-6.6,1.454-7.512,7.75-8.021-6.3-.509-7.269-1.419-7.75-8.022m-20.989-50.814c-.487,6.687-1.474,7.61-7.849,8.124,6.375.515,7.362,1.438,7.849,8.125.486-6.687,1.474-7.61,7.849-8.125-6.375-.514-7.363-1.437-7.849-8.124" transform="translate(-2853.545 -8137.467)" fill="#fff" fill-rule="evenodd"/>
      <path id="Trazado_827719" data-name="Trazado 827719" d="M568.293,978.2c-.9,12.366-2.725,14.072-14.514,15.024,11.789.952,13.614,2.658,14.514,15.025.9-12.367,2.726-14.073,14.516-15.025-11.789-.952-13.614-2.658-14.516-15.024m47.928,32.615c-.481,6.6-1.456,7.513-7.75,8.022,6.294.508,7.269,1.419,7.75,8.022.48-6.6,1.454-7.514,7.749-8.022-6.295-.509-7.269-1.419-7.749-8.022M595.232,960c-.486,6.687-1.474,7.61-7.849,8.125,6.375.515,7.363,1.438,7.849,8.124.487-6.686,1.473-7.609,7.849-8.124-6.377-.515-7.362-1.438-7.849-8.125" transform="translate(-2853.834 -8811.969)" fill="#fff" fill-rule="evenodd"/>
      <path id="Trazado_827720" data-name="Trazado 827720" d="M1311.527,648.037c-.9,12.367-2.725,14.074-14.516,15.025,11.791.952,13.614,2.658,14.516,15.024.9-12.366,2.725-14.072,14.514-15.024-11.789-.952-13.614-2.658-14.514-15.025m47.927,32.616c-.481,6.6-1.456,7.513-7.75,8.022,6.294.509,7.269,1.419,7.75,8.021.481-6.6,1.455-7.512,7.749-8.021-6.295-.509-7.268-1.419-7.749-8.022m-20.989-50.814c-.487,6.687-1.474,7.61-7.849,8.124,6.375.515,7.362,1.438,7.849,8.125.486-6.687,1.474-7.61,7.849-8.125-6.375-.514-7.362-1.437-7.849-8.124" transform="translate(-3516.615 -8517.547)" fill="#fff" fill-rule="evenodd"/>
      <path id="Trazado_827721" data-name="Trazado 827721" d="M1399.585,1272.639l-29.231-.351-9.5,50.847,27.849,7.756Z" transform="translate(-3573.545 -9090.452)" fill="#165396" fill-rule="evenodd"/>
      <path id="Trazado_827722" data-name="Trazado 827722" d="M1418.256,1293.615l-9.94,53.2-23.492-6.545,8.772-46.955Z" transform="translate(-3594.923 -9109.207)" fill="#fff" fill-rule="evenodd"/>
      <path id="Trazado_827723" data-name="Trazado 827723" d="M1578.6,1708.938v-6.871l4.279,1.19,2.5-13.4v19.11a60.792,60.792,0,0,0-6.783-.025" transform="translate(-3767.727 -9462.82)" fill="#0f3d86" fill-rule="evenodd"/>
      <path id="Trazado_827724" data-name="Trazado 827724" d="M916.638,1975.946h36.183c2.752-2.543,5.6-4.99,8.581-7.245H916.638c-.4,0-.732,1.3-.732,2.9v1.448c0,1.6.33,2.9.732,2.9" transform="translate(-3176.762 -9711.482)" fill="#9d7558" fill-rule="evenodd"/>
      <path id="Trazado_827725" data-name="Trazado 827725" d="M477.528,962.314c-2.576,9.088,3.722,18.454,10.659,20.423s11.882-4.211,14.463-13.3-.955-18.052-7.891-20.019-14.652,3.8-17.231,12.9" transform="translate(-2785.313 -8802.19)" fill="#f4ae7c" fill-rule="evenodd"/>
      <path id="Trazado_827726" data-name="Trazado 827726" d="M618.737,2045.183s32.916-.857,57.345,7.171c-17.8,18.147-32.827,36.087-56.211,22.711-1.648-.945-3.269-1.933-4.871-2.944.006-10.791,3.736-26.938,3.736-26.938" transform="translate(-2908.43 -9779.662)" fill="#0f3970" fill-rule="evenodd"/>
      <path id="Trazado_827727" data-name="Trazado 827727" d="M349.914,2011.556l31.1,5.367s39.012.357,58.556,3.608c-18.622,18.743-33.862,38.405-58.045,24.571a135.2,135.2,0,0,1-33.8-27.629c1.191-3.615,2.189-5.917,2.189-5.917" transform="translate(-2670.085 -9749.698)" fill="#0f3d86" fill-rule="evenodd"/>
      <path id="Trazado_827728" data-name="Trazado 827728" d="M279.713,1358.124a32.546,32.546,0,0,1,24.339,6.056c6.819,6.953,14.531,18.413,14.054,37.319-.6,24.008,3.716,25.549-.783,32.152-7.132,2.946-16.183,9.577-24.258,14.713a141.046,141.046,0,0,1-18-18.314c.7-21.612-11.4-39.586,1.025-64.867,1.151-2.335,2.584-4.6,3.622-7.059" transform="translate(-2601.178 -9166.682)" fill="#8193c2" fill-rule="evenodd"/>
      <path id="Trazado_827729" data-name="Trazado 827729" d="M388.218,1459.962c.363,12.519,2.133,16.207.78,20.132-7.652.78-21.659,3.845-25.16,8.744-2.047,2.869-4.1,4.48-5.359,4.81l-1.22-1.156a5.267,5.267,0,0,1,.446-1.388c1.867-4.136,6.8-10.008-.8-30.149s-11.2-33.749-3.734-47.754Z" transform="translate(-2671.278 -9216.113)" fill="#8e9bc8" fill-rule="evenodd"/>
      <path id="Trazado_827730" data-name="Trazado 827730" d="M356,1152.168c5.045-11.939,6.282-25.354,6.282-25.354l13.21,3.9s-7.5,16.808-.3,22.812a67.915,67.915,0,0,1,5.153,4.7A32.548,32.548,0,0,0,356,1152.168" transform="translate(-2677.463 -8960.727)" fill="#f4ae7c" fill-rule="evenodd"/>
      <path id="Trazado_827731" data-name="Trazado 827731" d="M406.074,1135.793c.779-.7,1.758-1.565,2.786-2.474l10.773,3.185.019.058a44.067,44.067,0,0,0-3.359,13.155c-3.216-1.95-6.729-5.125-10.745-10.672.214-1.23.387-2.327.526-3.253" transform="translate(-2721.649 -8966.527)" fill="#ed7d5b" fill-rule="evenodd"/>
      <path id="Trazado_827732" data-name="Trazado 827732" d="M362.292,1392.618c13.6,4.76,12.091,19.09,24.609,40.219,6.482,10.937,12.493,10.772,12.493,10.772a289.638,289.638,0,0,0,33.569-2.123c11.508-1.409,12.244,2.018,4.235,4.88-16.139,5.769-32.89,11.981-46.4,10.481s-36.6-35.959-37.795-44.932c-1.643-12.405,2.436-21.694,9.286-19.3" transform="translate(-2674.471 -9197.421)" fill="#f19651" fill-rule="evenodd"/>
      <path id="Trazado_827733" data-name="Trazado 827733" d="M196.066,1710.67a46.888,46.888,0,0,0-.37-5.183c-.769-6.247-2.846-14.579-7.646-30.751a3.144,3.144,0,0,0-6.029,1.791c3.286,11.055,5.309,18.46,6.457,24.02q3.579,5.228,7.588,10.123" transform="translate(-2522.203 -9447.335)" fill="#9d7558" fill-rule="evenodd"/>
      <path id="Trazado_827734" data-name="Trazado 827734" d="M1001.969,1810.478c9.2-.132,18.331-5.62,22.865-4.82,3.911.691,15.461,8.421,17.367,10.8l-1.041.541c-3.52-.914-12.508-5.561-12.857-5.643-.4-.093-2.935,4.216-9.208,5.8s-.044-4.7-19.479,1.171c-12.632,3.818,2.353-7.842,2.353-7.842" transform="translate(-3246.896 -9566.019)" fill="#f4ae7c" fill-rule="evenodd"/>
      <path id="Trazado_827735" data-name="Trazado 827735" d="M357.351,1260.391l-1.354,10.9s11.914.709,17.838,4.045,14.673,12.969,14.673,12.969l-7.144-12.3-1.027-7.872Z" transform="translate(-2677.462 -9079.845)" fill="#8e9bc8" fill-rule="evenodd"/>
      <path id="Trazado_827736" data-name="Trazado 827736" d="M345.412,1381.824c8.849-1.658,12.939,6.268,18.676,19.209s15.529,28.654,17.474,30.682,32.818,0,32.818,0,.928,8.935,0,10-6.27.935-6.27.935-2.137,1.7-4.136,3.053-18.94,3.885-26.812,3.485-15.076-1.068-16.141-2.269-22.544-34.284-23.881-46.155,3.76-18.1,8.272-18.942" transform="translate(-2660.453 -9187.938)" fill="#8193c2" fill-rule="evenodd"/>
      <path id="Trazado_827737" data-name="Trazado 827737" d="M360.315,831.131c16.737.8,14.111,25.971,14.111,25.971s-4.348,1.344-13.45-.159c.7-2.7.4-9.6.4-9.6a63.216,63.216,0,0,1-2.4,9.005c-1.928.884-4.1.1-7.806-.8-1.9,8-7.271,11.378-10.951,12.535-4.062,1.277-8.361,2.8-13.165.4s-2.161-26.948.383-31.879c3.834-7.413,10.194-14.041,21.2-10.542a82,82,0,0,1,11.678,5.071" transform="translate(-2649.269 -8691.671)" fill="#0f3970" fill-rule="evenodd"/>
      <path id="Trazado_827738" data-name="Trazado 827738" d="M352.366,1055.951a23.916,23.916,0,0,0,3.546-.286c5.827-.874,13.65-4.189,14.27-22.824a.548.548,0,0,0-.528-.565.54.54,0,0,0-.568.528c-.253,7.715-1.788,13.425-4.551,16.97a12.809,12.809,0,0,1-8.791,4.809c-5.44.818-9.051-.192-10.729-3a.548.548,0,0,0-.942.56c1.519,2.532,4.3,3.808,8.293,3.808" transform="translate(-2666.761 -8876.421)" fill="#0f3970" fill-rule="evenodd"/>
      <path id="Trazado_827739" data-name="Trazado 827739" d="M659.71,1116.853c-.84.233-2.379-1.018-3.379-1.366-.5-.178-2.049-.287-2.384-.637-1.019-1.071,4.248-.8,6.052,1.157a.561.561,0,0,1-.29.846" transform="translate(-2943.045 -8949.503)" fill="#0f3970" fill-rule="evenodd"/>
      <path id="Trazado_827740" data-name="Trazado 827740" d="M676.631,1144.489c-.676-.339.083-3.167,1.719-2.346.872.437-.622,2.9-1.719,2.346" transform="translate(-2963.169 -8974.264)" fill="#0f3970" fill-rule="evenodd"/>
      <path id="Trazado_827741" data-name="Trazado 827741" d="M622.891,1231.16c.253-.3-.157-.3-3.439-1.321-.948-.3,1.147,4.034,3.439,1.321" transform="translate(-2912.191 -9052.586)" fill="#fff" fill-rule="evenodd"/>
      <path id="Trazado_827742" data-name="Trazado 827742" d="M203.384,931.263l0-.017a20.574,20.574,0,0,0-2.807-7.94c-1.536-2.625-2.8-4.885-2.706-8.047a34.084,34.084,0,0,1,1.23-6.929c.893-3.695,1.574-7.74.3-11.42a10.4,10.4,0,0,0-6.935-6.776,12.851,12.851,0,0,0-12.147,3.45c-3.288,3.263-4.7,7.743-7.414,11.412a45.458,45.458,0,0,1-5.444,5.443c-2.7,2.574-5.787,5-7.589,8.326a17.944,17.944,0,0,0,5.04,22.748,16.286,16.286,0,0,0,2.085,1.3c.333.178.668.342,1.01.493a38.721,38.721,0,0,0,16.49,2.943,28.44,28.44,0,0,0,9.779-1.6c5.49-2.112,9.774-7.25,9.112-13.39" transform="translate(-2500.691 -8749.314)" fill="#0f3970" fill-rule="evenodd"/>
      <path id="Trazado_827743" data-name="Trazado 827743" d="M1387.442,70.452a31.409,31.409,0,0,1,10.072,1.633A25.172,25.172,0,0,1,1397,67.05c0-14.788,12.846-26.78,28.693-26.78a30.6,30.6,0,0,1,8.09,1.081c4.009-18.927,21.512-33.174,42.494-33.174,23.945,0,43.358,18.556,43.358,41.446A39.774,39.774,0,0,1,1518,60.969c15.666,1.059,28,12.069,28,26.275s-13.585,25.5-21.939,27.841a12.068,12.068,0,0,1-4.97,0H1387.442c-14.791,0-26.78-9.991-26.78-22.317s11.99-22.315,26.78-22.315" transform="translate(-3552.04 -7991.646)" fill="#fff" fill-rule="evenodd"/>
      <path id="Trazado_827744" data-name="Trazado 827744" d="M1380.717,62.274a34.077,34.077,0,0,1,5.372.434q1.479.237,2.9.608l-.032-.316a26.51,26.51,0,0,1-.137-2.664,27.3,27.3,0,0,1,8.87-20,31.141,31.141,0,0,1,21.287-8.241,32.241,32.241,0,0,1,4.283.289c.925.118,1.834.285,2.718.48A42.741,42.741,0,0,1,1441.254,9.64a46.3,46.3,0,0,1,59.971,2.9,41.9,41.9,0,0,1,13.156,30.365,41.457,41.457,0,0,1-.431,5.942,40.944,40.944,0,0,1-.809,4.106,33.515,33.515,0,0,1,19.158,8.582,25.835,25.835,0,0,1,8.437,18.989c0,6.566-2.731,12.535-6.528,17.357-4.854,6.16-11.527,10.5-16.479,11.89a9.778,9.778,0,0,1-2.564.312,18.912,18.912,0,0,1-2.88-.254H1380.717a31.083,31.083,0,0,1-19.869-6.877,21.245,21.245,0,0,1,0-33.8,31.079,31.079,0,0,1,19.869-6.877m4.911,3.315a30.749,30.749,0,0,0-4.911-.389,28.143,28.143,0,0,0-18,6.2,18.347,18.347,0,0,0,0,29.316,28.142,28.142,0,0,0,18,6.2l131.882.023a16.294,16.294,0,0,0,2.566.231,6.9,6.9,0,0,0,1.774-.2c4.455-1.246,10.511-5.224,14.974-10.885a25.372,25.372,0,0,0,5.9-15.552,22.949,22.949,0,0,0-7.508-16.862,30.9,30.9,0,0,0-19.129-7.953l-1.824-.127.52-1.745a37.715,37.715,0,0,0,1.185-5.407,38.392,38.392,0,0,0,.4-5.526,38.978,38.978,0,0,0-12.243-28.252,43.408,43.408,0,0,0-56.162-2.718,39.736,39.736,0,0,0-14.559,23l-.319,1.512-1.493-.4a28.765,28.765,0,0,0-3.806-.772,29.623,29.623,0,0,0-3.9-.257,28.212,28.212,0,0,0-19.3,7.451,24.387,24.387,0,0,0-7.935,17.869c0,.83.042,1.632.114,2.381s.2,1.554.366,2.369l.5,2.477-2.4-.811a29.321,29.321,0,0,0-4.694-1.163" transform="translate(-3545.317 -7984.93)" fill="#12263f" fill-rule="evenodd"/>
      <path id="Trazado_827745" data-name="Trazado 827745" d="M1729.391,161.476a26.719,26.719,0,0,1,8.818-3.648v-4.046a2.35,2.35,0,0,1,2.344-2.345h6.739a2.35,2.35,0,0,1,2.345,2.343v4.048a26.723,26.723,0,0,1,8.818,3.648l2.858-2.858a2.35,2.35,0,0,1,3.317,0l1.175,1.177,2.412,2.411,1.177,1.177a2.354,2.354,0,0,1,0,3.317l-2.858,2.858a26.689,26.689,0,0,1,3.648,8.816h4.046a2.354,2.354,0,0,1,2.345,2.346v6.738a2.354,2.354,0,0,1-2.345,2.345h-4.046a26.659,26.659,0,0,1-3.649,8.816l2.859,2.86a2.351,2.351,0,0,1,0,3.315l-1.177,1.177-2.412,2.412-1.175,1.175a2.351,2.351,0,0,1-3.317,0l-2.858-2.858a26.724,26.724,0,0,1-8.818,3.648v4.047a2.35,2.35,0,0,1-2.345,2.344h-6.739a2.351,2.351,0,0,1-2.344-2.344v-4.047a26.72,26.72,0,0,1-8.818-3.648l-2.858,2.858a2.352,2.352,0,0,1-3.317,0l-1.177-1.175-2.41-2.412-1.178-1.177a2.351,2.351,0,0,1,0-3.315l2.858-2.858a26.739,26.739,0,0,1-3.65-8.818h-4.042a2.353,2.353,0,0,1-2.346-2.345v-6.738a2.351,2.351,0,0,1,2.346-2.344h4.044a26.727,26.727,0,0,1,3.648-8.818l-2.858-2.858a2.352,2.352,0,0,1,0-3.317l1.178-1.177,2.41-2.411,1.177-1.177a2.35,2.35,0,0,1,3.317,0Zm57.068-12a2.334,2.334,0,0,0-2.552,2.079l-.229,2.248a12.531,12.531,0,0,0-4.28,1.924l-1.835-1.322a2.333,2.333,0,0,0-3.25.524l-2.082,2.885a2.334,2.334,0,0,0,.527,3.25l1.832,1.323a12.607,12.607,0,0,0-.458,2.312,12.777,12.777,0,0,0-.018,2.357l-2.061.925a2.335,2.335,0,0,0-1.171,3.078l1.456,3.245a2.335,2.335,0,0,0,3.078,1.17l2.066-.927a12.487,12.487,0,0,0,3.8,2.748l-.231,2.248a2.338,2.338,0,0,0,2.082,2.554l3.538.36a2.332,2.332,0,0,0,2.552-2.079l.229-2.249a12.467,12.467,0,0,0,4.281-1.924l1.834,1.323a2.334,2.334,0,0,0,3.25-.524l2.082-2.885a2.334,2.334,0,0,0-.526-3.25l-1.832-1.323a12.543,12.543,0,0,0,.474-4.669l2.063-.925a2.336,2.336,0,0,0,1.171-3.078l-1.456-3.244a2.335,2.335,0,0,0-3.078-1.171l-2.065.928a12.469,12.469,0,0,0-3.8-2.748l.23-2.248a2.337,2.337,0,0,0-2.082-2.554Zm.107,10.756a5.734,5.734,0,1,1-5.734,5.734,5.735,5.735,0,0,1,5.734-5.734m-3.96,25.491a2.334,2.334,0,0,0-2,2.618l.3,2.24a12.524,12.524,0,0,0-3.712,2.868l-2.092-.858a2.333,2.333,0,0,0-3.038,1.268l-1.352,3.29a2.336,2.336,0,0,0,1.269,3.039l2.092.858a12.516,12.516,0,0,0,.093,2.354,12.661,12.661,0,0,0,.531,2.3l-1.788,1.382a2.335,2.335,0,0,0-.423,3.267l2.173,2.814a2.338,2.338,0,0,0,3.268.423l1.79-1.383a12.474,12.474,0,0,0,4.338,1.784l.3,2.24a2.336,2.336,0,0,0,2.618,2l3.525-.475a2.335,2.335,0,0,0,2-2.618l-.3-2.24a12.482,12.482,0,0,0,3.712-2.868l2.094.858a2.337,2.337,0,0,0,3.039-1.268l1.351-3.29a2.337,2.337,0,0,0-1.269-3.039l-2.092-.858a12.684,12.684,0,0,0-.094-2.354,12.513,12.513,0,0,0-.533-2.3l1.791-1.381a2.339,2.339,0,0,0,.42-3.267l-2.172-2.814a2.337,2.337,0,0,0-3.267-.423l-1.791,1.383a12.484,12.484,0,0,0-4.34-1.785l-.3-2.24a2.333,2.333,0,0,0-2.616-2ZM1786.552,196a5.734,5.734,0,1,1-5.734,5.734,5.735,5.735,0,0,1,5.734-5.734m-42.632-31.343a19.431,19.431,0,1,0,13.739,5.693,19.359,19.359,0,0,0-13.739-5.693m9.985,9.444a14.118,14.118,0,1,0,4.136,9.984,14.08,14.08,0,0,0-4.136-9.984" transform="translate(-3839.965 -8107.676)" fill="#d0d9ee" fill-rule="evenodd"/>
      <path id="Trazado_827746" data-name="Trazado 827746" d="M257.171,285.449v-84.6H396.491v2.324h-137v82.271Z" transform="translate(-2589.333 -8134.997)" fill="#12263f" fill-rule="evenodd"/>
      <path id="Trazado_827747" data-name="Trazado 827747" d="M28.927,451.468H73.016a4.37,4.37,0,0,1,4.357,4.358v12.56a4.369,4.369,0,0,1-4.357,4.357H28.927a4.369,4.369,0,0,1-4.357-4.357v-12.56a4.37,4.37,0,0,1,4.357-4.358" transform="translate(-2381.91 -8358.484)" fill="#ffe5cf" fill-rule="evenodd"/>
      <path id="Trazado_827748" data-name="Trazado 827748" d="M21.626,443.294H65.715a5.258,5.258,0,0,1,5.242,5.243V461.1a5.257,5.257,0,0,1-5.242,5.243H21.626a5.262,5.262,0,0,1-5.243-5.243v-12.56a5.259,5.259,0,0,1,5.243-5.243m44.089,1.771H21.626a3.474,3.474,0,0,0-3.471,3.471V461.1a3.473,3.473,0,0,0,3.471,3.471H65.715a3.471,3.471,0,0,0,3.47-3.471v-12.56a3.473,3.473,0,0,0-3.47-3.471" transform="translate(-2374.61 -8351.195)" fill="#12263f" fill-rule="evenodd"/>
      <g id="Grupo_1078883" data-name="Grupo 1078883">
        <path id="Trazado_827749" data-name="Trazado 827749" d="M870.1,281.439a11.777,11.777,0,1,1-8.327,3.45,11.736,11.736,0,0,1,8.327-3.45m6.263,5.514a8.858,8.858,0,1,0,2.594,6.263,8.825,8.825,0,0,0-2.594-6.263" transform="translate(-3125.414 -8206.86)" fill="#12263f" fill-rule="evenodd"/>
        <path id="Trazado_827750" data-name="Trazado 827750" d="M917.108,347.409l1.325,1.325-7.947,7.946h0l-5.5-5.5,1.324-1.324,4.178,4.177Z" transform="translate(-3167.021 -8265.688)" fill="#12263f" fill-rule="evenodd"/>
      </g>
      <path id="Trazado_827751" data-name="Trazado 827751" d="M89.591,486.25h37.3a.8.8,0,0,1,.8.8v0a.8.8,0,0,1-.8.8h-37.3a.8.8,0,0,1-.8-.8v0a.8.8,0,0,1,.8-.8m0,11.021h37.3a.8.8,0,0,1,.8.8v0a.8.8,0,0,1-.8.8h-37.3a.8.8,0,0,1-.8-.8v0a.8.8,0,0,1,.8-.8m0-5.512h37.3a.8.8,0,0,1,.8.8v0a.8.8,0,0,1-.8.8h-37.3a.8.8,0,0,1-.8-.8v0a.8.8,0,0,1,.8-.8" transform="translate(-2439.18 -8389.501)" fill="#fff" fill-rule="evenodd"/>
      <path id="Trazado_827752" data-name="Trazado 827752" d="M1772.846,761.122v84.6h-56.016v-2.326h53.69v-82.27Z" transform="translate(-3890.991 -8634.619)" fill="#12263f" fill-rule="evenodd"/>
      <path id="Trazado_827753" data-name="Trazado 827753" d="M1710.694,1581.531a3.076,3.076,0,1,1-3.076,3.076,3.075,3.075,0,0,1,3.076-3.076m33.2,0a3.076,3.076,0,1,1-3.076,3.076,3.075,3.075,0,0,1,3.076-3.076m-16.6,0a3.076,3.076,0,1,1-3.076,3.076,3.075,3.075,0,0,1,3.076-3.076" transform="translate(-3882.775 -9366.223)" fill="#fff" fill-rule="evenodd"/>
      <path id="Trazado_827754" data-name="Trazado 827754" d="M1717.857,1650.8h34.351a1.281,1.281,0,1,1,0,2.562h-34.351a1.281,1.281,0,0,1,0-2.562m0,5.385h18.208a1.281,1.281,0,0,1,0,2.562h-18.208a1.281,1.281,0,0,1,0-2.562" transform="translate(-3890.763 -9427.997)" fill="#fff" fill-rule="evenodd"/>
      <rect id="Rectángulo_378934" data-name="Rectángulo 378934" width="272.913" height="255.939" transform="translate(-2360 -7955.886)" fill="none"/>
    </g>
  </g>
</svg>
