<svg id="Grupo_1079165" data-name="Grupo 1079165" xmlns="http://www.w3.org/2000/svg" xmlns:xlink="http://www.w3.org/1999/xlink" width="374" height="223.439" viewBox="0 0 374 223.439">
  <defs>
    <clipPath id="clip-path">
      <rect id="Rectángulo_379086" data-name="Rectángulo 379086" width="374" height="223.439" fill="none"/>
    </clipPath>
    <clipPath id="clip-path-5">
      <rect id="Rectángulo_379070" data-name="Rectángulo 379070" width="54.81" height="48.066" fill="none"/>
    </clipPath>
    <clipPath id="clip-path-6">
      <rect id="Rectángulo_379071" data-name="Rectángulo 379071" width="20.958" height="14.241" fill="none"/>
    </clipPath>
    <clipPath id="clip-path-7">
      <rect id="Rectángulo_379072" data-name="Rectángulo 379072" width="3.224" height="24.701" fill="none"/>
    </clipPath>
    <clipPath id="clip-path-8">
      <rect id="Rectángulo_379073" data-name="Rectángulo 379073" width="25.377" height="51.921" fill="none"/>
    </clipPath>
    <clipPath id="clip-path-9">
      <rect id="Rectángulo_379074" data-name="Rectángulo 379074" width="15.266" height="81.916" fill="none"/>
    </clipPath>
    <clipPath id="clip-path-11">
      <rect id="Rectángulo_379076" data-name="Rectángulo 379076" width="12.435" height="22.714" fill="none"/>
    </clipPath>
    <clipPath id="clip-path-12">
      <rect id="Rectángulo_379077" data-name="Rectángulo 379077" width="6.096" height="6.339" fill="none"/>
    </clipPath>
    <clipPath id="clip-path-13">
      <rect id="Rectángulo_379078" data-name="Rectángulo 379078" width="12.362" height="5.454" fill="none"/>
    </clipPath>
    <clipPath id="clip-path-14">
      <rect id="Rectángulo_379079" data-name="Rectángulo 379079" width="13.327" height="5.878" fill="none"/>
    </clipPath>
    <clipPath id="clip-path-17">
      <rect id="Rectángulo_379082" data-name="Rectángulo 379082" width="21.09" height="14.686" fill="none"/>
    </clipPath>
  </defs>
  <g id="Grupo_1079213" data-name="Grupo 1079213" clip-path="url(#clip-path)">
    <g id="Grupo_1079166" data-name="Grupo 1079166">
      <g id="Grupo_1079165-2" data-name="Grupo 1079165" clip-path="url(#clip-path)">
        <path id="Trazado_828219" data-name="Trazado 828219" d="M157.824,16.094a8.259,8.259,0,0,0-3.1,1.5,4.314,4.314,0,0,1-1.015.59L149.671,1.72A2.259,2.259,0,0,0,146.939.065l-17.126,4.2.478,1.944a3.58,3.58,0,0,0,.578,1.246,7.48,7.48,0,0,1-4.6,11.7,7.549,7.549,0,0,1-8.617-5.048,7.433,7.433,0,0,1-.211-3.744,3.722,3.722,0,0,0-.019-1.618l-.335-1.363-17.364,4.2a2.775,2.775,0,0,0-2.034,3.355l3.729,15.269-1.183.29c-.134.033-.271.063-.41.086a9.127,9.127,0,1,0,2.825,15.06,3.469,3.469,0,0,1,.7-.255l1.518-.372,4.18,17.036a2.774,2.774,0,0,0,3.355,2.033L159.8,52.465a2.259,2.259,0,0,0,1.656-2.732L157.2,32.387a4.525,4.525,0,0,1,.926.1,8.278,8.278,0,0,0,5.083-.515,8.42,8.42,0,0,0-5.381-15.881" transform="translate(-39.873 0)" fill="#ebebeb"/>
        <path id="Trazado_828220" data-name="Trazado 828220" d="M603.346,181.423a5.2,5.2,0,0,0,2.114.485,2.753,2.753,0,0,1,.732.11l-4.5,9.688a1.424,1.424,0,0,0,.692,1.891l10.08,4.682.531-1.144a2.263,2.263,0,0,0,.207-.841,4.666,4.666,0,0,1,.429-1.739,4.721,4.721,0,1,1,7.321,5.6,2.338,2.338,0,0,0-.628.8l-.373.8,10.2,4.776a1.748,1.748,0,0,0,2.322-.849l4.183-8.98.7.324c.079.036.158.076.236.119a5.753,5.753,0,1,0,4.546-8.521,2.191,2.191,0,0,1-.444-.15l-.894-.415,4.658-10.028a1.748,1.748,0,0,0-.849-2.322L616.71,162.754a1.423,1.423,0,0,0-1.891.691l-4.743,10.21a2.807,2.807,0,0,1-.415-.415,5.218,5.218,0,0,0-2.7-1.75,5.308,5.308,0,0,0-3.612,9.933" transform="translate(-274.371 -74.327)" fill="#ebebeb"/>
        <path id="Trazado_828221" data-name="Trazado 828221" d="M629.316,370.347a4.084,4.084,0,0,0,1.018-1.361,2.134,2.134,0,0,1,.311-.49l5.515,6.3a1.116,1.116,0,0,0,1.575.1l6.555-5.738-.65-.744A1.785,1.785,0,0,0,643.1,368a3.7,3.7,0,0,1-.647-6.179,3.731,3.731,0,0,1,4.928.254,3.666,3.666,0,0,1,.944,1.595,1.833,1.833,0,0,0,.377.7l.456.522,6.66-5.793a1.37,1.37,0,0,0,.129-1.934l-5.109-5.849.453-.4c.051-.045.1-.089.16-.131a4.51,4.51,0,1,0-4.664-5.963,1.705,1.705,0,0,1-.249.271l-.581.509-5.708-6.521a1.371,1.371,0,0,0-1.934-.129l-18.141,15.88a1.116,1.116,0,0,0-.1,1.575l5.812,6.64a2.206,2.206,0,0,1-.429.166,4.091,4.091,0,0,0-2.113,1.382,4.161,4.161,0,0,0,5.973,5.742" transform="translate(-283.281 -154.77)" fill="#f5f5f5"/>
        <path id="Trazado_828222" data-name="Trazado 828222" d="M469.144,29.726a6.514,6.514,0,0,0-2.708-.167,3.434,3.434,0,0,1-.926.014L469.084,16.7a1.782,1.782,0,0,0-1.24-2.192l-13.4-3.718-.422,1.52a2.819,2.819,0,0,0-.083,1.08,5.9,5.9,0,0,1-7.675,6.275,5.951,5.951,0,0,1-3.977-6.795,5.857,5.857,0,0,1,1.3-2.656,2.928,2.928,0,0,0,.61-1.12l.3-1.066-13.559-3.81a2.187,2.187,0,0,0-2.692,1.522l-3.327,11.937-.926-.257c-.1-.029-.211-.062-.315-.1a7.2,7.2,0,1,0-3.867,11.444,2.77,2.77,0,0,1,.579.094l1.187.33-3.7,13.326a2.187,2.187,0,0,0,1.523,2.692l37.067,10.287a1.781,1.781,0,0,0,2.192-1.24l3.765-13.568a3.548,3.548,0,0,1,.6.428,6.527,6.527,0,0,0,3.694,1.607,6.638,6.638,0,0,0,2.426-12.995" transform="translate(-187.778 -1.891)" fill="#f5f5f5"/>
        <path id="Trazado_828223" data-name="Trazado 828223" d="M4.024,287.12a6.122,6.122,0,0,0,2.52.374,3.2,3.2,0,0,1,.867.061l-4.379,11.76a1.673,1.673,0,0,0,.983,2.151l12.236,4.557.517-1.389a2.657,2.657,0,0,0,.165-1,5.539,5.539,0,0,1,7.687-5.254,5.59,5.59,0,0,1,3.175,6.679,5.5,5.5,0,0,1-1.43,2.381,2.749,2.749,0,0,0-.661,1l-.363.973,12.382,4.656a2.054,2.054,0,0,0,2.642-1.208l4.074-10.9.845.314c.1.036.192.075.287.118a6.759,6.759,0,1,0,4.541-10.4,2.567,2.567,0,0,1-.534-.135l-1.084-.4,4.533-12.172a2.054,2.054,0,0,0-1.208-2.642l-33.859-12.61a1.672,1.672,0,0,0-2.151.984L11.192,277.4a3.317,3.317,0,0,1-.524-.448,6.129,6.129,0,0,0-3.327-1.8A6.235,6.235,0,0,0,4.024,287.12" transform="translate(0 -120.627)" fill="#f5f5f5"/>
      </g>
    </g>
    <g id="Grupo_1079168" data-name="Grupo 1079168">
      <g id="Grupo_1079167" data-name="Grupo 1079167" clip-path="url(#clip-path)">
        <path id="Trazado_828224" data-name="Trazado 828224" d="M214.092,196.513a16.2,16.2,0,0,1,8.163,1.787,9.085,9.085,0,0,0,3.7.907l3.307-.075.039-36.763a6.306,6.306,0,0,0-6.325-6.286l-34.946.129v-.754a9.724,9.724,0,0,1,1.025-4.248,19.324,19.324,0,0,0,1.66-11.808,19.651,19.651,0,0,0-38.988,3.365,19.281,19.281,0,0,0,1.667,7.855,9.691,9.691,0,0,1,.874,3.936l.207,1.653H112.364a6.306,6.306,0,0,0-6.325,6.286v35.946h-3a9.2,9.2,0,0,1-4.019-.97,18.949,18.949,0,0,0-11.38-1.571A18.595,18.595,0,0,0,90.821,232.8a18.235,18.235,0,0,0,7.432-1.578,9.175,9.175,0,0,1,3.725-.827h3.854l.077,43.968a5.135,5.135,0,0,0,5.151,5.119H223.783c2.845,0,5.074-3.571,5.074-6.4V233.117h-4.563a8.25,8.25,0,0,0-3.074.6A17.066,17.066,0,0,1,197.8,217.283c.342-8.539,7.718-20.175,16.3-20.77" transform="translate(-33.069 -56.332)" fill="#e0e0e0"/>
        <path id="Trazado_828225" data-name="Trazado 828225" d="M213.99,196.426s-.1.015-.3.039a8.215,8.215,0,0,0-.883.133,12.036,12.036,0,0,0-3.307,1.175c-2.751,1.4-6.36,4.61-9.077,9.962a23.741,23.741,0,0,0-2.672,9.541,17.527,17.527,0,0,0,.778,5.65,16.754,16.754,0,0,0,2.893,5.458A16.941,16.941,0,0,0,213.3,234.71a16.7,16.7,0,0,0,7.458-1.027,8.888,8.888,0,0,1,3.909-.738l4.091,0h.087v.087q0,9.479.01,20.13,0,5.318,0,10.91,0,2.8,0,5.658,0,1.43,0,2.878a8.139,8.139,0,0,1-.1,1.464,7.82,7.82,0,0,1-.4,1.421A7.458,7.458,0,0,1,226.787,278a4.612,4.612,0,0,1-2.61,1.457,14.761,14.761,0,0,1-1.513.039h-4.543l-12.45,0-26.287.007-57.515.011h-7.6c-1.279-.012-2.538.027-3.843-.026a5.287,5.287,0,0,1-4.757-5.4q0-1.94-.007-3.89-.007-3.9-.015-7.838-.029-15.75-.059-32.064l.14.14h-2.4c-.8.013-1.615-.036-2.4.056a9.239,9.239,0,0,0-2.317.592,23.8,23.8,0,0,1-2.292.887,18.487,18.487,0,0,1-18.64-4.53,17.958,17.958,0,0,1-4.22-6.382c-.148-.4-.33-.8-.45-1.209l-.339-1.247a18.71,18.71,0,0,1,9.61-21.169,18.734,18.734,0,0,1,5.872-1.859,19.353,19.353,0,0,1,6.124.143,18.807,18.807,0,0,1,2.953.8c.479.174.952.363,1.413.579a14.665,14.665,0,0,0,1.378.592c1.874.739,3.922.47,5.922.52l-.14.14q0-11.662,0-23.024,0-5.678,0-11.275a17.468,17.468,0,0,1,.112-2.811,6.222,6.222,0,0,1,1.114-2.588,6.439,6.439,0,0,1,4.784-2.647L154.378,156l-.127.144c-.071-.567-.138-1.11-.206-1.653v-.016a9.265,9.265,0,0,0-.5-2.968c-.158-.479-.367-.933-.567-1.407s-.369-.952-.527-1.437a19.454,19.454,0,0,1-.94-5.975l.081-1.5c.019-.25.016-.5.053-.749l.121-.739c.093-.49.136-.99.269-1.47l.4-1.437a4.514,4.514,0,0,1,.239-.7l.273-.69a9.728,9.728,0,0,1,.6-1.351l.685-1.306.811-1.225a19.19,19.19,0,0,1,3.985-4.214l.562-.454.6-.4c.4-.258.8-.533,1.209-.776a21.029,21.029,0,0,1,2.582-1.22,19.524,19.524,0,0,1,5.474-1.312,19.306,19.306,0,0,1,2.789-.044c.462.031.926.039,1.384.089l1.367.207a19.894,19.894,0,0,1,9.589,4.794,19.523,19.523,0,0,1,5.965,18.72,20.531,20.531,0,0,1-1.651,4.6,10.044,10.044,0,0,0-.71,2.264,11.5,11.5,0,0,0-.148,2.351l-.1-.1,26.585-.086,6.048-.019,1.474,0c.488,0,.974-.007,1.464.029a6.438,6.438,0,0,1,2.729.92,6.343,6.343,0,0,1,2.981,4.538,24.506,24.506,0,0,1,.065,2.683q0,1.321,0,2.609c-.028,13.742-.051,24.667-.067,32.351v.041h-.041c-1.332.018-2.571.08-3.731.056a9.356,9.356,0,0,1-3.095-.81,20.558,20.558,0,0,0-4.568-1.62,14.049,14.049,0,0,0-2.842-.306c-.315,0-.55.006-.706.014s-.233.006-.233.006a9.209,9.209,0,0,1,.939-.041,13.69,13.69,0,0,1,2.85.286,20.445,20.445,0,0,1,4.585,1.6,9.306,9.306,0,0,0,3.074.795c1.148.02,2.394-.045,3.724-.066l-.041.041c0-7.684,0-18.608,0-32.35q0-1.288,0-2.61a24.607,24.607,0,0,0-.066-2.661A6.185,6.185,0,0,0,226.146,157a6.269,6.269,0,0,0-2.66-.893c-.473-.033-.959-.032-1.449-.027l-1.473.007-6.048.026-26.584.111h-.1v-.1a11.72,11.72,0,0,1,.149-2.387,10.239,10.239,0,0,1,.723-2.311,20.347,20.347,0,0,0,1.635-4.564,19.312,19.312,0,0,0-5.911-18.508,19.671,19.671,0,0,0-9.481-4.732l-1.351-.2c-.453-.049-.912-.056-1.369-.087a19.014,19.014,0,0,0-2.757.045,19.286,19.286,0,0,0-5.408,1.3,20.751,20.751,0,0,0-2.55,1.206c-.405.241-.794.512-1.194.768l-.595.391-.554.449a18.954,18.954,0,0,0-3.934,4.164l-.8,1.211-.675,1.29a9.54,9.54,0,0,0-.592,1.334l-.269.681a4.392,4.392,0,0,0-.236.694l-.392,1.418c-.131.473-.173.968-.264,1.451l-.12.73c-.036.244-.033.493-.051.739l-.08,1.484a19.183,19.183,0,0,0,.931,5.9c.157.478.329.951.521,1.418s.412.932.573,1.422a9.514,9.514,0,0,1,.519,3.05v-.016c.068.542.136,1.086.207,1.653l.018.144h-.145l-42.549.029a6.167,6.167,0,0,0-4.583,2.537,5.961,5.961,0,0,0-1.066,2.477,17.338,17.338,0,0,0-.106,2.761q0,5.6,0,11.275,0,11.357,0,23.024v.14h-3.15a8.995,8.995,0,0,1-3.005-.536,14.637,14.637,0,0,1-1.4-.6c-.453-.213-.92-.4-1.392-.57A18.517,18.517,0,0,0,94.22,196a19.063,19.063,0,0,0-6.034-.141,18.348,18.348,0,0,0-14.119,10.552,18.679,18.679,0,0,0-1.126,12.131l.334,1.228c.118.407.3.793.443,1.19a17.674,17.674,0,0,0,4.156,6.286A18.206,18.206,0,0,0,96.23,231.71a23.5,23.5,0,0,0,2.274-.88,9.506,9.506,0,0,1,2.388-.609c.824-.1,1.632-.044,2.434-.058h2.544v.14q.027,16.3.054,32.064.007,3.938.013,7.837,0,1.951.006,3.891a5.014,5.014,0,0,0,4.51,5.135c1.252.051,2.55.014,3.817.026h7.6l57.515.011,26.287.008,12.45,0h4.543a14.813,14.813,0,0,0,1.482-.036,4.4,4.4,0,0,0,2.485-1.39,7.252,7.252,0,0,0,1.527-2.442,7.608,7.608,0,0,0,.394-1.381,7.863,7.863,0,0,0,.1-1.427q0-1.447,0-2.878,0-2.862,0-5.658,0-5.591,0-10.91,0-10.635.01-20.13l.087.087-4.091,0a8.716,8.716,0,0,0-3.851.723,16.846,16.846,0,0,1-7.53,1.027,17.081,17.081,0,0,1-11.965-6.4,16.886,16.886,0,0,1-2.907-5.506,17.641,17.641,0,0,1-.773-5.692,23.81,23.81,0,0,1,2.7-9.579c2.739-5.363,6.371-8.568,9.139-9.962a11.878,11.878,0,0,1,3.324-1.156,7.673,7.673,0,0,1,.887-.122c.2-.02.3-.027.3-.027" transform="translate(-32.967 -56.245)" fill="#263238"/>
        <path id="Trazado_828226" data-name="Trazado 828226" d="M462.807,225.992a18.835,18.835,0,0,0-7.675,1.629,9.911,9.911,0,0,1-2.569.756V189.734a5.15,5.15,0,0,0-5.15-5.151H407.2v4.563a8.2,8.2,0,0,0,.6,3.074,17.056,17.056,0,0,1-16.536,23.424,17.212,17.212,0,0,1-16.338-15.861,16.92,16.92,0,0,1,1.566-8.406,8.467,8.467,0,0,0,.835-3.594v-3.2l-40.736-.129a6.325,6.325,0,0,0-6.325,6.325l-.039,35.838h-2.777c-.315,0-.635-.009-.954-.032a20.811,20.811,0,1,0-1.928,34.884,7.976,7.976,0,0,1,1.686-.185h3.564v40a6.325,6.325,0,0,0,6.325,6.325H447.413a5.15,5.15,0,0,0,5.15-5.151V261.732a10.239,10.239,0,0,1,2,.73,18.88,18.88,0,0,0,11.536,1.622,19.2,19.2,0,0,0-3.288-38.092" transform="translate(-134.118 -84.306)" fill="#f5f5f5"/>
        <path id="Trazado_828227" data-name="Trazado 828227" d="M462.7,225.878s.408.014,1.209.053a9.468,9.468,0,0,1,1.488.142l.954.154a6.93,6.93,0,0,1,1.081.245l1.208.331c.418.141.845.325,1.3.5.226.091.461.176.7.279l.7.361a12.331,12.331,0,0,1,1.455.818,19.209,19.209,0,0,1,8.973,15.022c.02.465.061.934.064,1.409q-.038.713-.078,1.44c-.018.242-.014.488-.052.73s-.073.487-.11.732-.076.492-.114.74c-.058.244-.116.489-.174.736a19.177,19.177,0,0,1-2.44,5.8,19.06,19.06,0,0,1-11.013,8.255c-.6.184-1.224.279-1.842.424-.628.1-1.262.188-1.906.229a18.9,18.9,0,0,1-7.829-1.072,39.69,39.69,0,0,0-3.83-1.5l.109-.085q0,9.382.01,19.893,0,5.248,0,10.762,0,2.756,0,5.576,0,1.41,0,2.835,0,.713,0,1.43c.005.237-.014.484-.025.727a5.531,5.531,0,0,1-.123.723,5.272,5.272,0,0,1-4.038,3.93,7.273,7.273,0,0,1-1.491.11H442.41l-12.248,0-25.837.007-56.465.011-7.457,0h-3.759a9.47,9.47,0,0,1-1.906-.131,7.081,7.081,0,0,1-1.807-.666,6.53,6.53,0,0,1-2.653-2.749,6.182,6.182,0,0,1-.6-1.842,10.772,10.772,0,0,1-.1-1.927q0-3.826,0-7.689,0-15.452,0-31.454l.14.14h-2.57c-.439,0-.9-.008-1.332.008a8.047,8.047,0,0,0-1.319.174l.04-.015a20.891,20.891,0,0,1-8.467,2.675,20.916,20.916,0,0,1-21.728-14.05,21.48,21.48,0,0,1-1.146-6.63,22.377,22.377,0,0,1,1.009-6.62,20.907,20.907,0,0,1,3.044-5.924,22.484,22.484,0,0,1,2.159-2.531l1.23-1.118c.415-.365.878-.673,1.314-1.012a21.7,21.7,0,0,1,5.882-2.962,23.034,23.034,0,0,1,6.477-.965,20.86,20.86,0,0,1,12.164,4.018l-.072-.026c1.23.062,2.487.018,3.721.031l-.139.138q.014-11.484.027-22.667.007-5.589.013-11.1l0-1.375c0-.455,0-.917.039-1.386a6.474,6.474,0,0,1,5.323-5.673,17.569,17.569,0,0,1,2.721-.094l2.692.009,5.35.018,10.558.035,20.517.069h.126v.126q0,1.439,0,2.869a8.5,8.5,0,0,1-.4,2.848,10.97,10.97,0,0,1-.534,1.329c-.2.425-.367.862-.528,1.3a16.718,16.718,0,0,0,.923,13.368,17.014,17.014,0,0,0,3.18,4.32,17.637,17.637,0,0,0,4.3,3.086,16.711,16.711,0,0,0,10.086,1.639,16.945,16.945,0,0,0,8.95-4.273,16.661,16.661,0,0,0,3.092-3.794,16.135,16.135,0,0,0,1.856-4.436,16.666,16.666,0,0,0-.2-9.277c-.21-.741-.554-1.428-.764-2.183a8.278,8.278,0,0,1-.312-2.289q0-2.277,0-4.51v-.1h.1l29.426.015,6.614,0,3.191,0c.525,0,1.046-.013,1.573.037a5.416,5.416,0,0,1,1.51.41,5.242,5.242,0,0,1,3.119,4.819q0,2.913,0,5.665c-.016,14.668-.028,25.828-.036,32.944l-.04-.035c1.811-.235,3.174-1.117,4.463-1.469a18.7,18.7,0,0,1,3.219-.724,18.178,18.178,0,0,1,1.933-.154c.426-.009.634,0,.634,0s-.208.005-.633.021a19.022,19.022,0,0,0-5.137.91c-1.28.355-2.641,1.244-4.468,1.488l-.04,0v-.039c-.008-7.116-.02-18.276-.036-32.944q0-2.75,0-5.665a5.092,5.092,0,0,0-3.033-4.675,5.268,5.268,0,0,0-1.464-.4c-.505-.048-1.03-.033-1.556-.034l-3.191,0-6.614,0-29.426.014.1-.1q0,2.233,0,4.51a8.071,8.071,0,0,0,.306,2.232c.2.725.551,1.426.765,2.177a16.884,16.884,0,0,1,.21,9.393,16.379,16.379,0,0,1-1.877,4.5,16.859,16.859,0,0,1-3.13,3.844,17.168,17.168,0,0,1-9.067,4.337,16.935,16.935,0,0,1-10.227-1.655,17.857,17.857,0,0,1-4.357-3.127,17.26,17.26,0,0,1-3.227-4.378,16.966,16.966,0,0,1-.943-13.565c.162-.445.335-.888.535-1.32a10.743,10.743,0,0,0,.523-1.3,8.257,8.257,0,0,0,.391-2.772q0-1.43,0-2.869l.127.127-20.516-.061-10.558-.031-5.35-.016-2.692-.008a17.409,17.409,0,0,0-2.674.092,6.2,6.2,0,0,0-5.1,5.437c-.035.442-.042.9-.036,1.357l0,1.375q0,5.506-.01,11.1-.011,11.178-.023,22.668v.141h-.14c-1.243-.014-2.472.03-3.741-.033l-.039,0-.034-.024a20.576,20.576,0,0,0-12-3.963,22.757,22.757,0,0,0-6.39.953,21.406,21.406,0,0,0-5.8,2.923c-.431.335-.888.637-1.3,1l-1.214,1.1a22.156,22.156,0,0,0-2.13,2.5,20.638,20.638,0,0,0-3,5.843,22.082,22.082,0,0,0-1,6.531,20.783,20.783,0,0,0,5.989,14.375,20.824,20.824,0,0,0,16.576,6.028,20.6,20.6,0,0,0,8.353-2.638l.019-.011.021,0a8.225,8.225,0,0,1,1.365-.18c.462-.016.9,0,1.345-.008h2.71v.14q0,15.989,0,31.454,0,3.863,0,7.689a10.484,10.484,0,0,0,.092,1.882,5.915,5.915,0,0,0,.578,1.764,6.257,6.257,0,0,0,2.54,2.634,6.817,6.817,0,0,0,1.73.639,9.271,9.271,0,0,0,1.851.126h11.216l56.465.011,25.837.007,12.248,0h4.472a7.091,7.091,0,0,0,1.446-.1,5.056,5.056,0,0,0,3.874-3.766,5.548,5.548,0,0,0,.143-1.4q0-.717,0-1.43,0-1.425,0-2.835,0-2.82,0-5.576,0-5.512,0-10.762.006-10.5.01-19.893v-.111l.109.026a39.611,39.611,0,0,1,3.845,1.513,18.736,18.736,0,0,0,7.76,1.072c.639-.04,1.268-.128,1.89-.225.613-.143,1.234-.237,1.828-.419a19.132,19.132,0,0,0,13.372-13.933q.087-.367.174-.731.057-.369.115-.735t.111-.728c.037-.241.034-.485.052-.726q.041-.723.08-1.431c0-.472-.042-.939-.061-1.4a19.145,19.145,0,0,0-8.895-14.968A12.388,12.388,0,0,0,471.3,228l-.692-.363c-.232-.1-.467-.188-.692-.28-.454-.174-.879-.361-1.295-.5l-1.2-.336a6.978,6.978,0,0,0-1.077-.251l-.951-.159a9.567,9.567,0,0,0-1.484-.154c-.8-.047-1.208-.078-1.208-.078" transform="translate(-134.007 -84.192)" fill="#263238"/>
      </g>
    </g>
    <g id="Grupo_1079185" data-name="Grupo 1079185">
      <g id="Grupo_1079184" data-name="Grupo 1079184" clip-path="url(#clip-path)">
        <path id="Trazado_828228" data-name="Trazado 828228" d="M355.669,273.528a5.976,5.976,0,0,1,3.438-.588c1.613.353,7.468,4.171,7.468,4.171l4.717-.881,2.78,13.321-18.4,7.648Z" transform="translate(-162.561 -124.713)" fill="#ae7461"/>
        <path id="Trazado_828229" data-name="Trazado 828229" d="M329.1,278.239a27.11,27.11,0,0,0,5.743-1.3c1.527-.764,5.169-3.994,5.932-3.936s3.524.587,3.524.587l-1.116,3.348s5.521,3.348,7.166,4.581,6.813,6.755,7.048,8.106a4.177,4.177,0,0,1-.823,3.466c-.646.528-3-.529-3-.529a2.935,2.935,0,0,1-.529,2.408c-.881,1.175-2.937.764-2.937.764s-.176,1.938-1.116,2.291-3.055-.7-3.055-.7-.638,1.645-1.406,1.82-2.941-1.116-2.941-1.116-9.4-6.755-11.513-7.753a10.8,10.8,0,0,0-2.76-1.057Z" transform="translate(-149.606 -124.779)" fill="#ffbe9d"/>
        <path id="Trazado_828230" data-name="Trazado 828230" d="M360.461,315.529c-.042,0-.069-.166-.168-.413a7.376,7.376,0,0,0-.472-.938,5.991,5.991,0,0,1-.727-1.339,3.3,3.3,0,0,1,.972,1.2,3.5,3.5,0,0,1,.419,1.023c.058.286.012.471-.024.468" transform="translate(-164.122 -142.984)" fill="#eb996e"/>
        <path id="Trazado_828231" data-name="Trazado 828231" d="M366.732,312.77A14.862,14.862,0,0,1,365.548,311c-.643-.978-1.331-1.631-1.282-1.692a4.15,4.15,0,0,1,1.516,1.533,5.7,5.7,0,0,1,.951,1.933" transform="translate(-166.489 -141.367)" fill="#eb996e"/>
        <path id="Trazado_828232" data-name="Trazado 828232" d="M373.79,306.092c-.083.021-.345-1-.995-2.092s-1.4-1.828-1.338-1.891a5.764,5.764,0,0,1,2.333,3.982" transform="translate(-169.775 -138.08)" fill="#eb996e"/>
        <path id="Trazado_828233" data-name="Trazado 828233" d="M370.658,295.946a5.29,5.29,0,0,1,.141,3.171,32,32,0,0,1-.141-3.171" transform="translate(-169.395 -135.264)" fill="#eb996e"/>
        <path id="Trazado_828234" data-name="Trazado 828234" d="M345.5,280.173s1.469-4.7,2-5.286,5.44-1.881,5.44-1.881l1.523,3.936-1.09,1.153-2.349-.154a4.023,4.023,0,0,1-5.521,2.232" transform="translate(-157.913 -124.779)" fill="#ae7461"/>
        <path id="Trazado_828235" data-name="Trazado 828235" d="M328.65,303.319s-.672.517,0,1.75,2.493.352,3.08,0c0,0-.881,2.056.235,2.7a4.385,4.385,0,0,0,2.467.47,2.4,2.4,0,0,0,1.527,2.056c1.586.823,2,0,2,0s.176,2.056,2,2.232a3.174,3.174,0,0,0,2.462-.449l-.817-1.214s1.058-2.155.235-3.095a2.816,2.816,0,0,0-2.173-.822s.359-1.908-.688-2.44a1.927,1.927,0,0,0-2.777.854s-.118-2.091-1.645-2.044a3.4,3.4,0,0,0-2.349.987Z" transform="translate(-150.075 -138.634)" fill="#ae7461"/>
        <path id="Trazado_828236" data-name="Trazado 828236" d="M341.333,307.085a7.726,7.726,0,0,1-1.729,2.939,15.808,15.808,0,0,1,1.729-2.939" transform="translate(-155.214 -140.354)" fill="#6f4439"/>
        <path id="Trazado_828237" data-name="Trazado 828237" d="M347.539,310.493a6.4,6.4,0,0,1-2.025,2.961,61.579,61.579,0,0,1,2.025-2.961" transform="translate(-157.917 -141.912)" fill="#6f4439"/>
        <path id="Trazado_828238" data-name="Trazado 828238" d="M272.819,351.318h-8.91l-2.281,32.4h8.933c1.521-4.934,5.322-30.649,5.322-30.649Z" transform="translate(-119.579 -160.572)" fill="#263238"/>
        <path id="Trazado_828239" data-name="Trazado 828239" d="M184.946,351.318s-5.7,13.371-5.132,18.783,3.772,13.617,3.772,13.617h44.128a101.38,101.38,0,0,0,2.182-11.206c.95-6.686,3.516-21.194,3.516-21.194Z" transform="translate(-82.167 -160.572)" fill="#263238"/>
        <path id="Trazado_828240" data-name="Trazado 828240" d="M249.116,93.672c-1.49-1.881-3.333-3.692-3.714-6.061-.351-2.178.6-4.563-.375-6.542-1.2-2.434-4.656-2.909-6.154-5.173-.725-1.1-.9-2.485-1.613-3.587-1.219-1.879-3.724-2.483-5.96-2.355s-4.418.824-6.657.87c-3.073.065-6.184-1.088-9.167-.352-3.292.812-5.416,3.586-7.661,6.262l-2.909,3.089a12.122,12.122,0,0,1-1.906,1.4,21.9,21.9,0,0,0-3.586,2.05,5.427,5.427,0,0,0-.024,7.826,5.8,5.8,0,0,0-4.183,5.494,16.661,16.661,0,0,0,.859,3.985,5.8,5.8,0,0,1-.085,4c-.6,1.222-2.241,2-3.394,1.275a6.1,6.1,0,0,0,3.127,4.224,3.654,3.654,0,0,1-2.505.971c2.2,5.952,8.811,9.343,15.149,9.679s12.52-1.778,18.514-3.864l17.28-3.625c1.515-.271,2.226-2.064,2.277-3.6s-.262-3.157.355-4.567c.846-1.933,3.185-2.87,4.066-4.788,1-2.18-.245-4.724-1.735-6.6" transform="translate(-88.023 -31.966)" fill="#263238"/>
        <path id="Trazado_828241" data-name="Trazado 828241" d="M218.782,115.167a70.4,70.4,0,0,1-2.454-11.9,24.588,24.588,0,0,1,1.579-11.935c.243-.564,2.266-4.331,2.873-4.239.434.065-.874,3.608-.673,4a20.858,20.858,0,0,1,1.717,12.265,54.939,54.939,0,0,1-3.044,11.807" transform="translate(-98.813 -39.807)" fill="#263238"/>
        <path id="Trazado_828242" data-name="Trazado 828242" d="M220.13,95.089c.193-10.168,6.272-18.53,16.43-18.056l.937.1a18.181,18.181,0,0,1,16.272,18.524c-.217,8.812-.569,18.545-1.121,23.227-1.143,9.692-11.008,10.177-11.008,10.177-.022,0-.265,16.009-.265,16.009l-23.1-16.005Z" transform="translate(-99.764 -35.2)" fill="#ffbe9d"/>
        <path id="Trazado_828243" data-name="Trazado 828243" d="M251,168.608a23.57,23.57,0,0,1-12.242-5.067s2.274,8.2,12.05,8.349Z" transform="translate(-109.127 -74.747)" fill="#eb996e"/>
        <path id="Trazado_828244" data-name="Trazado 828244" d="M275.109,124.019a1.393,1.393,0,0,1-1.484,1.257,1.333,1.333,0,0,1-1.3-1.4,1.394,1.394,0,0,1,1.482-1.259,1.334,1.334,0,0,1,1.3,1.4" transform="translate(-124.468 -56.042)" fill="#263238"/>
        <path id="Trazado_828245" data-name="Trazado 828245" d="M274.44,116.88c-.191.162-1.159-.725-2.651-.878-1.488-.174-2.663.477-2.805.277-.071-.089.138-.4.652-.693a3.823,3.823,0,0,1,2.27-.446,3.672,3.672,0,0,1,2.086.925c.421.4.542.743.449.816" transform="translate(-122.934 -52.615)" fill="#263238"/>
        <path id="Trazado_828246" data-name="Trazado 828246" d="M250.252,124.019a1.394,1.394,0,0,1-1.484,1.257,1.332,1.332,0,0,1-1.3-1.4,1.394,1.394,0,0,1,1.483-1.259,1.334,1.334,0,0,1,1.3,1.4" transform="translate(-113.107 -56.042)" fill="#263238"/>
        <path id="Trazado_828247" data-name="Trazado 828247" d="M247.418,115.156c-.191.162-1.161-.725-2.651-.878-1.488-.174-2.663.478-2.806.278-.07-.09.137-.4.652-.693a3.822,3.822,0,0,1,2.27-.446,3.677,3.677,0,0,1,2.086.925c.42.4.542.743.45.816" transform="translate(-110.584 -51.827)" fill="#263238"/>
        <path id="Trazado_828248" data-name="Trazado 828248" d="M259.651,128.264a9.927,9.927,0,0,1,2.468-.182c.384,0,.754-.037.845-.29a1.951,1.951,0,0,0-.135-1.155q-.393-1.439-.821-3.019c-1.129-4.293-1.9-7.807-1.73-7.851s1.229,3.4,2.357,7.694q.4,1.587.772,3.031a2.214,2.214,0,0,1,.04,1.515.96.96,0,0,1-.684.491,2.59,2.59,0,0,1-.657.021,9.74,9.74,0,0,1-2.455-.255" transform="translate(-118.675 -52.912)" fill="#263238"/>
        <path id="Trazado_828249" data-name="Trazado 828249" d="M251.079,139.83c.244.011.077,1.63,1.341,2.925s3.006,1.3,2.995,1.526c.012.1-.418.274-1.148.217a4.056,4.056,0,0,1-2.51-1.183,3.533,3.533,0,0,1-1.02-2.442c.009-.683.232-1.065.342-1.044" transform="translate(-114.6 -63.91)" fill="#263238"/>
        <path id="Trazado_828250" data-name="Trazado 828250" d="M247.257,104.252c-.19.39-1.659.041-3.43.067-1.773-.009-3.238.354-3.431-.034-.085-.185.2-.541.813-.873a5.966,5.966,0,0,1,5.227-.026c.615.327.905.679.821.865" transform="translate(-109.868 -46.984)" fill="#263238"/>
        <path id="Trazado_828251" data-name="Trazado 828251" d="M274.62,107.566c-.3.311-1.288-.149-2.522-.3-1.228-.189-2.305-.012-2.509-.393-.087-.182.113-.5.6-.777a3.679,3.679,0,0,1,4.054.555c.4.394.506.758.373.911" transform="translate(-123.208 -48.323)" fill="#263238"/>
        <path id="Trazado_828252" data-name="Trazado 828252" d="M215.885,123.216c-.158-.089-6.46-2.675-6.948,3.982s6.3,5.773,6.322,5.583.625-9.565.625-9.565" transform="translate(-95.485 -56.057)" fill="#ffbe9d"/>
        <path id="Trazado_828253" data-name="Trazado 828253" d="M214.841,131.878c-.028-.023-.122.073-.325.148a1.161,1.161,0,0,1-.868-.046,2.876,2.876,0,0,1-1.139-2.671,3.842,3.842,0,0,1,.446-1.636,1.343,1.343,0,0,1,.938-.826.591.591,0,0,1,.661.368c.075.193.023.323.058.336.017.018.151-.1.118-.38a.742.742,0,0,0-.232-.437.878.878,0,0,0-.629-.216,1.633,1.633,0,0,0-1.287.943,3.947,3.947,0,0,0-.538,1.826,3.019,3.019,0,0,0,1.481,3,1.244,1.244,0,0,0,1.073-.1c.218-.15.264-.3.242-.309" transform="translate(-96.914 -57.826)" fill="#eb996e"/>
        <path id="Trazado_828254" data-name="Trazado 828254" d="M249.387,83.278c1.116-.525-1.894-4.225-4.466-5.6-3.887-2.074-9.929-3.586-13.688-2.777-4.525.974-8.361,2.948-10.852,6.849a26.256,26.256,0,0,0-3.8,13.188,7.972,7.972,0,0,0,.677,4.13c.836,1.533,2.561,2.575,2.352,4.6a2.794,2.794,0,0,0,.561,2.078c1.135,1.375,2.7.253,3.468-.924,1.632-2.515,2-5.619,2.317-8.6a19.527,19.527,0,0,0-.014-6.362c-.255-1.131-.71-2.214-.9-3.357a4.011,4.011,0,0,1,.686-3.3,4.233,4.233,0,0,1,.577-.513,6.96,6.96,0,0,1,6.976-.868c3.665,1.569,9.943,3.962,11.7,2.8a10.288,10.288,0,0,0,3.177-2.834Z" transform="translate(-98.982 -34.134)" fill="#263238"/>
        <path id="Trazado_828255" data-name="Trazado 828255" d="M236.074,73.014a14.662,14.662,0,0,1,11.213,1.342,7.627,7.627,0,0,1,3.731,4.682,4.374,4.374,0,0,1-2.517,5.031l-.136.073c-2.9.774-4.726.274-7.5-.889-2.331-.979-4.357-2.587-6.693-3.554a13.561,13.561,0,0,0-7.908-.74,22.143,22.143,0,0,1,9.806-5.945" transform="translate(-103.417 -33.126)" fill="#263238"/>
        <path id="Trazado_828256" data-name="Trazado 828256" d="M247.433,71.332a2.938,2.938,0,0,1,.678.067,10.92,10.92,0,0,1,1.793.488,11.422,11.422,0,0,1,2.452,1.265,9.5,9.5,0,0,1,2.444,2.34,9.05,9.05,0,0,1,1.344,3.106,16.268,16.268,0,0,1,.41,2.724c.055.781.057,1.415.049,1.851a2.957,2.957,0,0,1-.048.678,3.309,3.309,0,0,1-.062-.676c-.026-.435-.058-1.064-.138-1.836a18.084,18.084,0,0,0-.463-2.678,9.114,9.114,0,0,0-1.323-3.007,9.589,9.589,0,0,0-2.361-2.289,12.079,12.079,0,0,0-2.378-1.292,24.236,24.236,0,0,0-2.4-.742" transform="translate(-113.091 -32.6)" fill="#455a64"/>
        <path id="Trazado_828257" data-name="Trazado 828257" d="M258.722,70.653a2.408,2.408,0,0,1,.575.159,4.761,4.761,0,0,1,.658.246l.832.421a8.588,8.588,0,0,1,3.454,4.062,8.76,8.76,0,0,1,.707,2.885,9.951,9.951,0,0,1,.026,1.3,9.456,9.456,0,0,1-.153,1.122,5.72,5.72,0,0,1-.247.9,4.2,4.2,0,0,1-.268.65,2.4,2.4,0,0,1-.308.513,12.242,12.242,0,0,0,.626-2.1,8.207,8.207,0,0,0,.065-2.362,11.055,11.055,0,0,0-.227-1.379,10.866,10.866,0,0,0-.482-1.42,8.823,8.823,0,0,0-3.3-4l-.795-.449a6.147,6.147,0,0,0-.629-.286,2.476,2.476,0,0,1-.536-.262" transform="translate(-118.25 -32.291)" fill="#455a64"/>
        <path id="Trazado_828258" data-name="Trazado 828258" d="M224.743,184.032c0,.914,4.579,21.027,6.332,25.966s7.3,54.482,6.572,58.011-2.629,3.387-2.629,3.387-44.838-2.823-49.658-2.4-6.864.282-8.033-5.223.035-34.114-.988-41.03-1.031-10.269-1.426-20.543c-.343-8.906,1.684-16.049,5.919-21.2s13.611-10.368,13.611-10.368l3.326-4.85L221.3,178.225l.538-2.833,1.428,4.41Z" transform="translate(-79.928 -75.77)" fill="#455a64"/>
        <g id="Grupo_1079171" data-name="Grupo 1079171" transform="translate(100.222 126.631)" opacity="0.3">
          <g id="Grupo_1079170" data-name="Grupo 1079170">
            <g id="Grupo_1079169" data-name="Grupo 1079169" clip-path="url(#clip-path-5)">
              <path id="Trazado_828259" data-name="Trazado 828259" d="M239.3,276.162c-.392-1-1.663-1.25-2.73-1.369-9.971-1.106-20.35-3.6-27.633-10.5a51.722,51.722,0,0,1-7.261-9.235c-4.733-7.156-9.182-14.5-13.63-21.832l-3.454,1.306a139.6,139.6,0,0,0,7.653,26.351c3.454,8.5,6.129,16.73,14.872,19.511,5.652,1.8,16.387.42,22.3-.043a34.6,34.6,0,0,0,7.325-1.148,4.775,4.775,0,0,0,1.982-1.008,1.954,1.954,0,0,0,.577-2.037" transform="translate(-184.589 -233.23)"/>
            </g>
          </g>
        </g>
        <path id="Trazado_828260" data-name="Trazado 828260" d="M181.908,212.106c.258.459,20.213,43.079,29.122,44.831s36.6,2.162,42,1.14,10.691-1.974,10.691-1.974,3.912-9.294.341-17.212l-7.437.235s-20.68-1.115-23.6-1.914-5.445-3.538-8.074-3.392l-15.732-36.611s-10.224-9.493-17.526-6.572-11.926,17.663-9.785,21.47" transform="translate(-82.902 -86.876)" fill="#455a64"/>
        <path id="Trazado_828261" data-name="Trazado 828261" d="M320.381,299.084a3.631,3.631,0,0,1,.148-.716c.118-.454.265-1.117.42-1.939s.3-1.81.395-2.911a31.087,31.087,0,0,0,.077-3.592,29.317,29.317,0,0,0-1.012-6.442c-.223-.807-.423-1.455-.579-1.9a3.659,3.659,0,0,1-.206-.7,3.534,3.534,0,0,1,.309.663,19.408,19.408,0,0,1,.668,1.88,26.241,26.241,0,0,1,1.1,6.486,28.465,28.465,0,0,1-.1,3.627,25.363,25.363,0,0,1-.459,2.926,19.289,19.289,0,0,1-.51,1.929,3.6,3.6,0,0,1-.254.687" transform="translate(-146.085 -128.38)" fill="#263238"/>
        <path id="Trazado_828262" data-name="Trazado 828262" d="M209.662,203.211s.106.218.3.649l.84,1.913,3.182,7.33c2.745,6.358,6.692,15.5,11.515,26.675l-.109-.068a6.807,6.807,0,0,1,3.487,1.069c1.085.6,2.137,1.294,3.29,1.82a11.053,11.053,0,0,0,3.743.871c1.31.155,2.647.27,4,.388,5.427.448,11.177.8,17.165,1.136h-.011l7.437-.238.093,0,.036.084a19.147,19.147,0,0,1,1.489,8.536,27.939,27.939,0,0,1-1.825,8.788l-.027.069-.078.015-4.729.874-5.176.956a34.6,34.6,0,0,1-5.181.534c-3.441.156-6.832.17-10.163.153s-6.6-.1-9.805-.214-6.336-.279-9.389-.512c-1.527-.109-3.033-.256-4.516-.419a31.5,31.5,0,0,1-4.373-.726,7.607,7.607,0,0,1-1.893-1.093,15.974,15.974,0,0,1-1.609-1.411,34.648,34.648,0,0,1-2.761-3.114,114.312,114.312,0,0,1-8.383-12.609c-4.677-7.993-8.053-14.686-10.371-19.313-1.153-2.317-2.025-4.127-2.611-5.357s-.878-1.883-.878-1.883.089.156.244.469l.686,1.39,2.658,5.333c2.348,4.61,5.75,11.288,10.445,19.26a114.889,114.889,0,0,0,8.393,12.565,34.532,34.532,0,0,0,2.748,3.088,15.677,15.677,0,0,0,1.587,1.387,7.37,7.37,0,0,0,1.83,1.055,31.724,31.724,0,0,0,4.318.707c1.48.16,2.982.3,4.507.412q4.573.343,9.379.5c3.2.116,6.469.191,9.8.207s6.717,0,10.148-.157a34.334,34.334,0,0,0,5.143-.53l5.177-.957,4.73-.873-.105.084a27.713,27.713,0,0,0,1.806-8.69,18.892,18.892,0,0,0-1.461-8.411l.13.081-7.438.232h-.011c-5.99-.339-11.74-.7-17.171-1.156-1.358-.12-2.7-.237-4.011-.395-.658-.074-1.309-.16-1.956-.282a7.314,7.314,0,0,1-1.857-.615c-1.175-.54-2.228-1.241-3.3-1.835a6.608,6.608,0,0,0-3.364-1.047l-.079,0-.03-.071c-4.786-11.189-8.7-20.346-11.426-26.713-1.352-3.179-2.407-5.66-3.127-7.354l-.81-1.925c-.181-.435-.266-.662-.266-.662" transform="translate(-83.344 -92.879)" fill="#263238"/>
        <path id="Trazado_828263" data-name="Trazado 828263" d="M209.467,193.786c-.019.017-.278-.257-.774-.717a14.942,14.942,0,0,0-6.157-3.4,13.848,13.848,0,0,0-10.07,1.007,14.947,14.947,0,0,0-5.362,4.55c-.4.549-.6.869-.617.856a1.032,1.032,0,0,1,.121-.246c.092-.153.21-.393.406-.672a13.148,13.148,0,0,1,1.849-2.221,14.216,14.216,0,0,1,17.654-1.765,13.129,13.129,0,0,1,2.252,1.811c.248.235.41.446.531.579a1.015,1.015,0,0,1,.167.217" transform="translate(-85.234 -86.328)" fill="#263238"/>
        <path id="Trazado_828264" data-name="Trazado 828264" d="M259.593,270.7a37.414,37.414,0,0,1-2.278,6.085,37.546,37.546,0,0,1,2.278-6.085" transform="translate(-117.604 -123.724)" fill="#263238"/>
        <path id="Trazado_828265" data-name="Trazado 828265" d="M327.18,283.582c0-.016.077-.037.205.009a.773.773,0,0,1,.4.391.854.854,0,0,1-.02.846.976.976,0,0,1-.944.437.916.916,0,0,1-.711-.759.877.877,0,0,1,.271-.8.716.716,0,0,1,.535-.174c.13.012.194.047.192.064.009.054-.317-.02-.587.255a.694.694,0,0,0-.155.608.675.675,0,0,0,.5.529.744.744,0,0,0,.68-.3.671.671,0,0,0,.054-.622c-.139-.389-.433-.443-.422-.479" transform="translate(-149.044 -129.587)" fill="#263238"/>
        <path id="Trazado_828266" data-name="Trazado 828266" d="M239.582,184.268a3.72,3.72,0,0,1-.536-.277l-1.485-.849.1-.046c-.294,1.484-.578,3.668-1.076,6.285l-.033.174-.152-.1c-2.185-1.377-4.807-2.951-7.6-4.641-2.085-1.248-4.035-2.508-5.831-3.6s-3.453-2.015-4.841-2.793l-3.3-1.833-.894-.5a1.662,1.662,0,0,1-.3-.191,1.749,1.749,0,0,1,.329.141l.92.456c.794.4,1.938,1,3.34,1.755s3.062,1.675,4.879,2.745l5.843,3.579c2.8,1.689,5.412,3.277,7.587,4.677l-.185.078c.52-2.6.841-4.783,1.177-6.264l.023-.1.082.052,1.451.906a3.714,3.714,0,0,1,.5.34" transform="translate(-97.645 -80.396)" fill="#263238"/>
        <g id="Grupo_1079174" data-name="Grupo 1079174" transform="translate(119.302 97.263)" opacity="0.3">
          <g id="Grupo_1079173" data-name="Grupo 1079173">
            <g id="Grupo_1079172" data-name="Grupo 1079172" clip-path="url(#clip-path-6)">
              <path id="Trazado_828267" data-name="Trazado 828267" d="M219.731,179.14l12.281,9.151c2.7,2.013,5.469,4.061,8.678,5.091q-.089-4.268-.178-8.535l-1.257,5.991Z" transform="translate(-219.731 -179.14)"/>
            </g>
          </g>
        </g>
        <path id="Trazado_828268" data-name="Trazado 828268" d="M448.467,81.525A4.4,4.4,0,0,1,446.439,73a4.579,4.579,0,0,1,3.842-7.8,5.48,5.48,0,0,1,8.176-4.649,6.162,6.162,0,0,1,7.583-.3,4.383,4.383,0,0,1,4.011,7.36" transform="translate(-202.702 -27.011)" fill="#263238"/>
        <path id="Trazado_828269" data-name="Trazado 828269" d="M450.74,86.773A18.675,18.675,0,0,1,469,69.223l.967-.02c10.439.4,15.934,9.484,15.248,19.908l.621,37.189-25.365,9.1-.222-13.393s-10.055-1.354-10.383-11.373c-.159-4.839.326-14.829.87-23.866" transform="translate(-205.601 -31.63)" fill="#ae7461"/>
        <path id="Trazado_828270" data-name="Trazado 828270" d="M468.865,162.984a24.315,24.315,0,0,0,13.053-4.111s-2.942,7.275-12.96,6.576Z" transform="translate(-214.297 -72.614)" fill="#6f4439"/>
        <path id="Trazado_828271" data-name="Trazado 828271" d="M456.682,117.14a1.432,1.432,0,0,0,1.409,1.416,1.369,1.369,0,0,0,1.449-1.32,1.432,1.432,0,0,0-1.408-1.417,1.371,1.371,0,0,0-1.45,1.322" transform="translate(-208.729 -52.935)" fill="#263238"/>
        <path id="Trazado_828272" data-name="Trazado 828272" d="M455.63,109.2c.181.183,1.249-.641,2.789-.669,1.538-.049,2.684.72,2.847.529.081-.085-.107-.419-.606-.767a3.928,3.928,0,0,0-2.284-.654,3.775,3.775,0,0,0-2.215.766c-.466.374-.62.714-.53.8" transform="translate(-208.237 -49.196)" fill="#263238"/>
        <path id="Trazado_828273" data-name="Trazado 828273" d="M482.526,117.14a1.43,1.43,0,0,0,1.409,1.415,1.368,1.368,0,0,0,1.449-1.32,1.432,1.432,0,0,0-1.407-1.417,1.369,1.369,0,0,0-1.45,1.322" transform="translate(-220.541 -52.935)" fill="#263238"/>
        <path id="Trazado_828274" data-name="Trazado 828274" d="M483.521,109.159c.181.183,1.25-.641,2.79-.668,1.538-.049,2.684.72,2.847.528.08-.085-.105-.419-.607-.767a3.926,3.926,0,0,0-2.284-.654,3.783,3.783,0,0,0-2.216.766c-.465.374-.619.714-.53.8" transform="translate(-220.985 -49.178)" fill="#263238"/>
        <path id="Trazado_828275" data-name="Trazado 828275" d="M470.353,120.906a10.159,10.159,0,0,0-2.51-.4c-.394-.032-.768-.1-.84-.37a2,2,0,0,1,.239-1.171l1.1-3.018c1.528-4.3,2.626-7.825,2.452-7.886s-1.553,3.374-3.081,7.67q-.551,1.588-1.053,3.035a2.278,2.278,0,0,0-.173,1.548.986.986,0,0,0,.659.561,2.644,2.644,0,0,0,.669.079,10.055,10.055,0,0,0,2.536-.048" transform="translate(-213.174 -49.389)" fill="#263238"/>
        <path id="Trazado_828276" data-name="Trazado 828276" d="M482.467,99.393c.211.386,1.522-.064,3.146-.149,1.621-.122,3,.156,3.137-.253.06-.194-.236-.539-.827-.84a4.88,4.88,0,0,0-2.449-.463,4.7,4.7,0,0,0-2.338.77c-.532.372-.764.751-.669.936" transform="translate(-220.505 -44.644)" fill="#263238"/>
        <path id="Trazado_828277" data-name="Trazado 828277" d="M455.059,99.081c.332.343,1.6-.046,3.124-.094,1.526-.093,2.827.178,3.118-.194.127-.18-.084-.527-.656-.846a4.982,4.982,0,0,0-2.552-.521,4.894,4.894,0,0,0-2.477.754c-.533.37-.7.734-.556.9" transform="translate(-207.964 -44.526)" fill="#263238"/>
        <path id="Trazado_828278" data-name="Trazado 828278" d="M453.078,81.153s2.515-6.33,5.512-7.856c3.627-1.848,5.286,2.141,8.758,1.095s6.934-2.82,10.557-.193c3.966,2.875,2.178,4.984,2.51,9.426,1.345,18.007,4.742,23.038,5.5,14.528.084-.933,2.651-1.725,2.953-5.663.393-5.106.462-11.3-.749-14.893-1.021-3.029-2.8-5.1-5.966-7.359-5-3.566-11.755-3.506-16.336-2.951S452.5,73.3,453.078,81.153" transform="translate(-207.069 -30.625)" fill="#263238"/>
        <path id="Trazado_828279" data-name="Trazado 828279" d="M512.282,121.631a2.72,2.72,0,0,1,2.884-2.681c1.873.14,3.974,1.159,3.929,5.023-.079,6.855-6.946,5.362-6.955,5.165-.007-.134.084-4.639.142-7.507" transform="translate(-234.076 -54.363)" fill="#ae7461"/>
        <path id="Trazado_828280" data-name="Trazado 828280" d="M514.935,128.449c.03-.021.119.085.319.18a1.194,1.194,0,0,0,.893.029,2.954,2.954,0,0,0,1.4-2.635,3.945,3.945,0,0,0-.315-1.714,1.376,1.376,0,0,0-.887-.927.607.607,0,0,0-.709.319c-.094.191-.053.328-.089.339-.019.017-.146-.117-.087-.4a.766.766,0,0,1,.275-.426.9.9,0,0,1,.663-.167,1.678,1.678,0,0,1,1.235,1.077,4.061,4.061,0,0,1,.393,1.916,3.1,3.1,0,0,1-1.776,2.941,1.281,1.281,0,0,1-1.09-.194c-.211-.172-.245-.326-.221-.338" transform="translate(-235.351 -56.236)" fill="#6f4439"/>
        <path id="Trazado_828281" data-name="Trazado 828281" d="M488.634,82.68a6.511,6.511,0,0,1-2.874,1.4,2.236,2.236,0,0,1-2.511-1.521c-.091-.476.014-1.031-.307-1.393-.383-.432-1.071-.28-1.643-.208a4.374,4.374,0,0,1-4.6-3.043,1.837,1.837,0,0,1-2.458.282,9.837,9.837,0,0,1-1.906-1.958,2.82,2.82,0,0,0-2.376-1.128,6.755,6.755,0,0,1-1.483.358c-.9-.061-1.362-1.106-1.516-2s-.282-1.93-1.053-2.4a3.588,3.588,0,0,0-2.451-.018c-.826.139-1.9-.034-2.128-.839a1.627,1.627,0,0,1,.281-1.249,4.438,4.438,0,0,1,5.2-1.786,6.016,6.016,0,0,1,11.027-1.391,6.1,6.1,0,0,1,9.8,2.027,4.425,4.425,0,0,1,5.119,6.334,4.2,4.2,0,0,1,2.379,3.3c.055,1.418-1.3,2.859-2.674,2.513a2.451,2.451,0,0,1-4.188,2.53" transform="translate(-210.833 -28.684)" fill="#263238"/>
        <path id="Trazado_828282" data-name="Trazado 828282" d="M470.594,74.633a.357.357,0,0,0,0,.125c.011.082.018.207.051.365a4.314,4.314,0,0,0,.524,1.31,4.908,4.908,0,0,0,1.552,1.589,4.564,4.564,0,0,0,2.823.743l-.119-.149a2.48,2.48,0,0,0,.176,1.889,7.081,7.081,0,0,0,1.207,1.661,5.092,5.092,0,0,0,.782.771,2.4,2.4,0,0,0,1.094.381,2.5,2.5,0,0,0,2.189-.835l-.257-.068a5.143,5.143,0,0,0,2.252,3.511,3.75,3.75,0,0,0,2.265.691,6.751,6.751,0,0,0,2.207-.532l-.185-.077a5.4,5.4,0,0,0,1.665,2.082,2.875,2.875,0,0,0,2.4.6,3.775,3.775,0,0,0,2.846-3.013l-.154.075a3.533,3.533,0,0,0,2.361.3,3.827,3.827,0,0,0,1.627-.766,3.313,3.313,0,0,0,.749-.852,1.632,1.632,0,0,0,.167-.358,4.126,4.126,0,0,1-.986,1.12,3.8,3.8,0,0,1-1.589.693,3.38,3.38,0,0,1-2.229-.319l-.13-.07-.024.146a3.56,3.56,0,0,1-2.694,2.792,2.61,2.61,0,0,1-2.179-.571,5.152,5.152,0,0,1-1.564-1.975l-.056-.126-.129.049a6.541,6.541,0,0,1-2.111.507,3.459,3.459,0,0,1-2.091-.644,4.863,4.863,0,0,1-2.129-3.309l-.049-.323-.208.255a2.224,2.224,0,0,1-1.933.737,2.119,2.119,0,0,1-.969-.33,4.963,4.963,0,0,1-.738-.722,6.9,6.9,0,0,1-1.18-1.589,2.248,2.248,0,0,1-.183-1.709l.053-.165-.172.015a4.4,4.4,0,0,1-2.7-.67,4.882,4.882,0,0,1-1.541-1.5,5.3,5.3,0,0,1-.688-1.733" transform="translate(-215.086 -34.111)" fill="#455a64"/>
        <path id="Trazado_828283" data-name="Trazado 828283" d="M480.049,132.695c-.245.029.038,1.645-1.142,3.036s-2.93,1.517-2.9,1.745c0,.105.439.246,1.169.137a4.088,4.088,0,0,0,2.44-1.366,3.559,3.559,0,0,0,.854-2.527c-.058-.686-.309-1.054-.418-1.026" transform="translate(-217.56 -60.648)" fill="#263238"/>
        <path id="Trazado_828284" data-name="Trazado 828284" d="M380.336,264.811c.869-.348,29.563-3.8,29.563-3.8l11.642-9.857-1.092,28.533-36.638,3.532Z" transform="translate(-173.835 -114.794)" fill="#ff725e"/>
        <g id="Grupo_1079177" data-name="Grupo 1079177" transform="translate(239.334 140.724)" opacity="0.3">
          <g id="Grupo_1079176" data-name="Grupo 1079176">
            <g id="Grupo_1079175" data-name="Grupo 1079175" clip-path="url(#clip-path-7)">
              <path id="Trazado_828285" data-name="Trazado 828285" d="M444.032,259.186c-.349.174-3.225,2.73-3.225,2.73l.877,21.971Z" transform="translate(-440.808 -259.186)"/>
            </g>
          </g>
        </g>
        <path id="Trazado_828286" data-name="Trazado 828286" d="M495.988,354.356H447.522s2.566,13.675,3.517,19.977a80.7,80.7,0,0,0,2.339,10.773h43.9s3.277-7.944,3.847-13.045-5.132-17.7-5.132-17.7" transform="translate(-204.543 -161.96)" fill="#263238"/>
        <path id="Trazado_828287" data-name="Trazado 828287" d="M440.364,357.4s-1.354,15.588,0,29.1h16.788V374.046Z" transform="translate(-200.996 -163.35)" fill="#263238"/>
        <path id="Trazado_828288" data-name="Trazado 828288" d="M458.051,189.976l5.223-11.438.649-7.064s10.015-6.295,14.767-8.671a103.876,103.876,0,0,1,11.153-4.527v6.666Z" transform="translate(-209.355 -72.341)" fill="#ebebeb"/>
        <path id="Trazado_828289" data-name="Trazado 828289" d="M492.159,250.4s2.837-38.124,3.029-40.958c0,0,1.676-20.37-1.942-28.127s-11.711-14.574-11.711-14.574l-.745-4.072-15.809,9.965-7.308,6.356a73.014,73.014,0,0,0-6.9,8.58,30.273,30.273,0,0,0-5.407,11.206c-.375,1.7-4.725,21.992-4.854,36.139,0,0-.668,12.341-1.381,19.332-.882,8.652-2.227,28.377-1.935,40.063l51.228-1.565c12.66-1.931,10.433-3.19,10.433-3.19Z" transform="translate(-199.807 -74.349)" fill="#ff725e"/>
        <path id="Trazado_828290" data-name="Trazado 828290" d="M482.816,170.555s-.119.061-.355.162l-1.045.437c-.447.215-.99.5-1.628.83-.612.378-1.342.77-2.1,1.309a58.185,58.185,0,0,0-11.256,10.4l-.029.034-.042.008-4.915.9.106-.122c-.077,2.283-.158,4.68-.242,7.16l0,.056-.042.04a68.005,68.005,0,0,0-7.227,7.922,31.125,31.125,0,0,0-2.478,3.745l-.268.483-.2.5a8.813,8.813,0,0,0-.371,1.022c-.219.694-.435,1.383-.614,2.079-.758,2.768-1.385,5.471-1.971,8.045-1.166,5.151-2.138,9.809-2.943,13.722-1.608,7.827-2.514,12.685-2.514,12.685a7.913,7.913,0,0,1,.11-.891c.089-.582.238-1.437.433-2.537.4-2.2,1-5.377,1.774-9.3s1.732-8.582,2.885-13.74c.58-2.578,1.2-5.283,1.958-8.062.178-.7.395-1.392.615-2.092a8.992,8.992,0,0,1,.379-1.046l.212-.521.271-.49a31.206,31.206,0,0,1,2.5-3.781,67.531,67.531,0,0,1,7.267-7.953l-.045.1c.089-2.48.175-4.876.257-7.16l0-.1.1-.018,4.918-.887-.072.042a56.923,56.923,0,0,1,11.364-10.367c.764-.532,1.5-.916,2.123-1.287.646-.323,1.2-.6,1.649-.8l1.063-.405c.241-.09.368-.126.368-.126" transform="translate(-202.329 -77.953)" fill="#263238"/>
        <path id="Trazado_828291" data-name="Trazado 828291" d="M478.925,214.5l.615,50.872-7.747,49.547h20.423S501.5,277.3,503.658,269.4c2.1-7.676,5.244-46.317,5.523-48.215.109-.743,2.323-14.088-4.195-20.384" transform="translate(-215.636 -91.776)" fill="#ff725e"/>
        <path id="Trazado_828292" data-name="Trazado 828292" d="M504.849,200.8s.148.14.427.425a11.355,11.355,0,0,1,1.116,1.371,17.074,17.074,0,0,1,2.551,6.269,35.081,35.081,0,0,1,.388,10.734c-.307,2.084-.46,4.312-.686,6.686s-.444,4.878-.682,7.511c-.487,5.265-1.037,11.034-1.7,17.223-.341,3.094-.694,6.294-1.131,9.584a78.209,78.209,0,0,1-1.8,10.085l-11.115,44.27-.027.108h-2.313l-18.219,0h-.163l.025-.161c2.866-18.274,5.512-35.142,7.771-49.543l0,.02c-.166-15.4-.3-28.121-.4-36.992-.04-4.429-.071-7.9-.093-10.265-.006-1.177-.012-2.079-.015-2.694s.007-.922.007-.922.016.313.029.922.028,1.516.049,2.693c.036,2.368.089,5.836.155,10.264.119,8.872.29,21.587.5,36.991v.009l0,.01c-2.245,14.4-4.875,31.274-7.723,49.55l-.138-.161,18.219,0h2.2l-.137.108c3.956-15.725,7.72-30.681,11.14-44.271a78.205,78.205,0,0,0,1.8-10.049c.441-3.286.8-6.485,1.145-9.577.674-6.186,1.236-11.953,1.736-17.216q.369-3.948.7-7.509c.232-2.364.4-4.618.708-6.687a35.174,35.174,0,0,0-.339-10.694,17.219,17.219,0,0,0-2.491-6.259,12.142,12.142,0,0,0-1.09-1.384c-.271-.29-.406-.444-.406-.444" transform="translate(-215.498 -91.776)" fill="#263238"/>
        <path id="Trazado_828293" data-name="Trazado 828293" d="M496.223,325.137a8.352,8.352,0,0,1-1.578-.457c-.96-.327-2.271-.827-3.687-1.455s-2.666-1.267-3.553-1.759a8.287,8.287,0,0,1-1.4-.864,10.926,10.926,0,0,1,1.49.687c.908.445,2.165,1.052,3.575,1.678s2.7,1.151,3.642,1.526a10.808,10.808,0,0,1,1.509.644" transform="translate(-222.132 -146.532)" fill="#263238"/>
        <path id="Trazado_828294" data-name="Trazado 828294" d="M440.423,292.079a.468.468,0,0,1,0-.134c0-.1.008-.232.014-.389q.029-.548.08-1.5c.084-1.324.2-3.2.35-5.5.313-4.643.761-11.055,1.387-18.128s1.349-13.466,1.938-18.082c.3-2.308.547-4.174.736-5.461q.14-.938.222-1.482l.065-.384a.067.067,0,1,1,.029,0c-.01.1-.022.232-.037.388l-.169,1.489c-.155,1.317-.376,3.18-.646,5.471-.538,4.621-1.228,11.011-1.855,18.083s-1.1,13.479-1.469,18.117c-.184,2.3-.334,4.171-.44,5.493q-.084.945-.133,1.493c-.017.156-.03.283-.042.388a.461.461,0,0,1-.024.131" transform="translate(-201.296 -110.101)" fill="#263238"/>
        <path id="Trazado_828295" data-name="Trazado 828295" d="M512.612,182.628a18.968,18.968,0,0,0-4.741-7.541,4.527,4.527,0,0,1,1.036.837,13.564,13.564,0,0,1,3.4,5.408,4.533,4.533,0,0,1,.306,1.3" transform="translate(-232.125 -80.024)" fill="#263238"/>
        <path id="Trazado_828296" data-name="Trazado 828296" d="M447.764,304.046c.014,0,.066.125.05.37a1.477,1.477,0,0,1-.444.921,1.407,1.407,0,0,1-1.473.334,1.632,1.632,0,0,1-.757-.541,1.5,1.5,0,0,1-.306-.954,1.978,1.978,0,0,1,.393-1.184,1.219,1.219,0,0,1,.476-.376c.2-.072.337-.106.5-.158l.02-.006h.018a1.707,1.707,0,0,1,.984.283,1.268,1.268,0,0,1,.456.647,1.294,1.294,0,0,1,.084.663c-.034.007-.064-.239-.219-.611a1.179,1.179,0,0,0-.436-.533,1.553,1.553,0,0,0-.869-.2l.037-.006c-.148.052-.335.108-.469.162a.978.978,0,0,0-.365.3,1.749,1.749,0,0,0-.326,1.018,1.3,1.3,0,0,0,.868,1.248,1.208,1.208,0,0,0,1.249-.235,1.489,1.489,0,0,0,.471-.791c.048-.22.035-.351.059-.353" transform="translate(-203.313 -138.237)" fill="#263238"/>
        <path id="Trazado_828297" data-name="Trazado 828297" d="M446.365,337.176c.014,0,.066.125.05.37a1.477,1.477,0,0,1-.444.921,1.407,1.407,0,0,1-1.473.334,1.633,1.633,0,0,1-.757-.541,1.5,1.5,0,0,1-.306-.954,1.979,1.979,0,0,1,.393-1.184,1.219,1.219,0,0,1,.476-.376c.2-.072.337-.106.5-.158l.02-.006h.018a1.707,1.707,0,0,1,.984.283,1.269,1.269,0,0,1,.456.647,1.3,1.3,0,0,1,.084.664c-.034.007-.064-.239-.219-.611a1.179,1.179,0,0,0-.436-.533,1.553,1.553,0,0,0-.869-.2l.037-.006c-.148.052-.335.108-.469.162a.978.978,0,0,0-.365.3,1.749,1.749,0,0,0-.326,1.018,1.3,1.3,0,0,0,.868,1.248,1.208,1.208,0,0,0,1.249-.235,1.489,1.489,0,0,0,.471-.791c.048-.22.035-.351.059-.353" transform="translate(-202.674 -153.38)" fill="#263238"/>
        <path id="Trazado_828298" data-name="Trazado 828298" d="M517.347,193.588c-.029.048-.7-.383-1.894-.84a13.186,13.186,0,0,0-2.149-.612,13.292,13.292,0,0,0-5.434.075,13.215,13.215,0,0,0-2.131.671c-1.179.49-1.841.939-1.87.892a2.122,2.122,0,0,1,.448-.338,4.816,4.816,0,0,1,.563-.342,7.951,7.951,0,0,1,.78-.4,11.868,11.868,0,0,1,2.152-.742,12.6,12.6,0,0,1,5.544-.077,11.907,11.907,0,0,1,2.172.682,8.1,8.1,0,0,1,.79.374,4.686,4.686,0,0,1,.572.327,2.137,2.137,0,0,1,.458.325" transform="translate(-230.295 -87.576)" fill="#263238"/>
        <g id="Grupo_1079180" data-name="Grupo 1079180" transform="translate(242.318 101.676)" opacity="0.3">
          <g id="Grupo_1079179" data-name="Grupo 1079179">
            <g id="Grupo_1079178" data-name="Grupo 1079178" clip-path="url(#clip-path-8)">
              <path id="Trazado_828299" data-name="Trazado 828299" d="M446.3,239.188c2.212-3.219,3.024-6.255,4.206-9.978,1.756-5.533,2.246-11.784,5-16.892,1.623-3.008,3.532-6.095,6.354-8.024,2.753-1.882,3.16-4.274,3.106-10.743a7.576,7.576,0,0,0,4.295-1.763,10.951,10.951,0,0,0,2.413-4.522c-1.38,1.5-3.681,3.991-3.681,3.991s-4.99.927-4.917.9c-.123,2.489-.127,4.671-.25,7.16,0,0-9.573,10.157-10.318,12.2s-6.211,27.676-6.211,27.676" transform="translate(-446.303 -187.267)"/>
            </g>
          </g>
        </g>
        <g id="Grupo_1079183" data-name="Grupo 1079183" transform="translate(277.86 135.093)" opacity="0.3">
          <g id="Grupo_1079182" data-name="Grupo 1079182">
            <g id="Grupo_1079181" data-name="Grupo 1079181" clip-path="url(#clip-path-9)">
              <path id="Trazado_828300" data-name="Trazado 828300" d="M511.765,330.732c12.132-22.963,15.9-53.155,15.18-81.916,0,0-3.482,34.957-4.656,40.958-1.166,5.958-10.524,40.958-10.524,40.958" transform="translate(-511.765 -248.816)"/>
            </g>
          </g>
        </g>
        <path id="Trazado_828301" data-name="Trazado 828301" d="M493.94,163.747a1.526,1.526,0,0,1-.272.207l-.808.549-3,1.973-9.959,6.418-4.3,2.74.009-.007-1.373,1.062a10.991,10.991,0,0,0-1.226,1.047c-.752.726-1.421,1.433-2.024,2.074l-.109.116-.062-.143-1.567-3.621-.413-.991a1.724,1.724,0,0,1-.125-.355,1.845,1.845,0,0,1,.18.33l.463.969,1.652,3.584-.171-.028c.593-.653,1.255-1.369,2.006-2.109a11.164,11.164,0,0,1,1.242-1.079l1.361-1.067,0,0,0,0,4.291-2.752,10-6.349,3.05-1.9.837-.5a1.558,1.558,0,0,1,.3-.159" transform="translate(-214.227 -74.841)" fill="#263238"/>
      </g>
    </g>
    <g id="Grupo_1079208" data-name="Grupo 1079208">
      <g id="Grupo_1079207" data-name="Grupo 1079207" clip-path="url(#clip-path)">
        <path id="Trazado_828302" data-name="Trazado 828302" d="M36.47,105.108c-.065.036-2.373-3.967-5.154-8.942s-4.985-9.037-4.92-9.074,2.372,3.967,5.155,8.942,4.984,9.037,4.919,9.073" transform="translate(-12.064 -39.806)" fill="#263238"/>
        <path id="Trazado_828303" data-name="Trazado 828303" d="M58.657,88.471c.074,0-.035,3.07-.244,6.848s-.439,6.838-.513,6.833.035-3.069.244-6.848.439-6.837.513-6.833" transform="translate(-26.453 -40.436)" fill="#263238"/>
        <path id="Trazado_828304" data-name="Trazado 828304" d="M24.969,124.807c-.024.071-2.626-.745-5.811-1.822s-5.749-2.007-5.725-2.077,2.625.745,5.812,1.822,5.749,2.007,5.725,2.077" transform="translate(-6.139 -55.26)" fill="#263238"/>
        <path id="Trazado_828305" data-name="Trazado 828305" d="M71.612,131.361A21.653,21.653,0,1,0,51.189,161.7l2.192,5,17.383-7.615s-1.126-2.854-2.184-5.378a21.647,21.647,0,0,0,3.032-22.345" transform="translate(-13.767 -54.112)" fill="#ff725e"/>
        <path id="Trazado_828306" data-name="Trazado 828306" d="M81.966,175.955s-.049-.077-.14-.231l-.4-.686c-.346-.6-.85-1.5-1.483-2.665-1.259-2.329-3.031-5.731-4.973-10.051q-.731-1.618-1.485-3.407l-.757-1.826a6.792,6.792,0,0,1-.589-1.977,2.3,2.3,0,0,1,.155-1.062,1.4,1.4,0,0,1,.754-.792,1.31,1.31,0,0,1,1.1.123,2.051,2.051,0,0,1,.786.808,2.525,2.525,0,0,1-.037,2.238,3.81,3.81,0,0,1-1.6,1.685,4.114,4.114,0,0,1-2.329.505,4.34,4.34,0,0,1-2.267-.9,5.177,5.177,0,0,1-1.562-1.944,3.779,3.779,0,0,1-.356-1.229,1.791,1.791,0,0,1,.284-1.266,1.151,1.151,0,0,1,.551-.39,1.479,1.479,0,0,1,.671-.048,2.074,2.074,0,0,1,1.166.617,4.515,4.515,0,0,1,.766,1.078,13.055,13.055,0,0,1,.555,1.2,8.967,8.967,0,0,1,.655,2.589,4.931,4.931,0,0,1-.448,2.661,3.934,3.934,0,0,1-.81,1.107,3.065,3.065,0,0,1-1.178.693,2.838,2.838,0,0,1-1.357.047,3.648,3.648,0,0,1-1.24-.522,8.186,8.186,0,0,1-1.91-1.812c-.273-.339-.529-.689-.774-1.043a7.537,7.537,0,0,1-.677-1.1,2.125,2.125,0,0,1-.211-1.28,1.382,1.382,0,0,1,.26-.609.932.932,0,0,1,.57-.348,1.114,1.114,0,0,1,.654.086,2.207,2.207,0,0,1,.544.342,4.313,4.313,0,0,1,.816.949,7.247,7.247,0,0,1,1.336,4.575,4.634,4.634,0,0,1-.783,2.193,3.472,3.472,0,0,1-1.79,1.378,3,3,0,0,1-2.182-.181,3.409,3.409,0,0,1-1.572-1.433,2.793,2.793,0,0,1-.339-1A1.572,1.572,0,0,1,60.527,162a.8.8,0,0,1,.944-.327,1.9,1.9,0,0,1,.8.6,7.906,7.906,0,0,1,.964,1.646l.813,1.625c2.113,4.238,3.759,7.7,4.853,10.109.548,1.205.956,2.149,1.23,2.79l.3.732c.067.166.1.252.1.252s-.041-.083-.113-.246l-.318-.726c-.282-.637-.7-1.576-1.256-2.777-1.111-2.4-2.772-5.855-4.9-10.085l-.818-1.623a7.771,7.771,0,0,0-.952-1.619,1.776,1.776,0,0,0-.747-.559.682.682,0,0,0-.8.279,1.453,1.453,0,0,0-.162.94,2.682,2.682,0,0,0,.326.949,3.282,3.282,0,0,0,1.515,1.375,2.862,2.862,0,0,0,2.084.171,3.332,3.332,0,0,0,1.715-1.326,4.493,4.493,0,0,0,.756-2.126,7.107,7.107,0,0,0-1.317-4.478,4.144,4.144,0,0,0-.788-.917,1.371,1.371,0,0,0-1.073-.395.941.941,0,0,0-.707.835,1.969,1.969,0,0,0,.2,1.189,7.363,7.363,0,0,0,.663,1.08c.244.352.5.7.768,1.034a8.032,8.032,0,0,0,1.872,1.778,3.489,3.489,0,0,0,1.187.5,2.67,2.67,0,0,0,1.281-.045,3.241,3.241,0,0,0,1.892-1.718,4.768,4.768,0,0,0,.433-2.579,8.8,8.8,0,0,0-.644-2.543,6.97,6.97,0,0,0-1.286-2.226,1.919,1.919,0,0,0-1.079-.575,1.109,1.109,0,0,0-1.078.38,1.641,1.641,0,0,0-.254,1.158,3.646,3.646,0,0,0,.342,1.18A5.041,5.041,0,0,0,68.8,157.6a4.2,4.2,0,0,0,2.188.875,3.971,3.971,0,0,0,2.247-.485,3.666,3.666,0,0,0,1.542-1.619,2.388,2.388,0,0,0,.044-2.113,1.919,1.919,0,0,0-.731-.755,1.177,1.177,0,0,0-.988-.116,1.264,1.264,0,0,0-.68.718,2.155,2.155,0,0,0-.147,1,6.687,6.687,0,0,0,.575,1.939l.753,1.826q.748,1.788,1.475,3.409C77,166.6,78.757,170.007,80,172.345c.624,1.167,1.119,2.068,1.457,2.678l.384.694c.086.156.126.239.126.239" transform="translate(-27.573 -69.847)" fill="#fff"/>
        <path id="Trazado_828307" data-name="Trazado 828307" d="M54.988,183.9a1.7,1.7,0,0,1-.265.024c-.174.007-.432.033-.764.031a19.036,19.036,0,0,1-2.807-.166,20.382,20.382,0,0,1-8.63-3.24,20.435,20.435,0,0,1-3.844-3.364,20.184,20.184,0,0,1-2.436-3.386,19,19,0,0,1-1.222-2.533c-.128-.307-.2-.554-.261-.718a1.734,1.734,0,0,1-.079-.255,1.653,1.653,0,0,1,.108.244c.069.16.153.4.288.706a21.143,21.143,0,0,0,1.261,2.5,20.526,20.526,0,0,0,14.828,9.935,21.093,21.093,0,0,0,2.792.215c.331.011.588-.005.763,0a1.714,1.714,0,0,1,.267.007" transform="translate(-15.851 -77.832)" fill="#263238"/>
        <path id="Trazado_828308" data-name="Trazado 828308" d="M33.168,162.646a8.062,8.062,0,0,1,.381,2.208,8.061,8.061,0,0,1-.381-2.208" transform="translate(-15.153 -74.338)" fill="#263238"/>
        <path id="Trazado_828309" data-name="Trazado 828309" d="M94.226,139.017a1.309,1.309,0,0,1-.06-.223l-.141-.643q-.045-.212-.1-.465c-.041-.168-.1-.349-.153-.544-.117-.389-.222-.839-.412-1.314l-.274-.753c-.1-.261-.227-.521-.346-.8-.227-.556-.543-1.114-.859-1.71a20.809,20.809,0,0,0-5.78-6.516c-.554-.384-1.071-.764-1.6-1.057-.259-.151-.5-.311-.749-.439l-.715-.362c-.448-.245-.884-.4-1.255-.565-.188-.078-.359-.156-.522-.217l-.45-.153-.622-.217a1.226,1.226,0,0,1-.214-.086,1.3,1.3,0,0,1,.223.056l.632.189.457.14c.165.057.339.132.529.206a13.514,13.514,0,0,1,1.272.547l.723.356c.25.125.5.284.758.433.532.289,1.054.668,1.615,1.052a20.425,20.425,0,0,1,5.82,6.561c.314.6.628,1.166.852,1.728.117.279.245.541.34.8l.267.76a13.516,13.516,0,0,1,.391,1.328c.05.2.1.379.141.549s.059.327.085.47l.112.65a1.225,1.225,0,0,1,.028.228" transform="translate(-36.556 -56.198)" fill="#263238"/>
        <g id="Grupo_1079188" data-name="Grupo 1079188" transform="translate(19.376 71.248)" opacity="0.2">
          <g id="Grupo_1079187" data-name="Grupo 1079187">
            <g id="Grupo_1079186" data-name="Grupo 1079186" clip-path="url(#clip-path-11)">
              <path id="Trazado_828310" data-name="Trazado 828310" d="M47.31,132.007a3.855,3.855,0,0,0-3.134-.734,6.815,6.815,0,0,0-4.464,2.583,16.409,16.409,0,0,0-3.871,13.327c.21,1.848,1.137,4.644,2.635,5.889a3.519,3.519,0,0,0,2.688.84c2.524-.332,3.348-3.287,3.131-5.669-.2-2.221-.929-4.51-.214-6.622.589-1.74,2.052-3.017,3.066-4.548s1.487-3.792.164-5.066" transform="translate(-35.686 -131.226)" fill="#fff"/>
            </g>
          </g>
        </g>
        <g id="Grupo_1079191" data-name="Grupo 1079191" transform="translate(33.549 67.184)" opacity="0.2">
          <g id="Grupo_1079190" data-name="Grupo 1079190">
            <g id="Grupo_1079189" data-name="Grupo 1079189" clip-path="url(#clip-path-12)">
              <path id="Trazado_828311" data-name="Trazado 828311" d="M66.855,124.327a3.439,3.439,0,0,0-4.212.283,3.527,3.527,0,0,0-.779,2.981,3.233,3.233,0,0,0,2.641,2.464,3.053,3.053,0,0,0,3.13-1.744c.509-1.177.252-3.222-.78-3.984" transform="translate(-61.791 -123.74)" fill="#fff"/>
            </g>
          </g>
        </g>
        <path id="Trazado_828312" data-name="Trazado 828312" d="M90.025,219.167a5.91,5.91,0,0,1,1.576.509,1.272,1.272,0,0,0,1.116.035l3.5-1.535a1.288,1.288,0,0,0,.753-.947,2.388,2.388,0,0,1,.787-1.455Z" transform="translate(-41.146 -98.621)" fill="#263238"/>
        <path id="Trazado_828313" data-name="Trazado 828313" d="M75.179,201.59c.031.071,3.24,5.177,4.467,7.129a2.81,2.81,0,0,0,2.314,1.344,2.593,2.593,0,0,0,1.091-.219l7.648-3.358s2-.877,1.756-2.662c-.256-1.878-2.234-8.838-2.234-8.838Z" transform="translate(-34.361 -89.119)" fill="#e0e0e0"/>
        <path id="Trazado_828314" data-name="Trazado 828314" d="M95.6,208.821l-13.3,5.9a.414.414,0,0,1-.546-.211l-.018-.042a.413.413,0,0,1,.211-.546l13.3-5.9a.414.414,0,0,1,.546.211l.018.041a.414.414,0,0,1-.211.546" transform="translate(-37.34 -95.062)" fill="#e0e0e0"/>
        <path id="Trazado_828315" data-name="Trazado 828315" d="M95.543,208.8a.465.465,0,0,0,.2-.233.421.421,0,0,0-.04-.363.39.39,0,0,0-.422-.2c-.728.308-1.792.805-3.1,1.388l-10.268,4.573a.344.344,0,0,0-.186.425.508.508,0,0,0,.084.155.345.345,0,0,0,.3.117,2.007,2.007,0,0,0,.353-.14l1.444-.639,2.73-1.206,4.626-2.033,3.124-1.36.852-.363.223-.091a.374.374,0,0,1,.078-.027.344.344,0,0,1-.072.04l-.217.1-.842.388-3.106,1.4-4.613,2.061L83.966,214l-1.443.641-.184.081a.7.7,0,0,1-.21.07.486.486,0,0,1-.425-.164.649.649,0,0,1-.11-.2.483.483,0,0,1,.262-.6L92.142,209.3c1.322-.573,2.375-1.051,3.134-1.351a.437.437,0,0,1,.47.239.453.453,0,0,1,.028.391.365.365,0,0,1-.231.223" transform="translate(-37.282 -95.039)" fill="#263238"/>
        <path id="Trazado_828316" data-name="Trazado 828316" d="M94.255,205.423l-13.867,6.146a.414.414,0,0,1-.546-.211l-.018-.041a.414.414,0,0,1,.211-.546L93.9,204.625a.414.414,0,0,1,.546.211l.018.041a.414.414,0,0,1-.211.546" transform="translate(-36.467 -93.509)" fill="#e0e0e0"/>
        <path id="Trazado_828317" data-name="Trazado 828317" d="M94.2,205.4a.457.457,0,0,0,.208-.244.436.436,0,0,0-.056-.375.393.393,0,0,0-.454-.169l-3.225,1.45L80,210.813a.344.344,0,0,0-.2.271.333.333,0,0,0,.022.172.417.417,0,0,0,.094.156.344.344,0,0,0,.321.09c.109-.035.25-.107.372-.159l1.5-.663,2.836-1.253,4.805-2.113L93,205.9l.884-.378.232-.1a.043.043,0,1,1,.006.014l-.226.108-.874.4-3.227,1.454L85,209.547l-2.833,1.26-1.5.665c-.133.055-.239.116-.4.167a.485.485,0,0,1-.454-.127.56.56,0,0,1-.125-.2.476.476,0,0,1-.032-.243.485.485,0,0,1,.285-.383l10.683-4.712c1.37-.6,2.473-1.084,3.248-1.412a.44.44,0,0,1,.507.2.467.467,0,0,1,.046.406.365.365,0,0,1-.235.235" transform="translate(-36.408 -93.487)" fill="#263238"/>
        <path id="Trazado_828318" data-name="Trazado 828318" d="M92.893,202.108l-14.227,6.305a.414.414,0,0,1-.546-.211l-.018-.041a.415.415,0,0,1,.211-.546l14.226-6.305a.414.414,0,0,1,.546.211l.018.041a.414.414,0,0,1-.211.546" transform="translate(-35.68 -91.994)" fill="#e0e0e0"/>
        <path id="Trazado_828319" data-name="Trazado 828319" d="M92.833,202.086a.451.451,0,0,0,.211-.251.442.442,0,0,0-.067-.382.39.39,0,0,0-.471-.145l-3.3,1.487-10.92,4.863a.344.344,0,0,0-.2.28.352.352,0,0,0,.028.176.394.394,0,0,0,.1.155.346.346,0,0,0,.334.072c.118-.048.258-.113.385-.168l1.535-.679,2.9-1.282,4.92-2.164,3.322-1.447.906-.387.237-.1a.411.411,0,0,1,.083-.029.4.4,0,0,1-.077.042l-.231.11-.9.412-3.3,1.488-4.908,2.191-2.9,1.29-1.534.681c-.134.058-.252.115-.4.174a.487.487,0,0,1-.471-.1.535.535,0,0,1-.136-.2.484.484,0,0,1,.246-.642L89.162,202.7l3.323-1.447a.437.437,0,0,1,.527.174.473.473,0,0,1,.059.413.366.366,0,0,1-.238.243" transform="translate(-35.621 -91.972)" fill="#263238"/>
        <path id="Trazado_828320" data-name="Trazado 828320" d="M91.548,198.7l-14.8,6.561a.413.413,0,0,1-.546-.211l-.018-.041a.414.414,0,0,1,.211-.546l14.8-6.561a.414.414,0,0,1,.546.211l.018.041a.414.414,0,0,1-.211.546" transform="translate(-34.802 -90.438)" fill="#e0e0e0"/>
        <path id="Trazado_828321" data-name="Trazado 828321" d="M91.489,198.683a.449.449,0,0,0,.214-.263.455.455,0,0,0-.086-.392.4.4,0,0,0-.5-.1l-3.427,1.544L76.361,204.51a.346.346,0,0,0-.2.293.429.429,0,0,0,.151.335.347.347,0,0,0,.352.04l.406-.18,1.593-.7,3.011-1.33,5.1-2.245,3.445-1.5.939-.4.246-.1a.461.461,0,0,1,.086-.03.437.437,0,0,1-.08.043l-.24.114-.929.426-3.427,1.543-5.091,2.273-3.008,1.338-1.592.707-.406.18a.489.489,0,0,1-.495-.057.5.5,0,0,1-.155-.2.508.508,0,0,1-.051-.251.488.488,0,0,1,.288-.414l11.345-5.005,3.445-1.5a.442.442,0,0,1,.557.13.484.484,0,0,1,.08.425.414.414,0,0,1-.16.216.281.281,0,0,1-.083.04" transform="translate(-34.743 -90.417)" fill="#263238"/>
        <path id="Trazado_828322" data-name="Trazado 828322" d="M67.816,192.953c.062.142,1.846,3.349,2.762,4.995a2.26,2.26,0,0,0,1.613,1.131l1,.162,14.789-6.492.551-.836a2.261,2.261,0,0,0,.252-1.976l-1.839-5.382Z" transform="translate(-30.996 -84.352)" fill="#ff725e"/>
        <g id="Grupo_1079194" data-name="Grupo 1079194" transform="translate(45.437 113.949)" opacity="0.3">
          <g id="Grupo_1079193" data-name="Grupo 1079193">
            <g id="Grupo_1079192" data-name="Grupo 1079192" clip-path="url(#clip-path-13)">
              <path id="Trazado_828323" data-name="Trazado 828323" d="M83.687,215.327a21.045,21.045,0,0,0,4.558-1.592c1.26-.56,2.513-1.069,3.871-1.7,1-.461,1.9-.918,2.879-1.4a3.011,3.011,0,0,0,1.053-.763Z" transform="translate(-83.687 -209.873)"/>
            </g>
          </g>
        </g>
        <g id="Grupo_1079197" data-name="Grupo 1079197" transform="translate(44.152 112.03)" opacity="0.3">
          <g id="Grupo_1079196" data-name="Grupo 1079196">
            <g id="Grupo_1079195" data-name="Grupo 1079195" clip-path="url(#clip-path-14)">
              <path id="Trazado_828324" data-name="Trazado 828324" d="M81.32,212.217a24.422,24.422,0,0,0,4.9-1.743c1.358-.6,2.708-1.154,4.173-1.831,1.073-.5,2.047-.984,3.107-1.5a3.464,3.464,0,0,0,1.145-.8Z" transform="translate(-81.32 -206.338)"/>
            </g>
          </g>
        </g>
        <g id="Grupo_1079200" data-name="Grupo 1079200" transform="translate(43.402 110.322)" opacity="0.3">
          <g id="Grupo_1079199" data-name="Grupo 1079199">
            <g id="Grupo_1079198" data-name="Grupo 1079198" clip-path="url(#clip-path-14)">
              <path id="Trazado_828325" data-name="Trazado 828325" d="M79.939,209.071a24.442,24.442,0,0,0,4.9-1.743c1.358-.6,2.708-1.154,4.173-1.831,1.073-.5,2.047-.984,3.108-1.5a3.445,3.445,0,0,0,1.144-.8Z" transform="translate(-79.939 -203.193)"/>
            </g>
          </g>
        </g>
        <g id="Grupo_1079203" data-name="Grupo 1079203" transform="translate(42.652 108.615)" opacity="0.3">
          <g id="Grupo_1079202" data-name="Grupo 1079202">
            <g id="Grupo_1079201" data-name="Grupo 1079201" clip-path="url(#clip-path-14)">
              <path id="Trazado_828326" data-name="Trazado 828326" d="M78.558,205.925a24.441,24.441,0,0,0,4.9-1.743c1.358-.6,2.708-1.154,4.173-1.831,1.073-.5,2.047-.984,3.108-1.5a3.445,3.445,0,0,0,1.144-.8Z" transform="translate(-78.558 -200.048)"/>
            </g>
          </g>
        </g>
        <g id="Grupo_1079206" data-name="Grupo 1079206" transform="translate(36.82 100.203)" opacity="0.3">
          <g id="Grupo_1079205" data-name="Grupo 1079205">
            <g id="Grupo_1079204" data-name="Grupo 1079204" clip-path="url(#clip-path-17)">
              <path id="Trazado_828327" data-name="Trazado 828327" d="M67.816,192.953c.062.142,1.846,3.349,2.762,4.995a2.26,2.26,0,0,0,1.613,1.131l1,.162,14.789-6.492.551-.836a2.261,2.261,0,0,0,.252-1.976l-1.839-5.382Z" transform="translate(-67.816 -184.555)"/>
            </g>
          </g>
        </g>
        <path id="Trazado_828328" data-name="Trazado 828328" d="M91.472,196.072c.016.036-3.927,1.8-8.805,3.943s-8.847,3.849-8.863,3.814,3.926-1.8,8.806-3.943,8.847-3.849,8.862-3.814" transform="translate(-33.733 -89.615)" fill="#263238"/>
        <path id="Trazado_828329" data-name="Trazado 828329" d="M86.649,184.458c.019.039-4.255,1.974-9.544,4.32s-9.595,4.219-9.614,4.18,4.255-1.973,9.546-4.321,9.594-4.219,9.613-4.18" transform="translate(-30.847 -84.308)" fill="#263238"/>
      </g>
    </g>
    <g id="Grupo_1079210" data-name="Grupo 1079210">
      <g id="Grupo_1079209" data-name="Grupo 1079209" clip-path="url(#clip-path)">
        <path id="Trazado_828330" data-name="Trazado 828330" d="M385.858,85.709l-6.783-.792a21.806,21.806,0,1,1,4.4-6.459l.008-.01Z" transform="translate(-156.222 -21.871)" fill="#fff"/>
        <path id="Trazado_828331" data-name="Trazado 828331" d="M385.754,85.6s-.061-.166-.168-.48l-.472-1.391-1.8-5.368.117.021-.008.01a.068.068,0,0,1-.1.011.069.069,0,0,1-.02-.081,21.769,21.769,0,0,0,1.762-10.58,21.363,21.363,0,0,0-.542-3.314,24.45,24.45,0,0,0-1.157-3.4,21.621,21.621,0,0,0-41.316,5.68,22.027,22.027,0,0,0,1,9.9,21.3,21.3,0,0,0,4.924,7.974,21.7,21.7,0,0,0,14.881,6.562l.928.012a5.872,5.872,0,0,0,.913-.029l1.777-.157a30.048,30.048,0,0,0,3.3-.724,21.691,21.691,0,0,0,9.149-5.485.066.066,0,0,1,.054-.019l5.019.626,1.3.167c.295.039.452.063.452.063s-.139-.01-.427-.04l-1.289-.136-5.074-.552.053-.018a21.685,21.685,0,0,1-9.183,5.587,30.1,30.1,0,0,1-3.327.746l-1.794.166a5.922,5.922,0,0,1-.922.033l-.939-.008a21.912,21.912,0,0,1-15.074-6.6,21.544,21.544,0,0,1-5-8.071,22.292,22.292,0,0,1-1.024-10.036,21.785,21.785,0,0,1,3.858-9.832,9.733,9.733,0,0,1,.8-1.054l.842-1.019.929-.932a9.052,9.052,0,0,1,.96-.888l1.006-.829c.327-.285.709-.495,1.059-.745.362-.235.706-.494,1.079-.705l1.13-.606A21.6,21.6,0,0,1,363,47.615a21.981,21.981,0,0,1,16.257,6.744,21.759,21.759,0,0,1,4.329,6.579,24.636,24.636,0,0,1,1.156,3.438,21.438,21.438,0,0,1,.532,3.348,21.77,21.77,0,0,1-1.842,10.653l-.115-.071.008-.009a.067.067,0,0,1,.1-.011.07.07,0,0,1,.023.032l1.739,5.441c.19.6.336,1.061.437,1.382s.139.458.139.458" transform="translate(-156.118 -21.761)" fill="#263238"/>
        <path id="Trazado_828332" data-name="Trazado 828332" d="M363.438,82.259l2.605-2.881,5.528,4.436,8.209-9.428L382.465,77l-11.02,12.124Z" transform="translate(-166.111 -33.999)" fill="#263238"/>
        <path id="Trazado_828333" data-name="Trazado 828333" d="M311.64,94l4.3-.537a.056.056,0,0,1,.046.016,18.606,18.606,0,0,0,7.845,4.7,25.786,25.786,0,0,0,2.829.621l1.523.134a5,5,0,0,0,.782.025l.8-.01a18.541,18.541,0,0,0,8.284-2.241c-.169-.066-.339-.127-.507-.2a21.6,21.6,0,0,1-7.133-4.834,21.116,21.116,0,0,1-4.9-7.912,21.852,21.852,0,0,1-1-9.837,21.353,21.353,0,0,1,3.781-9.637,9.592,9.592,0,0,1,.788-1.034l.825-1,.355-.356c-.2-.01-.407-.024-.61-.026a18.545,18.545,0,0,0-17.46,11.25,20.977,20.977,0,0,0-.992,2.913,18.312,18.312,0,0,0-.464,2.841,18.662,18.662,0,0,0,1.511,9.071.061.061,0,0,1-.016.069L310.683,92.6l-.4,1.193c-.092.269-.144.411-.144.411s.135-.021.388-.054L311.64,94" transform="translate(-141.749 -28.283)" fill="#f5f5f5"/>
        <path id="Trazado_828334" data-name="Trazado 828334" d="M311.6,93.889s-.126.027-.377.065l-1.124.163-.051.008.016-.05,2.046-6.184.022-.033c-.011,0,0,.035-.012,0l-.037-.089-.076-.178-.149-.364c-.1-.245-.191-.5-.284-.758-.183-.52-.346-1.069-.492-1.643a18.417,18.417,0,0,1-.545-3.752,17.761,17.761,0,0,1,.884-6.445,15.846,15.846,0,0,1,.87-2.223,18.565,18.565,0,0,1,6.791-7.785,18.755,18.755,0,0,1,11.135-2.962l.309.017-.218.219-.355.356.009-.009a21.933,21.933,0,0,0-5.155,10.273,21.3,21.3,0,0,0,13.245,23.975l.264.1-.25.119a23.061,23.061,0,0,1-2.936,1.277,19.029,19.029,0,0,1-2.953.73,19.691,19.691,0,0,1-5.564.077H326.6c-.625-.127-1.243-.23-1.841-.364a15.74,15.74,0,0,1-1.716-.5,18.946,18.946,0,0,1-2.976-1.34,18.59,18.59,0,0,1-4.138-3.154c-.008-.052-.122,0-.2,0l-.254.03-.486.057-.879.1-1.376.159-.846.092c-.191.019-.289.022-.289.022s.1-.022.286-.05l.843-.119,1.374-.185.877-.116.485-.064.254-.033.13-.017a.3.3,0,0,1,.082-.005.11.11,0,0,1,.057.03l.024.024A18.681,18.681,0,0,0,326.644,98.6h-.011a23.3,23.3,0,0,0,2.676.147,18.181,18.181,0,0,0,2.834-.246,18.853,18.853,0,0,0,2.914-.731,22.941,22.941,0,0,0,2.894-1.27l.014.22A21.524,21.524,0,0,1,324.53,72.459a22.173,22.173,0,0,1,5.219-10.4l.007-.008,0,0,.355-.356.091.236A18.463,18.463,0,0,0,312.5,72.5a15.629,15.629,0,0,0-.867,2.191,17.591,17.591,0,0,0-.9,6.373,18.293,18.293,0,0,0,.517,3.719q.211.856.476,1.633c.091.258.179.511.276.755l.145.362.074.177.037.088c.018.016.035.133-.029.17l.022-.033c-.959,2.811-1.673,4.919-2.122,6.161l-.035-.043,1.129-.132c.253-.027.382-.033.382-.033" transform="translate(-141.71 -28.168)" fill="#263238"/>
      </g>
    </g>
    <g id="Grupo_1079212" data-name="Grupo 1079212">
      <g id="Grupo_1079211" data-name="Grupo 1079211" clip-path="url(#clip-path)">
        <path id="Trazado_828335" data-name="Trazado 828335" d="M641.232,91.93h-6.755a2.416,2.416,0,0,1-2.416-2.416V52.586a2.416,2.416,0,0,1,2.416-2.416h6.755a2.416,2.416,0,0,1,2.416,2.416V89.514a2.416,2.416,0,0,1-2.416,2.416" transform="translate(-288.887 -22.93)" fill="#455a64"/>
        <path id="Trazado_828336" data-name="Trazado 828336" d="M574.288,114.39H567.7a2.5,2.5,0,0,1-2.5-2.5V97.932a2.5,2.5,0,0,1,2.5-2.5h6.589a2.5,2.5,0,0,1,2.5,2.5v13.959a2.5,2.5,0,0,1-2.5,2.5" transform="translate(-258.328 -43.618)" fill="#455a64"/>
        <path id="Trazado_828337" data-name="Trazado 828337" d="M607.1,105.712H600.85a2.67,2.67,0,0,1-2.671-2.671V79.116a2.67,2.67,0,0,1,2.671-2.67H607.1a2.671,2.671,0,0,1,2.671,2.67v23.925a2.671,2.671,0,0,1-2.671,2.671" transform="translate(-273.401 -34.94)" fill="#455a64"/>
        <path id="Trazado_828338" data-name="Trazado 828338" d="M606.717,24.754a2.052,2.052,0,0,1-.278.368l-.86,1.015-3.27,3.749L590.945,42.7l-.127.142-.161-.1-7.11-4.644.3-.045-.271.32C577.721,45.236,572.42,51.456,568.542,56l-.1.117-.121-.091-5.654-4.2-1.523-1.16a3.7,3.7,0,0,1-.513-.43,3.6,3.6,0,0,1,.567.355l1.575,1.09,5.74,4.079-.22.027,14.934-17.727.271-.32.132-.156.17.112,7.1,4.658-.287.038L602.1,29.7l3.367-3.662.915-.966a2.146,2.146,0,0,1,.336-.317" transform="translate(-256.24 -11.314)" fill="#263238"/>
        <path id="Trazado_828339" data-name="Trazado 828339" d="M638.219,33.08a15.437,15.437,0,0,1-.161-2.664c-.042-1.649-.068-3.931-.069-6.463l.268.228-.23.038c-2.551.421-4.865.776-6.543,1.011a16.122,16.122,0,0,1-2.732.286,16.157,16.157,0,0,1,2.678-.608c1.665-.317,3.97-.724,6.521-1.145l.23-.038.269-.044v.271c0,2.532-.028,4.814-.07,6.463a15.569,15.569,0,0,1-.161,2.664" transform="translate(-287.375 -10.824)" fill="#263238"/>
      </g>
    </g>
  </g>
</svg>
