<svg id="Grupo_1079044" data-name="Grupo 1079044" xmlns="http://www.w3.org/2000/svg" xmlns:xlink="http://www.w3.org/1999/xlink" width="284.145" height="193.844" viewBox="0 0 284.145 193.844">
  <defs>
    <clipPath id="clip-path">
      <rect id="Rectángulo_37237" data-name="Rectángulo 37237" width="284.145" height="193.844" fill="none"/>
    </clipPath>
    <clipPath id="clip-path-3">
      <rect id="Rectángulo_37234" data-name="Rectángulo 37234" width="14.336" height="9.903" fill="none"/>
    </clipPath>
    <clipPath id="clip-path-4">
      <rect id="Rectángulo_37235" data-name="Rectángulo 37235" width="9.556" height="10.037" fill="none"/>
    </clipPath>
  </defs>
  <g id="Grupo_110722" data-name="Grupo 110722" clip-path="url(#clip-path)">
    <g id="Grupo_110721" data-name="Grupo 110721">
      <g id="Grupo_110720" data-name="Grupo 110720" clip-path="url(#clip-path)">
        <path id="Trazado_167068" data-name="Trazado 167068" d="M91.2,425.771a36.232,36.232,0,0,1,4.191-25.47c5.46,11.088-4.191,25.47-4.191,25.47" transform="translate(-52.393 -231.927)" fill="#e0e0e0"/>
        <path id="Trazado_167069" data-name="Trazado 167069" d="M90.329,359.692a23.717,23.717,0,0,1,15.2,5.941c-7.218,1.927-15.2-5.941-15.2-5.941" transform="translate(-52.335 -208.398)" fill="#e0e0e0"/>
        <path id="Trazado_167070" data-name="Trazado 167070" d="M129.437,376.295c2.122,10.556-3.444,19.28-3.444,19.28-3.92-8.062,3.444-19.28,3.444-19.28" transform="translate(-72.332 -218.018)" fill="#e0e0e0"/>
        <path id="Trazado_167071" data-name="Trazado 167071" d="M80.3,382.214c-.116-.163,6.146-4.8,13.983-10.354s14.287-9.927,14.4-9.764-6.144,4.8-13.984,10.354-14.286,9.926-14.4,9.763" transform="translate(-46.524 -209.789)" fill="#e0e0e0"/>
        <path id="Trazado_167072" data-name="Trazado 167072" d="M39.968,422.964s5.466-15.741,20.209-17.815a30.007,30.007,0,0,1-20.209,17.815" transform="translate(-23.157 -234.735)" fill="#e0e0e0"/>
        <path id="Trazado_167073" data-name="Trazado 167073" d="M43.769,384.46s13.772-9.38,26.846-2.257a30.007,30.007,0,0,1-26.846,2.257" transform="translate(-25.359 -219.893)" fill="#e0e0e0"/>
        <path id="Trazado_167074" data-name="Trazado 167074" d="M530.059,6.728a36.234,36.234,0,0,1-5.071,25.31c-5.072-11.271,5.071-25.31,5.071-25.31" transform="translate(-303.345 -3.898)" fill="#e0e0e0"/>
        <path id="Trazado_167075" data-name="Trazado 167075" d="M516.78,98.68A23.716,23.716,0,0,1,501.8,92.216c7.28-1.676,14.983,6.464,14.983,6.464" transform="translate(-290.731 -53.296)" fill="#e0e0e0"/>
        <path id="Trazado_167076" data-name="Trazado 167076" d="M492.134,63.352c-1.755-10.624,4.11-19.15,4.11-19.15,3.638,8.193-4.11,19.15-4.11,19.15" transform="translate(-284.943 -25.61)" fill="#e0e0e0"/>
        <path id="Trazado_167077" data-name="Trazado 167077" d="M509.141,58.028c.11.167-6.308,4.583-14.334,9.863s-14.622,9.426-14.733,9.259,6.307-4.582,14.335-9.864,14.621-9.425,14.731-9.258" transform="translate(-278.145 -33.618)" fill="#e0e0e0"/>
        <path id="Trazado_167078" data-name="Trazado 167078" d="M562.122,21.884s-6.009,15.542-20.814,17.1a30.007,30.007,0,0,1,20.814-17.1" transform="translate(-313.623 -12.679)" fill="#e0e0e0"/>
        <path id="Trazado_167079" data-name="Trazado 167079" d="M547.98,74.459s-14.089,8.9-26.908,1.325a30.007,30.007,0,0,1,26.908-1.325" transform="translate(-301.899 -41.662)" fill="#e0e0e0"/>
        <path id="Trazado_167080" data-name="Trazado 167080" d="M18.889,178.556a22.508,22.508,0,0,1,5.492-2.387l1.131-5.437,9.185-.161,1.322,5.393a22.5,22.5,0,0,1,5.573,2.193l4.642-3.043,6.609,6.381-2.877,4.745a22.491,22.491,0,0,1,2.387,5.494l5.436,1.131.162,9.185-5.393,1.322a22.5,22.5,0,0,1-2.192,5.573l3.042,4.642-6.38,6.609-4.746-2.877a22.47,22.47,0,0,1-5.493,2.387l-1.131,5.437-9.185.161-1.322-5.393a22.527,22.527,0,0,1-5.573-2.192l-4.642,3.043-6.609-6.381,2.877-4.746a22.494,22.494,0,0,1-2.387-5.493L3.38,203.009l-.161-9.185L8.612,192.5a22.522,22.522,0,0,1,2.192-5.573l-3.042-4.642,6.38-6.609Zm4.9,12.236a9.855,9.855,0,1,0,13.934-.245,9.855,9.855,0,0,0-13.934.245" transform="translate(-1.865 -98.825)" fill="#ebebeb"/>
        <path id="Trazado_167081" data-name="Trazado 167081" d="M627.392,231.287a9.45,9.45,0,0,1,2.311-1l.476-2.287,3.864-.068.556,2.269a9.446,9.446,0,0,1,2.345.922l1.952-1.28,2.78,2.684-1.211,2a9.451,9.451,0,0,1,1,2.311l2.287.476.068,3.864-2.268.556a9.474,9.474,0,0,1-.922,2.344l1.28,1.953-2.684,2.78-2-1.211a9.466,9.466,0,0,1-2.31,1l-.476,2.287-3.864.068-.556-2.269a9.465,9.465,0,0,1-2.345-.922l-1.953,1.28-2.78-2.684,1.211-2a9.458,9.458,0,0,1-1-2.311l-2.287-.476-.068-3.864,2.269-.556a9.467,9.467,0,0,1,.922-2.344l-1.28-1.953,2.684-2.78Zm2.06,5.147a4.146,4.146,0,1,0,5.862-.1,4.145,4.145,0,0,0-5.862.1" transform="translate(-359.679 -132.057)" fill="#ebebeb"/>
        <path id="Trazado_167082" data-name="Trazado 167082" d="M277.233,195.889a18.291,18.291,0,0,1,4.464-1.94l.919-4.419,7.465-.131,1.074,4.383a18.29,18.29,0,0,1,4.53,1.782l3.773-2.473,5.371,5.186-2.338,3.857a18.294,18.294,0,0,1,1.94,4.465l4.418.919.131,7.465-4.383,1.075a18.281,18.281,0,0,1-1.782,4.529l2.472,3.773-5.185,5.372-3.857-2.339a18.279,18.279,0,0,1-4.464,1.939l-.919,4.419-7.465.131-1.074-4.383a18.311,18.311,0,0,1-4.529-1.782l-3.773,2.473L268.649,225l2.339-3.857a18.274,18.274,0,0,1-1.94-4.464l-4.418-.919L264.5,208.3l4.383-1.075a18.3,18.3,0,0,1,1.782-4.529l-2.473-3.773,5.185-5.371Zm3.979,9.945a8.009,8.009,0,1,0,11.325-.2,8.009,8.009,0,0,0-11.325.2" transform="translate(-153.245 -109.735)" fill="#ebebeb"/>
        <path id="Trazado_167083" data-name="Trazado 167083" d="M179.877,349.962a18.3,18.3,0,0,1,4.464-1.94l.92-4.419,7.465-.131,1.075,4.383a18.3,18.3,0,0,1,4.529,1.782l3.773-2.473,5.371,5.186-2.338,3.857a18.3,18.3,0,0,1,1.939,4.465l4.418.919.131,7.465-4.383,1.075a18.28,18.28,0,0,1-1.782,4.529l2.472,3.773-5.185,5.372-3.857-2.339a18.276,18.276,0,0,1-4.464,1.939l-.92,4.419-7.465.131-1.074-4.383a18.309,18.309,0,0,1-4.529-1.782l-3.773,2.473-5.371-5.186,2.339-3.857a18.275,18.275,0,0,1-1.94-4.464l-4.418-.919-.131-7.465,4.383-1.075a18.3,18.3,0,0,1,1.782-4.529l-2.473-3.773,5.186-5.371Zm3.979,9.945a8.009,8.009,0,1,0,11.325-.2,8.009,8.009,0,0,0-11.325.2" transform="translate(-96.838 -199.002)" fill="#ebebeb"/>
        <path id="Trazado_167084" data-name="Trazado 167084" d="M549.1,294.311a20.175,20.175,0,0,1,4.925-2.141l1.015-4.876,8.237-.144,1.186,4.836a20.148,20.148,0,0,1,5,1.966l4.163-2.729,5.927,5.722-2.58,4.256a20.169,20.169,0,0,1,2.14,4.926l4.875,1.015.145,8.237-4.836,1.186a20.176,20.176,0,0,1-1.966,5l2.728,4.163-5.722,5.927-4.256-2.581a20.159,20.159,0,0,1-4.926,2.141l-1.015,4.875-8.237.145-1.186-4.837a20.2,20.2,0,0,1-5-1.966l-4.163,2.729-5.927-5.723,2.58-4.255a20.166,20.166,0,0,1-2.141-4.926l-4.875-1.014L535.045,308l4.837-1.186a20.2,20.2,0,0,1,1.966-5l-2.729-4.163,5.722-5.927Zm4.391,10.972a8.838,8.838,0,1,0,12.5-.219,8.837,8.837,0,0,0-12.5.219" transform="translate(-309.995 -166.369)" fill="#ebebeb"/>
        <path id="Trazado_167085" data-name="Trazado 167085" d="M609.082,103.661a7.206,7.206,0,0,0,2.785-7.425,6.773,6.773,0,1,0-13.225,2.8,7.2,7.2,0,0,0,5.634,5.666c-9.834,3.733-6.979,14.682-6.979,14.682l24.062-5.1S619.489,103,609.082,103.661" transform="translate(-345.839 -52.402)" fill="#ebebeb"/>
        <path id="Trazado_167086" data-name="Trazado 167086" d="M608.934,103.557l.328-.018a8.046,8.046,0,0,1,.925-.022,10.268,10.268,0,0,1,8.029,3.943,15.917,15.917,0,0,1,3.078,6.709l.016.079-.082.017-24.057,5.12-.1.022-.023-.1a15.9,15.9,0,0,1-.387-3.492,14.7,14.7,0,0,1,.415-3.6,10.661,10.661,0,0,1,2.58-4.834,11.152,11.152,0,0,1,2.08-1.709,14.025,14.025,0,0,1,2.359-1.171l.018.205a7.011,7.011,0,0,1-3.628-1.91,7.59,7.59,0,0,1-1.982-3.425,7.492,7.492,0,0,1,1.627-6.99,6.5,6.5,0,0,1,6.087-1.986,7.116,7.116,0,0,1,4.563,3.238,7.336,7.336,0,0,1,.949,2.284,7.531,7.531,0,0,1,.2,2.186,7.281,7.281,0,0,1-.994,3.323,6.758,6.758,0,0,1-1.4,1.677,3.845,3.845,0,0,1-.44.343l-.162.115.143-.117c.1-.081.257-.2.435-.369a6.946,6.946,0,0,0,1.356-1.686,7.255,7.255,0,0,0,.951-3.291,7.463,7.463,0,0,0-.213-2.151,7.238,7.238,0,0,0-.946-2.239,6.981,6.981,0,0,0-4.479-3.15,6.326,6.326,0,0,0-5.917,1.951,7.3,7.3,0,0,0-1.568,6.812,7.38,7.38,0,0,0,1.932,3.328,6.8,6.8,0,0,0,3.52,1.849l.361.066-.343.139a13.884,13.884,0,0,0-2.319,1.154,10.92,10.92,0,0,0-2.037,1.675,10.449,10.449,0,0,0-2.525,4.738,14.457,14.457,0,0,0-.409,3.549,15.707,15.707,0,0,0,.379,3.438l-.128-.078,24.067-5.073-.066.1a15.841,15.841,0,0,0-3.017-6.653,10.35,10.35,0,0,0-4.442-3.3,10.707,10.707,0,0,0-3.484-.682c-.4-.032-.736,0-.943-.011h-.31" transform="translate(-345.691 -52.298)" fill="#263238"/>
        <path id="Trazado_167087" data-name="Trazado 167087" d="M644.653,126.909l-4.726,1.024-1.024-4.727-4.029.873,1.024,4.727-4.727,1.024.873,4.029,4.727-1.024,1.024,4.727,4.029-.873-1.024-4.726,4.727-1.024Z" transform="translate(-365.688 -71.384)" fill="#ff725e"/>
        <path id="Trazado_167088" data-name="Trazado 167088" d="M18.966,332.735l-4.051,1.209-1.209-4.051-3.453,1.031,1.209,4.051L7.41,336.183l1.031,3.453,4.051-1.209,1.209,4.051,3.453-1.031L15.946,337.4,20,336.188Z" transform="translate(-4.293 -191.133)" fill="#ff725e"/>
        <path id="Trazado_167089" data-name="Trazado 167089" d="M13.9,84.253a5.365,5.365,0,0,0,4.645-3.643,5.21,5.21,0,0,0-2.97-6.732,5.2,5.2,0,0,0-6.523,3.394,5.356,5.356,0,0,0,1.39,5.783C2.748,81.624.326,89.69.326,89.69L17.6,95.762s3.179-7.9-3.694-11.509" transform="translate(-0.189 -42.648)" fill="#ebebeb"/>
        <path id="Trazado_167090" data-name="Trazado 167090" d="M13.715,84.135l.219.115a5.609,5.609,0,0,1,.6.339,7.641,7.641,0,0,1,3.593,5.617,11.864,11.864,0,0,1-.636,5.468l-.027.076-.079-.028L.1,89.674,0,89.639l.033-.1A11.782,11.782,0,0,1,2.8,85.028a7.966,7.966,0,0,1,3.524-2.082,8.328,8.328,0,0,1,1.99-.282,10.5,10.5,0,0,1,1.959.169l-.091.185a5.241,5.241,0,0,1-1.575-2.632,5.669,5.669,0,0,1,.066-2.958A5.6,5.6,0,0,1,12.434,73.6a4.857,4.857,0,0,1,4.66,1.1,5.317,5.317,0,0,1,1.652,3.84,5.743,5.743,0,0,1-1.005,3.295,5.429,5.429,0,0,1-1.925,1.729,5.008,5.008,0,0,1-1.54.523,4.467,4.467,0,0,1-.561.053c-.012,0,.189-.019.554-.09a5.2,5.2,0,0,0,1.511-.551,5.4,5.4,0,0,0,1.871-1.724,5.65,5.65,0,0,0,.956-3.232,5.178,5.178,0,0,0-1.626-3.721,4.688,4.688,0,0,0-4.5-1.042,5.5,5.5,0,0,0-3.673,6.559,5.038,5.038,0,0,0,1.515,2.524l.275.244-.365-.059a10.286,10.286,0,0,0-1.916-.163,8.1,8.1,0,0,0-1.937.276,7.756,7.756,0,0,0-3.427,2.028A11.6,11.6,0,0,0,.241,89.6L.173,89.47l17.264,6.095-.106.048a11.786,11.786,0,0,0,.659-5.387,7.7,7.7,0,0,0-1.541-3.81A8,8,0,0,0,14.5,84.631c-.244-.177-.469-.29-.6-.376l-.194-.12" transform="translate(0 -42.53)" fill="#263238"/>
        <path id="Trazado_167091" data-name="Trazado 167091" d="M424.791,241.633h-74.62a4.242,4.242,0,0,0-4.242,4.242v27.509h-1.863a5.732,5.732,0,0,1-2.493-.6,11.452,11.452,0,1,0-.345,20.8,5.72,5.72,0,0,1,2.31-.51h2.39V319.9a4.242,4.242,0,0,0,4.242,4.242h74.62a3.454,3.454,0,0,0,3.455-3.455v-75.6a3.454,3.454,0,0,0-3.455-3.455" transform="translate(-188.394 -139.997)" fill="#e0e0e0"/>
        <path id="Trazado_167092" data-name="Trazado 167092" d="M424.646,241.511s.078,0,.233.006a1.778,1.778,0,0,1,.288.029,2.47,2.47,0,0,1,.4.08,3.438,3.438,0,0,1,2.1,1.624,3.6,3.6,0,0,1,.461,1.933q0,1.105.005,2.415c0,1.746.006,3.759.01,6.026.008,9.072.02,22.193.035,38.407,0,8.108.008,16.989.013,26.522q0,.894,0,1.8a4.671,4.671,0,0,1-.069.917,3.6,3.6,0,0,1-.3.878,3.539,3.539,0,0,1-3,1.963l-7.509.011-15.665,0-33.637.006-17.792,0a4.507,4.507,0,0,1-2.233-.51,4.367,4.367,0,0,1-2.306-3.8q0-1.142,0-2.288v-9.221q0-7.767,0-15.357l.109.109h-1.818c-.3,0-.607-.008-.9.011a5.321,5.321,0,0,0-.877.132,5.841,5.841,0,0,0-.846.268c-.27.111-.555.239-.838.343a11.46,11.46,0,0,1-3.545.718,6.9,6.9,0,0,1-.9-.011c-.3-.019-.6-.026-.9-.055a12.729,12.729,0,0,1-3.455-.952,11.61,11.61,0,0,1-5.207-4.7,12.6,12.6,0,0,1-1.286-3.265c-.069-.284-.1-.576-.151-.863l-.07-.432c-.013-.145-.017-.291-.026-.436l-.044-.872.048-.87a11.448,11.448,0,0,1,2.491-6.329,11.551,11.551,0,0,1,12.1-3.9,11.5,11.5,0,0,1,1.55.554,7.979,7.979,0,0,0,1.5.586,5.58,5.58,0,0,0,1.577.173h1.609l-.1.1c0-8,0-15.7.007-23.047q0-1.378,0-2.739,0-.681,0-1.357a5.4,5.4,0,0,1,.12-1.36,4.323,4.323,0,0,1,1.4-2.292,4.267,4.267,0,0,1,2.443-1.025c3.508-.036,6.9-.007,10.2-.014l34.4.024,22.4.029,5.95.016,1.532.008c.344,0,.519.008.519.008s-.175.005-.519.008l-1.532.008-5.95.016-22.4.029-34.4.023c-3.3.01-6.707-.015-10.184.023a4.084,4.084,0,0,0-2.34.985,4.144,4.144,0,0,0-1.336,2.2,5.216,5.216,0,0,0-.114,1.319q0,.676,0,1.357,0,1.361,0,2.739c0,7.349,0,15.048.008,23.047v.1h-1.71a5.791,5.791,0,0,1-1.628-.179,8.2,8.2,0,0,1-1.527-.6,11.3,11.3,0,0,0-7.982-.424,11.426,11.426,0,0,0-5.42,3.718,11.241,11.241,0,0,0-2.443,6.213l-.048.854.043.856c.009.143.012.286.026.429l.069.424c.051.282.081.568.148.847a12.38,12.38,0,0,0,1.263,3.2,11.39,11.39,0,0,0,5.111,4.609,12.518,12.518,0,0,0,3.391.934c.294.028.59.035.885.054a6.791,6.791,0,0,0,.887.011,11.249,11.249,0,0,0,3.478-.7c.282-.1.547-.223.834-.342a6.1,6.1,0,0,1,.877-.278,5.6,5.6,0,0,1,.912-.137c.311-.02.612-.009.914-.012h1.928V317.53q0,1.145,0,2.286a4.15,4.15,0,0,0,2.19,3.611,4.283,4.283,0,0,0,2.13.485l17.792,0,33.637.006,15.665,0,7.5-.006a3.353,3.353,0,0,0,2.846-1.858,3.4,3.4,0,0,0,.288-.831,4.437,4.437,0,0,0,.066-.881q0-.9,0-1.8c0-9.533.009-18.414.013-26.522.015-16.214.027-29.335.035-38.407,0-2.267.007-4.281.01-6.026q0-1.309.005-2.415a3.558,3.558,0,0,0-.444-1.911,3.428,3.428,0,0,0-2.072-1.624,2.493,2.493,0,0,0-.392-.085,1.848,1.848,0,0,0-.286-.034c-.154-.01-.233-.017-.233-.017" transform="translate(-188.249 -139.875)" fill="#263238"/>
        <path id="Trazado_167093" data-name="Trazado 167093" d="M464.428,310.83a96.932,96.932,0,0,0-1.346-15.171c-.978-4.989-2.2-9.851-5.345-13.86l-29.4,1.562c-1.134,4.5-2.278,9.117-1.807,13.735.458,4.482,2.426,8.813,2.108,13.307-.224,3.175-1.575,6.144-2.571,9.169s-1.635,6.384-.451,9.341a3.946,3.946,0,0,0,1.407,1.91,5.23,5.23,0,0,0,2.87.559q17.628.025,35.242-.8-.356-9.873-.711-19.747" transform="translate(-246.225 -163.269)" fill="#263238"/>
        <path id="Trazado_167094" data-name="Trazado 167094" d="M493.907,311.8a22.139,22.139,0,0,1-7.129,16.763l-3.186-9.175" transform="translate(-280.184 -180.651)" fill="#263238"/>
        <path id="Trazado_167095" data-name="Trazado 167095" d="M443.929,266.467a13.611,13.611,0,0,1,9.1-1.091,28.758,28.758,0,0,1,8.6,3.535,14.038,14.038,0,0,1,4.112,3.188c1.986,2.484,3.949,6.563,4.141,9.731.155,2.561-.832,8.972-1.921,11.3-1,2.135-5.676,3.759-7.985,4.287l-21.183-24.487a10.67,10.67,0,0,1,5.137-6.461" transform="translate(-254.227 -153.57)" fill="#263238"/>
        <path id="Trazado_167096" data-name="Trazado 167096" d="M434.011,275.018l5.078-.9c-2.776,6.571-3.528,21.6-5.116,28.547-1.872-2.7-6.218-10.922-5.986-14.193s-.009-14.01,6.025-13.452" transform="translate(-247.962 -158.817)" fill="#263238"/>
        <path id="Trazado_167097" data-name="Trazado 167097" d="M461.908,287.177a8.637,8.637,0,0,0-6.474-7.9l-11.744-2.978c-5.054-.543-8.429,5.637-8.76,10.679-.368,5.6-.594,11.513.064,15.694,1.324,8.409,7.8,9.493,7.8,9.493s0,1.941.005,4.4l.132.309a9.062,9.062,0,0,0,16.394.536l2.61-30.1c0-.148-.018.106-.031-.123" transform="translate(-251.784 -160.06)" fill="#ffc09d"/>
        <path id="Trazado_167098" data-name="Trazado 167098" d="M439.273,315.377a1.081,1.081,0,0,0,1.043,1.09,1.035,1.035,0,0,0,1.12-.97,1.08,1.08,0,0,0-1.042-1.09,1.035,1.035,0,0,0-1.121.97" transform="translate(-254.506 -182.16)" fill="#263238"/>
        <path id="Trazado_167099" data-name="Trazado 167099" d="M438.414,308c.134.141.957-.461,2.124-.456,1.166-.011,2.021.588,2.148.446.062-.063-.074-.317-.447-.588a2.992,2.992,0,0,0-1.719-.531,2.868,2.868,0,0,0-1.691.539c-.36.273-.482.527-.416.59" transform="translate(-253.999 -177.797)" fill="#263238"/>
        <path id="Trazado_167100" data-name="Trazado 167100" d="M464.531,315.027a1.081,1.081,0,0,0,1.044,1.09,1.035,1.035,0,0,0,1.12-.969,1.081,1.081,0,0,0-1.043-1.09,1.036,1.036,0,0,0-1.121.97" transform="translate(-269.14 -181.958)" fill="#263238"/>
        <path id="Trazado_167101" data-name="Trazado 167101" d="M464.764,308c.135.141.959-.462,2.125-.456,1.166-.011,2.021.588,2.148.446.062-.063-.073-.317-.447-.587a2.986,2.986,0,0,0-1.719-.531,2.873,2.873,0,0,0-1.691.538c-.358.273-.481.527-.416.59" transform="translate(-269.265 -177.797)" fill="#263238"/>
        <path id="Trazado_167102" data-name="Trazado 167102" d="M452.02,317.906a7.808,7.808,0,0,0-1.895-.344c-.3-.031-.58-.091-.629-.293a1.5,1.5,0,0,1,.2-.877l.886-2.254a38.668,38.668,0,0,0,1.992-5.9,38.717,38.717,0,0,0-2.465,5.722q-.444,1.187-.849,2.267a1.7,1.7,0,0,0-.157,1.162.744.744,0,0,0,.489.434,2.038,2.038,0,0,0,.506.071,7.616,7.616,0,0,0,1.921.007" transform="translate(-260.17 -178.59)" fill="#263238"/>
        <path id="Trazado_167103" data-name="Trazado 167103" d="M465.34,354.5s-2.752,5.773-11.214,4.968l0-1.977A21.41,21.41,0,0,0,465.34,354.5" transform="translate(-263.11 -205.389)" fill="#ff9b6c"/>
        <path id="Trazado_167104" data-name="Trazado 167104" d="M465.65,298.4c.114.315,1.28.169,2.648.336,1.373.14,2.476.54,2.658.258.082-.135-.11-.432-.556-.739a4.666,4.666,0,0,0-4.043-.453c-.5.2-.757.448-.707.6" transform="translate(-269.785 -172.387)" fill="#263238"/>
        <path id="Trazado_167105" data-name="Trazado 167105" d="M439.3,299.473c.2.264,1.009-.008,1.976-.018.966-.045,1.785.181,1.974-.094.083-.134-.045-.4-.4-.648a2.875,2.875,0,0,0-3.183.091c-.342.27-.455.541-.365.67" transform="translate(-254.506 -172.815)" fill="#263238"/>
        <path id="Trazado_167106" data-name="Trazado 167106" d="M440.671,274.811a3.721,3.721,0,0,1,3.285-2.093,7.254,7.254,0,0,1,3.9,1.13c5.036,2.894,7.625,9.883,12.6,12.877,1.224.736,2.817.062,3.858,1.037a3.556,3.556,0,0,1,1.14,3.836,11.745,11.745,0,0,0,1.727-2.9,3.949,3.949,0,0,0-.14-3.276c-.431-.742-1.191-1.308-1.4-2.138a11.183,11.183,0,0,1,.074-2.247,4.881,4.881,0,0,0-.774-2.144,21.877,21.877,0,0,0-8.084-8.454,14.378,14.378,0,0,0-7.422-1.908,10.982,10.982,0,0,0-7.061,2.786c-1.113,1.031-2.284,2.1-1.706,3.5" transform="translate(-255.228 -155.575)" fill="#263238"/>
        <path id="Trazado_167107" data-name="Trazado 167107" d="M496.806,316.12c.089-.241,4.5-1.823,4.559,2.837.057,4.528-4.539,3.636-4.549,3.506s-.01-6.343-.01-6.343" transform="translate(-287.84 -182.892)" fill="#ffc09d"/>
        <path id="Trazado_167108" data-name="Trazado 167108" d="M500.127,322.77c.02-.014.08.055.215.114a.8.8,0,0,0,.594.007,1.95,1.95,0,0,0,.892-1.759,2.6,2.6,0,0,0-.233-1.127.915.915,0,0,0-.6-.6.4.4,0,0,0-.466.221c-.06.127-.03.217-.054.225s-.1-.075-.064-.263a.5.5,0,0,1,.177-.285.6.6,0,0,1,.437-.119,1.113,1.113,0,0,1,.836.694,2.663,2.663,0,0,1,.287,1.26,2.047,2.047,0,0,1-1.139,1.966.853.853,0,0,1-.727-.113c-.142-.111-.167-.212-.151-.22" transform="translate(-289.762 -184.927)" fill="#ff9b6c"/>
        <path id="Trazado_167109" data-name="Trazado 167109" d="M467.355,290.193a1.774,1.774,0,0,1-.275-.152c-.174-.11-.443-.257-.764-.483a15.626,15.626,0,0,1-2.459-2.225,43.626,43.626,0,0,1-3.007-3.883,35.666,35.666,0,0,0-3.759-4.653,14.3,14.3,0,0,0-2.425-1.9,11.843,11.843,0,0,0-2.62-1.182,13.04,13.04,0,0,0-4.825-.589,12.505,12.505,0,0,0-3.232.63c-.374.113-.651.238-.844.311a1.839,1.839,0,0,1-.3.1,1.786,1.786,0,0,1,.281-.143,7.793,7.793,0,0,1,.834-.349,11.872,11.872,0,0,1,3.249-.7,12.957,12.957,0,0,1,4.893.553,11.908,11.908,0,0,1,2.668,1.19,14.294,14.294,0,0,1,2.466,1.931,34.677,34.677,0,0,1,3.77,4.689,46.531,46.531,0,0,0,2.961,3.9,16.847,16.847,0,0,0,2.4,2.257c.311.234.572.391.738.512a1.8,1.8,0,0,1,.253.188" transform="translate(-256.576 -159.292)" fill="#455a64"/>
        <path id="Trazado_167110" data-name="Trazado 167110" d="M490.215,305.4a6.936,6.936,0,0,1-.446,3.641,2.422,2.422,0,0,1-3.106,1.232,3.413,3.413,0,0,1-1.3-2.624c-.432-2.884-.63-5.8-1.087-8.679Z" transform="translate(-280.582 -173.218)" fill="#263238"/>
        <path id="Trazado_167111" data-name="Trazado 167111" d="M443.547,278.065c.005.026.4-.076,1.132-.1a7.837,7.837,0,0,1,3.015.547,9.988,9.988,0,0,1,1.889.967,20.4,20.4,0,0,1,1.948,1.479,23.317,23.317,0,0,1,3.815,4.087c.578.808,1.091,1.638,1.646,2.407a11.542,11.542,0,0,0,1.826,2.041,20.328,20.328,0,0,0,3.85,2.56c1.165.612,2.14,1.041,2.811,1.338l.779.33a1.284,1.284,0,0,0,.279.1,1.3,1.3,0,0,0-.258-.146l-.758-.373c-.659-.323-1.62-.776-2.768-1.406a21.017,21.017,0,0,1-3.779-2.578,11.485,11.485,0,0,1-1.778-2.01c-.545-.76-1.057-1.592-1.642-2.409a22.874,22.874,0,0,0-3.87-4.118A20,20,0,0,0,449.7,279.3a9.925,9.925,0,0,0-1.94-.958,7.562,7.562,0,0,0-3.082-.478,5.33,5.33,0,0,0-.843.117,1.284,1.284,0,0,0-.285.081" transform="translate(-256.982 -160.983)" fill="#455a64"/>
        <path id="Trazado_167112" data-name="Trazado 167112" d="M530.01,401.2l13.52,14.4c2.231,2.376,3.85,4.547,7.012,5.376,2.215.58,5.691.278,6.838-1.182,1.573-2,2.323-6.109.6-8.755s-13.827-14.423-13.827-14.423Z" transform="translate(-307.077 -229.791)" fill="#ffc09d"/>
        <path id="Trazado_167113" data-name="Trazado 167113" d="M543.015,381.579s-14.049-16.664-19.39-16.664c0,0-3.377,5.91-3.489,9.132s10.808,18.308,10.808,18.308Z" transform="translate(-301.356 -211.425)" fill="#ff725e"/>
        <path id="Trazado_167114" data-name="Trazado 167114" d="M468.6,386.743l-4.463-22.121-14.446-.149c-5.322,6.017-10.758,10.328-16.953,3.406L417.53,373.86l3.954,21.483,45.88-.029c1.788-5.888,1.24-8.571,1.24-8.571" transform="translate(-241.909 -211.168)" fill="#ff725e"/>
        <path id="Trazado_167115" data-name="Trazado 167115" d="M393.2,408.245c0-.889,5.091-19.343,10.232-21.454l3.97,6.093,1.119,15.379Z" transform="translate(-227.814 -224.099)" fill="#ff725e"/>
        <path id="Trazado_167116" data-name="Trazado 167116" d="M533.782,414.732a2.756,2.756,0,0,1-.376-.416c-.231-.276-.556-.684-.951-1.191-.791-1.016-1.849-2.443-3.023-4.014s-2.265-2.972-3.081-3.963c-.408-.5-.741-.9-.974-1.169a2.73,2.73,0,0,1-.344-.442,2.766,2.766,0,0,1,.407.385c.253.256.6.641,1.029,1.126.85.968,1.962,2.358,3.138,3.931s2.213,3.014,2.971,4.052l.894,1.232a2.755,2.755,0,0,1,.308.468" transform="translate(-304.194 -233.802)" fill="#263238"/>
        <path id="Trazado_167117" data-name="Trazado 167117" d="M421.107,419.019a2.691,2.691,0,0,1-.165-.532c-.095-.345-.209-.85-.332-1.479a30.661,30.661,0,0,1-.247-9.966c.091-.634.18-1.144.258-1.494a2.732,2.732,0,0,1,.138-.539,2.669,2.669,0,0,1-.054.554c-.051.353-.117.865-.188,1.5a36.153,36.153,0,0,0,.246,9.92c.1.629.194,1.137.262,1.487a2.717,2.717,0,0,1,.082.55" transform="translate(-243.38 -234.654)" fill="#263238"/>
        <path id="Trazado_167118" data-name="Trazado 167118" d="M421.507,321.188c.006.056.159.1.451.093a3.337,3.337,0,0,0,1.24-.318,5.225,5.225,0,0,0,1.636-1.216,6.618,6.618,0,0,0,1.365-2.33,11.5,11.5,0,0,0,.574-3.146c.064-1.132.042-2.3,0-3.548-.1-2.481-.392-5.182-.72-7.988s-.631-5.461-.752-7.874a45.418,45.418,0,0,1,.077-6.4c.319-3.629,1.083-5.8.828-5.895-.056-.021-.159.093-.3.333-.073.12-.157.272-.251.453s-.182.4-.286.642a20.449,20.449,0,0,0-1.2,4.309,35.229,35.229,0,0,0-.457,6.607c.037,2.49.3,5.2.627,8.017s.665,5.469.847,7.884c.087,1.2.16,2.362.16,3.41a11.35,11.35,0,0,1-.31,2.837,5.8,5.8,0,0,1-2.168,3.322c-.794.561-1.378.667-1.357.8" transform="translate(-244.213 -163.714)" fill="#263238"/>
        <path id="Trazado_167119" data-name="Trazado 167119" d="M457.587,335.327a2.1,2.1,0,0,1,1.844-.844,1.914,1.914,0,0,1,1.345.652,1.2,1.2,0,0,1,.146,1.371,1.409,1.409,0,0,1-1.506.441,4.41,4.41,0,0,1-1.517-.823,1.275,1.275,0,0,1-.344-.328.383.383,0,0,1-.015-.429" transform="translate(-265.055 -193.79)" fill="#ff9b6c"/>
        <path id="Trazado_167120" data-name="Trazado 167120" d="M459.573,331.518c-.189,0-.143,1.248-1.186,2.178s-2.389.844-2.392,1.02c-.015.079.308.232.875.225a3.147,3.147,0,0,0,2-.78,2.708,2.708,0,0,0,.914-1.823c.028-.525-.125-.83-.211-.819" transform="translate(-264.194 -192.075)" fill="#263238"/>
        <path id="Trazado_167121" data-name="Trazado 167121" d="M499.994,319.18c1.593,5.785.241,13.517,1.817,18.162s2.722,9.8.941,14.37l-2.453-5.4a6.928,6.928,0,0,1-.53,6.687c-1.312,1.939-7.924,3.593-10.273,3.481-2.378-12.541-1.722-22.131,2.384-31.826l3.17,3.5,2.855-1.221Z" transform="translate(-282.808 -184.927)" fill="#263238"/>
        <path id="Trazado_167122" data-name="Trazado 167122" d="M456.9,308.109a8.68,8.68,0,0,1,.2-1.315,5.149,5.149,0,0,1,.609-1.428,5.423,5.423,0,0,1,3.647-2.511,5.436,5.436,0,0,1,2.823.238,5.07,5.07,0,0,1,1.358.728,4.913,4.913,0,0,1,1.134,1.134,5.29,5.29,0,0,1,0,6.307,6.155,6.155,0,0,1-.525.619,6.046,6.046,0,0,1-.609.515,5.053,5.053,0,0,1-1.358.729,5.439,5.439,0,0,1-2.824.238,5.427,5.427,0,0,1-3.647-2.511,5.161,5.161,0,0,1-.609-1.428,8.672,8.672,0,0,1-.2-1.315.321.321,0,0,0,0,.088c0,.068,0,.153,0,.259a2.525,2.525,0,0,0,.034.419,3.856,3.856,0,0,0,.1.566,5.092,5.092,0,0,0,.591,1.46,5.5,5.5,0,0,0,3.7,2.6,5.563,5.563,0,0,0,2.9-.229,5.2,5.2,0,0,0,1.4-.745,5.056,5.056,0,0,0,1.173-1.167,5.442,5.442,0,0,0,0-6.506,5.043,5.043,0,0,0-1.173-1.166,5.2,5.2,0,0,0-1.4-.745,5.563,5.563,0,0,0-2.9-.229,5.5,5.5,0,0,0-3.7,2.6,5.135,5.135,0,0,0-.591,1.461,3.853,3.853,0,0,0-.1.565,2.529,2.529,0,0,0-.034.419c0,.106,0,.191,0,.259a.32.32,0,0,0,0,.088" transform="translate(-264.714 -175.333)" fill="#455a64"/>
        <path id="Trazado_167123" data-name="Trazado 167123" d="M427.809,307.553a8.74,8.74,0,0,1,.2-1.315,5.152,5.152,0,0,1,.609-1.428,5.426,5.426,0,0,1,3.647-2.511,5.436,5.436,0,0,1,2.823.238,5.063,5.063,0,0,1,1.358.728,4.912,4.912,0,0,1,1.134,1.134,5.288,5.288,0,0,1,0,6.307,4.89,4.89,0,0,1-1.134,1.134,5.045,5.045,0,0,1-1.358.729,5.438,5.438,0,0,1-2.824.238,5.43,5.43,0,0,1-3.647-2.511,5.169,5.169,0,0,1-.609-1.428,8.731,8.731,0,0,1-.2-1.315.351.351,0,0,0,0,.088c0,.068,0,.153,0,.259a2.537,2.537,0,0,0,.034.419,3.8,3.8,0,0,0,.1.566,5.106,5.106,0,0,0,.591,1.46,5.5,5.5,0,0,0,3.7,2.6,5.564,5.564,0,0,0,2.9-.229,5.213,5.213,0,0,0,1.4-.745,6.313,6.313,0,0,0,.629-.53,6.24,6.24,0,0,0,.543-.637,5.44,5.44,0,0,0,0-6.506,6.274,6.274,0,0,0-.544-.637,6.158,6.158,0,0,0-.629-.529,5.2,5.2,0,0,0-1.4-.745,5.566,5.566,0,0,0-2.9-.229,5.5,5.5,0,0,0-3.7,2.6,5.11,5.11,0,0,0-.591,1.461,3.8,3.8,0,0,0-.1.565,2.546,2.546,0,0,0-.034.419c0,.106,0,.191,0,.259a.35.35,0,0,0,0,.088" transform="translate(-247.862 -175.011)" fill="#455a64"/>
        <path id="Trazado_167124" data-name="Trazado 167124" d="M453.485,312.736c.022.013.087-.07.214-.167a1.018,1.018,0,0,1,1.145-.089c.141.076.217.148.238.131s-.028-.117-.17-.232a.959.959,0,0,0-1.3.1c-.121.135-.15.246-.131.255" transform="translate(-262.737 -180.867)" fill="#455a64"/>
        <path id="Trazado_167125" data-name="Trazado 167125" d="M482.4,312.37a67.179,67.179,0,0,0,6.644,1.394,67.184,67.184,0,0,0-6.644-1.394" transform="translate(-279.491 -180.978)" fill="#455a64"/>
        <path id="Trazado_167126" data-name="Trazado 167126" d="M476.435,314.125a.859.859,0,0,0,.326-.138,2.858,2.858,0,0,0,.717-.646,4.678,4.678,0,0,0,.721-1.232,4.95,4.95,0,0,0,.315-1.719,5.291,5.291,0,0,0-.928-3,4.47,4.47,0,0,0-.626-.729,1.38,1.38,0,0,0-.278-.217,9.473,9.473,0,0,1,.8,1.013,5.459,5.459,0,0,1,.856,2.928,4.985,4.985,0,0,1-.291,1.663,4.883,4.883,0,0,1-.669,1.213,3.249,3.249,0,0,1-.657.665c-.18.129-.3.179-.289.194" transform="translate(-276.037 -177.55)" fill="#fff"/>
        <path id="Trazado_167127" data-name="Trazado 167127" d="M470.734,325.885a2.985,2.985,0,0,0,1.86-.6,64.648,64.648,0,0,0-1.86.6" transform="translate(-272.734 -188.461)" fill="#fff"/>
        <path id="Trazado_167128" data-name="Trazado 167128" d="M440.453,303.825c0,.029.37.031.945.156a5.382,5.382,0,0,1,3.576,2.623c.29.51.4.861.429.852a.706.706,0,0,0-.053-.254,4.13,4.13,0,0,0-.267-.654,5.04,5.04,0,0,0-3.661-2.685,4.174,4.174,0,0,0-.708-.061.711.711,0,0,0-.26.024" transform="translate(-255.19 -176.016)" fill="#fff"/>
        <path id="Trazado_167129" data-name="Trazado 167129" d="M451.556,316.174a2.078,2.078,0,0,0,.316-1.768,12.956,12.956,0,0,1-.316,1.768" transform="translate(-261.618 -182.16)" fill="#fff"/>
        <path id="Trazado_167130" data-name="Trazado 167130" d="M480.666,367.064c.095.059.446-.274.936-.985a14.537,14.537,0,0,0,1.6-3.273,25.865,25.865,0,0,0,1.222-5.247,63.071,63.071,0,0,0,.47-6.5c.071-2.285.135-4.441.3-6.383a35.686,35.686,0,0,1,.76-5.09c.654-2.854,1.535-4.493,1.3-4.63-.1-.057-.44.283-.918,1a14.77,14.77,0,0,0-1.555,3.3,26.586,26.586,0,0,0-1.169,5.256c-.26,2-.374,4.207-.445,6.5s-.145,4.436-.325,6.374a34.3,34.3,0,0,1-.811,5.078c-.691,2.844-1.605,4.466-1.371,4.607" transform="translate(-278.467 -194.064)" fill="#263238"/>
        <path id="Trazado_167131" data-name="Trazado 167131" d="M500.652,330.637c-.01.013.1.091.255.277a1.778,1.778,0,0,1,.372.919,1.6,1.6,0,0,1-.488,1.33,1.749,1.749,0,0,1-1.655.463,1.882,1.882,0,0,1-1.306-1.137,2.066,2.066,0,0,1,0-1.447,1.368,1.368,0,0,1,.612-.762,1.162,1.162,0,0,1,.356-.094s-.032-.016-.1-.02a.66.66,0,0,0-.285.054,1.382,1.382,0,0,0-.7.778,2.147,2.147,0,0,0-.035,1.547,2.021,2.021,0,0,0,1.413,1.248,1.862,1.862,0,0,0,1.01-.027,1.985,1.985,0,0,0,.8-.49,1.8,1.8,0,0,0,.441-.723,1.709,1.709,0,0,0,.055-.733,1.741,1.741,0,0,0-.442-.948.849.849,0,0,0-.306-.233" transform="translate(-288.272 -191.291)" fill="#e0e0e0"/>
        <path id="Trazado_167132" data-name="Trazado 167132" d="M550.75,331.675l-.434-5.486-1.122-6.927-1.742-5.674s-.354-.538-1.044-.029.291,3.6.291,3.6l.373,2.365s-.232,1.881-.388,1.741-.965-3.3-.965-3.3l-2.082-6.748a.929.929,0,0,0-1.221-.351c-.457.2-.691.916-.522,1.931s.805,2.69.915,3.266.858,3.884.858,3.884l-3.177-7.457s-.706-2.461-1.718-1.988-.115,2.2.017,2.97,2.223,5.857,2.254,7.333-.282.771-.282.771l-1.558-4.2c-.686-1.852-1.531-2.877-2.376-2.927s.747,4.242.747,4.242l2.074,6.014-.136,2-1.574-1.618s-.292-2.31-1.851-3.118c-1.584-.822-1.817.315-1.817.315l3.682,8.665c.8,1.4,5.263,3.8,5.263,3.8l1.716,8.9,9.327-1.552Z" transform="translate(-309.546 -179.867)" fill="#ffc09d"/>
        <path id="Trazado_167133" data-name="Trazado 167133" d="M552.206,348.957a9.912,9.912,0,0,1-1.344-.9,5.105,5.105,0,0,0-3.527-1.025,2.734,2.734,0,0,0-1.6.782l-.14.15-.154-.162c-.675-.712-1.384-1.321-1.815-1.768-.45-.443-.681-.75-.641-.781a5.183,5.183,0,0,1,.8.607,25.663,25.663,0,0,1,1.96,1.708l-.293-.012a3.018,3.018,0,0,1,1.825-.927,4.2,4.2,0,0,1,2.211.285,6.649,6.649,0,0,1,1.546.909,4.748,4.748,0,0,1,1.174,1.13" transform="translate(-314.592 -200.034)" fill="#ff9b6c"/>
        <path id="Trazado_167134" data-name="Trazado 167134" d="M561.254,393.974l-4.987-27.732,7.55-3.272,10.189,30.567Z" transform="translate(-322.29 -210.297)" fill="#ffc09d"/>
        <path id="Trazado_167135" data-name="Trazado 167135" d="M561.528,397.274a7.222,7.222,0,0,1-.334-1.119c-.192-.726-.454-1.781-.761-3.088-.617-2.614-1.407-6.238-2.22-10.253s-1.5-7.66-1.982-10.3c-.223-1.277-.408-2.332-.547-3.131a7.216,7.216,0,0,1-.152-1.158,7.256,7.256,0,0,1,.29,1.131l.659,3.11,2.086,10.279,2.116,10.269c.265,1.268.483,2.317.649,3.111a7.178,7.178,0,0,1,.2,1.151" transform="translate(-321.861 -213.342)" fill="#ff9b6c"/>
        <path id="Trazado_167136" data-name="Trazado 167136" d="M376.953,63.556a11.731,11.731,0,0,0-4.534.905,5.9,5.9,0,0,1-2.272.474l-2.98-.177-.148-25a4.065,4.065,0,0,0-4.173-3.948l-3.3.012H288.491a3.994,3.994,0,0,0-4.039,3.948V64.609h-1.773a5.438,5.438,0,0,1-2.374-.556c-1.876-.909-5.378-2.078-7.765-1.682-4.738.787-9.551,5.557-9.551,10.255a12.53,12.53,0,0,0,12.6,12.815,11.042,11.042,0,0,0,4.389-.905,4.409,4.409,0,0,1,1.947-.467l2.528-.007v24.6a3.994,3.994,0,0,0,4.039,3.948h74.223a4.065,4.065,0,0,0,4.173-3.948l.132-25.581,2.609.183a5.9,5.9,0,0,1,2.452.556,11.793,11.793,0,0,0,6.816.9,10.938,10.938,0,0,0,9.254-9.3c.744-6.425-4.556-11.861-11.2-11.861" transform="translate(-152.371 -20.749)" fill="#ebebeb"/>
        <path id="Trazado_167137" data-name="Trazado 167137" d="M376.8,63.433s.258.007.764.029l.426.019c.157.016.328.047.514.073l.6.091c.217.032.44.106.682.163a11.239,11.239,0,0,1,6.875,5.076,9.506,9.506,0,0,1,.656,1.324,10.218,10.218,0,0,1,.494,1.479c.072.257.1.528.151.8.024.135.047.27.07.407s.019.277.029.417c.013.28.039.564.042.85q-.025.43-.05.87a10.042,10.042,0,0,1-.971,3.531,10.739,10.739,0,0,1-2.371,3.183,11.61,11.61,0,0,1-8.107,3.069,11.774,11.774,0,0,1-4.726-1.063,5.852,5.852,0,0,0-2.426-.543l-2.6-.18.074-.069q-.028,6.1-.059,12.962-.016,3.425-.032,7.026-.009,1.8-.017,3.642,0,.921-.008,1.853a3.879,3.879,0,0,1-.424,1.845,4.24,4.24,0,0,1-3.028,2.213,12.415,12.415,0,0,1-1.945.075h-1.954l-8.009,0-16.9.006-36.885.008h-8.545c-.411,0-.818.011-1.243-.024a4.2,4.2,0,0,1-2.294-1,4.021,4.021,0,0,1-1.3-2.148,5.362,5.362,0,0,1-.1-1.264V104.4q0-10.061,0-20.459l.11.109-2.6.008a3.742,3.742,0,0,0-1.267.232c-.41.146-.819.348-1.251.5a11.081,11.081,0,0,1-2.682.594,8.835,8.835,0,0,1-1.388.035,10.573,10.573,0,0,1-1.387-.114,12.654,12.654,0,0,1-9.438-6.45,13.214,13.214,0,0,1-1.519-5.6,7.681,7.681,0,0,1,.29-2.885,10.241,10.241,0,0,1,.5-1.361,12.073,12.073,0,0,1,.706-1.26,13.455,13.455,0,0,1,.84-1.169c.321-.355.622-.729.976-1.051a12.8,12.8,0,0,1,2.236-1.768,11.491,11.491,0,0,1,2.557-1.225,7.662,7.662,0,0,1,2.783-.46,16.741,16.741,0,0,1,5.408,1.269c.428.168.852.363,1.261.556a5.482,5.482,0,0,0,1.277.4,6.534,6.534,0,0,0,1.339.085H284.3l-.106.106q0-12.246,0-23.831c.006-.484-.018-.956.026-1.453a3.9,3.9,0,0,1,.433-1.4,4.144,4.144,0,0,1,2.138-1.908,4.037,4.037,0,0,1,1.417-.287c.478-.012.945,0,1.416-.006h2.808l10.98,0,39.4.016,16.592.01,1.912-.005.942,0a8.069,8.069,0,0,1,.939.03,4.27,4.27,0,0,1,3.07,1.835,3.9,3.9,0,0,1,.627,1.658c.062.591.027,1.158.041,1.727q.009,1.7.017,3.321c.04,8.641.073,15.554.1,20.443l-.031-.033,2.37.144a5.526,5.526,0,0,0,2.019-.145c.607-.149,1.119-.416,1.616-.571a11.642,11.642,0,0,1,3.174-.591c.406-.016.606-.007.606-.007l-.6.024a12.142,12.142,0,0,0-1.82.244,11.9,11.9,0,0,0-1.341.37c-.493.156-1,.426-1.616.58a5.581,5.581,0,0,1-2.034.154l-2.372-.136-.031,0v-.031c-.035-4.889-.085-11.8-.146-20.443q-.011-1.62-.023-3.321c-.014-.564.018-1.148-.043-1.711a3.774,3.774,0,0,0-.609-1.6,4.137,4.137,0,0,0-2.978-1.773,7.89,7.89,0,0,0-.924-.028l-.942,0-1.912.008-16.592.01-39.4.016-10.98,0h-2.808a7.177,7.177,0,0,0-2.76.281,3.943,3.943,0,0,0-2.033,1.815,3.7,3.7,0,0,0-.41,1.329c-.041.46-.019.951-.025,1.431q0,11.566,0,23.831v.106h-1.465a6.772,6.772,0,0,1-1.378-.088,5.7,5.7,0,0,1-1.327-.418c-.416-.2-.826-.384-1.252-.552a16.539,16.539,0,0,0-5.334-1.252,7.45,7.45,0,0,0-2.709.449,11.281,11.281,0,0,0-2.51,1.2,12.6,12.6,0,0,0-2.2,1.741c-.349.317-.644.685-.96,1.034a13.241,13.241,0,0,0-.824,1.148,11.786,11.786,0,0,0-.692,1.235,10.042,10.042,0,0,0-.491,1.329,7.47,7.47,0,0,0-.281,2.814,13,13,0,0,0,1.494,5.508,12.437,12.437,0,0,0,9.275,6.337,10.353,10.353,0,0,0,1.363.112,8.6,8.6,0,0,0,1.362-.034,10.882,10.882,0,0,0,2.63-.582c.422-.143.821-.341,1.251-.5a3.977,3.977,0,0,1,1.337-.244l2.606-.008h.109v.109q0,10.388,0,20.459v3.761a5.147,5.147,0,0,0,.1,1.216,3.809,3.809,0,0,0,1.232,2.034,3.982,3.982,0,0,0,2.176.944c.4.033.811.021,1.221.024h8.545l36.885.008,16.9.006,8.009,0h1.954a12.307,12.307,0,0,0,1.914-.071,4.065,4.065,0,0,0,2.907-2.119,3.706,3.706,0,0,0,.408-1.768q.006-.932.01-1.853.011-1.842.021-3.642.021-3.6.04-7.026.04-6.849.075-12.962V82.88l.074.005,2.591.183a5.993,5.993,0,0,1,2.477.559,11.644,11.644,0,0,0,4.674,1.059,11.5,11.5,0,0,0,8.03-3.024A10.627,10.627,0,0,0,387,78.514a9.948,9.948,0,0,0,.969-3.495q.026-.436.052-.862c0-.284-.028-.565-.04-.843-.01-.138-.01-.278-.028-.413s-.046-.27-.069-.4c-.051-.266-.077-.535-.148-.79a10.188,10.188,0,0,0-.486-1.469,9.444,9.444,0,0,0-.647-1.316,11.226,11.226,0,0,0-6.821-5.077c-.241-.058-.463-.134-.678-.167l-.6-.1c-.186-.028-.356-.061-.512-.077l-.425-.024c-.505-.029-.763-.049-.763-.049" transform="translate(-152.222 -20.626)" fill="#263238"/>
        <path id="Trazado_167138" data-name="Trazado 167138" d="M483.448,190.522a14.447,14.447,0,0,0-1.6-3.286c-2.5-2.276-4.958-2.851-7.705-4.822l.556,22.22c.819,1.19,2.569,1.051,3.926.554a6.162,6.162,0,0,0,3.081-2.917,17.345,17.345,0,0,0,2.323-8.071,11.07,11.07,0,0,0-.581-3.678" transform="translate(-274.71 -105.688)" fill="#ff725e"/>
        <path id="Trazado_167139" data-name="Trazado 167139" d="M369.358,139.29c-2.639-1.619-11.292-3.156-13.234-3.33l-2.424-1.986-17.07-1.032-2.506,3.454-8.75,2.329a11.777,11.777,0,0,0-5.908,3.709l-5.209,4.1.008,17.74c0,2.73,1.394,4.548,4.125,4.548l52.444-.131c3.21,5.64,7.277,8.635,14.149,8.15l-1.023-22.879s-10.89-12.394-14.6-14.671" transform="translate(-182.074 -77.024)" fill="#ff725e"/>
        <path id="Trazado_167140" data-name="Trazado 167140" d="M448.891,168.3a.78.78,0,0,1,.036.21c.016.164.036.364.06.606.049.527.1,1.29.159,2.234.109,1.888.189,4.5.146,7.388s-.183,5.5-.3,7.384c-.063.918-.115,1.673-.153,2.233-.021.243-.04.443-.054.607a.768.768,0,0,1-.034.211.821.821,0,0,1-.01-.213c0-.164.008-.366.013-.609.021-.562.05-1.317.084-2.237.075-1.888.188-4.5.233-7.379s-.012-5.49-.081-7.378c-.037-.919-.067-1.674-.09-2.236-.008-.244-.014-.444-.019-.609a.794.794,0,0,1,.008-.213" transform="translate(-259.992 -97.512)" fill="#263238"/>
        <path id="Trazado_167141" data-name="Trazado 167141" d="M339.191,182.079c-.058.016-1.209-3.893-2.57-8.731s-2.417-8.775-2.359-8.791,1.208,3.892,2.57,8.732,2.416,8.774,2.358,8.791" transform="translate(-193.664 -95.34)" fill="#263238"/>
        <path id="Trazado_167142" data-name="Trazado 167142" d="M377.586,150.805a.415.415,0,0,1-.117-.046l-.326-.16c-.283-.145-.694-.367-1.205-.672a26.4,26.4,0,0,1-3.97-2.92l.155-.086a20.515,20.515,0,0,1,.261,5.082l-.014.189-.155-.107-.809-.562-.819-.6a35.154,35.154,0,0,1-6.885-6.969c-.747-1.011-1.293-1.87-1.659-2.469-.181-.3-.313-.54-.4-.7a1.341,1.341,0,0,1-.127-.252,1.4,1.4,0,0,1,.164.23l.438.678c.387.583.951,1.426,1.71,2.421a36.916,36.916,0,0,0,6.894,6.888l.813.6.8.559-.169.082a20.937,20.937,0,0,0-.23-5.034l-.045-.268.2.182a28.809,28.809,0,0,0,3.9,2.966c.5.318.9.554,1.175.715a3.205,3.205,0,0,1,.415.257" transform="translate(-209.454 -81.42)" fill="#263238"/>
        <path id="Trazado_167143" data-name="Trazado 167143" d="M407.156,140.117a.736.736,0,0,1,.029.2c.013.134.026.333.036.588.021.511.032,1.253-.009,2.169a28.329,28.329,0,0,1-.333,3.2c-.1.6-.216,1.223-.367,1.868a6.331,6.331,0,0,1-.751,1.921,2.983,2.983,0,0,1-.963.957l-.168.1,0-.2c.037-1.7.072-3.258.1-4.581l.17.037a19.131,19.131,0,0,1-1.47,2.689,6.268,6.268,0,0,1-.519.673,1.189,1.189,0,0,1-.219.2,1.344,1.344,0,0,1,.179-.238c.114-.156.285-.383.475-.694a22.3,22.3,0,0,0,1.392-2.705l.176-.4-.005.437c-.018,1.323-.038,2.885-.061,4.581l-.164-.1a2.777,2.777,0,0,0,.89-.889,6.2,6.2,0,0,0,.726-1.853c.151-.635.275-1.257.376-1.85a31.715,31.715,0,0,0,.378-3.177c.061-.909.073-1.648.079-2.159a6.543,6.543,0,0,1,.02-.794" transform="translate(-233.314 -81.181)" fill="#263238"/>
        <path id="Trazado_167144" data-name="Trazado 167144" d="M468.6,214.13a3.536,3.536,0,0,1-.611.191,9.89,9.89,0,0,1-1.726.265,9.172,9.172,0,0,1-2.587-.185,7.552,7.552,0,0,1-1.467-.468,5.54,5.54,0,0,1-1.42-.861,4.387,4.387,0,0,1-1.007-1.327,6.954,6.954,0,0,1-.546-1.443,10.41,10.41,0,0,1-.3-2.576c0-.737.041-1.331.073-1.741a3.466,3.466,0,0,1,.076-.634,3.6,3.6,0,0,1,.009.638c-.005.41-.025,1,0,1.734a10.855,10.855,0,0,0,.342,2.527,6.934,6.934,0,0,0,.541,1.4,4.24,4.24,0,0,0,.959,1.261,6.669,6.669,0,0,0,2.788,1.3,9.5,9.5,0,0,0,2.535.227,19.982,19.982,0,0,0,2.345-.3" transform="translate(-265.895 -118.976)" fill="#263238"/>
        <path id="Trazado_167145" data-name="Trazado 167145" d="M457.291,187.14c.025.036-.546.4-1.336,1.148a12.424,12.424,0,0,0-1.276,1.41,12.387,12.387,0,0,0-2.1,4.128,12.457,12.457,0,0,0-.388,1.862c-.136,1.077-.1,1.755-.141,1.756a1.973,1.973,0,0,1-.048-.474,4.483,4.483,0,0,1-.007-.559c.008-.218.006-.468.042-.74a11.163,11.163,0,0,1,.348-1.9,11.71,11.71,0,0,1,2.135-4.2,11.152,11.152,0,0,1,1.33-1.4c.2-.19.4-.335.573-.47a4.441,4.441,0,0,1,.456-.324,1.984,1.984,0,0,1,.412-.24" transform="translate(-261.874 -108.425)" fill="#263238"/>
        <path id="Trazado_167146" data-name="Trazado 167146" d="M463.074,152.351l3.793-25.466,6.863,1.046s1.621,21.4,1.322,27.919c-.093,2.034.048,5.447-1.33,7.672-2.353,3.8-9.257,3.806-11.393-.119-1.112-1.669-.633-4.039-.4-5.242Z" transform="translate(-267.456 -73.515)" fill="#ae7461"/>
        <path id="Trazado_167147" data-name="Trazado 167147" d="M475.1,102.052l1.153-5.064.941-6.555.034-5.6s-.166-.583-.926-.317-.752,3.326-.752,3.326l-.331,2.235s-.737,1.63-.836,1.461.063-3.242.063-3.242l.031-6.662a.869.869,0,0,0-1-.657c-.465.051-.877.632-1.01,1.595s-.035,2.649-.1,3.2-.323,3.74-.323,3.74L471.3,81.9s.06-2.415-.98-2.271-.72,1.948-.819,2.681.345,5.9-.043,7.237-.469.615-.469.615-.12-2.36-.214-4.221-.562-3.02-1.3-3.3-.524,4.031-.524,4.031l.167,6-.684,1.764-.955-1.9s.388-2.162-.781-3.326c-1.188-1.183-1.716-.223-1.716-.223l.863,8.836c.325,1.481,3.646,4.891,3.646,4.891l-.965,8.5,8.79,1.207Z" transform="translate(-268.24 -46.134)" fill="#ae7461"/>
        <path id="Trazado_167148" data-name="Trazado 167148" d="M476.01,116.7a9.358,9.358,0,0,1-.951-1.183,4.771,4.771,0,0,0-2.871-1.909,2.561,2.561,0,0,0-1.656.257l-.167.1-.092-.188c-.405-.83-.869-1.576-1.129-2.1-.278-.525-.4-.866-.354-.882a4.872,4.872,0,0,1,.545.77,24.17,24.17,0,0,1,1.275,2.086l-.259-.093a2.825,2.825,0,0,1,1.895-.326,3.917,3.917,0,0,1,1.9.874,6.238,6.238,0,0,1,1.129,1.251,4.477,4.477,0,0,1,.734,1.346" transform="translate(-271.603 -64.19)" fill="#6f4439"/>
        <path id="Trazado_167149" data-name="Trazado 167149" d="M347.772,204.553c-1.205-1.061-3.149,1.488-3.149,1.488-.377-.794-2.892-.7-3.282.432-.252-.585-.208-.94-.731-1.3a2.026,2.026,0,0,0-1.814-.289,1.45,1.45,0,0,0-.953,1.486,2.387,2.387,0,0,0-4.246,1.094.979.979,0,0,0-.03.333.4.4,0,0,0,.064.139c.13.2.293.373.411.583.045.079.086.16.125.242a4.458,4.458,0,0,1,.353,1.186,3.963,3.963,0,0,0,.079.58,2.161,2.161,0,0,0,.191.328,5.861,5.861,0,0,1,.427,2.385,4.624,4.624,0,0,0,.674,2.536,1.7,1.7,0,0,0,2.324.5,1.162,1.162,0,0,0,.978,1.186,1.678,1.678,0,0,0,1.5-.616,3.116,3.116,0,0,0,.641-1.545,1.283,1.283,0,0,0,1.383,1.122,1.976,1.976,0,0,0,1.528-1.135,4.543,4.543,0,0,0,.389-1.935c.018-.663.307-2.573.421-3.226,0,0,1.09-.007,1.471,0l.288-.716c.432-1.135.774-1.861,1.091-2.885.237-.767.368-1.523-.132-1.964" transform="translate(-193.259 -118.364)" fill="#ae7461"/>
        <path id="Trazado_167150" data-name="Trazado 167150" d="M325.632,211.085a1.9,1.9,0,0,0-1.458.633,3.86,3.86,0,0,0-.257,2.374c0,.021,1.889,0,1.889,0h.469c.371.217.365,1,.541,1.393a1.459,1.459,0,0,0,1.905.622,1.958,1.958,0,0,0,1.023-1.842,3.024,3.024,0,0,0-.948-1.963,4.228,4.228,0,0,0-3.164-1.21" transform="translate(-187.632 -122.295)" fill="#ae7461"/>
        <path id="Trazado_167151" data-name="Trazado 167151" d="M343.542,208.7a25.118,25.118,0,0,1,.448,5.05,25.087,25.087,0,0,1-.066,5.069,25.1,25.1,0,0,1-.448-5.05,25.126,25.126,0,0,1,.066-5.069" transform="translate(-198.966 -120.919)" fill="#6f4439"/>
        <path id="Trazado_167152" data-name="Trazado 167152" d="M351.981,209.108a21.492,21.492,0,0,1,.027,9.152,37.374,37.374,0,0,1-.035-4.576,37.4,37.4,0,0,1,.009-4.575" transform="translate(-203.891 -121.153)" fill="#6f4439"/>
        <path id="Trazado_167153" data-name="Trazado 167153" d="M359.864,209.495a10.671,10.671,0,0,1,.276,3.791,14.942,14.942,0,0,1-.387,3.775,13.4,13.4,0,0,1-.128-3.791,20.964,20.964,0,0,1,.239-3.775" transform="translate(-208.339 -121.377)" fill="#6f4439"/>
        <path id="Trazado_167154" data-name="Trazado 167154" d="M330.751,211.58c-.01-.061.349-.175.893.018a2.85,2.85,0,0,1,1.534,1.5,5.726,5.726,0,0,1,.53,2.049c-.006.632-.444.854-.462.774-.045-.053.182-.291.1-.752a10.235,10.235,0,0,0-.63-1.846,3.1,3.1,0,0,0-1.222-1.394c-.418-.242-.742-.27-.742-.349" transform="translate(-191.63 -122.534)" fill="#6f4439"/>
        <path id="Trazado_167155" data-name="Trazado 167155" d="M371.849,10.813a3.352,3.352,0,0,0-3.825-2.879A4.289,4.289,0,0,0,362.351,6.2c-.918.509-1.611,1.351-2.508,1.9a30.206,30.206,0,0,1-2.778,1.19,3.059,3.059,0,0,0-1.894,2.191,2.656,2.656,0,0,0,1.8,2.558,7.766,7.766,0,0,0,3.321.3,1.163,1.163,0,0,0-.344,1.5,2.346,2.346,0,0,0,1.288,1.039,5.109,5.109,0,0,0,5.239-.967L368.57,14.3a3.352,3.352,0,0,0,3.28-3.487" transform="translate(-205.772 -3.321)" fill="#263238"/>
        <path id="Trazado_167156" data-name="Trazado 167156" d="M379.78,29.105a1.108,1.108,0,0,1-1.477-.027,1.5,1.5,0,0,1-.356-1.507,2.347,2.347,0,0,1,1-1.247,5.648,5.648,0,0,1,1.5-.632,10.5,10.5,0,0,1,2.469-.469,2.01,2.01,0,0,1,.88.107.837.837,0,0,1,.535.66c.034.417-.331.747-.668,1a25.916,25.916,0,0,1-4,2.427" transform="translate(-218.936 -14.611)" fill="#ff725e"/>
        <path id="Trazado_167157" data-name="Trazado 167157" d="M343.5,27.3c-1.986-2.216-6.928-1.92-8.11-.48a3.769,3.769,0,0,0-4.945,1.606l-5.263,1.113a5.477,5.477,0,0,0-2.53,1,1.883,1.883,0,0,0-.461,2.451,2.856,2.856,0,0,0-1.235,4.56,1.991,1.991,0,0,0,.275,2.884,19.959,19.959,0,0,0-3.427,5.829,4.06,4.06,0,0,0-.282,2.767,1.62,1.62,0,0,0,2.26.962,2.332,2.332,0,0,0-.127,2.517c-.889.016-1.164,1.388-.557,2.039a3.245,3.245,0,0,0,2.487.711,4.285,4.285,0,0,1,2.58.459.811.811,0,0,1-.294.562,3.656,3.656,0,0,0-.851,4.975c.1.149.2.286.289.411a8,8,0,0,0,2.57,1.832c2,1.062,3.2.872,5.444,1.213-.623,1.443,3,4.675,7.193,1.553a80.439,80.439,0,0,0,22.918,3.27c1.23.012,2.709-.144,3.262-1.243a3.053,3.053,0,0,0,2.816-.9,9.012,9.012,0,0,0,1.667-2.587,5.357,5.357,0,0,0,3.89-4.8,6.621,6.621,0,0,0,2.531-4.691,3.885,3.885,0,0,0,2.265-5.23,23.435,23.435,0,0,0-2.506-7.273c1.412-.294,1.956-2.192,1.385-3.517a7.4,7.4,0,0,0-3.058-2.966c1.052.288,1.98-1.029,1.736-2.093a4.163,4.163,0,0,0-2.124-2.37,19.815,19.815,0,0,0-4.354-1.979c-.489-1.859-2.845-3.989-4.577-4.823-6.984-3.365-11.889-4.239-20.866,2.24" transform="translate(-183.881 -13.017)" fill="#263238"/>
        <path id="Trazado_167158" data-name="Trazado 167158" d="M366.547,50.061c-.1-1.473-.34-2.932,1.118-3.153l14.895-4.491c4.8-.729,8.28,5.068,8.8,9.9.583,5.365,1.083,11.938.627,15.981a12.3,12.3,0,0,1-8.08,10.313c0-.011.186,4.932.186,4.932-.62,3.794-1.578,8.062-3.118,9.581-5.27-.984-13.894-12.569-13.894-12.569Z" transform="translate(-212.325 -24.539)" fill="#ae7461"/>
        <path id="Trazado_167159" data-name="Trazado 167159" d="M405.823,82.449a7.382,7.382,0,0,1,1.795-.408c.283-.042.55-.111.589-.307a1.45,1.45,0,0,0-.228-.835l-.939-2.128a37.244,37.244,0,0,1-2.146-5.58,37.351,37.351,0,0,1,2.59,5.394q.473,1.122.9,2.143a1.648,1.648,0,0,1,.2,1.11.714.714,0,0,1-.449.437,1.924,1.924,0,0,1-.48.089,7.251,7.251,0,0,1-1.834.085" transform="translate(-234.581 -42.405)" fill="#263238"/>
        <path id="Trazado_167160" data-name="Trazado 167160" d="M394.273,124.039a26.609,26.609,0,0,1-9.918-3.27s1.873,5.095,9.988,5.715Z" transform="translate(-222.688 -69.971)" fill="#6f4439"/>
        <path id="Trazado_167161" data-name="Trazado 167161" d="M388.837,64.667c-.1.308-1.215.215-2.514.432-1.3.191-2.341.621-2.527.357-.083-.127.088-.42.5-.732a4.436,4.436,0,0,1,3.84-.6c.489.172.741.4.7.545" transform="translate(-222.352 -37.036)" fill="#263238"/>
        <path id="Trazado_167162" data-name="Trazado 167162" d="M416.045,63.78c-.185.262-.964.034-1.887.064-.924,0-1.7.247-1.888-.01-.085-.125.027-.384.358-.639a2.735,2.735,0,0,1,3.042-.043c.338.245.457.5.376.628" transform="translate(-238.845 -36.334)" fill="#263238"/>
        <path id="Trazado_167163" data-name="Trazado 167163" d="M403.981,51.932a5.548,5.548,0,0,0-1.342-3.476,20.6,20.6,0,0,1-1.5-1.444c-.909-1.193-.782-2.85-1.168-4.3a6.1,6.1,0,0,0-3.78-4.1c-1.515-.54-3.232-.466-4.653-1.22-1.051-.556-1.851-1.524-2.933-2.017-2.107-.962-4.55.121-6.539,1.307-.393,1.581.607,2.947,1.572,4.26a5.647,5.647,0,0,0,4.155,2.261c1.261.075,2.734-.211,3.621.689.933.946.573,2.614,1.34,3.7,1.1,1.55,3.59.959,5.23,1.917,1.266.74,1.8,2.255,2.437,3.575s1.741,2.7,3.206,2.627a16.513,16.513,0,0,0,.351-3.776" transform="translate(-221.312 -20.281)" fill="#263238"/>
        <path id="Trazado_167164" data-name="Trazado 167164" d="M370.338,45.822a28.617,28.617,0,0,0-10.812,1.958,5.213,5.213,0,0,0-2.664,1.84,5.113,5.113,0,0,0-.562,2.8,28.441,28.441,0,0,0,2.413,9.521l3.778,2.258c2.908-.69,1.569-5.711,1.427-8.228a5.944,5.944,0,0,0,3.468-5.251,6.579,6.579,0,0,0,2.952-4.9" transform="translate(-206.433 -26.547)" fill="#263238"/>
        <path id="Trazado_167165" data-name="Trazado 167165" d="M363.927,84.662c-.116-1.73-2.24-2.064-3.725-1.171-.816.49-1.43,1.458-1.323,3.294.284,4.9,5.142,3.6,5.142,3.46,0-.087.042-3.558-.094-5.583" transform="translate(-207.92 -48.095)" fill="#ae7461"/>
        <path id="Trazado_167166" data-name="Trazado 167166" d="M364.143,90.74c-.022-.014-.082.065-.222.139a.858.858,0,0,1-.637.05,2.115,2.115,0,0,1-1.086-1.837,2.823,2.823,0,0,1,.168-1.235.987.987,0,0,1,.6-.692.434.434,0,0,1,.517.2c.074.133.048.233.075.24s.1-.088.049-.289a.547.547,0,0,0-.211-.3.644.644,0,0,0-.479-.1,1.2,1.2,0,0,0-.847.811,2.9,2.9,0,0,0-.217,1.382,2.218,2.218,0,0,0,1.367,2.043.914.914,0,0,0,.773-.175c.145-.13.164-.241.147-.249" transform="translate(-209.646 -50.358)" fill="#6f4439"/>
        <path id="Trazado_167167" data-name="Trazado 167167" d="M352.843,68.518a.276.276,0,0,1-.014.065.667.667,0,0,1-.065.186,1.134,1.134,0,0,1-.568.509,3.006,3.006,0,0,1-1.211.254,4.111,4.111,0,0,1-.786-.05,2.883,2.883,0,0,1-.857-.259l.058-.029a2.436,2.436,0,0,1-3.877,1.55l.083-.015a1.008,1.008,0,0,1-.641.429,1.4,1.4,0,0,1-.793-.066,1.282,1.282,0,0,1-.638-.518,1.707,1.707,0,0,1-.249-.806,2.5,2.5,0,0,1,.532-1.634,7.359,7.359,0,0,1,1.29-1.258l.008.113a1.726,1.726,0,0,1-.778-1.16,2.511,2.511,0,0,1,.138-1.445,3.879,3.879,0,0,1,.856-1.222,11.747,11.747,0,0,1,1.158-.982l-.007.111a1.838,1.838,0,0,1-.484-1.42,2.655,2.655,0,0,1,.552-1.455,6.556,6.556,0,0,1,2.387-1.669l-.039.085a3.252,3.252,0,0,1,3.529-4.018l-.076.084a2.805,2.805,0,0,1,.66-2.384,2.768,2.768,0,0,1,2.068-1.018l-.061.062a2.75,2.75,0,0,1,1.11-2.136,2.692,2.692,0,0,1,2.047-.567l-.056.048a2.692,2.692,0,0,1,.4-1.256,3.451,3.451,0,0,1,.742-.9,2.808,2.808,0,0,1,1.674-.724l.184-.013c.059,0,.117.009.172.013a2.52,2.52,0,0,1,.31.036,3.393,3.393,0,0,1,.468.131l.273.117a.551.551,0,0,1,.09.044.631.631,0,0,1-.1-.032l-.277-.1a3.76,3.76,0,0,0-.466-.117,2.53,2.53,0,0,0-.306-.029c-.055,0-.111-.01-.17-.01l-.18.016a2.772,2.772,0,0,0-1.628.729,3.4,3.4,0,0,0-.718.885,2.616,2.616,0,0,0-.375,1.213v.057l-.055-.008a2.591,2.591,0,0,0-1.963.559,2.638,2.638,0,0,0-1.055,2.048v.062h-.062a2.641,2.641,0,0,0-1.968.981,2.673,2.673,0,0,0-.625,2.268l.021.1-.1-.011a3.11,3.11,0,0,0-3.37,3.844l.015.058L349,57.88a6.434,6.434,0,0,0-2.335,1.627,2.507,2.507,0,0,0-.521,1.372,1.688,1.688,0,0,0,.441,1.308l.059.059-.067.051a5.756,5.756,0,0,0-1.971,2.142,2.37,2.37,0,0,0-.133,1.361,1.586,1.586,0,0,0,.71,1.069l.085.05-.077.063a7.248,7.248,0,0,0-1.27,1.23,2.373,2.373,0,0,0-.512,1.547,1.313,1.313,0,0,0,.8,1.217,1.077,1.077,0,0,0,1.295-.311l.033-.053.05.038a2.371,2.371,0,0,0,2.468.232,2.4,2.4,0,0,0,1.261-1.7l.009-.055.05.025a2.826,2.826,0,0,0,.832.26,4.075,4.075,0,0,0,.773.059,3,3,0,0,0,1.194-.23,1.129,1.129,0,0,0,.566-.48c.078-.151.09-.244.1-.241" transform="translate(-198.889 -26.078)" fill="#455a64"/>
        <path id="Trazado_167168" data-name="Trazado 167168" d="M321.036,59.614a1.641,1.641,0,0,1-.185-.3,2.516,2.516,0,0,1-.26-.969,2.469,2.469,0,0,1,.4-1.537,2.6,2.6,0,0,1,1.774-1.129l-.041.058a3.356,3.356,0,0,1,.442-2.417,3.272,3.272,0,0,1,.958-1.019,7.745,7.745,0,0,1,1.339-.631,2.685,2.685,0,0,0,.641-.382,1.662,1.662,0,0,0,.447-.6c.218-.47.287-1.025.562-1.53a2.977,2.977,0,0,1,2.982-1.481l-.084.083a3.923,3.923,0,0,1,4.345-4.449l-.082.081a3.445,3.445,0,0,1,5.357-3.223l-.079.008a4.718,4.718,0,0,1,1.711-1.045,7.062,7.062,0,0,1,1.757-.4,8.213,8.213,0,0,1,2.9.2,5.849,5.849,0,0,1,1.725.715,3.359,3.359,0,0,1,.4.289c.087.069.129.108.129.108s-.183-.14-.547-.365a6.053,6.053,0,0,0-1.723-.678,8.255,8.255,0,0,0-2.876-.164,6.993,6.993,0,0,0-1.728.41,4.613,4.613,0,0,0-1.662,1.026l-.036.037-.043-.029a3.312,3.312,0,0,0-5.141,3.1l.01.091-.091-.011a3.78,3.78,0,0,0-4.182,4.283l.014.1-.1-.016a2.838,2.838,0,0,0-2.836,1.4c-.261.473-.333,1.024-.562,1.519a1.8,1.8,0,0,1-.485.648,2.8,2.8,0,0,1-.674.4,7.757,7.757,0,0,0-1.323.615,3.162,3.162,0,0,0-.929.978,3.259,3.259,0,0,0-.444,2.337l.01.051-.052.008a2.524,2.524,0,0,0-1.723,1.075,2.429,2.429,0,0,0-.411,1.491,2.583,2.583,0,0,0,.231.96c.1.206.166.3.16.307" transform="translate(-185.741 -22.409)" fill="#455a64"/>
        <path id="Trazado_167169" data-name="Trazado 167169" d="M407.629,61.3a.479.479,0,0,1-.019-.4.955.955,0,0,1,.286-.406,1.667,1.667,0,0,1,.6-.3,2.864,2.864,0,0,0,.765-.319,1.518,1.518,0,0,0,.551-.786,2.979,2.979,0,0,0,.123-1.121c-.017-.4-.081-.832-.081-1.29a13.169,13.169,0,0,1,.622-2.9,4.06,4.06,0,0,0,.066-1.611,1.962,1.962,0,0,0-.888-1.377,7.341,7.341,0,0,0-1.717-.582,2.946,2.946,0,0,1-.877-.408,1.971,1.971,0,0,1-.62-.774,9.476,9.476,0,0,1-.516-1.928,3.261,3.261,0,0,0-.339-.929,1.5,1.5,0,0,0-.722-.633,5.474,5.474,0,0,0-1.355-.185,2.121,2.121,0,0,1-.686-.172,1.353,1.353,0,0,1-.542-.457,4.763,4.763,0,0,1-.513-1.251,3.019,3.019,0,0,0-.615-1.1,2.951,2.951,0,0,0-2.133-1.02,3.032,3.032,0,0,0-2.079.753l-.065.058-.036-.079a4.664,4.664,0,0,0-2.909-2.511,4.3,4.3,0,0,0-1.637-.141,3.916,3.916,0,0,0-1.346.375,3.444,3.444,0,0,0-1.43,1.315,3.375,3.375,0,0,0-.243.461l-.058.121a.146.146,0,0,1-.023.04.172.172,0,0,1,.013-.043l.049-.125a2.937,2.937,0,0,1,.228-.473,3.424,3.424,0,0,1,1.431-1.362,3.991,3.991,0,0,1,1.369-.4,4.378,4.378,0,0,1,1.675.131,4.764,4.764,0,0,1,3,2.558l-.1-.021a3.161,3.161,0,0,1,2.168-.795,3.09,3.09,0,0,1,2.238,1.062,3.156,3.156,0,0,1,.645,1.153,4.707,4.707,0,0,0,.5,1.212,1.434,1.434,0,0,0,1.124.567,5.528,5.528,0,0,1,1.393.194,1.645,1.645,0,0,1,.8.7,3.386,3.386,0,0,1,.356.97,9.473,9.473,0,0,0,.5,1.9,1.83,1.83,0,0,0,.573.721,2.833,2.833,0,0,0,.835.389,7.375,7.375,0,0,1,1.747.6,1.885,1.885,0,0,1,.641.643,2.477,2.477,0,0,1,.3.827A4.179,4.179,0,0,1,410.6,53.8a13.263,13.263,0,0,0-.638,2.869c0,.448.056.876.07,1.286a3.05,3.05,0,0,1-.139,1.152,1.591,1.591,0,0,1-.59.818,2.882,2.882,0,0,1-.787.316,1.638,1.638,0,0,0-.594.283.932.932,0,0,0-.286.382.6.6,0,0,0-.01.392" transform="translate(-225.494 -22.774)" fill="#455a64"/>
        <path id="Trazado_167170" data-name="Trazado 167170" d="M415.771,48.8a.519.519,0,0,1-.05-.091l-.135-.275-.505-1.062c-.222-.459-.47-1.034-.826-1.663a4.36,4.36,0,0,0-1.64-1.758c-.4-.215-.854-.357-1.314-.561a3.065,3.065,0,0,1-.669-.391,1.682,1.682,0,0,1-.5-.639c-.233-.508-.239-1.084-.425-1.61a1.382,1.382,0,0,0-.472-.669,2.626,2.626,0,0,0-.787-.364,5.024,5.024,0,0,1-.866-.332,1.575,1.575,0,0,1-.669-.692,7.16,7.16,0,0,1-.419-1.9,2.358,2.358,0,0,0-.325-.9,1.225,1.225,0,0,0-.777-.511c-.644-.134-1.336.091-2.053-.022a1.725,1.725,0,0,1-.942-.5,4.464,4.464,0,0,1-.61-.843,9.439,9.439,0,0,0-.538-.845,1.891,1.891,0,0,0-.721-.616,2.874,2.874,0,0,0-1.85.016,4.319,4.319,0,0,1-1.86.162,4.963,4.963,0,0,1-1.618-.737,8.416,8.416,0,0,0-1.441-.8,5.055,5.055,0,0,0-2.906-.093,5.417,5.417,0,0,0-2.152,1.109,6.041,6.041,0,0,0-1.188,1.406A6.838,6.838,0,0,0,387,34.671l-.113.284a.544.544,0,0,1-.044.1.5.5,0,0,1,.029-.1l.1-.29a6.305,6.305,0,0,1,.487-1.072,6,6,0,0,1,1.184-1.44A5.476,5.476,0,0,1,390.824,31a5.146,5.146,0,0,1,2.976.079,8.451,8.451,0,0,1,1.467.8,4.873,4.873,0,0,0,1.576.713,4.2,4.2,0,0,0,1.8-.166,6.14,6.14,0,0,1,.954-.167,1.868,1.868,0,0,1,1.765.816,9.449,9.449,0,0,1,.548.858,4.3,4.3,0,0,0,.588.814,1.57,1.57,0,0,0,.862.457c.668.111,1.359-.116,2.06.024a1.371,1.371,0,0,1,.867.572,2.49,2.49,0,0,1,.348.955,7.131,7.131,0,0,0,.4,1.863,1.432,1.432,0,0,0,.609.634,4.967,4.967,0,0,0,.842.324,2.747,2.747,0,0,1,.825.387,1.515,1.515,0,0,1,.514.732c.191.556.2,1.126.414,1.6a2.006,2.006,0,0,0,1.1.976c.449.2.91.349,1.317.573a4.433,4.433,0,0,1,1.663,1.809c.352.639.592,1.217.806,1.68l.48,1.074.122.281a.53.53,0,0,1,.037.1" transform="translate(-224.13 -17.855)" fill="#455a64"/>
        <path id="Trazado_167171" data-name="Trazado 167171" d="M429.494,61.357a.386.386,0,0,1,.09-.016.552.552,0,0,1,.261.058,1.052,1.052,0,0,1,.487.868,2.586,2.586,0,0,1-.1.732,3.032,3.032,0,0,0-.126.848,1.889,1.889,0,0,0,.345.9c.19.3.432.585.628.937a1.4,1.4,0,0,1,.122,1.233c-.156.417-.459.766-.607,1.19a1.827,1.827,0,0,0,.134,1.348c.191.448.463.881.65,1.378a2.2,2.2,0,0,1,.158.8,2,2,0,0,1-.185.811,9.521,9.521,0,0,1-.931,1.4,2.254,2.254,0,0,0-.517,1.551,7.41,7.41,0,0,0,.593,1.652,2.555,2.555,0,0,1,.183.9,2.028,2.028,0,0,1-.23.88,7.494,7.494,0,0,1-1.056,1.386,3.966,3.966,0,0,0-.856,1.386,11.958,11.958,0,0,1-.508,1.525,1.785,1.785,0,0,1-.5.62,2.274,2.274,0,0,1-.693.334,6.01,6.01,0,0,0-.679.242,2.435,2.435,0,0,0-.566.386,5,5,0,0,0-.8,1.048c-.225.365-.434.723-.668,1.045a3.355,3.355,0,0,1-1.706,1.256,3.611,3.611,0,0,1-1.6.154,3.208,3.208,0,0,1-.976-.285,2.46,2.46,0,0,1-.307-.177,3.715,3.715,0,0,0,1.29.4,3.591,3.591,0,0,0,1.566-.175,3.281,3.281,0,0,0,1.648-1.239c.227-.318.432-.675.655-1.043a5.048,5.048,0,0,1,.816-1.079,2.559,2.559,0,0,1,.6-.41,6.217,6.217,0,0,1,.692-.251,2.14,2.14,0,0,0,.652-.316,1.642,1.642,0,0,0,.456-.575,11.964,11.964,0,0,0,.5-1.509,4.117,4.117,0,0,1,.88-1.436,7.412,7.412,0,0,0,1.034-1.357,1.875,1.875,0,0,0,.213-.816,2.406,2.406,0,0,0-.173-.846,7.409,7.409,0,0,1-.6-1.688,1.867,1.867,0,0,1,.12-.888,3.6,3.6,0,0,1,.425-.763,9.564,9.564,0,0,0,.921-1.372,1.861,1.861,0,0,0,.175-.752,2.081,2.081,0,0,0-.146-.747c-.178-.48-.448-.914-.642-1.375a1.95,1.95,0,0,1-.13-1.44c.164-.453.469-.8.616-1.19a1.3,1.3,0,0,0-.108-1.142c-.185-.34-.424-.632-.615-.935a1.968,1.968,0,0,1-.349-.951,3.059,3.059,0,0,1,.141-.869,2.576,2.576,0,0,0,.115-.712,1.028,1.028,0,0,0-.444-.845.629.629,0,0,0-.336-.069" transform="translate(-243.067 -35.54)" fill="#455a64"/>
        <path id="Trazado_167172" data-name="Trazado 167172" d="M398.173,98.549a.665.665,0,0,1,.844-.363l3.069,1.126.342.125a7.5,7.5,0,0,1-.678,1.8,1.923,1.923,0,0,1-1.328.938,2.161,2.161,0,0,1-1.293-.322,2.521,2.521,0,0,1-1.358-1.547,3.69,3.69,0,0,1,.4-1.753" transform="translate(-230.449 -56.863)" fill="#6f4439"/>
        <path id="Trazado_167173" data-name="Trazado 167173" d="M356.383,98.43a2.555,2.555,0,0,0-.733.424,3.315,3.315,0,0,0-1.189,1.957,3.505,3.505,0,0,0,.039,1.607,3.941,3.941,0,0,0,.9,1.612,4.019,4.019,0,0,0,1.7,1.119,3.7,3.7,0,0,0,2.184.047,3.982,3.982,0,0,0,1.868-1.139,3.587,3.587,0,0,0,.89-1.833A3.8,3.8,0,0,0,361.078,99,3.67,3.67,0,0,0,359,98.032a2.064,2.064,0,0,0-.631.022.734.734,0,0,0-.209.067,2.7,2.7,0,0,1,.831-.017,3.545,3.545,0,0,1,.934.276,3.378,3.378,0,0,1,1.06.714,3.692,3.692,0,0,1,.889,3.1,3.43,3.43,0,0,1-.855,1.738,3.825,3.825,0,0,1-1.782,1.082,3.532,3.532,0,0,1-2.075-.041,3.876,3.876,0,0,1-1.634-1.061,3.817,3.817,0,0,1-.874-1.537,3.405,3.405,0,0,1-.059-1.54,3.316,3.316,0,0,1,1.1-1.926,7.512,7.512,0,0,1,.686-.48" transform="translate(-205.325 -56.79)" fill="#e0e0e0"/>
        <path id="Trazado_167174" data-name="Trazado 167174" d="M392.894,82.728a1.063,1.063,0,0,1-.978,1.116,1.018,1.018,0,0,1-1.137-.91,1.065,1.065,0,0,1,.977-1.117,1.018,1.018,0,0,1,1.138.911" transform="translate(-226.408 -47.4)" fill="#263238"/>
        <path id="Trazado_167175" data-name="Trazado 167175" d="M416.389,82.728a1.063,1.063,0,0,1-.978,1.116,1.017,1.017,0,0,1-1.137-.911,1.064,1.064,0,0,1,.977-1.117,1.018,1.018,0,0,1,1.138.911" transform="translate(-240.02 -47.4)" fill="#263238"/>
        <path id="Trazado_167176" data-name="Trazado 167176" d="M415.722,72.691c-.1.16-.914-.392-1.958-.276-1.044.1-1.734.807-1.865.67-.064-.06.026-.339.325-.657a2.371,2.371,0,0,1,3.052-.315c.356.252.5.506.446.578" transform="translate(-238.634 -41.541)" fill="#263238"/>
        <path id="Trazado_167177" data-name="Trazado 167177" d="M390.943,74.31c-.143.164-1.037-.531-2.293-.52-1.255-.008-2.168.691-2.307.527-.068-.073.074-.368.474-.684a3.042,3.042,0,0,1,1.844-.624,2.964,2.964,0,0,1,1.827.618c.389.315.525.609.455.683" transform="translate(-223.831 -42.3)" fill="#263238"/>
        <path id="Trazado_167178" data-name="Trazado 167178" d="M400.881,101.432c.009.01-.087.133-.336.249a1.9,1.9,0,0,1-1.139.095,3.011,3.011,0,0,1-1.5-.8,1.85,1.85,0,0,1-.512-.907,2.4,2.4,0,0,1,.032-1.105,4.629,4.629,0,0,1,.387-1.007.748.748,0,0,1,.445-.417.9.9,0,0,1,.554.09l1.523.615a6.922,6.922,0,0,1,1.373.646,6.92,6.92,0,0,1-1.456-.427L398.7,97.92c-.312-.13-.458-.113-.6.189a4.584,4.584,0,0,0-.353.935,1.747,1.747,0,0,0,.378,1.722,2.943,2.943,0,0,0,1.332.78,1.994,1.994,0,0,0,1.043.012c.242-.07.363-.154.381-.127" transform="translate(-230.213 -56.506)" fill="#263238"/>
        <path id="Trazado_167179" data-name="Trazado 167179" d="M411.983,18.984a6.136,6.136,0,0,0-1.338-.774,4.693,4.693,0,0,0-1.761-.313,4.337,4.337,0,0,0-2.242.646l-.107.067-.064-.111a4.043,4.043,0,0,0-2.453-1.8,4.106,4.106,0,0,0-3.445.546l-.129.093-.093-.127a6.606,6.606,0,0,0-4.188-2.538,6.3,6.3,0,0,0-3.814.575A6.579,6.579,0,0,0,389.7,17.6l-.042.067-.079,0a9.888,9.888,0,0,0-3.952.98,10.287,10.287,0,0,0-2.631,1.8,13.716,13.716,0,0,0-1.8,2.172c-.008,0,.019-.064.078-.176s.143-.28.275-.485a9.351,9.351,0,0,1,1.323-1.64,10.108,10.108,0,0,1,2.647-1.893,9.986,9.986,0,0,1,4.051-1.056l-.122.07a6.825,6.825,0,0,1,2.765-2.485,6.585,6.585,0,0,1,4.011-.612,6.883,6.883,0,0,1,4.39,2.677l-.222-.034a4.386,4.386,0,0,1,3.709-.566,4.272,4.272,0,0,1,2.589,1.96l-.171-.043a4.484,4.484,0,0,1,2.371-.633,4.673,4.673,0,0,1,1.813.381,4.171,4.171,0,0,1,1,.609,1.568,1.568,0,0,1,.287.29" transform="translate(-220.854 -8.259)" fill="#263238"/>
        <path id="Trazado_167180" data-name="Trazado 167180" d="M367.574,9.017a2.884,2.884,0,0,1-1.223.294,4.413,4.413,0,0,1-3.221-1.154,4.072,4.072,0,0,1-1.195-2.116,4.549,4.549,0,0,1,.271-2.794,4.156,4.156,0,0,1,2.249-2.154,4.443,4.443,0,0,1,3.37-.028l-.191.046A3.155,3.155,0,0,1,369.479.061a3.29,3.29,0,0,1,1.785.152,2.943,2.943,0,0,1,1.357,1.1A3.263,3.263,0,0,1,372.9,4.5l-.22-.2a2.685,2.685,0,0,1,2.523-.051A2.769,2.769,0,0,1,376.692,6a3.561,3.561,0,0,1-.975,3.521,4.426,4.426,0,0,1-2.162,1.121,4.1,4.1,0,0,1-.644.086.731.731,0,0,1-.224-.008c0-.026.305-.032.845-.177a4.514,4.514,0,0,0,2.051-1.157,3.37,3.37,0,0,0,.859-3.311,2.5,2.5,0,0,0-1.363-1.568,2.4,2.4,0,0,0-2.238.055l-.447.273.227-.472a2.957,2.957,0,0,0-.27-2.865A2.619,2.619,0,0,0,371.143.52a2.97,2.97,0,0,0-1.6-.134,2.836,2.836,0,0,0-1.651.935l-.078.094-.113-.047a4.142,4.142,0,0,0-3.122.018,3.868,3.868,0,0,0-2.1,1.981,4.3,4.3,0,0,0-.283,2.619A3.87,3.87,0,0,0,363.283,8a4.373,4.373,0,0,0,3.064,1.194,6.465,6.465,0,0,0,1.227-.173" transform="translate(-209.637 -0.001)" fill="#263238"/>
        <path id="Trazado_167181" data-name="Trazado 167181" d="M319.528,36.926c-.009,0-.041-.06-.1-.185a3.647,3.647,0,0,1-.188-.572,5.247,5.247,0,0,1,1.659-5.212,5.451,5.451,0,0,1,4.131-1.257l-.163.088a6.489,6.489,0,0,1,3.3-3.111,6.272,6.272,0,0,1,3.436-.4,6.453,6.453,0,0,1,2.908,1.259l-.164-.013a7.124,7.124,0,0,1,3.485-.831,7.351,7.351,0,0,1,2.729.556,6.641,6.641,0,0,1,1.562.9,2.7,2.7,0,0,1,.469.437,9.569,9.569,0,0,0-2.1-1.172,7.416,7.416,0,0,0-2.665-.474,6.972,6.972,0,0,0-3.34.845l-.086.047-.078-.059a6.2,6.2,0,0,0-2.775-1.176,6,6,0,0,0-3.257.384,6.226,6.226,0,0,0-3.139,2.943l-.05.1-.113-.014a5.213,5.213,0,0,0-3.917,1.15,5.023,5.023,0,0,0-1.692,2.794,5.451,5.451,0,0,0-.036,2.188c.1.506.2.771.18.779" transform="translate(-184.876 -15.177)" fill="#263238"/>
        <path id="Trazado_167182" data-name="Trazado 167182" d="M196.8,84.036a4.41,4.41,0,0,0-1.947.467,11.04,11.04,0,0,1-4.389.905c-6.429,0-12.6-3.81-12.6-11.687,0-4.7,4.812-9.469,9.551-10.255,2.388-.4,5.889.772,7.765,1.682a5.446,5.446,0,0,0,2.374.556h1.16l.078-25.913a3.263,3.263,0,0,0-3.006-3.2H118.958c-2.444,0-4.016,1.431-4.016,3.2V66.526l3.089-.165a6.062,6.062,0,0,0,2.1-.375c1.34-.493,2.734-1.351,4.268-1.351,6.586,0,11.179,3.72,10.914,9.768-.233,5.329-4.18,9.491-10.025,9.863a11.888,11.888,0,0,1-5.564-1.115,6.661,6.661,0,0,0-2.524-.566l-2.254.047v26.176a4.131,4.131,0,0,0,4.311,3.924h75.224a4.131,4.131,0,0,0,4.311-3.924V84.03Z" transform="translate(-66.595 -21.204)" fill="#e0e0e0"/>
        <path id="Trazado_167183" data-name="Trazado 167183" d="M190.107,75.961l-.383-31.436c-.35-7.817,3.908-14.536,11.731-14.67l.724.03a13.988,13.988,0,0,1,13.4,13.426c.266,6.777.472,14.268.278,17.89-.4,7.5-7.954,8.354-7.954,8.354-.017,0-.046,4.564-.042,6.767l-2.381,4.758-2.029-1.115Z" transform="translate(-109.91 -17.298)" fill="#ffc09d"/>
        <path id="Trazado_167184" data-name="Trazado 167184" d="M219.687,118.856a18.137,18.137,0,0,1-9.649-3.291s2.117,5.736,9.63,5.37Z" transform="translate(-121.692 -66.957)" fill="#ff9b6c"/>
        <path id="Trazado_167185" data-name="Trazado 167185" d="M240.517,74.986a1.072,1.072,0,0,1-1.078,1.038,1.026,1.026,0,0,1-1.064-1.012,1.072,1.072,0,0,1,1.076-1.039,1.027,1.027,0,0,1,1.065,1.012" transform="translate(-138.11 -42.859)" fill="#263238"/>
        <path id="Trazado_167186" data-name="Trazado 167186" d="M241.279,67.04c-.138.134-.925-.5-2.078-.545-1.151-.061-2.021.5-2.141.351-.059-.065.087-.312.466-.565a2.945,2.945,0,0,1,1.721-.453,2.827,2.827,0,0,1,1.647.608c.343.286.453.544.385.6" transform="translate(-137.341 -38.138)" fill="#263238"/>
        <path id="Trazado_167187" data-name="Trazado 167187" d="M216.277,74.494a1.072,1.072,0,0,1-1.078,1.038,1.025,1.025,0,0,1-1.065-1.012,1.073,1.073,0,0,1,1.077-1.039,1.026,1.026,0,0,1,1.065,1.012" transform="translate(-124.066 -42.574)" fill="#263238"/>
        <path id="Trazado_167188" data-name="Trazado 167188" d="M214.386,66.566c-.139.134-.927-.5-2.079-.544-1.151-.061-2.021.5-2.141.351-.058-.065.086-.312.466-.564a2.941,2.941,0,0,1,1.721-.454,2.829,2.829,0,0,1,1.648.608c.342.287.452.544.385.6" transform="translate(-121.759 -37.863)" fill="#263238"/>
        <path id="Trazado_167189" data-name="Trazado 167189" d="M228.978,76.444a7.631,7.631,0,0,1,1.886-.26c.3-.018.577-.065.634-.264a1.5,1.5,0,0,0-.16-.881l-.778-2.278a38.529,38.529,0,0,1-1.713-5.944,38.681,38.681,0,0,1,2.187,5.792c.258.8.506,1.561.741,2.289a1.707,1.707,0,0,1,.105,1.162.739.739,0,0,1-.5.411,2,2,0,0,1-.5.049,7.508,7.508,0,0,1-1.9-.076" transform="translate(-132.582 -38.712)" fill="#263238"/>
        <path id="Trazado_167190" data-name="Trazado 167190" d="M214.194,57.865c-.169.288-1.275-.068-2.635-.154-1.359-.113-2.5.079-2.63-.23-.054-.147.186-.4.676-.621a4.59,4.59,0,0,1,4.011.293c.453.287.654.575.578.713" transform="translate(-121.045 -32.753)" fill="#263238"/>
        <path id="Trazado_167191" data-name="Trazado 167191" d="M241.181,58.927c-.247.255-1.179-.041-2.308-.084-1.127-.076-2.09.121-2.3-.159-.093-.135.064-.394.489-.631a3.638,3.638,0,0,1,1.888-.379,3.576,3.576,0,0,1,1.827.575c.392.28.516.553.407.678" transform="translate(-137.049 -33.412)" fill="#263238"/>
        <path id="Trazado_167192" data-name="Trazado 167192" d="M183.582,76.72c-.125-.061-5.092-1.738-5.14,3.4s5.118,4.125,5.128,3.977.012-7.375.012-7.375" transform="translate(-103.386 -44.271)" fill="#ffc09d"/>
        <path id="Trazado_167193" data-name="Trazado 167193" d="M183.815,84.411c-.022-.017-.09.062-.242.13a.9.9,0,0,1-.669.008,2.214,2.214,0,0,1-1.006-2,2.951,2.951,0,0,1,.262-1.278,1.034,1.034,0,0,1,.679-.681.456.456,0,0,1,.526.25c.067.144.034.246.061.256s.111-.085.072-.3a.571.571,0,0,0-.2-.323.675.675,0,0,0-.493-.135,1.257,1.257,0,0,0-.942.787,3.041,3.041,0,0,0-.323,1.428,2.323,2.323,0,0,0,1.284,2.23.957.957,0,0,0,.819-.128c.16-.125.188-.24.171-.249" transform="translate(-105.181 -46.547)" fill="#ff9b6c"/>
        <path id="Trazado_167194" data-name="Trazado 167194" d="M220.33,91.4c.177-.011.184,1.168,1.2,2s2.268.7,2.278.862c.017.074-.279.23-.809.247a2.938,2.938,0,0,1-1.9-.652,2.559,2.559,0,0,1-.928-1.678c-.047-.493.083-.786.164-.779" transform="translate(-127.554 -52.957)" fill="#263238"/>
        <path id="Trazado_167195" data-name="Trazado 167195" d="M215.358,28.418a1.219,1.219,0,0,0-.563-.717,3.744,3.744,0,0,0-1.918-.334,10.815,10.815,0,0,1-4.685-1.234,5.358,5.358,0,0,0,1.393-.954,3.224,3.224,0,0,0,.964-3.195.715.715,0,0,0-.4-.5c-.332-.106-.628.218-.864.475a2.775,2.775,0,0,1-2.625,1.076,4.552,4.552,0,0,1-1.945-.6c-.022-.024-.042-.049-.064-.072-.264-.279-.522-.545-.776-.8l0,0v0a17,17,0,0,0-5.259-3.993,17.455,17.455,0,0,0-9.306-.838,7.051,7.051,0,0,0-5.388,5.424,5.422,5.422,0,0,0-5.447-.573l-.045-.02c-2,.686-3.15,2.774-3.76,4.8-.033.11-.062.223-.094.334a7.885,7.885,0,0,1-2.705,2.583c-.194.109-.416.244-.442.465s.157.4.335.533a3.966,3.966,0,0,0,1.6.687,8.919,8.919,0,0,1-.675,1.39c-.229.378-.5.83-.309,1.227a.839.839,0,0,0,.874.392,2.464,2.464,0,0,0,.93-.408l-.684,1.586a4.7,4.7,0,0,0,2.165-.12c.4,1.9.678,5.417,1.152,6.708a7.813,7.813,0,0,1,2.381.131c.886.305.529,1.876,1.691,1.441.592-.221,1.521-2.443,1.726-3.042a29.329,29.329,0,0,0,1.411-12.4,9.425,9.425,0,0,1,2.934-2.068l-.09.079c2.108-.705,4.491-1.4,6.472-.388,1.537.782,2.427,2.4,3.568,3.689a10.75,10.75,0,0,0,7.889,3.95c.269,2.271.314,5.979.4,8.1l1.855-4.214v.017c.149-.246.272-.5.392-.744l.041-.076V36.2a13.185,13.185,0,0,1,.609-1.2l.02.019a1.322,1.322,0,0,0,1.951-1.746,2.956,2.956,0,0,0-.632-.649,2.092,2.092,0,0,0,1.986.539,1.64,1.64,0,0,0,1.179-1.609,1.394,1.394,0,0,0-.819-1.129,4.709,4.709,0,0,0,2.687-.56c.533-.3,1.057-.787.885-1.454" transform="translate(-99.323 -9.519)" fill="#263238"/>
        <path id="Trazado_167196" data-name="Trazado 167196" d="M191.351,32.167a6.5,6.5,0,0,0-.762.681,5.39,5.39,0,0,0-1.182,2.482,9.506,9.506,0,0,0-.214,1.908c-.011.692.036,1.434.08,2.215a19.755,19.755,0,0,1,.028,2.466,8.626,8.626,0,0,1-.184,1.3,2.707,2.707,0,0,1-.545,1.255,1.134,1.134,0,0,1-1.065.344,1.687,1.687,0,0,1-.948-.55,3.89,3.89,0,0,1-.7-1.919l.157.021a6.306,6.306,0,0,1-.932,1.564,2.24,2.24,0,0,1-1.471.779,1.439,1.439,0,0,1-.773-.145,1.25,1.25,0,0,1-.52-.525,1.291,1.291,0,0,1-.152-.668.934.934,0,0,1,.248-.582l.079.072a4.84,4.84,0,0,1-1.629,1.193,4.324,4.324,0,0,1-.5.189.839.839,0,0,1-.18.042.9.9,0,0,1,.17-.071c.112-.045.279-.11.487-.212a5,5,0,0,0,1.572-1.211l.079.072a.964.964,0,0,0-.063,1.116,1.126,1.126,0,0,0,.471.465,1.315,1.315,0,0,0,.7.122,2.1,2.1,0,0,0,1.366-.741,6.2,6.2,0,0,0,.9-1.531l.111-.239.047.26a3.763,3.763,0,0,0,.669,1.834,1.516,1.516,0,0,0,.848.492.956.956,0,0,0,.905-.292,2.56,2.56,0,0,0,.5-1.174,8.643,8.643,0,0,0,.183-1.271,20.063,20.063,0,0,0-.019-2.445c-.04-.782-.082-1.526-.064-2.228a9.438,9.438,0,0,1,.238-1.932,5.321,5.321,0,0,1,1.253-2.5,3.054,3.054,0,0,1,.812-.635" transform="translate(-104.394 -18.637)" fill="#455a64"/>
        <path id="Trazado_167197" data-name="Trazado 167197" d="M230.267,34a.3.3,0,0,1-.061.05l-.189.135a2.52,2.52,0,0,1-.321.2,3.959,3.959,0,0,1-.46.236,6.661,6.661,0,0,1-3.223.542,8.517,8.517,0,0,1-4.517-1.727A14.737,14.737,0,0,1,217.65,28.9c-.537-.917-.972-1.855-1.452-2.721a9.977,9.977,0,0,0-1.653-2.307,5.129,5.129,0,0,0-2.151-1.339,3.674,3.674,0,0,0-1.14-.145,4.054,4.054,0,0,0-1.048.189,4.354,4.354,0,0,0-2.439,2.016,5.171,5.171,0,0,0-.4,1.122.248.248,0,0,1,.006-.079c.011-.062.024-.138.039-.23a3.764,3.764,0,0,1,.295-.845,4.268,4.268,0,0,1,.855-1.131,4.4,4.4,0,0,1,1.605-.972,4.152,4.152,0,0,1,1.081-.207,3.8,3.8,0,0,1,1.187.14,5.255,5.255,0,0,1,2.224,1.364,10.012,10.012,0,0,1,1.69,2.339c.487.873.923,1.809,1.454,2.717a14.754,14.754,0,0,0,3.791,4.494,8.466,8.466,0,0,0,4.429,1.733,6.768,6.768,0,0,0,3.187-.481A10.744,10.744,0,0,0,230.267,34" transform="translate(-120.143 -12.892)" fill="#455a64"/>
        <path id="Trazado_167198" data-name="Trazado 167198" d="M252.553,42.345a1.17,1.17,0,0,1-.272.185,5.818,5.818,0,0,1-.8.4,7.792,7.792,0,0,1-1.269.4,8.174,8.174,0,0,1-3.244.067,7.785,7.785,0,0,1-1.284-.348,5.847,5.847,0,0,1-.818-.363,1.2,1.2,0,0,1-.279-.173c.015-.03.428.188,1.138.418a8.8,8.8,0,0,0,1.271.306,8.751,8.751,0,0,0,3.183-.066,8.874,8.874,0,0,0,1.257-.358c.7-.259,1.1-.494,1.119-.465" transform="translate(-141.707 -24.532)" fill="#455a64"/>
        <path id="Trazado_167199" data-name="Trazado 167199" d="M214.912,157.827s-12.947-19.665-16.77-20.524l-3.41-.973-10.322-2.8s.076,3.978-5.675,4.1c-6.624.145-12.184-5.679-12.184-5.679s-13.771,4.291-16.662,6.623,1.869,29.321,1.869,29.321h50.395l-.037-.3Z" transform="translate(-86.303 -76.453)" fill="#ff725e"/>
        <path id="Trazado_167200" data-name="Trazado 167200" d="M138.035,147.651a15.059,15.059,0,0,0-5.566,9.023c-1.212,6.059-3.734,20.308-3.734,20.308l21.064.012s-.964-8.8-.964-9.463-3.648-15.091-3.868-15.422-6.933-4.458-6.933-4.458" transform="translate(-74.587 -85.546)" fill="#ff725e"/>
        <path id="Trazado_167201" data-name="Trazado 167201" d="M158.484,148.452a31.985,31.985,0,0,1,3.017,2.37,31.861,31.861,0,0,1,2.448,2.954,10.02,10.02,0,0,0-5.466-5.325" transform="translate(-91.822 -86.007)" fill="#263238"/>
        <path id="Trazado_167202" data-name="Trazado 167202" d="M172.241,191.857a4.638,4.638,0,0,1-.022-.731c0-.506.006-1.178.011-1.991.012-1.681.019-4-.015-6.565s-.1-4.885-.158-6.565c-.026-.813-.047-1.484-.063-1.99a4.666,4.666,0,0,1,0-.731,4.645,4.645,0,0,1,.082.726c.04.469.085,1.148.133,1.987.1,1.679.188,4,.222,6.569s0,4.89-.049,6.571c-.026.84-.053,1.521-.08,1.99a4.655,4.655,0,0,1-.064.729" transform="translate(-99.644 -100.397)" fill="#263238"/>
        <path id="Trazado_167203" data-name="Trazado 167203" d="M284.874,199.388l2.534,7.66-12.032-.079-.037-.3Z" transform="translate(-159.526 -115.522)" fill="#ffc09d"/>
        <path id="Trazado_167204" data-name="Trazado 167204" d="M268.534,168.931c.06-.008.715,4.51,1.463,10.09s1.306,10.113,1.245,10.121-.715-4.509-1.463-10.091-1.305-10.111-1.245-10.119" transform="translate(-155.581 -97.875)" fill="#263238"/>
        <path id="Trazado_167205" data-name="Trazado 167205" d="M176.958,36.52s.292-.007.862-.011l2.535-.011,9.774-.02,3.367,0c.591,0,1.194-.01,1.817.006a3.784,3.784,0,0,1,1.823.554,3.346,3.346,0,0,1,1.309,1.495,2.877,2.877,0,0,1,.241,1.009c.02.351,0,.7.008,1.049q0,2.112-.008,4.387c-.013,6.065-.029,12.985-.046,20.655V65.7h-.076c-.479,0-.953.009-1.444-.007a5.452,5.452,0,0,1-1.449-.279c-.477-.154-.907-.4-1.362-.587s-.919-.372-1.392-.534a18.044,18.044,0,0,0-2.936-.755,10.069,10.069,0,0,0-1.532-.144,5.712,5.712,0,0,0-1.539.155,12,12,0,0,0-5.569,3.009,12.128,12.128,0,0,0-2.1,2.537,9.523,9.523,0,0,0-1.271,3.092,9.956,9.956,0,0,0-.008,3.408c.048.285.082.573.14.856l.227.841a5.364,5.364,0,0,0,.286.825,7.288,7.288,0,0,0,.343.807,10.649,10.649,0,0,0,5.023,4.906,14.573,14.573,0,0,0,1.69.691,16.2,16.2,0,0,0,1.788.44,15.075,15.075,0,0,0,3.709.237,11.039,11.039,0,0,0,3.64-.926,4.392,4.392,0,0,1,1.9-.415l1.935-.006h.1v.1q0,8.176,0,16.813,0,2.157,0,4.34,0,1.092,0,2.189v1.1a5.158,5.158,0,0,1-.085,1.119,3.927,3.927,0,0,1-1.1,1.955,4.5,4.5,0,0,1-1.958,1.119,4.841,4.841,0,0,1-1.128.166c-.379.013-.748,0-1.123.007h-2.249l-37.36,0-34.847-.012a4.478,4.478,0,0,1-3.618-2.01,3.8,3.8,0,0,1-.593-2.032q0-1.04,0-2.076,0-4.143,0-8.2,0-8.118,0-15.875v-.1l.1,0,1.831-.038a6,6,0,0,1,1.83.176,11.584,11.584,0,0,1,1.712.617,14.646,14.646,0,0,0,1.7.557,10.087,10.087,0,0,0,3.5.3,11.3,11.3,0,0,0,3.382-.777,9.91,9.91,0,0,0,5.05-4.371,10.58,10.58,0,0,0,1.2-6.4,8.79,8.79,0,0,0-.971-3.057,8.515,8.515,0,0,0-2.036-2.407,9.411,9.411,0,0,0-2.7-1.538,12.459,12.459,0,0,0-1.471-.465c-.248-.065-.5-.1-.752-.153a6.555,6.555,0,0,0-.754-.12l-.756-.084c-.252-.022-.506-.022-.757-.034a5.146,5.146,0,0,0-1.485.086,15.746,15.746,0,0,0-2.774,1.034,7.322,7.322,0,0,1-1.41.458,7.9,7.9,0,0,1-1.46.138l-2.857.151-.084,0v-.084c.006-8.65.012-16.478.016-23.353q0-1.289,0-2.533c.007-.416-.018-.822.029-1.239a3.026,3.026,0,0,1,.4-1.158,3.525,3.525,0,0,1,1.824-1.471,6.154,6.154,0,0,1,2.249-.229l8.057.01,11.151.021,2.9.011c.654,0,.988.012.988.012s-.335.008-.988.012l-2.9.011-11.151.021-8.057.01a6.052,6.052,0,0,0-2.21.227,3.409,3.409,0,0,0-1.761,1.425,2.908,2.908,0,0,0-.385,1.113c-.045.393-.02.811-.026,1.224q0,1.244,0,2.533c.005,6.875.011,14.7.016,23.353l-.084-.08,2.861-.155a7.711,7.711,0,0,0,1.431-.135,7.148,7.148,0,0,0,1.379-.45,15.86,15.86,0,0,1,2.8-1.046,5.319,5.319,0,0,1,1.525-.091c.254.012.51.011.765.034l.765.085a6.56,6.56,0,0,1,.763.121c.253.052.511.088.762.154a12.548,12.548,0,0,1,1.493.47,9.58,9.58,0,0,1,2.753,1.563,8.69,8.69,0,0,1,2.082,2.458,8.956,8.956,0,0,1,1,3.12,10.764,10.764,0,0,1-1.213,6.514,10.1,10.1,0,0,1-5.144,4.46,11.492,11.492,0,0,1-3.437.792,10.291,10.291,0,0,1-3.561-.3,14.835,14.835,0,0,1-1.719-.564,11.483,11.483,0,0,0-1.688-.607,5.781,5.781,0,0,0-1.779-.17l-1.83.039.1-.1q0,7.75,0,15.875,0,4.059,0,8.2c.056,1.365-.239,2.838.56,3.995a4.266,4.266,0,0,0,3.447,1.91l34.838.007,37.36,0h2.249a8.056,8.056,0,0,0,2.194-.164,4.014,4.014,0,0,0,2.905-2.914,4.989,4.989,0,0,0,.08-1.074v-1.1q0-1.1,0-2.189,0-2.183,0-4.34,0-8.627,0-16.813l.1.1-1.935,0a4.182,4.182,0,0,0-1.824.4,11.231,11.231,0,0,1-3.7.939,15.217,15.217,0,0,1-3.759-.242,16.345,16.345,0,0,1-1.812-.447,14.706,14.706,0,0,1-1.715-.7,10.834,10.834,0,0,1-5.106-5,7.583,7.583,0,0,1-.349-.821,5.518,5.518,0,0,1-.29-.84l-.23-.855c-.059-.288-.094-.58-.142-.869a10.129,10.129,0,0,1,.012-3.47,9.709,9.709,0,0,1,1.3-3.149,12.312,12.312,0,0,1,2.135-2.57,12.167,12.167,0,0,1,5.653-3.045,5.878,5.878,0,0,1,1.576-.156,10.163,10.163,0,0,1,1.555.148,18.178,18.178,0,0,1,2.962.765c.477.164.944.345,1.4.54s.893.437,1.351.584a5.3,5.3,0,0,0,1.407.274c.474.016.961,0,1.436.008l-.076.076c.029-7.67.055-14.589.078-20.655q.009-2.274.017-4.387c0-.35.013-.7-.006-1.042a2.754,2.754,0,0,0-.229-.973,3.245,3.245,0,0,0-1.265-1.45,3.69,3.69,0,0,0-1.774-.543c-.615-.017-1.224-.006-1.813-.011l-3.367,0-9.774-.02-2.535-.011c-.57,0-.862-.011-.862-.011" transform="translate(-66.449 -21.126)" fill="#263238"/>
        <path id="Trazado_167206" data-name="Trazado 167206" d="M188.034,246.29a11.6,11.6,0,0,1,5.49,1.115,6.5,6.5,0,0,0,2.491.566l2.224-.047V221.748a4.1,4.1,0,0,0-4.254-3.923H119.752a4.1,4.1,0,0,0-4.254,3.923v69.015a3.338,3.338,0,0,0,3.464,3.2h75.813a3.338,3.338,0,0,0,3.464-3.2V265.822h-3.069a5.922,5.922,0,0,0-2.067.375,12.22,12.22,0,0,1-4.277.769c-6.5,0-11.738-4.978-11.477-11.027.23-5.329,4.916-9.279,10.685-9.65" transform="translate(-66.917 -126.204)" fill="#e0e0e0"/>
        <path id="Trazado_167207" data-name="Trazado 167207" d="M187.884,246.145s-.249.033-.737.087a8.138,8.138,0,0,0-.9.146,11.126,11.126,0,0,0-1.233.3,12.375,12.375,0,0,0-3.228,1.484,8.573,8.573,0,0,0-.888.647c-.146.121-.3.238-.448.369l-.431.419-.22.215-.2.238-.415.489a10.559,10.559,0,0,0-.734,1.121,9.969,9.969,0,0,0-.613,1.278,9.66,9.66,0,0,0-.4,1.44,9.214,9.214,0,0,0-.082,3.205,9.812,9.812,0,0,0,1.089,3.33,10.881,10.881,0,0,0,2.384,2.953,11.909,11.909,0,0,0,7.787,2.89,12.315,12.315,0,0,0,4.551-.845,6.08,6.08,0,0,1,1.195-.263,10.523,10.523,0,0,1,1.234-.039l2.5,0h.072v.072q0,5.861.008,12.434,0,3.281,0,6.729,0,1.723,0,3.486,0,.881,0,1.772a8.293,8.293,0,0,1-.026.9,3.266,3.266,0,0,1-.249.887,3.563,3.563,0,0,1-2.949,2c-1.24.031-2.469.01-3.722.017l-7.647,0-16.108.005-35.052.008h-9.267c-1.563-.008-3.116.017-4.708-.017a3.739,3.739,0,0,1-2.185-.975,3.168,3.168,0,0,1-1.015-2.171q0-9.521-.008-19.335c0-9.457,0-18.738,0-27.783q0-6.784,0-13.384,0-3.3,0-6.546,0-.812,0-1.621a4.8,4.8,0,0,1,.18-1.627,4.115,4.115,0,0,1,2.114-2.408,4.536,4.536,0,0,1,1.558-.45c.545-.048,1.067-.022,1.6-.029h3.151l6.215,0,12.062,0,22.493.009,20.029.011,8.981.006a4.5,4.5,0,0,1,3.749,1.7,3.86,3.86,0,0,1,.764,1.9c.042.683.011,1.335.02,1.992-.012,10.458-.022,18.806-.029,24.579v.036h-.035c-.877.012-1.694.045-2.463.036a6.585,6.585,0,0,1-2.073-.487,14.945,14.945,0,0,0-3.088-1.028,10.18,10.18,0,0,0-1.935-.2c-.216,0-.378,0-.486.007s-.162,0-.162,0a6.177,6.177,0,0,1,.648-.029,9.827,9.827,0,0,1,1.942.184,14.8,14.8,0,0,1,3.1,1.013,6.541,6.541,0,0,0,2.056.474c.76.006,1.583-.03,2.458-.045l-.035.037c-.007-5.773-.017-14.121-.029-24.579-.01-.651.02-1.324-.023-1.978a3.714,3.714,0,0,0-.74-1.828,4.353,4.353,0,0,0-3.638-1.642l-8.981.006-20.029.011-22.493.009-12.062,0-6.215,0H120.69c-.525.007-1.063-.018-1.574.029a4.319,4.319,0,0,0-1.487.43,3.908,3.908,0,0,0-2.007,2.285,4.6,4.6,0,0,0-.17,1.564q0,.809,0,1.621,0,3.247,0,6.546,0,6.6,0,13.384c0,9.045,0,18.326,0,27.783q0,9.8.006,19.325a2.948,2.948,0,0,0,.947,2.023,3.523,3.523,0,0,0,2.056.917c1.553.032,3.134.009,4.688.016h9.267l35.052.008,16.108.005,7.647,0c1.247-.006,2.5.016,3.708-.013a3.389,3.389,0,0,0,2.805-1.895,3.128,3.128,0,0,0,.236-.836A8.244,8.244,0,0,0,198,290.1q0-.891,0-1.772,0-1.763,0-3.486,0-3.446,0-6.729,0-6.563.008-12.434l.072.072-2.5,0a10.443,10.443,0,0,0-1.219.036,5.907,5.907,0,0,0-1.167.255,12.432,12.432,0,0,1-4.594.844,12.021,12.021,0,0,1-7.86-2.934,10.962,10.962,0,0,1-2.4-2.989,9.886,9.886,0,0,1-1.092-3.366,9.3,9.3,0,0,1,.092-3.236,9.754,9.754,0,0,1,.411-1.452,9.993,9.993,0,0,1,.623-1.288,10.616,10.616,0,0,1,.743-1.127l.419-.491.206-.239.222-.216.435-.42c.148-.132.3-.249.451-.37a8.638,8.638,0,0,1,.9-.647A12.314,12.314,0,0,1,185,246.636a10.95,10.95,0,0,1,1.239-.289,7.872,7.872,0,0,1,.907-.136c.49-.048.739-.066.739-.066" transform="translate(-66.767 -126.059)" fill="#263238"/>
        <path id="Trazado_167208" data-name="Trazado 167208" d="M181.384,243.766a56.089,56.089,0,0,1-2.554-9.334,19.59,19.59,0,0,1,.65-9.568c.165-.461,1.582-3.558,2.069-3.516.348.03-.512,2.913-.332,3.214a16.615,16.615,0,0,1,1.988,9.663,43.748,43.748,0,0,1-1.821,9.541" transform="translate(-103.437 -128.245)" fill="#263238"/>
        <path id="Trazado_167209" data-name="Trazado 167209" d="M184.975,253.469l-.805-29.03c-.362-8.093,4.046-15.049,12.145-15.187l.749.031a14.482,14.482,0,0,1,13.875,13.9c.275,7.016.489,14.772.288,18.522-.417,7.762-8.235,8.649-8.235,8.649-.018,0-.069,8.065-.065,10.346l-5.518,5.86.318-1.774Z" transform="translate(-106.692 -121.236)" fill="#ffc09d"/>
        <path id="Trazado_167210" data-name="Trazado 167210" d="M215.19,302.274a18.774,18.774,0,0,1-9.989-3.407s2.192,5.94,9.97,5.561Z" transform="translate(-118.889 -173.158)" fill="#ff9b6c"/>
        <path id="Trazado_167211" data-name="Trazado 167211" d="M238.667,256.345a1.11,1.11,0,0,1-1.115,1.075,1.062,1.062,0,0,1-1.1-1.047,1.111,1.111,0,0,1,1.115-1.076,1.063,1.063,0,0,1,1.1,1.048" transform="translate(-136.994 -147.914)" fill="#263238"/>
        <path id="Trazado_167212" data-name="Trazado 167212" d="M237.545,248.629c-.143.139-.958-.518-2.152-.564-1.192-.064-2.093.514-2.216.363-.061-.067.09-.323.482-.585a3.047,3.047,0,0,1,1.782-.469,2.924,2.924,0,0,1,1.705.629c.355.3.469.564.4.625" transform="translate(-135.091 -143.322)" fill="#263238"/>
        <path id="Trazado_167213" data-name="Trazado 167213" d="M213.437,256.346a1.11,1.11,0,0,1-1.115,1.075,1.061,1.061,0,0,1-1.1-1.047,1.11,1.11,0,0,1,1.115-1.075,1.062,1.062,0,0,1,1.1,1.048" transform="translate(-122.377 -147.914)" fill="#263238"/>
        <path id="Trazado_167214" data-name="Trazado 167214" d="M209.7,248.138c-.144.139-.959-.517-2.152-.564-1.191-.063-2.093.515-2.216.363-.061-.067.089-.322.483-.584a3.044,3.044,0,0,1,1.781-.47,2.927,2.927,0,0,1,1.705.629c.355.3.469.564.4.625" transform="translate(-118.959 -143.038)" fill="#263238"/>
        <path id="Trazado_167215" data-name="Trazado 167215" d="M224.809,258.366a7.9,7.9,0,0,1,1.953-.27c.306-.019.6-.067.657-.273a1.556,1.556,0,0,0-.166-.912l-.805-2.358a39.917,39.917,0,0,1-1.773-6.154,39.967,39.967,0,0,1,2.265,6c.268.827.523,1.616.767,2.37a1.765,1.765,0,0,1,.109,1.2.763.763,0,0,1-.519.425,2.069,2.069,0,0,1-.521.051,7.758,7.758,0,0,1-1.965-.079" transform="translate(-130.163 -143.917)" fill="#263238"/>
        <path id="Trazado_167216" data-name="Trazado 167216" d="M209.5,239.131c-.175.3-1.319-.07-2.728-.159-1.407-.117-2.593.081-2.723-.239-.056-.152.193-.417.7-.643a4.752,4.752,0,0,1,4.153.3c.468.3.677.6.6.738" transform="translate(-118.219 -137.748)" fill="#263238"/>
        <path id="Trazado_167217" data-name="Trazado 167217" d="M237.442,240.23c-.255.265-1.22-.042-2.389-.087-1.167-.079-2.164.125-2.384-.164-.1-.14.066-.408.506-.653a3.762,3.762,0,0,1,1.954-.393,3.707,3.707,0,0,1,1.892.6c.405.29.534.572.421.7" transform="translate(-134.788 -138.429)" fill="#263238"/>
        <path id="Trazado_167218" data-name="Trazado 167218" d="M177.811,258.651c-.13-.063-5.271-1.8-5.321,3.518s5.3,4.27,5.309,4.118.012-7.635.012-7.635" transform="translate(-99.937 -149.672)" fill="#ffc09d"/>
        <path id="Trazado_167219" data-name="Trazado 167219" d="M178.052,266.613c-.023-.017-.093.064-.25.134a.926.926,0,0,1-.693.008,2.292,2.292,0,0,1-1.041-2.066,3.061,3.061,0,0,1,.272-1.323,1.071,1.071,0,0,1,.7-.7.471.471,0,0,1,.544.259c.07.149.035.255.063.265s.115-.088.074-.308a.592.592,0,0,0-.206-.335.7.7,0,0,0-.511-.14,1.3,1.3,0,0,0-.975.815,3.145,3.145,0,0,0-.335,1.479,2.4,2.4,0,0,0,1.33,2.308.992.992,0,0,0,.848-.133c.166-.13.2-.249.177-.258" transform="translate(-101.795 -152.028)" fill="#ff9b6c"/>
        <path id="Trazado_167220" data-name="Trazado 167220" d="M204.553,213.083c.861-.474-1.72-3.262-3.834-4.223-3.2-1.452-8.075-2.347-11.022-1.513-3.548,1-6.5,2.768-8.28,6a20.913,20.913,0,0,0-2.353,10.677,6.352,6.352,0,0,0,.747,3.248c.742,1.176,2.166,1.917,2.1,3.539a2.226,2.226,0,0,0,.551,1.623c.972,1.036,2.163.064,2.71-.911,1.17-2.082,1.3-4.568,1.405-6.954a15.537,15.537,0,0,0-.334-5.057c-.26-.886-.677-1.724-.887-2.623a3.192,3.192,0,0,1,.378-2.654,3.34,3.34,0,0,1,.432-.437,5.545,5.545,0,0,1,5.5-1.044c2.994,1.061,8.105,2.646,9.442,1.63a8.194,8.194,0,0,0,2.382-2.414Z" transform="translate(-103.74 -119.947)" fill="#263238"/>
        <path id="Trazado_167221" data-name="Trazado 167221" d="M215.856,273.852c.183-.011.19,1.209,1.239,2.071s2.348.722,2.358.893c.017.077-.289.238-.838.256a3.04,3.04,0,0,1-1.968-.676,2.649,2.649,0,0,1-.961-1.737c-.049-.511.086-.814.17-.807" transform="translate(-124.958 -158.664)" fill="#263238"/>
        <g id="Grupo_110716" data-name="Grupo 110716" transform="translate(76.077 130.535)" opacity="0.3">
          <g id="Grupo_110715" data-name="Grupo 110715">
            <g id="Grupo_110714" data-name="Grupo 110714" clip-path="url(#clip-path-3)">
              <path id="Trazado_167222" data-name="Trazado 167222" d="M195.069,318.554c-.656-1.1-1.4-1.9-2.059-3-.052-.087-.371-.427-.332-.52a3.3,3.3,0,0,0-.444.537c-.67,1.029-1.725,1.975-2.433,2.883l-8.931-8.115a59.928,59.928,0,0,0,8.256,9.567,1.116,1.116,0,0,0,.84.332,1.319,1.319,0,0,0,.8-.572l1.36-1.645a.581.581,0,0,1,.992-.066l1.375,1.059c.193.149.49.292.651.109.136-.153.035-.392-.07-.568" transform="translate(-180.87 -310.339)"/>
            </g>
          </g>
        </g>
        <path id="Trazado_167223" data-name="Trazado 167223" d="M150.253,310.062s-12.486-3.214-19.64,4.88a15.142,15.142,0,0,0-3.641,11.083c.189,2.759.461,6.743.7,10.412.429,6.465,1.844,22.432,5.262,26.24s12.611,1.956,15.837.689,8.23-.909,10.7-3.25,6.181-3.784,10.059-5.333,2.327-3.6,2.327-3.6l-5.8-12.269-21.016,4.2s-.865-8.089.033-10.527,2.415-5.609,2.9-9.331,2.263-13.187,2.263-13.187" transform="translate(-73.543 -179.279)" fill="#ff725e"/>
        <path id="Trazado_167224" data-name="Trazado 167224" d="M160.817,389.233c.015.039-.571.243-1.438.724a11.91,11.91,0,0,0-1.451.956,11.785,11.785,0,0,0-2.834,3.142,11.929,11.929,0,0,0-.8,1.541c-.39.912-.532,1.516-.572,1.5a1.657,1.657,0,0,1,.074-.429,4.271,4.271,0,0,1,.134-.493c.062-.189.122-.41.221-.641a10.507,10.507,0,0,1,.773-1.587,11.03,11.03,0,0,1,2.884-3.2,10.464,10.464,0,0,1,1.5-.932c.22-.122.432-.2.615-.286a4.269,4.269,0,0,1,.477-.183,1.664,1.664,0,0,1,.42-.118" transform="translate(-89.06 -225.512)" fill="#263238"/>
        <g id="Grupo_110719" data-name="Grupo 110719" transform="translate(62.202 163.617)" opacity="0.3">
          <g id="Grupo_110718" data-name="Grupo 110718">
            <g id="Grupo_110717" data-name="Grupo 110717" clip-path="url(#clip-path-4)">
              <path id="Trazado_167225" data-name="Trazado 167225" d="M156.716,389.071a11.229,11.229,0,0,0-8.754,8.256c-.138.582-.154,1.339.374,1.618a1.015,1.015,0,0,0,1.184-.332,3.431,3.431,0,0,0,.55-1.2,14.453,14.453,0,0,1,7.365-8.421Z" transform="translate(-147.881 -388.992)"/>
            </g>
          </g>
        </g>
        <path id="Trazado_167226" data-name="Trazado 167226" d="M173.2,303.033h2.3l2.628-3.842L188.2,307.44l3.323,4.944,1.619-4.87,3.509-1.743.9,2.664,2.932,1.347-3.674,9.192-2.953,3.577s-4.565,3.373-10.624-2.183l-6.059-5.555Z" transform="translate(-100.346 -173.345)" fill="#fff"/>
        <path id="Trazado_167227" data-name="Trazado 167227" d="M160.942,308.326s12.052,18.224,16.93,16.5,9.722-10.245,9.722-10.245,10.606,3.359,13.906,6.946,8.823,24.632,8.823,24.632L159.6,342.467s-7.556-11.326-7.556-12.187,2.228-21.029,2.228-21.029Z" transform="translate(-88.092 -178.638)" fill="#ff725e"/>
        <path id="Trazado_167228" data-name="Trazado 167228" d="M220.689,377.516s6.831-2.543,9.861-2.233,14.86,9.657,14.86,9.657l-15.4-.09-1.337-1.221-3.43,3.7Z" transform="translate(-127.863 -217.416)" fill="#ffc09d"/>
        <path id="Trazado_167229" data-name="Trazado 167229" d="M218.928,399.416a4.879,4.879,0,0,1-.692.416l-.047.026-.021-.052c-.459-1.125-1.39-3.542-2.439-6.346-.736-1.968-1.391-3.753-1.854-5.049l-.538-1.539a3.125,3.125,0,0,1-.169-.575,3.141,3.141,0,0,1,.249.545l.6,1.514c.5,1.282,1.178,3.059,1.914,5.026,1.049,2.8,1.933,5.239,2.325,6.389l-.068-.026a4.838,4.838,0,0,1,.737-.33" transform="translate(-123.504 -223.813)" fill="#263238"/>
        <path id="Trazado_167230" data-name="Trazado 167230" d="M140.972,337.526a2.424,2.424,0,0,1,.478.225c.3.162.726.405,1.235.736a29.338,29.338,0,0,1,3.747,2.905c.688.621,1.319,1.239,1.878,1.815a12.7,12.7,0,0,1,1.408,1.611,3.275,3.275,0,0,1,.567,1.332,1.866,1.866,0,0,1,.023.395c-.006.09-.013.137-.021.137s-.013-.19-.086-.515a3.48,3.48,0,0,0-.611-1.26,14.037,14.037,0,0,0-1.425-1.558c-.564-.566-1.2-1.176-1.881-1.793a35.985,35.985,0,0,0-3.687-2.939c-.5-.345-.909-.607-1.192-.791a2.455,2.455,0,0,1-.434-.3" transform="translate(-81.676 -195.555)" fill="#263238"/>
        <path id="Trazado_167231" data-name="Trazado 167231" d="M194.013,383.226a1.659,1.659,0,0,1-.13-.237l-.349-.7-1.285-2.653-4.44-9.3.111.056-8.946,1.8L166.9,374.578l-.091.018-.019-.09c-.664-3.27-1.217-5.992-1.608-7.914l-.435-2.214c-.045-.244-.081-.438-.107-.584a1.068,1.068,0,0,1-.027-.2,1.123,1.123,0,0,1,.056.2l.135.578c.116.524.279,1.266.485,2.2.409,1.918.988,4.635,1.685,7.9l-.109-.072,12.065-2.426,8.95-1.778.077-.016.034.071,4.369,9.336,1.234,2.678.321.715a1.683,1.683,0,0,1,.1.251" transform="translate(-95.373 -210.657)" fill="#263238"/>
        <path id="Trazado_167232" data-name="Trazado 167232" d="M178.663,308.325a.915.915,0,0,1,.189.132l.517.412c.44.368,1.069.91,1.819,1.609s1.628,1.547,2.6,2.491,2.038,1.982,3.245,2.963a14.267,14.267,0,0,0,1.6,1.116l-.142.032c.964-1.285,2.1-2.236,2.839-3.265l.077-.106.073.106,2.067,3.01.564.847a1.8,1.8,0,0,1,.184.31,1.754,1.754,0,0,1-.229-.278l-.605-.818-2.13-2.966h.149c-.748,1.063-1.881,2.031-2.812,3.284l-.059.08-.082-.048a14.208,14.208,0,0,1-1.626-1.131c-1.219-.992-2.283-2.04-3.249-2.99s-1.826-1.813-2.565-2.522-1.346-1.271-1.768-1.658l-.489-.442a.923.923,0,0,1-.161-.166" transform="translate(-103.513 -178.637)" fill="#263238"/>
        <path id="Trazado_167233" data-name="Trazado 167233" d="M223.991,322.363a4.486,4.486,0,0,1-.771.419c-.5.244-1.2.58-2.029.966l-.1.045-.041-.1a8.843,8.843,0,0,0-1.425-2.341l.18-.028c-.441,1.036-.837,1.94-1.128,2.582a6.512,6.512,0,0,1-.5,1.013,6.541,6.541,0,0,1,.374-1.067c.256-.657.626-1.572,1.058-2.612l.066-.161.114.133a8.478,8.478,0,0,1,.6.789,8.352,8.352,0,0,1,.848,1.615l-.137-.055c.836-.371,1.553-.681,2.062-.893a4.469,4.469,0,0,1,.822-.305" transform="translate(-126.408 -186.027)" fill="#263238"/>
        <path id="Trazado_167234" data-name="Trazado 167234" d="M525.2,234.932l5.961,1.061a18.111,18.111,0,1,0-3.357-5.545l-.005-.008Z" transform="translate(-304.291 -119.298)" fill="#fafafa"/>
        <path id="Trazado_167235" data-name="Trazado 167235" d="M525.2,234.8s.05-.1.158-.288l.486-.861,1.916-3.367a.045.045,0,0,1,.061-.016.042.042,0,0,1,.014.013l.006.008-.079.042a18,18,0,0,1-.5-11.525c.136-.469.323-.931.486-1.41a10.748,10.748,0,0,1,.609-1.416,18,18,0,0,1,3.9-5.348,18.282,18.282,0,0,1,14.067-4.888,18.553,18.553,0,0,1,7.968,2.7,17.25,17.25,0,0,1,1.788,1.261,10.354,10.354,0,0,1,.83.728c.266.256.558.487.8.765a18.186,18.186,0,0,1,1.444,1.708c.22.3.45.6.663.911l.581.972A18.191,18.191,0,0,1,561.3,231.1a18.147,18.147,0,0,1-17.162,10.886,19.891,19.891,0,0,1-2.981-.323,23.99,23.99,0,0,1-2.7-.757,17.966,17.966,0,0,1-7.339-5.016l.027.015-4.449-.821-1.13-.212c-.252-.048-.374-.074-.374-.074s.137.019.4.063l1.148.193,4.426.758a.046.046,0,0,1,.027.016,17.981,17.981,0,0,0,7.317,4.943,24.073,24.073,0,0,0,2.676.74,19.771,19.771,0,0,0,2.955.31,18.012,18.012,0,0,0,16.965-10.8,18,18,0,0,0-.9-16.123l-.574-.96c-.211-.306-.438-.6-.656-.9a18.033,18.033,0,0,0-1.425-1.688c-.243-.275-.532-.5-.795-.755a10.125,10.125,0,0,0-.819-.72,16.98,16.98,0,0,0-1.767-1.247,18.366,18.366,0,0,0-7.872-2.673,18.114,18.114,0,0,0-13.922,4.812,17.874,17.874,0,0,0-3.877,5.286,10.787,10.787,0,0,0-.609,1.4c-.164.474-.351.932-.487,1.4a17.876,17.876,0,0,0-.578,2.737,18.15,18.15,0,0,0,1.02,8.714.045.045,0,0,1-.079.042l-.005-.008.074,0c-.848,1.441-1.5,2.554-1.948,3.313l-.509.861c-.116.195-.18.3-.18.3" transform="translate(-304.291 -119.166)" fill="#263238"/>
        <path id="Trazado_167236" data-name="Trazado 167236" d="M584.659,247.6a1.836,1.836,0,1,1,1.836,1.836,1.836,1.836,0,0,1-1.836-1.836" transform="translate(-338.74 -142.392)" fill="#263238"/>
        <path id="Trazado_167237" data-name="Trazado 167237" d="M567.189,247.6a1.836,1.836,0,1,1,1.836,1.836,1.836,1.836,0,0,1-1.836-1.836" transform="translate(-328.618 -142.392)" fill="#263238"/>
        <path id="Trazado_167238" data-name="Trazado 167238" d="M549.426,248.52a1.836,1.836,0,1,1,2.508.672,1.836,1.836,0,0,1-2.508-.672" transform="translate(-318.184 -142.392)" fill="#263238"/>
        <path id="Trazado_167239" data-name="Trazado 167239" d="M101.65,37.747l-5.962,1.061a18.114,18.114,0,1,1,3.357-5.545l.006-.008Z" transform="translate(-37.152 -5.052)" fill="#fafafa"/>
        <path id="Trazado_167240" data-name="Trazado 167240" d="M101.524,37.616s-.064-.1-.18-.3l-.51-.861-1.947-3.313.075,0-.006.008a.045.045,0,0,1-.062.011.046.046,0,0,1-.016-.053A18.151,18.151,0,0,0,99.9,24.4a17.871,17.871,0,0,0-.578-2.737c-.137-.464-.323-.922-.488-1.4a10.688,10.688,0,0,0-.608-1.4,17.874,17.874,0,0,0-3.877-5.286A18.115,18.115,0,0,0,80.424,8.768a18.369,18.369,0,0,0-7.872,2.673,17.012,17.012,0,0,0-1.767,1.247,10.267,10.267,0,0,0-.82.72c-.262.253-.551.481-.795.755a18.041,18.041,0,0,0-1.425,1.688c-.217.3-.445.594-.655.9l-.574.96a18,18,0,0,0-.9,16.123,17.99,17.99,0,0,0,16.964,10.8,19.77,19.77,0,0,0,2.955-.31,24.066,24.066,0,0,0,2.676-.74,17.973,17.973,0,0,0,7.318-4.943.049.049,0,0,1,.027-.016l4.427-.758,1.147-.193c.259-.043.4-.063.4-.063s-.122.026-.374.074l-1.13.212-4.449.821.027-.015a17.963,17.963,0,0,1-7.339,5.016,24.009,24.009,0,0,1-2.7.757,19.9,19.9,0,0,1-2.981.323A18.175,18.175,0,0,1,65.421,33.918,18.191,18.191,0,0,1,66.326,17.6l.581-.972c.214-.31.443-.607.663-.911a18.185,18.185,0,0,1,1.444-1.708c.246-.278.538-.509.8-.765a10.363,10.363,0,0,1,.83-.728,17.214,17.214,0,0,1,1.789-1.261,18.557,18.557,0,0,1,7.968-2.7,18.282,18.282,0,0,1,14.067,4.888,18.012,18.012,0,0,1,3.9,5.348,10.885,10.885,0,0,1,.608,1.416c.164.479.35.941.486,1.41a17.99,17.99,0,0,1-.505,11.525l-.078-.042.006-.008a.044.044,0,0,1,.062-.011.046.046,0,0,1,.013.014l1.916,3.367.486.861c.108.192.158.288.158.288" transform="translate(-37.027 -4.921)" fill="#263238"/>
        <path id="Trazado_167241" data-name="Trazado 167241" d="M88.821,50.418a1.836,1.836,0,1,0-1.836,1.836,1.836,1.836,0,0,0,1.836-1.836" transform="translate(-49.334 -28.147)" fill="#263238"/>
        <path id="Trazado_167242" data-name="Trazado 167242" d="M106.29,50.418a1.836,1.836,0,1,0-1.836,1.836,1.836,1.836,0,0,0,1.836-1.836" transform="translate(-59.455 -28.147)" fill="#263238"/>
        <path id="Trazado_167243" data-name="Trazado 167243" d="M124.054,51.335a1.836,1.836,0,1,0-2.508.672,1.836,1.836,0,0,0,2.508-.672" transform="translate(-69.889 -28.147)" fill="#263238"/>
      </g>
    </g>
  </g>
</svg>
