<svg xmlns="http://www.w3.org/2000/svg" xmlns:xlink="http://www.w3.org/1999/xlink" width="300.206" height="315.718" viewBox="0 0 300.206 315.718">
  <defs>
    <linearGradient id="linear-gradient" x1="0.77" y1="-0.252" x2="-0.443" y2="3.125" gradientUnits="objectBoundingBox">
      <stop offset="0" stop-color="#328de0"/>
      <stop offset="1" stop-color="#172d9c"/>
    </linearGradient>
    <linearGradient id="linear-gradient-2" x1="0.783" y1="-0.282" x2="-0.29" y2="2.68" gradientUnits="objectBoundingBox">
      <stop offset="0" stop-color="#1873c6"/>
      <stop offset="1" stop-color="#001382"/>
    </linearGradient>
    <linearGradient id="linear-gradient-3" x1="0.5" y1="0.872" x2="0.5" y2="-0.128" gradientUnits="objectBoundingBox">
      <stop offset="0" stop-color="#66c1ff"/>
      <stop offset="1" stop-color="#d4dbdf"/>
    </linearGradient>
    <linearGradient id="linear-gradient-4" x1="1.02" y1="0.5" x2="-0.27" y2="0.5" gradientUnits="objectBoundingBox">
      <stop offset="0" stop-color="#fff"/>
      <stop offset="1"/>
    </linearGradient>
  </defs>
  <g id="Grupo_1079619" data-name="Grupo 1079619" transform="translate(-1100.354 -3327.465)">
    <g id="Grupo_1077925" data-name="Grupo 1077925" transform="translate(762.538 3057.892)">
      <path id="Trazado_201932" data-name="Trazado 201932" d="M356.037,567.76c43.446,40.808,103.942,28.6,139.759,3.692s53.523-26.3,79.659-23.639,75.118-21.485,59.589-82.627C612.689,377.175,567.8,418.671,537.268,353.8c-20.714-44.018-128.817-86.679-146.594-40.928s6.475,85.252,4.211,100.313S299.419,514.579,356.037,567.76Z" transform="translate(0 -9.062)" fill="#ffefe3"/>
      <g id="Grupo_155095" data-name="Grupo 155095" transform="translate(546.518 386.495)">
        <g id="Grupo_155093" data-name="Grupo 155093" transform="translate(0 0)">
          <path id="Trazado_201933" data-name="Trazado 201933" d="M676.261,483.516a9.791,9.791,0,0,0,4.414,7.645l15.794,9.119c2.429,1.4,4.415.254,4.415-2.55V479.493a9.789,9.789,0,0,0-4.415-7.645l-15.794-9.119c-2.427-1.4-4.414-.255-4.414,2.55Z" transform="translate(-676.261 -460.312)" fill="#7575ff"/>
          <path id="Trazado_201934" data-name="Trazado 201934" d="M701.877,496.6V478.362a9.79,9.79,0,0,0-4.415-7.645L681.669,461.6a3.3,3.3,0,0,0-2.815-.445h0l2.661-1.631a3.048,3.048,0,0,1,3.191.257l15.8,9.118a9.8,9.8,0,0,1,4.415,7.646l0,18.239a3.054,3.054,0,0,1-1.358,2.885l-2.921,1.749v0A3.132,3.132,0,0,0,701.877,496.6Z" transform="translate(-677.255 -459.181)" fill="#2121db"/>
        </g>
        <g id="Grupo_155094" data-name="Grupo 155094" transform="translate(4.831 12.307)">
          <path id="Trazado_201935" data-name="Trazado 201935" d="M684.095,485.381v-1.759a1.808,1.808,0,0,0,.7.242.5.5,0,0,0,.407-.208,1.328,1.328,0,0,0,.234-.647,9.531,9.531,0,0,0,.052-1.193,10.1,10.1,0,0,1,.113-1.919.959.959,0,0,1,.413-.664,1.222,1.222,0,0,1,.87-.035,5.257,5.257,0,0,1,1.219.57l.338.194v1.753a3.544,3.544,0,0,0-.906-.43.293.293,0,0,0-.3.107,1.169,1.169,0,0,0-.094.588c0,.309-.019.881-.059,1.719a3.9,3.9,0,0,1-.165,1.082,1.25,1.25,0,0,1-.339.549,1.318,1.318,0,0,1-.633.244,5.3,5.3,0,0,1,.614.935,4.4,4.4,0,0,1,.363,1.022,7.719,7.719,0,0,1,.166,1.37q.045,1.243.044,1.58a2.054,2.054,0,0,0,.1.733,1.517,1.517,0,0,0,.307.467,4.469,4.469,0,0,0,.893.614v1.76l-.337-.194a7.52,7.52,0,0,1-1.313-.916,4.041,4.041,0,0,1-.773-.969,3.553,3.553,0,0,1-.421-1.149,10.731,10.731,0,0,1-.11-1.761,10.249,10.249,0,0,0-.1-1.81,3.051,3.051,0,0,0-.42-1.083A2.978,2.978,0,0,0,684.095,485.381Z" transform="translate(-684.095 -479.139)" fill="#fff"/>
          <path id="Trazado_201936" data-name="Trazado 201936" d="M705.1,496.46a1.841,1.841,0,0,0-.7-.242.491.491,0,0,0-.4.211,1.433,1.433,0,0,0-.238.644,9.528,9.528,0,0,0-.051,1.186,10.941,10.941,0,0,1-.11,1.924.958.958,0,0,1-.411.669,1.238,1.238,0,0,1-.876.032,5.3,5.3,0,0,1-1.218-.572l-.337-.194V498.36a3.254,3.254,0,0,0,.891.415.318.318,0,0,0,.307-.108,1.106,1.106,0,0,0,.1-.575q0-.446.053-1.677a3.954,3.954,0,0,1,.173-1.122,1.252,1.252,0,0,1,.371-.562,1.082,1.082,0,0,1,.594-.22,6.294,6.294,0,0,1-.686-1.085,5.214,5.214,0,0,1-.407-1.465c-.046-.369-.078-1.14-.1-2.317a2.793,2.793,0,0,0-.084-.781,1.28,1.28,0,0,0-.285-.448,4.755,4.755,0,0,0-.926-.633v-1.753l.339.2a7.74,7.74,0,0,1,1.313.911,3.907,3.907,0,0,1,.768.968,3.7,3.7,0,0,1,.421,1.153,10.494,10.494,0,0,1,.112,1.762,10.913,10.913,0,0,0,.094,1.806,3.018,3.018,0,0,0,.427,1.086,2.962,2.962,0,0,0,.869.792Z" transform="translate(-690.482 -481.78)" fill="#fff"/>
        </g>
      </g>
      <g id="Grupo_155098" data-name="Grupo 155098" transform="translate(508.803 289.856)">
        <g id="Grupo_155096" data-name="Grupo 155096" transform="translate(0 0)">
          <path id="Trazado_201937" data-name="Trazado 201937" d="M615.1,326.8a9.786,9.786,0,0,0,4.414,7.645l15.793,9.119c2.43,1.4,4.415.255,4.415-2.549V322.778a9.786,9.786,0,0,0-4.415-7.645l-15.793-9.118c-2.427-1.4-4.414-.255-4.414,2.548Z" transform="translate(-615.1 -303.596)" fill="#febf3e"/>
          <path id="Trazado_201938" data-name="Trazado 201938" d="M640.716,339.884V321.647A9.786,9.786,0,0,0,636.3,314l-15.793-9.118a3.308,3.308,0,0,0-2.815-.446h0l2.661-1.63a3.048,3.048,0,0,1,3.192.257l15.795,9.118a9.805,9.805,0,0,1,4.415,7.646l0,18.237a3.056,3.056,0,0,1-1.357,2.885l-2.922,1.75v0A3.131,3.131,0,0,0,640.716,339.884Z" transform="translate(-616.094 -302.465)" fill="#fe9800"/>
        </g>
        <g id="Grupo_155097" data-name="Grupo 155097" transform="translate(3.319 13.953)">
          <path id="Trazado_201939" data-name="Trazado 201939" d="M625.538,335.862l-5.056-7.127V326.4l5.056-1.271v2.745l-3.527.545,3.527,4.713Z" transform="translate(-620.482 -325.108)" fill="#fff"/>
          <path id="Trazado_201940" data-name="Trazado 201940" d="M631.2,338.637l1.826-13.545,1.638.944-1.847,13.535Z" transform="translate(-624.59 -325.092)" fill="#fff"/>
          <path id="Trazado_201941" data-name="Trazado 201941" d="M638.985,341.835v-2.726l3.53-.62-3.53-4.668v-2.7l5.063,7.112v2.309Z" transform="translate(-627.575 -327.401)" fill="#fff"/>
        </g>
      </g>
      <g id="Grupo_155101" data-name="Grupo 155101" transform="translate(469.569 304.108)">
        <g id="Grupo_155099" data-name="Grupo 155099" transform="translate(0 0)">
          <path id="Trazado_201942" data-name="Trazado 201942" d="M551.476,349.912a9.79,9.79,0,0,0,4.414,7.645l15.794,9.118c2.427,1.4,4.415.256,4.415-2.548V345.89a9.793,9.793,0,0,0-4.415-7.645l-15.794-9.118c-2.428-1.4-4.414-.255-4.414,2.549Z" transform="translate(-551.476 -326.708)" fill="#fe769c"/>
          <path id="Trazado_201943" data-name="Trazado 201943" d="M577.093,363V344.759a9.793,9.793,0,0,0-4.415-7.645l-15.794-9.118a3.3,3.3,0,0,0-2.815-.445v0l2.662-1.63a3.048,3.048,0,0,1,3.191.258l15.8,9.118a9.8,9.8,0,0,1,4.414,7.646l0,18.237a3.055,3.055,0,0,1-1.357,2.885l-2.921,1.749v0A3.127,3.127,0,0,0,577.093,363Z" transform="translate(-552.47 -325.577)" fill="#ff2363"/>
        </g>
        <g id="Grupo_155100" data-name="Grupo 155100" transform="translate(2.812 11.332)">
          <path id="Trazado_201944" data-name="Trazado 201944" d="M556.036,354.4V343.954l2.36,1.364a10.461,10.461,0,0,1,1.75,1.168,4.645,4.645,0,0,1,1.048,1.628,5.927,5.927,0,0,1,.422,2.278,3.559,3.559,0,0,1-.242,1.479,1.262,1.262,0,0,1-.619.673,1.156,1.156,0,0,1-.764.054,7.85,7.85,0,0,1-1.525-.731l-.96-.553v3.942Zm1.471-7.832v2.965l.805.466a3.37,3.37,0,0,0,1.165.508.516.516,0,0,0,.459-.249,1.327,1.327,0,0,0,.165-.717,2.544,2.544,0,0,0-.233-1.075,2.284,2.284,0,0,0-.591-.805,8.374,8.374,0,0,0-1.059-.682Z" transform="translate(-556.036 -343.954)" fill="#fff"/>
          <path id="Trazado_201945" data-name="Trazado 201945" d="M567.055,360.769V350.318l1.471.85v4.112l2.883,1.665v-4.114l1.473.849v10.451l-1.472-.849v-4.569l-2.883-1.664v4.568Z" transform="translate(-560.26 -346.394)" fill="#fff"/>
          <path id="Trazado_201946" data-name="Trazado 201946" d="M578.969,367.647V357.2l2.362,1.363a10.455,10.455,0,0,1,1.751,1.168,4.661,4.661,0,0,1,1.049,1.628,5.961,5.961,0,0,1,.421,2.279,3.584,3.584,0,0,1-.241,1.479,1.278,1.278,0,0,1-.619.673,1.161,1.161,0,0,1-.764.054,7.927,7.927,0,0,1-1.527-.732l-.959-.553V368.5Zm1.472-7.833v2.966l.805.464a3.356,3.356,0,0,0,1.165.509.516.516,0,0,0,.459-.249,1.314,1.314,0,0,0,.165-.716,2.515,2.515,0,0,0-.234-1.077,2.288,2.288,0,0,0-.589-.8,8.758,8.758,0,0,0-1.06-.683Z" transform="translate(-564.827 -349.03)" fill="#fff"/>
        </g>
      </g>
      <g id="Grupo_155104" data-name="Grupo 155104" transform="translate(423.47 327.152)">
        <g id="Grupo_155102" data-name="Grupo 155102">
          <path id="Trazado_201947" data-name="Trazado 201947" d="M476.719,387.281a9.792,9.792,0,0,0,4.414,7.646l15.794,9.118c2.428,1.4,4.413.256,4.413-2.548V383.26a9.8,9.8,0,0,0-4.414-7.646L481.133,366.5c-2.428-1.4-4.414-.255-4.414,2.549Z" transform="translate(-476.719 -364.078)" fill="#27abb0"/>
          <path id="Trazado_201948" data-name="Trazado 201948" d="M502.334,400.366V382.128a9.8,9.8,0,0,0-4.414-7.646l-15.794-9.118a3.307,3.307,0,0,0-2.816-.446h0l2.661-1.63a3.045,3.045,0,0,1,3.192.257l15.795,9.118a9.8,9.8,0,0,1,4.415,7.646l0,18.238a3.057,3.057,0,0,1-1.357,2.885l-2.922,1.749h0A3.132,3.132,0,0,0,502.334,400.366Z" transform="translate(-477.713 -362.946)" fill="#018489"/>
        </g>
        <g id="Grupo_155103" data-name="Grupo 155103" transform="translate(2.311 12.32)">
          <path id="Trazado_201949" data-name="Trazado 201949" d="M485.208,390.3l1.375,1.376a2.224,2.224,0,0,1-1.051,1.673,2.093,2.093,0,0,1-1.866-.332,5.981,5.981,0,0,1-2.3-2.6,8.818,8.818,0,0,1-.9-4.008q0-2.341.905-3.113t2.381.079a5.576,5.576,0,0,1,2.094,2.227,7.338,7.338,0,0,1,.718,2.141l-1.4-.363a3.916,3.916,0,0,0-.519-1.451,2.735,2.735,0,0,0-.961-.977.977.977,0,0,0-1.267.016,3.172,3.172,0,0,0-.486,2.143,6.771,6.771,0,0,0,.479,2.809,3.183,3.183,0,0,0,1.245,1.475.916.916,0,0,0,.972.08A1.674,1.674,0,0,0,485.208,390.3Z" transform="translate(-480.466 -382.925)" fill="#fff"/>
          <path id="Trazado_201950" data-name="Trazado 201950" d="M491.775,394.306l1.379.619a4.363,4.363,0,0,0,.506,1.653,2.768,2.768,0,0,0,1.027,1.029q.684.394,1.033.21a.732.732,0,0,0,.347-.707,1.534,1.534,0,0,0-.146-.65,2.741,2.741,0,0,0-.509-.7q-.251-.259-1.136-1.065a8,8,0,0,1-1.6-1.851,4.6,4.6,0,0,1-.646-2.261,2.031,2.031,0,0,1,.3-1.164.985.985,0,0,1,.876-.444,2.964,2.964,0,0,1,1.383.473,5.272,5.272,0,0,1,1.989,1.922,5.129,5.129,0,0,1,.7,2.47l-1.418-.735a3.111,3.111,0,0,0-.391-1.265,2.471,2.471,0,0,0-.9-.834,1.175,1.175,0,0,0-.966-.22c-.15.057-.225.209-.224.452a1.339,1.339,0,0,0,.21.69,7.282,7.282,0,0,0,1.3,1.379,13,13,0,0,1,1.531,1.559,5.056,5.056,0,0,1,.775,1.4,4.816,4.816,0,0,1,.283,1.657,2.357,2.357,0,0,1-.338,1.313,1.045,1.045,0,0,1-.949.5,3.377,3.377,0,0,1-1.527-.54,5.466,5.466,0,0,1-2.045-2A6.855,6.855,0,0,1,491.775,394.306Z" transform="translate(-484.801 -385.245)" fill="#fff"/>
          <path id="Trazado_201951" data-name="Trazado 201951" d="M502.388,400.433l1.381.619a4.345,4.345,0,0,0,.5,1.653,2.791,2.791,0,0,0,1.029,1.029c.456.264.8.332,1.032.208a.728.728,0,0,0,.348-.705,1.537,1.537,0,0,0-.147-.65,2.728,2.728,0,0,0-.509-.7c-.166-.174-.546-.528-1.136-1.066a7.976,7.976,0,0,1-1.6-1.851,4.588,4.588,0,0,1-.646-2.26,2.028,2.028,0,0,1,.3-1.164.987.987,0,0,1,.878-.444,2.952,2.952,0,0,1,1.382.472A5.289,5.289,0,0,1,507.2,397.5a5.171,5.171,0,0,1,.7,2.472l-1.419-.736a3.113,3.113,0,0,0-.39-1.265,2.468,2.468,0,0,0-.9-.834,1.172,1.172,0,0,0-.968-.22c-.151.057-.226.208-.226.451a1.36,1.36,0,0,0,.212.69,7.176,7.176,0,0,0,1.3,1.379,13.026,13.026,0,0,1,1.53,1.56,5.071,5.071,0,0,1,.775,1.4,4.786,4.786,0,0,1,.282,1.656,2.347,2.347,0,0,1-.337,1.314,1.044,1.044,0,0,1-.948.5,3.4,3.4,0,0,1-1.529-.541,5.467,5.467,0,0,1-2.046-2A6.853,6.853,0,0,1,502.388,400.433Z" transform="translate(-488.87 -387.594)" fill="#fff"/>
        </g>
      </g>
      <g id="Grupo_155107" data-name="Grupo 155107" transform="translate(583.508 421.161)">
        <g id="Grupo_155105" data-name="Grupo 155105" transform="translate(0 0)">
          <path id="Trazado_201952" data-name="Trazado 201952" d="M736.246,539.733a9.785,9.785,0,0,0,4.414,7.644l15.793,9.12c2.428,1.4,4.414.254,4.414-2.55V535.71a9.794,9.794,0,0,0-4.415-7.645l-15.793-9.119c-2.428-1.4-4.414-.255-4.414,2.549Z" transform="translate(-736.246 -516.529)" fill="#005ff1" opacity="0.7"/>
          <path id="Trazado_201953" data-name="Trazado 201953" d="M761.861,552.815V534.579a9.794,9.794,0,0,0-4.415-7.645l-15.793-9.119a3.306,3.306,0,0,0-2.816-.446h0l2.662-1.63a3.045,3.045,0,0,1,3.191.258l15.795,9.118a9.788,9.788,0,0,1,4.413,7.646V551a3.056,3.056,0,0,1-1.357,2.885l-2.922,1.75v0A3.13,3.13,0,0,0,761.861,552.815Z" transform="translate(-737.24 -515.397)" fill="#005ff1"/>
        </g>
        <g id="Grupo_155106" data-name="Grupo 155106" transform="translate(5.076 13.808)">
          <path id="Trazado_201954" data-name="Trazado 201954" d="M748.1,537.789l1.664.96v6.041a5.911,5.911,0,0,1-.181,1.715,1.162,1.162,0,0,1-.878.831,2.517,2.517,0,0,1-1.682-.466,4.942,4.942,0,0,1-1.882-1.878,5.453,5.453,0,0,1-.665-2.7l1.571.7a3.926,3.926,0,0,0,.208,1.277,1.929,1.929,0,0,0,.824.989q.56.326.789.09a2.436,2.436,0,0,0,.231-1.394Z" transform="translate(-744.478 -537.789)" fill="#fff"/>
          <path id="Trazado_201955" data-name="Trazado 201955" d="M755.007,550.217l1.59.641a2.641,2.641,0,0,0,.411,1.048,2.6,2.6,0,0,0,.869.777,1.385,1.385,0,0,0,.924.274c.139-.041.207-.165.207-.368a.832.832,0,0,0-.112-.409,2.584,2.584,0,0,0-.53-.548,16.978,16.978,0,0,1-2.429-2.294,3.308,3.308,0,0,1-.709-1.966,1.115,1.115,0,0,1,.612-1.156c.41-.169,1.046-.008,1.905.488a5.928,5.928,0,0,1,1.827,1.517,4.783,4.783,0,0,1,.823,1.841l-1.494-.544a2.142,2.142,0,0,0-.364-.826,2.4,2.4,0,0,0-.765-.657,1.626,1.626,0,0,0-.893-.314c-.123.023-.183.113-.183.267a.744.744,0,0,0,.157.42,11.354,11.354,0,0,0,1.481,1.371,9.189,9.189,0,0,1,1.767,1.833,3.008,3.008,0,0,1,.5,1.645,1.2,1.2,0,0,1-.687,1.239q-.689.286-2.037-.493a6.139,6.139,0,0,1-1.936-1.69A5.312,5.312,0,0,1,755.007,550.217Z" transform="translate(-748.514 -540.995)" fill="#fff"/>
        </g>
      </g>
      <g id="Grupo_155110" data-name="Grupo 155110" transform="translate(376.976 346.632)">
        <g id="Grupo_155108" data-name="Grupo 155108">
          <path id="Trazado_201956" data-name="Trazado 201956" d="M401.32,418.872a9.789,9.789,0,0,0,4.414,7.644l15.795,9.119c2.428,1.4,4.412.255,4.412-2.548V414.849a9.794,9.794,0,0,0-4.413-7.645l-15.795-9.118c-2.428-1.4-4.414-.256-4.414,2.548Z" transform="translate(-401.32 -395.667)" fill="#febf3e"/>
          <path id="Trazado_201957" data-name="Trazado 201957" d="M426.935,431.956V413.718a9.794,9.794,0,0,0-4.413-7.645l-15.795-9.118a3.3,3.3,0,0,0-2.814-.446h0l2.662-1.632a3.05,3.05,0,0,1,3.191.258l15.795,9.118a9.8,9.8,0,0,1,4.414,7.645v18.239a3.056,3.056,0,0,1-1.358,2.885L425.7,434.77v0A3.13,3.13,0,0,0,426.935,431.956Z" transform="translate(-402.314 -394.536)" fill="#fe9800"/>
        </g>
        <g id="Grupo_155109" data-name="Grupo 155109" transform="translate(2.319 11.444)">
          <path id="Trazado_201958" data-name="Trazado 201958" d="M405.081,421.105V413.1l1.075.622v3.152l2.108,1.218,0-3.153,1.076.622v8.008l-1.074-.62,0-3.5-2.106-1.217v3.5Z" transform="translate(-405.081 -413.095)" fill="#fff"/>
          <path id="Trazado_201959" data-name="Trazado 201959" d="M414.749,426.688v-6.653l-1.582-.913v-1.356l4.235,2.445v1.354l-1.576-.91v6.655Z" transform="translate(-408.181 -414.886)" fill="#fff"/>
          <path id="Trazado_201960" data-name="Trazado 201960" d="M421.138,430.376v-8.008l1.61.929.966,6.02.955-4.91,1.614.932v8.01l-1-.578v-6.305l-1.058,5.7-1.035-.6-1.053-6.913v6.305Z" transform="translate(-411.236 -416.65)" fill="#fff"/>
          <path id="Trazado_201961" data-name="Trazado 201961" d="M431.261,436.262v-7.944l1.075.621v6.594l2.673,1.543v1.35Z" transform="translate(-415.117 -418.931)" fill="#fff"/>
        </g>
      </g>
      <g id="Grupo_155113" data-name="Grupo 155113" transform="translate(585.028 372.308)">
        <g id="Grupo_155111" data-name="Grupo 155111">
          <path id="Trazado_201962" data-name="Trazado 201962" d="M738.711,460.51a9.788,9.788,0,0,0,4.413,7.645l15.794,9.119c2.429,1.4,4.415.254,4.415-2.549V456.487a9.788,9.788,0,0,0-4.415-7.645l-15.794-9.119c-2.428-1.4-4.413-.256-4.413,2.548Z" transform="translate(-738.711 -437.306)" fill="#fc734a"/>
          <path id="Trazado_201963" data-name="Trazado 201963" d="M764.327,473.593V455.356a9.788,9.788,0,0,0-4.415-7.645l-15.794-9.119a3.3,3.3,0,0,0-2.814-.445h0l2.661-1.632a3.053,3.053,0,0,1,3.192.258l15.794,9.119a9.8,9.8,0,0,1,4.415,7.645l0,18.237a3.059,3.059,0,0,1-1.358,2.886l-2.922,1.749v0A3.13,3.13,0,0,0,764.327,473.593Z" transform="translate(-739.705 -436.175)" fill="#d64d24"/>
        </g>
        <g id="Grupo_155112" data-name="Grupo 155112" transform="translate(2.957 13.238)">
          <path id="Trazado_201964" data-name="Trazado 201964" d="M748.528,466l1.456,1.511a2.744,2.744,0,0,1-1.113,1.988,2.029,2.029,0,0,1-1.977-.281,6.272,6.272,0,0,1-2.435-2.879,10.608,10.608,0,0,1-.952-4.575q0-2.7.958-3.642t2.52-.039a5.759,5.759,0,0,1,2.219,2.453,8.661,8.661,0,0,1,.761,2.432l-1.487-.341a4.556,4.556,0,0,0-.55-1.646,2.8,2.8,0,0,0-1.017-1.074.979.979,0,0,0-1.342.087,4.053,4.053,0,0,0-.514,2.5,8.244,8.244,0,0,0,.507,3.215,3.329,3.329,0,0,0,1.319,1.633.9.9,0,0,0,1.03.039A2.111,2.111,0,0,0,748.528,466Z" transform="translate(-743.507 -457.642)" fill="#fff"/>
          <path id="Trazado_201965" data-name="Trazado 201965" d="M757.521,474.506v-2.811l-1.949-1.125v-1.94l1.949,1.125v-2.813l1.3.75V470.5l1.954,1.128v1.94l-1.954-1.127v2.813Z" transform="translate(-748.132 -461.207)" fill="#fff"/>
          <path id="Trazado_201966" data-name="Trazado 201966" d="M767.356,480.186v-2.811l-1.947-1.125v-1.941l1.947,1.125v-2.812l1.3.749v2.813l1.952,1.127v1.94l-1.952-1.127v2.811Z" transform="translate(-751.903 -463.384)" fill="#fff"/>
        </g>
      </g>
      <g id="Grupo_155115" data-name="Grupo 155115" transform="translate(547.793 327.152)">
        <g id="Grupo_155114" data-name="Grupo 155114">
          <path id="Trazado_201967" data-name="Trazado 201967" d="M678.329,387.283a9.787,9.787,0,0,0,4.413,7.645l15.795,9.118c2.428,1.4,4.414.256,4.414-2.548V383.259a9.79,9.79,0,0,0-4.414-7.645L682.742,366.5c-2.428-1.4-4.413-.254-4.413,2.549Z" transform="translate(-678.329 -364.078)" fill="#27abb0"/>
          <path id="Trazado_201968" data-name="Trazado 201968" d="M703.945,400.366V382.128a9.79,9.79,0,0,0-4.414-7.645l-15.795-9.119a3.3,3.3,0,0,0-2.815-.445h0l2.661-1.632a3.053,3.053,0,0,1,3.192.258l15.795,9.12a9.8,9.8,0,0,1,4.415,7.645l0,18.237a3.057,3.057,0,0,1-1.357,2.885L702.7,403.18h0A3.132,3.132,0,0,0,703.945,400.366Z" transform="translate(-679.323 -362.947)" fill="#018489"/>
        </g>
        <path id="Trazado_201969" data-name="Trazado 201969" d="M699.18,393.4l-.862-.5a1.7,1.7,0,0,1-.742-.836c-.07-.265-.107-1.075.133-1.214l.61-.351c.239-.141.239-.6,0-1.013l-1-1.743c-.241-.417-.637-.646-.88-.507l-.608.352a.648.648,0,0,1-.773-.126,3.45,3.45,0,0,1-.7-1.428v-.993a1.379,1.379,0,0,0-.62-1.075l-1.423-.821c-.343-.2-.622-.036-.622.358v.993c0,.4-.16.69-.353.655a2.185,2.185,0,0,1-1.116-.8l-.608-1.053c-.243-.419-.638-.647-.881-.508l-1.008.581c-.239.14-.239.6,0,1.014l.609,1.054a1.531,1.531,0,0,1,.277,1.052c-.09.161-.546.493-.886.3l-.862-.5c-.342-.2-.621-.037-.618.358v1.643a1.371,1.371,0,0,0,.618,1.074l.862.5a1.7,1.7,0,0,1,.744.836c.068.264.105,1.072-.134,1.213l-.612.35c-.238.141-.238.6,0,1.015l1.006,1.743c.24.417.636.646.877.506l.609-.351a.645.645,0,0,1,.773.128,3.47,3.47,0,0,1,.7,1.426v1a1.374,1.374,0,0,0,.622,1.075l1.42.82c.343.2.622.037.622-.356v-.993c0-.4.159-.689.355-.655a2.214,2.214,0,0,1,1.118.8l.608,1.054c.243.418.639.646.88.508l1.006-.581c.239-.142.239-.6,0-1.015l-.609-1.055a1.526,1.526,0,0,1-.277-1.051c.091-.162.546-.493.887-.3l.86.5c.344.2.621.038.621-.357v-1.643A1.371,1.371,0,0,0,699.18,393.4Zm-6.158,1.574a6.88,6.88,0,0,1-3.11-5.387c0-1.984,1.394-2.787,3.11-1.8a6.88,6.88,0,0,1,3.113,5.387C696.134,395.159,694.739,395.963,693.022,394.972Z" transform="translate(-681.364 -370.537)" fill="#fff"/>
      </g>
      <g id="Grupo_155118" data-name="Grupo 155118" transform="translate(580.042 465.283)">
        <g id="Grupo_155116" data-name="Grupo 155116" transform="translate(0 0)">
          <path id="Trazado_201970" data-name="Trazado 201970" d="M730.625,611.284a9.787,9.787,0,0,0,4.413,7.644l15.795,9.119c2.428,1.4,4.413.255,4.413-2.547V607.261a9.791,9.791,0,0,0-4.414-7.645L735.038,590.5c-2.428-1.4-4.413-.255-4.413,2.548Z" transform="translate(-730.625 -588.08)" fill="#fe769c"/>
          <path id="Trazado_201971" data-name="Trazado 201971" d="M756.24,624.368V606.13a9.791,9.791,0,0,0-4.414-7.645l-15.795-9.118a3.3,3.3,0,0,0-2.814-.446h0l2.661-1.632a3.053,3.053,0,0,1,3.193.258l15.794,9.118a9.8,9.8,0,0,1,4.415,7.645l0,18.237a3.055,3.055,0,0,1-1.357,2.885L755,627.183v0A3.124,3.124,0,0,0,756.24,624.368Z" transform="translate(-731.619 -586.949)" fill="#ff2363"/>
        </g>
        <g id="Grupo_155117" data-name="Grupo 155117" transform="translate(4.059 9.956)">
          <path id="Trazado_201972" data-name="Trazado 201972" d="M758.122,614.306l-.873-1.51-2.008,1.158a14.138,14.138,0,0,1,.979,1.453Z" transform="translate(-744.121 -606.813)" fill="#fff"/>
          <path id="Trazado_201973" data-name="Trazado 201973" d="M743.154,606.569l-2.005-3.475-.874.5,1.9,3.3A2.862,2.862,0,0,1,743.154,606.569Z" transform="translate(-738.383 -603.094)" fill="#fff"/>
          <path id="Trazado_201974" data-name="Trazado 201974" d="M750.327,608.024v-3.485l-1.233-.713v3.485a6.167,6.167,0,0,1,.615.284C749.922,607.716,750.122,607.879,750.327,608.024Z" transform="translate(-741.765 -603.375)" fill="#fff"/>
          <path id="Trazado_201975" data-name="Trazado 201975" d="M737.208,612.112l2.071,1.194a5.817,5.817,0,0,1,.2-1.311l-2.269-1.31Z" transform="translate(-737.208 -606.004)" fill="#fff"/>
          <path id="Trazado_201976" data-name="Trazado 201976" d="M759.3,623.441a9.675,9.675,0,0,1,.2,1.539l2.069,1.194V624.75Z" transform="translate(-745.677 -610.894)" fill="#fff"/>
          <path id="Trazado_201977" data-name="Trazado 201977" d="M747.3,612.189c-2.482-1.433-4.5-.271-4.5,2.6a11.361,11.361,0,0,0,1.183,4.194c.618,1.442,1.415,2.335,1.415,3.592v2.681a2.08,2.08,0,0,0,.935,1.623l1.932,1.116c.514.3.935.052.935-.543,0,0,0-1.838,0-2.681,0-1.256.8-1.229,1.413-1.958a4.039,4.039,0,0,0,1.187-2.828A9.954,9.954,0,0,0,747.3,612.189Zm2.427,7.472s.562-2.1-2.066-6.359a8.8,8.8,0,0,1,3.442,7.154Z" transform="translate(-739.35 -606.345)" fill="#fff"/>
        </g>
      </g>
      <g id="Grupo_155120" data-name="Grupo 155120" transform="translate(424.998 269.573)">
        <g id="Grupo_155119" data-name="Grupo 155119">
          <path id="Trazado_201978" data-name="Trazado 201978" d="M479.2,293.907a9.787,9.787,0,0,0,4.414,7.645l15.794,9.12c2.43,1.4,4.414.255,4.414-2.549V289.886a9.789,9.789,0,0,0-4.414-7.646l-15.794-9.118c-2.428-1.4-4.414-.255-4.414,2.549Z" transform="translate(-479.196 -270.704)" fill="#005ff1" opacity="0.7"/>
          <path id="Trazado_201979" data-name="Trazado 201979" d="M504.812,306.992V288.755a9.789,9.789,0,0,0-4.414-7.646L484.6,271.991a3.3,3.3,0,0,0-2.815-.446h0l2.661-1.632a3.053,3.053,0,0,1,3.192.259l15.795,9.118a9.8,9.8,0,0,1,4.415,7.646l0,18.237a3.057,3.057,0,0,1-1.357,2.885l-2.922,1.749v0A3.128,3.128,0,0,0,504.812,306.992Z" transform="translate(-480.19 -269.573)" fill="#005ff1"/>
        </g>
        <path id="Trazado_201980" data-name="Trazado 201980" d="M500.19,296.268c-2.236-3.866-5.853-5.956-8.085-4.668-2.093,1.208-2.2,4.953-.365,8.6l-.956.549-.4-.7-4.449,2.568,1.621,2.809,4.45-2.567-.4-.7.953-.551c2.246,3.41,5.542,5.191,7.635,3.982C502.418,304.311,502.418,300.133,500.19,296.268Zm-1.037,7.54c-1.659.959-4.352-.6-6.014-3.472s-1.659-5.986,0-6.945,4.354.6,6.014,3.474S500.812,302.847,499.152,303.808Z" transform="translate(-481.778 -277.871)" fill="#fff"/>
      </g>
      <path id="Trazado_201981" data-name="Trazado 201981" d="M620.287,391.351a4.116,4.116,0,0,0,1.856,3.215l6.641,3.834c1.022.589,1.856.107,1.856-1.072V389.66a4.115,4.115,0,0,0-1.856-3.215l-6.641-3.834c-1.021-.59-1.856-.108-1.856,1.071Z" transform="translate(-108.285 -43.237)" fill="#005ff1" opacity="0.7"/>
      <path id="Trazado_201982" data-name="Trazado 201982" d="M443.99,344.279a4.115,4.115,0,0,0,1.856,3.214l6.642,3.835c1.021.59,1.855.107,1.855-1.072v-7.668a4.118,4.118,0,0,0-1.855-3.215l-6.642-3.834c-1.021-.59-1.856-.108-1.856,1.072Z" transform="translate(-40.702 -25.192)" fill="#005ff1" opacity="0.7"/>
      <path id="Trazado_201983" data-name="Trazado 201983" d="M796.021,606.414a4.119,4.119,0,0,0,1.856,3.215l6.641,3.834c1.022.59,1.856.107,1.856-1.072v-7.668a4.116,4.116,0,0,0-1.856-3.215l-6.641-3.834c-1.02-.589-1.856-.107-1.856,1.072Z" transform="translate(-175.653 -125.681)" fill="#005ff1" opacity="0.7"/>
      <path id="Trazado_201984" data-name="Trazado 201984" d="M744.658,412.573a4.116,4.116,0,0,0,1.856,3.214l6.641,3.835c1.021.589,1.857.107,1.857-1.072v-7.669a4.117,4.117,0,0,0-1.857-3.215l-6.641-3.834c-1.021-.59-1.856-.108-1.856,1.072Z" transform="translate(-155.963 -51.372)" fill="#005ff1" opacity="0.7"/>
      <path id="Trazado_201985" data-name="Trazado 201985" d="M675.7,433.627a4.118,4.118,0,0,0,1.857,3.214l6.641,3.834c1.021.59,1.855.107,1.855-1.071v-7.669a4.119,4.119,0,0,0-1.855-3.215l-6.641-3.833c-1.021-.589-1.857-.109-1.857,1.071Z" transform="translate(-129.528 -59.443)" fill="#005ff1" opacity="0.7"/>
      <path id="Trazado_201986" data-name="Trazado 201986" d="M680.277,569.42c0-3.428-2.429-4.829-5.4-3.116L635.77,588.884v3.68l36.726-21.2c2.631-1.519,4.783-.276,4.783,2.761v46.42a10.612,10.612,0,0,1-4.783,8.285l-36.727,21.2v3.678l39.112-22.58a11.972,11.972,0,0,0,5.4-9.346Z" transform="translate(-114.221 -113.472)" fill="#005ff1"/>
      <g id="Grupo_155121" data-name="Grupo 155121" transform="translate(440.184 496.762)">
        <path id="Trazado_201987" data-name="Trazado 201987" d="M508.429,670.389l-.607,4.043s-.279,2.682,3.029,2.982,4.52-1.92,5.5-3.514,3.4-4.862,6.01-5.325,7.5-4.668,6.431-7.288c-.932-2.274-6.521-3.084-12.019.556v1.464s0,3.612-3.03,5.169A19.46,19.46,0,0,1,508.429,670.389Z" transform="translate(-505.354 -646.181)" fill="#25228c" fill-rule="evenodd"/>
        <path id="Trazado_201988" data-name="Trazado 201988" d="M517.318,638.654c.009-.21.016-.431.025-.657-4.067,1.619-8.824,3.526-13.521,5.443l2.462,19.375s5.89,2.524,9.765-1.7a11.388,11.388,0,0,0,2.875-9.272S517.134,643.1,517.318,638.654Z" transform="translate(-503.823 -637.997)" fill="#0b53ff"/>
      </g>
      <g id="Grupo_155123" data-name="Grupo 155123" transform="translate(458.912 477.289)">
        <g id="Grupo_155122" data-name="Grupo 155122">
          <path id="Trazado_201989" data-name="Trazado 201989" d="M558.409,683.558c-3.758.048-7.018,1.949-11.057-.668,0,0-2.954,3.258-10.048,3.631l-1.18,2.725a12.722,12.722,0,0,0-.988,5.293s1.381,3.254,5.813,2.562,5.589-2.108,10.883-1.6c4.664.443,11.478-1.873,13.348-6.095S562.548,683.5,558.409,683.558Z" transform="translate(-534.554 -635.735)" fill="#25228c" fill-rule="evenodd"/>
          <path id="Trazado_201990" data-name="Trazado 201990" d="M540.062,621.522a13.547,13.547,0,0,0-2.722,9.256c.393,5.666-1.839,26.8-3.147,32.325,0,0,10.989.572,15.69-2.26s2.884-5.533,2.884-5.533a66.724,66.724,0,0,1-.538-12.77c.523-5.241,4.5-23.258,5.351-31.1,0,0,.771-5.554-3.287-4.976S543.6,614.081,540.062,621.522Z" transform="translate(-534.193 -606.42)" fill="#1f74ff"/>
        </g>
        <path id="Trazado_201991" data-name="Trazado 201991" d="M542.31,637.074c-.2-5.791,1.548-8.723,1.548-8.723a12.69,12.69,0,0,1-3.8,1.579,13.547,13.547,0,0,0-2.722,9.256c.393,5.666-1.839,26.8-3.147,32.325a57.722,57.722,0,0,0,8.465-.278C543.6,660.165,542.477,641.816,542.31,637.074Z" transform="translate(-534.193 -614.827)" fill="#0b53ff"/>
      </g>
      <g id="Grupo_155124" data-name="Grupo 155124" transform="translate(390.548 470.813)">
        <path id="Trazado_201992" data-name="Trazado 201992" d="M423.414,626.314a9.339,9.339,0,0,0,3.11,8.151c4,3.8,13.535,10.027,19.957,11.261s19.561-1.827,26.179-4.839,21.637-12.4,24.2-14.572,3.654-4.5,3.11-6.6-4.741-3.478-6.124-3.924-14.472-6.717-18.473-9.779-7.854-5.828-9.138-7.26-4.691-3.855-11.065-2.371A45.2,45.2,0,0,0,432.155,610.9C424.993,619.4,423.414,626.314,423.414,626.314Z" transform="translate(-423.329 -595.918)" fill="#018489"/>
        <path id="Trazado_201993" data-name="Trazado 201993" d="M499.974,633.427a3.408,3.408,0,0,0-1.376-1.745,2.339,2.339,0,0,1-.1,2.217c-1.185,1.63-9.534,7.607-15.955,10.916S464.51,655.728,452.8,656.274a64.679,64.679,0,0,1-17.853-6.674,24.448,24.448,0,0,1-11-11.3,17.118,17.118,0,0,0-.536,1.727,9.339,9.339,0,0,0,3.11,8.151c4,3.8,13.535,10.027,19.957,11.261s19.561-1.826,26.179-4.839,21.637-12.4,24.2-14.572S500.518,635.523,499.974,633.427Z" transform="translate(-423.329 -609.628)" fill="#004f49"/>
      </g>
      <path id="Trazado_201994" data-name="Trazado 201994" d="M509.452,617.5s-14.032,5.471-26.726,10.684c-12.151,4.99-19.341,2.864-24.166-2.419-6.476-7.091-3.562-22.623-3.562-22.623l28.225-2.317s24.794-4.608,34.458-4.89,9.685,7.811,9.288,11.481C526.97,607.416,523.545,613.495,509.452,617.5Z" transform="translate(-44.671 -125.108)" fill="#1f74ff"/>
      <g id="Grupo_155125" data-name="Grupo 155125" transform="translate(390.674 385.024)">
        <path id="Trazado_201995" data-name="Trazado 201995" d="M608.042,521.537,539,561.5,423.534,494.7l69.042-37.9Z" transform="translate(-423.534 -456.797)" fill="#94d2ff"/>
        <path id="Trazado_201996" data-name="Trazado 201996" d="M679.823,564.807,610.78,604.771v-3.024l69.043-39.963Z" transform="translate(-495.315 -497.043)" fill="#005ff1"/>
        <path id="Trazado_201997" data-name="Trazado 201997" d="M539,585.063v3.024l-115.465-66.8v-3.023Z" transform="translate(-423.534 -480.36)" fill="#002dbf"/>
      </g>
      <g id="Grupo_155129" data-name="Grupo 155129" transform="translate(433.576 419.203)">
        <path id="Trazado_201998" data-name="Trazado 201998" d="M544.175,550.78a1.363,1.363,0,0,1-1.225,0l-49.59-28.631a.374.374,0,0,1,0-.707l15.711-9.074a1.38,1.38,0,0,1,1.228,0L559.888,541a.374.374,0,0,1,0,.709Z" transform="translate(-493.107 -512.223)" fill="#e1e8ec"/>
        <path id="Trazado_201999" data-name="Trazado 201999" d="M559.888,547.658l-15.713,9.072a1.364,1.364,0,0,1-1.225,0L493.36,528.1a.433.433,0,0,1-.252-.355h0v.822a.412.412,0,0,0,.251.384l49.59,28.631a1.359,1.359,0,0,0,1.225,0l15.713-9.072a.429.429,0,0,0,.252-.355v-.822A.455.455,0,0,1,559.888,547.658Z" transform="translate(-493.107 -518.173)" fill="#6392ad"/>
        <g id="Grupo_155128" data-name="Grupo 155128" transform="translate(3.725 1.865)">
          <path id="Trazado_202000" data-name="Trazado 202000" d="M513.711,519.763a.366.366,0,0,1-.307,0l-1.154-.669a.093.093,0,0,1,0-.176l1.154-.666a.337.337,0,0,1,.307,0l1.154.666c.087.049.087.128,0,.176Z" transform="translate(-504.146 -516.385)" fill="#95c4df"/>
          <path id="Trazado_202001" data-name="Trazado 202001" d="M516.936,521.623a.336.336,0,0,1-.3,0l-1.156-.666a.094.094,0,0,1,0-.178l1.156-.666a.332.332,0,0,1,.3,0l1.155.666a.094.094,0,0,1,0,.178Z" transform="translate(-505.383 -517.099)" fill="#95c4df"/>
          <path id="Trazado_202002" data-name="Trazado 202002" d="M520.159,523.483a.333.333,0,0,1-.305,0l-1.155-.664a.1.1,0,0,1,0-.18l1.155-.664a.332.332,0,0,1,.306,0l1.154.664a.1.1,0,0,1,0,.18Z" transform="translate(-506.618 -517.812)" fill="#95c4df"/>
          <path id="Trazado_202003" data-name="Trazado 202003" d="M523.384,525.345a.345.345,0,0,1-.309,0l-1.153-.665a.094.094,0,0,1,0-.178l1.152-.668a.352.352,0,0,1,.309,0l1.152.668a.094.094,0,0,1,0,.178Z" transform="translate(-507.853 -518.526)" fill="#95c4df"/>
          <path id="Trazado_202004" data-name="Trazado 202004" d="M526.607,527.206a.332.332,0,0,1-.306,0l-1.155-.666a.1.1,0,0,1,0-.178l1.155-.666a.34.34,0,0,1,.306,0l1.154.666a.094.094,0,0,1,0,.178Z" transform="translate(-509.09 -519.239)" fill="#95c4df"/>
          <path id="Trazado_202005" data-name="Trazado 202005" d="M529.831,529.068a.347.347,0,0,1-.307,0l-1.154-.667a.094.094,0,0,1,0-.178l1.154-.665a.343.343,0,0,1,.307,0l1.154.668a.092.092,0,0,1,0,.175Z" transform="translate(-510.326 -519.953)" fill="#95c4df"/>
          <path id="Trazado_202006" data-name="Trazado 202006" d="M533.054,530.929a.346.346,0,0,1-.308,0l-1.154-.666a.094.094,0,0,1,0-.177l1.154-.667a.342.342,0,0,1,.308,0l1.153.667a.093.093,0,0,1,0,.176Z" transform="translate(-511.561 -520.666)" fill="#95c4df"/>
          <path id="Trazado_202007" data-name="Trazado 202007" d="M536.278,532.789a.339.339,0,0,1-.306,0l-1.154-.666c-.085-.051-.085-.128,0-.177l1.154-.665a.332.332,0,0,1,.306,0l1.155.665c.084.049.084.126,0,.177Z" transform="translate(-512.797 -521.38)" fill="#95c4df"/>
          <path id="Trazado_202008" data-name="Trazado 202008" d="M539.5,534.651a.347.347,0,0,1-.31,0l-1.154-.666a.094.094,0,0,1,0-.177l1.154-.667a.351.351,0,0,1,.31,0l1.153.667c.084.048.084.127,0,.177Z" transform="translate(-514.033 -522.093)" fill="#95c4df"/>
          <path id="Trazado_202009" data-name="Trazado 202009" d="M542.725,536.512a.336.336,0,0,1-.306,0l-1.157-.665a.1.1,0,0,1,0-.178l1.157-.666a.34.34,0,0,1,.306,0l1.154.666a.094.094,0,0,1,0,.178Z" transform="translate(-515.268 -522.807)" fill="#95c4df"/>
          <path id="Trazado_202010" data-name="Trazado 202010" d="M545.949,538.373a.337.337,0,0,1-.307,0l-1.156-.667a.094.094,0,0,1,0-.177l1.156-.667a.341.341,0,0,1,.307,0l1.153.667a.093.093,0,0,1,0,.177Z" transform="translate(-516.504 -523.52)" fill="#95c4df"/>
          <path id="Trazado_202011" data-name="Trazado 202011" d="M578.7,557.282a.338.338,0,0,1-.306,0l-1.154-.666a.094.094,0,0,1,0-.177l1.154-.667a.338.338,0,0,1,.306,0l1.156.667a.094.094,0,0,1,0,.177Z" transform="translate(-529.059 -530.769)" fill="#95c4df"/>
          <path id="Trazado_202012" data-name="Trazado 202012" d="M581.921,559.142a.327.327,0,0,1-.306,0l-1.155-.666a.093.093,0,0,1,0-.176l1.154-.667a.338.338,0,0,1,.306,0l1.154.667c.085.047.085.128,0,.176Z" transform="translate(-530.294 -531.482)" fill="#95c4df"/>
          <path id="Trazado_202013" data-name="Trazado 202013" d="M585.146,561a.34.34,0,0,1-.305,0l-1.155-.667a.093.093,0,0,1,0-.177l1.155-.667a.341.341,0,0,1,.305,0l1.154.667a.094.094,0,0,1,0,.177Z" transform="translate(-531.53 -532.195)" fill="#95c4df"/>
          <path id="Trazado_202014" data-name="Trazado 202014" d="M588.367,562.864a.336.336,0,0,1-.3,0l-1.155-.665a.1.1,0,0,1,0-.178l1.155-.665a.328.328,0,0,1,.3,0l1.155.665a.094.094,0,0,1,0,.178Z" transform="translate(-532.767 -532.909)" fill="#95c4df"/>
          <path id="Trazado_202015" data-name="Trazado 202015" d="M575.427,559.169a.335.335,0,0,1-.306,0l-1.154-.666a.094.094,0,0,1,0-.178l1.154-.665a.335.335,0,0,1,.306,0l1.154.665c.086.05.086.131,0,.178Z" transform="translate(-527.805 -531.493)" fill="#95c4df"/>
          <path id="Trazado_202016" data-name="Trazado 202016" d="M578.65,561.031a.343.343,0,0,1-.306,0l-1.154-.666a.093.093,0,0,1,0-.177l1.154-.666a.335.335,0,0,1,.306,0l1.154.666a.094.094,0,0,1,0,.177Z" transform="translate(-529.04 -532.206)" fill="#95c4df"/>
          <path id="Trazado_202017" data-name="Trazado 202017" d="M581.874,562.893a.339.339,0,0,1-.3,0l-1.154-.667a.093.093,0,0,1,0-.176l1.154-.667a.332.332,0,0,1,.3,0l1.154.667c.085.048.085.127,0,.176Z" transform="translate(-530.277 -532.919)" fill="#95c4df"/>
          <path id="Trazado_202018" data-name="Trazado 202018" d="M572.158,561.058a.34.34,0,0,1-.307,0l-1.154-.665c-.083-.051-.083-.13,0-.177l1.154-.668a.348.348,0,0,1,.307,0l1.156.668c.083.047.083.126,0,.177Z" transform="translate(-526.552 -532.216)" fill="#95c4df"/>
          <path id="Trazado_202019" data-name="Trazado 202019" d="M575.38,562.918a.341.341,0,0,1-.305,0l-1.155-.665c-.086-.049-.086-.128,0-.178l1.155-.666a.337.337,0,0,1,.305,0l1.155.666a.1.1,0,0,1,0,.178Z" transform="translate(-527.786 -532.929)" fill="#95c4df"/>
          <path id="Trazado_202020" data-name="Trazado 202020" d="M578.6,564.779a.335.335,0,0,1-.305,0l-1.154-.666a.094.094,0,0,1,0-.178l1.154-.665a.326.326,0,0,1,.305,0l1.157.665a.1.1,0,0,1,0,.178Z" transform="translate(-529.023 -533.643)" fill="#95c4df"/>
          <path id="Trazado_202021" data-name="Trazado 202021" d="M581.828,565.919a.349.349,0,0,1-.305,0l-1.155-.668c-.084-.049-.084-.126,0-.178l3.17-1.828a.333.333,0,0,1,.307,0l1.154.665a.094.094,0,0,1,0,.177Z" transform="translate(-530.259 -533.633)" fill="#95c4df"/>
          <path id="Trazado_202022" data-name="Trazado 202022" d="M568.889,562.947a.361.361,0,0,1-.309,0l-1.154-.667a.1.1,0,0,1,0-.178l1.154-.668a.35.35,0,0,1,.309,0l1.154.668a.094.094,0,0,1,0,.178Z" transform="translate(-525.298 -532.94)" fill="#95c4df"/>
          <path id="Trazado_202023" data-name="Trazado 202023" d="M572.111,564.808a.348.348,0,0,1-.307,0l-1.155-.669a.092.092,0,0,1,0-.175l1.155-.667a.34.34,0,0,1,.307,0l1.154.667a.094.094,0,0,1,0,.178Z" transform="translate(-526.533 -533.653)" fill="#95c4df"/>
          <path id="Trazado_202024" data-name="Trazado 202024" d="M575.335,566.667a.337.337,0,0,1-.307,0L573.874,566a.094.094,0,0,1,0-.177l1.154-.666a.333.333,0,0,1,.307,0l1.154.666a.093.093,0,0,1,0,.177Z" transform="translate(-527.77 -534.367)" fill="#95c4df"/>
          <path id="Trazado_202025" data-name="Trazado 202025" d="M567.564,565.957a.326.326,0,0,1-.305,0l-3.1-1.788a.094.094,0,0,1,0-.178l1.155-.667a.34.34,0,0,1,.3,0l3.1,1.791c.085.048.085.127,0,.177Z" transform="translate(-524.044 -533.664)" fill="#95c4df"/>
          <path id="Trazado_202026" data-name="Trazado 202026" d="M572.064,568.557a.343.343,0,0,1-.307,0l-1.153-.667c-.086-.048-.086-.127,0-.176l1.153-.666a.336.336,0,0,1,.307,0l1.154.666c.085.049.085.128,0,.176Z" transform="translate(-526.516 -535.091)" fill="#95c4df"/>
          <path id="Trazado_202027" data-name="Trazado 202027" d="M575.288,569.693a.332.332,0,0,1-.307,0l-1.154-.665a.094.094,0,0,1,0-.178l3.17-1.829a.332.332,0,0,1,.307,0l1.154.664c.086.05.086.128,0,.178Z" transform="translate(-527.751 -535.081)" fill="#95c4df"/>
          <path id="Trazado_202028" data-name="Trazado 202028" d="M549.171,540.235a.342.342,0,0,1-.306,0l-1.154-.667a.092.092,0,0,1,0-.176l1.154-.668a.342.342,0,0,1,.306,0l1.155.668a.093.093,0,0,1,0,.176Z" transform="translate(-517.74 -524.234)" fill="#95c4df"/>
          <path id="Trazado_202029" data-name="Trazado 202029" d="M565.912,549.9a.347.347,0,0,1-.3,0l-1.156-.668c-.084-.049-.084-.126,0-.176l1.156-.666a.328.328,0,0,1,.3,0l1.155.666c.085.049.085.127,0,.176Z" transform="translate(-524.157 -527.939)" fill="#95c4df"/>
          <path id="Trazado_202030" data-name="Trazado 202030" d="M569.136,551.761a.328.328,0,0,1-.306,0l-1.156-.667a.094.094,0,0,1,0-.177l1.157-.665a.328.328,0,0,1,.3,0l1.154.665c.086.05.086.129,0,.177Z" transform="translate(-525.394 -528.652)" fill="#95c4df"/>
          <path id="Trazado_202031" data-name="Trazado 202031" d="M572.359,553.621a.327.327,0,0,1-.306,0l-1.154-.664c-.086-.051-.086-.13,0-.178l1.154-.667a.342.342,0,0,1,.306,0l1.154.667a.1.1,0,0,1,0,.178Z" transform="translate(-526.628 -529.366)" fill="#95c4df"/>
          <path id="Trazado_202032" data-name="Trazado 202032" d="M562.643,551.788a.339.339,0,0,1-.306,0l-1.154-.665c-.086-.05-.086-.129,0-.178l1.154-.665a.333.333,0,0,1,.307,0l1.154.665a.1.1,0,0,1,0,.178Z" transform="translate(-522.904 -528.663)" fill="#95c4df"/>
          <path id="Trazado_202033" data-name="Trazado 202033" d="M565.865,553.65a.342.342,0,0,1-.307,0l-1.153-.668a.092.092,0,0,1,0-.175l1.153-.667a.33.33,0,0,1,.307,0l1.154.667c.084.047.084.126,0,.175Z" transform="translate(-524.14 -529.376)" fill="#95c4df"/>
          <path id="Trazado_202034" data-name="Trazado 202034" d="M569.091,555.51a.341.341,0,0,1-.307,0l-1.154-.665c-.086-.049-.086-.128,0-.178l1.154-.666a.34.34,0,0,1,.307,0l1.154.666a.1.1,0,0,1,0,.179Z" transform="translate(-525.375 -530.089)" fill="#95c4df"/>
          <path id="Trazado_202035" data-name="Trazado 202035" d="M559.343,557.414a.33.33,0,0,1-.306,0l-1.154-.665a.092.092,0,0,1,0-.176l1.154-.668a.342.342,0,0,1,.306,0l1.154.668a.093.093,0,0,1,0,.176Z" transform="translate(-521.639 -530.819)" fill="#95c4df"/>
          <path id="Trazado_202036" data-name="Trazado 202036" d="M552.851,557.442a.338.338,0,0,1-.308,0l-1.153-.668c-.087-.048-.087-.128,0-.176l1.153-.666a.342.342,0,0,1,.308,0L554,556.6a.093.093,0,0,1,0,.176Z" transform="translate(-519.15 -530.83)" fill="#95c4df"/>
          <path id="Trazado_202037" data-name="Trazado 202037" d="M556.075,559.3a.346.346,0,0,1-.308,0l-1.154-.667a.094.094,0,0,1,0-.177l1.153-.667a.346.346,0,0,1,.308,0l1.153.667a.094.094,0,0,1,0,.177Z" transform="translate(-520.386 -531.544)" fill="#95c4df"/>
          <path id="Trazado_202038" data-name="Trazado 202038" d="M559.3,561.163a.347.347,0,0,1-.308,0l-1.154-.665a.093.093,0,0,1,0-.177l1.154-.668a.347.347,0,0,1,.306,0l1.156.668a.094.094,0,0,1,0,.177Z" transform="translate(-521.621 -532.257)" fill="#95c4df"/>
          <path id="Trazado_202039" data-name="Trazado 202039" d="M515.278,524.44a.332.332,0,0,1-.307,0l-1.154-.665a.093.093,0,0,1,0-.176l1.154-.666a.332.332,0,0,1,.307,0l1.155.666a.094.094,0,0,1,0,.176Z" transform="translate(-504.747 -518.179)" fill="#95c4df"/>
          <path id="Trazado_202040" data-name="Trazado 202040" d="M511.464,522.239a.337.337,0,0,1-.305,0l-2.176-1.257c-.083-.049-.083-.127,0-.178l1.154-.665a.348.348,0,0,1,.306,0l2.176,1.258c.084.049.084.128,0,.178Z" transform="translate(-502.893 -517.109)" fill="#95c4df"/>
          <path id="Trazado_202041" data-name="Trazado 202041" d="M518.5,526.3a.332.332,0,0,1-.306,0l-1.153-.665c-.086-.049-.086-.127,0-.178l1.153-.665a.339.339,0,0,1,.306,0l1.154.665c.085.051.085.128,0,.178Z" transform="translate(-505.982 -518.893)" fill="#95c4df"/>
          <path id="Trazado_202042" data-name="Trazado 202042" d="M521.726,528.164a.337.337,0,0,1-.307,0l-1.154-.665c-.084-.05-.084-.13,0-.177l1.154-.667a.349.349,0,0,1,.307,0l1.154.667a.094.094,0,0,1,0,.177Z" transform="translate(-507.218 -519.607)" fill="#95c4df"/>
          <path id="Trazado_202043" data-name="Trazado 202043" d="M524.947,530.025a.334.334,0,0,1-.306,0l-1.153-.666a.093.093,0,0,1,0-.176l1.153-.668a.342.342,0,0,1,.306,0l1.157.668a.094.094,0,0,1,0,.176Z" transform="translate(-508.454 -520.32)" fill="#95c4df"/>
          <path id="Trazado_202044" data-name="Trazado 202044" d="M528.172,531.888a.354.354,0,0,1-.308,0l-1.153-.668a.093.093,0,0,1,0-.177l1.153-.667a.339.339,0,0,1,.308,0l1.154.667a.093.093,0,0,1,0,.177Z" transform="translate(-509.69 -521.033)" fill="#95c4df"/>
          <path id="Trazado_202045" data-name="Trazado 202045" d="M531.395,533.747a.337.337,0,0,1-.305,0l-1.156-.666a.094.094,0,0,1,0-.177l1.156-.667a.338.338,0,0,1,.306,0l1.156.667c.083.049.083.127,0,.177Z" transform="translate(-510.925 -521.747)" fill="#95c4df"/>
          <path id="Trazado_202046" data-name="Trazado 202046" d="M534.62,535.609a.339.339,0,0,1-.307,0l-1.154-.666a.094.094,0,0,1,0-.176l1.154-.666a.333.333,0,0,1,.307,0l1.154.666a.093.093,0,0,1,0,.176Z" transform="translate(-512.162 -522.46)" fill="#95c4df"/>
          <path id="Trazado_202047" data-name="Trazado 202047" d="M537.843,537.471a.348.348,0,0,1-.306,0l-1.155-.666a.094.094,0,0,1,0-.178l1.155-.665a.336.336,0,0,1,.306,0l1.154.665a.094.094,0,0,1,0,.178Z" transform="translate(-513.397 -523.174)" fill="#95c4df"/>
          <path id="Trazado_202048" data-name="Trazado 202048" d="M541.066,539.331a.337.337,0,0,1-.305,0l-1.154-.666a.093.093,0,0,1,0-.176l1.154-.666a.334.334,0,0,1,.305,0l1.154.667c.085.049.085.127,0,.176Z" transform="translate(-514.633 -523.887)" fill="#95c4df"/>
          <path id="Trazado_202049" data-name="Trazado 202049" d="M544.291,541.195a.345.345,0,0,1-.306,0l-1.152-.669a.092.092,0,0,1,0-.174l1.152-.667a.347.347,0,0,1,.306,0l1.156.667a.093.093,0,0,1,0,.175Z" transform="translate(-515.869 -524.602)" fill="#95c4df"/>
          <path id="Trazado_202050" data-name="Trazado 202050" d="M547.513,543.053a.336.336,0,0,1-.3,0l-1.154-.666a.093.093,0,0,1,0-.176l1.154-.667a.34.34,0,0,1,.3,0l1.158.667a.094.094,0,0,1,0,.176Z" transform="translate(-517.105 -525.314)" fill="#95c4df"/>
          <path id="Trazado_202051" data-name="Trazado 202051" d="M550.738,544.915a.353.353,0,0,1-.307,0l-1.154-.668a.093.093,0,0,1,0-.176l1.154-.668a.358.358,0,0,1,.307,0l1.154.668a.093.093,0,0,1,0,.176Z" transform="translate(-518.34 -526.028)" fill="#95c4df"/>
          <path id="Trazado_202052" data-name="Trazado 202052" d="M555.4,547.6a.344.344,0,0,1-.308,0l-2.54-1.468a.093.093,0,0,1,0-.177l1.153-.665a.34.34,0,0,1,.306,0l2.541,1.468a.093.093,0,0,1,0,.175Z" transform="translate(-519.594 -526.752)" fill="#95c4df"/>
          <path id="Trazado_202053" data-name="Trazado 202053" d="M513.619,527.259a.331.331,0,0,1-.306,0l-1.154-.665c-.084-.05-.084-.129,0-.177l1.154-.667a.327.327,0,0,1,.306,0l1.155.667a.094.094,0,0,1,0,.177Z" transform="translate(-504.111 -519.259)" fill="#95c4df"/>
          <path id="Trazado_202054" data-name="Trazado 202054" d="M509.185,524.7a.343.343,0,0,1-.306,0l-3.1-1.791c-.084-.049-.084-.128,0-.175l1.155-.668a.338.338,0,0,1,.306,0l3.1,1.789a.094.094,0,0,1,0,.178Z" transform="translate(-501.665 -517.848)" fill="#95c4df"/>
          <path id="Trazado_202055" data-name="Trazado 202055" d="M516.841,529.121a.331.331,0,0,1-.3,0l-1.154-.666a.093.093,0,0,1,0-.177l1.154-.666a.33.33,0,0,1,.3,0l1.156.666a.093.093,0,0,1,0,.177Z" transform="translate(-505.347 -519.973)" fill="#95c4df"/>
          <path id="Trazado_202056" data-name="Trazado 202056" d="M520.066,530.984a.352.352,0,0,1-.306,0l-1.155-.667c-.084-.05-.084-.128,0-.176l1.155-.667a.338.338,0,0,1,.306,0l1.155.667c.084.049.084.126,0,.176Z" transform="translate(-506.582 -520.687)" fill="#95c4df"/>
          <path id="Trazado_202057" data-name="Trazado 202057" d="M523.291,532.844a.342.342,0,0,1-.308,0l-1.154-.667a.092.092,0,0,1,0-.175l1.154-.668a.346.346,0,0,1,.308,0l1.152.668c.084.048.084.126,0,.175Z" transform="translate(-507.818 -521.4)" fill="#95c4df"/>
          <path id="Trazado_202058" data-name="Trazado 202058" d="M526.513,534.705a.34.34,0,0,1-.306,0l-1.156-.666a.1.1,0,0,1,0-.178l1.156-.665a.343.343,0,0,1,.306,0l1.154.665c.087.049.085.129,0,.178Z" transform="translate(-509.054 -522.114)" fill="#95c4df"/>
          <path id="Trazado_202059" data-name="Trazado 202059" d="M529.736,536.568a.349.349,0,0,1-.305,0l-1.155-.668c-.083-.049-.083-.126,0-.178l1.155-.664a.333.333,0,0,1,.3,0l1.155.664c.083.052.083.13,0,.178Z" transform="translate(-510.289 -522.828)" fill="#95c4df"/>
          <path id="Trazado_202060" data-name="Trazado 202060" d="M532.959,538.428a.347.347,0,0,1-.306,0l-1.155-.667c-.085-.048-.085-.128,0-.178l1.155-.665a.335.335,0,0,1,.306,0l1.155.665c.085.05.085.129,0,.178Z" transform="translate(-511.525 -523.541)" fill="#95c4df"/>
          <path id="Trazado_202061" data-name="Trazado 202061" d="M536.183,540.288a.328.328,0,0,1-.3,0l-1.154-.666c-.086-.049-.086-.128,0-.176l1.154-.667a.339.339,0,0,1,.3,0l1.154.667a.093.093,0,0,1,0,.176Z" transform="translate(-512.761 -524.255)" fill="#95c4df"/>
          <path id="Trazado_202062" data-name="Trazado 202062" d="M539.407,542.149a.334.334,0,0,1-.306,0l-1.154-.665a.1.1,0,0,1,0-.178l1.154-.668a.35.35,0,0,1,.306,0l1.154.668a.094.094,0,0,1,0,.178Z" transform="translate(-513.997 -524.968)" fill="#95c4df"/>
          <path id="Trazado_202063" data-name="Trazado 202063" d="M542.631,544.012a.346.346,0,0,1-.306,0l-1.152-.667c-.085-.05-.085-.129,0-.178l1.152-.666a.342.342,0,0,1,.306,0l1.156.666a.1.1,0,0,1,0,.178Z" transform="translate(-515.233 -525.682)" fill="#95c4df"/>
          <path id="Trazado_202064" data-name="Trazado 202064" d="M545.854,545.871a.331.331,0,0,1-.306,0l-1.156-.665a.093.093,0,0,1,0-.176l1.156-.668a.334.334,0,0,1,.306,0l1.154.668a.092.092,0,0,1,0,.176Z" transform="translate(-516.468 -526.394)" fill="#95c4df"/>
          <path id="Trazado_202065" data-name="Trazado 202065" d="M551.523,549.145a.332.332,0,0,1-.306,0l-3.506-2.024c-.085-.05-.085-.13,0-.177l1.154-.667a.35.35,0,0,1,.306,0l3.508,2.025a.1.1,0,0,1,0,.178Z" transform="translate(-517.74 -527.129)" fill="#95c4df"/>
          <path id="Trazado_202066" data-name="Trazado 202066" d="M511.692,529.98a.34.34,0,0,1-.306,0l-1.156-.666c-.083-.047-.083-.126,0-.176l1.156-.666a.336.336,0,0,1,.306,0l1.154.666a.094.094,0,0,1,0,.176Z" transform="translate(-503.372 -520.303)" fill="#95c4df"/>
          <path id="Trazado_202067" data-name="Trazado 202067" d="M506.733,527.118a.351.351,0,0,1-.308,0l-3.9-2.252a.1.1,0,0,1,0-.179l1.154-.665a.341.341,0,0,1,.307,0l3.9,2.252c.086.049.088.13,0,.176Z" transform="translate(-500.418 -518.597)" fill="#95c4df"/>
          <path id="Trazado_202068" data-name="Trazado 202068" d="M514.914,531.842a.338.338,0,0,1-.306,0l-1.154-.666c-.088-.05-.088-.128,0-.177l1.154-.667a.346.346,0,0,1,.305,0l1.155.667a.094.094,0,0,1,0,.177Z" transform="translate(-504.607 -521.017)" fill="#95c4df"/>
          <path id="Trazado_202069" data-name="Trazado 202069" d="M518.138,533.7a.334.334,0,0,1-.306,0l-1.155-.665c-.083-.05-.083-.129,0-.176l1.155-.667a.338.338,0,0,1,.306,0l1.154.667c.085.047.085.126,0,.176Z" transform="translate(-505.843 -521.73)" fill="#95c4df"/>
          <path id="Trazado_202070" data-name="Trazado 202070" d="M501.023,527.652a.338.338,0,0,1-.306,0l-1.508-.873c-.084-.047-.084-.126,0-.176l1.154-.665a.334.334,0,0,1,.308,0l1.507.869a.1.1,0,0,1,0,.178Z" transform="translate(-499.147 -519.332)" fill="#95c4df"/>
          <path id="Trazado_202071" data-name="Trazado 202071" d="M504.818,529.842a.333.333,0,0,1-.307,0L503,528.972c-.086-.049-.086-.127,0-.176l1.153-.666a.341.341,0,0,1,.307,0l1.509.871a.094.094,0,0,1,0,.176Z" transform="translate(-500.6 -520.172)" fill="#95c4df"/>
          <path id="Trazado_202072" data-name="Trazado 202072" d="M508.611,532.033a.342.342,0,0,1-.306,0l-1.508-.872a.092.092,0,0,1,0-.175l1.153-.668a.349.349,0,0,1,.307,0l1.509.871a.1.1,0,0,1,0,.178Z" transform="translate(-502.055 -521.011)" fill="#95c4df"/>
          <path id="Trazado_202073" data-name="Trazado 202073" d="M523.852,540.832a.347.347,0,0,1-.308,0l-12.956-7.482a.093.093,0,0,1,0-.176l1.154-.665a.333.333,0,0,1,.307,0l12.956,7.48a.093.093,0,0,1,0,.176Z" transform="translate(-503.509 -521.85)" fill="#95c4df"/>
          <path id="Trazado_202074" data-name="Trazado 202074" d="M534.779,547.142a.341.341,0,0,1-.307,0l-1.508-.871a.094.094,0,0,1,0-.178l1.153-.666a.345.345,0,0,1,.307,0l1.508.871c.084.047.084.126,0,.176Z" transform="translate(-512.087 -526.803)" fill="#95c4df"/>
          <path id="Trazado_202075" data-name="Trazado 202075" d="M538.573,549.332a.343.343,0,0,1-.308,0l-1.509-.872a.094.094,0,0,1,0-.177l1.155-.665a.331.331,0,0,1,.307,0l1.508.869a.094.094,0,0,1,0,.178Z" transform="translate(-513.541 -527.642)" fill="#95c4df"/>
          <path id="Trazado_202076" data-name="Trazado 202076" d="M542.367,551.522a.334.334,0,0,1-.306,0l-1.509-.871a.094.094,0,0,1,0-.178l1.154-.666a.338.338,0,0,1,.306,0l1.51.871a.094.094,0,0,1,0,.177Z" transform="translate(-514.995 -528.482)" fill="#95c4df"/>
          <path id="Trazado_202077" data-name="Trazado 202077" d="M546.159,553.713a.34.34,0,0,1-.307,0l-1.509-.871a.1.1,0,0,1,0-.178L545.5,552a.35.35,0,0,1,.31,0l1.507.87c.084.051.084.128,0,.177Z" transform="translate(-516.449 -529.322)" fill="#95c4df"/>
          <path id="Trazado_202078" data-name="Trazado 202078" d="M521.361,535.565a.338.338,0,0,1-.3,0L519.9,534.9c-.086-.048-.086-.128,0-.176l1.154-.668a.346.346,0,0,1,.3,0l1.157.668a.093.093,0,0,1,0,.176Z" transform="translate(-507.079 -522.444)" fill="#95c4df"/>
          <path id="Trazado_202079" data-name="Trazado 202079" d="M524.584,537.427a.344.344,0,0,1-.3,0l-1.156-.668a.093.093,0,0,1,0-.176l1.156-.667a.336.336,0,0,1,.3,0l1.156.667a.093.093,0,0,1,0,.176Z" transform="translate(-508.315 -523.157)" fill="#95c4df"/>
          <path id="Trazado_202080" data-name="Trazado 202080" d="M527.81,539.287a.346.346,0,0,1-.306,0l-1.154-.667a.094.094,0,0,1,0-.178l1.154-.665a.342.342,0,0,1,.306,0l1.154.665a.1.1,0,0,1,0,.178Z" transform="translate(-509.551 -523.87)" fill="#95c4df"/>
          <path id="Trazado_202081" data-name="Trazado 202081" d="M531.033,541.149a.338.338,0,0,1-.3,0l-1.157-.668a.093.093,0,0,1,0-.175l1.157-.667a.334.334,0,0,1,.3,0l1.154.667a.092.092,0,0,1,0,.175Z" transform="translate(-510.787 -524.584)" fill="#95c4df"/>
          <path id="Trazado_202082" data-name="Trazado 202082" d="M534.256,543.009a.334.334,0,0,1-.305,0l-1.154-.665a.094.094,0,0,1,0-.177l1.154-.666a.333.333,0,0,1,.305,0l1.156.666a.094.094,0,0,1,0,.177Z" transform="translate(-512.022 -525.297)" fill="#95c4df"/>
          <path id="Trazado_202083" data-name="Trazado 202083" d="M537.481,544.87a.341.341,0,0,1-.305,0l-1.157-.666a.1.1,0,0,1,0-.178l1.157-.666a.341.341,0,0,1,.305,0l1.154.665a.094.094,0,0,1,0,.178Z" transform="translate(-513.258 -526.011)" fill="#95c4df"/>
          <path id="Trazado_202084" data-name="Trazado 202084" d="M540.7,546.731a.334.334,0,0,1-.307,0l-1.153-.666c-.085-.049-.085-.128,0-.176l1.153-.666a.334.334,0,0,1,.307,0l1.154.666c.084.047.084.126,0,.176Z" transform="translate(-514.494 -526.725)" fill="#95c4df"/>
          <path id="Trazado_202085" data-name="Trazado 202085" d="M547.47,550.638a.341.341,0,0,1-.308,0l-4.688-2.708a.093.093,0,0,1,0-.176l1.154-.666a.333.333,0,0,1,.307,0l4.689,2.706a.1.1,0,0,1,0,.179Z" transform="translate(-515.732 -527.439)" fill="#95c4df"/>
          <g id="Grupo_155126" data-name="Grupo 155126" transform="translate(31.896 15.603)">
            <path id="Trazado_202086" data-name="Trazado 202086" d="M552.4,542.1a.343.343,0,0,1-.306,0l-1.154-.667c-.084-.049-.084-.128,0-.178l1.154-.666a.351.351,0,0,1,.306,0l1.155.666a.1.1,0,0,1,0,.178Z" transform="translate(-550.872 -540.55)" fill="#95c4df"/>
          </g>
          <path id="Trazado_202087" data-name="Trazado 202087" d="M518.852,516.793a.341.341,0,0,1-.305,0l-1.155-.667a.092.092,0,0,1,0-.175l1.155-.668a.34.34,0,0,1,.305,0l1.155.667a.093.093,0,0,1,0,.176Z" transform="translate(-506.117 -515.247)" fill="#95c4df"/>
          <path id="Trazado_202088" data-name="Trazado 202088" d="M525.3,520.516a.339.339,0,0,1-.308,0l-1.156-.667a.094.094,0,0,1,0-.177l1.156-.665a.339.339,0,0,1,.308,0l1.152.665c.084.05.084.128,0,.177Z" transform="translate(-508.589 -516.675)" fill="#95c4df"/>
          <path id="Trazado_202089" data-name="Trazado 202089" d="M528.525,522.378a.341.341,0,0,1-.307,0l-1.155-.667a.093.093,0,0,1,0-.176l1.155-.667a.348.348,0,0,1,.307,0l1.154.667a.093.093,0,0,1,0,.176Z" transform="translate(-509.824 -517.388)" fill="#95c4df"/>
          <path id="Trazado_202090" data-name="Trazado 202090" d="M531.748,524.238a.333.333,0,0,1-.308,0l-1.154-.666a.094.094,0,0,1,0-.178l1.154-.666a.343.343,0,0,1,.308,0l1.154.666a.094.094,0,0,1,0,.178Z" transform="translate(-511.06 -518.101)" fill="#95c4df"/>
          <path id="Trazado_202091" data-name="Trazado 202091" d="M534.972,526.1a.341.341,0,0,1-.307,0l-1.155-.667a.094.094,0,0,1,0-.178l1.155-.666a.345.345,0,0,1,.307,0l1.153.666a.094.094,0,0,1,0,.178Z" transform="translate(-512.296 -518.815)" fill="#95c4df"/>
          <path id="Trazado_202092" data-name="Trazado 202092" d="M540.234,529.138a.345.345,0,0,1-.307,0l-1.154-.666a.094.094,0,0,1,0-.178l1.154-.666a.337.337,0,0,1,.307,0l1.154.666a.1.1,0,0,1,0,.178Z" transform="translate(-514.313 -519.979)" fill="#95c4df"/>
          <path id="Trazado_202093" data-name="Trazado 202093" d="M543.458,531a.332.332,0,0,1-.306,0L542,530.335a.1.1,0,0,1,0-.179l1.154-.665a.336.336,0,0,1,.306,0l1.154.665a.1.1,0,0,1,0,.179Z" transform="translate(-515.549 -520.694)" fill="#95c4df"/>
          <path id="Trazado_202094" data-name="Trazado 202094" d="M546.681,532.862a.35.35,0,0,1-.308,0l-1.154-.667a.094.094,0,0,1,0-.177l1.154-.666a.346.346,0,0,1,.308,0l1.153.666a.094.094,0,0,1,0,.177Z" transform="translate(-516.785 -521.407)" fill="#95c4df"/>
          <path id="Trazado_202095" data-name="Trazado 202095" d="M549.906,534.722a.349.349,0,0,1-.307,0l-1.154-.666c-.086-.05-.086-.13,0-.177l1.154-.667a.333.333,0,0,1,.307,0l1.153.667c.085.048.085.127,0,.177Z" transform="translate(-518.021 -522.12)" fill="#95c4df"/>
          <path id="Trazado_202096" data-name="Trazado 202096" d="M555.064,537.7a.339.339,0,0,1-.307,0l-1.154-.665c-.084-.051-.084-.129,0-.178l1.154-.666a.332.332,0,0,1,.307,0l1.154.666c.086.049.086.128,0,.178Z" transform="translate(-519.999 -523.262)" fill="#95c4df"/>
          <path id="Trazado_202097" data-name="Trazado 202097" d="M558.287,539.562a.349.349,0,0,1-.307,0l-1.154-.667a.093.093,0,0,1,0-.176l1.154-.667a.345.345,0,0,1,.307,0l1.154.667a.093.093,0,0,1,0,.176Z" transform="translate(-521.234 -523.976)" fill="#95c4df"/>
          <path id="Trazado_202098" data-name="Trazado 202098" d="M561.511,541.424a.349.349,0,0,1-.307,0l-1.153-.668c-.086-.046-.086-.127,0-.175l1.153-.668a.341.341,0,0,1,.307,0l1.153.668a.092.092,0,0,1,0,.175Z" transform="translate(-522.47 -524.689)" fill="#95c4df"/>
          <path id="Trazado_202099" data-name="Trazado 202099" d="M564.734,543.284a.337.337,0,0,1-.305,0l-1.154-.666c-.085-.047-.085-.127,0-.176l1.154-.665a.332.332,0,0,1,.3,0l1.155.665a.094.094,0,0,1,0,.177Z" transform="translate(-523.706 -525.403)" fill="#95c4df"/>
          <path id="Trazado_202100" data-name="Trazado 202100" d="M587.063,556.175a.33.33,0,0,1-.307,0l-1.156-.668a.094.094,0,0,1,0-.176l1.156-.666a.345.345,0,0,1,.307,0l1.153.666c.086.048.086.13,0,.176Z" transform="translate(-532.265 -530.344)" fill="#95c4df"/>
          <path id="Trazado_202101" data-name="Trazado 202101" d="M590.284,558.037a.341.341,0,0,1-.3,0l-1.155-.667a.093.093,0,0,1,0-.177l1.155-.666a.333.333,0,0,1,.3,0l1.155.666c.084.048.084.127,0,.177Z" transform="translate(-533.501 -531.058)" fill="#95c4df"/>
          <path id="Trazado_202102" data-name="Trazado 202102" d="M593.508,559.9a.34.34,0,0,1-.305,0l-1.155-.667a.094.094,0,0,1,0-.177l1.155-.666a.336.336,0,0,1,.305,0l1.154.666a.093.093,0,0,1,0,.177Z" transform="translate(-534.736 -531.771)" fill="#95c4df"/>
          <g id="Grupo_155127" data-name="Grupo 155127" transform="translate(33.884 16.751)">
            <path id="Trazado_202103" data-name="Trazado 202103" d="M558.071,545.372a.342.342,0,0,1-.308,0l-3.6-2.081a.093.093,0,0,1,0-.176l1.154-.667a.35.35,0,0,1,.307,0l3.605,2.081c.083.051.083.13,0,.177Z" transform="translate(-554.095 -542.412)" fill="#95c4df"/>
          </g>
          <path id="Trazado_202104" data-name="Trazado 202104" d="M580.511,552.075l-5.7-3.292,1.426-.823,5.7,3.291Z" transform="translate(-528.152 -527.788)" fill="#95c4df"/>
        </g>
      </g>
      <path id="Trazado_202105" data-name="Trazado 202105" d="M595.794,584.672a1.575,1.575,0,0,1-1.415,0l-18.24-10.531a.432.432,0,0,1,0-.818l21.5-12.413a1.563,1.563,0,0,1,1.415,0L617.3,571.443a.431.431,0,0,1,0,.815Z" transform="translate(-91.249 -111.62)" fill="#1979ff"/>
      <path id="Trazado_202106" data-name="Trazado 202106" d="M609.079,575.561c-2.826,2.256-6.951,3.369-9.216,2.483s-1.991-4.63.834-6.888,7.132-2.173,9.4-1.289S611.9,573.3,609.079,575.561Z" transform="translate(-99.876 -114.896)" fill="#0a208f"/>
      <g id="Grupo_155130" data-name="Grupo 155130" transform="translate(507.058 419.199)">
        <path id="Trazado_202107" data-name="Trazado 202107" d="M615.893,549.142l-.29-.45c.113-.072,11.2-7.186,13.538-8.724l.162-.107c1.613-1.058,3.824-2.509,3.908-4.119a2.8,2.8,0,0,0-1.284-2.206c-1.523-1.236-4.431-1.154-7.506-1.067-3.872.115-8.262.237-11.137-2.2a2.575,2.575,0,0,1-1.008-1.78c-.109-1.5,1.3-3.092,2.79-4.781,1.743-1.974,3.718-4.211,3.349-6.485-.258-1.6-1.606-3.08-4.122-4.542l.269-.462c2.663,1.545,4.094,3.154,4.38,4.917.411,2.525-1.654,4.864-3.475,6.926-1.413,1.6-2.75,3.114-2.657,4.388a2.041,2.041,0,0,0,.819,1.411c2.719,2.307,7,2.185,10.776,2.077,3.179-.092,6.181-.179,7.86,1.187a3.286,3.286,0,0,1,1.479,2.647c-.1,1.881-2.437,3.418-4.148,4.54l-.163.106C627.091,541.955,616,549.07,615.893,549.142Z" transform="translate(-612.271 -512.216)" fill="#0a208f"/>
      </g>
      <g id="Grupo_155131" data-name="Grupo 155131" transform="translate(436.22 427.215)">
        <path id="Trazado_202108" data-name="Trazado 202108" d="M497.394,527.3s1.852-1.449,6.115-1.852a21.373,21.373,0,0,1,7.6.216c3.624.482,6.826,1.073,7.387,1.637s2.637.965,1.794,1.81-2.618.2-4.71.522-5.872.4-5.471,1.691,4.909.643,5.954,1.286,2.174,1.288,0,1.69-8.607.4-11.184.4S497.394,527.3,497.394,527.3Z" transform="translate(-497.394 -525.215)" fill="#ffcda8" fill-rule="evenodd"/>
        <path id="Trazado_202109" data-name="Trazado 202109" d="M522.564,527.3c-.562-.564-3.763-1.154-7.388-1.637-3.494-.469-3.347-.609-7.166-.255a3.38,3.38,0,0,0,2.954,1.7c2.7.291,8.361.138,11.861.385A1.624,1.624,0,0,1,522.564,527.3Z" transform="translate(-501.464 -525.215)" fill="#d9a782" fill-rule="evenodd"/>
      </g>
      <g id="Grupo_155132" data-name="Grupo 155132" transform="translate(411.66 379.775)">
        <path id="Trazado_202110" data-name="Trazado 202110" d="M512.293,479.126c-.4-.834-2.189-2.46-2.84-2.444a.4.4,0,0,0-.251.088c-.5.414-.349,3.359-.113,4.155.228.779,1.484,2.1,2.368,2.075l.094-.006a.881.881,0,0,0,.612-.523A4.363,4.363,0,0,0,512.293,479.126Zm-.6,3.094c-.105.2-.192.247-.218.249l-.036,0c-.564.012-1.664-1.071-1.848-1.7a10.188,10.188,0,0,1-.08-3.557,6.52,6.52,0,0,1,2.3,2.135A3.872,3.872,0,0,1,511.7,482.22Z" transform="translate(-477.232 -459.17)" fill="#414e52"/>
        <path id="Trazado_202111" data-name="Trazado 202111" d="M512.144,479.686a6.52,6.52,0,0,0-2.3-2.135,10.188,10.188,0,0,0,.08,3.557c.184.627,1.284,1.71,1.848,1.7l.036,0c.026,0,.113-.054.218-.249A3.872,3.872,0,0,0,512.144,479.686Z" transform="translate(-477.561 -459.503)" fill="#fff" opacity="0.5"/>
        <path id="Trazado_202112" data-name="Trazado 202112" d="M458.491,483.628s3.8-.047,5.8-2.467c2.031-2.465,1.76-7.053,1.215-9.305s-.345-10,2.078-13.124,8.207-5.435,13.788-5.346,9.678,5.19,10.135,8.889,1.019,5.792.07,6.976a5.984,5.984,0,0,0-1.241,3.66c-.189,1.6-2.532,5.7-3.28,7.231s-2.389,2.393-4.09,3.084-4.215.755-4.5,3.882a35.093,35.093,0,0,1-2.207,7.791s1.8-.26-.054.332-10.844,3.344-15.8.006S458.491,483.628,458.491,483.628Z" transform="translate(-457.566 -450.238)" fill="#ffcda8" fill-rule="evenodd"/>
        <path id="Trazado_202113" data-name="Trazado 202113" d="M493.669,492.1s-.292.234-.861-.1-.666-2.095-.08-4.155a5.576,5.576,0,0,1,1.894-2.71,3.6,3.6,0,0,0-1.952.53c-1.548.914-4.978,6.3-6.094,6.979a1.242,1.242,0,0,1-.236.1c.495,5.193-1.668,11.918-2.982,15.42,1.265-.3,2.245-.607,2.729-.763,1.854-.591.054-.332.054-.332a35.1,35.1,0,0,0,2.207-7.791c.285-3.128,2.8-3.192,4.5-3.882.268-.108.535-.224.8-.342A13.325,13.325,0,0,1,493.669,492.1Z" transform="translate(-467.454 -462.411)" fill="#d9a782" fill-rule="evenodd"/>
        <path id="Trazado_202114" data-name="Trazado 202114" d="M506.093,492.071a8.722,8.722,0,0,0-1.181.566c-.135.082-.443.663-1.295-.261-.52-.566-.236,2.259-.039,2.469.276.294,1.846-.59,2.279-1.23S506.517,492.122,506.093,492.071Z" transform="translate(-475.106 -465.069)" fill="#303082" fill-rule="evenodd"/>
        <path id="Trazado_202115" data-name="Trazado 202115" d="M510.044,481.514l-6.9,2.266-.172.352,7.189-1.949Z" transform="translate(-474.973 -461.023)" fill="#414e52"/>
        <path id="Trazado_202116" data-name="Trazado 202116" d="M497.027,457.849c-.367-1.547-3.5-8.834-11.144-9.478s-14.449,2.355-17.209,6.784-1.938,9.617-1.452,13.622a21.618,21.618,0,0,0,2.013,6.875s.738,2.61,5.924,2.974,4.265,1.428,6.757-2a31.31,31.31,0,0,1,4.862-5.616c.514-.361,1.76,0,1.76,0l.51.123c-.5,1.292-1.428,5.32-2.634,8.118-.555,1.287-1.812,1.971-1.963,2.621l-.931.533c-.33,2.213,3.782,3.773,4.724,3.574,2.523-.532,3.181-4.812,3.051-6.792a1.484,1.484,0,0,0-.734-1s-2.084-.935-.155-6.733a1.346,1.346,0,0,0,.72-.817l-.577.136a7.692,7.692,0,0,1,1.234-2.886c.983-1.173,1.6-.5,1.74-2.555s.132-3.484.838-4.027S497.4,459.4,497.027,457.849Z" transform="translate(-461.074 -448.284)" fill="#303082"/>
        <path id="Trazado_202117" data-name="Trazado 202117" d="M486.4,484.09a28.559,28.559,0,0,1-18.945-3.189c.015.126.031.255.046.38a21.618,21.618,0,0,0,2.013,6.875s.738,2.61,5.924,2.974,4.265,1.427,6.757-2A41.169,41.169,0,0,1,486.4,484.09Z" transform="translate(-461.358 -460.787)" fill="#303082" fill-rule="evenodd"/>
      </g>
      <g id="Grupo_155137" data-name="Grupo 155137" transform="translate(387.148 515.965)">
        <g id="Grupo_155133" data-name="Grupo 155133" transform="translate(19.852 35.246)">
          <path id="Trazado_202118" data-name="Trazado 202118" d="M456.357,727.7l-2.23-1.249a1.71,1.71,0,0,0-1.7.171,5.346,5.346,0,0,0-2.416,4.184,1.7,1.7,0,0,0,.716,1.573l2.232,1.246a1.707,1.707,0,0,0,1.7-.173,5.342,5.342,0,0,0,2.415-4.183A1.694,1.694,0,0,0,456.357,727.7Z" transform="translate(-450.009 -726.296)" fill="#003630"/>
        </g>
        <g id="Grupo_155134" data-name="Grupo 155134" transform="translate(62.579 32.561)">
          <path id="Trazado_202119" data-name="Trazado 202119" d="M525.649,723.346l-2.232-1.247a1.7,1.7,0,0,0-1.7.172,5.34,5.34,0,0,0-2.416,4.184,1.7,1.7,0,0,0,.717,1.568l2.232,1.249a1.7,1.7,0,0,0,1.7-.176,5.331,5.331,0,0,0,2.415-4.183A1.693,1.693,0,0,0,525.649,723.346Z" transform="translate(-519.298 -721.942)" fill="#003630"/>
        </g>
        <g id="Grupo_155135" data-name="Grupo 155135" transform="translate(69.642 6.901)">
          <path id="Trazado_202120" data-name="Trazado 202120" d="M537.1,681.735l-2.232-1.249a1.7,1.7,0,0,0-1.7.174,5.333,5.333,0,0,0-2.415,4.181,1.689,1.689,0,0,0,.717,1.569l2.229,1.248a1.709,1.709,0,0,0,1.7-.173,5.345,5.345,0,0,0,2.412-4.184A1.7,1.7,0,0,0,537.1,681.735Z" transform="translate(-530.752 -680.329)" fill="#003630"/>
        </g>
        <g id="Grupo_155136" data-name="Grupo 155136" transform="translate(0.674 13.459)">
          <path id="Trazado_202121" data-name="Trazado 202121" d="M425.258,692.372l-2.231-1.25a1.706,1.706,0,0,0-1.7.171,5.346,5.346,0,0,0-2.415,4.187,1.694,1.694,0,0,0,.717,1.569l2.23,1.247a1.709,1.709,0,0,0,1.7-.174,5.342,5.342,0,0,0,2.417-4.186A1.693,1.693,0,0,0,425.258,692.372Z" transform="translate(-418.908 -690.965)" fill="#003630"/>
        </g>
        <path id="Trazado_202122" data-name="Trazado 202122" d="M494.657,673.389a3.572,3.572,0,0,0-1.317-2.983c-.569-.352-2.367,0-2.367,0l-27.5,8.04v-6.308a2.577,2.577,0,0,0-1.521-2.12,8.113,8.113,0,0,0-7.347,0,2.579,2.579,0,0,0-1.521,2.12v7.236l-32.589-2.959s-1.424.2-1.754,1.14a17.136,17.136,0,0,0-.922,4.386,2.242,2.242,0,0,0,2.282,2.586c1.44.186,23.256,2.515,30.1,3.248h0c-3.63,4.158-11.071,12.982-11.071,12.982a5.942,5.942,0,0,0-.832,2.629c-.087,1.493-.218,3.684-.218,3.684a1.933,1.933,0,0,0,2.1,1.052c1.711-.086,2.675-1.052,4.627-3s12.654-13.59,12.654-13.59a.337.337,0,0,0-.007-.037,8.215,8.215,0,0,0,3.993-.591c-.007.054-.012.081-.012.081s18.849,11.333,21.854,12.95,4.163-.578,4.163-.578,0-2.234-.115-3.853a6.077,6.077,0,0,0-1.272-3.007s-14.147-8.671-17.613-10.563c-.262-.139-.508-.286-.749-.43,0,0,.006,0,.009.007,5.6-1.6,19.817-5.645,21.852-6.242,2.544-.744,5.088-1.8,5.088-1.8S494.744,675.1,494.657,673.389Z" transform="translate(-417.816 -669.138)" fill="#004f49"/>
        <path id="Trazado_202123" data-name="Trazado 202123" d="M508.422,704.368a5.452,5.452,0,0,0,3.478,1.112.709.709,0,0,0,.508-1.045c-.059-.082-.1-.138-.1-.138s-14.147-8.671-17.613-10.563a14.366,14.366,0,0,1-4.986-4.237,6.907,6.907,0,0,1-3.458,2.08c1.038,0,3.6,1.574,3.6,1.574S506.841,703.372,508.422,704.368Z" transform="translate(-444.049 -676.943)" fill="#018489"/>
        <path id="Trazado_202124" data-name="Trazado 202124" d="M470.368,691.363a8.082,8.082,0,0,0-1.8,1.549s-11.3,13.494-12.166,14.613a4.12,4.12,0,0,1-3.238,1.566.873.873,0,0,1-.778-.929S463,695.571,465.06,693.383a11.043,11.043,0,0,0,1.275-1.606v-3.32a6.265,6.265,0,0,0,1.835,1.892A13.621,13.621,0,0,0,470.368,691.363Z" transform="translate(-431.068 -676.544)" fill="#018489"/>
        <path id="Trazado_202125" data-name="Trazado 202125" d="M521.723,671.1c-.569-.352-2.367,0-2.367,0l-27.5,8.04v1.337l28.37-7.728s1.558-.449,2-1.19A2.019,2.019,0,0,0,521.723,671.1Z" transform="translate(-446.199 -669.829)" fill="#018489"/>
        <path id="Trazado_202126" data-name="Trazado 202126" d="M419.459,681.915a3.264,3.264,0,0,0,1.917.885l32.338,2.732V683.9l-32.589-2.959A2.5,2.5,0,0,0,419.459,681.915Z" transform="translate(-418.446 -673.662)" fill="#018489"/>
      </g>
      <path id="Trazado_202127" data-name="Trazado 202127" d="M453.868,618.6c-6.476-7.091-3.562-22.623-3.562-22.623l28.225-2.317s7.887-1.465,16.5-2.794c.324-4.814-.334-13.924-8.8-13.614-10.3.375-33.347,11.856-33.347,11.856l-8.779,2.363s-4.016,10.205-.657,18.865c2.776,7.173,6.384,8.408,11.185,9.048C454.37,619.133,454.116,618.875,453.868,618.6Z" transform="translate(-39.979 -117.947)" fill="#0b53ff"/>
      <path id="Trazado_202128" data-name="Trazado 202128" d="M465.683,508.145a127.253,127.253,0,0,1-12.456-2.957c-4.29-1.428-3.016-4.633-3.016-4.633s-7.542-1.653-9.788-.829c-18.552,6.824-12.855,41.542-11.227,49.9a57.017,57.017,0,0,1,.351,16.926c18.134,13.178,37.407,16.007,40.86,9.588s-5.239-17.573-5.239-17.573.168-16.194,5.377-28.778c2.925-7.069,6.782-12.752,3.213-15.947A91.891,91.891,0,0,0,465.683,508.145Z" transform="translate(-34.223 -88.141)" fill="#f22a78" fill-rule="evenodd"/>
      <path id="Trazado_202129" data-name="Trazado 202129" d="M476.673,544.494l-5.659-4.3a52.631,52.631,0,0,0-4.483,13.9c-1.157,7.376-5.069,5.383-12.532,6.852-4.46.879-9.234,14.454-11.914,25.646,15.9,9.3,31.048,10.769,34.072,5.148,3.456-6.42-5.239-17.573-5.239-17.573s.168-16.195,5.377-28.779C476.418,545.087,476.546,544.789,476.673,544.494Z" transform="translate(-39.972 -103.742)" fill="#cc0452" fill-rule="evenodd"/>
      <g id="Grupo_155139" data-name="Grupo 155139" transform="translate(429.244 425.193)">
        <g id="Grupo_155138" data-name="Grupo 155138" transform="translate(33.123 19.418)">
          <path id="Trazado_202130" data-name="Trazado 202130" d="M539.8,559.89l5.159-3.471s3.3-2.714,5.518-2.949,10.25.482,12.405,2.122,1.86,2.633.281,4.062-3.367,1.571-5.875,2.311.722.55-3.21.844-10.418,2.548-10.418,2.548Z" transform="translate(-539.796 -553.426)" fill="#ffcda8" fill-rule="evenodd"/>
          <path id="Trazado_202131" data-name="Trazado 202131" d="M564.529,557.563c-1.049,2.485-9.963,4.409-12.713,4.252-2.891-.163-6.489,1.582-6.489,1.582l-2.456.764,1.964,2.781s6.484-2.254,10.418-2.548.7-.1,3.21-.844,4.294-.879,5.875-2.311C565.789,559.925,566.152,558.979,564.529,557.563Z" transform="translate(-540.975 -555.012)" fill="#d9a782" fill-rule="evenodd"/>
        </g>
        <path id="Trazado_202132" data-name="Trazado 202132" d="M486.494,535c-1.207-3.214.141-10.543,5.225-12.555,5.468-2.164,8.944,2.742,11.695,12.2a97.071,97.071,0,0,1,3.426,15.134l15.459-4.857s4.5.223,4.86,7.088c0,0-18.36,10.505-24.593,12.312S489.531,543.086,486.494,535Z" transform="translate(-486.081 -521.936)" fill="#f22a78" fill-rule="evenodd"/>
      </g>
      <g id="Grupo_155140" data-name="Grupo 155140" transform="translate(380.016 433.33)">
        <path id="Trazado_202133" data-name="Trazado 202133" d="M430.053,614.621s6.406,2.667,9.789,3.794,7.279,1.947,10.815-3.077a25.568,25.568,0,0,0,5.227-16.81c-.1-7.33-6.972-29.626-6.972-29.626s-3.992-11.84-5.941-14.863-2.977-3.179-5.026-4.153-9.328-4.357-13.685-7.381-9.175-6.61-10.405-7.226-4.048.718-5.51,3.664-1.717,8.739-1.818,14.993-.718,15.993.306,22.194a101.716,101.716,0,0,0,5.742,20.45c2.562,6.2,8.713,12.352,11.736,14.66A26.911,26.911,0,0,0,430.053,614.621Z" transform="translate(-406.25 -535.133)" fill="#004f49"/>
        <path id="Trazado_202134" data-name="Trazado 202134" d="M453.329,614.474a25.263,25.263,0,0,0,4.62-15.926c-.1-7.33-6.972-29.626-6.972-29.626s-3.992-11.84-5.941-14.863-2.977-3.179-5.026-4.153-9.328-4.357-13.685-7.381-9.175-6.61-10.405-7.226a1.416,1.416,0,0,0-.369-.114c-1.426,1.194-3.652,3.217-3.917,4.408a9.885,9.885,0,0,0,3.075,2.748c2.161,1.31,16.038,9.82,20.031,11.391a17.239,17.239,0,0,1,9.816,8.835c2.554,5.434,7.921,22.319,9.1,26.706,0,0,3.245,10.658,2.88,15.317A26.831,26.831,0,0,1,453.329,614.474Z" transform="translate(-408.314 -535.153)" fill="#018489"/>
        <path id="Trazado_202135" data-name="Trazado 202135" d="M444.8,661.095l1.079,6.146s-1.675.93-2.31-1.825A4.446,4.446,0,0,1,444.8,661.095Z" transform="translate(-420.507 -583.42)" fill="#004f49"/>
        <path id="Trazado_202136" data-name="Trazado 202136" d="M439.479,662.87a4.472,4.472,0,0,1,1.122-4.218,26.463,26.463,0,0,1-6.967-4.2,6.162,6.162,0,0,0-.783,4.281c.411,2.609,1.677,2.961,1.677,2.961l5.9,2.92v0A2.769,2.769,0,0,1,439.479,662.87Z" transform="translate(-416.415 -580.875)" fill="#006a6f"/>
        <path id="Trazado_202137" data-name="Trazado 202137" d="M479.725,631.576s12.141-12.327,14.79-14.792,8.979-7.35,12.329-5.536,4.093,18.239,4.093,18.239a2.953,2.953,0,0,0,3.116.6c2.093-.6,1.488-2.046,1.488-2.046s.419-17.821-4.14-21.075-10.883-.094-15.859,3.628-13.722,12.465-13.722,12.465a16.119,16.119,0,0,0-2.373,5.115C478.982,630.6,479.725,631.576,479.725,631.576Z" transform="translate(-434.251 -562.152)" fill="#006a6f"/>
      </g>
      <g id="Grupo_155143" data-name="Grupo 155143" transform="translate(465.173 338.722)">
        <g id="Grupo_155141" data-name="Grupo 155141" transform="translate(0 0)">
          <path id="Trazado_202138" data-name="Trazado 202138" d="M544.348,384.97c0-1.027.728-1.447,1.618-.933l66.584,38.44a3.587,3.587,0,0,1,1.617,2.8v52.077c0,1.028-.727,1.448-1.616.934l-66.585-38.44a3.588,3.588,0,0,1-1.617-2.8Z" transform="translate(-544.347 -382.518)" fill="#e1e8ec"/>
          <path id="Trazado_202139" data-name="Trazado 202139" d="M544.347,433.579V386.694L614.166,427v46.886Z" transform="translate(-544.347 -383.621)" fill="#0143b1"/>
          <path id="Trazado_202140" data-name="Trazado 202140" d="M614.467,476.549V424.471a3.587,3.587,0,0,0-1.617-2.8l-66.584-38.44a1.139,1.139,0,0,0-1.132-.116h0l2.243-1.281a1.119,1.119,0,0,1,1.165.1l66.584,38.441a3.592,3.592,0,0,1,1.617,2.8v52.077a1.116,1.116,0,0,1-.509,1.063l-2.212,1.263h0A1.155,1.155,0,0,0,614.467,476.549Z" transform="translate(-544.649 -381.71)" fill="#95c4df"/>
          <path id="Trazado_202141" data-name="Trazado 202141" d="M560.584,511.521l12.411-5.579a13.505,13.505,0,0,0,5.969-5.819l13.868,8.007a17.472,17.472,0,0,1-4.225,6.9s-7.617,5.9-9.621,7.247a4.28,4.28,0,0,1-4.148.2l-14.259-8.565s-.8-.383-.981-.972l-.041-.191C559.469,512,560.584,511.521,560.584,511.521Z" transform="translate(-550.176 -427.103)" fill="#e1e8ec"/>
          <path id="Trazado_202142" data-name="Trazado 202142" d="M560.563,518.9l14.259,8.565a4.28,4.28,0,0,0,4.148-.2c2-1.344,9.622-7.247,9.622-7.247a17.472,17.472,0,0,0,4.225-6.9l1.2.691a14.254,14.254,0,0,1-5.616,7.466c-8.571,6.149-9.485,6.65-9.485,6.65s-1.46,1.284-4.119,0-14.316-8.491-14.316-8.491-.966-.523-.966-1.03l.036-.745C559.508,518.391,560.563,518.9,560.563,518.9Z" transform="translate(-550.159 -432.081)" fill="#95c4df"/>
          <path id="Trazado_202143" data-name="Trazado 202143" d="M588.223,500.122l13.868,8.007a16.852,16.852,0,0,1-3.186,5.763l-15.2-8.776A13.7,13.7,0,0,0,588.223,500.122Z" transform="translate(-559.436 -427.103)" fill="#a9d0e5"/>
        </g>
        <g id="Grupo_155142" data-name="Grupo 155142" transform="translate(6.885 12.157)">
          <path id="Trazado_202144" data-name="Trazado 202144" d="M570.837,417l-9.375-5.413v-.613l9.376,5.413Z" transform="translate(-557.793 -405.083)" fill="#f07"/>
          <path id="Trazado_202145" data-name="Trazado 202145" d="M610.1,439.661l-31.135-17.975v-.613L610.1,439.049Z" transform="translate(-564.502 -408.957)" fill="#d4dbdf"/>
          <path id="Trazado_202146" data-name="Trazado 202146" d="M572.671,411.913l-17.106-9.876v-.613l17.106,9.876Z" transform="translate(-555.533 -401.424)" fill="#d4dbdf"/>
          <path id="Trazado_202147" data-name="Trazado 202147" d="M602.98,429.412l-17.105-9.876v-.613L602.98,428.8Z" transform="translate(-567.152 -408.132)" fill="#d4dbdf"/>
          <path id="Trazado_202148" data-name="Trazado 202148" d="M580.44,425.625l-9.376-5.413V419.6l9.376,5.413Z" transform="translate(-561.474 -408.391)" fill="#73bde5"/>
          <path id="Trazado_202149" data-name="Trazado 202149" d="M619.7,448.291l-31.135-17.976V429.7L619.7,447.677Z" transform="translate(-568.183 -412.265)" fill="#d4dbdf"/>
          <path id="Trazado_202150" data-name="Trazado 202150" d="M556.628,408.792l-1.114-.643v-.613l1.114.643Z" transform="translate(-555.513 -403.767)" fill="#d4dbdf"/>
          <path id="Trazado_202151" data-name="Trazado 202151" d="M556.628,411.877l-1.114-.642v-.614l1.114.644Z" transform="translate(-555.513 -404.95)" fill="#d4dbdf"/>
          <path id="Trazado_202152" data-name="Trazado 202152" d="M556.628,414.963l-1.114-.643v-.613l1.114.643Z" transform="translate(-555.513 -406.133)" fill="#d4dbdf"/>
          <path id="Trazado_202153" data-name="Trazado 202153" d="M556.628,418.047l-1.114-.642v-.613l1.114.643Z" transform="translate(-555.513 -407.315)" fill="#d4dbdf"/>
          <path id="Trazado_202154" data-name="Trazado 202154" d="M556.628,421.134l-1.114-.642v-.613l1.114.644Z" transform="translate(-555.513 -408.498)" fill="#d4dbdf"/>
          <path id="Trazado_202155" data-name="Trazado 202155" d="M556.628,424.22l-1.114-.644v-.612l1.114.643Z" transform="translate(-555.513 -409.682)" fill="#d4dbdf"/>
          <path id="Trazado_202156" data-name="Trazado 202156" d="M556.628,427.305l-1.114-.642v-.614l1.114.643Z" transform="translate(-555.513 -410.864)" fill="#d4dbdf"/>
          <path id="Trazado_202157" data-name="Trazado 202157" d="M556.628,430.392l-1.114-.644v-.612l1.114.642Z" transform="translate(-555.513 -412.048)" fill="#d4dbdf"/>
          <path id="Trazado_202158" data-name="Trazado 202158" d="M556.628,433.478l-1.114-.644v-.612l1.114.643Z" transform="translate(-555.513 -413.23)" fill="#d4dbdf"/>
          <path id="Trazado_202159" data-name="Trazado 202159" d="M556.628,436.562l-1.114-.642v-.613l1.114.642Z" transform="translate(-555.513 -414.413)" fill="#d4dbdf"/>
          <path id="Trazado_202160" data-name="Trazado 202160" d="M556.628,439.65l-1.114-.644v-.612l1.114.642Z" transform="translate(-555.513 -415.596)" fill="#d4dbdf"/>
          <path id="Trazado_202161" data-name="Trazado 202161" d="M556.628,442.734l-1.114-.642v-.613l1.114.642Z" transform="translate(-555.513 -416.779)" fill="#d4dbdf"/>
          <path id="Trazado_202162" data-name="Trazado 202162" d="M556.628,445.82l-1.114-.644v-.613l1.114.644Z" transform="translate(-555.513 -417.961)" fill="#d4dbdf"/>
          <path id="Trazado_202163" data-name="Trazado 202163" d="M556.628,448.907l-1.114-.644v-.613l1.114.642Z" transform="translate(-555.513 -419.145)" fill="#d4dbdf"/>
          <path id="Trazado_202164" data-name="Trazado 202164" d="M556.627,451.991l-1.115-.642v-.613l1.115.643Z" transform="translate(-555.513 -420.328)" fill="#d4dbdf"/>
          <path id="Trazado_202165" data-name="Trazado 202165" d="M556.628,455.077l-1.114-.644v-.611l1.114.644Z" transform="translate(-555.513 -421.511)" fill="#d4dbdf"/>
          <path id="Trazado_202166" data-name="Trazado 202166" d="M556.627,458.164l-1.114-.643v-.612l1.115.642Z" transform="translate(-555.513 -422.694)" fill="#d4dbdf"/>
          <path id="Trazado_202167" data-name="Trazado 202167" d="M556.627,461.249l-1.115-.643v-.614l1.114.644Z" transform="translate(-555.513 -423.876)" fill="#d4dbdf"/>
          <path id="Trazado_202168" data-name="Trazado 202168" d="M580.44,428.71l-9.376-5.414v-.612l9.376,5.413Z" transform="translate(-561.474 -409.574)" fill="#73bde5"/>
          <path id="Trazado_202169" data-name="Trazado 202169" d="M608.337,444.816,588.562,433.4v-.613L608.337,444.2Z" transform="translate(-568.182 -413.447)" fill="#d4dbdf"/>
          <path id="Trazado_202170" data-name="Trazado 202170" d="M590.186,437.423l-9.376-5.413V431.4l9.376,5.413Z" transform="translate(-565.21 -412.914)" fill="#07b3fa"/>
          <path id="Trazado_202171" data-name="Trazado 202171" d="M617.991,453.476l-19.682-11.363V441.5l19.682,11.362Z" transform="translate(-571.919 -416.787)" fill="#07b3fa"/>
          <path id="Trazado_202172" data-name="Trazado 202172" d="M597.5,444.733l-9.377-5.413v-.613l9.377,5.413Z" transform="translate(-568.015 -415.716)" fill="#d4dbdf"/>
          <path id="Trazado_202173" data-name="Trazado 202173" d="M623.8,459.917l-18.176-10.5v-.613L623.8,459.3Z" transform="translate(-574.723 -419.589)" fill="#d4dbdf"/>
          <path id="Trazado_202174" data-name="Trazado 202174" d="M577.239,436.12l-6.638-3.832v-.612l6.638,3.831Z" transform="translate(-561.297 -413.021)" fill="#097abe"/>
          <path id="Trazado_202175" data-name="Trazado 202175" d="M617.535,459.383l-33.872-19.557v-.613l33.872,19.557Z" transform="translate(-566.304 -415.911)" fill="#d4dbdf"/>
          <path id="Trazado_202176" data-name="Trazado 202176" d="M575.575,438.245l-4.972-2.872v-.612l4.972,2.871Z" transform="translate(-561.297 -414.204)" fill="#097abe"/>
          <path id="Trazado_202177" data-name="Trazado 202177" d="M608.586,457.3l-27.623-15.949v-.613l27.623,15.949Z" transform="translate(-565.269 -416.496)" fill="#d4dbdf"/>
          <path id="Trazado_202178" data-name="Trazado 202178" d="M574.581,440.756l-3.979-2.3v-.613l3.979,2.3Z" transform="translate(-561.297 -415.386)" fill="#f07"/>
          <path id="Trazado_202179" data-name="Trazado 202179" d="M611.953,462.333l-32.6-18.823V442.9l32.6,18.823Z" transform="translate(-564.651 -417.322)" fill="#d4dbdf"/>
          <path id="Trazado_202180" data-name="Trazado 202180" d="M579.977,446.958l-9.375-5.414v-.612l9.375,5.413Z" transform="translate(-561.297 -416.569)" fill="#73bde5"/>
          <path id="Trazado_202181" data-name="Trazado 202181" d="M614.948,467.147,587.161,451.1v-.614l27.787,16.043Z" transform="translate(-567.645 -420.234)" fill="#d4dbdf"/>
          <path id="Trazado_202182" data-name="Trazado 202182" d="M585.034,452.963,570.6,444.631v-.613l14.432,8.333Z" transform="translate(-561.297 -417.752)" fill="#73bde5"/>
          <path id="Trazado_202183" data-name="Trazado 202183" d="M609.34,467,596.3,459.469v-.614l13.039,7.528Z" transform="translate(-571.149 -423.44)" fill="#07b3fa"/>
          <path id="Trazado_202184" data-name="Trazado 202184" d="M570.837,447.853l-9.375-5.413v-.613l9.375,5.413Z" transform="translate(-557.793 -416.912)" fill="#f07"/>
          <path id="Trazado_202185" data-name="Trazado 202185" d="M610.1,470.518l-31.135-17.975v-.612L610.1,469.905Z" transform="translate(-564.502 -420.786)" fill="#d4dbdf"/>
          <path id="Trazado_202186" data-name="Trazado 202186" d="M579.292,455.82l-9.376-5.413v-.613l9.376,5.413Z" transform="translate(-561.034 -419.966)" fill="#73bde5"/>
          <path id="Trazado_202187" data-name="Trazado 202187" d="M613.337,475.475,587.416,460.51V459.9l25.921,14.965Z" transform="translate(-567.743 -423.84)" fill="#d4dbdf"/>
          <path id="Trazado_202188" data-name="Trazado 202188" d="M596.639,468.922l-9.376-5.413V462.9l9.375,5.412Z" transform="translate(-567.684 -424.989)" fill="#73bde5"/>
          <path id="Trazado_202189" data-name="Trazado 202189" d="M619.988,482.4l-15.224-8.79V473l15.224,8.79Z" transform="translate(-574.393 -428.862)" fill="#1ed6fe"/>
          <path id="Trazado_202190" data-name="Trazado 202190" d="M592.66,469.708l-5.4-3.115v-.612l5.4,3.115Z" transform="translate(-567.684 -426.172)" fill="#73bde5"/>
          <path id="Trazado_202191" data-name="Trazado 202191" d="M617.513,484.057l-19.2-11.087v-.613l19.2,11.088Z" transform="translate(-571.919 -428.616)" fill="#d4dbdf"/>
          <path id="Trazado_202192" data-name="Trazado 202192" d="M595.086,474.2l-7.823-4.517v-.612l7.823,4.516Z" transform="translate(-567.684 -427.355)" fill="#f07"/>
          <path id="Trazado_202193" data-name="Trazado 202193" d="M619.022,488.014l-16.778-9.685v-.613l16.778,9.685Z" transform="translate(-573.427 -430.67)" fill="#d4dbdf"/>
          <path id="Trazado_202194" data-name="Trazado 202194" d="M592.13,475.574l-4.866-2.809v-.612l4.866,2.809Z" transform="translate(-567.684 -428.538)" fill="#73bde5"/>
          <path id="Trazado_202195" data-name="Trazado 202195" d="M617.183,490.038l-19.735-11.394v-.613l19.735,11.393Z" transform="translate(-571.589 -430.791)" fill="#d4dbdf"/>
          <path id="Trazado_202196" data-name="Trazado 202196" d="M593.544,479.476l-6.28-3.626v-.613l6.28,3.626Z" transform="translate(-567.684 -429.72)" fill="#73bde5"/>
          <path id="Trazado_202197" data-name="Trazado 202197" d="M618.063,493.632l-18.32-10.576v-.614l18.32,10.577Z" transform="translate(-572.469 -432.482)" fill="#d4dbdf"/>
          <path id="Trazado_202198" data-name="Trazado 202198" d="M596.639,484.349l-9.376-5.413v-.613l9.376,5.414Z" transform="translate(-567.684 -430.903)" fill="#73bde5"/>
          <path id="Trazado_202199" data-name="Trazado 202199" d="M619.988,497.829l-15.224-8.79v-.613l15.224,8.789Z" transform="translate(-574.393 -434.776)" fill="#d4dbdf"/>
        </g>
      </g>
      <g id="Grupo_155144" data-name="Grupo 155144" transform="translate(446.04 400.89)">
        <path id="Trazado_202200" data-name="Trazado 202200" d="M530.594,482.727a1.883,1.883,0,0,1,1.7,0l7.486,4.321a.517.517,0,0,1,0,.979l-16.925,9.8a1.882,1.882,0,0,1-1.7,0l-7.485-4.323a.517.517,0,0,1,0-.98Z" transform="translate(-513.319 -482.525)" fill="#d4dbdf"/>
        <path id="Trazado_202201" data-name="Trazado 202201" d="M513.67,496.632l7.485,4.323a1.882,1.882,0,0,0,1.7,0l16.925-9.8a.6.6,0,0,0,.348-.474h0v1.161a.593.593,0,0,1-.349.49l-16.925,9.8a1.882,1.882,0,0,1-1.7,0l-7.485-4.321a.6.6,0,0,1-.35-.491v-1.176h0A.594.594,0,0,0,513.67,496.632Z" transform="translate(-513.319 -485.652)" fill="#95c4df"/>
        <path id="Trazado_202202" data-name="Trazado 202202" d="M515.079,492.252l9.183,5.3,16.114-9.329-9.182-5.3Z" transform="translate(-513.994 -482.677)" fill="#0143b1"/>
        <path id="Trazado_202203" data-name="Trazado 202203" d="M529.709,500.7l.161.093,16.114-9.329-.161-.095Z" transform="translate(-519.602 -485.915)" fill="url(#linear-gradient)"/>
        <path id="Trazado_202204" data-name="Trazado 202204" d="M529.97,501.561l16.114-9.331v-.709l-16.114,9.329Z" transform="translate(-519.702 -485.974)" fill="url(#linear-gradient-2)"/>
      </g>
      <g id="Grupo_155145" data-name="Grupo 155145" transform="translate(540.525 445.468)">
        <path id="Trazado_202205" data-name="Trazado 202205" d="M666.542,565.2v0Z" transform="translate(-666.542 -558.789)" fill="#e8ebe8"/>
        <path id="Trazado_202206" data-name="Trazado 202206" d="M670.812,557.786a4.293,4.293,0,0,0-.286-1.532h0a2.126,2.126,0,0,0-2.881-1.271,3.618,3.618,0,0,0-1.1.95V557.5l.693.359a2.567,2.567,0,0,1,1.262-1.521.922.922,0,0,1,.434-.115,2.677,2.677,0,0,1,.567,1.571c.015.905-.592,3.3-1.932,3.986a1.567,1.567,0,0,1-.284.112l-.047.012c-.649.149-.69-.54-.693-.675v1.87l.693.36s.3.109,1.088-.343A7.231,7.231,0,0,0,670.812,557.786Z" transform="translate(-666.542 -554.816)" fill="url(#linear-gradient-3)"/>
      </g>
      <g id="Grupo_155146" data-name="Grupo 155146" transform="translate(541.217 445.827)">
        <path id="Trazado_202207" data-name="Trazado 202207" d="M667.665,565.786v0Z" transform="translate(-667.665 -559.372)" fill="#ffb05d"/>
        <path id="Trazado_202208" data-name="Trazado 202208" d="M671.243,558.009c-.093-2.867-1.82-2.785-2.476-2.444a3.654,3.654,0,0,0-1.1.95v1.568a2.567,2.567,0,0,1,1.262-1.521c1.024-.535,1.679.91,1.693,1.815s-.592,3.3-1.933,3.985c-.967.49-1.02-.4-1.022-.549v1.871s.3.109,1.088-.344A7.231,7.231,0,0,0,671.243,558.009Z" transform="translate(-667.665 -555.398)" fill="#ffb05d"/>
      </g>
      <path id="Trazado_202209" data-name="Trazado 202209" d="M668.716,563.014c1.341-.68,1.949-3.08,1.933-3.985-.014-.77-.49-1.929-1.26-1.931a2.677,2.677,0,0,1,.567,1.571c.015.905-.592,3.3-1.932,3.986a1.56,1.56,0,0,1-.284.112C667.824,563.044,668.059,563.348,668.716,563.014Z" transform="translate(-126.477 -110.223)" fill="#f4e7d7"/>
      <path id="Trazado_202210" data-name="Trazado 202210" d="M661.385,552.107a3.064,3.064,0,0,0-1.806-2.52,9.648,9.648,0,0,0-8.726,0,3.064,3.064,0,0,0-1.807,2.519V563.3a2.229,2.229,0,0,0,.258,1.022h0c.045.118.3.628.363.744a3.758,3.758,0,0,0,1.411,1.314,9.147,9.147,0,0,0,8.274,0,3.641,3.641,0,0,0,1.469-1.419c.041-.079.331-.676.362-.755v0a2.172,2.172,0,0,0,.2-.9Z" transform="translate(-119.31 -106.944)" fill="#ffb05d"/>
      <path id="Trazado_202211" data-name="Trazado 202211" d="M655.216,548.545a8.917,8.917,0,0,0-4.363,1.043,2.659,2.659,0,0,0,0,5.037,9.633,9.633,0,0,0,8.726,0,2.66,2.66,0,0,0,0-5.037A8.917,8.917,0,0,0,655.216,548.545Z" transform="translate(-119.31 -106.944)" fill="#fff" opacity="0.61"/>
      <path id="Trazado_202212" data-name="Trazado 202212" d="M655.4,548.823a8.478,8.478,0,0,0-4.152.993,2.531,2.531,0,0,0,0,4.8,9.182,9.182,0,0,0,8.306,0,2.531,2.531,0,0,0,0-4.8A8.483,8.483,0,0,0,655.4,548.823Z" transform="translate(-119.495 -107.051)" fill="#e8ebe8"/>
      <path id="Trazado_202213" data-name="Trazado 202213" d="M655.4,548.823a8.478,8.478,0,0,0-4.152.993,2.531,2.531,0,0,0,0,4.8,9.182,9.182,0,0,0,8.306,0,2.531,2.531,0,0,0,0-4.8A8.483,8.483,0,0,0,655.4,548.823Z" transform="translate(-119.495 -107.051)" fill="#f4e7d7"/>
      <path id="Trazado_202214" data-name="Trazado 202214" d="M659.7,552.94a9.182,9.182,0,0,0-8.306,0,1.435,1.435,0,1,0,0,2.869,9.181,9.181,0,0,0,8.306,0,1.435,1.435,0,1,0,0-2.869Z" transform="translate(-119.645 -108.248)" fill="#0a208f"/>
      <path id="Trazado_202215" data-name="Trazado 202215" d="M651.4,553.851a9.186,9.186,0,0,1,8.306,0,4.205,4.205,0,0,1,1.183.979,2.85,2.85,0,0,0,.3-.456,3.666,3.666,0,0,0-1.479-1.434,9.182,9.182,0,0,0-8.306,0,3.644,3.644,0,0,0-1.479,1.434,2.66,2.66,0,0,0,.3.456A4.125,4.125,0,0,1,651.4,553.851Z" transform="translate(-119.645 -108.248)" opacity="0.22" fill="url(#linear-gradient-4)" style="mix-blend-mode: screen;isolation: isolate"/>
      <path id="Trazado_202216" data-name="Trazado 202216" d="M659.74,575.549a9.641,9.641,0,0,1-8.726,0,3.855,3.855,0,0,1-1.549-1.5h0c.045.118.3.628.363.744a3.758,3.758,0,0,0,1.411,1.313,9.147,9.147,0,0,0,8.274,0,3.642,3.642,0,0,0,1.469-1.419c.041-.079.331-.676.362-.755v0A3.719,3.719,0,0,1,659.74,575.549Z" transform="translate(-119.471 -116.676)" opacity="0.15" style="mix-blend-mode: multiply;isolation: isolate"/>
    </g>
  </g>
</svg>
