<svg xmlns="http://www.w3.org/2000/svg" width="65.942" height="49.434" viewBox="0 0 65.942 49.434">
  <g id="Grupo_1077907" data-name="Grupo 1077907" transform="translate(530.18 99.953)">
    <path id="Trazado_197624" data-name="Trazado 197624" d="M-464.357-69.9a16.178,16.178,0,0,0-5.306-10.406,16.8,16.8,0,0,0-4.115-2.73c.116-.138.194-.237.279-.331a9.822,9.822,0,0,0,1.516-11.339,9.876,9.876,0,0,0-10.048-5.153,9.529,9.529,0,0,0-3.79,1.325,1.06,1.06,0,0,0-.421,1.451,1.065,1.065,0,0,0,1.372.478c.278-.106.542-.251.809-.385a7.649,7.649,0,0,1,8.644,1.36,7.683,7.683,0,0,1,1.764,8.576,7.711,7.711,0,0,1-9.014,4.417c-.8-.174-1.388.112-1.533.748-.156.687.243,1.182,1.072,1.384a9.653,9.653,0,0,0,6.861-.791.79.79,0,0,1,.725-.1,14.012,14.012,0,0,1,8.974,11.532,62.587,62.587,0,0,1,.15,6.687c.02.525-.171.577-.614.574-2.876-.019-5.752-.034-8.627.009-.65.01-.839-.189-.93-.8a20.552,20.552,0,0,0-7.883-13.531,22.458,22.458,0,0,0-4.083-2.488,12.1,12.1,0,0,0-.232-17.114,12.108,12.108,0,0,0-16.223-.586,12.192,12.192,0,0,0-.863,17.714c-.248.132-.491.267-.739.392a20.6,20.6,0,0,0-8.167,7.35,20.417,20.417,0,0,0-3.109,8.553c-.055.421-.206.5-.594.5q-4.507-.023-9.014,0c-.4,0-.5-.1-.494-.5.024-1.674-.046-3.35.021-5.021.252-6.225,3.2-10.644,8.924-13.182a1.006,1.006,0,0,1,.963.026,9.512,9.512,0,0,0,6.8.773c.831-.2,1.229-.7,1.073-1.383-.145-.637-.736-.94-1.531-.743a8.037,8.037,0,0,1-3.066.156,7.7,7.7,0,0,1-6.47-8.859,7.7,7.7,0,0,1,8.6-6.353,9.007,9.007,0,0,1,2.957,1.015,1.094,1.094,0,0,0,1.552-.409,1.11,1.11,0,0,0-.583-1.552,10.031,10.031,0,0,0-6.318-1.22A9.886,9.886,0,0,0-522.163-85a17.2,17.2,0,0,0,1.482,1.924c-6.407,3.445-9.592,8.718-9.5,15.953.023,1.738,0,3.476,0,5.215,0,1.142.349,1.489,1.5,1.49,3.348,0,6.7.01,10.044-.01.46,0,.565.128.561.572-.021,2.639-.013,5.279-.009,7.919,0,1.051.378,1.42,1.444,1.42q19.412,0,38.824,0c1.108,0,1.472-.36,1.473-1.456,0-2.618.014-5.236-.011-7.854,0-.48.113-.605.6-.6,3.327.023,6.653,0,9.98.023a1.478,1.478,0,0,0,1.53-.8v-8.5C-464.338-69.735-464.347-69.815-464.357-69.9ZM-507.1-87.97a9.935,9.935,0,0,1,10.066-9.8,9.935,9.935,0,0,1,9.726,10.01,9.947,9.947,0,0,1-9.969,9.771A9.939,9.939,0,0,1-507.1-87.97ZM-479.169-52.7c-6.031-.023-12.062-.014-18.093-.014-5.988,0-11.976-.007-17.964.012-.516,0-.683-.091-.673-.648.037-2.21.025-4.421.014-6.631a18.565,18.565,0,0,1,5.259-13.4,18.66,18.66,0,0,1,6.464-4.334c.313-.13.49.016.7.142a11.738,11.738,0,0,0,7.7,1.685,10.913,10.913,0,0,0,4.691-1.624,1.08,1.08,0,0,1,1.168-.074,18.538,18.538,0,0,1,11.2,14.637,28.244,28.244,0,0,1,.177,4.625c0,1.652-.023,3.306.014,4.957C-478.5-52.842-478.621-52.7-479.169-52.7Z" transform="translate(0 0)" fill="#12263f"/>
  </g>
</svg>
