<svg xmlns="http://www.w3.org/2000/svg" width="55.163" height="53.541" viewBox="0 0 55.163 53.541">
  <g id="Grupo_1078326" data-name="Grupo 1078326" transform="translate(-567.994 109.753)">
    <g id="Grupo_161099" data-name="Grupo 161099" transform="translate(571.805 -105.373)">
      <path id="Trazado_213426" data-name="Trazado 213426" d="M612.845-92.707a5.954,5.954,0,0,0-1.015.089,5.726,5.726,0,0,0-.948.245l-.466.161-.079-.487a7.416,7.416,0,0,0-7.346-6.232,7.429,7.429,0,0,0-1.9.247l-.376.1-.125-.368a8.831,8.831,0,0,0-.351-.866c-.056-.121-.112-.243-.173-.361a8.7,8.7,0,0,0-.478-.817,1,1,0,0,1-.084-.168l-.073-.062-.032-.046a9.114,9.114,0,0,0-7.4-3.859,9.037,9.037,0,0,0-8.93,7.511l-.141.431-.436-.111c-.161-.042-.326-.07-.491-.1l-.29-.054c-.079-.016-.157-.033-.24-.044a8.442,8.442,0,0,0-1.041-.065,8.369,8.369,0,0,0-8.36,8.36,8.369,8.369,0,0,0,8.36,8.359h4.18l-3.857,3.858a.508.508,0,0,0-.148.357v2.866a.507.507,0,0,0,.506.506.507.507,0,0,0,.506-.506v-2.656l4.424-4.425h2.476v7.081a.507.507,0,0,0,.506.506.507.507,0,0,0,.505-.506v-7.081h5.391v7.081a.507.507,0,0,0,.506.506.507.507,0,0,0,.506-.506v-7.081h5.39v7.081a.507.507,0,0,0,.506.506.507.507,0,0,0,.506-.506v-7.081h2.476l4.424,4.425v2.656a.507.507,0,0,0,.506.506.506.506,0,0,0,.505-.506v-2.866a.5.5,0,0,0-.147-.357l-3.857-3.858h6.607a5.939,5.939,0,0,0,5.933-5.932A5.939,5.939,0,0,0,612.845-92.707Zm0,10.853H580.427A7.356,7.356,0,0,1,573.08-89.2a7.356,7.356,0,0,1,7.348-7.349,7.332,7.332,0,0,1,.829.05l.228.035c.2.028.4.062.589.108l.255.064c.184.049.365.107.6.189l.2.072a7.344,7.344,0,0,1,3.35,2.649.507.507,0,0,0,.417.218.491.491,0,0,0,.286-.09.505.505,0,0,0,.129-.7,8.4,8.4,0,0,0-3.069-2.679l-.259-.133.036-.288A8.056,8.056,0,0,1,592-104.12a8.059,8.059,0,0,1,6.756,3.685,8.088,8.088,0,0,1,.423.726c.046.089.087.18.163.35.107.237.2.476.287.722.041.123.079.247.115.374a8.093,8.093,0,0,1,.318,2.206,8.028,8.028,0,0,1-.634,3.14.5.5,0,0,0,0,.386.5.5,0,0,0,.273.275.491.491,0,0,0,.2.039.5.5,0,0,0,.467-.309,9.015,9.015,0,0,0,.713-3.531,9.153,9.153,0,0,0-.087-1.151l-.045-.356.346-.1a6.291,6.291,0,0,1,1.708-.259,6.432,6.432,0,0,1,6.412,6.078l.012.22-.174.133a5.889,5.889,0,0,0-2.068,2.972.507.507,0,0,0,.334.632.5.5,0,0,0,.149.023.51.51,0,0,0,.484-.357,4.9,4.9,0,0,1,2.11-2.727,5,5,0,0,1,.522-.284l.159-.066a4.81,4.81,0,0,1,.484-.181c.075-.022.4-.1.4-.1.1-.023.2-.045.3-.061a4.963,4.963,0,0,1,.739-.059,4.927,4.927,0,0,1,4.921,4.921A4.927,4.927,0,0,1,612.845-81.854Z" transform="translate(-571.652 105.547)" fill="#083142"/>
      <path id="Trazado_213427" data-name="Trazado 213427" d="M612.823-92.133a5.328,5.328,0,0,0-.8.064c-.115.018-.228.044-.341.072l-.065.016-.06.013c-.094.021-.189.043-.285.072-.176.055-.35.121-.558.21-.047.019-.093.038-.143.061a5.482,5.482,0,0,0-.556.3,5.318,5.318,0,0,0-2.288,2.956.094.094,0,0,1-.1.061h-.012a.092.092,0,0,1-.061-.114,5.482,5.482,0,0,1,1.924-2.764l.35-.267-.025-.439a6.849,6.849,0,0,0-6.827-6.468,6.653,6.653,0,0,0-1.819.275l-.691.192.089.712a8.828,8.828,0,0,1,.084,1.1,8.61,8.61,0,0,1-.681,3.37.087.087,0,0,1-.09.051l-.029,0a.1.1,0,0,1-.048-.119,8.431,8.431,0,0,0,.666-3.3,8.475,8.475,0,0,0-.334-2.32c-.037-.133-.078-.264-.12-.391-.084-.246-.183-.495-.3-.764l-.032-.072c-.045-.1-.089-.2-.138-.294a8.656,8.656,0,0,0-.448-.766,8.468,8.468,0,0,0-7.1-3.872,8.472,8.472,0,0,0-8.4,7.423l-.072.576.517.265a7.982,7.982,0,0,1,2.918,2.547.092.092,0,0,1-.024.127.087.087,0,0,1-.05.017.09.09,0,0,1-.076-.039,7.748,7.748,0,0,0-3.537-2.8c-.067-.027-.135-.051-.2-.074l-.059-.022c-.19-.066-.383-.128-.578-.18-.089-.024-.178-.048-.268-.068-.205-.047-.414-.084-.626-.115l-.065-.01c-.058-.009-.116-.019-.174-.025a7.57,7.57,0,0,0-.876-.053,7.773,7.773,0,0,0-7.764,7.764,7.772,7.772,0,0,0,7.764,7.763h32.418a5.341,5.341,0,0,0,5.336-5.335A5.342,5.342,0,0,0,612.823-92.133Zm0,9.841H580.406a6.941,6.941,0,0,1-6.934-6.933,6.942,6.942,0,0,1,6.934-6.934,6.992,6.992,0,0,1,.782.048c.072.008.143.022.215.032.188.027.374.06.557.1.08.019.16.039.24.06.174.047.346.1.515.162.079.027.157.053.233.084a6.936,6.936,0,0,1,3.161,2.5.921.921,0,0,0,.759.4.912.912,0,0,0,.523-.165.92.92,0,0,0,.232-1.282,8.778,8.778,0,0,0-3.221-2.813,7.622,7.622,0,0,1,7.572-6.7,7.691,7.691,0,0,1,6.408,3.5,7.805,7.805,0,0,1,.4.688c.055.108.1.221.154.332a7.353,7.353,0,0,1,.273.686c.039.116.075.233.109.353a7.643,7.643,0,0,1,.3,2.093,7.611,7.611,0,0,1-.6,2.977.921.921,0,0,0,.49,1.207.913.913,0,0,0,.358.073.92.92,0,0,0,.849-.563,9.429,9.429,0,0,0,.746-3.693,9.457,9.457,0,0,0-.09-1.2,5.973,5.973,0,0,1,1.6-.245,6.019,6.019,0,0,1,6,5.685,6.33,6.33,0,0,0-2.213,3.179.923.923,0,0,0,.61,1.152.946.946,0,0,0,.271.04.921.921,0,0,0,.88-.651,4.474,4.474,0,0,1,1.933-2.5,4.447,4.447,0,0,1,.472-.258c.05-.023.1-.043.153-.064a4.369,4.369,0,0,1,.439-.164c.094-.028.192-.048.288-.071.115-.027.229-.057.346-.076a4.569,4.569,0,0,1,.678-.054,4.511,4.511,0,0,1,4.505,4.507A4.511,4.511,0,0,1,612.823-82.292Z" transform="translate(-571.63 105.569)" fill="#083142"/>
      <path id="Trazado_213428" data-name="Trazado 213428" d="M612.86-93.108a6.458,6.458,0,0,0-1.066.09l-.019.005a6.279,6.279,0,0,0-1.015.263,7.87,7.87,0,0,0-7.754-6.582A7.814,7.814,0,0,0,601-99.07a9.335,9.335,0,0,0-.366-.906c-.059-.128-.117-.254-.182-.38a9.5,9.5,0,0,0-.5-.851c-.048-.074-.082-.154-.132-.226-.019-.027-.048-.04-.068-.065a9.539,9.539,0,0,0-7.743-4.033,9.464,9.464,0,0,0-9.339,7.855c-.022-.005-.044-.007-.064-.012-.213-.054-.432-.088-.649-.127-.141-.025-.28-.06-.422-.078a8.7,8.7,0,0,0-1.094-.07,8.785,8.785,0,0,0-8.776,8.776,8.786,8.786,0,0,0,8.776,8.776h3.177l-3.148,3.147a.926.926,0,0,0-.27.652v2.867a.92.92,0,0,0,.921.92.92.92,0,0,0,.92-.92v-2.485l4.181-4.181h1.89v6.666a.92.92,0,0,0,.921.92.92.92,0,0,0,.92-.92v-6.666h4.561v6.666a.92.92,0,0,0,.921.92.92.92,0,0,0,.92-.92v-6.666h4.561v6.666a.921.921,0,0,0,.921.92.921.921,0,0,0,.921-.92v-6.666h1.889l4.181,4.181v2.485a.921.921,0,0,0,.921.92.921.921,0,0,0,.921-.92v-2.867a.922.922,0,0,0-.271-.652l-3.147-3.147h5.6a6.355,6.355,0,0,0,6.348-6.347A6.356,6.356,0,0,0,612.86-93.108Zm0,11.866h-7.609l1.417,1.416,3.148,3.148a.093.093,0,0,1,.027.064v2.867a.091.091,0,0,1-.091.09.091.091,0,0,1-.091-.09v-2.83l-.243-.243L605.237-81l-.243-.243h-3.063v7.5a.091.091,0,0,1-.091.09.091.091,0,0,1-.091-.09v-7.5h-6.221v7.5a.09.09,0,0,1-.09.09.091.091,0,0,1-.091-.09v-7.5h-6.221v7.5a.09.09,0,0,1-.09.09.091.091,0,0,1-.091-.09v-7.5h-3.063l-.243.243-4.181,4.181-.244.243v2.83a.09.09,0,0,1-.09.09.091.091,0,0,1-.091-.09v-2.867a.093.093,0,0,1,.027-.064l3.148-3.148,1.416-1.416h-5.181a7.954,7.954,0,0,1-7.945-7.945,7.954,7.954,0,0,1,7.945-7.945,7.9,7.9,0,0,1,.991.063c.067.008.133.023.2.036s.121.025.182.035l.113.02c.159.027.319.054.475.094a.515.515,0,0,0,.058.011h0l.876.23.154-.892a8.623,8.623,0,0,1,8.521-7.166,8.7,8.7,0,0,1,7.066,3.684l.022.031.025.029.04.043c.029.055.06.109.1.164a8.894,8.894,0,0,1,.453.773c.058.115.112.23.166.349a8.562,8.562,0,0,1,.334.825l.249.736.75-.2a7.012,7.012,0,0,1,1.794-.233,7,7,0,0,1,6.936,5.887l.16.973.932-.324a5.446,5.446,0,0,1,.88-.228l.054-.01h0a5.694,5.694,0,0,1,.888-.073,5.524,5.524,0,0,1,5.518,5.518A5.525,5.525,0,0,1,612.86-81.242Z" transform="translate(-571.667 105.532)" fill="#083142"/>
      <path id="Trazado_213429" data-name="Trazado 213429" d="M612.86-93.108a6.458,6.458,0,0,0-1.066.09l-.019.005a6.279,6.279,0,0,0-1.015.263,7.87,7.87,0,0,0-7.754-6.582A7.814,7.814,0,0,0,601-99.07a9.335,9.335,0,0,0-.366-.906c-.059-.128-.117-.254-.182-.38a9.5,9.5,0,0,0-.5-.851c-.048-.074-.082-.154-.132-.226-.019-.027-.048-.04-.068-.065a9.539,9.539,0,0,0-7.743-4.033,9.464,9.464,0,0,0-9.339,7.855c-.022-.005-.044-.007-.064-.012-.213-.054-.432-.088-.649-.127-.141-.025-.28-.06-.422-.078a8.7,8.7,0,0,0-1.094-.07,8.785,8.785,0,0,0-8.776,8.776,8.786,8.786,0,0,0,8.776,8.776h3.177l-3.148,3.147a.926.926,0,0,0-.27.652v2.867a.92.92,0,0,0,.921.92.92.92,0,0,0,.92-.92v-2.485l4.181-4.181h1.89v6.666a.92.92,0,0,0,.921.92.92.92,0,0,0,.92-.92v-6.666h4.561v6.666a.92.92,0,0,0,.921.92.92.92,0,0,0,.92-.92v-6.666h4.561v6.666a.921.921,0,0,0,.921.92.921.921,0,0,0,.921-.92v-6.666h1.889l4.181,4.181v2.485a.921.921,0,0,0,.921.92.921.921,0,0,0,.921-.92v-2.867a.922.922,0,0,0-.271-.652l-3.147-3.147h5.6a6.355,6.355,0,0,0,6.348-6.347A6.356,6.356,0,0,0,612.86-93.108Zm0,12.281h-6.607l.709.708,3.148,3.148a.515.515,0,0,1,.148.358v2.867a.506.506,0,0,1-.506.505.506.506,0,0,1-.506-.505V-76.4l-.121-.121-4.181-4.181-.121-.121h-2.476v7.081a.506.506,0,0,1-.506.505.506.506,0,0,1-.506-.505v-7.081h-5.391v7.081a.505.505,0,0,1-.505.505.506.506,0,0,1-.506-.505v-7.081h-5.391v7.081a.505.505,0,0,1-.505.505.506.506,0,0,1-.506-.505v-7.081h-2.476l-.121.121-4.181,4.181-.122.121v2.657a.505.505,0,0,1-.505.505.506.506,0,0,1-.506-.505v-2.867a.51.51,0,0,1,.148-.358l3.148-3.148.709-.708h-4.18a8.37,8.37,0,0,1-8.36-8.36,8.369,8.369,0,0,1,8.36-8.36,8.313,8.313,0,0,1,1.042.066c.079.009.156.026.232.042l.17.033.111.02c.17.029.339.058.506.1a.613.613,0,0,0,.061.011l.438.115.077-.446a9.037,9.037,0,0,1,8.93-7.511,9.135,9.135,0,0,1,7.428,3.889l.06.059c.01.018.02.036.03.055.025.046.05.09.078.134a9.1,9.1,0,0,1,.476.812c.061.12.117.242.173.364a8.8,8.8,0,0,1,.351.865l.125.368.376-.1a7.372,7.372,0,0,1,1.9-.248,7.416,7.416,0,0,1,7.346,6.234l.08.487.465-.162a6.09,6.09,0,0,1,.966-.25,6.105,6.105,0,0,1,1-.085,5.94,5.94,0,0,1,5.933,5.933A5.94,5.94,0,0,1,612.86-80.827Z" transform="translate(-571.667 105.532)" fill="#083142"/>
      <path id="Trazado_213430" data-name="Trazado 213430" d="M612.808-91.733a5.01,5.01,0,0,0-.74.059c-.1.016-.205.04-.307.064l-.07.017-.063.015c-.084.019-.169.038-.254.064a5.458,5.458,0,0,0-.522.2c-.042.017-.082.034-.125.053a4.978,4.978,0,0,0-.514.281,4.9,4.9,0,0,0-2.111,2.726.5.5,0,0,1-.484.357.509.509,0,0,1-.148-.022.507.507,0,0,1-.335-.633,5.892,5.892,0,0,1,2.068-2.971l.174-.134-.012-.22a6.432,6.432,0,0,0-6.412-6.076,6.262,6.262,0,0,0-1.708.259l-.346.1.045.356a9.106,9.106,0,0,1,.087,1.15,9.005,9.005,0,0,1-.714,3.532.5.5,0,0,1-.466.309.5.5,0,0,1-.2-.04.5.5,0,0,1-.272-.275.5.5,0,0,1,0-.387,8.027,8.027,0,0,0,.634-3.139A8.1,8.1,0,0,0,599.7-98.3c-.036-.126-.074-.25-.115-.371-.079-.233-.173-.47-.287-.725l-.033-.073c-.042-.093-.083-.186-.13-.276a8.272,8.272,0,0,0-.424-.726,8.057,8.057,0,0,0-6.755-3.684,8.057,8.057,0,0,0-7.984,7.059l-.036.287.259.133A8.414,8.414,0,0,1,587.267-94a.508.508,0,0,1-.129.7.5.5,0,0,1-.286.09.508.508,0,0,1-.417-.218,7.33,7.33,0,0,0-3.349-2.65c-.062-.025-.125-.047-.187-.068l-.061-.021q-.269-.1-.546-.171c-.085-.023-.169-.045-.254-.064-.2-.045-.392-.08-.591-.109l-.072-.011c-.052-.008-.1-.017-.156-.023a7.464,7.464,0,0,0-.829-.05,7.357,7.357,0,0,0-7.349,7.349,7.356,7.356,0,0,0,7.349,7.348h32.418a4.926,4.926,0,0,0,4.921-4.92A4.927,4.927,0,0,0,612.808-91.733Zm0,9.426H580.391a6.941,6.941,0,0,1-6.934-6.933,6.942,6.942,0,0,1,6.934-6.934,6.992,6.992,0,0,1,.782.048c.072.008.143.022.215.032.188.027.374.06.557.1.08.019.16.039.24.06.174.047.346.1.515.162.079.027.157.053.233.084a6.936,6.936,0,0,1,3.161,2.5.921.921,0,0,0,.759.4.912.912,0,0,0,.523-.165.92.92,0,0,0,.232-1.282,8.778,8.778,0,0,0-3.221-2.813,7.622,7.622,0,0,1,7.572-6.695,7.692,7.692,0,0,1,6.408,3.5,7.806,7.806,0,0,1,.4.688c.055.108.1.221.154.332a7.352,7.352,0,0,1,.273.686c.039.116.075.233.109.353a7.642,7.642,0,0,1,.3,2.093,7.611,7.611,0,0,1-.6,2.977.921.921,0,0,0,.49,1.207.913.913,0,0,0,.358.073.92.92,0,0,0,.849-.563,9.429,9.429,0,0,0,.746-3.693,9.457,9.457,0,0,0-.09-1.2,5.972,5.972,0,0,1,1.6-.245,6.019,6.019,0,0,1,6,5.685,6.33,6.33,0,0,0-2.213,3.179.923.923,0,0,0,.61,1.152.946.946,0,0,0,.271.04.921.921,0,0,0,.88-.651,4.474,4.474,0,0,1,1.933-2.5,4.446,4.446,0,0,1,.472-.258c.05-.023.1-.043.153-.064a4.369,4.369,0,0,1,.439-.164c.094-.028.192-.048.288-.071.115-.027.229-.057.346-.076a4.569,4.569,0,0,1,.678-.054,4.511,4.511,0,0,1,4.505,4.507A4.511,4.511,0,0,1,612.808-82.307Z" transform="translate(-571.615 105.584)" fill="#083142"/>
    </g>
    <g id="Grupo_161100" data-name="Grupo 161100" transform="translate(567.994 -109.753)">
      <path id="Trazado_213431" data-name="Trazado 213431" d="M620.286-89.349a.507.507,0,0,0-.506.506v2.77a.507.507,0,0,0,.506.506.506.506,0,0,0,.505-.506v-2.77A.506.506,0,0,0,620.286-89.349Z" transform="translate(-566.044 110.521)" fill="#083142"/>
      <path id="Trazado_213432" data-name="Trazado 213432" d="M618.546-109.352H572.576a4.187,4.187,0,0,0-4.182,4.182v32.555a4.186,4.186,0,0,0,4.182,4.18h19.441v3.787h-1.443a.507.507,0,0,0-.478.34L587.8-57.653h-9.1a.506.506,0,0,0-.506.505.507.507,0,0,0,.506.505h33.713a.507.507,0,0,0,.506-.505.506.506,0,0,0-.506-.505h-9.1l-2.291-6.655a.506.506,0,0,0-.478-.341h-1.443v-3.787h19.441a4.185,4.185,0,0,0,4.181-4.18v-7.162a.506.506,0,0,0-.505-.505.507.507,0,0,0-.506.505v5.669H569.407V-105.17a3.174,3.174,0,0,1,3.169-3.171h45.971a3.174,3.174,0,0,1,3.169,3.171v3.227a.507.507,0,0,0,.506.505.506.506,0,0,0,.505-.505v-3.227A4.186,4.186,0,0,0,618.546-109.352ZM600.188-63.637l2.06,5.984H588.874l2.06-5.984Zm-7.16-1.012v-3.787h5.066v3.787ZM621.3-73.1l.415.065v.416a3.172,3.172,0,0,1-3.169,3.168H572.576a3.172,3.172,0,0,1-3.169-3.168V-73.1Z" transform="translate(-567.979 109.768)" fill="#083142"/>
      <path id="Trazado_213433" data-name="Trazado 213433" d="M620.286-97.359a.507.507,0,0,0-.506.506v2.77a.507.507,0,0,0,.506.505.506.506,0,0,0,.505-.505v-2.77A.506.506,0,0,0,620.286-97.359Z" transform="translate(-566.044 110.22)" fill="#083142"/>
      <path id="Trazado_213434" data-name="Trazado 213434" d="M620.3-97.759a.921.921,0,0,0-.921.92v2.771a.922.922,0,0,0,.921.921.921.921,0,0,0,.92-.921v-2.771A.92.92,0,0,0,620.3-97.759Zm.09,3.691a.091.091,0,0,1-.09.091.092.092,0,0,1-.091-.091v-2.771a.091.091,0,0,1,.091-.09.09.09,0,0,1,.09.09Z" transform="translate(-566.059 110.205)" fill="#083142"/>
      <path id="Trazado_213435" data-name="Trazado 213435" d="M620.3-89.749a.921.921,0,0,0-.921.92v2.772a.922.922,0,0,0,.921.921.921.921,0,0,0,.92-.921v-2.772A.92.92,0,0,0,620.3-89.749Zm.09,3.692a.09.09,0,0,1-.09.09.091.091,0,0,1-.091-.09v-2.772a.091.091,0,0,1,.091-.09.09.09,0,0,1,.09.09Z" transform="translate(-566.059 110.506)" fill="#083142"/>
      <path id="Trazado_213436" data-name="Trazado 213436" d="M568.969-73.983v.066a3.588,3.588,0,0,0,3.585,3.583h45.971a3.587,3.587,0,0,0,3.584-3.583v-.9h-53.14Zm.83,0h51.479v.066a2.756,2.756,0,0,1-2.754,2.753H572.554a2.757,2.757,0,0,1-2.755-2.753Z" transform="translate(-567.957 111.069)" fill="#083142"/>
      <path id="Trazado_213437" data-name="Trazado 213437" d="M597.63-65.7V-70.32h-5.9V-65.7h5.9Zm-5.066-3.786H596.8v2.956h-4.236Z" transform="translate(-567.1 111.238)" fill="#083142"/>
      <path id="Trazado_213438" data-name="Trazado 213438" d="M618.561-109.753H572.591a4.6,4.6,0,0,0-4.6,4.6V-72.6a4.6,4.6,0,0,0,4.6,4.6h19.026v2.956h-1.028a.924.924,0,0,0-.872.621l-2.194,6.374h-8.8a.92.92,0,0,0-.92.921.92.92,0,0,0,.92.92h33.713a.921.921,0,0,0,.921-.92.921.921,0,0,0-.921-.921h-8.8l-2.195-6.374a.921.921,0,0,0-.871-.621h-1.028V-68h19.026a4.6,4.6,0,0,0,4.6-4.6v-7.162a.92.92,0,0,0-.92-.92.921.921,0,0,0-.921.92v5.254H569.836v-30.647a2.757,2.757,0,0,1,2.755-2.754h45.971a2.756,2.756,0,0,1,2.754,2.754v3.228a.922.922,0,0,0,.921.921.921.921,0,0,0,.92-.921v-3.228A4.6,4.6,0,0,0,618.561-109.753Zm3.766,6.352v1.473a.091.091,0,0,1-.09.091.092.092,0,0,1-.091-.091v-3.228a3.588,3.588,0,0,0-3.584-3.584H572.591a3.588,3.588,0,0,0-3.585,3.584v31.477h53.14v-6.084a.091.091,0,0,1,.091-.09.09.09,0,0,1,.09.09V-72.6a3.77,3.77,0,0,1-3.766,3.766H598.706v4.617h1.859a.092.092,0,0,1,.086.061l2.194,6.373.193.56h9.395a.091.091,0,0,1,.091.091.091.091,0,0,1-.091.09H578.719a.09.09,0,0,1-.09-.09.091.091,0,0,1,.09-.091h9.395l.193-.56,2.195-6.373a.091.091,0,0,1,.086-.061h1.858v-4.617H572.591a3.77,3.77,0,0,1-3.767-3.766v-32.556a3.771,3.771,0,0,1,3.767-3.767h45.971a3.771,3.771,0,0,1,3.766,3.767Z" transform="translate(-567.994 109.753)" fill="#083142"/>
      <path id="Trazado_213439" data-name="Trazado 213439" d="M591.8-65.7h-1.884l-.193.56-1.773,5.153-.379,1.1h14.537l-.379-1.1-1.773-5.153-.193-.56H591.8Zm9.144,5.983h-12.21l1.774-5.153h8.662Z" transform="translate(-567.257 111.412)" fill="#083142"/>
      <path id="Trazado_213440" data-name="Trazado 213440" d="M620.3-89.749a.921.921,0,0,0-.921.92v2.772a.922.922,0,0,0,.921.921.921.921,0,0,0,.92-.921v-2.772A.92.92,0,0,0,620.3-89.749Zm.505,3.692a.506.506,0,0,1-.505.506.507.507,0,0,1-.506-.506v-2.772a.506.506,0,0,1,.506-.505.505.505,0,0,1,.505.505Z" transform="translate(-566.059 110.506)" fill="#083142"/>
      <path id="Trazado_213441" data-name="Trazado 213441" d="M569.369-74v.066a3.173,3.173,0,0,0,3.17,3.168H618.51a3.172,3.172,0,0,0,3.169-3.168v-.481h-52.31Zm.415,0h51.479v.066a2.756,2.756,0,0,1-2.754,2.753H572.539a2.757,2.757,0,0,1-2.755-2.753Z" transform="translate(-567.942 111.084)" fill="#083142"/>
      <path id="Trazado_213442" data-name="Trazado 213442" d="M620.3-97.759a.921.921,0,0,0-.921.92v2.771a.922.922,0,0,0,.921.921.921.921,0,0,0,.92-.921v-2.771A.92.92,0,0,0,620.3-97.759Zm.505,3.691a.506.506,0,0,1-.505.506.507.507,0,0,1-.506-.506v-2.771a.506.506,0,0,1,.506-.505.505.505,0,0,1,.505.505Z" transform="translate(-566.059 110.205)" fill="#083142"/>
      <path id="Trazado_213443" data-name="Trazado 213443" d="M597.2-66.134V-69.92h-5.066v3.786H597.2ZM592.549-69.5h4.236v2.956h-4.236Z" transform="translate(-567.085 111.253)" fill="#083142"/>
      <path id="Trazado_213444" data-name="Trazado 213444" d="M618.561-109.753H572.591a4.6,4.6,0,0,0-4.6,4.6V-72.6a4.6,4.6,0,0,0,4.6,4.6h19.026v2.956h-1.028a.924.924,0,0,0-.872.621l-2.194,6.374h-8.8a.92.92,0,0,0-.92.921.92.92,0,0,0,.92.92h33.713a.921.921,0,0,0,.921-.92.921.921,0,0,0-.921-.921h-8.8l-2.195-6.374a.921.921,0,0,0-.871-.621h-1.028V-68h19.026a4.6,4.6,0,0,0,4.6-4.6v-7.162a.92.92,0,0,0-.92-.92.921.921,0,0,0-.921.92v5.254H569.836v-30.647a2.757,2.757,0,0,1,2.755-2.754h45.971a2.756,2.756,0,0,1,2.754,2.754v3.228a.922.922,0,0,0,.921.921.921.921,0,0,0,.92-.921v-3.228A4.6,4.6,0,0,0,618.561-109.753Zm4.181,6.352v1.473a.506.506,0,0,1-.505.506.507.507,0,0,1-.506-.506v-3.228a3.173,3.173,0,0,0-3.169-3.169H572.591a3.173,3.173,0,0,0-3.17,3.169v31.062h52.31v-5.669a.506.506,0,0,1,.506-.505.505.505,0,0,1,.505.505V-72.6a4.186,4.186,0,0,1-4.181,4.181H599.121v3.786h1.443a.506.506,0,0,1,.478.341l2.194,6.373.1.28h9.1a.507.507,0,0,1,.506.506.506.506,0,0,1-.506.505H578.719a.505.505,0,0,1-.505-.505.506.506,0,0,1,.505-.506h9.1l.1-.28,2.194-6.373a.507.507,0,0,1,.479-.341h1.443V-68.42H572.591a4.187,4.187,0,0,1-4.182-4.181v-32.556a4.187,4.187,0,0,1,4.182-4.182h45.971a4.186,4.186,0,0,1,4.181,4.182Z" transform="translate(-567.994 109.753)" fill="#083142"/>
      <path id="Trazado_213445" data-name="Trazado 213445" d="M591.778-65.3H590.19l-.1.28-1.774,5.153-.189.55H601.5l-.19-.55-1.773-5.153-.1-.28h-7.666Zm9.144,5.568h-12.21l1.774-5.153h8.662Z" transform="translate(-567.236 111.427)" fill="#083142"/>
    </g>
  </g>
</svg>
