<svg id="Grupo_1079452" data-name="Grupo 1079452" xmlns="http://www.w3.org/2000/svg" xmlns:xlink="http://www.w3.org/1999/xlink" width="85" height="85" viewBox="0 0 85 85">
  <defs>
    <clipPath id="clip-path">
      <rect id="Rectángulo_379182" data-name="Rectángulo 379182" width="85" height="85" fill="none"/>
    </clipPath>
    <clipPath id="clip-path-2">
      <circle id="Elipse_11400" data-name="Elipse 11400" cx="42.5" cy="42.5" r="42.5" fill="none"/>
    </clipPath>
  </defs>
  <g id="Grupo_1079449" data-name="Grupo 1079449">
    <g id="Grupo_1079448" data-name="Grupo 1079448" clip-path="url(#clip-path)">
      <path id="Trazado_828936" data-name="Trazado 828936" d="M42.5,0A42.5,42.5,0,1,1,0,42.5,42.5,42.5,0,0,1,42.5,0" fill="#c6daee"/>
    </g>
  </g>
  <g id="Grupo_1079451" data-name="Grupo 1079451">
    <g id="Grupo_1079450" data-name="Grupo 1079450" clip-path="url(#clip-path-2)">
      <path id="Trazado_828937" data-name="Trazado 828937" d="M51.848,28.439a4.309,4.309,0,0,0-.667.053v7.871c0,.235-.011.467-.027.7a4.411,4.411,0,0,0,.694.06,4.341,4.341,0,0,0,0-8.682Z" fill="#f9c5a5"/>
      <path id="Trazado_828938" data-name="Trazado 828938" d="M45.757,25.043c-1.585,1.849-7.2,7.457-15.372,5.129v6.193a10.4,10.4,0,0,0,20.8,0v-8.4a.815.815,0,0,0-.639-.792,8.6,8.6,0,0,1-3.795-2.185A.691.691,0,0,0,45.757,25.043Z" fill="#f9c5a5"/>
      <path id="Trazado_828939" data-name="Trazado 828939" d="M30.385,30.172a16.863,16.863,0,0,1-2.2-.8,1.324,1.324,0,0,0-1.438.247,4.326,4.326,0,0,0,3.663,7.441c-.016-.23-.026-.462-.026-.7Z" fill="#f9c5a5"/>
      <path id="Trazado_828940" data-name="Trazado 828940" d="M26.748,29.62a1.322,1.322,0,0,1,1.438-.247,17.01,17.01,0,0,0,2.2.8c8.172,2.328,13.788-3.28,15.371-5.129a.69.69,0,0,1,.991-.055,8.6,8.6,0,0,0,3.794,2.183.817.817,0,0,1,.639.793v.528a4.322,4.322,0,0,1,3.742,1.224V27.173a14.14,14.14,0,1,0-28.279,0v2.555C26.679,29.692,26.711,29.654,26.748,29.62Z" fill="#ffd570"/>
      <path id="Trazado_828941" data-name="Trazado 828941" d="M51.848,37.122a4.388,4.388,0,0,1-.693-.06,10.436,10.436,0,0,1-5.426,8.44v.755h4.484a6.885,6.885,0,0,0,5.343-11.228A4.334,4.334,0,0,1,51.848,37.122Z" fill="#ffd570"/>
      <path id="Trazado_828942" data-name="Trazado 828942" d="M31.353,46.257h4.485V45.5a10.432,10.432,0,0,1-5.426-8.44,4.411,4.411,0,0,1-.694.06A4.335,4.335,0,0,1,26.01,35.03a6.884,6.884,0,0,0,5.343,11.227" fill="#ffd570"/>
      <path id="Trazado_828943" data-name="Trazado 828943" d="M53.269,71.895a1.4,1.4,0,0,0-1.03-.451h-.8a3.126,3.126,0,0,1-3.117-3.116V56.979a3.126,3.126,0,0,1,3.117-3.116h1.475V53.48l-1.2-.3a9.058,9.058,0,0,1-1.8-.661l-2.571-1.268a2.89,2.89,0,0,1-1.613-2.593V45.5a10.336,10.336,0,0,1-9.891,0v3.153a2.891,2.891,0,0,1-1.612,2.593l-2.571,1.268a9.09,9.09,0,0,1-1.8.661l-7.434,1.877a4.263,4.263,0,0,0-3.217,3.9l-.821,22.578a1.186,1.186,0,0,0,1.183,1.252h6.583a.8.8,0,0,0,.8-.8V67.866l1.162,3.724a25.235,25.235,0,0,1,1.147,7.521v2.868a.8.8,0,0,0,.8.8H51.5a.8.8,0,0,0,.8-.8V79.111a25.21,25.21,0,0,1,1.035-7.138Z" fill="#f9c5a5"/>
      <path id="Trazado_828944" data-name="Trazado 828944" d="M53.269,71.895a1.4,1.4,0,0,0-1.03-.451h-.8a3.126,3.126,0,0,1-3.117-3.116V56.979a3.126,3.126,0,0,1,3.117-3.116h1.475V53.48l-1.2-.3a9.058,9.058,0,0,1-1.8-.661l-2.571-1.268a2.469,2.469,0,0,1-.234-.137L40.986,74.982a6.5,6.5,0,0,0-.2,1.621v6.178H51.5a.8.8,0,0,0,.8-.8V79.111a25.21,25.21,0,0,1,1.035-7.138Z" fill="#494c4f"/>
      <path id="Trazado_828945" data-name="Trazado 828945" d="M58.6,71.444a1.4,1.4,0,0,0-1.4,1.4v1.635a.656.656,0,0,1-1.138.445l-1.445-1.569V81.98a.8.8,0,0,0,.8.8H62a1.186,1.186,0,0,0,1.184-1.251l-.367-10.086Z" fill="#494c4f"/>
      <path id="Trazado_828946" data-name="Trazado 828946" d="M34.459,51.111c-.077.047-.152.1-.234.137l-2.571,1.267a9.047,9.047,0,0,1-1.8.662l-7.434,1.876a4.264,4.264,0,0,0-3.216,3.9l-.822,22.578a1.185,1.185,0,0,0,1.184,1.251H26.15a.8.8,0,0,0,.8-.8V67.865l1.163,3.724a25.245,25.245,0,0,1,1.146,7.522v2.868a.8.8,0,0,0,.8.8H40.783V76.6a6.563,6.563,0,0,0-.2-1.621Z" fill="#494c4f"/>
      <path id="Trazado_828947" data-name="Trazado 828947" d="M51.436,53.862H66.4a3.126,3.126,0,0,1,3.117,3.117V68.327A3.125,3.125,0,0,1,66.4,71.443H58.6a1.4,1.4,0,0,0-1.4,1.4v1.634a.656.656,0,0,1-1.137.446l-2.792-3.03a1.4,1.4,0,0,0-1.029-.451h-.8a3.124,3.124,0,0,1-3.116-3.116V56.979A3.125,3.125,0,0,1,51.436,53.862Z" fill="#219cd6"/>
      <path id="Trazado_828948" data-name="Trazado 828948" d="M71,47.381H56.027A3.126,3.126,0,0,0,52.91,50.5v3.366H66.4a3.126,3.126,0,0,1,3.116,3.116v8.163a1.386,1.386,0,0,1,.671-.18H71a3.125,3.125,0,0,0,3.116-3.116V50.5A3.125,3.125,0,0,0,71,47.381" fill="#e34d6c"/>
      <path id="Trazado_828949" data-name="Trazado 828949" d="M48.319,56.979a3.124,3.124,0,0,1,3.015-3.111l-.122-.832a9.118,9.118,0,0,1-1.3-.52L47.34,51.248a2.6,2.6,0,0,1-.234-.137L40.985,74.982a6.485,6.485,0,0,0-.186,1.166l7.52-9.367Z" fill="#6e6f70"/>
      <path id="Trazado_828950" data-name="Trazado 828950" d="M40.58,74.981l-6.121-23.87c-.077.047-.152.1-.234.137l-2.571,1.267a9,9,0,0,1-1.3.52l-.633,4.337a.73.73,0,0,0,.338.761l2.188,1.091a.762.762,0,0,1,.28.967l-1.415,3.232a.816.816,0,0,0,.094.815l9.561,11.91A6.5,6.5,0,0,0,40.58,74.981Z" fill="#6e6f70"/>
      <path id="Trazado_828951" data-name="Trazado 828951" d="M40.58,74.981a6.557,6.557,0,0,1,.2,1.621,6.557,6.557,0,0,1,.2-1.621L44.161,62.6a1.96,1.96,0,0,0-1.4.271.859.859,0,0,1-.922,0,1.954,1.954,0,0,0-2.1,0,.86.86,0,0,1-.923,0,1.958,1.958,0,0,0-1.4-.271Z" fill="#cfe0ed"/>
      <path id="Trazado_828952" data-name="Trazado 828952" d="M58.125,66.889a1.5,1.5,0,0,1-1.058-.438L54.536,63.92A1.5,1.5,0,0,1,56.652,61.8l1.473,1.472,2.991-2.991A1.5,1.5,0,0,1,63.233,62.4l-4.05,4.049A1.49,1.49,0,0,1,58.125,66.889Z" fill="#e7f2fc"/>
      <path id="Trazado_828953" data-name="Trazado 828953" d="M51.848,37.87a4.682,4.682,0,0,1-.48-.025.749.749,0,0,1,.155-1.49,3.076,3.076,0,0,0,.325.018,3.593,3.593,0,0,0,0-7.185c-.112,0-.226.006-.341.017a.748.748,0,1,1-.146-1.489,4.686,4.686,0,0,1,.487-.025,5.089,5.089,0,0,1,0,10.179" fill="#040506"/>
      <path id="Trazado_828954" data-name="Trazado 828954" d="M40.782,47.51A11.16,11.16,0,0,1,29.636,36.363V30.172a.751.751,0,0,1,.954-.721c7.759,2.212,13.135-3.187,14.6-4.9a1.419,1.419,0,0,1,1-.5,1.462,1.462,0,0,1,1.065.375,8.029,8.029,0,0,0,3.46,2.009,1.559,1.559,0,0,1,1.219,1.521v8.4A11.16,11.16,0,0,1,40.783,47.51ZM31.133,31.132v5.231a9.65,9.65,0,1,0,19.3,0v-8.4a.071.071,0,0,0-.06-.063,9.428,9.428,0,0,1-4.089-2.324c-1.6,1.857-7.123,7.315-15.15,5.555m15.192-5.6h0m-.568-.486h0Z" fill="#040506"/>
      <path id="Trazado_828955" data-name="Trazado 828955" d="M29.718,37.87a5.085,5.085,0,0,1-3.482-8.8,2.066,2.066,0,0,1,2.252-.386,16.347,16.347,0,0,0,2.1.764.748.748,0,1,1-.41,1.439,17.836,17.836,0,0,1-2.3-.833.571.571,0,0,0-.624.108,3.548,3.548,0,0,0-1.135,2.614,3.6,3.6,0,0,0,3.593,3.593c.088,0,.176,0,.262-.012a.749.749,0,1,1,.128,1.492c-.128.011-.259.017-.39.017" fill="#040506"/>
      <path id="Trazado_828956" data-name="Trazado 828956" d="M26.644,30.334a.748.748,0,0,1-.748-.748V27.173a14.888,14.888,0,0,1,29.775,0v2.281a.749.749,0,1,1-1.5,0V27.173a13.391,13.391,0,1,0-26.782,0v2.413A.748.748,0,0,1,26.644,30.334Z" fill="#040506"/>
      <path id="Trazado_828957" data-name="Trazado 828957" d="M40.783,42.142a4.693,4.693,0,0,1-3.592-1.561.749.749,0,1,1,1.147-.962,3.426,3.426,0,0,0,4.89,0,.749.749,0,1,1,1.147.962A4.693,4.693,0,0,1,40.783,42.142Z" fill="#040506"/>
      <path id="Trazado_828958" data-name="Trazado 828958" d="M45.307,32.635a1.347,1.347,0,1,1-1.347,1.347,1.347,1.347,0,0,1,1.347-1.347" fill="#040506"/>
      <path id="Trazado_828959" data-name="Trazado 828959" d="M36.259,32.635a1.347,1.347,0,1,1-1.347,1.347,1.347,1.347,0,0,1,1.347-1.347" fill="#040506"/>
      <path id="Trazado_828960" data-name="Trazado 828960" d="M50.213,47.005h-4.3a.749.749,0,0,1,0-1.5h4.3a6.144,6.144,0,0,0,6.137-6.137,6.075,6.075,0,0,0-1.3-3.775.748.748,0,0,1,1.18-.921,7.56,7.56,0,0,1,1.616,4.7,7.643,7.643,0,0,1-7.634,7.634" fill="#040506"/>
      <path id="Trazado_828961" data-name="Trazado 828961" d="M35.656,47.005h-4.3a7.643,7.643,0,0,1-7.634-7.634,7.561,7.561,0,0,1,1.609-4.688.749.749,0,0,1,1.181.92,6.076,6.076,0,0,0-1.293,3.768,6.144,6.144,0,0,0,6.137,6.137h4.3a.749.749,0,1,1,0,1.5" fill="#040506"/>
      <path id="Trazado_828962" data-name="Trazado 828962" d="M52.759,54.19a.731.731,0,0,1-.184-.023L51.527,53.9a9.831,9.831,0,0,1-1.946-.716L47.01,51.919a3.617,3.617,0,0,1-2.03-3.264V45.808a.749.749,0,1,1,1.5,0v2.847a2.13,2.13,0,0,0,1.195,1.922l2.57,1.267a8.337,8.337,0,0,0,1.651.607l1.049.265a.748.748,0,0,1-.183,1.474Z" fill="#040506"/>
      <path id="Trazado_828963" data-name="Trazado 828963" d="M51.505,83.529H30.062a1.552,1.552,0,0,1-1.55-1.55V79.111a24.478,24.478,0,0,0-.812-6.255v9.123a1.552,1.552,0,0,1-1.55,1.55H19.567a1.934,1.934,0,0,1-1.931-2.041l.821-22.565a5,5,0,0,1,3.782-4.6l7.434-1.876a8.361,8.361,0,0,0,1.651-.607L33.9,50.577a2.129,2.129,0,0,0,1.194-1.922V45.808a.748.748,0,1,1,1.5,0v2.847a3.62,3.62,0,0,1-2.029,3.265l-2.57,1.267a9.863,9.863,0,0,1-1.947.716L22.6,55.779a3.5,3.5,0,0,0-2.652,3.214l-.821,22.564a.443.443,0,0,0,.118.339.434.434,0,0,0,.317.136H26.15a.053.053,0,0,0,.053-.053V67.866a.748.748,0,0,1,1.463-.223l1.163,3.724a25.979,25.979,0,0,1,1.18,7.744v2.868a.053.053,0,0,0,.053.053H51.505a.052.052,0,0,0,.052-.053V79.111a26,26,0,0,1,1-7.129.749.749,0,0,1,1.44.411,24.493,24.493,0,0,0-.944,6.718v2.868A1.551,1.551,0,0,1,51.505,83.529Z" fill="#040506"/>
      <path id="Trazado_828964" data-name="Trazado 828964" d="M62,83.529H55.417a1.551,1.551,0,0,1-1.55-1.55V73.562a.748.748,0,0,1,1.5,0v8.417a.053.053,0,0,0,.053.053H62a.438.438,0,0,0,.436-.461l-.357-9.8a.748.748,0,0,1,1.5-.054l.356,9.787A1.933,1.933,0,0,1,62,83.529" fill="#040506"/>
      <path id="Trazado_828965" data-name="Trazado 828965" d="M40.783,83.323a.748.748,0,0,1-.748-.748V76.6a5.782,5.782,0,0,0-.18-1.435l-6.05-23.594a.748.748,0,1,1,1.45-.372l6.05,23.594a7.292,7.292,0,0,1,.226,1.807v5.973A.748.748,0,0,1,40.783,83.323Z" fill="#040506"/>
      <path id="Trazado_828966" data-name="Trazado 828966" d="M56.539,75.884a1.394,1.394,0,0,1-1.028-.454L52.719,72.4a.656.656,0,0,0-.479-.21h-.8a3.87,3.87,0,0,1-3.865-3.865V56.979a3.87,3.87,0,0,1,3.865-3.865H66.4a3.869,3.869,0,0,1,3.864,3.865V68.327A3.869,3.869,0,0,1,66.4,72.192H58.6a.653.653,0,0,0-.652.652v1.635a1.4,1.4,0,0,1-.893,1.308A1.429,1.429,0,0,1,56.539,75.884Zm-5.1-21.273a2.37,2.37,0,0,0-2.368,2.368V68.327a2.37,2.37,0,0,0,2.368,2.368h.8a2.16,2.16,0,0,1,1.58.692l2.63,2.853v-1.4A2.151,2.151,0,0,1,58.6,70.695H66.4a2.37,2.37,0,0,0,2.368-2.368V56.978A2.37,2.37,0,0,0,66.4,54.611Z" fill="#040506"/>
      <path id="Trazado_828967" data-name="Trazado 828967" d="M69.782,65.776a.748.748,0,0,1-.231-1.46,2.071,2.071,0,0,1,.641-.1H71a2.37,2.37,0,0,0,2.367-2.367V50.5A2.37,2.37,0,0,0,71,48.129H56.027A2.37,2.37,0,0,0,53.66,50.5V53.48a.749.749,0,0,1-1.5,0V50.5a3.869,3.869,0,0,1,3.864-3.865H71A3.869,3.869,0,0,1,74.86,50.5V61.846A3.869,3.869,0,0,1,71,65.71h-.8a.593.593,0,0,0-.179.029A.739.739,0,0,1,69.782,65.776Z" fill="#040506"/>
      <path id="Trazado_828968" data-name="Trazado 828968" d="M40.8,76.9a.762.762,0,0,1-.272-.051.747.747,0,0,1-.474-.749,7.205,7.205,0,0,1,.207-1.3l6.062-23.639a.748.748,0,0,1,1.45.372L42.22,73.184,47.6,66.477a.748.748,0,0,1,1.167.937l-7.387,9.2A.748.748,0,0,1,40.8,76.9Z" fill="#040506"/>
      <path id="Trazado_828969" data-name="Trazado 828969" d="M40.695,76.807a.746.746,0,0,1-.584-.28l-9.49-11.821a1.557,1.557,0,0,1-.2-1.584L31.84,59.89a.072.072,0,0,0,0-.031L29.724,58.8a1.475,1.475,0,0,1-.744-1.539l.6-4.079a.748.748,0,0,1,1.481.216l-.595,4.079V57.5l2.121,1.057a1.5,1.5,0,0,1,.63,1.937L31.8,63.722a.1.1,0,0,0,0,.057l9.482,11.81a.749.749,0,0,1-.583,1.218M30.464,57.524h0Z" fill="#040506"/>
      <path id="Trazado_828970" data-name="Trazado 828970" d="M39.274,63.751a1.615,1.615,0,0,1-.867-.252,1.207,1.207,0,0,0-.749-.182.748.748,0,1,1-.122-1.491,2.693,2.693,0,0,1,1.675.41.11.11,0,0,0,.117,0,2.749,2.749,0,0,1,2.91,0,.11.11,0,0,0,.117,0,2.688,2.688,0,0,1,1.721-.407.749.749,0,0,1-.146,1.49,1.189,1.189,0,0,0-.771.18,1.612,1.612,0,0,1-1.727,0,1.228,1.228,0,0,0-1.3,0A1.605,1.605,0,0,1,39.274,63.751Z" fill="#040506"/>
      <path id="Trazado_828971" data-name="Trazado 828971" d="M58.125,67.638a2.233,2.233,0,0,1-1.588-.658l-2.53-2.531a2.245,2.245,0,1,1,3.175-3.175l.943.943,2.463-2.462a2.245,2.245,0,1,1,3.175,3.175l-4.049,4.05A2.237,2.237,0,0,1,58.125,67.638ZM55.6,62.113a.75.75,0,0,0-.53,1.278L57.6,65.922a.764.764,0,0,0,1.057,0l4.05-4.05a.746.746,0,0,0,0-1.058.766.766,0,0,0-1.058,0l-2.992,2.992a.747.747,0,0,1-1.057,0l-1.473-1.473A.747.747,0,0,0,55.6,62.113Z" fill="#040506"/>
    </g>
  </g>
</svg>
