<svg xmlns="http://www.w3.org/2000/svg" width="25.72" height="16.114" viewBox="0 0 25.72 16.114">
  <g id="Grupo_1078410" data-name="Grupo 1078410" transform="translate(452.177 -893.609)">
    <path id="Trazado_219873" data-name="Trazado 219873" d="M-426.457,903.87c-.134.341-.137.71-.241,1.059a6.459,6.459,0,0,1-3.834,4.292,6.506,6.506,0,0,1-2.57.478q-7.18.009-14.36.024a4.467,4.467,0,0,1-4.108-2.274,4.5,4.5,0,0,1,3.284-6.693,4.3,4.3,0,0,1,.6-.045c.15,0,.192-.026.192-.189a6.783,6.783,0,0,1,2.32-5.214,6.854,6.854,0,0,1,9.07.03,6.733,6.733,0,0,1,1.21,1.432.224.224,0,0,0,.3.123,6.3,6.3,0,0,1,5.1.794,6.34,6.34,0,0,1,2.953,4.453.724.724,0,0,0,.092.372Z" fill="#ff6148"/>
  </g>
</svg>
