<svg id="Grupo_1078248" data-name="Grupo 1078248" xmlns="http://www.w3.org/2000/svg" width="56" height="58" viewBox="0 0 56 58">
  <ellipse id="Elipse_4869" data-name="Elipse 4869" cx="28" cy="29" rx="28" ry="29" fill="#2efec7"/>
  <g id="Grupo_158441" data-name="Grupo 158441" transform="translate(502.188 74.475)">
    <path id="Trazado_208361" data-name="Trazado 208361" d="M-453.565-48.473a19.768,19.768,0,0,0-2.1-6.618,20.236,20.236,0,0,0-5.028-6.207,19.894,19.894,0,0,0-9.431-4.4c-.711-.127-1.431-.122-2.144-.208h-3c-.412.075-.833.044-1.245.1a19.537,19.537,0,0,0-6.473,2.039,20.231,20.231,0,0,0-6.235,4.993,20.13,20.13,0,0,0-4.4,9.094c-.16.773-.181,1.557-.283,2.334v3.316c.083.4.051.805.1,1.205a19.574,19.574,0,0,0,1.928,6.223,20.236,20.236,0,0,0,5.217,6.55,20.065,20.065,0,0,0,8.627,4.22,20.1,20.1,0,0,0,2.76.358h3.079c.451-.078.911-.041,1.363-.1a19.861,19.861,0,0,0,7.5-2.626,20.586,20.586,0,0,0,5.245-4.488,20.052,20.052,0,0,0,4.246-8.658,20.1,20.1,0,0,0,.358-2.76v-3.079C-453.542-47.614-453.51-48.048-453.565-48.473Zm-10.4,17.748a17.911,17.911,0,0,1-9.7,2.887,17.926,17.926,0,0,1-9.8-2.923.474.474,0,0,1-.243-.573,10.236,10.236,0,0,1,8.421-7.965,10.2,10.2,0,0,1,11.592,7.873A.546.546,0,0,1-463.962-30.725Zm-16.145-17.506a6.422,6.422,0,0,1,6.415-6.422,6.423,6.423,0,0,1,6.424,6.413,6.411,6.411,0,0,1-6.4,6.435A6.411,6.411,0,0,1-480.107-48.231Zm18.55,15.567a12.753,12.753,0,0,0-7.3-8.187,8.748,8.748,0,0,0,3.912-8.228,8.368,8.368,0,0,0-2.946-5.749,8.76,8.76,0,0,0-12.308.7,8.507,8.507,0,0,0-2.2,7.028,8.709,8.709,0,0,0,3.9,6.244,12.732,12.732,0,0,0-7.305,8.167,17.551,17.551,0,0,1-5.315-16.786A17.862,17.862,0,0,1-475.4-63.45a17.838,17.838,0,0,1,18.5,11.71A17.691,17.691,0,0,1-461.557-32.664Z" transform="translate(0)"/>
  </g>
</svg>
