<svg id="Grupo_1078249" data-name="Grupo 1078249" xmlns="http://www.w3.org/2000/svg" width="55" height="58" viewBox="0 0 55 58">
  <ellipse id="Elipse_4870" data-name="Elipse 4870" cx="27.5" cy="29" rx="27.5" ry="29" fill="#2efec7"/>
  <g id="Grupo_158440" data-name="Grupo 158440" transform="translate(443.762 1.906)">
    <path id="Trazado_208360" data-name="Trazado 208360" d="M-397.234,24.487a3.617,3.617,0,0,0-3.805-2.994c-.6,0-.592,0-.6-.6a13.161,13.161,0,0,0-.092-2.545,3.594,3.594,0,0,0-3.6-2.787c-3.362-.006-6.725-.012-10.087.005a2.658,2.658,0,0,1-2.092-.86c-.429-.463-.9-.89-1.338-1.34a3.62,3.62,0,0,0-2.683-1.143c-2.7,0-5.408-.018-8.111.009a3.544,3.544,0,0,0-3.607,3.676q-.006,10.437,0,20.873a3.617,3.617,0,0,0,.13.975,3.609,3.609,0,0,0,3.655,2.668q6.2.011,12.393,0,6.217,0,12.435,0a3.563,3.563,0,0,0,3.691-2.724q1.789-5.7,3.573-11.394A3.684,3.684,0,0,0-397.234,24.487Zm-34.717-8.454a2.283,2.283,0,0,1,1.74-2.421,3.164,3.164,0,0,1,.735-.063c2.594,0,5.188.006,7.782-.008a2.563,2.563,0,0,1,1.981.827c.415.438.864.845,1.279,1.282a3.864,3.864,0,0,0,2.976,1.238c3.321-.02,6.642-.007,9.964-.007a2.307,2.307,0,0,1,2.541,2.551c0,.6-.008,1.208,0,1.811,0,.2-.054.276-.253.251a2.282,2.282,0,0,0-.288,0h-22.192a3.64,3.64,0,0,0-3.863,2.844q-1.119,3.584-2.24,7.167c-.031.1-.069.193-.1.289l-.062-.011v-.309Q-431.953,23.752-431.952,16.033Zm33.3,9.84q-1.789,5.758-3.593,11.512a2.251,2.251,0,0,1-2.392,1.727q-6.215.006-12.43,0-6.195,0-12.389,0a2.313,2.313,0,0,1-2.449-1.818,2.349,2.349,0,0,1,.072-1.257q1.805-5.775,3.612-11.549a2.26,2.26,0,0,1,2.309-1.678q12.492,0,24.984,0A2.265,2.265,0,0,1-398.647,25.873Z" transform="translate(0 0)"/>
  </g>
</svg>
