<svg xmlns="http://www.w3.org/2000/svg" width="71.667" height="71.667" viewBox="0 0 71.667 71.667">
  <g id="corporacion" transform="translate(-2 -2)">
    <path id="Trazado_827276" data-name="Trazado 827276" d="M34,3H68.275V73.109H34Z" transform="translate(-7.073 -0.221)" fill="#6ebaed"/>
    <path id="Trazado_827277" data-name="Trazado 827277" d="M3,29H27.148V78.855H3Z" transform="translate(-0.221 -5.967)" fill="#f2ae40"/>
    <g id="Grupo_1078504" data-name="Grupo 1078504" transform="translate(6.674 6.674)">
      <path id="Trazado_827278" data-name="Trazado 827278" d="M8,34h6.232v6.232H8Z" transform="translate(-8 -13.746)" fill="#ddd"/>
      <path id="Trazado_827279" data-name="Trazado 827279" d="M21,34h6.232v6.232H21Z" transform="translate(-10.873 -13.746)" fill="#ddd"/>
      <path id="Trazado_827280" data-name="Trazado 827280" d="M8,47h6.232v6.232H8Z" transform="translate(-8 -16.62)" fill="#ddd"/>
      <path id="Trazado_827281" data-name="Trazado 827281" d="M21,47h6.232v6.232H21Z" transform="translate(-10.873 -16.62)" fill="#ddd"/>
      <path id="Trazado_827282" data-name="Trazado 827282" d="M8,60h6.232v6.232H8Z" transform="translate(-8 -19.493)" fill="#ddd"/>
      <path id="Trazado_827283" data-name="Trazado 827283" d="M21,60h6.232v6.232H21Z" transform="translate(-10.873 -19.493)" fill="#ddd"/>
      <path id="Trazado_827284" data-name="Trazado 827284" d="M39,8h6.232v6.232H39Z" transform="translate(-14.852 -8)" fill="#ddd"/>
      <path id="Trazado_827285" data-name="Trazado 827285" d="M52,8h6.232v6.232H52Z" transform="translate(-17.725 -8)" fill="#ddd"/>
      <path id="Trazado_827286" data-name="Trazado 827286" d="M65,8h6.232v6.232H65Z" transform="translate(-20.598 -8)" fill="#ddd"/>
      <path id="Trazado_827287" data-name="Trazado 827287" d="M39,21h6.232v6.232H39Z" transform="translate(-14.852 -10.873)" fill="#ddd"/>
      <path id="Trazado_827288" data-name="Trazado 827288" d="M52,21h6.232v6.232H52Z" transform="translate(-17.725 -10.873)" fill="#ddd"/>
      <path id="Trazado_827289" data-name="Trazado 827289" d="M65,21h6.232v6.232H65Z" transform="translate(-20.598 -10.873)" fill="#ddd"/>
      <path id="Trazado_827290" data-name="Trazado 827290" d="M39,34h6.232v6.232H39Z" transform="translate(-14.852 -13.746)" fill="#ddd"/>
      <path id="Trazado_827291" data-name="Trazado 827291" d="M52,34h6.232v6.232H52Z" transform="translate(-17.725 -13.746)" fill="#ddd"/>
      <path id="Trazado_827292" data-name="Trazado 827292" d="M65,34h6.232v6.232H65Z" transform="translate(-20.598 -13.746)" fill="#ddd"/>
      <path id="Trazado_827293" data-name="Trazado 827293" d="M39,47h6.232v6.232H39Z" transform="translate(-14.852 -16.62)" fill="#ddd"/>
      <path id="Trazado_827294" data-name="Trazado 827294" d="M52,47h6.232v6.232H52Z" transform="translate(-17.725 -16.62)" fill="#ddd"/>
      <path id="Trazado_827295" data-name="Trazado 827295" d="M65,47h6.232v6.232H65Z" transform="translate(-20.598 -16.62)" fill="#ddd"/>
    </g>
    <path id="Trazado_827296" data-name="Trazado 827296" d="M83.485,87.7H58.558A1.558,1.558,0,0,1,57,86.138V70.558A1.558,1.558,0,0,1,58.558,69H83.485a1.558,1.558,0,0,1,1.558,1.558v15.58A1.558,1.558,0,0,1,83.485,87.7Z" transform="translate(-12.156 -14.808)" fill="#ef6662"/>
    <path id="Trazado_827297" data-name="Trazado 827297" d="M64,77h3.116v3.895H64Z" transform="translate(-13.703 -16.576)" fill="#f2ae40"/>
    <path id="Trazado_827298" data-name="Trazado 827298" d="M82,77h3.116v3.895H82Z" transform="translate(-17.681 -16.576)" fill="#f2ae40"/>
    <path id="Trazado_827299" data-name="Trazado 827299" d="M61.674,91.674A4.672,4.672,0,0,0,57,87v3.116a1.558,1.558,0,0,0,1.558,1.558Z" transform="translate(-12.156 -18.786)" fill="#f2ae40"/>
    <path id="Trazado_827300" data-name="Trazado 827300" d="M87,91.674A4.672,4.672,0,0,1,91.674,87v3.116a1.558,1.558,0,0,1-1.558,1.558Z" transform="translate(-18.786 -18.786)" fill="#f2ae40"/>
    <path id="Trazado_827301" data-name="Trazado 827301" d="M14.915,7A7.011,7.011,0,0,1,5,16.915Z" transform="translate(-0.663 -1.105)" fill="#9c9b9a"/>
    <path id="Trazado_827302" data-name="Trazado 827302" d="M40,71h9.348V88.138H40Z" transform="translate(-8.399 -15.25)" fill="#9c9b9a"/>
    <path id="Trazado_827303" data-name="Trazado 827303" d="M14.79,33.779A.779.779,0,0,0,14.011,33H7.779A.779.779,0,0,0,7,33.779v6.232a.779.779,0,0,0,.779.779h6.232a.779.779,0,0,0,.779-.779Zm-1.558,5.453H8.558V34.558h4.674Z" transform="translate(-1.105 -6.852)"/>
    <path id="Trazado_827304" data-name="Trazado 827304" d="M27.79,33.779A.779.779,0,0,0,27.011,33H20.779a.779.779,0,0,0-.779.779v6.232a.779.779,0,0,0,.779.779h6.232a.779.779,0,0,0,.779-.779Zm-1.558,5.453H21.558V34.558h4.674Z" transform="translate(-3.978 -6.852)"/>
    <path id="Trazado_827305" data-name="Trazado 827305" d="M14.79,46.779A.779.779,0,0,0,14.011,46H7.779A.779.779,0,0,0,7,46.779v6.232a.779.779,0,0,0,.779.779h6.232a.779.779,0,0,0,.779-.779Zm-1.558,5.453H8.558V47.558h4.674Z" transform="translate(-1.105 -9.725)"/>
    <path id="Trazado_827306" data-name="Trazado 827306" d="M27.79,46.779A.779.779,0,0,0,27.011,46H20.779a.779.779,0,0,0-.779.779v6.232a.779.779,0,0,0,.779.779h6.232a.779.779,0,0,0,.779-.779Zm-1.558,5.453H21.558V47.558h4.674Z" transform="translate(-3.978 -9.725)"/>
    <path id="Trazado_827307" data-name="Trazado 827307" d="M14.011,59H7.779A.779.779,0,0,0,7,59.779v6.232a.779.779,0,0,0,.779.779h6.232a.779.779,0,0,0,.779-.779V59.779A.779.779,0,0,0,14.011,59Zm-.779,6.232H8.558V60.558h4.674Z" transform="translate(-1.105 -12.598)"/>
    <path id="Trazado_827308" data-name="Trazado 827308" d="M27.011,59H20.779a.779.779,0,0,0-.779.779v6.232a.779.779,0,0,0,.779.779h6.232a.779.779,0,0,0,.779-.779V59.779A.779.779,0,0,0,27.011,59Zm-.779,6.232H21.558V60.558h4.674Z" transform="translate(-3.978 -12.598)"/>
    <path id="Trazado_827309" data-name="Trazado 827309" d="M45.011,7H38.779A.779.779,0,0,0,38,7.779v6.232a.779.779,0,0,0,.779.779h6.232a.779.779,0,0,0,.779-.779V7.779A.779.779,0,0,0,45.011,7Zm-.779,6.232H39.558V8.558h4.674Z" transform="translate(-7.957 -1.105)"/>
    <path id="Trazado_827310" data-name="Trazado 827310" d="M51.779,14.79h6.232a.779.779,0,0,0,.779-.779V7.779A.779.779,0,0,0,58.011,7H51.779A.779.779,0,0,0,51,7.779v6.232A.779.779,0,0,0,51.779,14.79Zm.779-6.232h4.674v4.674H52.558Z" transform="translate(-10.83 -1.105)"/>
    <path id="Trazado_827311" data-name="Trazado 827311" d="M64.779,14.79h6.232a.779.779,0,0,0,.779-.779V7.779A.779.779,0,0,0,71.011,7H64.779A.779.779,0,0,0,64,7.779v6.232A.779.779,0,0,0,64.779,14.79Zm.779-6.232h4.674v4.674H65.558Z" transform="translate(-13.703 -1.105)"/>
    <path id="Trazado_827312" data-name="Trazado 827312" d="M45.011,20H38.779a.779.779,0,0,0-.779.779v6.232a.779.779,0,0,0,.779.779h6.232a.779.779,0,0,0,.779-.779V20.779A.779.779,0,0,0,45.011,20Zm-.779,6.232H39.558V21.558h4.674Z" transform="translate(-7.957 -3.978)"/>
    <path id="Trazado_827313" data-name="Trazado 827313" d="M51.779,27.79h6.232a.779.779,0,0,0,.779-.779V20.779A.779.779,0,0,0,58.011,20H51.779a.779.779,0,0,0-.779.779v6.232A.779.779,0,0,0,51.779,27.79Zm.779-6.232h4.674v4.674H52.558Z" transform="translate(-10.83 -3.978)"/>
    <path id="Trazado_827314" data-name="Trazado 827314" d="M64.779,27.79h6.232a.779.779,0,0,0,.779-.779V20.779A.779.779,0,0,0,71.011,20H64.779a.779.779,0,0,0-.779.779v6.232A.779.779,0,0,0,64.779,27.79Zm.779-6.232h4.674v4.674H65.558Z" transform="translate(-13.703 -3.978)"/>
    <path id="Trazado_827315" data-name="Trazado 827315" d="M45.011,33H38.779a.779.779,0,0,0-.779.779v6.232a.779.779,0,0,0,.779.779h6.232a.779.779,0,0,0,.779-.779V33.779A.779.779,0,0,0,45.011,33Zm-.779,6.232H39.558V34.558h4.674Z" transform="translate(-7.957 -6.852)"/>
    <path id="Trazado_827316" data-name="Trazado 827316" d="M51.779,40.79h6.232a.779.779,0,0,0,.779-.779V33.779A.779.779,0,0,0,58.011,33H51.779a.779.779,0,0,0-.779.779v6.232A.779.779,0,0,0,51.779,40.79Zm.779-6.232h4.674v4.674H52.558Z" transform="translate(-10.83 -6.852)"/>
    <path id="Trazado_827317" data-name="Trazado 827317" d="M64.779,40.79h6.232a.779.779,0,0,0,.779-.779V33.779A.779.779,0,0,0,71.011,33H64.779a.779.779,0,0,0-.779.779v6.232A.779.779,0,0,0,64.779,40.79Zm.779-6.232h4.674v4.674H65.558Z" transform="translate(-13.703 -6.852)"/>
    <path id="Trazado_827318" data-name="Trazado 827318" d="M45.011,46H38.779a.779.779,0,0,0-.779.779v6.232a.779.779,0,0,0,.779.779h6.232a.779.779,0,0,0,.779-.779V46.779A.779.779,0,0,0,45.011,46Zm-.779,6.232H39.558V47.558h4.674Z" transform="translate(-7.957 -9.725)"/>
    <path id="Trazado_827319" data-name="Trazado 827319" d="M58.79,53.011V46.779A.779.779,0,0,0,58.011,46H51.779a.779.779,0,0,0-.779.779v6.232a.779.779,0,0,0,.779.779h6.232A.779.779,0,0,0,58.79,53.011Zm-1.558-.779H52.558V47.558h4.674Z" transform="translate(-10.83 -9.725)"/>
    <path id="Trazado_827320" data-name="Trazado 827320" d="M64.779,53.79h6.232a.779.779,0,0,0,.779-.779V46.779A.779.779,0,0,0,71.011,46H64.779a.779.779,0,0,0-.779.779v6.232A.779.779,0,0,0,64.779,53.79Zm.779-6.232h4.674v4.674H65.558Z" transform="translate(-13.703 -9.725)"/>
    <path id="Trazado_827321" data-name="Trazado 827321" d="M71.33,53.413H65.1V51.855a3.889,3.889,0,0,0-.521-1.947.779.779,0,1,0-1.348.78,2.344,2.344,0,0,1,.312,1.168v1.558H54.192V51.855a2.34,2.34,0,0,1,2.337-2.337H61.2a.779.779,0,0,0,.779-.779V2.779A.779.779,0,0,0,61.2,2H26.927a.779.779,0,0,0-.779.779V22.254H17.58a.779.779,0,0,0,0,1.558h8.569v48.3H3.558v-48.3H14.464a.779.779,0,0,0,.779-.779V16.022a.771.771,0,0,0-.024-.121A7.8,7.8,0,0,0,14.8,5.344a.778.778,0,0,0-1.1,0L3.786,15.259a.778.778,0,0,0,0,1.1,7.791,7.791,0,0,0,9.9.921v4.972H2.779A.779.779,0,0,0,2,23.033V72.888a.779.779,0,0,0,.779.779H31.6a.779.779,0,0,0,.779-.779V56.529h7.79v15.58H34.717a.779.779,0,1,0,0,1.558H71.33a2.34,2.34,0,0,0,2.337-2.337V55.75a2.34,2.34,0,0,0-2.337-2.337ZM5.473,15.776l8.745-8.745a6.232,6.232,0,0,1-8.745,8.745ZM44.208,72.109h-2.48V55.75a.779.779,0,0,0-.779-.779H31.6a.779.779,0,0,0-.779.779V72.109H27.706V3.558H60.424v44.4H56.529a3.9,3.9,0,0,0-3.895,3.895v1.558H46.4a2.34,2.34,0,0,0-2.337,2.337V71.33a2.311,2.311,0,0,0,.143.779Zm2.194,0a.78.78,0,0,1-.779-.779V69.071a3.907,3.907,0,0,1,3.037,3.037Zm25.706-.779a.78.78,0,0,1-.779.779H69.071a3.907,3.907,0,0,1,3.037-3.037Zm0-3.833A5.456,5.456,0,0,0,67.5,72.109H50.235A5.456,5.456,0,0,0,45.623,67.5V63.54h3.895v.779a.779.779,0,0,0,.779.779h.779v1.558a.779.779,0,0,0,1.558,0V65.1h.779a.779.779,0,0,0,.779-.779V63.54H63.54v.779a.779.779,0,0,0,.779.779H65.1v1.558a.779.779,0,0,0,1.558,0V65.1h.779a.779.779,0,0,0,.779-.779V63.54h3.895ZM51.076,63.54V61.2h1.558V63.54Zm14.022,0V61.2h1.558V63.54Zm7.011-1.558H68.214V60.424a.779.779,0,0,0-.779-.779H64.319a.779.779,0,0,0-.779.779v1.558H54.192V60.424a.779.779,0,0,0-.779-.779H50.3a.779.779,0,0,0-.779.779v1.558H45.623V55.75a.78.78,0,0,1,.779-.779H71.33a.78.78,0,0,1,.779.779Z"/>
    <ellipse id="Elipse_11386" data-name="Elipse 11386" cx="1" cy="0.5" rx="1" ry="0.5" transform="translate(32 52)"/>
    <ellipse id="Elipse_11387" data-name="Elipse 11387" cx="1" cy="0.5" rx="1" ry="0.5" transform="translate(35 52)"/>
    <circle id="Elipse_11388" data-name="Elipse 11388" cx="0.5" cy="0.5" r="0.5" transform="translate(39 52)"/>
  </g>
</svg>
