<svg xmlns="http://www.w3.org/2000/svg" xmlns:xlink="http://www.w3.org/1999/xlink" width="400" height="212" viewBox="0 0 400 212">
  <defs>
    <clipPath id="clip-path">
      <rect id="Rectángulo_379148" data-name="Rectángulo 379148" width="351.807" height="200.551" fill="none"/>
    </clipPath>
    <clipPath id="clip-path-5">
      <rect id="Rectángulo_379137" data-name="Rectángulo 379137" width="13.205" height="17.139" fill="none"/>
    </clipPath>
    <clipPath id="clip-path-7">
      <rect id="Rectángulo_379139" data-name="Rectángulo 379139" width="37.846" height="49.119" fill="none"/>
    </clipPath>
    <clipPath id="clip-path-9">
      <rect id="Rectángulo_379141" data-name="Rectángulo 379141" width="8.09" height="10.5" fill="none"/>
    </clipPath>
    <clipPath id="clip-path-11">
      <rect id="Rectángulo_379143" data-name="Rectángulo 379143" width="121.919" height="52.788" fill="none"/>
    </clipPath>
    <clipPath id="clip-path-12">
      <rect id="Rectángulo_379144" data-name="Rectángulo 379144" width="7.987" height="6.34" fill="none"/>
    </clipPath>
    <clipPath id="clip-path-13">
      <rect id="Rectángulo_379145" data-name="Rectángulo 379145" width="3.652" height="14.165" fill="none"/>
    </clipPath>
    <clipPath id="clip-path-14">
      <rect id="Rectángulo_379146" data-name="Rectángulo 379146" width="1.566" height="12.399" fill="none"/>
    </clipPath>
  </defs>
  <g id="Grupo_1079359" data-name="Grupo 1079359" transform="translate(-1020 -2122)">
    <g id="Grupo_1079358" data-name="Grupo 1079358" transform="translate(1039.369 2133.449)">
      <g id="Grupo_1079357" data-name="Grupo 1079357" clip-path="url(#clip-path)">
        <path id="Trazado_828614" data-name="Trazado 828614" d="M333.165,306.779v18.056h-6.2l13.369,15.574,12.543-15.255h-6.34V306.779Z" transform="translate(-149.061 -139.859)" fill="#ebebeb"/>
        <path id="Trazado_828615" data-name="Trazado 828615" d="M380.01,56.8v6.357h-2.183l4.706,5.483,4.416-5.371h-2.232V56.8Z" transform="translate(-172.249 -25.896)" fill="#ebebeb"/>
        <path id="Trazado_828616" data-name="Trazado 828616" d="M481.791,165.165v13.05h-4.483l9.663,11.258,9.065-11.026h-4.582V165.165Z" transform="translate(-217.602 -75.298)" fill="#ebebeb"/>
        <path id="Trazado_828617" data-name="Trazado 828617" d="M101.933,262.1v13.05H97.45l9.663,11.258,9.065-11.026H111.6V262.1Z" transform="translate(-44.427 -119.492)" fill="#ebebeb"/>
        <path id="Trazado_828618" data-name="Trazado 828618" d="M250.385,301.315v9.74h-3.346l7.212,8.4,6.766-8.23H257.6v-9.913Z" transform="translate(-112.624 -137.368)" fill="#ebebeb"/>
        <g id="Grupo_1079325" data-name="Grupo 1079325">
          <g id="Grupo_1079324" data-name="Grupo 1079324" clip-path="url(#clip-path)">
            <path id="Trazado_828619" data-name="Trazado 828619" d="M151.866,39.147c.456-3.313-4.22-6.039-7.734-6.322-1.675-.135-3.416.121-5-.433-3.439-1.2-4.813-5.642-8.169-7.057-2.509-1.058-5.4-.116-7.83,1.108s-4.836,2.765-7.553,2.939c-2.364.151-4.931-.725-7,.429-1.541.86-2.348,2.636-3.768,3.684a8.986,8.986,0,0,1-4.926,1.336,13.888,13.888,0,0,0-5.079.83c-1.57.719-2.869,2.379-2.543,4.074Z" transform="translate(-42.038 -11.341)" fill="#f5f5f5"/>
            <path id="Trazado_828620" data-name="Trazado 828620" d="M523.81,111.721c.4-2.882-3.671-5.253-6.728-5.5-1.458-.118-2.971.106-4.352-.376-2.992-1.043-4.187-4.908-7.107-6.139-2.182-.921-4.7-.1-6.811.964s-4.207,2.4-6.571,2.556c-2.056.132-4.289-.631-6.088.374-1.341.749-2.043,2.293-3.278,3.2a7.824,7.824,0,0,1-4.285,1.162,12.076,12.076,0,0,0-4.419.722,3.492,3.492,0,0,0-2.212,3.545Z" transform="translate(-215.144 -45.274)" fill="#f5f5f5"/>
            <path id="Trazado_828621" data-name="Trazado 828621" d="M94.255,114.291c.194-1.409-1.795-2.569-3.29-2.69a8.433,8.433,0,0,1-2.128-.184c-1.464-.51-2.048-2.4-3.476-3a4.085,4.085,0,0,0-3.33.472,8.7,8.7,0,0,1-3.213,1.25c-1.006.064-2.1-.309-2.977.183-.656.366-1,1.121-1.6,1.567a3.825,3.825,0,0,1-2.1.568,5.912,5.912,0,0,0-2.161.353,1.708,1.708,0,0,0-1.082,1.734Z" transform="translate(-31.401 -49.337)" fill="#e0e0e0"/>
            <path id="Trazado_828622" data-name="Trazado 828622" d="M537.3,335.14c.357-2.592-3.3-4.723-6.049-4.945a15.569,15.569,0,0,1-3.914-.338c-2.69-.938-3.765-4.413-6.389-5.521-1.963-.828-4.222-.091-6.124.867s-3.783,2.162-5.908,2.3c-1.849.119-3.857-.567-5.474.336-1.205.673-1.836,2.062-2.947,2.881a7.034,7.034,0,0,1-3.853,1.045,10.859,10.859,0,0,0-3.973.649,3.141,3.141,0,0,0-1.989,3.187Z" transform="translate(-223.678 -147.7)" fill="#e0e0e0"/>
          </g>
        </g>
        <g id="Grupo_1079327" data-name="Grupo 1079327">
          <g id="Grupo_1079326" data-name="Grupo 1079326" clip-path="url(#clip-path)">
            <path id="Trazado_828623" data-name="Trazado 828623" d="M190.771,54.155l-6.021-10.61a28.429,28.429,0,1,0-6.809,7.574l-.01.013Z" transform="translate(-60.267 -0.138)" fill="#fafafa"/>
            <path id="Trazado_828624" data-name="Trazado 828624" d="M190.624,54.017l-12.862-2.925-.152-.035.1-.126.009-.013.143.141a28.357,28.357,0,0,1-13.628,5.751,25.546,25.546,0,0,1-4.5.229c-.774-.044-1.562-.063-2.356-.129l-2.4-.362a28.663,28.663,0,0,1-17.758-11.4,28.323,28.323,0,0,1-4.8-10.977,28.962,28.962,0,0,1,.335-12.641,28.035,28.035,0,0,1,6.091-11.687,28.537,28.537,0,0,1,10.95-7.817A28.983,28.983,0,0,1,162.526.075a28.027,28.027,0,0,1,11.691,3.456A28.824,28.824,0,0,1,187.7,20.13a30.7,30.7,0,0,1,1.232,9.241,28.283,28.283,0,0,1-4.246,14.088l0-.1,5.936,10.658-6.1-10.562-.029-.05.03-.05a28.217,28.217,0,0,0,4.131-13.993,30.527,30.527,0,0,0-1.254-9.139A28.539,28.539,0,0,0,174.037,3.858,27.693,27.693,0,0,0,162.5.465a28.639,28.639,0,0,0-12.56,1.94,28.166,28.166,0,0,0-10.792,7.71,27.659,27.659,0,0,0-6.008,11.52A28.616,28.616,0,0,0,132.8,34.1a27.986,27.986,0,0,0,4.723,10.836,28.37,28.37,0,0,0,17.515,11.3l2.373.366c.785.069,1.565.089,2.33.135a25.325,25.325,0,0,0,4.452-.208A28.274,28.274,0,0,0,177.733,50.9l.623-.48-.48.622-.01.013-.057-.16,12.816,3.122" transform="translate(-60.12 0)" fill="#263238"/>
            <path id="Trazado_828625" data-name="Trazado 828625" d="M183.337,55.726H163.971a1.119,1.119,0,0,1-1.119-1.119V26.449a1.119,1.119,0,0,1,1.119-1.119h19.366a1.119,1.119,0,0,1,1.119,1.119V54.607a1.119,1.119,0,0,1-1.119,1.119" transform="translate(-74.243 -11.548)" fill="#263238"/>
            <rect id="Rectángulo_379135" data-name="Rectángulo 379135" width="19.499" height="22.716" transform="translate(89.614 15.61)" fill="#fafafa"/>
            <path id="Trazado_828626" data-name="Trazado 828626" d="M182.97,74.4a1.637,1.637,0,1,1-1.637-1.637A1.637,1.637,0,0,1,182.97,74.4" transform="translate(-81.923 -33.174)" fill="#455a64"/>
            <path id="Trazado_828627" data-name="Trazado 828627" d="M187.731,31.544l7.192,8.491,6.743-8.491h-3.5V19.856l-6.993-.086.083,11.791Z" transform="translate(-85.585 -9.013)" fill="#ff725e"/>
            <path id="Trazado_828628" data-name="Trazado 828628" d="M183.164,47.277a26.791,26.791,0,0,1-3.061,3.5A26.78,26.78,0,0,1,176.747,54a26.711,26.711,0,0,1,3.061-3.5,26.794,26.794,0,0,1,3.355-3.222" transform="translate(-80.576 -21.552)" fill="#263238"/>
            <path id="Trazado_828629" data-name="Trazado 828629" d="M182.87,45.394a8.581,8.581,0,0,1-1.7,1.951,8.218,8.218,0,0,1-1.966,1.645,8.341,8.341,0,0,1,1.7-1.951,8.109,8.109,0,0,1,1.966-1.645" transform="translate(-81.696 -20.691)" fill="#263238"/>
          </g>
        </g>
        <path id="Trazado_828630" data-name="Trazado 828630" d="M582.675,87.43v9.2h-3.161l6.813,7.937,6.392-7.774h-3.231V87.43Z" transform="translate(-264.198 -39.859)" fill="#ff725e"/>
        <g id="Grupo_1079332" data-name="Grupo 1079332">
          <g id="Grupo_1079331" data-name="Grupo 1079331" clip-path="url(#clip-path)">
            <g id="Grupo_1079330" data-name="Grupo 1079330" transform="translate(315.317 47.571)" opacity="0.3">
              <g id="Grupo_1079329" data-name="Grupo 1079329">
                <g id="Grupo_1079328" data-name="Grupo 1079328" clip-path="url(#clip-path-5)">
                  <path id="Trazado_828631" data-name="Trazado 828631" d="M582.675,87.43v9.2h-3.161l6.813,7.937,6.392-7.774h-3.231V87.43Z" transform="translate(-579.514 -87.43)"/>
                </g>
              </g>
            </g>
            <path id="Trazado_828632" data-name="Trazado 828632" d="M585.105,38.188a18.3,18.3,0,0,0-32.021-6.863,15.216,15.216,0,1,0-1.762,30.33h33.14a11.742,11.742,0,0,0,.643-23.467" transform="translate(-244.406 -11.145)" fill="#ff725e"/>
            <path id="Trazado_828633" data-name="Trazado 828633" d="M632.6,75.184c-.03-.042.629-.454,1.5-1.329a10.867,10.867,0,0,0,3.164-8.754c-.113-1.231-.355-1.969-.305-1.982a1.806,1.806,0,0,1,.2.508,8.909,8.909,0,0,1,.306,1.453A10.349,10.349,0,0,1,634.244,74a8.848,8.848,0,0,1-1.165.921,1.823,1.823,0,0,1-.477.264" transform="translate(-288.399 -28.776)" fill="#263238"/>
            <path id="Trazado_828634" data-name="Trazado 828634" d="M557.218,44.923c-.01.052-.84-.159-2.2-.191a12.074,12.074,0,0,0-9.411,4.117c-.9,1.022-1.309,1.775-1.354,1.747a2.173,2.173,0,0,1,.263-.539,10.036,10.036,0,0,1,.939-1.339,11.539,11.539,0,0,1,9.571-4.187,10.058,10.058,0,0,1,1.62.219,2.165,2.165,0,0,1,.575.172" transform="translate(-248.12 -20.292)" fill="#263238"/>
            <path id="Trazado_828635" data-name="Trazado 828635" d="M580.009,31.436c0,.052-.6.09-1.541.337a10.271,10.271,0,0,0-5.974,4.339c-.524.815-.749,1.381-.8,1.361a1.28,1.28,0,0,1,.12-.412,6.634,6.634,0,0,1,.507-1.054,8.94,8.94,0,0,1,1.014-1.412,9.564,9.564,0,0,1,3.428-2.489,8.927,8.927,0,0,1,1.657-.527,6.553,6.553,0,0,1,1.159-.156,1.249,1.249,0,0,1,.429.013" transform="translate(-260.631 -14.323)" fill="#263238"/>
            <path id="Trazado_828636" data-name="Trazado 828636" d="M596.425,92.475c0,.078-4.475.141-9.995.141s-10-.063-10-.141,4.475-.141,10-.141,9.995.063,9.995.141" transform="translate(-262.793 -42.095)" fill="#263238"/>
            <path id="Trazado_828637" data-name="Trazado 828637" d="M615.117,129.26c-.078,0-.141-3.666-.141-8.186s.063-8.187.141-8.187.141,3.665.141,8.187-.063,8.186-.141,8.186" transform="translate(-280.364 -51.465)" fill="#263238"/>
            <path id="Trazado_828638" data-name="Trazado 828638" d="M621,138.461c-.078,0-.141-4.719-.141-10.538s.063-10.539.141-10.539.141,4.717.141,10.539-.063,10.538-.141,10.538" transform="translate(-283.044 -53.514)" fill="#263238"/>
          </g>
        </g>
        <path id="Trazado_828639" data-name="Trazado 828639" d="M280.535,274.514v26.371h-9.059L291,323.633l18.319-22.281h-9.26V274.514Z" transform="translate(-123.764 -125.149)" fill="#ff725e"/>
        <g id="Grupo_1079337" data-name="Grupo 1079337">
          <g id="Grupo_1079336" data-name="Grupo 1079336" clip-path="url(#clip-path)">
            <g id="Grupo_1079335" data-name="Grupo 1079335" transform="translate(147.712 149.365)" opacity="0.3">
              <g id="Grupo_1079334" data-name="Grupo 1079334">
                <g id="Grupo_1079333" data-name="Grupo 1079333" clip-path="url(#clip-path-7)">
                  <path id="Trazado_828640" data-name="Trazado 828640" d="M280.535,274.514v26.371h-9.059L291,323.633l18.319-22.281h-9.26V274.514Z" transform="translate(-271.476 -274.514)"/>
                </g>
              </g>
            </g>
            <path id="Trazado_828641" data-name="Trazado 828641" d="M287.5,133.39a52.447,52.447,0,0,0-91.769-19.668,43.609,43.609,0,1,0-5.051,86.924h94.978A33.653,33.653,0,0,0,287.5,133.39" transform="translate(-67.043 -42.859)" fill="#ff725e"/>
            <path id="Trazado_828642" data-name="Trazado 828642" d="M234.917,161.861a1.132,1.132,0,0,1-.039-.288c-.015-.221-.033-.493-.055-.825q-.016-.274-.033-.6c-.019-.217-.055-.452-.085-.7-.07-.5-.112-1.083-.255-1.709l-.193-.986c-.069-.342-.18-.69-.272-1.054-.172-.733-.452-1.488-.724-2.289a26.448,26.448,0,0,0-5.835-9.237c-.606-.59-1.167-1.167-1.756-1.638-.289-.24-.556-.489-.835-.7l-.808-.6c-.5-.4-1.008-.685-1.434-.965-.215-.135-.412-.269-.6-.379l-.524-.286-.721-.4a1.1,1.1,0,0,1-.244-.159,1.11,1.11,0,0,1,.269.108l.748.358.539.266c.193.1.394.232.615.361a16.917,16.917,0,0,1,1.467.936l.825.588c.286.207.558.454.853.692.6.467,1.173,1.044,1.791,1.634a25.723,25.723,0,0,1,5.893,9.33c.268.811.542,1.576.707,2.319.089.369.194.721.258,1.068s.12.679.176,1a16.874,16.874,0,0,1,.215,1.728c.022.255.051.492.062.711s.005.416.008.6c0,.334,0,.608,0,.83a1.113,1.113,0,0,1-.018.289" transform="translate(-100.527 -63.39)" fill="#263238"/>
            <path id="Trazado_828643" data-name="Trazado 828643" d="M203.271,161.268c-.036.037-.608-.529-1.643-1.3a18.069,18.069,0,0,0-9.3-3.508c-1.287-.1-2.09-.057-2.093-.109a2.181,2.181,0,0,1,.562-.075,11.907,11.907,0,0,1,1.544-.016,16.416,16.416,0,0,1,9.409,3.549,11.787,11.787,0,0,1,1.149,1.032,2.2,2.2,0,0,1,.372.427" transform="translate(-86.727 -71.23)" fill="#263238"/>
            <path id="Trazado_828644" data-name="Trazado 828644" d="M232.666,232.112a4.981,4.981,0,0,1-.862.027c-.554,0-1.357-.017-2.348-.053-1.982-.07-4.719-.231-7.732-.526s-5.731-.671-7.688-.988c-.979-.158-1.769-.3-2.314-.405a4.934,4.934,0,0,1-.841-.194,5.061,5.061,0,0,1,.858.085l2.326.316c1.963.266,4.678.608,7.686.9s5.737.487,7.714.608l2.342.143a5.021,5.021,0,0,1,.859.084" transform="translate(-96.139 -104.841)" fill="#263238"/>
            <path id="Trazado_828645" data-name="Trazado 828645" d="M380.346,165.876a1.263,1.263,0,0,1-.305.04l-.875.059c-.38.017-.845.046-1.382.114s-1.151.1-1.821.226l-1.053.165c-.366.06-.742.152-1.133.231-.786.146-1.607.38-2.476.608a36.593,36.593,0,0,0-10.543,4.924c-.732.52-1.44,1-2.056,1.508-.311.25-.623.478-.9.72l-.8.7c-.523.435-.949.879-1.342,1.251s-.716.706-.974.986l-.607.633a1.235,1.235,0,0,1-.227.208,1.27,1.27,0,0,1,.184-.246l.569-.67c.246-.293.555-.643.943-1.023s.8-.84,1.319-1.287l.8-.72c.279-.249.589-.483.9-.738.615-.52,1.321-1.01,2.055-1.539a35.214,35.214,0,0,1,10.619-4.96c.877-.223,1.706-.45,2.5-.587.395-.074.774-.162,1.143-.216l1.063-.149c.675-.109,1.294-.138,1.835-.186s1.008-.065,1.39-.066l.879-.006a1.252,1.252,0,0,1,.306.017" transform="translate(-161.316 -75.614)" fill="#263238"/>
            <path id="Trazado_828646" data-name="Trazado 828646" d="M318.9,290.42c0,.078-21.029.141-46.962.141s-46.967-.063-46.967-.141,21.024-.142,46.967-.142,46.962.063,46.962.142" transform="translate(-102.565 -132.337)" fill="#263238"/>
            <path id="Trazado_828647" data-name="Trazado 828647" d="M189.037,310.5c-.078,0-.141-3.934-.141-8.786s.063-8.787.141-8.787.141,3.933.141,8.787-.063,8.786-.141,8.786" transform="translate(-86.117 -133.546)" fill="#263238"/>
            <path id="Trazado_828648" data-name="Trazado 828648" d="M195.6,334.3c-.078,0-.141-5.532-.141-12.356s.063-12.357.141-12.357.141,5.531.141,12.357-.063,12.356-.141,12.356" transform="translate(-89.107 -141.138)" fill="#263238"/>
          </g>
        </g>
        <path id="Trazado_828649" data-name="Trazado 828649" d="M28.533,99.9v5.638H26.6l4.174,4.863,3.916-4.763H32.707V99.9Z" transform="translate(-12.125 -45.543)" fill="#ff725e"/>
        <g id="Grupo_1079342" data-name="Grupo 1079342">
          <g id="Grupo_1079341" data-name="Grupo 1079341" clip-path="url(#clip-path)">
            <g id="Grupo_1079340" data-name="Grupo 1079340" transform="translate(14.471 54.355)" opacity="0.3">
              <g id="Grupo_1079339" data-name="Grupo 1079339">
                <g id="Grupo_1079338" data-name="Grupo 1079338" clip-path="url(#clip-path-9)">
                  <path id="Trazado_828650" data-name="Trazado 828650" d="M28.533,99.9v5.638H26.6l4.174,4.863,3.916-4.763H32.707V99.9Z" transform="translate(-26.596 -99.897)"/>
                </g>
              </g>
            </g>
            <path id="Trazado_828651" data-name="Trazado 828651" d="M30.022,69.73a11.211,11.211,0,0,0-19.617-4.2,9.425,9.425,0,0,0-1.08-.067,9.324,9.324,0,0,0,0,18.649h20.3a7.194,7.194,0,0,0,.393-14.377" transform="translate(0 -27.952)" fill="#ff725e"/>
            <path id="Trazado_828652" data-name="Trazado 828652" d="M59.119,92.395c-.027-.039.369-.3.893-.842a6.774,6.774,0,0,0,1.927-5.33c-.058-.751-.194-1.206-.149-1.219a3,3,0,0,1,.348,1.2,6.252,6.252,0,0,1-1.987,5.5,2.989,2.989,0,0,1-1.033.7" transform="translate(-26.951 -38.753)" fill="#263238"/>
            <path id="Trazado_828653" data-name="Trazado 828653" d="M12.935,73.819c-.01.047-.52-.069-1.35-.078A7.516,7.516,0,0,0,5.85,76.25c-.557.616-.818,1.07-.859,1.045A3.486,3.486,0,0,1,5.7,76.12a6.981,6.981,0,0,1,5.895-2.579,3.491,3.491,0,0,1,1.343.279" transform="translate(-2.274 -33.519)" fill="#263238"/>
            <path id="Trazado_828654" data-name="Trazado 828654" d="M26.9,65.578a7.124,7.124,0,0,1-.935.244,6.49,6.49,0,0,0-3.636,2.641,7.124,7.124,0,0,1-.521.814,2.224,2.224,0,0,1,.351-.918,5.652,5.652,0,0,1,3.76-2.731,2.227,2.227,0,0,1,.982-.05" transform="translate(-9.938 -29.883)" fill="#263238"/>
            <path id="Trazado_828655" data-name="Trazado 828655" d="M36.957,102.942c0,.078-2.742.141-6.123.141s-6.123-.063-6.123-.141,2.741-.141,6.123-.141,6.123.063,6.123.141" transform="translate(-11.265 -46.866)" fill="#263238"/>
            <path id="Trazado_828656" data-name="Trazado 828656" d="M48.361,125.525a44.512,44.512,0,0,1-.141-5.015,44.51,44.51,0,0,1,.141-5.016,44.506,44.506,0,0,1,.141,5.016,44.509,44.509,0,0,1-.141,5.015" transform="translate(-21.983 -52.653)" fill="#263238"/>
            <path id="Trazado_828657" data-name="Trazado 828657" d="M51.963,131.161c-.078,0-.141-2.891-.141-6.456s.063-6.457.141-6.457.141,2.89.141,6.457-.063,6.456-.141,6.456" transform="translate(-23.625 -53.909)" fill="#263238"/>
          </g>
        </g>
        <g id="Grupo_1079356" data-name="Grupo 1079356">
          <g id="Grupo_1079355" data-name="Grupo 1079355" clip-path="url(#clip-path)">
            <g id="Grupo_1079345" data-name="Grupo 1079345" transform="translate(110.825 76.464)" opacity="0.3">
              <g id="Grupo_1079344" data-name="Grupo 1079344">
                <g id="Grupo_1079343" data-name="Grupo 1079343" clip-path="url(#clip-path-11)">
                  <path id="Trazado_828658" data-name="Trazado 828658" d="M325.358,172.077c-1.067-6.212-9.319-12.512-16.416-11.1-6.181,1.233-12.837,2.669-18.948,4.212-2.521.637-5.137-2.427-7.249-3.944A9.9,9.9,0,0,1,280.292,158,35.063,35.063,0,0,0,262.655,143.5a48.841,48.841,0,0,0-22.9-2.626c-5.978.655-12.538,2.717-15.318,8.05-1.12,2.148-1.563,4.73-3.3,6.416-2.316,2.243-5.988,2.064-9.006,3.2-6.035,2.273-9.1,10.908-8.336,17.312s6.461,14.658,18.436,15.975c0,0,43.382.379,64.8,1.417,7.425.36,9.665-.663,17.1-.856,13.107-.341,23.18-8.924,21.224-20.311" transform="translate(-203.683 -140.532)"/>
                </g>
              </g>
            </g>
            <path id="Trazado_828659" data-name="Trazado 828659" d="M273.489,248.505a8.958,8.958,0,0,0,2.17-1.338q2.318-1.492,4.585-3.06c-5.43-1.581-10.04-2.826-15.47-4.369a18.447,18.447,0,0,0,.6,6.474c.5,1.681,1.459,3.469,3.156,3.915,1.543.406,3.11-.445,4.467-1.282l.378-.234" transform="translate(-120.682 -109.295)" fill="#e0e0e0"/>
            <path id="Trazado_828660" data-name="Trazado 828660" d="M281.977,247.786c-.083-.009-.049-.714-.241-1.545s-.517-1.456-.445-1.5a3.333,3.333,0,0,1,.686,3.045" transform="translate(-128.234 -111.575)" fill="#263238"/>
            <path id="Trazado_828661" data-name="Trazado 828661" d="M284.481,247.78a7.937,7.937,0,0,1-.087-1.219,8.051,8.051,0,0,1-.169-1.211,2.465,2.465,0,0,1,.256,2.431" transform="translate(-129.568 -111.853)" fill="#263238"/>
            <path id="Trazado_828662" data-name="Trazado 828662" d="M271.248,241.627c.049.011-.108.565-.116,1.474a6.721,6.721,0,0,0,.849,3.377,8.914,8.914,0,0,0,2.224,2.727,8.093,8.093,0,0,0,1.287.7.957.957,0,0,1-.4-.065,3.616,3.616,0,0,1-1-.473,8.117,8.117,0,0,1-2.354-2.749,6.36,6.36,0,0,1-.8-3.526,5.463,5.463,0,0,1,.172-1.089,1.026,1.026,0,0,1,.144-.378" transform="translate(-123.51 -110.156)" fill="#455a64"/>
            <path id="Trazado_828663" data-name="Trazado 828663" d="M279.315,243.939a12.063,12.063,0,0,1,.877,6.471c-.088,0-.029-1.474-.273-3.258s-.688-3.186-.6-3.213" transform="translate(-127.333 -111.21)" fill="#455a64"/>
            <path id="Trazado_828664" data-name="Trazado 828664" d="M274.546,249.111a3.5,3.5,0,0,1-.861-.693,7.824,7.824,0,0,1-1.62-2.133,4.72,4.72,0,0,1-.492-2.638,2.021,2.021,0,0,1,.356-1.054c.047.017-.121.409-.157,1.072a5.109,5.109,0,0,0,.546,2.494,9.6,9.6,0,0,0,1.509,2.119,5.466,5.466,0,0,1,.718.832" transform="translate(-123.794 -110.597)" fill="#ff725e"/>
            <path id="Trazado_828665" data-name="Trazado 828665" d="M287.725,249.147a17.976,17.976,0,0,1-3.964,2.138,17.953,17.953,0,0,1,3.964-2.138" transform="translate(-129.364 -113.581)" fill="#ff725e"/>
            <path id="Trazado_828666" data-name="Trazado 828666" d="M272.1,254.713a3.966,3.966,0,0,1-3.62,1.208c0-.085.878-.069,1.876-.409s1.692-.866,1.745-.8" transform="translate(-122.397 -116.12)" fill="#455a64"/>
            <path id="Trazado_828667" data-name="Trazado 828667" d="M269.219,249.556c.008.084-.732.185-1.552.563s-1.387.86-1.446.8a3.49,3.49,0,0,1,3-1.362" transform="translate(-121.367 -113.752)" fill="#455a64"/>
            <path id="Trazado_828668" data-name="Trazado 828668" d="M268.018,244.358a7.03,7.03,0,0,0-3.653-.507,3.475,3.475,0,0,1,3.653.507" transform="translate(-120.522 -111.029)" fill="#455a64"/>
            <path id="Trazado_828669" data-name="Trazado 828669" d="M328.019,222.1c.032.051-20.41,4.979-20.41,4.979l-3.006-7.048,1.38-2.129a66.589,66.589,0,0,0,15.671-5.928Z" transform="translate(-138.866 -96.639)" fill="#ffbe9d"/>
            <path id="Trazado_828670" data-name="Trazado 828670" d="M241.382,189.865s-.931-1.364-4.9-3.305c-3.291-1.61-11.741-2.964-15.161,3.647s-.8,16.757,4.9,18.922,15.16,5.129,19.036,6.383,16.643,4.445,16.643,4.445l5.243-3.077.618-9.786s-7.23-7.426-13.384-9.478-12.995-7.751-12.995-7.751" transform="translate(-100.202 -84.449)" fill="#263238"/>
            <path id="Trazado_828671" data-name="Trazado 828671" d="M237.775,177.308a32.088,32.088,0,0,1,9.995,1.662c1.579.6,3.123,1.229,3.123,1.229l2.319-6.6,17.373-5.787H289.82l6.258,12.391v.626s7.51.125,10.765-1.377,13.393-5.883,16.022-6.759,14.394-2.562,17.023,4.6.764,14.632-3.63,17.36c-2.071,1.286-37.05,10.331-37.05,10.331l-8.261-13.143s-12.594,6.239-16.811,5.56-36.36-20.092-36.36-20.092" transform="translate(-108.4 -76.502)" fill="#263238"/>
            <path id="Trazado_828672" data-name="Trazado 828672" d="M302.971,173.677a.977.977,0,0,1,.086.252l.193.738c.157.644.361,1.581.566,2.747.424,2.33.846,5.576,1.176,9.172s.5,6.864.571,9.23c.038,1.182.049,2.14.047,2.8,0,.3-.008.555-.011.762a.91.91,0,0,1-.023.266,1.006,1.006,0,0,1-.034-.265c-.011-.207-.025-.458-.041-.761-.035-.7-.082-1.649-.138-2.8-.121-2.36-.331-5.62-.653-9.212s-.719-6.832-1.091-9.165c-.179-1.168-.353-2.107-.476-2.756-.056-.3-.1-.545-.141-.748a.96.96,0,0,1-.03-.266" transform="translate(-138.121 -79.178)" fill="#455a64"/>
            <path id="Trazado_828673" data-name="Trazado 828673" d="M328.222,192.288c.009.078-4.353.626-9.741,1.224s-9.765,1.021-9.773.943,4.352-.626,9.742-1.224,9.763-1.021,9.772-.943" transform="translate(-140.738 -87.659)" fill="#455a64"/>
            <path id="Trazado_828674" data-name="Trazado 828674" d="M326.134,191.685a2.657,2.657,0,0,1-.622-.05c-.4-.053-.97-.123-1.68-.2a44.138,44.138,0,0,0-11.117.194c-.707.1-1.278.19-1.672.257a2.593,2.593,0,0,1-.62.072,2.662,2.662,0,0,1,.6-.18c.388-.1.956-.221,1.663-.347a35.988,35.988,0,0,1,11.174-.195c.71.1,1.282.2,1.674.289a2.66,2.66,0,0,1,.6.159" transform="translate(-141.52 -87.027)" fill="#455a64"/>
            <path id="Trazado_828675" data-name="Trazado 828675" d="M337.74,189.369a14.377,14.377,0,0,0-7.693-1.694,3.57,3.57,0,0,1,1.17-.194,10.444,10.444,0,0,1,5.542,1.221,3.571,3.571,0,0,1,.981.667" transform="translate(-150.467 -85.462)" fill="#455a64"/>
            <path id="Trazado_828676" data-name="Trazado 828676" d="M311.574,210.733a6.147,6.147,0,0,1-3.781,1.513c-.014-.082.878-.279,1.914-.7s1.821-.885,1.867-.816" transform="translate(-140.321 -96.069)" fill="#455a64"/>
            <path id="Trazado_828677" data-name="Trazado 828677" d="M310.579,215.2a4.339,4.339,0,0,1-2.941.42,51.526,51.526,0,0,1,2.941-.42" transform="translate(-140.25 -98.099)" fill="#455a64"/>
            <path id="Trazado_828678" data-name="Trazado 828678" d="M345.173,190.082a1.254,1.254,0,0,1-.255.175l-.759.454-2.817,1.621-9.349,5.257-9.392,5.185-2.861,1.543-.785.407a1.277,1.277,0,0,1-.283.125,1.28,1.28,0,0,1,.256-.175l.759-.453L322.5,202.6l9.35-5.257,9.388-5.184,2.862-1.543.785-.407a1.265,1.265,0,0,1,.283-.125" transform="translate(-145.28 -86.657)" fill="#455a64"/>
            <path id="Trazado_828679" data-name="Trazado 828679" d="M367.458,184.988a1.725,1.725,0,0,1-.352.089l-1.014.209c-.88.182-2.148.474-3.693.91a66.944,66.944,0,0,0-11.646,4.619c-4.383,2.2-8.18,4.517-10.926,6.189l-3.249,1.99-.889.532a1.739,1.739,0,0,1-.32.169,1.756,1.756,0,0,1,.289-.218l.861-.577c.751-.5,1.842-1.205,3.2-2.067,2.72-1.717,6.507-4.064,10.9-6.272A62.185,62.185,0,0,1,362.347,186c1.558-.413,2.836-.677,3.725-.825.443-.082.791-.122,1.025-.157a1.735,1.735,0,0,1,.361-.033" transform="translate(-152.894 -84.334)" fill="#455a64"/>
            <path id="Trazado_828680" data-name="Trazado 828680" d="M401.283,180.3c0,.048-.635-.007-1.648.022a16.271,16.271,0,0,0-7.546,2.09c-.884.5-1.4.867-1.424.829-.011-.016.106-.122.328-.3a9.724,9.724,0,0,1,.995-.7,14.143,14.143,0,0,1,7.646-2.119,9.75,9.75,0,0,1,1.212.087,1.354,1.354,0,0,1,.437.091" transform="translate(-178.101 -82.113)" fill="#455a64"/>
            <path id="Trazado_828681" data-name="Trazado 828681" d="M399.192,184.394c-.013.085-1.457-.106-3.24-.04s-3.212.345-3.23.262a12.278,12.278,0,0,1,6.471-.222" transform="translate(-179.04 -83.912)" fill="#455a64"/>
            <path id="Trazado_828682" data-name="Trazado 828682" d="M388.769,180.587c.039.076-1.214.741-2.608,1.78s-2.4,2.039-2.46,1.981a12.42,12.42,0,0,1,5.069-3.761" transform="translate(-174.926 -82.326)" fill="#455a64"/>
            <path id="Trazado_828683" data-name="Trazado 828683" d="M390.338,192a.419.419,0,0,1-.054.115l-.184.324c-.164.284-.419.7-.782,1.2a17.648,17.648,0,0,1-3.659,3.791,35.5,35.5,0,0,1-6.747,3.955c-2.677,1.237-5.731,2.322-8.93,3.445l-16.4,5.737-4.981,1.708-1.359.451-.356.11a.411.411,0,0,1-.124.028.431.431,0,0,1,.115-.055l.346-.137,1.342-.5,4.951-1.793,16.374-5.815c3.2-1.124,6.247-2.2,8.916-3.415a36.335,36.335,0,0,0,6.733-3.876,18.378,18.378,0,0,0,3.692-3.7c.374-.495.644-.9.823-1.168l.208-.309c.048-.069.075-.1.079-.1" transform="translate(-158.086 -87.532)" fill="#455a64"/>
            <path id="Trazado_828684" data-name="Trazado 828684" d="M274.764,228.506a2.318,2.318,0,0,1-.4-.139l-1.12-.451c-.968-.4-2.365-.992-4.08-1.748-3.432-1.5-8.139-3.664-13.278-6.173s-9.725-4.924-12.971-6.8c-1.627-.932-2.919-1.729-3.8-2.3l-1-.671a2.368,2.368,0,0,1-.339-.25,2.333,2.333,0,0,1,.37.2l1.031.625c.9.539,2.2,1.308,3.84,2.217,3.266,1.83,7.866,4.2,13,6.721s9.825,4.693,13.235,6.244l4.042,1.829,1.1.5a2.313,2.313,0,0,1,.375.192" transform="translate(-108.401 -95.726)" fill="#455a64"/>
            <path id="Trazado_828685" data-name="Trazado 828685" d="M240.257,190.281a1.953,1.953,0,0,1,.481-.307,9.684,9.684,0,0,1,1.429-.621,11.312,11.312,0,0,1,5.092-.527,14.021,14.021,0,0,1,4.927,1.4,6.98,6.98,0,0,1,1.288.882,1.876,1.876,0,0,1,.4.412,15.064,15.064,0,0,0-1.776-1.116,15.336,15.336,0,0,0-4.872-1.3,12.04,12.04,0,0,0-4.993.436c-1.242.381-1.95.785-1.972.738" transform="translate(-109.532 -86.044)" fill="#455a64"/>
            <path id="Trazado_828686" data-name="Trazado 828686" d="M286.95,209.53a1.4,1.4,0,0,1-.255-.2l-.7-.6c-.6-.52-1.494-1.251-2.605-2.141-2.222-1.781-5.357-4.16-8.812-6.8l-2.514-1.934c-.819-.606-1.652-1.132-2.457-1.618-1.612-.966-3.1-1.79-4.283-2.6a17.022,17.022,0,0,1-2.63-2.13,8.443,8.443,0,0,1-.621-.679,1.365,1.365,0,0,1-.2-.255c.022-.021.31.316.893.854a19.062,19.062,0,0,0,2.664,2.042c1.185.783,2.679,1.584,4.305,2.543.812.482,1.656,1.008,2.488,1.618s1.653,1.275,2.521,1.933c3.454,2.64,6.573,5.047,8.766,6.871,1.1.911,1.97,1.667,2.552,2.213.3.268.514.489.662.637a1.382,1.382,0,0,1,.215.238" transform="translate(-119.391 -86.885)" fill="#455a64"/>
            <path id="Trazado_828687" data-name="Trazado 828687" d="M281.59,200.472a18.966,18.966,0,0,1,1.936.723c1.188.461,2.84,1.071,4.692,1.659s3.555,1.039,4.792,1.345a18.925,18.925,0,0,1,2,.524,2.106,2.106,0,0,1-.554-.055c-.354-.052-.863-.145-1.489-.274a49.818,49.818,0,0,1-4.833-1.27c-1.861-.591-3.51-1.233-4.683-1.744-.586-.255-1.056-.472-1.375-.633a2.1,2.1,0,0,1-.485-.275" transform="translate(-128.375 -91.393)" fill="#455a64"/>
            <path id="Trazado_828688" data-name="Trazado 828688" d="M281.5,191.6a15.186,15.186,0,0,1-1.953.337c-1.209.182-2.878.437-4.713.766s-3.489.668-4.686.917a15.244,15.244,0,0,1-1.948.361,1.946,1.946,0,0,1,.5-.179c.328-.1.807-.227,1.4-.378,1.187-.3,2.84-.67,4.68-1s3.519-.554,4.736-.685c.609-.065,1.1-.11,1.445-.132a1.931,1.931,0,0,1,.534-.007" transform="translate(-122.272 -87.344)" fill="#455a64"/>
            <path id="Trazado_828689" data-name="Trazado 828689" d="M277.233,185.726c0,.046-.749.108-1.95.288a30.787,30.787,0,0,0-9.019,2.8c-1.093.532-1.747.906-1.77.867a1.913,1.913,0,0,1,.429-.314c.285-.189.712-.44,1.25-.731a25.364,25.364,0,0,1,9.084-2.82c.608-.065,1.1-.1,1.444-.1a1.911,1.911,0,0,1,.532.016" transform="translate(-120.581 -84.663)" fill="#455a64"/>
            <path id="Trazado_828690" data-name="Trazado 828690" d="M325.362,232.987l-3.254,7.608c1.2,1.08,5.772,1.782,7.385,1.7s3.937-.063,5.542-.246a35.166,35.166,0,0,1,6.144.045,27.257,27.257,0,0,0,6.138-.112,9.89,9.89,0,0,0,5.462-2.6,5.644,5.644,0,0,0-1.68-9.482,10,10,0,0,0-5.209-.714,29.09,29.09,0,0,0-5.182,1.175,15.605,15.605,0,0,1-5.546.924,11.086,11.086,0,0,1-1.142-.087c-2.458-.453-5.023-.478-7.237.916-.457.287-.96.536-1.422.874" transform="translate(-146.847 -104.452)" fill="#e0e0e0"/>
            <path id="Trazado_828691" data-name="Trazado 828691" d="M328.957,235.413a1.925,1.925,0,0,1,.287-.274,6.7,6.7,0,0,1,.935-.649,6.865,6.865,0,0,1,4.055-.874c.883.086,1.831.266,2.851.42a12.775,12.775,0,0,0,3.256.159,19.806,19.806,0,0,0,3.526-.811,17.93,17.93,0,0,1,3.851-.82,10.918,10.918,0,0,1,3.931.339,9.008,9.008,0,0,1,1.75.71,5.152,5.152,0,0,1,1.447,1.1,6.6,6.6,0,0,1,1.562,2.941,3.591,3.591,0,0,1,.049,1.53,3.97,3.97,0,0,1-.522,1.309,5.341,5.341,0,0,1-1.693,1.691,9.884,9.884,0,0,1-1.6.822c-.456.187-.817.314-1.063.4a2,2,0,0,1-.379.113,2.161,2.161,0,0,1,.359-.167c.238-.1.592-.245,1.039-.446a10.54,10.54,0,0,0,1.56-.852,5.253,5.253,0,0,0,1.609-1.662,3.427,3.427,0,0,0,.416-2.684,6.4,6.4,0,0,0-1.523-2.815,6.688,6.688,0,0,0-3.082-1.725,10.731,10.731,0,0,0-3.833-.324c-2.656.2-5.01,1.405-7.373,1.609a12.873,12.873,0,0,1-3.318-.187c-1.023-.165-1.967-.355-2.835-.453a6.921,6.921,0,0,0-3.981.772,12.9,12.9,0,0,0-1.275.827" transform="translate(-149.969 -106.005)" fill="#455a64"/>
            <path id="Trazado_828692" data-name="Trazado 828692" d="M368.06,243.809c-.016.012-.12-.106-.3-.331a3.455,3.455,0,0,1-.3-.427,5.7,5.7,0,0,1-.346-.6,9.86,9.86,0,0,1-.682-1.661,11.389,11.389,0,0,1-.448-4.357,9.78,9.78,0,0,1,.33-1.766,5.741,5.741,0,0,1,.217-.655,3.538,3.538,0,0,1,.2-.479c.127-.256.2-.392.222-.384.048.021-.22.591-.449,1.567a11.4,11.4,0,0,0-.264,1.737,12.448,12.448,0,0,0,.438,4.261,11.33,11.33,0,0,0,.612,1.647c.422.91.8,1.414.757,1.444" transform="translate(-166.835 -106.293)" fill="#263238"/>
            <path id="Trazado_828693" data-name="Trazado 828693" d="M331.309,234.276c.069.039-.016.321-.156.648s-.285.583-.36.56-.047-.33.1-.672.348-.575.416-.536" transform="translate(-150.789 -106.803)" fill="#455a64"/>
            <path id="Trazado_828694" data-name="Trazado 828694" d="M335.668,232.609c.072.033.014.313-.093.64s-.227.587-.3.571-.078-.316.035-.659.292-.584.362-.552" transform="translate(-152.824 -106.044)" fill="#455a64"/>
            <path id="Trazado_828695" data-name="Trazado 828695" d="M341.13,232.509c.074.024.036.345-.085.716s-.28.652-.355.627-.036-.344.085-.715.28-.652.355-.627" transform="translate(-155.301 -105.999)" fill="#455a64"/>
            <path id="Trazado_828696" data-name="Trazado 828696" d="M346.319,233.152c.075.022.048.344-.06.719s-.257.662-.332.641-.048-.344.06-.719.257-.662.332-.64" transform="translate(-157.686 -106.292)" fill="#455a64"/>
            <path id="Trazado_828697" data-name="Trazado 828697" d="M350.912,234.455c-.078,0-.14-.38-.137-.847s.068-.846.146-.845.14.379.137.847-.068.846-.146.845" transform="translate(-159.916 -106.115)" fill="#455a64"/>
            <path id="Trazado_828698" data-name="Trazado 828698" d="M355.626,233.356c-.077.011-.188-.325-.247-.751s-.044-.779.034-.79.188.325.247.751.043.779-.034.789" transform="translate(-161.999 -105.683)" fill="#455a64"/>
            <path id="Trazado_828699" data-name="Trazado 828699" d="M360.258,230.27c.077-.015.2.3.279.713s.078.751,0,.766-.2-.3-.279-.713-.077-.751,0-.766" transform="translate(-164.213 -104.978)" fill="#455a64"/>
            <path id="Trazado_828700" data-name="Trazado 828700" d="M365.685,229.211c.077.016.047.464-.067,1s-.268.957-.344.941-.047-.464.067-1,.267-.957.344-.941" transform="translate(-166.507 -104.496)" fill="#455a64"/>
            <path id="Trazado_828701" data-name="Trazado 828701" d="M370.064,229.35c.071.032-.12.527-.428,1.106s-.612,1.014-.678.973a2.606,2.606,0,0,1,.429-1.106c.3-.569.607-1,.678-.972" transform="translate(-168.199 -104.558)" fill="#455a64"/>
            <path id="Trazado_828702" data-name="Trazado 828702" d="M374.886,230.674a2.861,2.861,0,0,1-.563,1.121c-.376.577-.734,1.01-.8.967a2.875,2.875,0,0,1,.563-1.121c.376-.577.735-1.009.8-.967" transform="translate(-170.283 -105.161)" fill="#455a64"/>
            <path id="Trazado_828703" data-name="Trazado 828703" d="M378.174,233.707c.064.045-.175.5-.533,1.015s-.7.9-.766.854.174-.5.533-1.016.7-.9.766-.854" transform="translate(-171.81 -106.544)" fill="#455a64"/>
            <path id="Trazado_828704" data-name="Trazado 828704" d="M380.3,237.569c.063.045-.18.486-.594.942s-.829.742-.879.683.268-.429.669-.874.739-.8.8-.752" transform="translate(-172.703 -108.304)" fill="#455a64"/>
            <path id="Trazado_828705" data-name="Trazado 828705" d="M380.366,243.451c.061.046-.081.31-.4.451s-.611.068-.6-.008.236-.136.49-.251.455-.244.516-.192" transform="translate(-172.948 -110.983)" fill="#455a64"/>
            <path id="Trazado_828706" data-name="Trazado 828706" d="M377.756,248.391c.026.073-.052.164-.17.145s-.161-.133-.112-.194a.147.147,0,0,1,.281.049" transform="translate(-172.079 -113.178)" fill="#455a64"/>
            <path id="Trazado_828707" data-name="Trazado 828707" d="M343.13,246.1a8.577,8.577,0,0,0,.943-5.248,5.374,5.374,0,0,1-.943,5.248" transform="translate(-156.429 -109.804)" fill="#263238"/>
            <path id="Trazado_828708" data-name="Trazado 828708" d="M347.253,245.968a7.482,7.482,0,0,0,.812-4.841,4.666,4.666,0,0,1-.812,4.841" transform="translate(-158.308 -109.928)" fill="#263238"/>
            <path id="Trazado_828709" data-name="Trazado 828709" d="M352.442,245.667a7.224,7.224,0,0,0,.969-5.24,1.753,1.753,0,0,1,.281.774,5.28,5.28,0,0,1-.711,3.845c-.279.429-.514.644-.54.622" transform="translate(-160.674 -109.609)" fill="#263238"/>
            <path id="Trazado_828710" data-name="Trazado 828710" d="M358.3,245.232a9.336,9.336,0,0,0,.68-5.343,5.67,5.67,0,0,1-.68,5.343" transform="translate(-163.343 -109.363)" fill="#263238"/>
            <path id="Trazado_828711" data-name="Trazado 828711" d="M339,241.856a.864.864,0,0,1-.462.064,2.546,2.546,0,0,1-1.211-.4,5.307,5.307,0,0,1-1.353-1.307,3.247,3.247,0,0,1-.588-.972,1.341,1.341,0,0,1-.049-.638,1,1,0,0,1,.34-.587,1.346,1.346,0,0,1,1.239-.233,2.355,2.355,0,0,1,.971.614,4.479,4.479,0,0,1,1.022,1.587,4.241,4.241,0,0,1,.266,1.239,1.151,1.151,0,0,1-.028.463,7.884,7.884,0,0,0-.424-1.627,4.539,4.539,0,0,0-1.018-1.475,2.149,2.149,0,0,0-.865-.535,1.081,1.081,0,0,0-.98.183.843.843,0,0,0-.209.927,3.11,3.11,0,0,0,.529.9,5.521,5.521,0,0,0,1.254,1.3,2.92,2.92,0,0,0,1.564.5" transform="translate(-152.871 -108.378)" fill="#263238"/>
            <path id="Trazado_828712" data-name="Trazado 828712" d="M338.457,245.113a1.216,1.216,0,0,1-.106.415,6.494,6.494,0,0,1-.464,1.072,3.2,3.2,0,0,1-1.212,1.272,2.112,2.112,0,0,1-1.031.282,1.225,1.225,0,0,1-1.061-.515,1.1,1.1,0,0,1,.118-1.175,2.153,2.153,0,0,1,.819-.687,6.4,6.4,0,0,1,1.675-.48,8.8,8.8,0,0,1,1.566-.235,8.789,8.789,0,0,1-1.524.431,6.988,6.988,0,0,0-1.6.516,1.929,1.929,0,0,0-.71.61.836.836,0,0,0-.1.873.966.966,0,0,0,.819.384,1.892,1.892,0,0,0,.906-.234,3.135,3.135,0,0,0,1.163-1.145c.49-.825.692-1.409.742-1.385" transform="translate(-152.479 -111.719)" fill="#263238"/>
            <path id="Trazado_828713" data-name="Trazado 828713" d="M341.427,247.565c-.063-.054.251-.471.343-1.079s-.059-1.1.017-1.132.38.477.262,1.178-.578,1.095-.622,1.033" transform="translate(-155.651 -111.854)" fill="#263238"/>
            <path id="Trazado_828714" data-name="Trazado 828714" d="M342.951,242.433c.073.022.01.435-.231.883s-.547.731-.606.682.132-.393.356-.816.4-.774.48-.749" transform="translate(-155.963 -110.523)" fill="#263238"/>
            <path id="Trazado_828715" data-name="Trazado 828715" d="M352.219,234.989a4.793,4.793,0,0,1-1.212.571,15.615,15.615,0,0,1-6.367.947,4.815,4.815,0,0,1-1.326-.193,23.327,23.327,0,0,0,8.905-1.325" transform="translate(-156.515 -107.127)" fill="#ff725e"/>
            <path id="Trazado_828716" data-name="Trazado 828716" d="M352.176,251.171a31.91,31.91,0,0,1-5.99.41,31.911,31.911,0,0,1,5.99-.41" transform="translate(-157.824 -114.488)" fill="#ff725e"/>
            <path id="Trazado_828717" data-name="Trazado 828717" d="M369.328,243.826a4.787,4.787,0,0,0,1.917-.709,4.193,4.193,0,0,0,1.421-1.658,4.313,4.313,0,0,0,.295-2.636,4.873,4.873,0,0,0-1.206-2.385,5.7,5.7,0,0,0-1.8-1.287,10.1,10.1,0,0,0-1.988-.582,1.7,1.7,0,0,1,.568.009,5.748,5.748,0,0,1,1.5.389,5.613,5.613,0,0,1,1.909,1.292,5.008,5.008,0,0,1,1.294,2.51,4.478,4.478,0,0,1-.338,2.8,4.252,4.252,0,0,1-1.547,1.712,3.732,3.732,0,0,1-1.458.539,1.457,1.457,0,0,1-.569,0" transform="translate(-167.755 -106.932)" fill="#ff725e"/>
            <path id="Trazado_828718" data-name="Trazado 828718" d="M304.424,227.013l14.167,6.283a11.2,11.2,0,0,1-.869,5.266c-1.037,2.121-4.178,1.7-4.178,1.7l-12.445-2.9,2.774-1.627Z" transform="translate(-137.269 -103.494)" fill="#ffbe9d"/>
            <path id="Trazado_828719" data-name="Trazado 828719" d="M328.567,244.821a8.619,8.619,0,0,1-1.521-1.36,2.894,2.894,0,0,1-.717-1.87,3.823,3.823,0,0,1,.609-1.734,3.016,3.016,0,0,1,1.406-1.446,3.089,3.089,0,0,1,2.4.418l.151,3.153Z" transform="translate(-148.771 -108.64)" fill="#e0e0e0"/>
            <path id="Trazado_828720" data-name="Trazado 828720" d="M321.377,233.294c-.032.072-3.229-1.277-7.141-3.012s-7.059-3.2-7.027-3.271,3.228,1.277,7.141,3.012,7.058,3.2,7.026,3.271" transform="translate(-140.055 -103.492)" fill="#eb996e"/>
            <path id="Trazado_828721" data-name="Trazado 828721" d="M309.474,107.63a1.028,1.028,0,0,0,1.065-.984c.16-4.469-2.79-14.6-4.2-18.806-.866-2.573-3.786-4.446-5.831-5.829-2.47-1.67-11.207-3.715-14.08-4.511h-.969l-13.346-1-7.348,3.523s-10.191,3.859-13.145,9.235-5.2,21.15-5.2,21.15-1.353,4.5,0,6.538c.843,1.266,3.98,2.363,6.806,2.906a20.732,20.732,0,0,0-.378,9.521c-.112,1.34-1.138,4.455,1.27,4.263s21.26-5.167,26.855-5.39a26.392,26.392,0,0,1,13.574,3.331c2.823,1.58,2.8,1.7,3.8-1.094s-2.207-5.922-2.207-5.922,2.888-10.419,4.227-17.229Z" transform="translate(-112.065 -34.878)" fill="#455a64"/>
            <path id="Trazado_828722" data-name="Trazado 828722" d="M270.155,114.784a2.621,2.621,0,0,1-.423-.453l-1.083-1.288a37.015,37.015,0,0,0-3.826-3.992,18.563,18.563,0,0,0-2.434-1.806,13.722,13.722,0,0,0-2.216-1.1c-1.319-.5-2.2-.627-2.186-.685a2.586,2.586,0,0,1,.617.069,4.959,4.959,0,0,1,.712.152,7.988,7.988,0,0,1,.926.276,12.524,12.524,0,0,1,2.282,1.06,17.258,17.258,0,0,1,2.486,1.816,30.43,30.43,0,0,1,3.8,4.079c.439.561.786,1.021,1.015,1.347a2.6,2.6,0,0,1,.336.521" transform="translate(-117.614 -48.078)" fill="#263238"/>
            <path id="Trazado_828723" data-name="Trazado 828723" d="M262.187,147.784a2.971,2.971,0,0,1-.658.052c-.424.016-1.038.024-1.8.017a43.628,43.628,0,0,1-5.918-.436,26.5,26.5,0,0,1-5.746-1.5,16.787,16.787,0,0,1-1.643-.737,2.954,2.954,0,0,1-.572-.331c.022-.046.864.371,2.285.881a30.61,30.61,0,0,0,5.717,1.4,56.749,56.749,0,0,0,5.881.516l1.793.073a2.968,2.968,0,0,1,.658.058" transform="translate(-112.083 -66.036)" fill="#263238"/>
            <path id="Trazado_828724" data-name="Trazado 828724" d="M320.489,159.627a1.37,1.37,0,0,1-.195.4,10.126,10.126,0,0,1-.668,1.019,14.844,14.844,0,0,1-6.276,4.9,10.135,10.135,0,0,1-1.15.4,1.345,1.345,0,0,1-.439.091c-.014-.045.586-.248,1.509-.676a17.212,17.212,0,0,0,6.2-4.839c.639-.792.982-1.325,1.022-1.3" transform="translate(-142.13 -72.773)" fill="#263238"/>
            <path id="Trazado_828725" data-name="Trazado 828725" d="M322.276,167.306a3.482,3.482,0,0,1-.887.7,11.873,11.873,0,0,1-5.112,1.81,3.5,3.5,0,0,1-1.131.014,18.313,18.313,0,0,0,7.13-2.525" transform="translate(-143.673 -76.272)" fill="#263238"/>
            <path id="Trazado_828726" data-name="Trazado 828726" d="M352.158,97.338a1.472,1.472,0,0,1-.064.461,12.385,12.385,0,0,1-.321,1.224,18.691,18.691,0,0,1-4.172,7.169,12.552,12.552,0,0,1-.905.884c-.225.2-.356.3-.369.283-.032-.034.436-.5,1.125-1.3a22.451,22.451,0,0,0,4.131-7.1c.358-1,.53-1.632.575-1.621" transform="translate(-157.888 -44.376)" fill="#263238"/>
            <path id="Trazado_828727" data-name="Trazado 828727" d="M355.817,129a5.855,5.855,0,0,1-1.317.1c-.815.022-1.94.023-3.183-.025s-2.366-.135-3.176-.22a5.844,5.844,0,0,1-1.306-.2,6.462,6.462,0,0,1,1.32,0l3.173.138,3.173.107a6.462,6.462,0,0,1,1.316.1" transform="translate(-158.12 -58.642)" fill="#263238"/>
            <path id="Trazado_828728" data-name="Trazado 828728" d="M343.8,100.644a3.757,3.757,0,0,1,.187.719c.109.521.248,1.183.415,1.976.336,1.67.819,3.981,1.108,6.577a27.853,27.853,0,0,1-.033,6.674,19.354,19.354,0,0,1-.367,1.991,3.692,3.692,0,0,1-.2.714,3.751,3.751,0,0,1,.095-.736c.087-.468.181-1.15.276-1.994a31.288,31.288,0,0,0-.05-6.62c-.287-2.577-.737-4.889-1.023-6.57-.145-.84-.259-1.521-.326-1.994a3.777,3.777,0,0,1-.078-.738" transform="translate(-156.733 -45.883)" fill="#263238"/>
            <path id="Trazado_828729" data-name="Trazado 828729" d="M277.591,126.059a2.68,2.68,0,0,1-.036.627c-.041.4-.112.981-.206,1.7-.191,1.429-.479,3.4-.877,5.567a49.305,49.305,0,0,1-1.281,5.5,15.358,15.358,0,0,1-.589,1.61,2.71,2.71,0,0,1-.3.553c-.043-.021.338-.826.7-2.219.38-1.385.8-3.329,1.195-5.491s.716-4.125.958-5.546c.116-.663.215-1.225.295-1.682a2.646,2.646,0,0,1,.145-.612" transform="translate(-125.05 -57.47)" fill="#263238"/>
            <path id="Trazado_828730" data-name="Trazado 828730" d="M276.979,110.121a4.3,4.3,0,0,1,.543,1.07,20.036,20.036,0,0,1,1.414,5.6,4.272,4.272,0,0,1,.03,1.2c-.086.008-.255-1.809-.81-3.98s-1.257-3.852-1.178-3.886" transform="translate(-126.27 -50.203)" fill="#263238"/>
            <path id="Trazado_828731" data-name="Trazado 828731" d="M302.823,125.555a1.866,1.866,0,0,1,.152-.311l.48-.875,1.833-3.241,6.354-11.055.179.193c-1.606.781-3.342,1.553-5.159,2.273-2.19.868-4.345,1.6-6.357,2.2l-.425.125.281-.341,7.633-9.265,2.231-2.669.605-.705a1.712,1.712,0,0,1,.221-.234,1.628,1.628,0,0,1-.185.263l-.57.734-2.17,2.719-7.555,9.328-.144-.215c2-.6,4.149-1.334,6.331-2.2,1.81-.718,3.541-1.484,5.143-2.257l.406-.2-.227.389-6.439,11.005-1.9,3.2-.521.852a1.869,1.869,0,0,1-.194.287" transform="translate(-136.714 -46.34)" fill="#fff"/>
            <g id="Grupo_1079348" data-name="Grupo 1079348" transform="translate(170.465 87.777)" opacity="0.3">
              <g id="Grupo_1079347" data-name="Grupo 1079347">
                <g id="Grupo_1079346" data-name="Grupo 1079346" clip-path="url(#clip-path-12)">
                  <path id="Trazado_828732" data-name="Trazado 828732" d="M318.7,167.654c.64.167,1.874-1.778,2.584-2.967-2.185,1.208-4.275,2.656-6.715,2.128a8.528,8.528,0,0,0,5.877-5.491,14.049,14.049,0,0,1-7.15,5.577s4.385.487,5.4.753" transform="translate(-313.294 -161.324)"/>
                </g>
              </g>
            </g>
            <path id="Trazado_828733" data-name="Trazado 828733" d="M276.984,59.2c.01-.026.373.155,1.074.31a4.528,4.528,0,0,0,2.935-.288,3.53,3.53,0,0,0,1.479-1.377,2.635,2.635,0,0,0,.237-2.231,2.392,2.392,0,0,0-1.8-1.609,2.108,2.108,0,0,0-2.165,1.262,1.594,1.594,0,0,0,.051,1.3,2.183,2.183,0,0,0,.921.934,2.48,2.48,0,0,0,1.242.32,3.062,3.062,0,0,0,1.216-.285,5.03,5.03,0,0,0,1.817-1.482,7.233,7.233,0,0,0,1.044-1.794A7.7,7.7,0,0,0,285.6,51.3c-.01-.718-.089-1.113-.062-1.117a1.169,1.169,0,0,1,.073.282,6.076,6.076,0,0,1,.1.831,7.41,7.41,0,0,1-.492,3.032,7.317,7.317,0,0,1-1.046,1.865,5.221,5.221,0,0,1-1.894,1.574,3.314,3.314,0,0,1-1.319.319,2.75,2.75,0,0,1-1.381-.348,2.457,2.457,0,0,1-1.04-1.054,1.875,1.875,0,0,1-.06-1.53,2.378,2.378,0,0,1,2.47-1.432,2.651,2.651,0,0,1,2.005,1.8,2.869,2.869,0,0,1-.281,2.437A3.706,3.706,0,0,1,281.08,59.4a4.518,4.518,0,0,1-3.048.215,4.935,4.935,0,0,1-.791-.277,1,1,0,0,1-.257-.139" transform="translate(-126.275 -22.88)" fill="#263238"/>
            <path id="Trazado_828734" data-name="Trazado 828734" d="M343.632,37.921a7.793,7.793,0,0,0-2.052-6.113,6.58,6.58,0,0,0-6.082-1.87,7.9,7.9,0,0,0-4.139,2.158,4.244,4.244,0,0,0-.843,1.2c-.036.069-.071.139-.1.211-.042.09-.083.18-.122.27-.007.015-.014.029-.02.044l0-.005a7.956,7.956,0,0,0-.48,4.9A7.49,7.49,0,0,0,334.7,44.1a6.961,6.961,0,0,0,7.007-1.773,7.47,7.47,0,0,0,1.922-4.4" transform="translate(-150.264 -13.579)" fill="#263238"/>
            <path id="Trazado_828735" data-name="Trazado 828735" d="M347.085,45.591c-.049.01-.147-.617-.528-1.549a8.5,8.5,0,0,0-5.64-5.026c-.969-.272-1.6-.3-1.6-.348a1.259,1.259,0,0,1,.446-.019,6.737,6.737,0,0,1,1.2.172,8.053,8.053,0,0,1,5.777,5.148,6.726,6.726,0,0,1,.308,1.175,1.25,1.25,0,0,1,.033.445" transform="translate(-154.693 -17.618)" fill="#455a64"/>
            <path id="Trazado_828736" data-name="Trazado 828736" d="M344.356,43.512a4.539,4.539,0,0,1-.5,1.278,10.759,10.759,0,0,1-4.6,4.668,4.532,4.532,0,0,1-1.27.518,17.8,17.8,0,0,0,3.73-2.693,17.8,17.8,0,0,0,2.634-3.772" transform="translate(-154.088 -19.837)" fill="#455a64"/>
            <path id="Trazado_828737" data-name="Trazado 828737" d="M338.892,34.934c-.084-.048.569-1.1,1.111-2.482a11.9,11.9,0,0,0,.571-2.63,1.738,1.738,0,0,1,.095.809,5.891,5.891,0,0,1-.4,1.921,7.314,7.314,0,0,1-1.376,2.383" transform="translate(-154.496 -13.596)" fill="#ff725e"/>
            <path id="Trazado_828738" data-name="Trazado 828738" d="M321.482,88.128h0" transform="translate(-146.561 -40.177)" fill="#ffbe9d"/>
            <path id="Trazado_828739" data-name="Trazado 828739" d="M317.912,25.015a12.285,12.285,0,0,0-10.906-12.728,11.933,11.933,0,0,0-13.221,10.97l-1.1,26.858a2.342,2.342,0,0,0,.437,1.453,10.954,10.954,0,0,0,7.06,4.327,11.481,11.481,0,0,0,7.042-1.6,2.29,2.29,0,0,0,1.124-1.985l0-6.008a.038.038,0,0,1,.04-.04,8.162,8.162,0,0,0,1.683-.078c1.582-.417,5.6-2.049,6.848-8.016a121.824,121.824,0,0,0,.992-13.154" transform="translate(-133.434 -5.573)" fill="#ffbe9d"/>
            <path id="Trazado_828740" data-name="Trazado 828740" d="M323.051,44.86a7.134,7.134,0,0,1,1.736-.218c.272-.014.53-.053.584-.233a1.334,1.334,0,0,0-.145-.8q-.337-.986-.708-2.067a34.645,34.645,0,0,1-1.556-5.391,34.753,34.753,0,0,1,1.993,5.258q.353,1.087.674,2.077a1.521,1.521,0,0,1,.093,1.051.674.674,0,0,1-.463.367,1.877,1.877,0,0,1-.462.039,7.035,7.035,0,0,1-1.746-.087" transform="translate(-147.231 -16.482)" fill="#263238"/>
            <path id="Trazado_828741" data-name="Trazado 828741" d="M332.646,42.319a.971.971,0,0,1-.995.929.944.944,0,0,1-.976-.925.972.972,0,0,1,.993-.929.945.945,0,0,1,.977.926" transform="translate(-150.753 -18.871)" fill="#263238"/>
            <path id="Trazado_828742" data-name="Trazado 828742" d="M333,37.518c-.1.106-.886.055-1.891.4s-1.663.866-1.791.835c-.062-.013.022-.174.306-.411a4.544,4.544,0,0,1,1.41-.751,4.086,4.086,0,0,1,1.529-.231c.346.027.485.113.436.163" transform="translate(-150.124 -17.027)" fill="#263238"/>
            <path id="Trazado_828743" data-name="Trazado 828743" d="M313.887,41.09a.971.971,0,0,1-.995.929.944.944,0,0,1-.976-.925.971.971,0,0,1,.994-.929.945.945,0,0,1,.977.926" transform="translate(-142.201 -18.311)" fill="#263238"/>
            <path id="Trazado_828744" data-name="Trazado 828744" d="M313,37.661c-.155.007-.732-.618-1.766-1.111s-1.936-.591-2.013-.71c-.039-.055.144-.114.543-.078a5.039,5.039,0,0,1,1.655.489,4.543,4.543,0,0,1,1.361.964c.249.277.294.445.22.446" transform="translate(-140.971 -16.299)" fill="#263238"/>
            <path id="Trazado_828745" data-name="Trazado 828745" d="M313.858,72.129s-4.108.122-9.09-3.163c0,0,1.373,5.4,9.093,5.085Z" transform="translate(-138.942 -31.441)" fill="#eb996e"/>
            <path id="Trazado_828746" data-name="Trazado 828746" d="M319.427,56.069a1.937,1.937,0,0,0-1.681-.785,1.746,1.746,0,0,0-1.233.573,1.071,1.071,0,0,0-.141,1.238,1.3,1.3,0,0,0,1.374.416,4,4,0,0,0,1.391-.726,1.165,1.165,0,0,0,.317-.293.344.344,0,0,0,.016-.388" transform="translate(-144.169 -25.203)" fill="#eb996e"/>
            <path id="Trazado_828747" data-name="Trazado 828747" d="M317.176,53.188c.173,0,.124,1.13,1.072,1.983s2.179.791,2.18.949c.013.072-.283.206-.8.193a2.918,2.918,0,0,1-1.823-.728,2.458,2.458,0,0,1-.824-1.659c-.023-.476.119-.749.2-.738" transform="translate(-144.508 -24.248)" fill="#263238"/>
            <path id="Trazado_828748" data-name="Trazado 828748" d="M313.426,30.533c-.15.262-1.172-.052-2.423-.12-1.25-.093-2.3.089-2.42-.19-.052-.133.164-.366.61-.568a4.065,4.065,0,0,1,1.868-.3,4.113,4.113,0,0,1,1.821.538c.421.257.61.516.544.641" transform="translate(-140.678 -13.378)" fill="#263238"/>
            <path id="Trazado_828749" data-name="Trazado 828749" d="M333.042,30.841c-.2.227-.916-.055-1.794-.112-.876-.087-1.629.076-1.789-.18-.069-.124.058-.355.393-.563a2.641,2.641,0,0,1,2.887.235c.3.259.39.508.3.619" transform="translate(-150.19 -13.524)" fill="#263238"/>
            <path id="Trazado_828750" data-name="Trazado 828750" d="M306.246,8.515a3.6,3.6,0,0,0-2.765-1.5c-4.712-.624-9.905,2.3-12.464,6.31s-2.588,9.911-.579,14.219l1.768.275c3.667-.288,9.651-10.632,14.693-16.379.626-.714-.155-2.12-.652-2.929" transform="translate(-131.757 -3.162)" fill="#263238"/>
            <path id="Trazado_828751" data-name="Trazado 828751" d="M329.411,12.061c-2.008-2.2-5.252-4.866-9.3-3.236-.58,1.154.659,2.614,1.686,3.462,1.5,1.241,2.814,2.074,3.8,2.964,2,1.8,4.487,4.792,4.743,8.157.016.211.178.238.39.2.274-.047.881-1.435,1.171-3.27a8.8,8.8,0,0,0-2.488-8.278" transform="translate(-145.868 -3.794)" fill="#263238"/>
            <path id="Trazado_828752" data-name="Trazado 828752" d="M284.522,30.261a5.874,5.874,0,0,0-1.237-2.441,5.618,5.618,0,0,0-1.374-1.184,6.582,6.582,0,0,0-6.363-.094,7.794,7.794,0,0,0-3.834,5.184,7.47,7.47,0,0,0,.473,4.781,6.962,6.962,0,0,0,6.12,3.845,7.49,7.49,0,0,0,6.328-3.6c.923-1.536.681-4.247-.113-6.487" transform="translate(-123.786 -11.748)" fill="#263238"/>
            <path id="Trazado_828753" data-name="Trazado 828753" d="M293.037,41.07c-.11-.058-4.483-1.693-4.674,2.878s4.438,3.819,4.451,3.688.222-6.566.222-6.566" transform="translate(-131.461 -18.573)" fill="#ffbe9d"/>
            <path id="Trazado_828754" data-name="Trazado 828754" d="M292.464,47.065c-.02-.016-.082.052-.219.108a.8.8,0,0,1-.6-.013,1.972,1.972,0,0,1-.839-1.805,2.639,2.639,0,0,1,.27-1.131.921.921,0,0,1,.625-.586.405.405,0,0,1,.461.238c.055.13.023.22.047.229s.1-.072.072-.263a.511.511,0,0,0-.168-.294.6.6,0,0,0-.436-.134,1.118,1.118,0,0,0-.861.674,2.709,2.709,0,0,0-.329,1.263,2.068,2.068,0,0,0,1.08,2.022.853.853,0,0,0,.733-.09c.146-.107.175-.208.159-.217" transform="translate(-132.434 -19.791)" fill="#eb996e"/>
            <path id="Trazado_828755" data-name="Trazado 828755" d="M331.519,15.961a5.062,5.062,0,0,1-1.332.175,18.567,18.567,0,0,1-3.241-.109,18.574,18.574,0,0,1-3.174-.666,5.042,5.042,0,0,1-1.252-.487,8.4,8.4,0,0,1,1.3.294,27.65,27.65,0,0,0,3.155.578,27.661,27.661,0,0,0,3.2.19,8.408,8.408,0,0,1,1.337.025" transform="translate(-147.035 -6.778)" fill="#455a64"/>
            <path id="Trazado_828756" data-name="Trazado 828756" d="M336.388,21.7a2.651,2.651,0,0,1-.995.236,7.692,7.692,0,0,1-4.765-1.041,2.65,2.65,0,0,1-.806-.629,14.019,14.019,0,0,0,3.164,1.261,14,14,0,0,0,3.4.174" transform="translate(-150.364 -9.235)" fill="#455a64"/>
            <path id="Trazado_828757" data-name="Trazado 828757" d="M291.634,17.126c.008-.058.991.118,2.586.074A19.565,19.565,0,0,0,297,16.915a25.4,25.4,0,0,0,3.317-.859,27.469,27.469,0,0,0,3.164-1.323,25.161,25.161,0,0,0,2.43-1.4c1.337-.874,2.084-1.532,2.118-1.491a3.3,3.3,0,0,1-.5.488,8.112,8.112,0,0,1-.632.523c-.251.2-.538.424-.873.647a21.846,21.846,0,0,1-2.423,1.463,25.105,25.105,0,0,1-3.192,1.359,23.409,23.409,0,0,1-3.364.848,17.558,17.558,0,0,1-2.824.228,9.8,9.8,0,0,1-1.088-.042,6.143,6.143,0,0,1-.816-.091,3.323,3.323,0,0,1-.686-.14" transform="translate(-132.954 -5.399)" fill="#455a64"/>
            <path id="Trazado_828758" data-name="Trazado 828758" d="M308.292,14.787a3.712,3.712,0,0,1-.365.636,8.284,8.284,0,0,1-.483.712c-.2.267-.414.587-.693.9a19.084,19.084,0,0,1-2.056,2.141,20.3,20.3,0,0,1-2.934,2.149,19.8,19.8,0,0,1-3.3,1.536,17.753,17.753,0,0,1-2.874.743c-.414.087-.8.112-1.13.153a7.578,7.578,0,0,1-.857.06,3.6,3.6,0,0,1-.733-.005c0-.058,1.041-.081,2.683-.4a19.6,19.6,0,0,0,2.823-.792,21.077,21.077,0,0,0,3.241-1.534,21.541,21.541,0,0,0,2.906-2.1,21.115,21.115,0,0,0,2.075-2.074c1.094-1.267,1.647-2.153,1.694-2.121" transform="translate(-133.517 -6.741)" fill="#455a64"/>
            <path id="Trazado_828759" data-name="Trazado 828759" d="M315.609,7.061a1.7,1.7,0,0,1,.917.063A3.942,3.942,0,0,1,318.4,8.307a3.352,3.352,0,0,1,.382.524,2.717,2.717,0,0,1,.225.56,6.055,6.055,0,0,1,.258.961,1.386,1.386,0,0,1-.068.918c-.046-.007.007-.351-.129-.878a8.581,8.581,0,0,0-.308-.915,2.73,2.73,0,0,0-.219-.507,3.4,3.4,0,0,0-.354-.476,4.362,4.362,0,0,0-1.726-1.18c-.513-.181-.86-.206-.857-.254" transform="translate(-143.884 -3.204)" fill="#455a64"/>
            <path id="Trazado_828760" data-name="Trazado 828760" d="M291.545,34.264c-.046-.015.092-.472.188-1.226a7.915,7.915,0,0,0-.169-2.932,6.093,6.093,0,0,0-1.382-2.564c-.516-.553-.922-.811-.892-.855.01-.016.118.037.305.149a4.082,4.082,0,0,1,.73.566,5.643,5.643,0,0,1,1.513,2.632,7.018,7.018,0,0,1,.093,3.035,3.4,3.4,0,0,1-.386,1.2" transform="translate(-131.885 -12.165)" fill="#ff725e"/>
            <path id="Trazado_828761" data-name="Trazado 828761" d="M284.533,36.394c-.027.04-.588-.322-1.549-.8a17.4,17.4,0,0,0-8.084-1.8c-1.072.021-1.734.111-1.741.063a1.5,1.5,0,0,1,.458-.115,10.709,10.709,0,0,1,1.275-.149,15.2,15.2,0,0,1,8.184,1.825,10.611,10.611,0,0,1,1.091.677c.246.177.377.282.366.3" transform="translate(-124.532 -15.301)" fill="#455a64"/>
            <path id="Trazado_828762" data-name="Trazado 828762" d="M282.007,35.429a4.7,4.7,0,0,1-.342,1.341,12.789,12.789,0,0,1-3.781,5.443,4.7,4.7,0,0,1-1.138.788,22.037,22.037,0,0,0,3.154-3.422,22.039,22.039,0,0,0,2.106-4.149" transform="translate(-126.167 -16.152)" fill="#455a64"/>
            <path id="Trazado_828763" data-name="Trazado 828763" d="M289.734,51.657c.033-.088.2-.138.47-.067a1.759,1.759,0,0,1,.958.713,2.137,2.137,0,0,1-.5,2.886,2.245,2.245,0,0,1-2.516.066,2.333,2.333,0,0,1-.794-.873,2.068,2.068,0,0,1-.063-1.887,1.632,1.632,0,0,1,.837-.887c.291-.107.464-.034.485.053.034.2-.31.459-.365,1.128a1.565,1.565,0,0,0,.017.49,1.338,1.338,0,0,0,.213.44,1.066,1.066,0,0,0,.9.472.9.9,0,0,0,.808-.488,1.236,1.236,0,0,0,.092-.933c-.178-.607-.621-.929-.541-1.114" transform="translate(-130.883 -23.504)" fill="#455a64"/>
            <path id="Trazado_828764" data-name="Trazado 828764" d="M300.459,27.565a13.057,13.057,0,0,0,2.753-.483,11.665,11.665,0,0,0,5.434-3.814,18.3,18.3,0,0,0,3.05-5.988c.26-.828.437-1.509.557-1.981a4.143,4.143,0,0,1,.208-.729,3.649,3.649,0,0,1-.1.752c-.087.481-.235,1.173-.472,2.015a17.265,17.265,0,0,1-3.021,6.108,11.378,11.378,0,0,1-5.6,3.827,8.235,8.235,0,0,1-2.051.329,4.781,4.781,0,0,1-.564-.01c-.128-.008-.2-.017-.2-.027" transform="translate(-136.978 -6.642)" fill="#263238"/>
            <path id="Trazado_828765" data-name="Trazado 828765" d="M307.226,81.007a1.015,1.015,0,0,1,.274.14,2.649,2.649,0,0,1,.649.6,3.314,3.314,0,0,1,.6,1.267,3.537,3.537,0,0,1-.049,1.858,5.417,5.417,0,0,1-3.334,3.332,11.361,11.361,0,0,1-2.765.674,16.629,16.629,0,0,1-3.045.123,11.023,11.023,0,0,1-5.578-1.76,8.136,8.136,0,0,1-3.057-3.664,4.622,4.622,0,0,1-.368-1.821,2.791,2.791,0,0,1,.371-1.353,2.136,2.136,0,0,1,.588-.663.811.811,0,0,1,.27-.149,2.623,2.623,0,0,0-.761.866,2.737,2.737,0,0,0-.309,1.3,4.552,4.552,0,0,0,.4,1.742,8.043,8.043,0,0,0,3.016,3.523,10.9,10.9,0,0,0,5.449,1.694,16.737,16.737,0,0,0,2.994-.115,11.247,11.247,0,0,0,2.7-.642,5.246,5.246,0,0,0,3.24-3.147,3.438,3.438,0,0,0-.447-3,3.833,3.833,0,0,0-.833-.809" transform="translate(-132.46 -36.286)" fill="#263238"/>
            <path id="Trazado_828766" data-name="Trazado 828766" d="M299.159,93.257a1.771,1.771,0,0,1,.266-1.3c.349-.673.877-1.02.919-.959s-.35.474-.668,1.09-.435,1.179-.517,1.17" transform="translate(-136.366 -41.482)" fill="#263238"/>
            <path id="Trazado_828767" data-name="Trazado 828767" d="M308.494,95.031a4.631,4.631,0,0,1,.089-2.271,4.629,4.629,0,0,1-.089,2.271" transform="translate(-140.593 -42.289)" fill="#263238"/>
            <path id="Trazado_828768" data-name="Trazado 828768" d="M317.535,93.423a5.929,5.929,0,0,1-.519-2.526,5.951,5.951,0,0,1,.519,2.526" transform="translate(-144.51 -41.44)" fill="#263238"/>
            <path id="Trazado_828769" data-name="Trazado 828769" d="M322.392,88.762c-.072.038-.286-.247-.638-.476s-.693-.323-.686-.4.424-.112.842.168.552.685.482.712" transform="translate(-146.373 -40.04)" fill="#263238"/>
            <path id="Trazado_828770" data-name="Trazado 828770" d="M293.266,85.771c.012.08-.288.185-.578.42s-.465.5-.54.468,0-.405.363-.689.751-.275.754-.2" transform="translate(-133.177 -39.081)" fill="#263238"/>
            <path id="Trazado_828771" data-name="Trazado 828771" d="M309.744,141.513a1.138,1.138,0,0,1-1.009-1.594,110.521,110.521,0,0,1,5.741-10.083c.376-.581.579-1.291,1.8-1.437.47-.057,7.817-.225,9.539-.263a1.066,1.066,0,0,1,.766.281,1.452,1.452,0,0,1,.157,1.921c-.611,1.1-5.05,7.983-6.854,10.639a1.854,1.854,0,0,1-1.595.811Z" transform="translate(-140.706 -58.416)" fill="#263238"/>
            <path id="Trazado_828772" data-name="Trazado 828772" d="M330.435,132.34a.523.523,0,0,0-.587-.161,1.238,1.238,0,0,0-.516.331.458.458,0,0,0-.108.578.543.543,0,0,0,.5.165.923.923,0,0,0,.612-.276.577.577,0,0,0,.1-.638" transform="translate(-150.063 -60.246)" fill="#fff"/>
            <path id="Trazado_828773" data-name="Trazado 828773" d="M328.971,132.663a3.271,3.271,0,0,1,.286-.635l.371-.725.235-.451a1.094,1.094,0,0,0,.185-.484.56.56,0,0,0-.224-.457.769.769,0,0,0-.577-.1l-1.5.061-3.436.122-3.437.1-.382.011a.534.534,0,0,0-.282.113,3.138,3.138,0,0,0-.393.559l-.7,1.1-1.037,1.584a3.263,3.263,0,0,1-.414.56,3.3,3.3,0,0,1,.319-.619l.961-1.632.675-1.12.186-.306a1.11,1.11,0,0,1,.25-.324.793.793,0,0,1,.412-.172l.4-.017,3.437-.122,3.436-.1,1.5-.035a.987.987,0,0,1,.72.163.767.767,0,0,1,.289.637.748.748,0,0,1-.089.32l-.138.244-.255.44-.413.7a3.31,3.31,0,0,1-.382.582" transform="translate(-144.82 -59.07)" fill="#455a64"/>
            <path id="Trazado_828774" data-name="Trazado 828774" d="M342.048,133.475s-.745,5.183-1.509,8.511c-.681,2.965-1.76,12.986-4.516,14.249s-6.185.474-7.455-1.967-2.627-8.948-2.627-8.948l-5.765-2.427s-1.327-4.834-.573-5.378,8.2.272,8.2.272l2-.454s-3.174-.454-3.856-.635a1.157,1.157,0,0,1-.97-1.361c.161-.635.288-1.271,2.012-1.271s4.416-.258,4.9-.091c.607.209,1.294.561,1.429,2.088a18.4,18.4,0,0,1-.587,4.363l.157.24,1.016-7.5Z" transform="translate(-145.599 -60.711)" fill="#ffbe9d"/>
            <path id="Trazado_828775" data-name="Trazado 828775" d="M332.872,149.426a1.725,1.725,0,0,1-.467.187,12.826,12.826,0,0,1-1.322.356,16.356,16.356,0,0,1-4.5.345,15.3,15.3,0,0,1-4.412-.961,11.422,11.422,0,0,1-1.251-.558,1.724,1.724,0,0,1-.43-.26c.021-.045.665.262,1.749.628a17.547,17.547,0,0,0,4.363.868,19.007,19.007,0,0,0,4.445-.259c1.127-.2,1.813-.392,1.827-.346" transform="translate(-146.108 -67.714)" fill="#eb996e"/>
            <path id="Trazado_828776" data-name="Trazado 828776" d="M331.249,144.94a1.611,1.611,0,0,1-.468.15c-.306.076-.752.171-1.309.263a16.942,16.942,0,0,1-4.4.163,11.835,11.835,0,0,1-4.235-1.226,8.277,8.277,0,0,1-1.138-.707c-.252-.191-.379-.312-.369-.326.029-.041.586.381,1.6.854a13.089,13.089,0,0,0,4.175,1.124,20,20,0,0,0,4.347-.078c1.111-.132,1.8-.257,1.8-.214" transform="translate(-145.579 -65.308)" fill="#eb996e"/>
            <path id="Trazado_828777" data-name="Trazado 828777" d="M341.8,136.526c.034-.009.138.253.114.7a1.673,1.673,0,0,1-.215.766.933.933,0,0,1-.369.337,2.528,2.528,0,0,1-.456.2,6.7,6.7,0,0,1-1.661.283,4.661,4.661,0,0,1-.683.053c-.019-.036.229-.176.656-.251a11.979,11.979,0,0,0,1.6-.353,1.4,1.4,0,0,0,.7-.413,1.722,1.722,0,0,0,.234-.646,5.952,5.952,0,0,1,.085-.674" transform="translate(-154.334 -62.241)" fill="#eb996e"/>
            <path id="Trazado_828778" data-name="Trazado 828778" d="M335.514,152.544a1.123,1.123,0,0,1,0,.943,2.044,2.044,0,0,1-.583.873,2.377,2.377,0,0,1-1.166.538,3.058,3.058,0,0,1-1.273-.057,4.735,4.735,0,0,1-.948-.386,4.375,4.375,0,0,1-.8-.461,2.37,2.37,0,0,1,.887.279,3.628,3.628,0,0,0,2.089.347,2.262,2.262,0,0,0,1.045-.458,2.015,2.015,0,0,0,.565-.745,3.5,3.5,0,0,0,.182-.872" transform="translate(-150.785 -69.544)" fill="#eb996e"/>
            <path id="Trazado_828779" data-name="Trazado 828779" d="M343.8,135.566c0-.007.04.014.106.06a1.048,1.048,0,0,1,.228.268,2.929,2.929,0,0,1,.324,1.256,15.463,15.463,0,0,1-.526,4.4l0-.081a14.046,14.046,0,0,0,1.032,2.148,23.781,23.781,0,0,0,1.871,2.731,12.1,12.1,0,0,1,1.613,2.215,2.5,2.5,0,0,1,.158,1.843,1.529,1.529,0,0,1-.241.449c-.075.09-.122.129-.128.123a3.381,3.381,0,0,0,.264-.6,2.483,2.483,0,0,0-.233-1.724,13.087,13.087,0,0,0-1.637-2.138,21.951,21.951,0,0,1-1.913-2.753,13.6,13.6,0,0,1-1.042-2.2l-.014-.039.01-.042a17.162,17.162,0,0,0,.619-4.323,3.156,3.156,0,0,0-.234-1.222,2.888,2.888,0,0,0-.252-.372" transform="translate(-156.671 -61.803)" fill="#eb996e"/>
            <path id="Trazado_828780" data-name="Trazado 828780" d="M250.3,148.032s-.842,11.566,4.536,13.505c7.418,2.675,15.875-4.716,15.907-4.835s9-7.341,9-7.341l-2.794-7.687a5.756,5.756,0,0,0-2.933,1.294c-.656.467-11.05,5.948-11.05,5.948s-4.536-.038-12.665-.884" transform="translate(-114.087 -64.588)" fill="#ffbe9d"/>
            <path id="Trazado_828781" data-name="Trazado 828781" d="M267.206,154.662c.036.088-1.922.881-4.287,1.941-1.181.535-2.222,1.073-2.967,1.482a8.735,8.735,0,0,1-1.22.643,5.458,5.458,0,0,1,1.119-.816,25.452,25.452,0,0,1,2.951-1.566c1.187-.541,2.287-.966,3.087-1.261a6.8,6.8,0,0,1,1.317-.422" transform="translate(-117.954 -70.507)" fill="#eb996e"/>
            <path id="Trazado_828782" data-name="Trazado 828782" d="M308.675,132.315s-1.4-1.989-1.96-1.983-3.9.554-3.9.554l-4.728,5.129s-.325,1.672.7,2.276c0,0-.344,2.629.92,3.382,0,0,.938,2.472,1.821,2.518a5.953,5.953,0,0,0,1.123,0s-.194,1.487,1.154,1.58a22.93,22.93,0,0,0,3.968-.4,1.485,1.485,0,0,0,.967-.606l1.157-1.63a1.49,1.49,0,0,0,0-1.732,3.941,3.941,0,0,0,.694-1.214,5.392,5.392,0,0,0,0-1.553s2-1.691,2.044-2.133-.047-.865-.929-.816c0,0-.186-1.368-1.3-1.333s-6.4,0-6.4,0l1-.979s2.629,1,2.906.336Z" transform="translate(-135.874 -59.418)" fill="#ffbe9d"/>
            <path id="Trazado_828783" data-name="Trazado 828783" d="M303.651,142.576a6.264,6.264,0,0,1,.856-.06c.552-.028,1.353-.077,2.342-.194a30.4,30.4,0,0,0,3.463-.615c.648-.156,1.324-.341,2.02-.56a5.01,5.01,0,0,0,1.828-1.217l.035-.03.038-.006a1.163,1.163,0,0,1,.769.074.614.614,0,0,1,.272.353,1.344,1.344,0,0,1,.052.4.98.98,0,0,1-.007.18.579.579,0,0,1-.081.2,2.618,2.618,0,0,1-.2.272c-.14.168-.288.319-.436.469-.3.3-.6.576-.906.844l0,0,0,0a36.735,36.735,0,0,1-3.258,2.317,8.259,8.259,0,0,1-3.018,1.075,5.965,5.965,0,0,1-2.121-.052,3.709,3.709,0,0,1-.549-.157c-.121-.047-.183-.075-.18-.083a6.886,6.886,0,0,0,2.822.113,8.338,8.338,0,0,0,2.922-1.105c1.03-.616,2.067-1.466,3.216-2.331l-.009.007c.3-.264.6-.542.888-.834.144-.146.289-.295.419-.452a2.509,2.509,0,0,0,.176-.237.425.425,0,0,0,.042-.091.659.659,0,0,0,0-.139c0-.232-.042-.433-.186-.51a.916.916,0,0,0-.576-.04l.073-.036a9.2,9.2,0,0,1-.909.748,3.139,3.139,0,0,1-1.032.523c-.7.217-1.389.4-2.044.547a27.47,27.47,0,0,1-3.5.558c-1,.093-1.805.113-2.36.109-.277,0-.492-.009-.638-.017a.7.7,0,0,1-.221-.026" transform="translate(-138.433 -63.762)" fill="#eb996e"/>
            <path id="Trazado_828784" data-name="Trazado 828784" d="M315.414,145.594a2.538,2.538,0,0,1,.114.828c.007.133.01.279.006.44,0,.08-.007.164-.015.251a.827.827,0,0,1-.082.282,5.567,5.567,0,0,1-.273.52l-.162.269-.087.138a.978.978,0,0,1-.059.085.183.183,0,0,1-.039.033c-.024,0,.008.039-.13-.011a.132.132,0,0,1-.047-.152.129.129,0,0,1,.014-.028l.005-.01.023-.038.22.132a6.17,6.17,0,0,1-1.386,1.7,5.841,5.841,0,0,1-3.373,1.395,5.378,5.378,0,0,1-1.114-.032,1.132,1.132,0,0,1-.4-.1c0-.054.581.045,1.491-.071a6.087,6.087,0,0,0,3.209-1.411,6.344,6.344,0,0,0,1.347-1.612l.22.132a7.417,7.417,0,0,0,.513-2.744" transform="translate(-140.704 -66.375)" fill="#eb996e"/>
            <path id="Trazado_828785" data-name="Trazado 828785" d="M310.326,134.434c-.02.061-.554-.138-.807-.769a1.372,1.372,0,0,1-.045-.812c.053-.2.127-.307.162-.3.088.02-.041.5.148,1.009s.6.8.541.868" transform="translate(-141.069 -60.431)" fill="#eb996e"/>
            <path id="Trazado_828786" data-name="Trazado 828786" d="M302.613,149.071a.819.819,0,0,1-.417.1,2.328,2.328,0,0,1-1.155-.218,2.42,2.42,0,0,1-1.2-1.269,2.76,2.76,0,0,1-.2-1.021.454.454,0,0,0-.176-.367,2.453,2.453,0,0,1-.43-.373,2.407,2.407,0,0,1-.526-1.385,6.913,6.913,0,0,1,.053-1.287l.06.116a1.969,1.969,0,0,1-.915-1.726,1.117,1.117,0,0,1,.212-.717,4.613,4.613,0,0,0-.069.716,1.874,1.874,0,0,0,.895,1.515l.066.039-.005.078a7.345,7.345,0,0,0-.024,1.241,2.184,2.184,0,0,0,.468,1.224,2.255,2.255,0,0,0,.4.341.743.743,0,0,1,.273.56,2.572,2.572,0,0,0,.163.947,2.277,2.277,0,0,0,1.049,1.188,3.153,3.153,0,0,0,1.483.3" transform="translate(-135.722 -64.246)" fill="#eb996e"/>
            <g id="Grupo_1079351" data-name="Grupo 1079351" transform="translate(149.551 69.273)" opacity="0.3">
              <g id="Grupo_1079350" data-name="Grupo 1079350">
                <g id="Grupo_1079349" data-name="Grupo 1079349" clip-path="url(#clip-path-13)">
                  <path id="Trazado_828787" data-name="Trazado 828787" d="M277.747,127.315a65.355,65.355,0,0,1-2.891,14.165,10.355,10.355,0,0,0,3.539-6.318c.36-2.447-.212-5.412-.648-7.847" transform="translate(-274.856 -127.315)"/>
                </g>
              </g>
            </g>
            <g id="Grupo_1079354" data-name="Grupo 1079354" transform="translate(187.983 60.149)" opacity="0.3">
              <g id="Grupo_1079353" data-name="Grupo 1079353">
                <g id="Grupo_1079352" data-name="Grupo 1079352" clip-path="url(#clip-path-14)">
                  <path id="Trazado_828788" data-name="Trazado 828788" d="M347.011,116.5a20.9,20.9,0,0,0-1.521-5.954,34.12,34.12,0,0,1,.285,12.4l.2-.442a11.357,11.357,0,0,0,1.036-6" transform="translate(-345.49 -110.546)"/>
                </g>
              </g>
            </g>
          </g>
        </g>
      </g>
    </g>
    <rect id="Rectángulo_379149" data-name="Rectángulo 379149" width="400" height="212" transform="translate(1020 2122)" fill="none"/>
  </g>
</svg>
