<svg id="Grupo_161071" data-name="Grupo 161071" xmlns="http://www.w3.org/2000/svg" width="60.04" height="52.888" viewBox="0 0 60.04 52.888">
  <g id="Grupo_161066" data-name="Grupo 161066">
    <path id="Trazado_213390" data-name="Trazado 213390" d="M335.476,253.351h-2.5a1.2,1.2,0,0,1,0-2.4h2.5a11.482,11.482,0,0,0,4.331-22.115,1.2,1.2,0,0,1-.74-.985,12.073,12.073,0,0,0-18.279-9.062,1.2,1.2,0,0,1-1.313-.046,11.176,11.176,0,0,0-6.455-2.046,11.288,11.288,0,0,0-11.1,9.587,1.2,1.2,0,0,1-.916.995,11.991,11.991,0,0,0,2.714,23.672h2.208a1.2,1.2,0,0,1,0,2.4h-2.208a14.393,14.393,0,0,1-4.032-28.212,13.708,13.708,0,0,1,13.335-10.846,13.536,13.536,0,0,1,7.193,2.058A14.473,14.473,0,0,1,341.365,226.9a13.883,13.883,0,0,1-5.889,26.455Z" transform="translate(-289.317 -214.293)" fill="#083142"/>
  </g>
  <g id="Grupo_161070" data-name="Grupo 161070" transform="translate(15.504 23.854)">
    <g id="Grupo_161067" data-name="Grupo 161067">
      <path id="Trazado_213391" data-name="Trazado 213391" d="M313.967,258.917A14.517,14.517,0,1,1,328.483,244.4,14.534,14.534,0,0,1,313.967,258.917Zm0-26.631A12.115,12.115,0,1,0,326.081,244.4,12.128,12.128,0,0,0,313.967,232.286Z" transform="translate(-299.45 -229.884)" fill="#083142"/>
    </g>
    <g id="Grupo_161069" data-name="Grupo 161069" transform="translate(7.168 5.524)">
      <g id="Grupo_161068" data-name="Grupo 161068">
        <path id="Trazado_213392" data-name="Trazado 213392" d="M311.484,252.293a1.2,1.2,0,0,1-.557-.138l-4.206-2.2a4.7,4.7,0,0,1-2.583-4.344l.329-9.1a1.2,1.2,0,0,1,.835-1.1l5.817-1.851a1.184,1.184,0,0,1,.728,0l5.817,1.851a1.205,1.205,0,0,1,.837,1.1l.329,9.1a4.709,4.709,0,0,1-2.583,4.344l-4.206,2.2A1.2,1.2,0,0,1,311.484,252.293Zm-4.647-14.858-.3,8.259a2.321,2.321,0,0,0,1.3,2.128l3.648,1.914,3.649-1.914a2.323,2.323,0,0,0,1.3-2.13l-.3-8.257-4.648-1.48Z" transform="translate(-304.135 -233.495)" fill="#083142"/>
      </g>
    </g>
  </g>
</svg>
