<svg xmlns="http://www.w3.org/2000/svg" width="69.052" height="52.884" viewBox="0 0 69.052 52.884">
  <g id="Grupo_1078308" data-name="Grupo 1078308" transform="translate(-483.9 -1790.169)">
    <path id="Trazado_213393" data-name="Trazado 213393" d="M496.367,1814.952a1.078,1.078,0,0,0,1.078-1.078v-20.207a1.345,1.345,0,0,1,1.343-1.343h53.346a1.345,1.345,0,0,1,1.343,1.343v1.5a1.078,1.078,0,0,0,2.156,0v-1.5a3.5,3.5,0,0,0-3.5-3.5H498.787a3.5,3.5,0,0,0-3.5,3.5v20.207A1.078,1.078,0,0,0,496.367,1814.952Z" transform="translate(-7.559)" fill="#083142"/>
    <path id="Trazado_213394" data-name="Trazado 213394" d="M554.554,1840.969a1.078,1.078,0,0,0-1.078,1.078v15.609h-53.25a1.078,1.078,0,1,0,0,2.156h53.25v1.844a1.344,1.344,0,0,1-1.343,1.343H498.787a1.344,1.344,0,0,1-1.343-1.343v-2.31a1.078,1.078,0,1,0-2.156,0v2.31a3.5,3.5,0,0,0,3.5,3.5h19.471v5.2a4.257,4.257,0,0,1-4.252,4.252H508.06a1.078,1.078,0,1,0,0,2.156h5.864c.033,0,.065.01.1.01h22.85c.034,0,.066-.007.1-.01H542.8a1.078,1.078,0,1,0,0-2.156h-5.889a4.257,4.257,0,0,1-4.252-4.252v-5.2h19.47a3.5,3.5,0,0,0,3.5-3.5v-19.608A1.078,1.078,0,0,0,554.554,1840.969Zm-22.411,33.645H518.777a6.375,6.375,0,0,0,1.636-4.262v-5.2h10.093v5.2A6.375,6.375,0,0,0,532.144,1874.614Z" transform="translate(-7.559 -33.716)" fill="#083142"/>
    <path id="Trazado_213395" data-name="Trazado 213395" d="M549.435,1813.216a3.508,3.508,0,0,0-3.284,4.767l-14.714,11.276a3.508,3.508,0,0,0-5.562.274l-14.279-6.884c0-.068.01-.136.01-.205a3.517,3.517,0,1,0-6.987.552l-15.061,9.305a3.512,3.512,0,1,0,1.226,1.776l14.814-9.152a3.511,3.511,0,0,0,5.215-.26l14.435,6.959a3.515,3.515,0,0,0,7.03-.088c0-.067-.006-.133-.01-.2l15.229-11.67a3.516,3.516,0,1,0,1.936-6.451Zm-62.017,23.231a1.362,1.362,0,1,1,1.362-1.362A1.364,1.364,0,0,1,487.417,1836.447Zm20.673-12.641a1.362,1.362,0,1,1,1.362-1.362A1.363,1.363,0,0,1,508.09,1823.806Zm20.672,9.092a1.361,1.361,0,1,1,1.362-1.362A1.363,1.363,0,0,1,528.762,1832.9Zm20.673-14.8a1.362,1.362,0,1,1,1.362-1.362A1.363,1.363,0,0,1,549.435,1818.095Z" transform="translate(0 -15.296)" fill="#083142"/>
  </g>
</svg>
