<svg xmlns="http://www.w3.org/2000/svg" width="50.726" height="52.884" viewBox="0 0 50.726 52.884">
  <g id="Grupo_1078320" data-name="Grupo 1078320" transform="translate(-459.389 -89.021)">
    <path id="Trazado_213409" data-name="Trazado 213409" d="M484.752,99.628c-1.035,0-25.363-.06-25.363-5.3s24.328-5.3,25.363-5.3,25.363.06,25.363,5.3S485.787,99.628,484.752,99.628Zm0-8.724c-14.8,0-23.034,2.215-23.485,3.455.451,1.171,8.684,3.386,23.485,3.386,14.663,0,22.881-2.175,23.471-3.421C507.632,93.078,499.414,90.9,484.752,90.9Z" fill="#083142"/>
    <path id="Trazado_213410" data-name="Trazado 213410" d="M484.752,108.1c-1.035,0-25.363-.06-25.363-5.3V94.076a.941.941,0,0,1,1.882,0c.447,1.206,8.68,3.421,23.48,3.421,14.755,0,22.984-2.2,23.48-3.445a1.126,1.126,0,0,1,.011-.12.926.926,0,0,1,.933-.816.954.954,0,0,1,.939.959V102.8C510.115,108.043,485.787,108.1,484.752,108.1Zm-23.48-11.774v6.47c.447,1.206,8.68,3.42,23.48,3.42s23.034-2.214,23.485-3.454l0-6.436c-5.729,3.009-22.622,3.05-23.482,3.05S467,99.338,461.271,96.329Z" transform="translate(0 0.248)" fill="#083142"/>
    <path id="Trazado_213411" data-name="Trazado 213411" d="M484.752,139.742c-1.035,0-25.363-.059-25.363-5.3v-8.724a.941.941,0,0,1,1.882,0c.447,1.206,8.681,3.42,23.48,3.42,14.754,0,22.983-2.2,23.48-3.444a1.126,1.126,0,0,1,.011-.12.927.927,0,0,1,.933-.816.954.954,0,0,1,.939.959v8.724C510.115,139.682,485.787,139.742,484.752,139.742Zm-23.48-11.773v6.47c.447,1.206,8.681,3.42,23.48,3.42s23.034-2.214,23.485-3.455l0-6.435c-5.729,3.009-22.622,3.05-23.482,3.05S467,130.977,461.271,127.968Z" transform="translate(0 2.164)" fill="#083142"/>
    <path id="Trazado_213412" data-name="Trazado 213412" d="M468.639,102.564a.929.929,0,0,1-.143-.011c-1.6-.245-3.029-.526-4.241-.835a.942.942,0,0,1,.465-1.825c1.153.294,2.52.563,4.061.8a.941.941,0,0,1-.141,1.872Z" transform="translate(0.252 0.656)" fill="#083142"/>
    <path id="Trazado_213413" data-name="Trazado 213413" d="M477.693,103.383q-2.432-.115-4.624-.309a.942.942,0,0,1-.855-1.021.927.927,0,0,1,1.021-.854c1.435.126,2.949.228,4.5.3a.941.941,0,0,1-.043,1.881Z" transform="translate(0.776 0.737)" fill="#083142"/>
    <path id="Trazado_213414" data-name="Trazado 213414" d="M492.462,107.558a.942.942,0,0,1-.942-.942V97.893a.941.941,0,0,1,.87-.939c2.209-.171,4.263-.4,6.107-.68a.944.944,0,0,1,1.084.931v8.724a.942.942,0,0,1-.8.93c-1.89.287-3.992.522-6.247.695C492.509,107.557,492.485,107.558,492.462,107.558Zm.941-8.8v6.834c1.519-.133,2.957-.293,4.294-.479V98.292C496.353,98.475,494.916,98.631,493.4,98.761Z" transform="translate(1.945 0.439)" fill="#083142"/>
    <path id="Trazado_213415" data-name="Trazado 213415" d="M484.584,112.665c-.915,0-22.428-.055-22.428-4.78v-3.628a.941.941,0,0,1,1.236-.894c4.191,1.382,12.312,2.24,21.193,2.24s17-.858,21.193-2.24a.941.941,0,0,1,1.236.894v3.628C507.013,112.61,485.5,112.665,484.584,112.665Zm-20.546-4.83c.623,1.071,7.925,2.946,20.546,2.946s19.923-1.875,20.546-2.946v-2.318c-4.6,1.224-12.273,1.969-20.546,1.969s-15.947-.746-20.546-1.969Z" transform="translate(0.168 0.865)" fill="#083142"/>
    <path id="Trazado_213416" data-name="Trazado 213416" d="M484.752,123.929c-1.035,0-25.363-.06-25.363-5.3V109.9a.941.941,0,1,1,1.882,0c.447,1.206,8.68,3.42,23.48,3.42,14.755,0,22.984-2.2,23.48-3.444a1.171,1.171,0,0,1,.011-.121.926.926,0,0,1,.933-.814.954.954,0,0,1,.939.959v8.724C510.115,123.869,485.787,123.929,484.752,123.929Zm-23.48-11.773v6.47c.447,1.2,8.68,3.42,23.48,3.42s23.034-2.215,23.485-3.455l0-6.436c-5.729,3.01-22.622,3.051-23.482,3.051S467,115.165,461.271,112.156Z" transform="translate(0 1.206)" fill="#083142"/>
    <path id="Trazado_213417" data-name="Trazado 213417" d="M468.639,118.39a.929.929,0,0,1-.143-.011c-1.6-.244-3.029-.525-4.241-.835a.941.941,0,0,1,.465-1.824c1.153.294,2.52.563,4.061.8a.941.941,0,0,1-.141,1.872Z" transform="translate(0.252 1.615)" fill="#083142"/>
    <path id="Trazado_213418" data-name="Trazado 213418" d="M477.693,119.209q-2.432-.113-4.624-.308a.942.942,0,0,1-.855-1.021.928.928,0,0,1,1.021-.855c1.435.127,2.949.229,4.5.3a.941.941,0,0,1-.043,1.881Z" transform="translate(0.776 1.695)" fill="#083142"/>
    <path id="Trazado_213419" data-name="Trazado 213419" d="M492.462,123.385a.942.942,0,0,1-.942-.942v-8.724a.94.94,0,0,1,.87-.938c2.209-.171,4.263-.4,6.106-.68a.941.941,0,0,1,1.084.931v8.723a.942.942,0,0,1-.8.931c-1.889.287-3.99.521-6.246.695C492.509,123.384,492.485,123.385,492.462,123.385Zm.941-8.8v6.834c1.519-.133,2.957-.293,4.294-.479v-6.824C496.353,114.3,494.916,114.458,493.4,114.587Z" transform="translate(1.945 1.397)" fill="#083142"/>
    <path id="Trazado_213420" data-name="Trazado 213420" d="M492.462,139.2a.942.942,0,0,1-.942-.942v-8.723a.941.941,0,0,1,.87-.939c2.21-.171,4.266-.4,6.107-.68a.953.953,0,0,1,.755.216.941.941,0,0,1,.329.714v8.724a.942.942,0,0,1-.8.931c-1.888.287-3.99.521-6.247.695C492.509,139.2,492.485,139.2,492.462,139.2Zm.941-8.8v6.834c1.52-.133,2.958-.293,4.294-.479v-6.824C496.354,130.113,494.916,130.27,493.4,130.4Z" transform="translate(1.945 2.354)" fill="#083142"/>
    <path id="Trazado_213421" data-name="Trazado 213421" d="M484.584,128.491c-.915,0-22.428-.054-22.428-4.779v-3.628a.941.941,0,0,1,1.236-.894c4.191,1.382,12.312,2.24,21.193,2.24s17-.858,21.193-2.24a.941.941,0,0,1,1.236.894v3.628C507.013,128.437,485.5,128.491,484.584,128.491Zm-20.546-4.83c.623,1.071,7.925,2.947,20.546,2.947s19.923-1.876,20.546-2.947v-2.317c-4.6,1.224-12.273,1.968-20.546,1.968s-15.947-.745-20.546-1.968Z" transform="translate(0.168 1.824)" fill="#083142"/>
    <path id="Trazado_213422" data-name="Trazado 213422" d="M484.752,115.325c-1.035,0-25.363-.06-25.363-5.3,0-1.614,2.078-2.478,3.641-2.988a.937.937,0,0,1,1.171.558c.521,1.063,7.835,2.967,20.551,2.967s20.031-1.9,20.552-2.972a.936.936,0,0,1,1.17-.554c1.562.509,3.641,1.373,3.641,2.988C510.115,115.265,485.787,115.325,484.752,115.325ZM463,109.039c-1.53.578-1.731,1.013-1.732,1.017.451,1.171,8.684,3.385,23.485,3.385,14.781,0,23.012-2.209,23.484-3.45a4.393,4.393,0,0,0-1.731-.952c-2.89,2.663-14.7,3.4-21.753,3.4S465.889,111.7,463,109.039Z" transform="translate(0 1.088)" fill="#083142"/>
    <path id="Trazado_213423" data-name="Trazado 213423" d="M484.752,131.137c-1.035,0-25.363-.06-25.363-5.3,0-1.613,2.074-2.476,3.634-2.985a.94.94,0,0,1,1.177.574c.52,1.061,7.835,2.965,20.551,2.965s20.032-1.9,20.553-2.972a.934.934,0,0,1,1.174-.567c1.561.509,3.636,1.372,3.636,2.985C510.115,131.077,485.787,131.137,484.752,131.137Zm-21.763-6.282c-1.522.576-1.72,1.009-1.721,1.014.451,1.17,8.685,3.384,23.485,3.384,14.78,0,23.012-2.209,23.484-3.45a4.367,4.367,0,0,0-1.72-.948c-2.874,2.672-14.694,3.414-21.763,3.414S465.863,127.527,462.988,124.855Z" transform="translate(0 2.045)" fill="#083142"/>
    <path id="Trazado_213424" data-name="Trazado 213424" d="M464.351,137.371a.942.942,0,0,1-.942-.942V133.5a.942.942,0,0,1,1.884,0v2.93A.942.942,0,0,1,464.351,137.371Z" transform="translate(0.243 2.636)" fill="#083142"/>
    <path id="Trazado_213425" data-name="Trazado 213425" d="M468.656,138.348a.941.941,0,0,1-.942-.941v-5.28a.942.942,0,1,1,1.884,0v5.28A.941.941,0,0,1,468.656,138.348Z" transform="translate(0.504 2.553)" fill="#083142"/>
  </g>
</svg>
