<svg xmlns="http://www.w3.org/2000/svg" width="88.005" height="88" viewBox="0 0 88.005 88">
  <g id="Grupo_1078254" data-name="Grupo 1078254" transform="translate(-677.778 150.196)">
    <path id="Trazado_208248" data-name="Trazado 208248" d="M859.417-85.388v4.468c-.249.107-.265.353-.338.565a12.307,12.307,0,0,1-9.632,8.464,8.055,8.055,0,0,1-2.669.187,47.332,47.332,0,0,1-5.173,0,4.6,4.6,0,0,1-1.271-.007c-1.57.12-3.142.055-4.712.043-.751-.006-1.209.146-1.181,1.018.009.294.008.724-.5.719a2.034,2.034,0,0,1-.288-1.478q-.012-7.471-.006-14.942a7.741,7.741,0,0,0-.034-1.115.8.8,0,0,0-.768-.784.887.887,0,0,0-.936.6,3.13,3.13,0,0,0-.161,1.267c-.006,4.322,0,8.644-.007,12.967a2.222,2.222,0,0,1-.285,1.486,3.488,3.488,0,0,1-2.816.027,2.019,2.019,0,0,1-.315-1.47c-.011-3.117,0-6.234-.008-9.351a2.156,2.156,0,0,0-.246-1.242.864.864,0,0,0-.861-.451.844.844,0,0,0-.746.727,6.267,6.267,0,0,0-.046,1.2q0,10.165,0,20.331a3.931,3.931,0,0,1-.079,1.193c-.071.224-.065.666-.531.375a3.228,3.228,0,0,1-.229-1.509c0-2.8,0-5.61,0-8.415a1.151,1.151,0,0,0-1.779-1.066c-.323.167-.249.475-.315.743-.086.351.064.854-.53.914a2,2,0,0,1-.3-1.473q-.012-7.46-.005-14.919a9.494,9.494,0,0,0-.029-1.114.812.812,0,0,0-.731-.82.893.893,0,0,0-.993.638,3.082,3.082,0,0,0-.146,1.182c-.007,4.316,0,8.631-.008,12.947a2.282,2.282,0,0,1-.3,1.565,1.383,1.383,0,0,1-.885.258q-2.431.031-4.862,0a1.416,1.416,0,0,1-.811-.224,1.878,1.878,0,0,1-.339-1.458c-.012-2.773,0-5.547-.008-8.32-.008-2.044-.828-2.875-2.849-2.881-3.231-.01-6.462,0-9.692-.005a3.627,3.627,0,0,1-1.355-.134c-.585-.393-.19-.831,0-1.2a12.67,12.67,0,0,1,5.485-5.506,14.917,14.917,0,0,1,3.8-1.308c2.363-.514,3.383-1.917,2.973-4.28a14.158,14.158,0,0,1,.379-7.618,12.657,12.657,0,0,1,10.167-8.573,10.808,10.808,0,0,0,1.334-.314,3.8,3.8,0,0,1,1.832.073c.34.2.25.531.263.836a1.557,1.557,0,0,0,1.44,1.59c.812,0,1.339-.626,1.365-1.62.007-.252-.055-.515.146-.727a11,11,0,0,1,4.418-.106,12.3,12.3,0,0,1,10.992,12.676c0,.372-.008.744.008,1.116a3.138,3.138,0,0,0,3.312,3.289,12.4,12.4,0,0,1,7.117,2.419,15.451,15.451,0,0,1,3.021,3.139,9.136,9.136,0,0,1,1.639,4.824C859.334-85.767,859.269-85.56,859.417-85.388Z" transform="translate(-93.633 -28.195)" fill="#fff"/>
    <path id="Trazado_208249" data-name="Trazado 208249" d="M897.262,36.718a18.009,18.009,0,0,0,3.8-1.534,12.145,12.145,0,0,0,5.469-7.037c.068-.219.079-.711.488-.213V32.4c-.161,1.5-.046,3.02-.228,4.518a42.3,42.3,0,0,1-3.75,12.808,42.778,42.778,0,0,1-7.791,11.456A43.672,43.672,0,0,1,871.33,74.3a32.124,32.124,0,0,1-6.147.465,6.329,6.329,0,0,0-1.646.087h-2.062a1.089,1.089,0,0,1-.318-.769c-.035-1.759-.045-3.519.006-5.278a1.259,1.259,0,0,1,.158-.569c.374-.486.923-.4,1.422-.392a32.1,32.1,0,0,0,9.908-1.36,33.546,33.546,0,0,0,11.166-5.715c.107-.083.239-.151.271-.316a2.233,2.233,0,0,0-.929-.065q-10.13-.007-20.26-.009c-.53,0-1.1.114-1.543-.336a1.676,1.676,0,0,1,.092-1.769,1.939,1.939,0,0,1,1.234-.262c8.063,0,16.126-.017,24.187.005a3.882,3.882,0,0,0,2.015-.218,1.249,1.249,0,0,0,.954-1.188,6.748,6.748,0,0,0,.011-1.876c-.028-4.027-.011-8.052-.011-12.077a1.988,1.988,0,0,1,.206-1.079,1.779,1.779,0,0,1,1.83-.011.957.957,0,0,1,.3.772c.04,3.08.018,6.16.018,9.073a34.153,34.153,0,0,0,3.048-6.507A36.867,36.867,0,0,0,896.9,37.73C896.943,37.367,896.911,36.973,897.262,36.718Z" transform="translate(-141.235 -137.05)" fill="#d2e1f1"/>
    <path id="Trazado_208250" data-name="Trazado 208250" d="M720.259,54.439q-.01,3.35-.02,6.7h-1.891a20.481,20.481,0,0,0-3.229-.48,52.536,52.536,0,0,1-5.206-1.112c.273-.567.814-.449,1.272-.455,1.974-.025,3.949,0,5.923-.014,1.008-.007,1.065-.065,1.07-1.082.009-1.831.012-3.662,0-5.493-.006-.89-.1-.981-.991-.988-3.919-.028-7.839.028-11.759-.026-1.934.033-3.867.023-5.8.024-1.281,0-2.563-.015-3.844.006a4.027,4.027,0,0,1-1.823-.348,9.91,9.91,0,0,1-1.968-1.693c.307-.4.755-.349,1.177-.364,1-.037,1.992.027,2.988.023,5.719-.059,11.439-.011,17.159-.026,1.287,0,2.574.01,3.861-.005.89-.01.99-.107,1-.986.013-1.744.008-3.489,0-5.234,0-1.1-.061-1.166-1.164-1.167q-9.824-.008-19.649,0a8.27,8.27,0,0,1-1.029-.022c-3.245.04-6.489.018-9.733.024a2.249,2.249,0,0,1-1.471-.324A6.685,6.685,0,0,1,684,39.661c.321-.379.77-.334,1.192-.34,1.37-.02,2.74,0,4.11.014,6.784-.047,13.568-.01,20.352-.021,2.49,0,4.981.007,7.472,0,.952,0,1.038-.091,1.044-1.029.011-1.718.007-3.435,0-5.153,0-1.156-.048-1.2-1.216-1.2q-12.839-.006-25.678,0c-.543,0-1.088.025-1.631-.015-1.707.016-3.414.019-5.121.016q-1.539,0-3.079,0a1.847,1.847,0,0,1-1.209-.339,5.109,5.109,0,0,1-.543-1.72c.351-.4.831-.333,1.28-.338,1.914-.023,3.828.006,5.741.014,8.012-.042,16.025-.009,24.038-.02,2.089,0,4.179,0,6.268,0,1.09,0,1.147-.065,1.151-1.185q.009-2.447,0-4.894c0-1.285-.023-1.309-1.284-1.31q-8.242-.005-16.484,0c-4.55-.006-9.1.028-13.65-.016-2.059.022-4.119.014-6.178.015-.573,0-.735.3-.735.81,0,1.661.011,3.323-.007,4.984,0,.449.061.931-.349,1.275A41.017,41.017,0,0,1,677.8,17.856c-.041-1.481.012-2.965-.016-4.447a4.238,4.238,0,0,1,.392-1.985,2.112,2.112,0,0,1,2.184-1.445,42.372,42.372,0,0,1,4.345.015c.685-.154,1.377.051,2.064-.044,1.588-.012,3.176-.079,4.763.037a22.82,22.82,0,0,1,3.479,0c3.342-.123,6.685-.044,10.027-.041a.975.975,0,0,1,.778.3l11.426.028c2,0,3,1,3,3.008q.012,4.94.028,9.879a1.665,1.665,0,0,1,.314,1.213q.005,9.517,0,19.033a1.608,1.608,0,0,1-.305,1.213q-.008.87-.016,1.739a1.648,1.648,0,0,1,.321,1.212q.007,2.831,0,5.663A1.644,1.644,0,0,1,720.259,54.439Z" transform="translate(0 -123.334)" fill="#203e76"/>
    <path id="Trazado_208251" data-name="Trazado 208251" d="M736.9-137.829a40.935,40.935,0,0,1,12.088-8.326,43.959,43.959,0,0,1,59.992,25.783c.165.484.316.973.473,1.46-.31-.014-.368-.306-.51-.489a11.923,11.923,0,0,0-9.513-4.835,3.417,3.417,0,0,1-3.559-3.654,13.489,13.489,0,0,0-1.421-7.136,11.842,11.842,0,0,0-10.532-6.394c-1.057-.034-2.116,0-3.174.01a.225.225,0,0,1-.241,0,1.74,1.74,0,0,0-2.525-.019.316.316,0,0,1-.325.025l-2.078.01a50.853,50.853,0,0,1-7.51.277,11.48,11.48,0,0,0-7.443,2.6,3.48,3.48,0,0,1-1.506.944,10.759,10.759,0,0,1-1.195.11q-9.83-.008-19.66-.009C737.779-137.478,737.268-137.4,736.9-137.829Z" transform="translate(-45.538)" fill="#d2e1f1"/>
    <path id="Trazado_208252" data-name="Trazado 208252" d="M862.683,88.9c-.012-3.033-.033-6.066-.033-9.1,0-4.12.016-8.241.026-12.361H869.2c.313.29.237.678.256,1.038a3.2,3.2,0,0,0,.163,1.089.944.944,0,0,0,1.721.314c.15-.161.229-.4.491-.439.021-.168.033-.339.065-.505.093-.483-.288-1.255.226-1.4a6.523,6.523,0,0,1,2.38-.031c.353.034.221.475.222.738.009,3.176,0,6.352.008,9.528,0,.343.025.685.038,1.028-.453.274-.656-.146-.891-.361-.716-.659-1.383-1.369-2.077-2.051a2.558,2.558,0,0,0-.817-.616.861.861,0,0,0-.957.175.885.885,0,0,0-.265,1.013,2.1,2.1,0,0,0,.547.76c1.574,1.584,3.147,3.168,4.738,4.735.826.814,1.191.815,2.016,0,1.612-1.586,3.2-3.193,4.8-4.794a3.741,3.741,0,0,0,.289-.317.914.914,0,0,0,.028-1.316.931.931,0,0,0-1.384-.07c-.713.577-1.312,1.276-1.972,1.911a6.767,6.767,0,0,1-.814.761c-.479.328-.705.227-.817-.355a4.073,4.073,0,0,1-.035-.771c0-2.948-.005-5.9,0-8.845,0-.416-.1-.87.259-1.216H880.2c.313.29.238.678.256,1.038a3.2,3.2,0,0,0,.163,1.089.944.944,0,0,0,1.721.314c.15-.161.229-.4.491-.439a3.545,3.545,0,0,0,.06-.419c.042-1.58.04-1.583,1.664-1.579,1.542,0,3.084.017,4.625.026.194.26.1.548.076.827a3.2,3.2,0,0,0,1.484,3.152c.257.167.568.294.619.66q-.007,6.692-.015,13.384a7.985,7.985,0,0,1-3.085,3.4Z" transform="translate(-142.409 -167.619)" fill="#40c0f9"/>
    <path id="Trazado_208253" data-name="Trazado 208253" d="M770.692-108.367a12.616,12.616,0,0,1,7.043-3.551,10.436,10.436,0,0,1,1.448-.079c2.6,0,5.194.016,7.792.025a25.785,25.785,0,0,0-4.412,1.282,12.754,12.754,0,0,0-7.1,8.727,14.538,14.538,0,0,0,.063,6.357,3.6,3.6,0,0,1-3.02,4.394,12.868,12.868,0,0,0-7.243,3.777,13.067,13.067,0,0,0-2.507,3.762H751.921a1,1,0,0,1-.179-.966A12.338,12.338,0,0,1,763.416-95.1c2.432-.07,3.7-1.328,3.668-3.786a14.2,14.2,0,0,1,.89-5.723,10.336,10.336,0,0,1,1.081-2.043C769.545-107.278,769.885-108.046,770.692-108.367Z" transform="translate(-56.943 -29.425)" fill="#c7d1db"/>
    <path id="Trazado_208254" data-name="Trazado 208254" d="M899.856,24.386V35.635c.294.111.389-.168.53-.306.88-.86,1.728-1.753,2.62-2.6a1.236,1.236,0,0,1,1.839-.031,1.256,1.256,0,0,1-.033,1.841q-2.645,2.7-5.341,5.344a1.235,1.235,0,0,1-1.961-.033q-2.659-2.623-5.281-5.283a1.281,1.281,0,1,1,1.807-1.808c.85.809,1.661,1.658,2.5,2.479.2.193.34.474.666.5.022-3.74.051-7.479.059-11.219.008-3.808-.009-7.616-.007-11.423,0-.992.512-1.608,1.279-1.585s1.286.642,1.291,1.623C899.841,16.886,899.846,20.636,899.856,24.386Z" transform="translate(-164.846 -124.565)" fill="#fec04f"/>
    <path id="Trazado_208255" data-name="Trazado 208255" d="M893.781,13.616a1.254,1.254,0,0,1-1.388,1.2c-.719-.027-1.15-.607-1.189-1.5-.024-.566-.036-1.132-.054-1.7q.014-7.345.027-14.69a3.03,3.03,0,0,1,.13-1.187,1.2,1.2,0,0,1,1.37-.789,1.115,1.115,0,0,1,1.055,1.061,8.023,8.023,0,0,1,.022.944q-.006,7.861-.013,15.722C893.743,12.988,893.768,13.3,893.781,13.616Z" transform="translate(-164.363 -111.795)" fill="#fec04f"/>
    <path id="Trazado_208256" data-name="Trazado 208256" d="M941.67,13.616a1.254,1.254,0,0,1-1.388,1.2c-.719-.027-1.15-.607-1.188-1.5-.024-.566-.036-1.132-.054-1.7q.014-7.345.027-14.69a3.032,3.032,0,0,1,.13-1.187,1.2,1.2,0,0,1,1.37-.789,1.115,1.115,0,0,1,1.055,1.061,8.037,8.037,0,0,1,.023.944q-.006,7.861-.013,15.722C941.632,12.988,941.657,13.3,941.67,13.616Z" transform="translate(-201.253 -111.795)" fill="#fec04f"/>
    <path id="Trazado_208257" data-name="Trazado 208257" d="M1000.413,66.9c-.253,5.592-2.973,12.494-5.378,15.566V71.816c.054-.389.416-.427.674-.568a2.906,2.906,0,0,0,1.387-1.318,3.615,3.615,0,0,0,.371-2.123.908.908,0,0,1,.095-.729Z" transform="translate(-244.386 -167.23)" fill="#40c0f9"/>
    <path id="Trazado_208258" data-name="Trazado 208258" d="M915.595-40.514c0-1.146-.012-2.292,0-3.437a1.3,1.3,0,0,1,1.2-1.4,1.274,1.274,0,0,1,1.344,1.283q.06,3.564-.006,7.13a1.318,1.318,0,0,1-1.311,1.33,1.312,1.312,0,0,1-1.228-1.466C915.584-38.223,915.594-39.369,915.595-40.514Z" transform="translate(-183.189 -80.759)" fill="#fec04f"/>
    <path id="Trazado_208259" data-name="Trazado 208259" d="M939.6-55.558c0-.714-.018-1.429.005-2.142a1.145,1.145,0,0,1,1.159-1.229,1.134,1.134,0,0,1,1.336,1.043,24.889,24.889,0,0,1,0,4.784,1.123,1.123,0,0,1-1.345,1.03,1.192,1.192,0,0,1-1.15-1.26C939.593-54.073,939.6-54.816,939.6-55.558Z" transform="translate(-201.681 -70.301)" fill="#fec04f"/>
    <path id="Trazado_208260" data-name="Trazado 208260" d="M891.717-55.542c0-.714-.015-1.428,0-2.142a1.148,1.148,0,0,1,1.144-1.245,1.131,1.131,0,0,1,1.348,1.026,24.909,24.909,0,0,1,.006,4.785,1.128,1.128,0,0,1-1.333,1.048,1.188,1.188,0,0,1-1.165-1.245C891.7-54.057,891.718-54.8,891.717-55.542Z" transform="translate(-164.795 -70.299)" fill="#fec04f"/>
    <path id="Trazado_208261" data-name="Trazado 208261" d="M987.723,67.679a3.347,3.347,0,0,1-.291,3.067,2.6,2.6,0,0,1-3.1.213,3.389,3.389,0,0,1-2.063-2.732.617.617,0,0,1,.18-.547Z" transform="translate(-234.548 -167.831)" fill="#feb42d"/>
    <path id="Trazado_208262" data-name="Trazado 208262" d="M917.141-83.481a2.386,2.386,0,0,1-.283,3.105,2.4,2.4,0,0,1-3.231.378,2.406,2.406,0,0,1,.353-3.093A2.462,2.462,0,0,1,917.141-83.481Z" transform="translate(-181.366 -51.082)" fill="#fec04f"/>
    <path id="Trazado_208263" data-name="Trazado 208263" d="M978.62,67.684A3.492,3.492,0,0,0,983.6,70.75a3.532,3.532,0,0,1-2.235,1.671,5.568,5.568,0,0,1-1.7-.1c-2.128-1.048-2.733-2.338-2.178-4.639Z" transform="translate(-230.717 -167.835)" fill="#f09501"/>
    <path id="Trazado_208264" data-name="Trazado 208264" d="M913.89-114.927c1.11-1.191,2.005-1.192,3.092,0a1.774,1.774,0,0,1-.547,2.221,1.57,1.57,0,0,1-1.917.05C913.79-113.133,913.6-113.835,913.89-114.927Z" transform="translate(-181.779 -26.48)" fill="#feb42e"/>
    <path id="Trazado_208265" data-name="Trazado 208265" d="M914.474-86.2a3.965,3.965,0,0,0-1.678-.11c-1.607.381-2.267,1.668-1.835,3.593a2.367,2.367,0,0,1-1.135-2.649,2.4,2.4,0,0,1,1.927-1.972A2.382,2.382,0,0,1,914.474-86.2Z" transform="translate(-178.699 -48.36)" fill="#feb52e"/>
    <path id="Trazado_208266" data-name="Trazado 208266" d="M686.021-56.479c-1.308.009-2.617.056-3.924.015A3.039,3.039,0,0,0,679.49-55.3a43.493,43.493,0,0,1,8.62-20.887c.137-.181.3-.345.446-.516a1.2,1.2,0,0,1,.337,1.019q.021,7.145,0,14.289a2.544,2.544,0,0,1-.119.756c-.193.519-.734.606-1.112.9a2.962,2.962,0,0,0-1.371,2.218C686.233-57.167,686.3-56.777,686.021-56.479Z" transform="translate(-1.319 -56.615)" fill="#d2e1f1"/>
    <path id="Trazado_208267" data-name="Trazado 208267" d="M789.7,189.495c4.061,0,8.122.008,12.183-.017.645,0,.908.137.893.85-.046,2.2-.039,4.4,0,6.606.011.653-.208.827-.838.818-2.287-.032-4.576-.015-6.863-.009a1.524,1.524,0,0,0-.919.124A27.719,27.719,0,0,1,789.5,196.2c.353-.4.834-.32,1.28-.323,2.455-.016,4.91.009,7.364-.019.452-.005,1.157.132,1.149-.533s-.717-.506-1.165-.511c-2.711-.026-5.423.009-8.135-.024a2.688,2.688,0,0,0-2.179.712l-.189-.1a3.353,3.353,0,0,1-.406-2.613.826.826,0,0,1,.557-.781,5.522,5.522,0,0,0,2.919.425c2.316,0,4.633.029,6.948-.019.581-.012,1.615.362,1.618-.539,0-.8-1.008-.491-1.577-.5q-4.374-.043-8.749-.006a2.525,2.525,0,0,1-.6-.035c-.453-.187-.3-.491-.12-.761A2.447,2.447,0,0,1,789.7,189.495Z" transform="translate(-84.236 -261.654)" fill="#0956c5"/>
    <path id="Trazado_208269" data-name="Trazado 208269" d="M720.841,154.985l-4.191.036-1.515-1.47c-.032-.047-.082-.1-.077-.15.08-.931-.465-1.242-1.275-1.293a32.272,32.272,0,0,1-3.994-5.172l11.226-.009c.1.449-.226.7-.49.93a4.485,4.485,0,0,0-.108,6.256C720.654,154.338,720.95,154.574,720.841,154.985Z" transform="translate(-24.658 -228.878)" fill="#0a4498"/>
    <path id="Trazado_208270" data-name="Trazado 208270" d="M692.468,69.609l-7.029.006-.209-.669c.005-2.2.031-4.392,0-6.587-.008-.63.182-.846.825-.835,2.138.038,4.277.023,6.416.028.1.445-.236.684-.491.927a4.537,4.537,0,0,0-.033,6.309C692.173,69.019,692.531,69.189,692.468,69.609Z" transform="translate(-5.741 -163.09)" fill="#0a4498"/>
    <path id="Trazado_208271" data-name="Trazado 208271" d="M688.5,104.241l9.407,0c.077.315-.159.483-.346.638a4.556,4.556,0,0,0-.308,6.669c.187.208.412.415.317.75l-5.309.022-.777-1.386a.6.6,0,0,1-.039-.246c.237-1.133.239-1.132-.88-1.455A37.515,37.515,0,0,1,688.5,104.241Z" transform="translate(-8.262 -195.995)" fill="#0a4498"/>
    <path id="Trazado_208272" data-name="Trazado 208272" d="M759.729,189.539c-.561.524-1.255.927-1.556,1.691a.789.789,0,0,1-.364.871,3.962,3.962,0,0,0-.259,2.5c.023.282.069.561.1.842a40.053,40.053,0,0,1-9.426-5.908Z" transform="translate(-54.268 -261.698)" fill="#0a4498"/>
    <path id="Trazado_208273" data-name="Trazado 208273" d="M790.09,212.252c.011-.714.406-1.024,1.087-1.024q4.923,0,9.847,0c.6,0,1.056.249,1.056.86s-.463.86-1.057.86q-4.624,0-9.247,0A3.653,3.653,0,0,1,790.09,212.252Z" transform="translate(-86.515 -278.407)" fill="#5595fa"/>
    <path id="Trazado_208274" data-name="Trazado 208274" d="M697.5,125.438c.478-.21.918-.284,1.3.2.541.685-.232,1.006-.384,1.5A7.1,7.1,0,0,1,697.5,125.438Z" transform="translate(-15.191 -212.198)" fill="#2676ea"/>
    <path id="Trazado_208275" data-name="Trazado 208275" d="M727.178,168.875c.419-.14.811-.349,1.245.046.507.461.182.925.108,1.4A5.587,5.587,0,0,1,727.178,168.875Z" transform="translate(-38.053 -245.643)" fill="#2776e9"/>
    <path id="Trazado_208276" data-name="Trazado 208276" d="M862.725,176.643q0-4.043,0-8.086H886.08l.071.253A34.128,34.128,0,0,1,862.725,176.643Z" transform="translate(-142.466 -245.538)" fill="#40c0f9"/>
    <path id="Trazado_208277" data-name="Trazado 208277" d="M974.124,149.549l3.085-3.4c0,.425.01.851.009,1.276,0,1.318-.385,1.755-1.664,2.022A4.549,4.549,0,0,1,974.124,149.549Z" transform="translate(-228.278 -228.279)" fill="#08a8ef"/>
    <path id="Trazado_208278" data-name="Trazado 208278" d="M709.814,69.616a4.816,4.816,0,0,1-.446-7.549,5.325,5.325,0,0,0,.453-.508q15.509-.008,31.018-.026c.606,0,.787.2.779.788-.029,2.148-.037,4.3,0,6.444.013.684-.2.871-.876.87Q725.281,69.6,709.814,69.616Z" transform="translate(-23.087 -163.097)" fill="#0956c5"/>
    <path id="Trazado_208279" data-name="Trazado 208279" d="M708.825,18.95q15.365-.006,30.73-.009c.926,0,1.223.305,1.227,1.24.007,1.917-.041,3.836.022,5.751.028.853-.187,1.11-1.081,1.106-9.356-.036-18.713-.022-28.069-.022-.83,0-1.659,0-2.489-.007-1.818-.679-2.4-2.223-2.476-3.924A4.012,4.012,0,0,1,708.825,18.95Z" transform="translate(-22.265 -130.288)" fill="#0956c5"/>
    <path id="Trazado_208280" data-name="Trazado 208280" d="M721.62,112.247a5.551,5.551,0,0,1-1.891-3.615,4.9,4.9,0,0,1,2.226-4.441q14.005,0,28.01-.018c.674,0,.889.185.876.869-.041,2.147-.032,4.3,0,6.444.008.593-.172.79-.778.789Q735.84,112.242,721.62,112.247Z" transform="translate(-32.307 -195.942)" fill="#0956c5"/>
    <path id="Trazado_208281" data-name="Trazado 208281" d="M751.973-88.771l1.065.013a13.783,13.783,0,0,0-1.945,8.014,3.5,3.5,0,0,1-3.77,3.821,12,12,0,0,0-11.5,9.876c-.068.421-.114.845-.17,1.267h-3.487c-.055-.066-.134-.136-.136-.213a5.328,5.328,0,0,0-1.445-3.288,1.39,1.39,0,0,1,.207-.732,34.762,34.762,0,0,1,19.283-18.3C750.692-88.561,751.349-88.578,751.973-88.771Z" transform="translate(-40.673 -47.316)" fill="#40c0f9"/>
    <path id="Trazado_208282" data-name="Trazado 208282" d="M751.415,154.912a14.424,14.424,0,0,1-1.22-1.422,4.734,4.734,0,0,1,.758-5.944,6.976,6.976,0,0,0,.636-.69q10.7-.005,21.393-.022c.6,0,.79.189.782.786q-.043,3.264,0,6.529c.008.6-.181.786-.783.784Q762.2,154.9,751.415,154.912Z" transform="translate(-55.232 -228.804)" fill="#0956c5"/>
    <path id="Trazado_208283" data-name="Trazado 208283" d="M692.3,18.946a5.362,5.362,0,0,0-1.9,3.7,5.038,5.038,0,0,0,2.235,4.36c-2.169,0-4.339-.014-6.508.018-.637.009-.919-.129-.9-.848.047-2,.011-4,.019-5.994,0-.919.32-1.241,1.229-1.244C688.418,18.932,690.359,18.943,692.3,18.946Z" transform="translate(-5.739 -130.284)" fill="#0a4498"/>
    <path id="Trazado_208284" data-name="Trazado 208284" d="M716.733-5.979a3.628,3.628,0,0,1,1.492,3.568h-4.771a2.507,2.507,0,0,1-.517-3.479c.267-.332.694-.35,1.038-.532a4.566,4.566,0,0,1,1.715-.007A.723.723,0,0,1,716.733-5.979Z" transform="translate(-26.734 -110.686)" fill="#feb42d"/>
    <path id="Trazado_208285" data-name="Trazado 208285" d="M709.315-3.821c.017.754-.326,1.485-.058,2.267a3.836,3.836,0,0,0,.575,1.212l-2.018,0A3.365,3.365,0,0,1,709.315-3.821Z" transform="translate(-23.111 -112.754)" fill="#ef9502"/>
    <path id="Trazado_208286" data-name="Trazado 208286" d="M789.939,197.275a1.246,1.246,0,0,1,.364-.871,1.929,1.929,0,0,1,.835-.152q4.847.005,9.694,0c.624,0,1.14.21,1.129.876s-.539.877-1.157.846c-.057,0-.114,0-.172,0-3.117,0-6.234-.013-9.35.011A1.328,1.328,0,0,1,789.939,197.275Z" transform="translate(-86.399 -266.872)" fill="#5595fa"/>
    <path id="Trazado_208287" data-name="Trazado 208287" d="M727.488-69.382l-1.043-.449q0-8.42,0-16.839c0-1.479.667-2.145,2.151-2.144q10.095,0,20.19.01c-1.7.717-3.448,1.335-5.1,2.19a33.981,33.981,0,0,0-14.132,13.4C728.834-71.958,728.177-70.661,727.488-69.382Z" transform="translate(-37.489 -47.283)" fill="#d2e1f1"/>
    <path id="Trazado_208288" data-name="Trazado 208288" d="M727.4,155.427c-.483-.113-.857-.373-.833-.9a.834.834,0,0,1,1.667.07C728.219,155.072,727.866,155.325,727.4,155.427Z" transform="translate(-37.581 -234.117)" fill="#2375eb"/>
    <path id="Trazado_208289" data-name="Trazado 208289" d="M697.36,83.223c.547.083.9.341.936.805a.835.835,0,1,1-1.667.055C696.619,83.588,697.024,83.391,697.36,83.223Z" transform="translate(-14.521 -179.805)" fill="#2375eb"/>
    <path id="Trazado_208290" data-name="Trazado 208290" d="M697.456,70.136c-.508-.161-.888-.423-.826-.955a.834.834,0,0,1,1.665.074C698.293,69.78,697.906,70.018,697.456,70.136Z" transform="translate(-14.516 -168.403)" fill="#2375eb"/>
    <path id="Trazado_208291" data-name="Trazado 208291" d="M698.3,111.1c-.11.553-.391.9-.927.86a.848.848,0,0,1,.058-1.694A.877.877,0,0,1,698.3,111.1Z" transform="translate(-14.476 -200.633)" fill="#f8fafc"/>
    <path id="Trazado_208292" data-name="Trazado 208292" d="M712.35,125.1c.557.115.928.376.915.9a.794.794,0,0,1-.814.811.8.8,0,0,1-.855-.855C711.594,125.46,711.993,125.259,712.35,125.1Z" transform="translate(-26.051 -212.06)" fill="#2375eb"/>
    <path id="Trazado_208293" data-name="Trazado 208293" d="M713.3,111.12a.9.9,0,0,1-.8.863.835.835,0,0,1-.122-1.665C712.9,110.271,713.163,110.651,713.3,111.12Z" transform="translate(-26.052 -200.674)" fill="#2375eb"/>
    <path id="Trazado_208294" data-name="Trazado 208294" d="M796.179,84.982c-1.6,0-3.2-.008-4.8,0-.6,0-1.163-.118-1.173-.816-.011-.722.534-.912,1.185-.91q4.8.013,9.605,0c.616,0,1.145.177,1.173.838.032.753-.545.894-1.185.889C799.38,84.974,797.779,84.982,796.179,84.982Z" transform="translate(-86.601 -179.833)" fill="#5595fa"/>
    <path id="Trazado_208295" data-name="Trazado 208295" d="M796.1,70.02c-1.572,0-3.145-.008-4.717,0-.6,0-1.165-.111-1.184-.806-.019-.721.521-.922,1.175-.92q4.8.012,9.6,0c.651,0,1.2.189,1.184.911-.012.694-.572.82-1.175.815C799.362,70.012,797.732,70.02,796.1,70.02Z" transform="translate(-86.601 -168.308)" fill="#5595fa"/>
    <path id="Trazado_208296" data-name="Trazado 208296" d="M728.218,69.278c-.107.5-.388.846-.927.8a.845.845,0,0,1,.078-1.688A.852.852,0,0,1,728.218,69.278Z" transform="translate(-37.533 -168.379)" fill="#f8fafd"/>
    <path id="Trazado_208297" data-name="Trazado 208297" d="M727.407,85.076c-.571-.084-.912-.362-.892-.9a.846.846,0,0,1,1.692.008A.864.864,0,0,1,727.407,85.076Z" transform="translate(-37.541 -179.909)" fill="#f8fafd"/>
    <path id="Trazado_208298" data-name="Trazado 208298" d="M712.359,83.2c.533.116.9.374.912.844a.83.83,0,1,1-1.66.028C711.606,83.573,712.019,83.377,712.359,83.2Z" transform="translate(-26.062 -179.784)" fill="#2375eb"/>
    <path id="Trazado_208299" data-name="Trazado 208299" d="M713.318,69.282c-.126.448-.374.822-.854.814a.83.83,0,1,1,.023-1.659C712.958,68.463,713.215,68.817,713.318,69.282Z" transform="translate(-26.073 -168.414)" fill="#2375eb"/>
    <path id="Trazado_208300" data-name="Trazado 208300" d="M796.154,42.332c-1.575,0-3.151-.009-4.726,0-.645.006-1.218-.16-1.208-.886.009-.664.549-.844,1.167-.842q4.812.015,9.624,0c.618,0,1.158.18,1.165.843.009.725-.565.891-1.21.885C799.362,42.323,797.758,42.332,796.154,42.332Z" transform="translate(-86.615 -146.979)" fill="#5595fa"/>
    <path id="Trazado_208301" data-name="Trazado 208301" d="M796.278,25.646c1.575,0,3.151.01,4.726-.005.617-.006,1.16.172,1.174.835.016.725-.555.895-1.2.893q-4.769-.013-9.538,0c-.642,0-1.227-.153-1.216-.877s.605-.858,1.243-.851C793.07,25.657,794.674,25.646,796.278,25.646Z" transform="translate(-86.618 -135.448)" fill="#5595fa"/>
    <path id="Trazado_208302" data-name="Trazado 208302" d="M712.34,42.389c-.5-.109-.848-.394-.8-.93a.847.847,0,0,1,1.691.083A.855.855,0,0,1,712.34,42.389Z" transform="translate(-26.004 -147.028)" fill="#f8fafd"/>
    <path id="Trazado_208303" data-name="Trazado 208303" d="M713.252,26.6c-.1.506-.389.851-.924.806a.847.847,0,0,1,.071-1.692C712.934,25.731,713.2,26.078,713.252,26.6Z" transform="translate(-26.004 -135.505)" fill="#f8fafd"/>
    <path id="Trazado_208304" data-name="Trazado 208304" d="M728.292,41.567c-.167.476-.411.863-.9.828a.831.831,0,1,1,.081-1.66C727.951,40.778,728.166,41.163,728.292,41.567Z" transform="translate(-37.594 -147.073)" fill="#2375eb"/>
    <path id="Trazado_208305" data-name="Trazado 208305" d="M728.282,26.63c-.125.448-.375.822-.855.814a.83.83,0,1,1,.024-1.659C727.923,25.811,728.18,26.165,728.282,26.63Z" transform="translate(-37.599 -135.559)" fill="#2375eb"/>
    <path id="Trazado_208306" data-name="Trazado 208306" d="M796.215,111.922c-1.6,0-3.208-.01-4.812.005-.614.006-1.162-.163-1.185-.825-.025-.725.541-.9,1.189-.9q4.812.013,9.625,0c.622,0,1.145.2,1.144.865s-.527.866-1.148.862C799.423,111.914,797.819,111.922,796.215,111.922Z" transform="translate(-86.613 -200.586)" fill="#5595fa"/>
    <path id="Trazado_208307" data-name="Trazado 208307" d="M796.2,126.884c-1.575,0-3.151-.011-4.726.005-.635.007-1.233-.123-1.25-.845s.564-.886,1.208-.884q4.769.015,9.538,0c.646,0,1.225.162,1.207.885s-.616.851-1.252.844C799.35,126.873,797.774,126.884,796.2,126.884Z" transform="translate(-86.617 -212.11)" fill="#5595fa"/>
    <path id="Trazado_208308" data-name="Trazado 208308" d="M728.233,126c-.073.569-.34.922-.874.919a.847.847,0,0,1-.042-1.693C727.863,125.194,728.112,125.56,728.233,126Z" transform="translate(-37.541 -212.158)" fill="#f8fafd"/>
    <path id="Trazado_208309" data-name="Trazado 208309" d="M727.4,110.129c.476.167.862.411.828.9a.8.8,0,0,1-.91.8.806.806,0,0,1-.75-.885C726.606,110.47,726.99,110.253,727.4,110.129Z" transform="translate(-37.576 -200.531)" fill="#2375eb"/>
    <path id="Trazado_208310" data-name="Trazado 208310" d="M796.154,170.282c-1.575,0-3.151-.009-4.726,0-.645.006-1.218-.16-1.208-.886.008-.664.549-.844,1.166-.842q4.812.015,9.624,0c.618,0,1.158.18,1.166.843.009.725-.564.891-1.21.885C799.362,170.273,797.758,170.282,796.154,170.282Z" transform="translate(-86.615 -245.54)" fill="#5595fa"/>
    <path id="Trazado_208311" data-name="Trazado 208311" d="M796.159,153.6c1.6,0,3.208.009,4.812,0,.647-.005,1.216.169,1.2.893-.016.662-.56.836-1.176.834q-4.812-.015-9.624,0c-.618,0-1.148-.185-1.157-.852s.51-.878,1.133-.874C792.951,153.607,794.555,153.6,796.159,153.6Z" transform="translate(-86.61 -234.014)" fill="#5595fa"/>
    <path id="Trazado_208312" data-name="Trazado 208312" d="M697.475,40.606c.482.115.856.376.829.9a.834.834,0,0,1-1.666-.077C696.654,40.958,697.006,40.7,697.475,40.606Z" transform="translate(-14.527 -146.977)" fill="#2375eb"/>
    <path id="Trazado_208313" data-name="Trazado 208313" d="M697.516,27.491c-.538-.136-.914-.4-.882-.924a.793.793,0,0,1,.835-.789.805.805,0,0,1,.833.877C698.287,27.142,697.9,27.348,697.516,27.491Z" transform="translate(-14.524 -135.555)" fill="#2475eb"/>
  </g>
</svg>
