<svg xmlns="http://www.w3.org/2000/svg" width="62.963" height="49.435" viewBox="0 0 62.963 49.435">
  <g id="Grupo_1078372" data-name="Grupo 1078372" transform="translate(-1202.928 -1026.898)">
    <path id="Trazado_217579" data-name="Trazado 217579" d="M1265.89,1058.117a8.559,8.559,0,0,0-.386,1.765,13.784,13.784,0,0,1-13.443,10.528c-2.418.023-4.837-.007-7.256.014-.432,0-.555-.112-.54-.542.033-.962.036-1.927,0-2.889-.018-.458.153-.526.558-.523q3.6.027,7.194.006a9.816,9.816,0,0,0,2.1-19.426,2.738,2.738,0,0,1-2.459-2.309,17.675,17.675,0,0,0-27.526-10.338,17.264,17.264,0,0,0-7.014,10.74,25.331,25.331,0,0,0-.391,3.66,1.937,1.937,0,0,1-2.033,1.935,7.869,7.869,0,0,0-1.221,15.628,24.158,24.158,0,0,0,3.313.109q3.659.019,7.317,0c.384,0,.528.073.515.494-.034,1.024-.021,2.049,0,3.074,0,.291-.069.385-.374.383-3.423-.019-6.849.075-10.268-.053a11.757,11.757,0,0,1-2.484-23.048c1.153-.3,1.377-.818,1.526-1.846a21.613,21.613,0,0,1,41.607-4.6c.232.61.418,1.239.6,1.866a.868.868,0,0,0,.668.677,13.568,13.568,0,0,1,9.492,9.511c.236.768.349,1.573.519,2.361Z" transform="translate(0 0)" fill="#083142"/>
    <path id="Trazado_217580" data-name="Trazado 217580" d="M1358.526,1188.231v5.788c0,4.158-.009,8.316.011,12.474,0,.481-.12.618-.6.6-.92-.04-1.845-.045-2.764,0-.505.025-.6-.151-.594-.614q.023-8.726.01-17.451v-.859c-.675.69-1.222,1.257-1.778,1.815-.824.827-1.655,1.647-2.48,2.473-.148.148-.246.289-.473.054-.839-.866-1.7-1.706-2.569-2.567,2.627-2.625,5.212-5.225,7.816-7.8a1.92,1.92,0,0,1,2.893,0c2.517,2.494,5.012,5.011,7.529,7.506.269.266.207.4-.026.622-.723.7-1.437,1.4-2.127,2.131-.257.272-.4.284-.667.006-1.2-1.233-2.426-2.441-3.643-3.657C1358.924,1188.6,1358.774,1188.466,1358.526,1188.231Z" transform="translate(-122.117 -130.761)" fill="#083142"/>
  </g>
</svg>
