<svg xmlns="http://www.w3.org/2000/svg" xmlns:xlink="http://www.w3.org/1999/xlink" width="505" height="284.035" viewBox="0 0 505 284.035">
  <defs>
    <clipPath id="clip-path">
      <path id="Trazado_165434" data-name="Trazado 165434" d="M0,4.151A4.149,4.149,0,1,0,4.148,0,4.148,4.148,0,0,0,0,4.151" fill="#2efec7"/>
    </clipPath>
    <clipPath id="clip-path-2">
      <path id="Trazado_165438" data-name="Trazado 165438" d="M4.147,0A4.148,4.148,0,1,0,8.3,4.15,4.148,4.148,0,0,0,4.147,0Z" fill="#2efec7"/>
    </clipPath>
    <clipPath id="clip-path-3">
      <path id="Trazado_165440" data-name="Trazado 165440" d="M0,4.151A4.148,4.148,0,1,0,4.148,0,4.149,4.149,0,0,0,0,4.151" fill="#2efec7"/>
    </clipPath>
    <clipPath id="clip-path-4">
      <path id="Trazado_165442" data-name="Trazado 165442" d="M0,4.149A4.148,4.148,0,1,0,4.148,0,4.148,4.148,0,0,0,0,4.149" fill="#2efec7"/>
    </clipPath>
    <clipPath id="clip-path-5">
      <path id="Trazado_165444" data-name="Trazado 165444" d="M4.146,0A4.148,4.148,0,1,0,8.3,4.149,4.147,4.147,0,0,0,4.146,0Z" fill="#2efec7"/>
    </clipPath>
    <clipPath id="clip-path-6">
      <path id="Trazado_165446" data-name="Trazado 165446" d="M0,4.151A4.149,4.149,0,1,0,4.148,0,4.149,4.149,0,0,0,0,4.151" fill="#2efec7"/>
    </clipPath>
    <clipPath id="clip-path-7">
      <path id="Trazado_165448" data-name="Trazado 165448" d="M0,4.149A4.149,4.149,0,1,0,4.15,0h0A4.153,4.153,0,0,0,0,4.149" fill="#2efec7"/>
    </clipPath>
    <clipPath id="clip-path-8">
      <path id="Trazado_165450" data-name="Trazado 165450" d="M4.146,0A4.148,4.148,0,1,0,8.3,4.15,4.147,4.147,0,0,0,4.146,0Z" fill="#2efec7"/>
    </clipPath>
    <clipPath id="clip-path-9">
      <path id="Trazado_165452" data-name="Trazado 165452" d="M0,4.151A4.148,4.148,0,1,0,4.147,0,4.148,4.148,0,0,0,0,4.151" fill="#2efec7"/>
    </clipPath>
    <clipPath id="clip-path-10">
      <path id="Trazado_165454" data-name="Trazado 165454" d="M0,4.149A4.148,4.148,0,1,0,4.147,0,4.147,4.147,0,0,0,0,4.149" fill="#2efec7"/>
    </clipPath>
    <clipPath id="clip-path-12">
      <path id="Trazado_165436" data-name="Trazado 165436" d="M0,4.149A4.149,4.149,0,1,0,4.149,0h0A4.153,4.153,0,0,0,0,4.149" fill="#2efec7"/>
    </clipPath>
    <clipPath id="clip-path-13">
      <rect id="Rectángulo_378944" data-name="Rectángulo 378944" width="356.55" height="275.831" fill="none"/>
    </clipPath>
    <clipPath id="clip-path-15">
      <rect id="Rectángulo_378935" data-name="Rectángulo 378935" width="54.673" height="75.927" transform="translate(179.97 3.097)" fill="none"/>
    </clipPath>
    <clipPath id="clip-path-16">
      <rect id="Rectángulo_378936" data-name="Rectángulo 378936" width="25.616" height="51.004" transform="translate(181.308 17.985)" fill="none"/>
    </clipPath>
  </defs>
  <g id="Grupo_1078880" data-name="Grupo 1078880" transform="translate(2484.026 8934.951)">
    <g id="Grupo_1078799" data-name="Grupo 1078799" transform="translate(-3294.026 -13581.435)">
      <g id="Grupo_1078481" data-name="Grupo 1078481" transform="translate(805.949 4646.483)">
        <rect id="Rectángulo_373681" data-name="Rectángulo 373681" width="12.041" height="70.838" rx="6.021" transform="translate(500.537 0) rotate(45)" fill="#ffb476"/>
        <g id="Grupo_1065536" data-name="Grupo 1065536" transform="translate(433.332 284.035) rotate(-90)">
          <g id="Group_881454" data-name="Group 881454" transform="translate(0 67.421)">
            <g id="Grupo_108438" data-name="Grupo 108438">
              <path id="Trazado_165433" data-name="Trazado 165433" d="M0,4.151A4.149,4.149,0,1,0,4.148,0,4.148,4.148,0,0,0,0,4.151" fill="#2efec7"/>
              <g id="Grupo_108437" data-name="Grupo 108437" clip-path="url(#clip-path)">
                <g id="Group_881453" data-name="Group 881453" transform="translate(0 0)">
                  <rect id="Rectangle_298909" data-name="Rectangle 298909" width="8.297" height="8.297" fill="#2efec7"/>
                </g>
              </g>
            </g>
          </g>
          <g id="Group_881458" data-name="Group 881458" transform="translate(0.001)">
            <g id="Grupo_108442" data-name="Grupo 108442">
              <path id="Trazado_165437" data-name="Trazado 165437" d="M4.147,0A4.148,4.148,0,1,0,8.3,4.15,4.148,4.148,0,0,0,4.147,0Z" fill="#2efec7"/>
              <g id="Grupo_108441" data-name="Grupo 108441" clip-path="url(#clip-path-2)">
                <g id="Group_881457" data-name="Group 881457" transform="translate(-0.001 0.001)">
                  <rect id="Rectangle_298911" data-name="Rectangle 298911" width="8.297" height="8.295" fill="#2efec7"/>
                </g>
              </g>
            </g>
          </g>
          <g id="Group_881460" data-name="Group 881460" transform="translate(28.117 67.421)">
            <g id="Grupo_108444" data-name="Grupo 108444">
              <path id="Trazado_165439" data-name="Trazado 165439" d="M0,4.151A4.148,4.148,0,1,0,4.148,0,4.149,4.149,0,0,0,0,4.151" fill="#2efec7"/>
              <g id="Grupo_108443" data-name="Grupo 108443" clip-path="url(#clip-path-3)">
                <g id="Group_881459" data-name="Group 881459" transform="translate(0 0)">
                  <rect id="Rectangle_298912" data-name="Rectangle 298912" width="8.297" height="8.297" fill="#2efec7"/>
                </g>
              </g>
            </g>
          </g>
          <g id="Group_881462" data-name="Group 881462" transform="translate(28.117 35.091)">
            <g id="Grupo_108446" data-name="Grupo 108446">
              <path id="Trazado_165441" data-name="Trazado 165441" d="M0,4.149A4.148,4.148,0,1,0,4.148,0,4.148,4.148,0,0,0,0,4.149" fill="#2efec7"/>
              <g id="Grupo_108445" data-name="Grupo 108445" clip-path="url(#clip-path-4)">
                <g id="Group_881461" data-name="Group 881461" transform="translate(0 0)">
                  <rect id="Rectangle_298913" data-name="Rectangle 298913" width="8.297" height="8.297" fill="#2efec7"/>
                </g>
              </g>
            </g>
          </g>
          <g id="Group_881464" data-name="Group 881464" transform="translate(28.119)">
            <g id="Grupo_108448" data-name="Grupo 108448">
              <path id="Trazado_165443" data-name="Trazado 165443" d="M4.146,0A4.148,4.148,0,1,0,8.3,4.149,4.147,4.147,0,0,0,4.146,0Z" fill="#2efec7"/>
              <g id="Grupo_108447" data-name="Grupo 108447" clip-path="url(#clip-path-5)">
                <g id="Group_881463" data-name="Group 881463" transform="translate(-0.002 0.001)">
                  <rect id="Rectangle_298914" data-name="Rectangle 298914" width="8.297" height="8.295" fill="#2efec7"/>
                </g>
              </g>
            </g>
          </g>
          <g id="Group_881454-2" data-name="Group 881454" transform="translate(57.451 67.421)">
            <g id="Grupo_108450" data-name="Grupo 108450">
              <path id="Trazado_165445" data-name="Trazado 165445" d="M0,4.151A4.149,4.149,0,1,0,4.148,0,4.149,4.149,0,0,0,0,4.151" fill="#2efec7"/>
              <g id="Grupo_108449" data-name="Grupo 108449" clip-path="url(#clip-path-6)">
                <g id="Group_881453-2" data-name="Group 881453" transform="translate(0 0)">
                  <rect id="Rectangle_298909-2" data-name="Rectangle 298909" width="8.297" height="8.297" fill="#2efec7"/>
                </g>
              </g>
            </g>
          </g>
          <g id="Group_881456" data-name="Group 881456" transform="translate(57.451 35.091)">
            <g id="Grupo_108452" data-name="Grupo 108452">
              <path id="Trazado_165447" data-name="Trazado 165447" d="M0,4.149A4.149,4.149,0,1,0,4.15,0h0A4.153,4.153,0,0,0,0,4.149" fill="#2efec7"/>
              <g id="Grupo_108451" data-name="Grupo 108451" clip-path="url(#clip-path-7)">
                <g id="Group_881455" data-name="Group 881455" transform="translate(0 0)">
                  <rect id="Rectangle_298910" data-name="Rectangle 298910" width="8.297" height="8.297" fill="#2efec7"/>
                </g>
              </g>
            </g>
          </g>
          <g id="Group_881458-2" data-name="Group 881458" transform="translate(57.453)">
            <g id="Grupo_108454" data-name="Grupo 108454">
              <path id="Trazado_165449" data-name="Trazado 165449" d="M4.146,0A4.148,4.148,0,1,0,8.3,4.15,4.147,4.147,0,0,0,4.146,0Z" fill="#2efec7"/>
              <g id="Grupo_108453" data-name="Grupo 108453" clip-path="url(#clip-path-8)">
                <g id="Group_881457-2" data-name="Group 881457" transform="translate(-0.001 0.001)">
                  <rect id="Rectangle_298911-2" data-name="Rectangle 298911" width="8.297" height="8.295" fill="#2efec7"/>
                </g>
              </g>
            </g>
          </g>
          <g id="Group_881460-2" data-name="Group 881460" transform="translate(85.569 67.421)">
            <g id="Grupo_108456" data-name="Grupo 108456">
              <path id="Trazado_165451" data-name="Trazado 165451" d="M0,4.151A4.148,4.148,0,1,0,4.147,0,4.148,4.148,0,0,0,0,4.151" fill="#2efec7"/>
              <g id="Grupo_108455" data-name="Grupo 108455" clip-path="url(#clip-path-9)">
                <g id="Group_881459-2" data-name="Group 881459" transform="translate(0 0)">
                  <rect id="Rectangle_298912-2" data-name="Rectangle 298912" width="8.297" height="8.297" fill="#2efec7"/>
                </g>
              </g>
            </g>
          </g>
          <g id="Group_881462-2" data-name="Group 881462" transform="translate(85.569 35.091)">
            <g id="Grupo_108458" data-name="Grupo 108458">
              <path id="Trazado_165453" data-name="Trazado 165453" d="M0,4.149A4.148,4.148,0,1,0,4.147,0,4.147,4.147,0,0,0,0,4.149" fill="#2efec7"/>
              <g id="Grupo_108457" data-name="Grupo 108457" clip-path="url(#clip-path-10)">
                <g id="Group_881461-2" data-name="Group 881461" transform="translate(0 0)">
                  <rect id="Rectangle_298913-2" data-name="Rectangle 298913" width="8.297" height="8.297" fill="#2efec7"/>
                </g>
              </g>
            </g>
          </g>
          <g id="Group_881464-2" data-name="Group 881464" transform="translate(85.57)">
            <g id="Grupo_108460" data-name="Grupo 108460">
              <path id="Trazado_165455" data-name="Trazado 165455" d="M4.146,0A4.148,4.148,0,1,0,8.3,4.149,4.147,4.147,0,0,0,4.146,0Z" fill="#2efec7"/>
              <g id="Grupo_108459" data-name="Grupo 108459" clip-path="url(#clip-path-5)">
                <g id="Group_881463-2" data-name="Group 881463" transform="translate(-0.001 0.001)">
                  <rect id="Rectangle_298914-2" data-name="Rectangle 298914" width="8.297" height="8.295" fill="#2efec7"/>
                </g>
              </g>
            </g>
          </g>
          <g id="Group_881456-2" data-name="Group 881456" transform="translate(0 35.091)">
            <g id="Grupo_108440" data-name="Grupo 108440">
              <path id="Trazado_165435" data-name="Trazado 165435" d="M0,4.149A4.149,4.149,0,1,0,4.149,0h0A4.153,4.153,0,0,0,0,4.149" fill="#2efec7"/>
              <g id="Grupo_108439" data-name="Grupo 108439" clip-path="url(#clip-path-12)">
                <g id="Group_881455-2" data-name="Group 881455" transform="translate(0 0)">
                  <rect id="Rectangle_298910-2" data-name="Rectangle 298910" width="8.297" height="8.297" fill="#2efec7"/>
                </g>
              </g>
            </g>
          </g>
        </g>
        <rect id="Rectángulo_373680" data-name="Rectángulo 373680" width="12.987" height="102.47" rx="6.494" transform="translate(76.508 202.395) rotate(45)" fill="#ff6148"/>
      </g>
    </g>
    <g id="Grupo_1078853" data-name="Grupo 1078853" transform="translate(-3751.55 -12329.85)">
      <g id="Grupo_1078852" data-name="Grupo 1078852" transform="translate(1365 3399)">
        <g id="Grupo_1078851" data-name="Grupo 1078851" clip-path="url(#clip-path-13)">
          <line id="Línea_3804" data-name="Línea 3804" y2="73.158" transform="translate(180.487 88.825)" fill="none" stroke="#092c5d" stroke-linecap="round" stroke-linejoin="round" stroke-width="2.827" stroke-dasharray="12.213 9.77 12.213 12.213 9.77 12.213"/>
          <line id="Línea_3805" data-name="Línea 3805" y2="26.414" transform="translate(55.798 135.569)" fill="none" stroke="#092c5d" stroke-linecap="round" stroke-linejoin="round" stroke-width="2.827" stroke-dasharray="12.213 9.77 12.213 12.213 9.77 12.213"/>
          <line id="Línea_3806" data-name="Línea 3806" y2="26.414" transform="translate(305.176 135.569)" fill="none" stroke="#092c5d" stroke-linecap="round" stroke-linejoin="round" stroke-width="2.827" stroke-dasharray="12.213 9.77 12.213 12.213 9.77 12.213"/>
          <line id="Línea_3807" data-name="Línea 3807" x2="249.378" transform="translate(55.798 135.569)" fill="none" stroke="#092c5d" stroke-linecap="round" stroke-linejoin="round" stroke-width="2.384" stroke-dasharray="10.298 8.239 10.298 10.298 8.239 10.298"/>
          <g id="Grupo_1078850" data-name="Grupo 1078850">
            <g id="Grupo_1078849" data-name="Grupo 1078849" clip-path="url(#clip-path-13)">
              <path id="Trazado_827755" data-name="Trazado 827755" d="M218.508,80.571c-.671,0-68.432-.28-72.255-.383l-.082,0-.1-.009A23.817,23.817,0,0,1,132.66,38.8a15.57,15.57,0,0,1,16.6-22.862,39.608,39.608,0,0,1,68.442,13.694h.015A15.587,15.587,0,0,1,233.29,45.2a15.406,15.406,0,0,1-1.023,5.548,18.461,18.461,0,0,1-13.479,29.811l-.094.006Z" fill="#f4f4f3"/>
              <path id="Trazado_827756" data-name="Trazado 827756" d="M179.8,3.093a38.081,38.081,0,0,1,36.755,28.14c.387-.033.771-.052,1.165-.052a14.021,14.021,0,0,1,12.76,19.835,16.917,16.917,0,0,1-11.844,28.006v0h-.128c-3.182,0-71.5-.3-72.255-.381h-.017v0A22.269,22.269,0,0,1,134.675,39.12,14.022,14.022,0,0,1,149.86,17.665,37.984,37.984,0,0,1,179.8,3.093M179.8,0a40.906,40.906,0,0,0-31.149,14.269,17.116,17.116,0,0,0-19.508,16.947,17.026,17.026,0,0,0,1.611,7.259,25.368,25.368,0,0,0,12.389,42.8v.463l3.093,0V81.73c5.129.118,71.607.388,72.272.388h3.207l0-.376A20.012,20.012,0,0,0,234,50.488a16.946,16.946,0,0,0,.836-5.284,17.138,17.138,0,0,0-15.988-17.079A41.233,41.233,0,0,0,179.8,0" fill="#092c5d"/>
              <g id="Grupo_1078836" data-name="Grupo 1078836" style="mix-blend-mode: multiply;isolation: isolate">
                <g id="Grupo_1078835" data-name="Grupo 1078835">
                  <g id="Grupo_1078834" data-name="Grupo 1078834" clip-path="url(#clip-path-15)">
                    <path id="Trazado_827757" data-name="Trazado 827757" d="M230.48,51.016a14.021,14.021,0,0,0-12.761-19.835c-.392,0-.778.019-1.164.052A38.077,38.077,0,0,0,179.969,3.1V78.856c18.8.092,38.5.174,38.653.168h.013v0A16.917,16.917,0,0,0,230.48,51.016" fill="#e8e8e8"/>
                  </g>
                </g>
              </g>
              <path id="Trazado_827758" data-name="Trazado 827758" d="M137.9,43.485c-6.439,3.885-12.682,24.127,8.35,28.766" fill="none" stroke="#092c5d" stroke-linecap="round" stroke-linejoin="round" stroke-width="2.474" stroke-dasharray="10.689 8.551 10.689 10.689 8.551 10.689"/>
              <path id="Trazado_827759" data-name="Trazado 827759" d="M181.423,70.226a26.739,26.739,0,1,1,26.739-26.741,26.77,26.77,0,0,1-26.739,26.741" fill="#feb200"/>
              <path id="Trazado_827760" data-name="Trazado 827760" d="M181.423,17.985a25.5,25.5,0,1,1-25.5,25.5,25.5,25.5,0,0,1,25.5-25.5m0-2.475A27.976,27.976,0,1,0,209.4,43.485,28.007,28.007,0,0,0,181.423,15.51" fill="#092c5d"/>
              <path id="Trazado_827761" data-name="Trazado 827761" d="M175.517,47.635c0,2.666,2.643,4.83,5.906,4.83s5.908-2.467,5.908-4.83-1.62-3.924-5.495-4.15-6.319-1.725-6.319-4.149c0-3.148,2.643-4.828,5.906-4.828s5.908,2.162,5.908,4.828" fill="none" stroke="#f4f4f3" stroke-linecap="round" stroke-linejoin="round" stroke-width="2.11"/>
              <line id="Línea_3808" data-name="Línea 3808" y2="3.297" transform="translate(181.423 52.965)" fill="none" stroke="#f4f4f3" stroke-linecap="round" stroke-linejoin="round" stroke-width="2.11"/>
              <line id="Línea_3809" data-name="Línea 3809" y2="3.616" transform="translate(181.423 30.711)" fill="none" stroke="#f4f4f3" stroke-linecap="round" stroke-linejoin="round" stroke-width="2.11"/>
              <path id="Trazado_827762" data-name="Trazado 827762" d="M191.819,28a18.679,18.679,0,0,1,2.792,2.3" fill="#feb200"/>
              <path id="Trazado_827763" data-name="Trazado 827763" d="M191.819,28a18.679,18.679,0,0,1,2.792,2.3" fill="none" stroke="#092c5d" stroke-linecap="round" stroke-linejoin="round" stroke-width="2.291"/>
              <path id="Trazado_827764" data-name="Trazado 827764" d="M200.074,43.485a18.652,18.652,0,1,1-18.651-18.652" fill="#feb200"/>
              <path id="Trazado_827765" data-name="Trazado 827765" d="M200.074,43.485a18.652,18.652,0,1,1-18.651-18.652" fill="none" stroke="#092c5d" stroke-linecap="round" stroke-linejoin="round" stroke-width="2.291"/>
              <path id="Trazado_827766" data-name="Trazado 827766" d="M175.517,47.635c0,2.666,2.643,4.83,5.906,4.83s5.908-2.467,5.908-4.83-1.62-3.924-5.495-4.15-6.319-1.725-6.319-4.149c0-3.148,2.643-4.828,5.906-4.828s5.908,2.162,5.908,4.828" fill="none" stroke="#092c5d" stroke-linecap="round" stroke-linejoin="round" stroke-width="2.11"/>
              <line id="Línea_3810" data-name="Línea 3810" y2="3.297" transform="translate(181.423 52.965)" fill="none" stroke="#092c5d" stroke-linecap="round" stroke-linejoin="round" stroke-width="2.11"/>
              <line id="Línea_3811" data-name="Línea 3811" y2="3.616" transform="translate(181.423 30.711)" fill="none" stroke="#092c5d" stroke-linecap="round" stroke-linejoin="round" stroke-width="2.11"/>
              <path id="Trazado_827767" data-name="Trazado 827767" d="M163.735,43.049s-1.389-8.527-1.852-8.99c-.431-.432-8.867-1.729-8.867-1.729s8.544-1.405,9.011-1.873c.428-.426,1.708-8.846,1.708-8.846s1.268,8.409,1.69,8.832c.475.471,9.029,1.887,9.029,1.887s-8.511,1.37-8.968,1.826c-.437.439-1.751,8.893-1.751,8.893" fill="#f4f4f3"/>
              <g id="Grupo_1078839" data-name="Grupo 1078839" style="mix-blend-mode: multiply;isolation: isolate">
                <g id="Grupo_1078838" data-name="Grupo 1078838">
                  <g id="Grupo_1078837" data-name="Grupo 1078837" clip-path="url(#clip-path-16)">
                    <path id="Trazado_827768" data-name="Trazado 827768" d="M181.423,17.985l-.115,0v51c.039,0,.076,0,.115,0a25.5,25.5,0,0,0,0-51" fill="#e8e8e8"/>
                  </g>
                </g>
              </g>
              <path id="Trazado_827769" data-name="Trazado 827769" d="M107.887,224.657a50.322,50.322,0,1,1-50.322-50.321A50.32,50.32,0,0,1,107.887,224.657Z" fill="none" stroke="#f4f4f3" stroke-linecap="round" stroke-linejoin="round" stroke-width="1.707" stroke-dasharray="6.845 5.476 6.845 6.845 5.476 6.845"/>
              <path id="Trazado_827770" data-name="Trazado 827770" d="M230.291,224.657a50.322,50.322,0,1,1-50.322-50.321A50.32,50.32,0,0,1,230.291,224.657Z" fill="none" stroke="#f4f4f3" stroke-linecap="round" stroke-linejoin="round" stroke-width="1.707" stroke-dasharray="6.845 5.476 6.845 6.845 5.476 6.845"/>
              <path id="Trazado_827771" data-name="Trazado 827771" d="M355.7,224.657a50.322,50.322,0,1,1-50.322-50.321A50.32,50.32,0,0,1,355.7,224.657Z" fill="none" stroke="#f4f4f3" stroke-linecap="round" stroke-linejoin="round" stroke-width="1.707" stroke-dasharray="6.845 5.476 6.845 6.845 5.476 6.845"/>
              <path id="Rectángulo_378937" data-name="Rectángulo 378937" d="M9.59,0H77.4a9.59,9.59,0,0,1,9.59,9.59V50.7A9.587,9.587,0,0,1,77.4,60.286H9.59A9.59,9.59,0,0,1,0,50.7V9.59A9.59,9.59,0,0,1,9.59,0Z" transform="translate(12.305 191.457)" fill="#ff8e7c"/>
              <path id="Trazado_827772" data-name="Trazado 827772" d="M89.7,192.957a8.113,8.113,0,0,1,8.088,8.09v41.106a8.113,8.113,0,0,1-8.088,8.09H21.894a8.113,8.113,0,0,1-8.089-8.09V201.047a8.114,8.114,0,0,1,8.089-8.09Zm0-3H21.894a11.1,11.1,0,0,0-11.089,11.09v41.106a11.1,11.1,0,0,0,11.089,11.09H89.7a11.1,11.1,0,0,0,11.088-11.09V201.047A11.1,11.1,0,0,0,89.7,189.957" fill="#092c5d"/>
              <path id="Trazado_827773" data-name="Trazado 827773" d="M13.171,256.829A11.684,11.684,0,0,1,1.5,245.157a1.5,1.5,0,0,1,1.5-1.5H108.6a1.5,1.5,0,0,1,1.5,1.5,11.686,11.686,0,0,1-11.673,11.672Z" fill="#feb200"/>
              <path id="Trazado_827774" data-name="Trazado 827774" d="M108.6,245.157h.006m-.006,0a10.2,10.2,0,0,1-10.172,10.172H13.171A10.2,10.2,0,0,1,3,245.157H108.6m.006-3H3a3,3,0,0,0-3,3,13.187,13.187,0,0,0,13.171,13.172H98.424A13.187,13.187,0,0,0,111.6,245.3c0-.047,0-.094,0-.141a3,3,0,0,0-3-3" fill="#092c5d"/>
              <rect id="Rectángulo_378938" data-name="Rectángulo 378938" width="71.962" height="38.121" transform="translate(19.817 200.296)" fill="#f4f4f3"/>
              <line id="Línea_3812" data-name="Línea 3812" y2="26.679" transform="translate(23.224 203.752)" fill="none" stroke="#092c5d" stroke-linecap="round" stroke-linejoin="round" stroke-width="1.195" stroke-dasharray="5.162 4.129 5.162 5.162 4.129 5.162"/>
              <path id="Trazado_827776" data-name="Trazado 827776" d="M158.061,268.8a4.81,4.81,0,0,1-4.8-4.8V182.107a4.808,4.808,0,0,1,4.8-4.8h43.393a4.807,4.807,0,0,1,4.8,4.8v81.886a4.808,4.808,0,0,1-4.8,4.8Z" fill="#ff8e7c"/>
              <path id="Trazado_827777" data-name="Trazado 827777" d="M201.454,178.59a3.517,3.517,0,0,1,3.516,3.516v81.887a3.517,3.517,0,0,1-3.516,3.517H158.06a3.516,3.516,0,0,1-3.515-3.517V182.106a3.516,3.516,0,0,1,3.515-3.516Zm0-2.574H158.06a6.1,6.1,0,0,0-6.089,6.09v81.887a6.1,6.1,0,0,0,6.089,6.091h43.394a6.1,6.1,0,0,0,6.089-6.091V182.106a6.1,6.1,0,0,0-6.089-6.09" fill="#092c5d"/>
              <path id="Trazado_827778" data-name="Trazado 827778" d="M200.857,253.656a2.911,2.911,0,0,1-2.943,2.879H161.6a2.911,2.911,0,0,1-2.943-2.879V186.632a2.912,2.912,0,0,1,2.943-2.879h36.315a2.912,2.912,0,0,1,2.943,2.879Z" fill="#f4f4f3"/>
              <path id="Trazado_827779" data-name="Trazado 827779" d="M172.842,265.212a2.4,2.4,0,1,1,0-4.751h13.83a2.4,2.4,0,1,1,0,4.751Z" fill="#feb200"/>
              <path id="Trazado_827780" data-name="Trazado 827780" d="M186.672,261.2a1.67,1.67,0,1,1,0,3.278h-13.83a1.67,1.67,0,1,1,0-3.278Zm0-1.473h-13.83a3.13,3.13,0,1,0,0,6.224h13.83a3.13,3.13,0,1,0,0-6.224" fill="#092c5d"/>
              <line id="Línea_3813" data-name="Línea 3813" y2="56.178" transform="translate(161.197 193.143)" fill="none" stroke="#092c5d" stroke-linecap="round" stroke-linejoin="round" stroke-width="1.472" stroke-dasharray="6.36 5.088 6.36 6.36 5.088 6.36"/>
              <path id="Trazado_827782" data-name="Trazado 827782" d="M292.591,261.687l3.884-16.239h17.471l3.81,16.35Z" fill="#feb200"/>
              <path id="Trazado_827783" data-name="Trazado 827783" d="M312.756,246.948l3.11,13.342-21.375-.094,3.168-13.248Zm2.381-3H295.291l-.55,2.3L291.573,259.5l-.879,3.68,3.783.017,21.375.094,3.8.016-.862-3.7-3.109-13.342Z" fill="#092c5d"/>
              <path id="Rectángulo_378941" data-name="Rectángulo 378941" d="M4.616,0H94.537a4.616,4.616,0,0,1,4.616,4.616V55.475a4.617,4.617,0,0,1-4.617,4.617H4.616A4.616,4.616,0,0,1,0,55.476V4.616A4.616,4.616,0,0,1,4.616,0Z" transform="translate(255.601 190.467)" fill="#ff8e7c"/>
              <path id="Trazado_827784" data-name="Trazado 827784" d="M350.137,191.968a3.116,3.116,0,0,1,3.117,3.117v50.859a3.116,3.116,0,0,1-3.117,3.116h-89.92a3.115,3.115,0,0,1-3.116-3.116V195.085a3.115,3.115,0,0,1,3.116-3.117Zm0-3h-89.92a6.123,6.123,0,0,0-6.116,6.117v50.859a6.123,6.123,0,0,0,6.116,6.116h89.92a6.124,6.124,0,0,0,6.117-6.116V195.085a6.124,6.124,0,0,0-6.117-6.117" fill="#092c5d"/>
              <path id="Trazado_827785" data-name="Trazado 827785" d="M346.535,239.384a2.567,2.567,0,0,1-2.68,2.439H266.5a2.568,2.568,0,0,1-2.682-2.439v-39.8a2.569,2.569,0,0,1,2.682-2.439h77.355a2.568,2.568,0,0,1,2.68,2.439Z" fill="#f4f4f3"/>
              <path id="Trazado_827786" data-name="Trazado 827786" d="M330.439,247.615a1.706,1.706,0,0,1,0-3.412h13.02a1.706,1.706,0,0,1,0,3.412Z" fill="#feb200"/>
              <path id="Trazado_827787" data-name="Trazado 827787" d="M343.459,244.87a1.039,1.039,0,0,1,0,2.078h-13.02a1.039,1.039,0,0,1,0-2.078Zm0-1.333h-13.02a2.372,2.372,0,0,0,0,4.744h13.02a2.372,2.372,0,0,0,0-4.744" fill="#092c5d"/>
              <path id="Trazado_827788" data-name="Trazado 827788" d="M287.091,263.837a3.775,3.775,0,0,1-3.964-3.512l-.035-1.535H327.26l-.033,1.533a3.774,3.774,0,0,1-3.963,3.514Z" fill="#5dc0e1"/>
              <path id="Trazado_827789" data-name="Trazado 827789" d="M325.727,260.29a2.308,2.308,0,0,1-2.463,2.047H287.091a2.307,2.307,0,0,1-2.464-2.047Zm3.068-3H281.557l.07,3.069a5.264,5.264,0,0,0,5.464,4.978h36.173a5.259,5.259,0,0,0,5.461-4.98Z" fill="#092c5d"/>
              <line id="Línea_3814" data-name="Línea 3814" y2="34.115" transform="translate(267.26 202.059)" fill="none" stroke="#092c5d" stroke-linecap="round" stroke-linejoin="round" stroke-width="1.777" stroke-dasharray="7.678 6.143 7.678 7.678 6.143 7.678"/>
            </g>
          </g>
        </g>
      </g>
    </g>
  </g>
</svg>
