<svg xmlns="http://www.w3.org/2000/svg" xmlns:xlink="http://www.w3.org/1999/xlink" width="88" height="88" viewBox="0 0 88 88">
  <defs>
    <clipPath id="clip-path">
      <circle id="Elipse_10774" data-name="Elipse 10774" cx="44" cy="44" r="44" transform="translate(281.676 13707)" fill="#fff" stroke="#707070" stroke-width="1"/>
    </clipPath>
  </defs>
  <g id="Grupo_1078779" data-name="Grupo 1078779" transform="translate(-281.676 -1432.594)">
    <path id="Trazado_827545" data-name="Trazado 827545" d="M44,0A44,44,0,1,1,0,44,44,44,0,0,1,44,0Z" transform="translate(281.676 1432.595)" fill="#d2e1f1"/>
    <g id="Enmascarar_grupo_1068027" data-name="Enmascarar grupo 1068027" transform="translate(0 -12274.406)" clip-path="url(#clip-path)">
      <g id="Grupo_1078253" data-name="Grupo 1078253" transform="translate(90.802 13703.811)">
        <path id="Trazado_826936" data-name="Trazado 826936" d="M379.077,32.876q-8.586,0-17.172-.011a8.663,8.663,0,0,1-.52-17.315c.718-.021,1.595.212,2.11-.12.544-.351-.023-1.228.011-1.887a5.177,5.177,0,0,1,6.265-4.757c.781.2,1.124.141,1.425-.753a12.033,12.033,0,0,1,23.269,2.113,9.926,9.926,0,0,1-.075,4.283c-.315,1.109.148,1.181,1.015,1.126a9.241,9.241,0,0,1,5.1,1.055,8.65,8.65,0,0,1-3.951,16.249c-4.606.017-9.213-.026-13.82-.043a1.048,1.048,0,0,0-.9-1.242,3.862,3.862,0,0,0-1.805-.079C379.232,31.642,378.882,32.056,379.077,32.876Z" transform="translate(-119.239 0)" fill="#78b8ea"/>
        <path id="Trazado_826937" data-name="Trazado 826937" d="M298.345,316.953c.012,2.668.012,5.336.044,8,.006.524-.176.722-.684.667a6.047,6.047,0,0,0-.647,0q-40.171,0-80.342.026c-1.074,0-1.4-.228-1.351-1.34.1-2.448.052-4.9.064-7.354.552-.482,1.229-.341,1.862-.341q12.749-.016,25.5-.007,26.74,0,53.48.008C296.969,316.613,297.72,316.434,298.345,316.953Z" transform="translate(-21.247 -225.195)" fill="#a87c50"/>
        <path id="Trazado_826938" data-name="Trazado 826938" d="M274.573,280.977c3.418.009,6.836.04,10.254.011.739-.007,1,.165.969.945-.06,1.692-.062,3.39,0,5.082.029.793-.255.946-.98.935-2.554-.04-5.11-.012-7.664-.01a2.549,2.549,0,0,1-1.761.346q-8.372.01-16.743,0-31.218,0-62.437-.006a3.1,3.1,0,0,1-2.085-.344c-2.582,0-5.163-.029-7.745.01-.707.011-.916-.2-.9-.9.048-1.723.051-3.45,0-5.172-.022-.727.224-.9.91-.887,2.007.031,4.014-.008,6.021-.02a1.792,1.792,0,0,1,1.228-.306c1.9,0,3.807-.038,5.71.019,6.327-.071,12.654-.024,18.981-.027,4.026,0,8.052-.048,12.078.026,1.908-.056,3.816-.018,5.724-.02a1.8,1.8,0,0,1,1.231.307l11.2.006a1.929,1.929,0,0,1,1.432-.32q11.569-.014,23.137,0A1.925,1.925,0,0,1,274.573,280.977Z" transform="translate(0 -199.634)" fill="#a87c50"/>
        <path id="Trazado_826939" data-name="Trazado 826939" d="M397.4,199.042c.227-.358-.054-.363-.287-.479a3.465,3.465,0,0,1-2.081-3.356c.017-2.16.024-4.32,0-6.479a3.449,3.449,0,0,1,2.186-3.492c.285-.125.313-.222.184-.451a1.214,1.214,0,0,1,.922-.182q12.274.08,24.548,0a1.217,1.217,0,0,1,.922.181c-.225.359.056.363.289.479a3.47,3.47,0,0,1,2.08,3.358c-.016,2.16-.023,4.32,0,6.479a3.446,3.446,0,0,1-2.189,3.491c-.287.125-.31.223-.181.451a1.214,1.214,0,0,1-.922.182q-12.275-.081-24.549,0A1.214,1.214,0,0,1,397.4,199.042Z" transform="translate(-149.018 -131.329)" fill="#d7d6d9"/>
        <path id="Trazado_826940" data-name="Trazado 826940" d="M423.785,151.617a7.068,7.068,0,0,1-1.914.206q-11.282-.013-22.564,0a7.1,7.1,0,0,1-1.914-.206,3.34,3.34,0,0,1-2.359-3.373q-.027-3.354,0-6.708a3.418,3.418,0,0,1,3.623-3.573q11.933-.011,23.866,0a3.429,3.429,0,0,1,3.625,3.682q.013,3.246,0,6.492A3.4,3.4,0,0,1,423.785,151.617Z" transform="translate(-149.015 -98.162)" fill="#abaab0"/>
        <path id="Trazado_826941" data-name="Trazado 826941" d="M397.34,234.111a6.925,6.925,0,0,1,1.914-.2q11.282.012,22.564,0a6.924,6.924,0,0,1,1.914.2,3.4,3.4,0,0,1,2.362,3.465c.008,1.977-.073,3.957.023,5.929a3.942,3.942,0,0,1-2.581,4.236h-26a3.94,3.94,0,0,1-2.581-4.236c.1-1.972.015-3.952.023-5.929A3.4,3.4,0,0,1,397.34,234.111Z" transform="translate(-148.963 -166.398)" fill="#abaab0"/>
        <path id="Trazado_826942" data-name="Trazado 826942" d="M250.5,98.587l.034-.865a3.308,3.308,0,0,1,3.385-2.876q6.968-.094,13.937,0a3.294,3.294,0,0,1,3.365,2.879l.034.861a1.288,1.288,0,0,1,.312.788q.084,2.694,0,5.388a1.282,1.282,0,0,1-.313.788,10.413,10.413,0,0,1-4.629,8.631c-.2.144-.392.3-.588.455a5.718,5.718,0,0,1-3.19,1.39,9.868,9.868,0,0,1-6.187-.7,2.177,2.177,0,0,1-.941-.689A11.126,11.126,0,0,1,250.9,108.3a9.736,9.736,0,0,1-.392-2.749,1.281,1.281,0,0,1-.312-.788q-.085-2.694,0-5.388A1.287,1.287,0,0,1,250.5,98.587Z" transform="translate(-45.988 -67.469)" fill="#fec377"/>
        <path id="Trazado_826943" data-name="Trazado 826943" d="M215.407,305.913h83.027q-.027,1.726-.055,3.452H215.462Z" transform="translate(-21.281 -217.607)" fill="#8a5e3c"/>
        <path id="Trazado_826944" data-name="Trazado 826944" d="M326.687,211.093h-6.916a2.374,2.374,0,0,1-.335-1.755q-.016-7.833-.006-15.666c0-.4.011-.793-.014-1.188-.082-1.271-.539-1.746-1.809-1.788-1.365-.045-2.732-.006-4.1-.016a4.78,4.78,0,0,1-1.5-.126c-.542-.243-.393-.706-.322-1.117.184-1.061.364-2.126.647-3.164a2.261,2.261,0,0,0-.335-1.927c-.376-.6-1.105-1.081-.887-1.962,3.77,1.5,7.566,2.946,11.3,4.531a6.6,6.6,0,0,1,4.255,6.441C326.716,199.268,326.686,205.181,326.687,211.093Z" transform="translate(-89.317 -129.757)" fill="#3d99e1"/>
        <path id="Trazado_826945" data-name="Trazado 826945" d="M216.388,211.111h-6.916c0-5.876-.017-11.753.009-17.629a6.682,6.682,0,0,1,4.359-6.59c3.71-1.553,7.467-2.994,11.2-4.484.238.756-.357,1.2-.709,1.683a2.727,2.727,0,0,0-.481,2.508c.253.929.387,1.889.589,2.832.086.4.261.859-.272,1.129a21.867,21.867,0,0,1-4.2.132c-3.152.028-3.243.1-3.244,3.309q0,7.678-.006,15.355A2.377,2.377,0,0,1,216.388,211.111Z" transform="translate(-17.056 -129.774)" fill="#3d99e1"/>
        <path id="Trazado_826946" data-name="Trazado 826946" d="M272.093,77.211a4.026,4.026,0,0,0-4.242-2.611q-6.1.128-12.2,0a4.061,4.061,0,0,0-4.25,2.608c-.009-2.092-.066-4.186-.016-6.277a5.1,5.1,0,0,1,4.921-4.947c5.041-.057,10.084-.007,15.126-.031.61,0,.7.236.694.76C272.1,70.211,272.1,73.711,272.093,77.211Z" transform="translate(-46.856 -46.954)" fill="#57565c"/>
        <path id="Trazado_826947" data-name="Trazado 826947" d="M258.51,184.595c-.346-1.56-.684-3.122-1.043-4.679a1.19,1.19,0,0,1,.291-.981c.486-.741.938-1.5,1.4-2.258l1.731-2.327a.787.787,0,0,1,.644.434c1.283,2.128,2.553,4.264,3.83,6.4a3.091,3.091,0,0,1,.693,1.559c-.4,1.187-1.462,1.609-2.439,2.137a33.337,33.337,0,0,1-4.147.07A1.107,1.107,0,0,1,258.51,184.595Z" transform="translate(-51.175 -124.043)" fill="#1e81cd"/>
        <path id="Trazado_826948" data-name="Trazado 826948" d="M294.25,176.668c2.464,2.456,1.264,5.214.651,7.924a1.1,1.1,0,0,1-.961.35,34.9,34.9,0,0,1-4.135-.062c-.973-.522-2.036-.943-2.441-2.123a2.32,2.32,0,0,1,.552-1.363c1.318-2.2,2.629-4.414,3.955-6.614a.788.788,0,0,1,.647-.434Z" transform="translate(-72.451 -124.042)" fill="#1e81cd"/>
        <path id="Trazado_826949" data-name="Trazado 826949" d="M279.738,166.619l-.442.524c-1.862,1.468-4.023,1.563-6.228,1.281a5.206,5.206,0,0,1-3.236-1.28l-.442-.523q.008-1.57.016-3.139a13.579,13.579,0,0,0,5.267,1.314,14.136,14.136,0,0,0,5.051-1.314Q279.731,165.05,279.738,166.619Z" transform="translate(-59.671 -116.314)" fill="#feb555"/>
        <path id="Trazado_826950" data-name="Trazado 826950" d="M323.231,114.879q0-3.482,0-6.964c.609.007,1.218,0,1.827.023a3.462,3.462,0,0,1,0,6.92C324.45,114.883,323.84,114.873,323.231,114.879Z" transform="translate(-97.961 -76.798)" fill="#feb555"/>
        <path id="Trazado_826951" data-name="Trazado 826951" d="M238.618,107.915q0,3.482,0,6.964c-.609-.006-1.218,0-1.826-.021a3.462,3.462,0,0,1,0-6.921C237.4,107.914,238.01,107.922,238.618,107.915Z" transform="translate(-34.103 -76.798)" fill="#feb555"/>
        <path id="Trazado_826952" data-name="Trazado 826952" d="M441.78,109.71c-.687-.869-.64-1.05.378-1.468a3.517,3.517,0,0,1,3,.133c.672.324.867.7.278,1.274a3.78,3.78,0,0,0-1.253,1.139c-.5.589-.881.546-1.345-.028A12.745,12.745,0,0,0,441.78,109.71Z" transform="translate(-181.942 -76.834)" fill="#1f81cd"/>
        <path id="Trazado_826953" data-name="Trazado 826953" d="M423.074,59.971a15.238,15.238,0,0,1,9.643,3.867c.547.482.668.845.052,1.362-.577.484-1.008,1.319-1.647,1.506-.714.208-1.2-.737-1.808-1.145a11.942,11.942,0,0,0-14.669.84c-.517.438-.884.52-1.319-.054a8.084,8.084,0,0,0-.757-.769c-1.138-1.141-1.147-1.176.134-2.164A16.207,16.207,0,0,1,423.074,59.971Z" transform="translate(-160.897 -42.702)" fill="#1e81cd"/>
        <path id="Trazado_826954" data-name="Trazado 826954" d="M434.283,83.975a9.094,9.094,0,0,1,5.448,1.879c.553.4.824.809.122,1.33a2.883,2.883,0,0,0-.535.533c-.728.927-1.314,1.315-2.564.426a4.416,4.416,0,0,0-5.429.314c-.631.469-.945.409-1.386-.129a6.867,6.867,0,0,0-1.068-1.068c-.673-.526-.6-.945.057-1.412A9.087,9.087,0,0,1,434.283,83.975Z" transform="translate(-172.754 -59.772)" fill="#1e81cd"/>
        <path id="Trazado_826955" data-name="Trazado 826955" d="M251.152,208.96h5.4q2.861.017,5.722.033c1.71.008,2.279.562,2.279,2.249q0,9.252,0,18.5-9.315.017-18.631.032c-4.164,0-8.327-.021-12.491-.032q0-9.2,0-18.4c0-1.836.528-2.35,2.388-2.357s3.743-.021,5.614-.031h5.4A6.88,6.88,0,0,1,251.152,208.96Z" transform="translate(-34.098 -148.41)" fill="#d7d6d9"/>
        <path id="Trazado_826956" data-name="Trazado 826956" d="M416.463,205.747c0,1.656,0,1.656-1.966,1.656-1.492,0-1.492,0-1.492-2.024,0-1.442,0-1.455,2.074-1.436C416.706,203.957,416.435,203.7,416.463,205.747Z" transform="translate(-161.805 -145.086)" fill="#88878f"/>
        <path id="Trazado_826957" data-name="Trazado 826957" d="M436.944,205.612c0-1.675,0-1.675,1.948-1.675,1.511,0,1.528,0,1.5,2.005-.02,1.744.306,1.445-2.05,1.452C436.694,207.4,436.973,207.623,436.944,205.612Z" transform="translate(-178.829 -145.085)" fill="#88878f"/>
        <path id="Trazado_826958" data-name="Trazado 826958" d="M414.781,155.95c1.96.032,1.651-.267,1.659,1.984.007,1.753.211,1.472-1.947,1.474-1.789,0-1.486.245-1.5-2.032C412.984,155.7,412.845,155.976,414.781,155.95Z" transform="translate(-161.788 -110.956)" fill="#88878f"/>
        <path id="Trazado_826959" data-name="Trazado 826959" d="M438.611,159.4c-1.972-.032-1.668.271-1.673-1.97,0-1.779-.243-1.481,2.04-1.487,1.688-.005,1.394-.206,1.406,2.017C440.393,159.654,440.531,159.376,438.611,159.4Z" transform="translate(-178.815 -110.944)" fill="#88878f"/>
        <path id="Trazado_826960" data-name="Trazado 826960" d="M413,253.555c.032-1.954-.263-1.641,1.993-1.65,1.74-.007,1.456-.2,1.459,1.963,0,1.78.243,1.477-2.04,1.49C412.746,255.367,413.024,255.512,413,253.555Z" transform="translate(-161.798 -179.188)" fill="#88878f"/>
        <path id="Trazado_826961" data-name="Trazado 826961" d="M438.723,251.908c1.961.031,1.652-.266,1.661,1.983.007,1.754.211,1.473-1.946,1.474-1.788,0-1.487.252-1.5-2.03C436.927,251.655,436.789,251.934,438.723,251.908Z" transform="translate(-178.816 -179.198)" fill="#88878f"/>
        <path id="Trazado_826962" data-name="Trazado 826962" d="M277.008,140.088a8.765,8.765,0,0,1-3.735-.881c-.41-.2-.552-.413-.267-.812.083-.116.137-.252.211-.376a6.01,6.01,0,0,1,1.14-1.8c.6-.454,1.3.284,1.985.365a4.561,4.561,0,0,0,2.426-.313c.752-.337,1.115-.095,1.4.579a7.824,7.824,0,0,0,.527.94c.707,1.19.711,1.193-.537,1.7A8.2,8.2,0,0,1,277.008,140.088Z" transform="translate(-62.136 -96.819)" fill="#fec377"/>
        <path id="Trazado_826963" data-name="Trazado 826963" d="M270.921,176.16a10.763,10.763,0,0,0,9.464,0q-2,3.363-3.992,6.727c-.2.336-.37.688-.554,1.033q-.185.263-.371,0-1.992-3.365-3.983-6.731C271.285,176.852,271.108,176.5,270.921,176.16Z" transform="translate(-60.76 -125.331)" fill="#fec377"/>
        <path id="Trazado_826964" data-name="Trazado 826964" d="M281.8,203.026h.372c.242,1.075,1.444,1.179,1.975,1.961H279.82C280.352,204.206,281.554,204.1,281.8,203.026Z" transform="translate(-67.089 -144.437)" fill="#3c99e1"/>
        <path id="Trazado_826965" data-name="Trazado 826965" d="M278.822,240.853a3.464,3.464,0,1,1,3.427-3.522A3.418,3.418,0,0,1,278.822,240.853Z" transform="translate(-63.899 -166.411)" fill="#e5e6e7"/>
      </g>
    </g>
  </g>
</svg>
