<svg xmlns="http://www.w3.org/2000/svg" width="112" height="112" viewBox="0 0 112 112">
  <g id="Grupo_1079620" data-name="Grupo 1079620" transform="translate(-387 -1005)">
    <g id="Grupo_1079619" data-name="Grupo 1079619">
      <circle id="Elipse_10768" data-name="Elipse 10768" cx="56" cy="56" r="56" transform="translate(387 1005)" fill="#fff"/>
    </g>
    <g id="Grupo_1078217" data-name="Grupo 1078217" transform="translate(415 1032.021)">
      <path id="Trazado_197592" data-name="Trazado 197592" d="M-404.849-152.412a10.738,10.738,0,0,0-5.247-.884c-.523.012-1.167.164-1.535-.08-.335-.222-.187-.925-.27-1.413a15.831,15.831,0,0,0-24.548-10.476,15.381,15.381,0,0,0-6.814,11.467c-.049.435-.188.527-.587.514-.876-.028-1.753-.013-2.63-.008a8.472,8.472,0,0,0-8.271,6.9,8.3,8.3,0,0,0,5.578,9.412.745.745,0,0,1,.615.858q-.03,12.789-.014,25.578c0,1.153.285,1.442,1.423,1.443h39.192c1.2,0,1.479-.275,1.479-1.454q0-12.756-.01-25.512c0-.5.088-.748.621-.92a8.268,8.268,0,0,0,5.689-7.321A8.513,8.513,0,0,0-404.849-152.412Zm-3.72,40.552c0,.546-.126.673-.673.672q-18.284-.027-36.568,0c-.546,0-.674-.124-.673-.672q.031-10.917,0-21.834c0-.546.126-.674.672-.673,6.095.022,12.189.014,18.284.014s12.189.008,18.284-.014c.546,0,.675.125.673.672Q-408.6-122.777-408.568-111.86Zm-37.908-30.449c0-.372.1-.47.47-.47q6.9.019,13.81,0c.37,0,.475.1.471.469-.02,1.775-.023,3.551,0,5.326.006.43-.109.542-.538.537-2.28-.022-4.559-.01-6.839-.01s-4.56-.012-6.839.01c-.428,0-.544-.106-.538-.537C-446.453-138.758-446.457-140.534-446.476-142.309Zm16.836.065c-.006-.432.113-.536.539-.535q10,.021,19.992,0c.43,0,.543.109.537.538q-.038,2.63,0,5.26c.006.432-.113.538-.539.536-3.354-.018-6.708-.01-10.062-.01-3.288,0-6.577-.012-9.865.013-.492,0-.615-.114-.605-.606C-429.609-138.781-429.614-140.513-429.64-142.244Zm23.564,3.107c-.1.042-.2.068-.4.133,0-1.583,0-3.095,0-4.606,0-.926-.341-1.263-1.272-1.263q-19.763,0-39.527,0c-.968,0-1.292.33-1.294,1.307,0,1.49,0,2.979,0,4.466-.206.1-.346-.022-.5-.091a6.307,6.307,0,0,1-3.567-7.043,6.357,6.357,0,0,1,6.03-4.948c1.381-.026,2.762,0,4.143-.008.9,0,1.233-.335,1.257-1.216a13.643,13.643,0,0,1,11.451-13.342,13.7,13.7,0,0,1,15.66,10.92,15.913,15.913,0,0,1,.253,2.48c.014.805.368,1.15,1.18,1.156,1.447.011,2.895-.024,4.34.016a6.317,6.317,0,0,1,5.922,5.062A6.253,6.253,0,0,1-406.077-139.137Z" transform="translate(454.874 168.046)" fill="#083142"/>
      <path id="Trazado_197593" data-name="Trazado 197593" d="M-256.812,49.359a2.123,2.123,0,0,1-2.005-2.184c-.009-.723.017-1.447-.009-2.17a3.1,3.1,0,0,0-2.915-3c-.751-.043-1.211.286-1.281.915-.075.675.3,1.082,1.085,1.184a1,1,0,0,1,1.011,1.129c.013.635.006,1.271,0,1.907a3.911,3.911,0,0,0,1.2,3.019c.271.253.162.349-.04.547a3.908,3.908,0,0,0-1.157,2.841c-.009.636,0,1.271,0,1.907-.006.886-.249,1.159-1.129,1.28a1.006,1.006,0,0,0-.974,1.1,1.017,1.017,0,0,0,1.139,1,3.1,3.1,0,0,0,3.061-3c.029-.744,0-1.49.011-2.235a2.121,2.121,0,0,1,1.99-2.132c.8-.073,1.159-.4,1.163-1.048S-256.023,49.431-256.812,49.359Z" transform="translate(296.692 -5.143)" fill="#083142"/>
      <path id="Trazado_197594" data-name="Trazado 197594" d="M-370.642,56.724c-.776-.1-1.054-.41-1.062-1.211-.007-.635,0-1.271,0-1.907a3.877,3.877,0,0,0-1.162-2.9c-.271-.26-.219-.368.016-.6a3.9,3.9,0,0,0,1.145-2.846c.007-.657,0-1.315,0-1.972.01-.792.284-1.087,1.082-1.19a1.016,1.016,0,0,0,1.018-1.123,1.02,1.02,0,0,0-1.159-.979,3.092,3.092,0,0,0-3.041,3.013c-.024.722,0,1.446-.008,2.169a2.12,2.12,0,0,1-2.009,2.18c-.786.071-1.151.409-1.145,1.063s.367.972,1.164,1.046a2.119,2.119,0,0,1,1.989,2.132c.014.745-.017,1.491.01,2.235a3.1,3.1,0,0,0,2.994,2.994,1.031,1.031,0,0,0,1.2-.934C-369.542,57.236-369.913,56.817-370.642,56.724Z" transform="translate(390.636 -5.141)" fill="#083142"/>
      <path id="Trazado_197595" data-name="Trazado 197595" d="M-319.669,107.95q-4.041-.008-8.081,0c-.8,0-1.225.365-1.234,1.036-.008.7.423,1.063,1.271,1.066,1.314,0,2.628,0,3.942,0,1.358,0,2.716,0,4.074,0,.8,0,1.226-.367,1.234-1.037S-318.881,107.952-319.669,107.95Z" transform="translate(351.072 -59.522)" fill="#083142"/>
      <path id="Trazado_197596" data-name="Trazado 197596" d="M-327.924,62.035c.524.019,1.05,0,1.575,0h1.444c.044,0,.088,0,.131,0a1.007,1.007,0,0,0,1.047-1.026.993.993,0,0,0-1.061-1.072q-1.575-.029-3.151,0a.983.983,0,0,0-1.046,1.02A1,1,0,0,0-327.924,62.035Z" transform="translate(351.073 -19.926)" fill="#083142"/>
      <path id="Trazado_197597" data-name="Trazado 197597" d="M-294.87,83.94c-1.006-.012-2.013-.014-3.02,0a1,1,0,0,0-1.1,1.03,1.015,1.015,0,0,0,1.134,1.069c.5.011,1.006,0,1.51,0s1.007.011,1.51,0a1.007,1.007,0,0,0,1.105-1.032A1.011,1.011,0,0,0-294.87,83.94Z" transform="translate(326.344 -39.719)" fill="#083142"/>
      <path id="Trazado_197598" data-name="Trazado 197598" d="M-285.427,59.977c-1.122,0-1.555.282-1.574,1.022-.019.768.441,1.083,1.58,1.083,1.121,0,1.556-.282,1.575-1.023C-283.827,60.292-284.287,59.977-285.427,59.977Z" transform="translate(316.456 -19.969)" fill="#083142"/>
      <path id="Trazado_197599" data-name="Trazado 197599" d="M-327.884,86.043c.153.007.306,0,.459,0s.306,0,.459,0c.728-.023,1.145-.415,1.137-1.066s-.423-1.02-1.166-1.036c-.306-.007-.613-.012-.918,0a1,1,0,0,0-1.07,1.064A1.011,1.011,0,0,0-327.884,86.043Z" transform="translate(351.072 -39.723)" fill="#083142"/>
      <path id="Trazado_197600" data-name="Trazado 197600" d="M-297.694-9.89q3.549,0,7.1,0t7.1,0c.9,0,1.347-.356,1.338-1.066-.009-.689-.438-1.036-1.3-1.037q-7.131,0-14.263,0c-.849,0-1.28.368-1.271,1.065S-298.556-9.891-297.694-9.89Z" transform="translate(326.344 39.375)" fill="#083142"/>
      <path id="Trazado_197601" data-name="Trazado 197601" d="M-393.872-9.885a1.006,1.006,0,0,0,1.016-1.049,1.007,1.007,0,0,0-1.076-1.053,1,1,0,0,0-1.026,1.036A1.067,1.067,0,0,0-393.872-9.885Z" transform="translate(405.471 39.369)" fill="#083142"/>
      <path id="Trazado_197602" data-name="Trazado 197602" d="M-369.891-9.884a1.006,1.006,0,0,0,1.027-1.038,1.007,1.007,0,0,0-1.065-1.064,1,1,0,0,0-1.037,1.025A1.065,1.065,0,0,0-369.891-9.884Z" transform="translate(385.688 39.368)" fill="#083142"/>
      <path id="Trazado_197603" data-name="Trazado 197603" d="M-345.927-9.884a1.006,1.006,0,0,0,1.051-1.013,1.009,1.009,0,0,0-1.04-1.089,1,1,0,0,0-1.062,1A1.066,1.066,0,0,0-345.927-9.884Z" transform="translate(365.909 39.368)" fill="#083142"/>
    </g>
  </g>
</svg>
