<svg xmlns="http://www.w3.org/2000/svg" width="55.168" height="55.161" viewBox="0 0 55.168 55.161">
  <g id="Grupo_1078365" data-name="Grupo 1078365" transform="translate(-1253 -873.072)">
    <path id="Trazado_216871" data-name="Trazado 216871" d="M1549.364,1153.936c0-.327-.116-.431-.4-.495-.61-.139-1.212-.319-1.825-.444-.412-.084-.447-.232-.226-.569.352-.539.654-1.111,1-1.654a.36.36,0,0,0-.073-.54q-2.144-2.119-4.263-4.263a.36.36,0,0,0-.542-.074c-.558.356-1.141.674-1.7,1.024-.278.173-.422.187-.5-.194-.138-.647-.343-1.279-.483-1.926-.058-.267-.168-.338-.426-.337-2.01.009-4.02.013-6.029,0-.3,0-.4.115-.459.372-.142.61-.318,1.212-.449,1.824-.08.37-.179.5-.551.248-.518-.35-1.083-.631-1.608-.972a.413.413,0,0,0-.631.066q-2.093,2.132-4.224,4.227a.39.39,0,0,0-.063.587c.345.544.646,1.117,1,1.654.227.344.11.448-.233.525-.628.141-1.25.313-1.875.465-.227.055-.354.132-.352.42.016,2.028.012,4.055,0,6.083,0,.236.062.338.308.392.663.146,1.315.348,1.978.5.337.076.361.2.191.471-.352.561-.669,1.144-1.027,1.7a.389.389,0,0,0,.075.586q2.127,2.1,4.223,4.228c.231.235.381.212.627.054.542-.347,1.112-.652,1.657-1,.269-.17.406-.148.482.179.177.766.368,1.529.554,2.293h6.786c.1-.82.395-1.594.563-2.4.059-.281.228-.2.4-.1.583.349,1.176.684,1.752,1.045.212.133.344.156.542-.044q2.137-2.165,4.3-4.3a.335.335,0,0,0,.063-.5c-.361-.577-.694-1.17-1.052-1.748-.165-.266-.157-.4.19-.473.646-.139,1.281-.333,1.927-.477a.387.387,0,0,0,.366-.459C1549.346,1157.92,1549.343,1155.928,1549.364,1153.936ZM1547.2,1159c-.453.106-.9.255-1.354.334-.307.053-.411.229-.568.471a2.1,2.1,0,0,0,.287,2.781c.305.349.207.588-.111.884-.734.685-1.436,1.406-2.135,2.128-.193.2-.355.275-.583.081-.054-.046-.13-.065-.183-.111a2.144,2.144,0,0,0-2.833-.237c-.195.125-.338.213-.39.449-.106.49-.245.972-.359,1.46-.055.235-.147.358-.427.353q-1.642-.027-3.284,0c-.273,0-.4-.1-.437-.346-.011-.071-.033-.141-.039-.212a2.208,2.208,0,0,0-1.843-2.18.665.665,0,0,0-.587.052c-.422.269-.859.518-1.29.773-.092.054-.188.1-.3.162-.093-.08-.192-.156-.279-.242-.75-.748-1.489-1.506-2.25-2.241-.218-.21-.3-.382-.086-.627.046-.053.063-.132.11-.183a2.112,2.112,0,0,0,.231-2.786.724.724,0,0,0-.489-.418c-.506-.112-1-.271-1.508-.384a.3.3,0,0,1-.284-.36c.01-1.113.014-2.225,0-3.338,0-.25.086-.359.312-.4a2.269,2.269,0,0,1,.315-.068,2.179,2.179,0,0,0,2.145-1.885.557.557,0,0,0-.049-.5c-.274-.441-.523-.9-.8-1.336a.367.367,0,0,1,.048-.549q1.178-1.143,2.323-2.321c.183-.188.337-.233.544-.064.068.056.166.077.23.136a2.108,2.108,0,0,0,2.789.226c.2-.122.344-.218.4-.442.11-.452.244-.9.334-1.355.068-.343.179-.508.588-.492,1.021.041,2.046.03,3.068,0,.34-.009.49.11.531.423a1.452,1.452,0,0,0,.031.158c.394,1.579.4,1.574,1.9,2.193a.482.482,0,0,0,.49-.047c.443-.271.9-.521,1.337-.8a.366.366,0,0,1,.549.045q1.142,1.179,2.321,2.323c.191.186.231.338.063.545-.056.069-.083.161-.142.227a2.1,2.1,0,0,0-.253,2.741.838.838,0,0,0,.571.472c.454.1.9.234,1.356.328a.4.4,0,0,1,.373.472c-.017,1.077-.02,2.154,0,3.23A.4.4,0,0,1,1547.2,1159Z" transform="translate(-241.195 -241.143)" fill="#083142"/>
    <path id="Trazado_216872" data-name="Trazado 216872" d="M1270.178,1160.134q-8.289.022-16.578.009c-.2,0-.393-.013-.59-.021q0,11.364-.01,22.728c0,.369.072.442.441.441q8.67-.023,17.341-.01.005-11.276.024-22.553C1270.808,1160.206,1270.638,1160.133,1270.178,1160.134Zm-1.64,21.375q-6.622-.024-13.244,0c-.392,0-.513-.085-.512-.5q.021-9.315,0-18.629c0-.343.077-.45.437-.449q6.676.02,13.352,0c.392,0,.465.124.464.486-.014,3.1-.008,6.21-.008,9.314,0,3.087-.007,6.174.009,9.261C1269.04,1181.386,1268.953,1181.511,1268.538,1181.509Z" transform="translate(0 -255.059)" fill="#083142"/>
    <path id="Trazado_216873" data-name="Trazado 216873" d="M1411.371,891.294q-1.857.7-3.714,1.394a4.449,4.449,0,0,0-2.963,4.257c-.008,1.364.014,2.728-.012,4.092-.007.394.08.5.492.5,3.391-.019,6.783-.011,10.175-.011s6.783-.009,10.175.011c.437,0,.524-.127.516-.533-.026-1.31-.006-2.62-.01-3.93a4.438,4.438,0,0,0-3.044-4.414c-1.184-.455-2.375-.895-3.562-1.344-.62-.234-.72-.7-.25-1.187a4.722,4.722,0,0,0,1.065-1.6.811.811,0,0,1,.6-.515,3.224,3.224,0,0,0,2.449-2.839,23.359,23.359,0,0,0-.071-5.531,7.991,7.991,0,0,0-15.726-.022,31.335,31.335,0,0,0-.123,4.89,3.455,3.455,0,0,0,2.639,3.541.51.51,0,0,1,.4.311,5.349,5.349,0,0,0,1.237,1.865A.628.628,0,0,1,1411.371,891.294Zm9.689,3.048c.11-.343.221-.485.585-.29a8.9,8.9,0,0,0,.849.331,2.654,2.654,0,0,1,1.763,2.578c.021.789-.013,1.579.013,2.368.012.361-.108.446-.457.445-2.816-.014-5.633-.008-8.449-.008-2.8,0-5.6-.008-8.4.009-.388,0-.54-.071-.519-.495.037-.716.005-1.435.012-2.152a2.74,2.74,0,0,1,2.011-2.84c1.041-.384,1.041-.385,1.386.658.411,1.239.849,2.47,1.218,3.721.158.538.336.534.779.293,1.02-.554,2.082-1.031,3.109-1.572a.74.74,0,0,1,.783-.008c1.112.574,2.245,1.108,3.354,1.69.3.157.371.086.463-.195C1420.057,897.362,1420.574,895.857,1421.06,894.342Zm-7.511-2.894a5.884,5.884,0,0,0,3.627-.007l-1.813,3.025Zm5.342,1.571c.55.1.694.354.46.911-.33.79-.561,1.621-.839,2.433-.041.12-.012.308-.232.3-.513-.255-1.029-.5-1.536-.769-.185-.1-.025-.222.028-.312.492-.832,1.006-1.651,1.483-2.491C1418.462,892.727,1418.673,892.978,1418.891,893.019Zm1.81-6.871c0-.956,0-1.827,0-2.7,0-.082-.036-.194.067-.233.125-.048.19.075.263.141A1.752,1.752,0,0,1,1420.7,886.149ZM1410,886.1a1.533,1.533,0,0,1-.855-1.32,1.729,1.729,0,0,1,.855-1.658Zm.913-5.03a4.52,4.52,0,0,0-1.789.467,6.163,6.163,0,0,1,3.082-5.8,5.9,5.9,0,0,1,6.55.145,6.193,6.193,0,0,1,2.839,5.689,5.74,5.74,0,0,0-2.55-.544,4.955,4.955,0,0,1-3.3-1.726c-.309-.345-.482-.315-.779.011A5.165,5.165,0,0,1,1410.913,881.072Zm.9,5.431c-.01-.538,0-1.076,0-1.614,0-.592.009-1.184,0-1.775-.005-.237.051-.329.314-.366a6.442,6.442,0,0,0,2.961-1.174.394.394,0,0,1,.557-.01,6.379,6.379,0,0,0,2.959,1.179c.306.042.329.169.327.409-.007,1.13.015,2.259-.009,3.389a3.552,3.552,0,0,1-7.1-.038Zm.293,6.414a.224.224,0,0,1,.316.1q.784,1.315,1.572,2.627l.05.086a.127.127,0,0,1-.08.176c-.065.031-.125.07-.19.1-.466.218-1.014.7-1.378.583-.4-.123-.383-.886-.566-1.364-.2-.534-.354-1.088-.554-1.624-.1-.263-.037-.388.227-.461A5.713,5.713,0,0,0,1412.1,892.917Z" transform="translate(-134.777)" fill="#083142"/>
    <path id="Trazado_216874" data-name="Trazado 216874" d="M1326.054,970.143c.454.012.6-.077.6-.574-.022-5.006-.014-10.012-.013-15.019a4.312,4.312,0,0,1,.01-.538.782.782,0,0,1,.762-.769c1.353-.03,2.708-.011,4.215-.011-.433.418-.768.732-1.092,1.056s-.892.674-.857.952c.046.371.587.669.885,1.025.216.257.343.18.541-.021,1.2-1.214,2.4-2.425,3.619-3.613.278-.271.2-.4-.03-.624-.974-.954-1.931-1.926-2.9-2.888-.317-.315-.7-.909-.956-.861-.4.074-.7.6-1.06.917-.189.168-.187.277,0,.454.585.551,1.151,1.121,1.841,1.8h-3.654c-2.07,0-3.122,1.044-3.123,3.1q0,7.186,0,14.372C1324.843,970.133,1324.843,970.112,1326.054,970.143Z" transform="translate(-63.836 -66.805)" fill="#083142"/>
    <path id="Trazado_216875" data-name="Trazado 216875" d="M1588.688,978.5c1.256-.016,2.511-.009,3.767-.006.843,0,1.131.283,1.132,1.126q0,5.247,0,10.495c0,.109.07.252-.14.355-.308-.325-.622-.666-.947-1-.3-.306-.608-.83-.925-.84-.367-.012-.628.565-.97.845-.266.218-.27.364-.011.616q1.811,1.766,3.576,3.578c.284.293.422.22.663-.028.951-.977,1.928-1.928,2.883-2.9.311-.317.886-.6.849-.97-.036-.349-.584-.631-.87-.973-.236-.284-.376-.191-.582.028-.528.562-1.077,1.1-1.731,1.769v-.684q0-5.167,0-10.333a2.7,2.7,0,0,0-2.846-2.882c-.968-.011-1.937,0-2.906,0-1.393,0-1.378,0-1.37,1.4C1588.258,978.455,1588.377,978.506,1588.688,978.5Z" transform="translate(-297.891 -92.075)" fill="#083142"/>
    <path id="Trazado_216876" data-name="Trazado 216876" d="M1427.913,1222.631c-2.043.019-4.086.009-6.275.009.419-.417.75-.737,1.071-1.067s.83-.631.852-.973c.023-.363-.571-.626-.849-.973-.214-.266-.352-.234-.583,0q-1.787,1.826-3.614,3.612c-.268.261-.207.384.022.608.988.964,1.956,1.948,2.934,2.923.3.3.6.824.925.844.383.024.63-.565.978-.841.275-.218.269-.377.007-.621-.567-.527-1.1-1.09-1.73-1.719h5.406c1.333,0,1.317,0,1.329-1.335C1428.39,1222.722,1428.287,1222.627,1427.913,1222.631Z" transform="translate(-146.912 -307.766)" fill="#083142"/>
    <path id="Trazado_216877" data-name="Trazado 216877" d="M1579.4,1192.263a7.117,7.117,0,1,0,7.115,7.115A7.153,7.153,0,0,0,1579.4,1192.263Zm0,12.462a5.333,5.333,0,1,1,5.349-5.327A5.342,5.342,0,0,1,1579.394,1204.725Z" transform="translate(-283.7 -283.618)" fill="#083142"/>
    <path id="Trazado_216878" data-name="Trazado 216878" d="M1285.318,1193.971c1.63-.016,3.261-.008,4.891-.008h4.085c1.29,0,1.271,0,1.291-1.309.006-.412-.112-.5-.508-.5-2.938.017-5.877.009-8.815.009-1.39,0-1.376,0-1.37,1.4C1284.895,1193.906,1285,1193.974,1285.318,1193.971Z" transform="translate(-28.338 -283.524)" fill="#083142"/>
    <path id="Trazado_216879" data-name="Trazado 216879" d="M1285.349,1257.839c1.63-.016,3.26-.007,4.89-.007h4.031c1.323,0,1.307,0,1.317-1.334,0-.386-.116-.469-.482-.467-2.956.015-5.912.008-8.868.008-1.353,0-1.338,0-1.342,1.37C1284.894,1257.779,1285.017,1257.842,1285.349,1257.839Z" transform="translate(-28.34 -340.279)" fill="#083142"/>
    <path id="Trazado_216880" data-name="Trazado 216880" d="M1295.341,1288.049c.058-.467-.161-.511-.548-.509-2.926.014-5.852,0-8.778.013-.442,0-1.031-.2-1.285.1-.215.254-.039.825-.074,1.252-.028.349.08.45.437.445,1.633-.02,3.267-.009,4.9-.009,1.346,0,2.693.008,4.039,0,.424,0,.986.193,1.232-.09C1295.471,1289,1295.291,1288.454,1295.341,1288.049Z" transform="translate(-28.096 -368.228)" fill="#083142"/>
    <path id="Trazado_216881" data-name="Trazado 216881" d="M1323.712,1224.094c0-.362-.139-.4-.442-.4-1.041.016-2.082.006-3.123.006-.736,0-1.472-.014-2.207.005-.442.012-1.028-.205-1.283.1-.215.256-.041.824-.075,1.251-.028.348.079.452.438.448,1.776-.019,3.553-.009,5.33-.009C1323.743,1225.5,1323.727,1225.5,1323.712,1224.094Z" transform="translate(-56.466 -311.501)" fill="#083142"/>
    <path id="Trazado_216882" data-name="Trazado 216882" d="M1292.014,1320.4c.039-.4-.077-.517-.493-.511-1.759.026-3.518.011-5.276.011-1.389,0-1.379,0-1.36,1.409,0,.3.08.391.386.386,1.076-.019,2.154-.007,3.23-.007.736,0,1.472.012,2.208,0,.424-.01.985.192,1.231-.089C1292.146,1321.352,1291.974,1320.8,1292.014,1320.4Z" transform="translate(-28.327 -397.016)" fill="#083142"/>
    <path id="Trazado_216883" data-name="Trazado 216883" d="M1286.772,1225.049c0-.886,0-.886-.863-.886-.926,0-.926,0-.926.917,0,.879,0,.879.9.879C1286.772,1225.959,1286.772,1225.959,1286.772,1225.049Z" transform="translate(-28.419 -311.962)" fill="#083142"/>
    <path id="Trazado_216884" data-name="Trazado 216884" d="M1365.784,1319.985c-.893,0-.893,0-.893.9s0,.891.879.891.888,0,.888-.88C1366.657,1319.985,1366.657,1319.985,1365.784,1319.985Z" transform="translate(-99.421 -397.105)" fill="#083142"/>
    <path id="Trazado_216885" data-name="Trazado 216885" d="M1607.782,1224.224a3.553,3.553,0,1,0,.017,7.107,3.553,3.553,0,0,0-.017-7.107Zm.02,5.342a1.777,1.777,0,0,1-1.782-1.77,1.756,1.756,0,0,1,1.76-1.783,1.779,1.779,0,0,1,1.792,1.761A1.8,1.8,0,0,1,1607.8,1229.566Z" transform="translate(-312.085 -312.016)" fill="#083142"/>
  </g>
</svg>
