<svg xmlns="http://www.w3.org/2000/svg" width="56.806" height="57.083" viewBox="0 0 56.806 57.083">
  <g id="Grupo_1078368" data-name="Grupo 1078368" transform="translate(-1339.125 -888.248)">
    <path id="Trazado_216886" data-name="Trazado 216886" d="M1345.836,912.185c1.927.03,3.854.006,5.842.006a11.932,11.932,0,0,0-1.027,8.208,11.729,11.729,0,0,0,4.5,6.883,11.9,11.9,0,0,0,14.036.2,11.709,11.709,0,0,0,4.43-5.911,11.893,11.893,0,0,0-.69-9.375c1.841,0,3.622,0,5.4,0a11.458,11.458,0,0,0,1.333-.075,6.422,6.422,0,0,0,1.659-12.315c-.489-.2-1.2-.184-1.462-.53-.285-.382-.138-1.07-.226-1.618a9.227,9.227,0,0,0-10.535-7.441,9.467,9.467,0,0,0-5.136,2.7c-.094-.112-.18-.208-.259-.31a11.029,11.029,0,0,0-6.321-4.078,5.236,5.236,0,0,1-1.266-.272h-2.452a.6.6,0,0,1-.177.1,11.015,11.015,0,0,0-9.587,10.791c-.01.385-.174.481-.477.6a6.405,6.405,0,0,0-3.169,9.359A6.316,6.316,0,0,0,1345.836,912.185Zm16.4,15.636a10.125,10.125,0,1,1,10.175-10.113A10.11,10.11,0,0,1,1362.24,927.821Zm-17.384-26.6a4.6,4.6,0,0,1,5.448,4.095c.032.38.149.479.486.435a2.585,2.585,0,0,1,.334,0c1.174,0,1.174,0,.948-1.176a6.444,6.444,0,0,0-5.907-5.25c-.393-.03-.428-.167-.421-.494a9.209,9.209,0,0,1,7.452-8.561,9.05,9.05,0,0,1,9.234,3.706.754.754,0,0,1,.073.982,8.9,8.9,0,0,0-1.119,3.92c-.021.3.025.444.37.421.444-.03.964.13,1.317-.052.4-.2.178-.794.255-1.208a7.367,7.367,0,0,1,14.624,1.471,6.438,6.438,0,0,1-.634,2.742c-.179.36-.111.537.252.645a.915.915,0,0,1,.149.075c1.136.585,1.136.586,1.547-.616.048-.14.092-.281.134-.423.229-.778.229-.779.972-.524a4.582,4.582,0,0,1-1.33,8.917c-1.132.027-2.266,0-3.4,0v.006c-1.17,0-2.34-.006-3.51,0a.765.765,0,0,1-.666-.287,11.88,11.88,0,0,0-18.322-.009.715.715,0,0,1-.605.3c-2.284-.012-4.569.012-6.853-.014a4.6,4.6,0,0,1-.828-9.108Z" transform="translate(-0.146 0)" fill="#083142"/>
    <path id="Trazado_216887" data-name="Trazado 216887" d="M1395.808,897.888c-.476-.546-.929-1.111-1.393-1.667l-3.725-4.463c-1.49,1.789-2.954,3.54-4.411,5.3-.291.351-.849.708-.782,1.066s.636.619.985.923a.361.361,0,0,1,.043.035c.2.239.336.162.509-.052.571-.708,1.16-1.4,1.743-2.1l.984-1.177v.643q0,7.69.006,15.381a1.9,1.9,0,0,1-.269.995,71.124,71.124,0,0,1-21.661,23.351c-5.486,3.773-11.392,6.058-18.136,5.857-1.355-.041-1.338-.006-1.356,1.342-.006.418.1.52.523.524a33.681,33.681,0,0,0,8.677-.882c0,1.082-.025,2.085.011,3.085.016.445-.122.541-.549.54q-8.331-.022-16.663-.01c-1.2,0-1.171,0-1.219,1.206-.022.544.127.654.659.654q25.579-.024,51.158,0c.554,0,.692-.119.692-.686q-.027-25.635-.011-51.27c0-.2-.069-.423.081-.633.678.814,1.326,1.6,1.988,2.381.3.35.545.967.916.969s.72-.519,1.081-.81a.94.94,0,0,1,.087-.07C1395.987,898.188,1395.965,898.067,1395.808,897.888Zm-34.037,48.7c-.666-.026-1.335-.022-2,0-.3.009-.375-.088-.371-.376.015-1.131.011-2.262,0-3.392,0-.25.048-.391.321-.477.7-.223,1.4-.475,2.085-.75.29-.116.355-.053.352.233-.009.741,0,1.483,0,2.224,0,.7-.01,1.409.005,2.113C1362.166,946.448,1362.115,946.6,1361.771,946.584Zm4.675,0c-.723-.009-1.447-.01-2.17,0-.221,0-.283-.072-.283-.286.007-1.818,0-3.636,0-5.454a.339.339,0,0,1,.182-.359c.84-.461,1.669-.942,2.588-1.465,0,2.469,0,4.858,0,7.246C1366.772,946.509,1366.679,946.582,1366.446,946.579Zm4.412.008c-.628-.043-1.261-.022-1.891-.006-.286.007-.385-.081-.383-.378.01-2.708.006-5.416.005-8.125a.4.4,0,0,1,.156-.386c.849-.581,1.693-1.171,2.612-1.81v.5c0,3.228-.008,6.455.01,9.683C1371.37,946.47,1371.291,946.617,1370.859,946.587Zm4.522,0a16.338,16.338,0,0,0-1.78,0c-.327.014-.4-.107-.4-.413q.014-5.677,0-11.355a.64.64,0,0,1,.249-.571c.81-.646,1.6-1.315,2.5-2.059v.589c0,4.416-.009,8.832.012,13.247C1375.969,946.5,1375.832,946.616,1375.381,946.586Zm4.555,0a11.356,11.356,0,0,0-1.614,0c-.408.028-.526-.079-.522-.508.022-2.914.011-5.829.011-8.743,0-2.116.006-4.232-.007-6.349a1.033,1.033,0,0,1,.332-.825c.777-.764,1.52-1.564,2.276-2.35l.162.116v6.451c0,3.861-.012,7.723.014,11.583C1380.592,946.5,1380.425,946.621,1379.935,946.585Zm4.608,0a12.287,12.287,0,0,0-1.671,0c-.408.026-.482-.129-.481-.5q.018-7.161.008-14.322c0-1.82.011-3.641-.009-5.461a1.294,1.294,0,0,1,.36-.939c.8-.9,1.563-1.833,2.421-2.845v.663q0,11.4.014,22.793C1385.187,946.5,1385.027,946.62,1384.543,946.585Zm4.6,0c-.59-.045-1.187-.02-1.781-.007-.258.006-.386-.074-.356-.347a2.578,2.578,0,0,0,0-.278q0-12.7-.007-25.392a1.6,1.6,0,0,1,.306-.972c.809-1.162,1.594-2.342,2.458-3.618v.643q0,14.673.012,29.345C1389.775,946.474,1389.643,946.625,1389.141,946.587Z" transform="translate(0 -3.105)" fill="#083142"/>
    <path id="Trazado_216888" data-name="Trazado 216888" d="M1340.145,1233.264c.969,0,.969,0,.969-.953,0-.9,0-.9-.9-.9-.956,0-.956,0-.956.942C1339.263,1233.264,1339.263,1233.264,1340.145,1233.264Z" transform="translate(-0.122 -303.585)" fill="#083142"/>
    <path id="Trazado_216889" data-name="Trazado 216889" d="M1372.081,1231.407c-.9,0-.9,0-.9.893,0,.963,0,.963.946.963.908,0,.908,0,.908-.9C1373.038,1231.407,1373.038,1231.407,1372.081,1231.407Z" transform="translate(-28.362 -303.585)" fill="#083142"/>
    <path id="Trazado_216890" data-name="Trazado 216890" d="M1404.956,1232.275c0-.869,0-.869-.877-.869-.98,0-.98,0-.98.979,0,.878,0,.878.867.878C1404.956,1233.263,1404.956,1233.263,1404.956,1232.275Z" transform="translate(-56.597 -303.584)" fill="#083142"/>
    <path id="Trazado_216891" data-name="Trazado 216891" d="M1371.185,1264.265c0,.915,0,.915.883.915.971,0,.971,0,.971-.951,0-.908,0-.908-.895-.908C1371.185,1263.321,1371.185,1263.321,1371.185,1264.265Z" transform="translate(-28.363 -331.818)" fill="#083142"/>
    <path id="Trazado_216892" data-name="Trazado 216892" d="M1404.029,1265.18c.927,0,.927,0,.927-.939,0-.92,0-.92-.939-.92-.917,0-.917,0-.917.932S1403.1,1265.18,1404.029,1265.18Z" transform="translate(-56.597 -331.818)" fill="#083142"/>
    <path id="Trazado_216893" data-name="Trazado 216893" d="M1403.983,1297.1c.973,0,.973,0,.973-.949v-.056c0-.855,0-.855-.838-.855-1.019,0-1.019,0-1.019,1C1403.1,1297.1,1403.1,1297.1,1403.983,1297.1Z" transform="translate(-56.597 -360.053)" fill="#083142"/>
    <path id="Trazado_216894" data-name="Trazado 216894" d="M1501.612,1071.806a8.634,8.634,0,0,0-4.552,1.121c-.979.574-.977.577-.274,1.483a1.774,1.774,0,0,1,.168.221c.185.337.362.327.685.109a6.435,6.435,0,0,1,9.261,8.348c-.174.333-.612.656-.506.966s.59.474.86.749c.392.4.607.249.856-.156a8.018,8.018,0,0,0,.348-8.5A7.92,7.92,0,0,0,1501.612,1071.806Z" transform="translate(-139.039 -162.389)" fill="#083142"/>
    <path id="Trazado_216895" data-name="Trazado 216895" d="M1479.721,1111.582a2.413,2.413,0,0,1-.443-.569c-.2-.348-.375-.356-.721-.122a6.369,6.369,0,0,1-7.818-.55,6.457,6.457,0,0,1-1.451-7.768c.179-.35.665-.662.51-1.029-.139-.329-.618-.5-.913-.782s-.47-.265-.7.1a8,8,0,0,0-.519,8.441,7.914,7.914,0,0,0,6.844,4.513,8.834,8.834,0,0,0,5.054-1.349C1479.98,1112.2,1480.161,1111.981,1479.721,1111.582Z" transform="translate(-112.861 -187.832)" fill="#083142"/>
    <path id="Trazado_216896" data-name="Trazado 216896" d="M1516.334,1096.953a2.713,2.713,0,0,0-1.409,2.949,2.769,2.769,0,0,0,2.379,2.182,5.461,5.461,0,0,1,.552.075.846.846,0,0,1,.694.832.868.868,0,0,1-.658.924.75.75,0,0,1-1-.388c-.179-.559-.547-.488-.946-.479a4.2,4.2,0,0,1-.668,0c-.4-.056-.433.145-.371.452a2.788,2.788,0,0,0,1.472,1.984c.166.09.325.129.332.376.009.284-.159.673.1.829.222.132.578.038.875.042a3.607,3.607,0,0,1,.445,0c.347.049.485-.091.427-.432a.811.811,0,0,1,.514-.95,2.667,2.667,0,0,0,1.255-2.915,2.8,2.8,0,0,0-2.476-2.151,2.132,2.132,0,0,1-.442-.038.886.886,0,0,1-.694-.9.843.843,0,0,1,.66-.86.789.789,0,0,1,1.031.427c.157.443.414.481.787.455a4.816,4.816,0,0,1,.835,0c.333.035.377-.125.334-.393a2.614,2.614,0,0,0-1.365-1.988c-.352-.189-.5-.387-.437-.758.07-.426-.081-.624-.533-.548a2.368,2.368,0,0,1-.39,0,1.641,1.641,0,0,1-.278,0c-.517-.09-.768.082-.661.641C1516.764,1096.635,1516.631,1096.8,1516.334,1096.953Z" transform="translate(-155.48 -183.493)" fill="#083142"/>
  </g>
</svg>
