<svg xmlns="http://www.w3.org/2000/svg" xmlns:xlink="http://www.w3.org/1999/xlink" width="505" height="312.363" viewBox="0 0 505 312.363">
  <defs>
    <clipPath id="clip-path">
      <path id="Trazado_165434" data-name="Trazado 165434" d="M0,4.151A4.149,4.149,0,1,0,4.148,0,4.148,4.148,0,0,0,0,4.151" fill="#2efec7"/>
    </clipPath>
    <clipPath id="clip-path-2">
      <path id="Trazado_165438" data-name="Trazado 165438" d="M4.147,0A4.148,4.148,0,1,0,8.3,4.15,4.148,4.148,0,0,0,4.147,0Z" fill="#2efec7"/>
    </clipPath>
    <clipPath id="clip-path-3">
      <path id="Trazado_165440" data-name="Trazado 165440" d="M0,4.151A4.148,4.148,0,1,0,4.148,0,4.149,4.149,0,0,0,0,4.151" fill="#2efec7"/>
    </clipPath>
    <clipPath id="clip-path-4">
      <path id="Trazado_165442" data-name="Trazado 165442" d="M0,4.149A4.148,4.148,0,1,0,4.148,0,4.148,4.148,0,0,0,0,4.149" fill="#2efec7"/>
    </clipPath>
    <clipPath id="clip-path-5">
      <path id="Trazado_165444" data-name="Trazado 165444" d="M4.146,0A4.148,4.148,0,1,0,8.3,4.149,4.147,4.147,0,0,0,4.146,0Z" fill="#2efec7"/>
    </clipPath>
    <clipPath id="clip-path-6">
      <path id="Trazado_165446" data-name="Trazado 165446" d="M0,4.151A4.149,4.149,0,1,0,4.148,0,4.149,4.149,0,0,0,0,4.151" fill="#2efec7"/>
    </clipPath>
    <clipPath id="clip-path-7">
      <path id="Trazado_165448" data-name="Trazado 165448" d="M0,4.149A4.149,4.149,0,1,0,4.15,0h0A4.153,4.153,0,0,0,0,4.149" fill="#2efec7"/>
    </clipPath>
    <clipPath id="clip-path-8">
      <path id="Trazado_165450" data-name="Trazado 165450" d="M4.146,0A4.148,4.148,0,1,0,8.3,4.15,4.147,4.147,0,0,0,4.146,0Z" fill="#2efec7"/>
    </clipPath>
    <clipPath id="clip-path-9">
      <path id="Trazado_165452" data-name="Trazado 165452" d="M0,4.151A4.148,4.148,0,1,0,4.147,0,4.148,4.148,0,0,0,0,4.151" fill="#2efec7"/>
    </clipPath>
    <clipPath id="clip-path-10">
      <path id="Trazado_165454" data-name="Trazado 165454" d="M0,4.149A4.148,4.148,0,1,0,4.147,0,4.147,4.147,0,0,0,0,4.149" fill="#2efec7"/>
    </clipPath>
    <clipPath id="clip-path-12">
      <path id="Trazado_165436" data-name="Trazado 165436" d="M0,4.149A4.149,4.149,0,1,0,4.149,0h0A4.153,4.153,0,0,0,0,4.149" fill="#2efec7"/>
    </clipPath>
  </defs>
  <g id="Grupo_1078879" data-name="Grupo 1078879" transform="translate(-810 -2791.313)">
    <g id="Grupo_1078797" data-name="Grupo 1078797" transform="translate(0 -1847.919)">
      <g id="Grupo_1078481" data-name="Grupo 1078481" transform="translate(805.949 4646.483)">
        <rect id="Rectángulo_373681" data-name="Rectángulo 373681" width="12.041" height="70.838" rx="6.021" transform="translate(500.537 0) rotate(45)" fill="#ffb476"/>
        <g id="Grupo_1065536" data-name="Grupo 1065536" transform="translate(433.332 284.035) rotate(-90)">
          <g id="Group_881454" data-name="Group 881454" transform="translate(0 67.421)">
            <g id="Grupo_108438" data-name="Grupo 108438">
              <path id="Trazado_165433" data-name="Trazado 165433" d="M0,4.151A4.149,4.149,0,1,0,4.148,0,4.148,4.148,0,0,0,0,4.151" fill="#2efec7"/>
              <g id="Grupo_108437" data-name="Grupo 108437" clip-path="url(#clip-path)">
                <g id="Group_881453" data-name="Group 881453" transform="translate(0 0)">
                  <rect id="Rectangle_298909" data-name="Rectangle 298909" width="8.297" height="8.297" fill="#2efec7"/>
                </g>
              </g>
            </g>
          </g>
          <g id="Group_881458" data-name="Group 881458" transform="translate(0.001)">
            <g id="Grupo_108442" data-name="Grupo 108442">
              <path id="Trazado_165437" data-name="Trazado 165437" d="M4.147,0A4.148,4.148,0,1,0,8.3,4.15,4.148,4.148,0,0,0,4.147,0Z" fill="#2efec7"/>
              <g id="Grupo_108441" data-name="Grupo 108441" clip-path="url(#clip-path-2)">
                <g id="Group_881457" data-name="Group 881457" transform="translate(-0.001 0.001)">
                  <rect id="Rectangle_298911" data-name="Rectangle 298911" width="8.297" height="8.295" fill="#2efec7"/>
                </g>
              </g>
            </g>
          </g>
          <g id="Group_881460" data-name="Group 881460" transform="translate(28.117 67.421)">
            <g id="Grupo_108444" data-name="Grupo 108444">
              <path id="Trazado_165439" data-name="Trazado 165439" d="M0,4.151A4.148,4.148,0,1,0,4.148,0,4.149,4.149,0,0,0,0,4.151" fill="#2efec7"/>
              <g id="Grupo_108443" data-name="Grupo 108443" clip-path="url(#clip-path-3)">
                <g id="Group_881459" data-name="Group 881459" transform="translate(0 0)">
                  <rect id="Rectangle_298912" data-name="Rectangle 298912" width="8.297" height="8.297" fill="#2efec7"/>
                </g>
              </g>
            </g>
          </g>
          <g id="Group_881462" data-name="Group 881462" transform="translate(28.117 35.091)">
            <g id="Grupo_108446" data-name="Grupo 108446">
              <path id="Trazado_165441" data-name="Trazado 165441" d="M0,4.149A4.148,4.148,0,1,0,4.148,0,4.148,4.148,0,0,0,0,4.149" fill="#2efec7"/>
              <g id="Grupo_108445" data-name="Grupo 108445" clip-path="url(#clip-path-4)">
                <g id="Group_881461" data-name="Group 881461" transform="translate(0 0)">
                  <rect id="Rectangle_298913" data-name="Rectangle 298913" width="8.297" height="8.297" fill="#2efec7"/>
                </g>
              </g>
            </g>
          </g>
          <g id="Group_881464" data-name="Group 881464" transform="translate(28.119)">
            <g id="Grupo_108448" data-name="Grupo 108448">
              <path id="Trazado_165443" data-name="Trazado 165443" d="M4.146,0A4.148,4.148,0,1,0,8.3,4.149,4.147,4.147,0,0,0,4.146,0Z" fill="#2efec7"/>
              <g id="Grupo_108447" data-name="Grupo 108447" clip-path="url(#clip-path-5)">
                <g id="Group_881463" data-name="Group 881463" transform="translate(-0.002 0.001)">
                  <rect id="Rectangle_298914" data-name="Rectangle 298914" width="8.297" height="8.295" fill="#2efec7"/>
                </g>
              </g>
            </g>
          </g>
          <g id="Group_881454-2" data-name="Group 881454" transform="translate(57.451 67.421)">
            <g id="Grupo_108450" data-name="Grupo 108450">
              <path id="Trazado_165445" data-name="Trazado 165445" d="M0,4.151A4.149,4.149,0,1,0,4.148,0,4.149,4.149,0,0,0,0,4.151" fill="#2efec7"/>
              <g id="Grupo_108449" data-name="Grupo 108449" clip-path="url(#clip-path-6)">
                <g id="Group_881453-2" data-name="Group 881453" transform="translate(0 0)">
                  <rect id="Rectangle_298909-2" data-name="Rectangle 298909" width="8.297" height="8.297" fill="#2efec7"/>
                </g>
              </g>
            </g>
          </g>
          <g id="Group_881456" data-name="Group 881456" transform="translate(57.451 35.091)">
            <g id="Grupo_108452" data-name="Grupo 108452">
              <path id="Trazado_165447" data-name="Trazado 165447" d="M0,4.149A4.149,4.149,0,1,0,4.15,0h0A4.153,4.153,0,0,0,0,4.149" fill="#2efec7"/>
              <g id="Grupo_108451" data-name="Grupo 108451" clip-path="url(#clip-path-7)">
                <g id="Group_881455" data-name="Group 881455" transform="translate(0 0)">
                  <rect id="Rectangle_298910" data-name="Rectangle 298910" width="8.297" height="8.297" fill="#2efec7"/>
                </g>
              </g>
            </g>
          </g>
          <g id="Group_881458-2" data-name="Group 881458" transform="translate(57.453)">
            <g id="Grupo_108454" data-name="Grupo 108454">
              <path id="Trazado_165449" data-name="Trazado 165449" d="M4.146,0A4.148,4.148,0,1,0,8.3,4.15,4.147,4.147,0,0,0,4.146,0Z" fill="#2efec7"/>
              <g id="Grupo_108453" data-name="Grupo 108453" clip-path="url(#clip-path-8)">
                <g id="Group_881457-2" data-name="Group 881457" transform="translate(-0.001 0.001)">
                  <rect id="Rectangle_298911-2" data-name="Rectangle 298911" width="8.297" height="8.295" fill="#2efec7"/>
                </g>
              </g>
            </g>
          </g>
          <g id="Group_881460-2" data-name="Group 881460" transform="translate(85.569 67.421)">
            <g id="Grupo_108456" data-name="Grupo 108456">
              <path id="Trazado_165451" data-name="Trazado 165451" d="M0,4.151A4.148,4.148,0,1,0,4.147,0,4.148,4.148,0,0,0,0,4.151" fill="#2efec7"/>
              <g id="Grupo_108455" data-name="Grupo 108455" clip-path="url(#clip-path-9)">
                <g id="Group_881459-2" data-name="Group 881459" transform="translate(0 0)">
                  <rect id="Rectangle_298912-2" data-name="Rectangle 298912" width="8.297" height="8.297" fill="#2efec7"/>
                </g>
              </g>
            </g>
          </g>
          <g id="Group_881462-2" data-name="Group 881462" transform="translate(85.569 35.091)">
            <g id="Grupo_108458" data-name="Grupo 108458">
              <path id="Trazado_165453" data-name="Trazado 165453" d="M0,4.149A4.148,4.148,0,1,0,4.147,0,4.147,4.147,0,0,0,0,4.149" fill="#2efec7"/>
              <g id="Grupo_108457" data-name="Grupo 108457" clip-path="url(#clip-path-10)">
                <g id="Group_881461-2" data-name="Group 881461" transform="translate(0 0)">
                  <rect id="Rectangle_298913-2" data-name="Rectangle 298913" width="8.297" height="8.297" fill="#2efec7"/>
                </g>
              </g>
            </g>
          </g>
          <g id="Group_881464-2" data-name="Group 881464" transform="translate(85.57)">
            <g id="Grupo_108460" data-name="Grupo 108460">
              <path id="Trazado_165455" data-name="Trazado 165455" d="M4.146,0A4.148,4.148,0,1,0,8.3,4.149,4.147,4.147,0,0,0,4.146,0Z" fill="#2efec7"/>
              <g id="Grupo_108459" data-name="Grupo 108459" clip-path="url(#clip-path-5)">
                <g id="Group_881463-2" data-name="Group 881463" transform="translate(-0.001 0.001)">
                  <rect id="Rectangle_298914-2" data-name="Rectangle 298914" width="8.297" height="8.295" fill="#2efec7"/>
                </g>
              </g>
            </g>
          </g>
          <g id="Group_881456-2" data-name="Group 881456" transform="translate(0 35.091)">
            <g id="Grupo_108440" data-name="Grupo 108440">
              <path id="Trazado_165435" data-name="Trazado 165435" d="M0,4.149A4.149,4.149,0,1,0,4.149,0h0A4.153,4.153,0,0,0,0,4.149" fill="#2efec7"/>
              <g id="Grupo_108439" data-name="Grupo 108439" clip-path="url(#clip-path-12)">
                <g id="Group_881455-2" data-name="Group 881455" transform="translate(0 0)">
                  <rect id="Rectangle_298910-2" data-name="Rectangle 298910" width="8.297" height="8.297" fill="#2efec7"/>
                </g>
              </g>
            </g>
          </g>
        </g>
        <rect id="Rectángulo_373680" data-name="Rectángulo 373680" width="12.987" height="102.47" rx="6.494" transform="translate(76.508 202.395) rotate(45)" fill="#ff6148"/>
      </g>
    </g>
    <g id="Grupo_1078878" data-name="Grupo 1078878" transform="translate(-28)">
      <path id="Trazado_827794" data-name="Trazado 827794" d="M3635.918,58.445,3620.554,43l-2.891,2.932-3.511-3.469a7.106,7.106,0,0,0,.455-.578c7.723-10.573,7.1-25.07-2.106-34.28a26.094,26.094,0,1,0-18.421,44.523,27.384,27.384,0,0,0,15.818-5.493,3.129,3.129,0,0,0,.578-.454l3.428,3.469-2.891,2.85L3626.46,67.9a6.731,6.731,0,0,0,9.458,0,6.706,6.706,0,0,0,0-9.458m-27.672-18.214a20.042,20.042,0,0,1-28.374.041,19.856,19.856,0,0,1-5.865-14.208A20.094,20.094,0,0,1,3594.08,5.992a19.622,19.622,0,0,1,14.167,5.865,19.856,19.856,0,0,1,5.865,14.207,19.623,19.623,0,0,1-5.865,14.167m6.689,8.391-3.387-3.387a7.072,7.072,0,0,0,1.631-1.689l3.469,3.428Z" transform="translate(-2407.87 2823.924)" fill="#12263f"/>
      <path id="Trazado_827795" data-name="Trazado 827795" d="M5625.78,3242.353a1.541,1.541,0,0,1-1.089-2.63l14.546-14.546a1.54,1.54,0,0,1,2.179,2.178l-14.546,14.546a1.535,1.535,0,0,1-1.089.451" transform="translate(-4447.07 -312.074)" fill="#12263f"/>
      <path id="Trazado_827796" data-name="Trazado 827796" d="M5640.327,3242.353a1.537,1.537,0,0,1-1.09-.451l-14.546-14.546a1.54,1.54,0,1,1,2.178-2.178l14.546,14.546a1.541,1.541,0,0,1-1.089,2.63" transform="translate(-4447.07 -312.074)" fill="#12263f"/>
      <path id="Trazado_827797" data-name="Trazado 827797" d="M4349.518,1620.7a8.9,8.9,0,1,1,8.912-8.885,8.895,8.895,0,0,1-8.912,8.885m0-14.713a5.816,5.816,0,1,0,5.83,5.829,5.823,5.823,0,0,0-5.83-5.829" transform="translate(-3231.36 1223.964)" fill="#12263f"/>
      <path id="Trazado_827798" data-name="Trazado 827798" d="M2996.521,2018.445a6.929,6.929,0,1,1,6.94-6.92,6.927,6.927,0,0,1-6.94,6.92m0-11.459a4.53,4.53,0,1,0,4.541,4.539,4.535,4.535,0,0,0-4.541-4.539" transform="translate(-1951.792 843.526)" fill="#12263f"/>
      <path id="Trazado_827800" data-name="Trazado 827800" d="M3040.265,1117.752a1.151,1.151,0,0,1-.816-.338l-4.193-4.192a1.154,1.154,0,0,1,1.632-1.632l4.194,4.192a1.154,1.154,0,0,1-.816,1.97" transform="translate(-1994.71 1689.608)" fill="#12263f"/>
      <path id="Trazado_827801" data-name="Trazado 827801" d="M3220.762,937.255a1.149,1.149,0,0,1-.816-.338l-4.194-4.192a1.154,1.154,0,0,1,1.632-1.632l4.193,4.192a1.154,1.154,0,0,1-.816,1.97" transform="translate(-2165.66 1860.559)" fill="#12263f"/>
      <path id="Trazado_827802" data-name="Trazado 827802" d="M3036.071,937.255a1.154,1.154,0,0,1-.816-1.97l4.193-4.192a1.154,1.154,0,0,1,1.632,1.632l-4.193,4.192a1.151,1.151,0,0,1-.816.338" transform="translate(-1994.71 1860.559)" fill="#12263f"/>
      <path id="Trazado_827803" data-name="Trazado 827803" d="M3216.569,1117.752a1.154,1.154,0,0,1-.816-1.97l4.194-4.192a1.154,1.154,0,0,1,1.632,1.632l-4.193,4.192a1.15,1.15,0,0,1-.816.338" transform="translate(-2165.66 1689.608)" fill="#12263f"/>
      <path id="Trazado_827804" data-name="Trazado 827804" d="M6947.379,1696.463a1.15,1.15,0,0,1-.816-.338l-4.193-4.192A1.154,1.154,0,0,1,6944,1690.3l4.193,4.192a1.154,1.154,0,0,1-.816,1.97" transform="translate(-5695.158 1141.509)" fill="#12263f"/>
      <path id="Trazado_827805" data-name="Trazado 827805" d="M7127.877,1515.965a1.15,1.15,0,0,1-.816-.338l-4.193-4.192a1.154,1.154,0,0,1,1.632-1.632l4.193,4.192a1.154,1.154,0,0,1-.815,1.97" transform="translate(-5866.109 1312.459)" fill="#12263f"/>
      <path id="Trazado_827806" data-name="Trazado 827806" d="M6943.186,1515.965a1.154,1.154,0,0,1-.816-1.97l4.193-4.192a1.154,1.154,0,0,1,1.632,1.632l-4.193,4.192a1.149,1.149,0,0,1-.816.338" transform="translate(-5695.159 1312.459)" fill="#12263f"/>
      <path id="Trazado_827807" data-name="Trazado 827807" d="M7123.684,1696.463a1.154,1.154,0,0,1-.816-1.97l4.193-4.192a1.154,1.154,0,0,1,1.632,1.632l-4.193,4.192a1.15,1.15,0,0,1-.815.338" transform="translate(-5866.109 1141.509)" fill="#12263f"/>
      <path id="Trazado_827808" data-name="Trazado 827808" d="M7301.94,5240.215a1.152,1.152,0,0,1-.816-.338l-4.193-4.192a1.154,1.154,0,0,1,1.632-1.632l4.193,4.192a1.154,1.154,0,0,1-.815,1.97" transform="translate(-6030.966 -2214.798)" fill="#12263f"/>
      <path id="Trazado_827809" data-name="Trazado 827809" d="M7482.437,5059.718a1.148,1.148,0,0,1-.816-.338l-4.194-4.192a1.154,1.154,0,0,1,1.632-1.632l4.193,4.192a1.154,1.154,0,0,1-.815,1.97" transform="translate(-6201.916 -2043.848)" fill="#12263f"/>
      <path id="Trazado_827810" data-name="Trazado 827810" d="M7297.746,5059.718a1.154,1.154,0,0,1-.815-1.97l4.193-4.192a1.154,1.154,0,0,1,1.632,1.632l-4.193,4.192a1.15,1.15,0,0,1-.816.338" transform="translate(-6030.965 -2043.848)" fill="#12263f"/>
      <path id="Trazado_827811" data-name="Trazado 827811" d="M7478.244,5240.215a1.154,1.154,0,0,1-.815-1.97l4.193-4.192a1.154,1.154,0,0,1,1.632,1.632l-4.193,4.192a1.152,1.152,0,0,1-.816.338" transform="translate(-6201.916 -2214.798)" fill="#12263f"/>
      <path id="Trazado_827813" data-name="Trazado 827813" d="M5310.716,1515.667h-52.073a1.174,1.174,0,0,0-1.195,1.2v31.674a1.174,1.174,0,0,0,1.195,1.2h5.937v12.989a1.179,1.179,0,0,0,.757,1.115.786.786,0,0,0,.4.08,1.272,1.272,0,0,0,.956-.438l10.717-13.745h33.307a1.165,1.165,0,0,0,1.156-1.2v-31.674a1.166,1.166,0,0,0-1.156-1.2m-39.961,20.439a4.962,4.962,0,1,1,5.1-4.98,5.069,5.069,0,0,1-5.1,4.98m14.3,0a4.962,4.962,0,1,1,5.1-4.98,5.07,5.07,0,0,1-5.1,4.98m13.546,0a4.962,4.962,0,1,1,5.1-4.98,5.034,5.034,0,0,1-5.1,4.98" transform="translate(-3996.871 1370.45)" fill="#12263f"/>
      <path id="Trazado_827817" data-name="Trazado 827817" d="M503.8,2769.926a.934.934,0,0,0,0-1.3.921.921,0,0,0-1.3,0,7.953,7.953,0,0,1-11.251,0,.921.921,0,0,0-1.3,0,.934.934,0,0,0,0,1.3,9.812,9.812,0,0,0,13.847,0" transform="translate(415.891 120.151)" fill="#12263f"/>
      <path id="Trazado_827818" data-name="Trazado 827818" d="M251.205,3025.152a28.988,28.988,0,0,1-40.977,0,.918.918,0,1,0-1.3,1.3,30.855,30.855,0,0,0,43.573,0,.934.934,0,0,0,0-1.3.921.921,0,0,0-1.3,0" transform="translate(682.05 -122.803)" fill="#12263f"/>
      <path id="Trazado_827819" data-name="Trazado 827819" d="M337.085,2897.092a.935.935,0,0,0,0,1.3,21.259,21.259,0,0,0,30.018,0,.913.913,0,0,0-1.283-1.3,19.408,19.408,0,0,1-27.437,0,.921.921,0,0,0-1.3,0" transform="translate(560.669 -1.518)" fill="#12263f"/>
      <path id="Trazado_827820" data-name="Trazado 827820" d="M289.744,3927.214a2.785,2.785,0,1,1-2.785-2.785,2.789,2.789,0,0,1,2.785,2.785" transform="translate(610.533 -974.767)" fill="#12263f"/>
      <path id="Trazado_827821" data-name="Trazado 827821" d="M289.744,4125.188a2.785,2.785,0,1,1-2.785-2.785,2.789,2.789,0,0,1,2.785,2.785" transform="translate(610.533 -1162.269)" fill="#12263f"/>
      <path id="Trazado_827822" data-name="Trazado 827822" d="M289.744,4323.164a2.785,2.785,0,1,1-2.785-2.785,2.789,2.789,0,0,1,2.785,2.785" transform="translate(610.533 -1349.772)" fill="#12263f"/>
      <path id="Trazado_827823" data-name="Trazado 827823" d="M6826.489,2269.381a2.785,2.785,0,1,1-2.785-2.785,2.789,2.789,0,0,1,2.785,2.785" transform="translate(-5580.453 595.376)" fill="#12263f"/>
      <path id="Trazado_827824" data-name="Trazado 827824" d="M6826.489,2467.356a2.785,2.785,0,1,1-2.785-2.785,2.789,2.789,0,0,1,2.785,2.785" transform="translate(-5580.453 407.873)" fill="#12263f"/>
      <path id="Trazado_827825" data-name="Trazado 827825" d="M6826.489,2665.329a2.785,2.785,0,1,1-2.785-2.785,2.789,2.789,0,0,1,2.785,2.785" transform="translate(-5580.453 220.371)" fill="#12263f"/>
      <path id="Trazado_827827" data-name="Trazado 827827" d="M7456.17,4224.932a1.279,1.279,0,0,1-1.273-1.283v-27.883a1.278,1.278,0,0,1,2.556,0v27.883a1.285,1.285,0,0,1-1.283,1.283" transform="translate(-6180.896 -1230.545)" fill="#12263f"/>
      <path id="Trazado_827828" data-name="Trazado 827828" d="M7456.17,3931.178a1.279,1.279,0,0,1-1.273-1.283v-10.13a1.278,1.278,0,0,1,2.556,0v10.13a1.285,1.285,0,0,1-1.283,1.283" transform="translate(-6180.896 -969.142)" fill="#12263f"/>
      <path id="Trazado_827829" data-name="Trazado 827829" d="M4983.285,2743.165a2.785,2.785,0,1,1,2.785,2.785,2.789,2.789,0,0,1-2.785-2.785" transform="translate(-3840.02 146.652)" fill="#12263f"/>
      <path id="Trazado_827830" data-name="Trazado 827830" d="M4983.285,2545.192a2.785,2.785,0,1,1,2.785,2.785,2.789,2.789,0,0,1-2.785-2.785" transform="translate(-3840.02 334.153)" fill="#12263f"/>
      <path id="Trazado_827831" data-name="Trazado 827831" d="M4983.284,2347.218a2.785,2.785,0,1,1,2.785,2.785,2.789,2.789,0,0,1-2.785-2.785" transform="translate(-3840.02 521.656)" fill="#12263f"/>
      <path id="Trazado_827832" data-name="Trazado 827832" d="M3472.7,1585.273a2.785,2.785,0,1,1,2.785-2.785,2.789,2.789,0,0,1-2.785,2.785" transform="translate(-2406.703 1245.936)" fill="#12263f"/>
      <path id="Trazado_827833" data-name="Trazado 827833" d="M3274.729,1585.274a2.785,2.785,0,1,1,2.785-2.785,2.789,2.789,0,0,1-2.785,2.785" transform="translate(-2219.2 1245.935)" fill="#12263f"/>
      <path id="Trazado_827834" data-name="Trazado 827834" d="M3076.755,1585.275a2.785,2.785,0,1,1,2.785-2.785,2.789,2.789,0,0,1-2.785,2.785" transform="translate(-2031.697 1245.934)" fill="#12263f"/>
      <path id="Trazado_827835" data-name="Trazado 827835" d="M5842.958,5238.943a1.394,1.394,0,0,1-1.387-1.4v-86.413a1.393,1.393,0,0,1,2.786,0v86.413a1.4,1.4,0,0,1-1.4,1.4" transform="translate(-4652.906 -2135.268)" fill="#12263f"/>
      <path id="Trazado_827836" data-name="Trazado 827836" d="M6108.268,5397.942a1.4,1.4,0,0,1-1.388-1.4v-12.656a1.393,1.393,0,0,1,2.786,0v12.656a1.4,1.4,0,0,1-1.4,1.4" transform="translate(-4904.183 -2355.711)" fill="#12263f"/>
      <path id="Trazado_827837" data-name="Trazado 827837" d="M6108.268,5818.858a1.394,1.394,0,0,1-1.388-1.4v-27.612a1.393,1.393,0,0,1,2.786,0v27.612a1.4,1.4,0,0,1-1.4,1.4" transform="translate(-4904.183 -2740.2)" fill="#12263f"/>
      <path id="Trazado_827838" data-name="Trazado 827838" d="M5783.652,4859.114a4.706,4.706,0,1,1,4.715-4.7,4.7,4.7,0,0,1-4.715,4.7" transform="translate(-4593.605 -1851.098)" fill="#12263f"/>
      <path id="Trazado_827839" data-name="Trazado 827839" d="M6048.958,6491.548a4.706,4.706,0,1,1,4.715-4.694,4.7,4.7,0,0,1-4.715,4.694" transform="translate(-4844.879 -3397.186)" fill="#12263f"/>
      <path id="Trazado_827846" data-name="Trazado 827846" d="M4.694,1859.771a4.706,4.706,0,1,1,4.715-4.7,4.7,4.7,0,0,1-4.715,4.7" transform="translate(879.676 989.596)" fill="#12263f"/>
      <path id="Trazado_827849" data-name="Trazado 827849" d="M5932.3,3808.573a10.018,10.018,0,0,1-10.017,10.017h-14.09v-6.6h8.641l-16.732-16.567-16.732,16.567h8.641v6.6h-11.5a12.637,12.637,0,0,1-.5-25.263,16.372,16.372,0,0,1,31.758,0h.44a12.79,12.79,0,0,1,10.292,5.229,10.01,10.01,0,0,1,9.8,10.017" transform="translate(-4677.846 -838.87)" fill="#12263f"/>
      <path id="Trazado_827851" data-name="Trazado 827851" d="M1245.27,941.546h-24.476a6.33,6.33,0,0,0-5.139-5.139V929.2h24.883a1.089,1.089,0,0,0,1.109-1.109V895.4a1.082,1.082,0,0,0-1.109-1.072h-20.816V885.9a1.105,1.105,0,0,0-1.109-1.072H1187.3a1.081,1.081,0,0,0-1.109,1.072v42.187a1.089,1.089,0,0,0,1.109,1.109h26.177v7.247a6.248,6.248,0,0,0-5.1,5.1h-22.96a1.091,1.091,0,0,0,0,2.181h22.96a6.289,6.289,0,0,0,5.1,5.139v13.31a6.112,6.112,0,0,0-5.1,5.99,6.212,6.212,0,0,0,12.423,0,6.112,6.112,0,0,0-5.1-5.99v-13.31a6.289,6.289,0,0,0,5.1-5.139h24.476a1.091,1.091,0,0,0,0-2.181m-49.359-37.269h35.014a1.109,1.109,0,1,1,0,2.218h-35.014a1.109,1.109,0,1,1,0-2.218m0,7.173h35.014a1.112,1.112,0,0,1,1.109,1.109,1.137,1.137,0,0,1-1.109,1.109h-35.014a1.137,1.137,0,0,1-1.109-1.109,1.112,1.112,0,0,1,1.109-1.109m0,9.391a1.109,1.109,0,0,1,0-2.218h35.014a1.109,1.109,0,0,1,0,2.218Z" transform="translate(-226.342 1950.934)" fill="#12263f"/>
      <path id="Trazado_827852" data-name="Trazado 827852" d="M368.049,5763.683l8.72,11.217h-6.5l-8.69-11.217,8.69-11.186h6.5Z" transform="translate(537.224 -2706.14)" fill="#12263f"/>
      <path id="Trazado_827853" data-name="Trazado 827853" d="M1000.048,5763.683l-8.72,11.217h6.5l8.72-11.217-8.72-11.186h-6.5Z" transform="translate(-59.216 -2706.14)" fill="#12263f"/>
      <path id="Trazado_827854" data-name="Trazado 827854" d="M689.6,5647.337l12.825-35.451h-4.409l-12.825,35.451Z" transform="translate(230.727 -2572.967)" fill="#12263f"/>
      <path id="Trazado_827856" data-name="Trazado 827856" d="M3679.725,5264.372a4.89,4.89,0,1,1-4.89,4.89,4.895,4.895,0,0,1,4.89-4.89" transform="translate(-2600.78 -2243.834)" fill="#fff"/>
      <path id="Trazado_827857" data-name="Trazado 827857" d="M2210.2,5075.545v24.176a2.951,2.951,0,0,0,2.946,2.949h117.488a2.954,2.954,0,0,0,2.949-2.949v-23.356c0-.009-.006-.016-.006-.025s.006-.023.006-.036v-.758a2.951,2.951,0,0,0-2.949-2.946H2213.144a2.948,2.948,0,0,0-2.946,2.946m96.15,12.088a9.512,9.512,0,1,1,9.512,9.512,9.523,9.523,0,0,1-9.512-9.512m-23.3,0a9.511,9.511,0,1,1,9.512,9.512,9.523,9.523,0,0,1-9.512-9.512m-68.507-5.356a2.312,2.312,0,0,1,2.311-2.311h57.463a2.312,2.312,0,0,1,2.311,2.311v10.715a2.312,2.312,0,0,1-2.311,2.312h-57.463a2.312,2.312,0,0,1-2.311-2.312Z" transform="translate(-1213.614 -2062.204)" fill="#ffb476"/>
      <rect id="Rectángulo_378956" data-name="Rectángulo 378956" width="52.841" height="6.094" transform="translate(1005.548 3022.383)" fill="#fff"/>
      <rect id="Rectángulo_378957" data-name="Rectángulo 378957" width="102.785" height="5.504" transform="translate(1006.881 3000.269)" fill="#fff"/>
      <path id="Trazado_827858" data-name="Trazado 827858" d="M2758.416,6202.32h29.857v4.054h-69.591v-4.054h39.733Z" transform="translate(-1695.203 -3132.17)" fill="#ffb476"/>
      <path id="Trazado_827859" data-name="Trazado 827859" d="M3679.725,4417.11a4.888,4.888,0,1,1-4.89,4.89,4.895,4.895,0,0,1,4.89-4.89" transform="translate(-2600.78 -1441.387)" fill="#fff"/>
      <path id="Trazado_827860" data-name="Trazado 827860" d="M4120.226,5264.372a4.89,4.89,0,1,1-4.89,4.89,4.9,4.9,0,0,1,4.89-4.89" transform="translate(-3017.98 -2243.834)" fill="#fff"/>
      <rect id="Rectángulo_378958" data-name="Rectángulo 378958" width="5.257" height="20.441" transform="translate(1055.645 3045.088)" fill="#fff"/>
      <path id="Trazado_827861" data-name="Trazado 827861" d="M4120.226,4417.11a4.888,4.888,0,1,1-4.89,4.89,4.9,4.9,0,0,1,4.89-4.89" transform="translate(-3017.98 -1441.387)" fill="#fff"/>
      <rect id="Rectángulo_378959" data-name="Rectángulo 378959" width="52.841" height="6.094" transform="translate(1005.548 2977.564)" fill="#fff"/>
      <path id="Trazado_827862" data-name="Trazado 827862" d="M2213.144,4255.347h117.488a2.954,2.954,0,0,0,2.949-2.949v-24.172a2.954,2.954,0,0,0-2.949-2.949H2213.144a2.951,2.951,0,0,0-2.946,2.949V4252.4a2.951,2.951,0,0,0,2.946,2.949m93.2-15.034a9.512,9.512,0,1,1,9.512,9.509,9.523,9.523,0,0,1-9.512-9.509m-23.3,0a9.511,9.511,0,1,1,9.512,9.509,9.523,9.523,0,0,1-9.512-9.509m-68.507-5.359a2.312,2.312,0,0,1,2.311-2.312h57.463a2.312,2.312,0,0,1,2.311,2.312v10.716a2.312,2.312,0,0,1-2.311,2.311h-57.463a2.312,2.312,0,0,1-2.311-2.311Z" transform="translate(-1213.614 -1259.7)" fill="#ffb476"/>
      <path id="Trazado_827863" data-name="Trazado 827863" d="M1649.623,3006.352a23.577,23.577,0,0,0,7.291,16.668,23.949,23.949,0,0,0,17.023,6.611h1.021a7.555,7.555,0,0,1,7.257-5.54h2.729v-5.5h-2.729a7.579,7.579,0,0,1-7.568-7.571v-24.173a7.579,7.579,0,0,1,7.568-7.571H1799.7a7.581,7.581,0,0,1,7.571,7.571v24.173a7.581,7.581,0,0,1-7.571,7.571h-2.729v5.5h2.729a7.568,7.568,0,0,1,7.338,5.79,32.224,32.224,0,0,0,4.768-63.274,2.315,2.315,0,0,1-1.613-2.982,37.056,37.056,0,0,0-35.854-49.053,36.946,36.946,0,0,0-32.716,21.151,2.321,2.321,0,0,1-2.708,1.228,24.655,24.655,0,0,0-7.255-.9,25.3,25.3,0,0,0-21.41,12.519,2.31,2.31,0,0,1-1.472,1.074,2.279,2.279,0,0,1-1.79-.322,23.774,23.774,0,0,0-34.705,29.722,2.31,2.31,0,0,1-1.826,3.244,23.667,23.667,0,0,0-20.836,24.068M1792,2935.41c-5.516-5.8-13.779-8.784-24.561-8.853a2.311,2.311,0,1,1,.03-4.622c12.088.078,21.468,3.542,27.883,10.292,9.277,9.762,8.811,22.747,8.787,23.294a2.31,2.31,0,0,1-2.305,2.209c-.036,0-.069,0-.105,0a2.309,2.309,0,0,1-2.206-2.41c0-.114.415-11.552-7.523-19.906m-28.193,36.9a2.312,2.312,0,0,1,2.311-2.311h5.979a2.311,2.311,0,1,1,0,4.622h-5.979a2.312,2.312,0,0,1-2.311-2.311m-67.758,0a2.312,2.312,0,0,1,2.311-2.311h57.057a2.311,2.311,0,1,1,0,4.622h-57.057a2.312,2.312,0,0,1-2.311-2.311" transform="translate(-682.686 -18.318)" fill="#d2e1f1"/>
      <path id="Trazado_827864" data-name="Trazado 827864" d="M1562.223,2923.648a28.364,28.364,0,0,0,28.987,27.808h.659v21.582a7.579,7.579,0,0,0,7.568,7.571h51.493v20.441h-29.854a2.312,2.312,0,0,0-2.311,2.311v8.675a2.312,2.312,0,0,0,2.311,2.311h74.213a2.312,2.312,0,0,0,2.311-2.311v-8.675a2.312,2.312,0,0,0-2.311-2.311h-29.857v-20.441h51.493a7.581,7.581,0,0,0,7.571-7.571V2951.7a36.843,36.843,0,0,0,8.013-71.687,40.588,40.588,0,0,0,1.535-12.028,41.7,41.7,0,0,0-41.668-40.841c-.3,0-.6,0-.906.009a41.521,41.521,0,0,0-35.942,22.1,30.245,30.245,0,0,0-6.738-.62,29.845,29.845,0,0,0-24.034,12.828,28.374,28.374,0,0,0-42.011,25.491,28.95,28.95,0,0,0,1.474,8.456,28.275,28.275,0,0,0-22,28.245m91.019,82.024h39.736v4.053h-69.591v-4.053Zm2.311-25.063h5.257v20.441h-5.257Zm-59.061-31.747a2.948,2.948,0,0,1,2.946-2.946h117.488a2.951,2.951,0,0,1,2.949,2.946v.759c0,.012-.006.023-.006.036s.006.017.006.026v23.355a2.954,2.954,0,0,1-2.949,2.949H1599.437a2.951,2.951,0,0,1-2.946-2.949Zm113.082-7.568H1606.789v-5.5h102.785Zm-110.136-10.126a2.951,2.951,0,0,1-2.946-2.949v-24.173a2.951,2.951,0,0,1,2.946-2.949h117.488a2.954,2.954,0,0,1,2.949,2.949v24.173a2.954,2.954,0,0,1-2.949,2.949Zm-32.593-7.613a23.666,23.666,0,0,1,20.836-24.067,2.311,2.311,0,0,0,1.827-3.244,24.179,24.179,0,0,1-2.14-9.4,23.752,23.752,0,0,1,36.844-20.321,2.281,2.281,0,0,0,1.79.322,2.309,2.309,0,0,0,1.472-1.075,25.3,25.3,0,0,1,21.41-12.518,24.638,24.638,0,0,1,7.255.9,2.321,2.321,0,0,0,2.708-1.228,37.087,37.087,0,0,1,70.575,15.164,36.508,36.508,0,0,1-2,12.738,2.315,2.315,0,0,0,1.613,2.982,32.224,32.224,0,0,1-4.768,63.274,7.568,7.568,0,0,0-7.338-5.79H1714.2v-5.5h2.729a7.581,7.581,0,0,0,7.571-7.571v-24.173a7.581,7.581,0,0,0-7.571-7.571H1599.437a7.578,7.578,0,0,0-7.568,7.571v24.173a7.579,7.579,0,0,0,7.568,7.571h2.729v5.5h-2.729a7.555,7.555,0,0,0-7.257,5.54h-1.021a23.947,23.947,0,0,1-17.023-6.611,23.576,23.576,0,0,1-7.291-16.668" transform="translate(-599.908 64.479)" fill="#12263f"/>
      <path id="Trazado_827865" data-name="Trazado 827865" d="M4027.952,4339.239a9.512,9.512,0,1,0,9.512-9.512,9.522,9.522,0,0,0-9.512,9.512m4.622,0a4.89,4.89,0,1,1,4.89,4.887,4.9,4.9,0,0,1-4.89-4.887" transform="translate(-2935.219 -1358.627)" fill="#12263f"/>
      <path id="Trazado_827866" data-name="Trazado 827866" d="M3587.453,4339.239a9.511,9.511,0,1,0,9.512-9.512,9.523,9.523,0,0,0-9.512,9.512m4.622,0a4.888,4.888,0,1,1,4.89,4.887,4.9,4.9,0,0,1-4.89-4.887" transform="translate(-2518.02 -1358.627)" fill="#12263f"/>
      <path id="Trazado_827867" data-name="Trazado 827867" d="M2292.291,4366.855v10.716a2.312,2.312,0,0,0,2.311,2.311h57.464a2.311,2.311,0,0,0,2.311-2.311v-10.716a2.312,2.312,0,0,0-2.311-2.312H2294.6a2.312,2.312,0,0,0-2.311,2.312m4.622,2.311h52.841v6.094h-52.841Z" transform="translate(-1291.365 -1391.602)" fill="#12263f"/>
      <path id="Trazado_827868" data-name="Trazado 827868" d="M4027.952,5186.5a9.512,9.512,0,1,0,9.512-9.512,9.522,9.522,0,0,0-9.512,9.512m4.622,0a4.89,4.89,0,1,1,4.89,4.89,4.9,4.9,0,0,1-4.89-4.89" transform="translate(-2935.219 -2161.076)" fill="#12263f"/>
      <path id="Trazado_827869" data-name="Trazado 827869" d="M3587.453,5186.5a9.511,9.511,0,1,0,9.512-9.512,9.523,9.523,0,0,0-9.512,9.512m4.622,0a4.888,4.888,0,1,1,4.89,4.89,4.9,4.9,0,0,1-4.89-4.89" transform="translate(-2518.02 -2161.076)" fill="#12263f"/>
      <path id="Trazado_827870" data-name="Trazado 827870" d="M2292.291,5214.173v10.715a2.311,2.311,0,0,0,2.311,2.311h57.464a2.311,2.311,0,0,0,2.311-2.311v-10.715a2.311,2.311,0,0,0-2.311-2.311H2294.6a2.312,2.312,0,0,0-2.311,2.311m4.622,2.311h52.841v6.094h-52.841Z" transform="translate(-1291.365 -2194.102)" fill="#12263f"/>
      <path id="Trazado_827871" data-name="Trazado 827871" d="M3835.911,3058.352a2.311,2.311,0,0,1,.03-4.623c12.088.079,21.468,3.542,27.883,10.292,9.277,9.762,8.811,22.747,8.787,23.294a2.31,2.31,0,0,1-2.305,2.208c-.036,0-.069,0-.105,0a2.309,2.309,0,0,1-2.206-2.411c0-.114.415-11.552-7.523-19.905-5.516-5.805-13.779-8.784-24.561-8.853" transform="translate(-2751.161 -150.112)" fill="#12263f"/>
      <path id="Trazado_827872" data-name="Trazado 827872" d="M2529.671,3962.614h57.057a2.311,2.311,0,0,1,0,4.622h-57.057a2.311,2.311,0,1,1,0-4.622" transform="translate(-1514 -1010.932)" fill="#12263f"/>
      <path id="Trazado_827873" data-name="Trazado 827873" d="M3810.667,3962.614h5.979a2.311,2.311,0,0,1,0,4.622h-5.979a2.311,2.311,0,1,1,0-4.622" transform="translate(-2727.238 -1010.932)" fill="#12263f"/>
    </g>
  </g>
</svg>
