<svg xmlns="http://www.w3.org/2000/svg" xmlns:xlink="http://www.w3.org/1999/xlink" width="505" height="284.035" viewBox="0 0 505 284.035">
  <defs>
    <clipPath id="clip-path">
      <path id="Trazado_165434" data-name="Trazado 165434" d="M0,4.151A4.149,4.149,0,1,0,4.148,0,4.148,4.148,0,0,0,0,4.151" fill="#2efec7"/>
    </clipPath>
    <clipPath id="clip-path-2">
      <path id="Trazado_165438" data-name="Trazado 165438" d="M4.147,0A4.148,4.148,0,1,0,8.3,4.15,4.148,4.148,0,0,0,4.147,0Z" fill="#2efec7"/>
    </clipPath>
    <clipPath id="clip-path-3">
      <path id="Trazado_165440" data-name="Trazado 165440" d="M0,4.151A4.148,4.148,0,1,0,4.148,0,4.149,4.149,0,0,0,0,4.151" fill="#2efec7"/>
    </clipPath>
    <clipPath id="clip-path-4">
      <path id="Trazado_165442" data-name="Trazado 165442" d="M0,4.149A4.148,4.148,0,1,0,4.148,0,4.148,4.148,0,0,0,0,4.149" fill="#2efec7"/>
    </clipPath>
    <clipPath id="clip-path-5">
      <path id="Trazado_165444" data-name="Trazado 165444" d="M4.146,0A4.148,4.148,0,1,0,8.3,4.149,4.147,4.147,0,0,0,4.146,0Z" fill="#2efec7"/>
    </clipPath>
    <clipPath id="clip-path-6">
      <path id="Trazado_165446" data-name="Trazado 165446" d="M0,4.151A4.149,4.149,0,1,0,4.148,0,4.149,4.149,0,0,0,0,4.151" fill="#2efec7"/>
    </clipPath>
    <clipPath id="clip-path-7">
      <path id="Trazado_165448" data-name="Trazado 165448" d="M0,4.149A4.149,4.149,0,1,0,4.15,0h0A4.153,4.153,0,0,0,0,4.149" fill="#2efec7"/>
    </clipPath>
    <clipPath id="clip-path-8">
      <path id="Trazado_165450" data-name="Trazado 165450" d="M4.146,0A4.148,4.148,0,1,0,8.3,4.15,4.147,4.147,0,0,0,4.146,0Z" fill="#2efec7"/>
    </clipPath>
    <clipPath id="clip-path-9">
      <path id="Trazado_165452" data-name="Trazado 165452" d="M0,4.151A4.148,4.148,0,1,0,4.147,0,4.148,4.148,0,0,0,0,4.151" fill="#2efec7"/>
    </clipPath>
    <clipPath id="clip-path-10">
      <path id="Trazado_165454" data-name="Trazado 165454" d="M0,4.149A4.148,4.148,0,1,0,4.147,0,4.147,4.147,0,0,0,0,4.149" fill="#2efec7"/>
    </clipPath>
    <clipPath id="clip-path-12">
      <path id="Trazado_165436" data-name="Trazado 165436" d="M0,4.149A4.149,4.149,0,1,0,4.149,0h0A4.153,4.153,0,0,0,0,4.149" fill="#2efec7"/>
    </clipPath>
    <clipPath id="clip-path-13">
      <rect id="Rectángulo_378933" data-name="Rectángulo 378933" width="454.026" height="269.475" fill="none"/>
    </clipPath>
    <clipPath id="clip-path-14">
      <rect id="Rectángulo_378932" data-name="Rectángulo 378932" width="454.028" height="269.475" fill="none"/>
    </clipPath>
    <clipPath id="clip-path-15">
      <rect id="Rectángulo_378890" data-name="Rectángulo 378890" width="49.147" height="26.347" fill="none"/>
    </clipPath>
    <clipPath id="clip-path-16">
      <rect id="Rectángulo_378891" data-name="Rectángulo 378891" width="22.126" height="11.861" fill="none"/>
    </clipPath>
    <clipPath id="clip-path-17">
      <rect id="Rectángulo_378892" data-name="Rectángulo 378892" width="48.823" height="26.173" fill="#ffb476"/>
    </clipPath>
    <clipPath id="clip-path-18">
      <rect id="Rectángulo_378893" data-name="Rectángulo 378893" width="35.436" height="18.998" fill="#ffb476"/>
    </clipPath>
    <clipPath id="clip-path-19">
      <rect id="Rectángulo_378894" data-name="Rectángulo 378894" width="47.597" height="25.516" fill="none"/>
    </clipPath>
    <clipPath id="clip-path-20">
      <rect id="Rectángulo_378923" data-name="Rectángulo 378923" width="32.032" height="25.381" fill="none"/>
    </clipPath>
    <clipPath id="clip-path-21">
      <rect id="Rectángulo_378924" data-name="Rectángulo 378924" width="18.137" height="9.447" fill="none"/>
    </clipPath>
    <clipPath id="clip-path-22">
      <rect id="Rectángulo_378925" data-name="Rectángulo 378925" width="23.465" height="19.969" fill="none"/>
    </clipPath>
  </defs>
  <g id="Grupo_1078881" data-name="Grupo 1078881" transform="translate(2484.026 8454.951)">
    <g id="Grupo_1078801" data-name="Grupo 1078801" transform="translate(-3294.026 -13101.435)">
      <g id="Grupo_1078481" data-name="Grupo 1078481" transform="translate(805.949 4646.483)">
        <rect id="Rectángulo_373681" data-name="Rectángulo 373681" width="12.041" height="70.838" rx="6.021" transform="translate(500.537 0) rotate(45)" fill="#ffb476"/>
        <g id="Grupo_1065536" data-name="Grupo 1065536" transform="translate(433.332 284.035) rotate(-90)">
          <g id="Group_881454" data-name="Group 881454" transform="translate(0 67.421)">
            <g id="Grupo_108438" data-name="Grupo 108438">
              <path id="Trazado_165433" data-name="Trazado 165433" d="M0,4.151A4.149,4.149,0,1,0,4.148,0,4.148,4.148,0,0,0,0,4.151" fill="#2efec7"/>
              <g id="Grupo_108437" data-name="Grupo 108437" clip-path="url(#clip-path)">
                <g id="Group_881453" data-name="Group 881453" transform="translate(0 0)">
                  <rect id="Rectangle_298909" data-name="Rectangle 298909" width="8.297" height="8.297" fill="#2efec7"/>
                </g>
              </g>
            </g>
          </g>
          <g id="Group_881458" data-name="Group 881458" transform="translate(0.001)">
            <g id="Grupo_108442" data-name="Grupo 108442">
              <path id="Trazado_165437" data-name="Trazado 165437" d="M4.147,0A4.148,4.148,0,1,0,8.3,4.15,4.148,4.148,0,0,0,4.147,0Z" fill="#2efec7"/>
              <g id="Grupo_108441" data-name="Grupo 108441" clip-path="url(#clip-path-2)">
                <g id="Group_881457" data-name="Group 881457" transform="translate(-0.001 0.001)">
                  <rect id="Rectangle_298911" data-name="Rectangle 298911" width="8.297" height="8.295" fill="#2efec7"/>
                </g>
              </g>
            </g>
          </g>
          <g id="Group_881460" data-name="Group 881460" transform="translate(28.117 67.421)">
            <g id="Grupo_108444" data-name="Grupo 108444">
              <path id="Trazado_165439" data-name="Trazado 165439" d="M0,4.151A4.148,4.148,0,1,0,4.148,0,4.149,4.149,0,0,0,0,4.151" fill="#2efec7"/>
              <g id="Grupo_108443" data-name="Grupo 108443" clip-path="url(#clip-path-3)">
                <g id="Group_881459" data-name="Group 881459" transform="translate(0 0)">
                  <rect id="Rectangle_298912" data-name="Rectangle 298912" width="8.297" height="8.297" fill="#2efec7"/>
                </g>
              </g>
            </g>
          </g>
          <g id="Group_881462" data-name="Group 881462" transform="translate(28.117 35.091)">
            <g id="Grupo_108446" data-name="Grupo 108446">
              <path id="Trazado_165441" data-name="Trazado 165441" d="M0,4.149A4.148,4.148,0,1,0,4.148,0,4.148,4.148,0,0,0,0,4.149" fill="#2efec7"/>
              <g id="Grupo_108445" data-name="Grupo 108445" clip-path="url(#clip-path-4)">
                <g id="Group_881461" data-name="Group 881461" transform="translate(0 0)">
                  <rect id="Rectangle_298913" data-name="Rectangle 298913" width="8.297" height="8.297" fill="#2efec7"/>
                </g>
              </g>
            </g>
          </g>
          <g id="Group_881464" data-name="Group 881464" transform="translate(28.119)">
            <g id="Grupo_108448" data-name="Grupo 108448">
              <path id="Trazado_165443" data-name="Trazado 165443" d="M4.146,0A4.148,4.148,0,1,0,8.3,4.149,4.147,4.147,0,0,0,4.146,0Z" fill="#2efec7"/>
              <g id="Grupo_108447" data-name="Grupo 108447" clip-path="url(#clip-path-5)">
                <g id="Group_881463" data-name="Group 881463" transform="translate(-0.002 0.001)">
                  <rect id="Rectangle_298914" data-name="Rectangle 298914" width="8.297" height="8.295" fill="#2efec7"/>
                </g>
              </g>
            </g>
          </g>
          <g id="Group_881454-2" data-name="Group 881454" transform="translate(57.451 67.421)">
            <g id="Grupo_108450" data-name="Grupo 108450">
              <path id="Trazado_165445" data-name="Trazado 165445" d="M0,4.151A4.149,4.149,0,1,0,4.148,0,4.149,4.149,0,0,0,0,4.151" fill="#2efec7"/>
              <g id="Grupo_108449" data-name="Grupo 108449" clip-path="url(#clip-path-6)">
                <g id="Group_881453-2" data-name="Group 881453" transform="translate(0 0)">
                  <rect id="Rectangle_298909-2" data-name="Rectangle 298909" width="8.297" height="8.297" fill="#2efec7"/>
                </g>
              </g>
            </g>
          </g>
          <g id="Group_881456" data-name="Group 881456" transform="translate(57.451 35.091)">
            <g id="Grupo_108452" data-name="Grupo 108452">
              <path id="Trazado_165447" data-name="Trazado 165447" d="M0,4.149A4.149,4.149,0,1,0,4.15,0h0A4.153,4.153,0,0,0,0,4.149" fill="#2efec7"/>
              <g id="Grupo_108451" data-name="Grupo 108451" clip-path="url(#clip-path-7)">
                <g id="Group_881455" data-name="Group 881455" transform="translate(0 0)">
                  <rect id="Rectangle_298910" data-name="Rectangle 298910" width="8.297" height="8.297" fill="#2efec7"/>
                </g>
              </g>
            </g>
          </g>
          <g id="Group_881458-2" data-name="Group 881458" transform="translate(57.453)">
            <g id="Grupo_108454" data-name="Grupo 108454">
              <path id="Trazado_165449" data-name="Trazado 165449" d="M4.146,0A4.148,4.148,0,1,0,8.3,4.15,4.147,4.147,0,0,0,4.146,0Z" fill="#2efec7"/>
              <g id="Grupo_108453" data-name="Grupo 108453" clip-path="url(#clip-path-8)">
                <g id="Group_881457-2" data-name="Group 881457" transform="translate(-0.001 0.001)">
                  <rect id="Rectangle_298911-2" data-name="Rectangle 298911" width="8.297" height="8.295" fill="#2efec7"/>
                </g>
              </g>
            </g>
          </g>
          <g id="Group_881460-2" data-name="Group 881460" transform="translate(85.569 67.421)">
            <g id="Grupo_108456" data-name="Grupo 108456">
              <path id="Trazado_165451" data-name="Trazado 165451" d="M0,4.151A4.148,4.148,0,1,0,4.147,0,4.148,4.148,0,0,0,0,4.151" fill="#2efec7"/>
              <g id="Grupo_108455" data-name="Grupo 108455" clip-path="url(#clip-path-9)">
                <g id="Group_881459-2" data-name="Group 881459" transform="translate(0 0)">
                  <rect id="Rectangle_298912-2" data-name="Rectangle 298912" width="8.297" height="8.297" fill="#2efec7"/>
                </g>
              </g>
            </g>
          </g>
          <g id="Group_881462-2" data-name="Group 881462" transform="translate(85.569 35.091)">
            <g id="Grupo_108458" data-name="Grupo 108458">
              <path id="Trazado_165453" data-name="Trazado 165453" d="M0,4.149A4.148,4.148,0,1,0,4.147,0,4.147,4.147,0,0,0,0,4.149" fill="#2efec7"/>
              <g id="Grupo_108457" data-name="Grupo 108457" clip-path="url(#clip-path-10)">
                <g id="Group_881461-2" data-name="Group 881461" transform="translate(0 0)">
                  <rect id="Rectangle_298913-2" data-name="Rectangle 298913" width="8.297" height="8.297" fill="#2efec7"/>
                </g>
              </g>
            </g>
          </g>
          <g id="Group_881464-2" data-name="Group 881464" transform="translate(85.57)">
            <g id="Grupo_108460" data-name="Grupo 108460">
              <path id="Trazado_165455" data-name="Trazado 165455" d="M4.146,0A4.148,4.148,0,1,0,8.3,4.149,4.147,4.147,0,0,0,4.146,0Z" fill="#2efec7"/>
              <g id="Grupo_108459" data-name="Grupo 108459" clip-path="url(#clip-path-5)">
                <g id="Group_881463-2" data-name="Group 881463" transform="translate(-0.001 0.001)">
                  <rect id="Rectangle_298914-2" data-name="Rectangle 298914" width="8.297" height="8.295" fill="#2efec7"/>
                </g>
              </g>
            </g>
          </g>
          <g id="Group_881456-2" data-name="Group 881456" transform="translate(0 35.091)">
            <g id="Grupo_108440" data-name="Grupo 108440">
              <path id="Trazado_165435" data-name="Trazado 165435" d="M0,4.149A4.149,4.149,0,1,0,4.149,0h0A4.153,4.153,0,0,0,0,4.149" fill="#2efec7"/>
              <g id="Grupo_108439" data-name="Grupo 108439" clip-path="url(#clip-path-12)">
                <g id="Group_881455-2" data-name="Group 881455" transform="translate(0 0)">
                  <rect id="Rectangle_298910-2" data-name="Rectangle 298910" width="8.297" height="8.297" fill="#2efec7"/>
                </g>
              </g>
            </g>
          </g>
        </g>
        <rect id="Rectángulo_373680" data-name="Rectángulo 373680" width="12.987" height="102.47" rx="6.494" transform="translate(76.508 202.395) rotate(45)" fill="#ff6148"/>
      </g>
    </g>
    <g id="Grupo_1078831" data-name="Grupo 1078831" transform="translate(-2458.539 -8447.671)">
      <g id="Grupo_1078830" data-name="Grupo 1078830" clip-path="url(#clip-path-13)">
        <g id="Grupo_1078829" data-name="Grupo 1078829">
          <g id="Grupo_1078828" data-name="Grupo 1078828" clip-path="url(#clip-path-14)">
            <path id="Trazado_827650" data-name="Trazado 827650" d="M319.725,135.333a50.166,50.166,0,1,1,94.754-32.846,32.75,32.75,0,0,1,56.667,32.206H489.46a22.379,22.379,0,1,1,0,44.757H325.051a22.38,22.38,0,0,1-5.326-44.117" transform="translate(-173.426 -38.569)" fill="#fff"/>
            <rect id="Rectángulo_378879" data-name="Rectángulo 378879" width="0.92" height="5.08" transform="translate(228.845 137.117)" fill="#162732"/>
            <rect id="Rectángulo_378880" data-name="Rectángulo 378880" width="0.92" height="5.082" transform="translate(228.845 167.623)" fill="#162732"/>
            <rect id="Rectángulo_378881" data-name="Rectángulo 378881" width="0.92" height="5.087" transform="translate(228.845 157.451)" fill="#162732"/>
            <rect id="Rectángulo_378882" data-name="Rectángulo 378882" width="0.92" height="5.085" transform="translate(228.845 147.283)" fill="#162732"/>
            <rect id="Rectángulo_378883" data-name="Rectángulo 378883" width="0.92" height="5.089" transform="translate(228.845 177.792)" fill="#162732"/>
            <rect id="Rectángulo_378884" data-name="Rectángulo 378884" width="0.92" height="5.09" transform="translate(228.845 228.66)" fill="#162732"/>
            <rect id="Rectángulo_378885" data-name="Rectángulo 378885" width="0.92" height="5.088" transform="translate(228.845 218.487)" fill="#162732"/>
            <rect id="Rectángulo_378886" data-name="Rectángulo 378886" width="0.92" height="5.087" transform="translate(228.845 187.964)" fill="#162732"/>
            <rect id="Rectángulo_378887" data-name="Rectángulo 378887" width="0.92" height="5.087" transform="translate(228.845 208.312)" fill="#162732"/>
            <rect id="Rectángulo_378888" data-name="Rectángulo 378888" width="0.92" height="5.089" transform="translate(228.845 198.137)" fill="#162732"/>
            <rect id="Rectángulo_378889" data-name="Rectángulo 378889" width="0.92" height="2.59" transform="translate(228.845 129.373)" fill="#162732"/>
            <path id="Trazado_827651" data-name="Trazado 827651" d="M99.555,445.076h-.861c0-.862.019-1.738.056-2.6l.86.037c-.037.851-.055,1.714-.055,2.564" transform="translate(-56.55 -253.529)" fill="#162732"/>
            <path id="Trazado_827652" data-name="Trazado 827652" d="M100.724,318.014l-.854-.111c.221-1.7.519-3.42.886-5.105l.842.184c-.362,1.662-.655,3.356-.874,5.032m2.165-9.967-.823-.253c.5-1.632,1.077-3.277,1.714-4.889l.8.316c-.629,1.591-1.2,3.214-1.691,4.825m3.755-9.5-.775-.377c.745-1.53,1.564-3.069,2.434-4.572l.745.432c-.86,1.485-1.669,3-2.4,4.517m5.119-8.857-.714-.481c.948-1.408,1.965-2.822,3.025-4.2l.683.525c-1.048,1.365-2.055,2.764-2.993,4.157M118,281.559l-.651-.565c1.111-1.281,2.288-2.565,3.5-3.814l.618.6c-1.2,1.238-2.364,2.51-3.465,3.78m7.127-7.37-.587-.63c1.242-1.157,2.544-2.311,3.87-3.432l.556.657c-1.315,1.112-2.607,2.258-3.839,3.405m7.834-6.627-.526-.683c1.346-1.037,2.747-2.069,4.163-3.067l.5.7c-1.406.991-2.8,2.015-4.134,3.046m8.391-5.917-.468-.725c1.43-.923,2.909-1.838,4.4-2.72l.44.741c-1.477.876-2.946,1.785-4.368,2.7m8.833-5.244-.412-.755c1.494-.815,3.035-1.62,4.58-2.394l.386.77c-1.536.77-3.068,1.57-4.554,2.38m9.186-4.6-.36-.783c1.547-.712,3.138-1.413,4.727-2.085l.335.794c-1.581.667-3.163,1.365-4.7,2.074m9.468-4-.31-.8c1.591-.615,3.221-1.217,4.845-1.791l.287.813c-1.616.57-3.239,1.17-4.822,1.782m9.694-3.424-.263-.82c1.623-.521,3.285-1.029,4.94-1.51l.24.827c-1.647.479-3.3.985-4.917,1.5m9.874-2.87-.218-.833c1.649-.431,3.335-.848,5.014-1.24l.2.838c-1.671.391-3.351.806-4.991,1.235m10.014-2.338-.175-.844c1.671-.345,3.377-.674,5.071-.98l.152.848c-1.687.3-3.385.632-5.049.976m10.12-1.824-.132-.851c1.689-.262,3.41-.506,5.112-.727l.111.854c-1.7.219-3.41.463-5.092.724m10.2-1.324-.091-.857c1.7-.179,3.433-.341,5.141-.48l.07.858c-1.7.139-3.424.3-5.121.478m10.251-.834-.05-.861c1.711-.1,3.446-.178,5.158-.237l.03.86c-1.706.059-3.433.139-5.138.238" transform="translate(-57.223 -134.125)" fill="#162732"/>
            <path id="Trazado_827653" data-name="Trazado 827653" d="M426.437,234.64l-.01-.861q1.293-.015,2.589-.015v.862q-1.293,0-2.579.015" transform="translate(-244.334 -133.942)" fill="#162732"/>
            <path id="Trazado_827654" data-name="Trazado 827654" d="M974.821,445.076h-.862c0-.854-.019-1.716-.055-2.564l.86-.037c.037.861.056,1.735.056,2.6" transform="translate(-558.027 -253.529)" fill="#162732"/>
            <path id="Trazado_827655" data-name="Trazado 827655" d="M793.872,318.014c-.218-1.676-.512-3.37-.875-5.032l.842-.184c.367,1.686.664,3.4.885,5.105Zm-2.165-9.967c-.5-1.613-1.063-3.236-1.692-4.825l.8-.316c.637,1.609,1.214,3.253,1.714,4.889Zm-3.756-9.5c-.736-1.513-1.545-3.033-2.4-4.517l.746-.432c.87,1.5,1.689,3.041,2.435,4.572Zm-5.12-8.857c-.936-1.392-1.942-2.79-2.993-4.157l.682-.525c1.062,1.381,2.079,2.8,3.025,4.2Zm-6.236-8.126c-1.1-1.271-2.268-2.544-3.465-3.78l.619-.6c1.208,1.247,2.385,2.531,3.5,3.814Zm-7.128-7.37c-1.232-1.148-2.524-2.293-3.839-3.4l.556-.658c1.325,1.12,2.628,2.275,3.87,3.432Zm-7.832-6.627c-1.337-1.031-2.727-2.055-4.134-3.046l.5-.7c1.417,1,2.816,2.03,4.163,3.067Zm-8.391-5.917c-1.417-.915-2.886-1.825-4.367-2.7l.44-.741c1.49.885,2.97,1.8,4.395,2.72Zm-8.833-5.244c-1.484-.809-3.017-1.61-4.553-2.38l.386-.77c1.546.774,3.087,1.579,4.58,2.394Zm-9.186-4.6c-1.54-.709-3.122-1.406-4.7-2.073l.336-.795c1.589.671,3.179,1.372,4.727,2.085Zm-9.467-4c-1.584-.612-3.207-1.211-4.823-1.782l.287-.812c1.624.574,3.255,1.176,4.845,1.79Zm-9.694-3.423c-1.616-.518-3.271-1.024-4.917-1.5l.24-.827c1.655.481,3.316.989,4.94,1.51Zm-9.874-2.87c-1.64-.428-3.319-.845-4.991-1.235l.2-.838c1.68.392,3.366.81,5.013,1.24Zm-10.013-2.338c-1.664-.343-3.362-.671-5.049-.976l.152-.848c1.694.305,3.4.635,5.07.98Zm-10.121-1.824c-1.682-.26-3.4-.5-5.093-.724l.111-.854c1.705.22,3.425.465,5.113.726Zm-10.2-1.324c-1.7-.178-3.422-.339-5.121-.477l.07-.859c1.707.139,3.436.3,5.141.48Zm-10.251-.834c-1.705-.1-3.434-.179-5.137-.238l.029-.86c1.712.059,3.447.138,5.158.237Z" transform="translate(-378.434 -134.125)" fill="#162732"/>
            <path id="Trazado_827656" data-name="Trazado 827656" d="M644.831,234.64q-1.287-.013-2.58-.015v-.862q1.3,0,2.59.015Z" transform="translate(-367.996 -133.942)" fill="#162732"/>
            <path id="Trazado_827657" data-name="Trazado 827657" d="M189.731,403.663v5.528c0,.1,0,.2,0,.3v-5.529c0-.1,0-.2,0-.3" transform="translate(-108.71 -231.29)" fill="#517a8e"/>
            <path id="Trazado_827658" data-name="Trazado 827658" d="M91.518,403.663c0,.128,0,.256-.009.383,0,.108-.011.216-.019.324,0,.067-.009.133-.015.2-.011.118-.025.237-.04.354-.006.054-.012.11-.02.165-.025.172-.053.344-.086.514,0,.005,0,.007,0,.012-.033.168-.07.333-.111.5-.012.05-.028.1-.041.152-.032.123-.067.246-.1.367-.02.065-.04.129-.061.192-.035.109-.072.219-.111.328-.023.066-.048.131-.073.2-.041.107-.085.216-.129.323-.026.063-.052.126-.079.188-.051.119-.106.237-.162.354-.023.049-.046.1-.07.148q-.134.271-.282.539c-.025.045-.052.088-.076.133q-.117.206-.243.408c-.035.057-.069.112-.1.168q-.133.208-.275.414c-.026.039-.052.079-.079.117-.121.174-.249.346-.38.517-.086.112-.174.225-.264.336l-.042.053c-.108.132-.22.264-.333.393-.035.04-.07.078-.1.117-.081.092-.163.183-.247.275l-.134.143c-.077.082-.155.163-.234.245l-.146.148c-.08.08-.162.16-.244.24l-.148.141c-.091.087-.185.173-.278.259l-.126.114q-.2.184-.417.366c-.211.18-.429.356-.651.532-.052.041-.1.082-.155.122q-.333.261-.682.515l-.073.051c-.216.156-.439.311-.664.464l-.164.111q-.366.243-.746.482c-.044.028-.09.055-.135.082q-.343.211-.7.416l-.157.093c-.266.152-.537.3-.811.451l-.178.094q-.375.2-.762.393c-.043.02-.085.042-.127.064-.288.143-.579.282-.876.42l-.209.1c-.29.132-.581.263-.879.39-.016.009-.032.015-.05.022-.31.132-.625.262-.944.389l-.228.09c-.319.126-.641.249-.967.369l-.094.034q-.457.166-.924.327l-.234.079q-.5.169-1.009.329l-.182.056q-.453.14-.917.274l-.222.065c-.348.1-.7.194-1.054.288l-.236.06q-.475.123-.959.238l-.184.045c-.4.094-.8.182-1.2.27l-.252.053c-.4.083-.811.165-1.222.242l-.2.036q-.6.111-1.218.213c-.039.006-.078.014-.117.019-.426.07-.858.135-1.291.2l-.282.039q-.424.058-.851.11l-.2.025c-.346.042-.7.081-1.044.117l-.3.03c-.26.027-.519.051-.781.073l-.358.031c-.269.022-.538.044-.809.062l-.284.02q-.5.034-1,.06l-.1,0q-.459.024-.921.042l-.345.011-.683.02-.392.008-.65.009c-.217,0-.434,0-.653,0q-.477,0-.953-.007l-.339-.006-.607-.012c-.138,0-.275-.009-.413-.013-.176-.007-.352-.011-.527-.019-.146-.006-.291-.013-.436-.02-.166-.007-.332-.015-.5-.023l-.247-.014c-.253-.015-.506-.029-.757-.046l-.366-.027-.63-.049c-.132-.01-.263-.022-.395-.033-.2-.018-.4-.036-.6-.056-.132-.013-.263-.025-.395-.04-.2-.02-.4-.042-.606-.065-.12-.013-.242-.026-.363-.041-.342-.039-.683-.081-1.021-.127l-.05-.006c-.324-.044-.645-.09-.966-.138l-.32-.05q-.352-.054-.7-.112c-.113-.019-.226-.037-.339-.057-.248-.042-.495-.086-.74-.132-.082-.015-.165-.029-.248-.046-.384-.072-.765-.148-1.143-.226l-.267-.058q-.576-.122-1.142-.254l-.025-.006c-.372-.088-.739-.179-1.1-.272l-.251-.066c-.363-.094-.723-.192-1.08-.292l-.2-.058q-.382-.109-.758-.224l-.275-.085q-.4-.122-.784-.25l-.146-.046q-.453-.152-.9-.308l-.234-.085c-.227-.082-.453-.165-.676-.249-.084-.03-.167-.062-.25-.094-.289-.11-.575-.222-.857-.337l-.028-.012q-.409-.167-.811-.341l-.239-.105q-.316-.138-.625-.281l-.208-.1c-.265-.123-.527-.249-.785-.377-.048-.024-.094-.049-.142-.072q-.32-.16-.632-.324l-.225-.12c-.2-.109-.4-.219-.6-.33l-.147-.082q-.36-.2-.709-.415c-.059-.035-.117-.071-.175-.108-.179-.11-.357-.22-.531-.332l-.2-.128c-.208-.136-.415-.275-.617-.413l-.044-.03c-.215-.149-.424-.3-.631-.452l-.176-.132c-.156-.117-.31-.234-.461-.354l-.163-.127q-.292-.235-.571-.473l-.08-.069q-.24-.208-.471-.419c-.053-.048-.105-.1-.158-.146q-.208-.195-.407-.393c-.039-.037-.077-.074-.115-.113-.165-.165-.325-.333-.48-.5-.038-.039-.072-.079-.108-.119-.121-.134-.24-.269-.355-.4-.044-.052-.088-.1-.13-.155-.127-.153-.25-.305-.369-.46l-.053-.066c-.133-.175-.261-.352-.385-.53-.034-.048-.067-.1-.1-.147-.094-.137-.183-.275-.271-.413-.032-.052-.065-.1-.1-.152-.111-.182-.218-.365-.318-.548-.009-.016-.017-.032-.025-.047-.092-.169-.178-.339-.261-.51l-.077-.164c-.067-.146-.132-.293-.193-.439-.02-.047-.041-.092-.059-.139-.075-.189-.145-.377-.21-.566-.014-.04-.025-.08-.038-.119-.05-.155-.1-.311-.141-.467-.016-.057-.032-.115-.046-.173-.042-.162-.081-.325-.115-.488-.006-.034-.015-.067-.022-.1-.039-.194-.071-.391-.1-.585-.007-.052-.012-.1-.019-.155-.019-.152-.034-.305-.046-.457,0-.058-.009-.114-.013-.173-.012-.2-.02-.4-.02-.6v5.528c0,.2.008.4.02.6,0,.057.009.114.013.171.012.153.027.306.046.456.006.053.012.1.019.155.028.2.06.392.1.587.007.035.015.067.022.1.034.164.073.325.115.488.015.059.03.115.046.173.043.156.091.31.141.467.013.039.024.079.038.117q.1.285.21.568c.019.046.039.091.059.139.061.146.125.293.193.438.025.055.05.109.077.164.083.172.169.342.261.511.008.017.016.031.025.047.1.184.208.366.318.547.031.05.063.1.1.152.088.138.177.277.271.415.033.049.065.1.1.146.124.178.252.354.386.529l.052.067q.179.231.37.461l.129.152q.174.2.357.407c.036.039.07.079.107.117.155.169.316.336.481.5l.112.11c.135.133.271.265.411.395l.156.145c.154.142.312.283.473.421.026.022.051.045.077.068q.28.238.574.473c.051.042.105.083.159.126q.229.18.465.357l.172.129c.207.152.417.3.633.453l.038.026c.2.141.413.28.624.417.065.042.13.085.2.126q.264.169.537.336c.057.035.112.07.17.1q.35.211.712.416c.047.028.1.053.142.08.2.112.4.222.607.333l.221.116c.211.112.423.22.638.328.046.024.091.047.137.069.258.129.521.255.787.379l.2.094q.311.145.631.284l.235.1q.4.175.817.345l.02.009c.284.115.571.228.861.339l.246.092q.337.127.68.251l.233.084c.3.105.6.207.9.308l.147.048c.259.085.519.168.783.249.091.029.184.058.277.085.249.076.5.15.754.223l.152.046.047.012q.535.152,1.082.293l.245.063c.371.1.744.188,1.122.277a.011.011,0,0,0,.007,0q.571.134,1.154.257l.251.053q.575.121,1.159.231l.04.008.163.029q.395.073.792.142l.306.051q.37.061.744.119l.285.043q1.015.154,2.055.276c.034,0,.066.008.1.012l.24.026.636.068.365.037.635.059.363.031c.223.019.448.035.673.052.108.006.216.016.325.023q.42.028.844.052l.137.009h.022c.225.012.451.022.678.032.086,0,.172.008.26.011.23.01.462.017.7.023l.249.009c.237.006.476.01.714.014l.235.005c.318,0,.636.006.955.006h.439l.2,0q.34,0,.679-.009l.361-.007c.246-.006.489-.014.732-.021l.3-.01q1.025-.038,2.032-.106l.067,0,.19-.016c.282-.019.563-.04.842-.064l.331-.029q.41-.037.816-.076l.268-.027q.532-.055,1.059-.119l.167-.021c.3-.036.59-.075.882-.114l.135-.018c.045-.006.089-.015.135-.021q.656-.092,1.3-.2l.1-.016q.628-.1,1.246-.218l.179-.033q.623-.115,1.234-.246l.239-.05c.407-.087.812-.177,1.211-.272a.421.421,0,0,0,.047-.009c.042-.011.082-.022.124-.031q.492-.118.976-.242c.075-.02.15-.04.225-.058.358-.095.711-.192,1.062-.291l.212-.061c.313-.091.623-.183.93-.278l.173-.053q.513-.161,1.015-.33l.226-.077c.316-.107.628-.218.936-.331.027-.009.057-.019.083-.029.329-.12.653-.245.973-.371l.222-.088q.48-.192.948-.392l.041-.018q.45-.193.887-.395l.2-.094c.3-.138.591-.278.879-.421l.123-.062q.389-.2.767-.4l.175-.093q.413-.222.813-.452c.051-.029.1-.061.155-.09.237-.137.469-.278.7-.419l.133-.081q.38-.238.747-.483l.162-.109c.226-.152.449-.308.666-.464l.072-.052c.233-.17.46-.34.682-.514l.155-.122c.221-.176.44-.353.651-.533l0,0q.211-.179.413-.363l.128-.117c.093-.085.185-.17.276-.257.051-.047.1-.095.15-.143.081-.078.162-.158.241-.236.05-.05.1-.1.149-.152.078-.08.155-.16.23-.24l.139-.148c.082-.088.161-.178.241-.267.036-.041.074-.081.109-.123.114-.13.224-.261.331-.392.016-.021.03-.039.047-.059.08-.1.16-.2.238-.3a.329.329,0,0,1,.023-.03c.131-.172.258-.345.38-.518.027-.038.052-.076.078-.115q.143-.207.276-.416l.1-.166c.084-.136.165-.275.244-.411.025-.045.051-.088.075-.132q.149-.267.282-.54l.014-.026c.019-.04.035-.08.055-.12.056-.118.111-.236.163-.355.027-.062.053-.124.078-.187.045-.108.089-.216.13-.325.025-.066.049-.132.073-.2.04-.108.077-.218.111-.327q.032-.1.061-.191.055-.183.1-.367c.011-.041.025-.082.035-.123,0-.009,0-.019.007-.03.041-.164.079-.328.111-.494a.122.122,0,0,1,0-.016c.033-.171.061-.342.086-.515.008-.055.014-.11.02-.165.015-.118.029-.237.04-.354.006-.066.01-.132.015-.2.008-.107.015-.215.019-.323,0-.03,0-.059,0-.087v-.117c0-.059,0-.12,0-.179Z" transform="translate(-10.496 -231.29)" fill="#2a405e"/>
            <path id="Trazado_827659" data-name="Trazado 827659" d="M54.918,359.246c-20.214,0-36.6,8.492-36.6,18.967s16.386,19.83,36.6,19.83,36.6-9.354,36.6-19.83-16.386-18.967-36.6-18.967" transform="translate(-10.496 -205.84)" fill="#ffc8bf"/>
            <path id="Trazado_827660" data-name="Trazado 827660" d="M1059.481,403.663v5.528c0,.1,0,.2,0,.3v-5.529c0-.1,0-.2,0-.3" transform="translate(-607.057 -231.29)" fill="#517a8e"/>
            <path id="Trazado_827661" data-name="Trazado 827661" d="M961.268,403.663c0,.128,0,.256-.009.383,0,.108-.011.216-.018.324,0,.067-.009.133-.015.2-.01.118-.024.237-.04.354-.006.054-.012.11-.019.165-.025.172-.053.344-.088.514a.054.054,0,0,1,0,.012c-.033.168-.071.333-.112.5-.012.05-.026.1-.04.152-.033.123-.068.246-.1.367-.02.065-.041.129-.061.192-.035.109-.072.219-.111.328-.024.066-.048.131-.073.2-.041.107-.085.216-.129.323-.026.063-.053.126-.08.188-.052.119-.106.237-.161.354-.024.049-.046.1-.07.148q-.134.271-.283.539c-.024.045-.05.088-.076.133-.079.137-.159.273-.243.408-.034.057-.069.112-.1.168-.089.139-.18.277-.275.414-.026.039-.051.079-.08.117q-.183.261-.379.517c-.086.112-.175.225-.264.336l-.042.053c-.109.132-.22.264-.333.393-.034.04-.07.078-.1.117-.081.092-.162.183-.247.275l-.134.143c-.076.082-.154.163-.234.245l-.146.148c-.079.08-.162.16-.244.24l-.147.141c-.091.087-.184.173-.279.259-.042.038-.083.076-.125.114-.137.123-.276.245-.417.366-.211.18-.429.356-.65.532-.052.041-.1.082-.156.122-.223.174-.448.346-.682.515l-.073.051q-.325.234-.664.464l-.163.111q-.366.243-.747.482l-.135.082q-.343.211-.7.416l-.157.093c-.266.152-.537.3-.811.451l-.178.094q-.376.2-.762.393c-.043.02-.085.042-.127.064-.288.143-.581.282-.876.42l-.209.1c-.289.132-.581.263-.879.39a.51.51,0,0,1-.049.022c-.311.132-.625.262-.944.389l-.228.09q-.479.19-.968.369l-.094.034q-.457.166-.924.327l-.234.079q-.5.169-1.009.329l-.182.056q-.455.14-.917.274l-.223.065c-.348.1-.7.194-1.054.288l-.235.06q-.477.123-.959.238l-.185.045c-.4.094-.8.182-1.2.27l-.252.053c-.4.083-.811.165-1.222.242l-.2.036q-.605.111-1.218.213c-.039.006-.078.014-.117.019q-.641.105-1.291.2l-.282.039c-.283.038-.566.076-.851.11l-.2.025c-.346.042-.695.081-1.045.117l-.3.03c-.26.027-.519.051-.781.073l-.358.031c-.268.022-.538.044-.809.062l-.284.02q-.5.034-1,.06l-.1,0c-.305.016-.613.029-.921.042l-.345.011c-.228.007-.454.014-.683.02l-.393.008-.65.009c-.217,0-.434,0-.652,0q-.478,0-.952-.007l-.34-.006-.607-.012c-.138,0-.276-.009-.413-.013-.176-.007-.352-.011-.527-.019-.146-.006-.292-.013-.437-.02-.165-.007-.331-.015-.5-.023l-.247-.014q-.38-.022-.757-.046l-.366-.027-.63-.049c-.132-.01-.263-.022-.394-.033-.2-.018-.4-.036-.6-.056-.132-.013-.263-.025-.4-.04-.2-.02-.4-.042-.6-.065-.12-.013-.242-.026-.362-.041q-.514-.058-1.021-.127l-.05-.006q-.485-.066-.966-.138l-.32-.05c-.235-.036-.468-.073-.7-.112-.114-.019-.227-.037-.34-.057-.248-.042-.494-.086-.741-.132l-.247-.046c-.384-.072-.765-.148-1.143-.226l-.267-.058q-.576-.122-1.142-.254a.2.2,0,0,0-.026-.006c-.371-.088-.738-.179-1.1-.272l-.251-.066c-.363-.094-.723-.192-1.079-.292l-.2-.058q-.38-.109-.758-.224l-.276-.085c-.264-.081-.524-.165-.784-.25-.047-.016-.1-.031-.145-.046q-.454-.152-.9-.308l-.234-.085c-.227-.082-.453-.165-.677-.249-.084-.03-.166-.062-.249-.094-.289-.11-.576-.222-.858-.337l-.027-.012c-.274-.111-.543-.225-.811-.341l-.239-.105q-.316-.138-.625-.281l-.209-.1c-.265-.123-.526-.249-.784-.377-.049-.024-.095-.049-.143-.072q-.318-.16-.631-.324l-.225-.12c-.2-.109-.4-.219-.6-.33l-.147-.082q-.36-.2-.708-.415c-.06-.035-.118-.071-.176-.108-.179-.11-.357-.22-.53-.332l-.2-.128c-.209-.136-.415-.275-.617-.413l-.045-.03c-.215-.149-.423-.3-.631-.452l-.175-.132c-.156-.117-.31-.234-.461-.354l-.162-.127c-.2-.157-.387-.314-.572-.473-.028-.023-.053-.045-.081-.069q-.239-.208-.47-.419c-.053-.048-.1-.1-.158-.146-.139-.13-.275-.261-.407-.393-.039-.037-.078-.074-.115-.113-.165-.165-.325-.333-.481-.5-.036-.039-.071-.079-.107-.119-.122-.134-.24-.269-.354-.4-.045-.052-.088-.1-.131-.155-.127-.153-.25-.305-.369-.46l-.053-.066c-.133-.175-.261-.352-.385-.53-.035-.048-.067-.1-.1-.147-.092-.137-.183-.275-.27-.413l-.1-.152c-.11-.182-.218-.365-.318-.548-.009-.016-.017-.032-.025-.047-.092-.169-.178-.339-.261-.51l-.076-.164c-.068-.146-.133-.293-.194-.439-.019-.047-.04-.092-.058-.139-.075-.189-.146-.377-.21-.566-.014-.04-.026-.08-.038-.119-.05-.155-.1-.311-.141-.467-.016-.057-.032-.115-.047-.173-.041-.162-.079-.325-.114-.488-.008-.034-.016-.067-.023-.1-.038-.194-.071-.391-.1-.585-.008-.052-.013-.1-.019-.155-.019-.152-.035-.305-.047-.457,0-.058-.009-.114-.013-.173-.011-.2-.02-.4-.02-.6v5.528c0,.2.009.4.02.6,0,.057.009.114.013.171.012.153.028.306.047.456.006.053.011.1.019.155q.04.295.1.587c.007.035.015.067.023.1.035.164.073.325.114.488.015.059.031.115.047.173.044.156.091.31.141.467.013.039.024.079.038.117.064.19.135.379.21.568.019.046.04.091.058.139.061.146.126.293.194.438.025.055.05.109.076.164.083.172.169.342.261.511.008.017.016.031.025.047.1.184.208.366.318.547l.1.152c.088.138.178.277.27.415l.1.146q.186.267.386.529l.051.067q.18.231.37.461c.043.05.085.1.129.152.116.137.235.272.356.407.037.039.071.079.107.117.156.169.317.336.481.5l.113.11q.2.2.41.395c.052.048.1.1.156.145q.232.213.474.421c.026.022.05.045.077.068.186.159.378.317.574.473.052.042.105.083.158.126q.23.18.465.357l.173.129c.208.152.417.3.633.453l.038.026c.2.141.413.28.623.417.065.042.131.085.2.126.176.113.355.225.536.336l.171.1q.35.211.713.416c.046.028.095.053.142.08.2.112.4.222.607.333l.221.116c.21.112.424.22.639.328q.067.036.136.069c.258.129.521.255.787.379l.2.094q.313.145.631.284l.235.1q.4.175.817.345l.021.009c.284.115.57.228.86.339l.245.092q.338.127.681.251l.233.084c.3.105.6.207.9.308l.148.048c.259.085.519.168.782.249q.138.044.277.085.375.114.755.223l.152.046.047.012q.535.152,1.08.293l.245.063c.372.1.745.188,1.122.277a.012.012,0,0,0,.007,0c.381.089.766.175,1.153.257l.252.053q.575.121,1.159.231l.041.008.162.029c.263.049.527.1.792.142l.306.051c.246.041.494.08.743.119l.284.043q1.016.154,2.055.276c.034,0,.066.008.1.012l.24.026.636.068.365.037.635.059.363.031c.223.019.448.035.673.052.108.006.216.016.325.023q.42.028.844.052l.137.009h.022c.225.012.451.022.677.032.087,0,.172.008.259.011q.347.015.7.023l.248.009c.237.006.475.01.714.014l.235.005c.318,0,.636.006.955.006h.439l.2,0c.226,0,.453-.005.679-.009l.361-.007c.246-.006.489-.014.732-.021l.3-.01q1.023-.038,2.032-.106l.066,0,.19-.016c.283-.019.562-.04.842-.064l.331-.029q.409-.037.816-.076l.267-.027q.532-.055,1.059-.119l.166-.021c.3-.036.59-.075.883-.114.044-.007.091-.012.135-.018s.089-.015.135-.021q.655-.092,1.3-.2c.032,0,.064-.011.1-.016q.627-.1,1.247-.218l.179-.033q.623-.115,1.234-.246l.24-.05c.406-.087.811-.177,1.211-.272a.439.439,0,0,0,.046-.009l.124-.031q.494-.118.976-.242c.076-.02.151-.04.226-.058q.535-.142,1.061-.291l.212-.061q.469-.136.931-.278l.172-.053q.514-.161,1.015-.33l.226-.077c.316-.107.628-.218.937-.331.027-.009.057-.019.083-.029.329-.12.653-.245.973-.371l.221-.088q.481-.192.949-.392l.041-.018c.3-.129.594-.26.887-.395l.205-.094c.3-.138.591-.278.878-.421l.123-.062q.389-.2.767-.4l.174-.093c.275-.148.547-.3.813-.452.052-.029.1-.061.155-.09.237-.137.47-.278.7-.419l.133-.081q.38-.238.747-.483l.162-.109c.227-.152.448-.308.665-.464l.073-.052c.234-.17.459-.34.682-.514l.154-.122c.222-.176.44-.353.651-.533l0,0q.21-.179.414-.363l.127-.117c.094-.085.186-.17.276-.257.05-.047.1-.095.15-.143.081-.078.162-.158.241-.236.05-.05.1-.1.149-.152.079-.08.154-.16.231-.24.045-.05.093-.1.139-.148.082-.088.161-.178.24-.267.036-.041.074-.081.109-.123.113-.13.224-.261.332-.392l.045-.059c.081-.1.161-.2.238-.3.009-.011.015-.021.023-.03q.2-.258.38-.518c.027-.038.052-.076.078-.115q.142-.207.275-.416c.036-.056.071-.111.1-.166.084-.136.165-.275.243-.411.025-.045.051-.088.075-.132q.15-.267.283-.54l.014-.026c.02-.04.036-.08.056-.12.055-.118.11-.236.163-.355l.078-.187c.045-.108.089-.216.13-.325.025-.066.049-.132.073-.2.039-.108.076-.218.111-.327.02-.064.041-.127.061-.191q.054-.183.1-.367c.01-.041.023-.082.034-.123,0-.009.005-.019.007-.03.041-.164.078-.328.112-.494,0-.005,0-.011,0-.016.035-.171.063-.342.088-.515.007-.055.013-.11.019-.165.016-.118.03-.237.04-.354.006-.066.011-.132.015-.2.006-.107.015-.215.018-.323,0-.03,0-.059,0-.087v-.117c0-.059,0-.12,0-.179Z" transform="translate(-508.844 -231.29)" fill="#2a405e"/>
            <path id="Trazado_827662" data-name="Trazado 827662" d="M924.669,359.246c-20.215,0-36.6,8.492-36.6,18.967s16.386,19.83,36.6,19.83,36.6-9.354,36.6-19.83-16.385-18.967-36.6-18.967" transform="translate(-508.844 -205.84)" fill="#ffc8bf"/>
            <path id="Trazado_827663" data-name="Trazado 827663" d="M622.691,524.672V530.2c0,.1,0,.2,0,.3v-5.528c0-.1,0-.2,0-.3" transform="translate(-356.786 -300.626)" fill="#517a8e"/>
            <path id="Trazado_827664" data-name="Trazado 827664" d="M524.478,524.672c0,.128,0,.256-.009.382,0,.109-.011.216-.019.324,0,.068-.008.134-.015.2-.011.118-.025.237-.04.354-.007.055-.012.111-.02.164-.025.173-.053.345-.087.516a.055.055,0,0,1,0,.012c-.032.168-.07.334-.112.5-.012.05-.028.1-.041.151-.032.123-.067.247-.1.369-.019.063-.041.128-.061.191-.035.109-.072.219-.112.328-.024.065-.047.131-.073.2q-.063.162-.129.324c-.026.063-.053.126-.08.189-.051.118-.106.236-.162.353-.023.05-.046.1-.069.148-.089.18-.183.36-.282.539-.025.044-.052.088-.076.134-.079.136-.159.272-.244.409-.035.056-.069.112-.1.167-.09.138-.181.278-.275.414-.028.039-.053.08-.08.119-.121.172-.248.345-.379.517-.086.111-.174.224-.264.335-.015.017-.028.036-.042.053-.109.131-.22.263-.333.394l-.1.117c-.081.091-.162.183-.246.274-.044.048-.089.095-.134.143-.077.081-.155.163-.235.245-.047.049-.1.1-.146.147q-.12.122-.244.24c-.048.048-.1.1-.147.142q-.138.131-.28.258c-.042.039-.082.077-.126.116-.135.122-.275.244-.417.365-.21.179-.428.357-.65.533-.052.041-.1.082-.156.123q-.332.26-.681.515l-.073.051c-.216.156-.438.311-.664.465l-.163.11c-.245.162-.492.324-.747.482-.044.029-.089.055-.134.083-.229.14-.46.279-.7.416-.052.032-.1.063-.157.092-.266.154-.536.3-.81.451l-.179.094c-.25.132-.5.264-.761.392l-.128.066c-.287.142-.58.282-.875.418-.068.033-.138.065-.209.1-.29.132-.581.263-.879.392l-.048.022q-.466.2-.945.389l-.227.091q-.477.189-.967.369l-.094.034c-.3.112-.613.22-.924.326l-.233.079q-.5.169-1.009.329l-.183.056c-.3.094-.609.185-.916.274l-.223.064c-.347.1-.7.195-1.053.288l-.236.061c-.316.082-.637.162-.96.239l-.183.044q-.6.14-1.2.269l-.251.053q-.607.127-1.222.243l-.2.036q-.6.111-1.217.212c-.039.007-.079.015-.118.021-.425.069-.857.133-1.29.194l-.283.04q-.424.058-.851.11l-.2.025q-.519.062-1.045.117l-.3.029q-.388.04-.781.073l-.357.031q-.4.034-.809.062l-.284.021q-.5.033-1,.06l-.1,0c-.307.016-.612.029-.921.042-.115,0-.23.007-.346.011-.227.008-.454.014-.682.02l-.392.008c-.216,0-.433.006-.65.008s-.434,0-.653,0c-.317,0-.635,0-.953-.006l-.339-.006-.607-.013c-.139,0-.275-.009-.413-.014-.176-.006-.352-.01-.527-.018l-.436-.02c-.166-.007-.332-.015-.5-.023l-.248-.014c-.253-.015-.5-.029-.757-.047l-.366-.027c-.211-.014-.42-.03-.629-.048-.132-.01-.263-.022-.395-.033-.2-.018-.4-.036-.6-.056-.132-.012-.263-.025-.4-.04-.2-.02-.4-.043-.6-.065l-.363-.041c-.342-.041-.683-.082-1.021-.127l-.05-.007q-.486-.065-.967-.138c-.105-.015-.212-.033-.319-.05-.235-.036-.468-.073-.7-.112-.114-.018-.227-.037-.339-.057q-.372-.063-.741-.132l-.248-.046c-.383-.072-.765-.148-1.142-.226l-.268-.058c-.384-.081-.765-.165-1.142-.254-.009,0-.016,0-.025-.006-.372-.087-.739-.179-1.1-.272l-.252-.065q-.544-.141-1.079-.293l-.2-.056c-.255-.073-.506-.148-.759-.224l-.275-.085q-.395-.123-.784-.25l-.145-.047c-.3-.1-.6-.2-.9-.307l-.234-.084c-.227-.082-.454-.165-.676-.249-.084-.031-.167-.062-.251-.094-.289-.11-.575-.222-.857-.338a.151.151,0,0,1-.028-.012c-.273-.111-.544-.225-.811-.341l-.24-.1c-.21-.094-.418-.187-.625-.282-.07-.032-.139-.063-.208-.1-.265-.123-.528-.249-.786-.377l-.142-.072c-.214-.107-.424-.215-.632-.325l-.225-.12c-.2-.109-.4-.218-.6-.33l-.148-.081q-.359-.2-.709-.416c-.059-.035-.117-.071-.175-.107q-.27-.165-.531-.332l-.2-.129c-.209-.135-.414-.274-.617-.412l-.044-.031c-.215-.149-.423-.3-.631-.451-.059-.044-.117-.089-.176-.132q-.234-.176-.461-.355l-.162-.127q-.292-.234-.572-.473l-.079-.069c-.161-.139-.317-.279-.471-.419-.053-.049-.105-.1-.157-.146-.14-.13-.275-.261-.408-.392l-.115-.113c-.165-.166-.325-.333-.48-.5-.038-.04-.071-.079-.108-.12-.122-.133-.24-.269-.355-.4-.045-.05-.088-.1-.131-.154-.127-.152-.251-.3-.369-.46l-.053-.066q-.2-.264-.384-.53c-.035-.049-.068-.1-.1-.147-.093-.136-.183-.275-.27-.413-.032-.051-.064-.1-.1-.153-.111-.181-.218-.364-.318-.546l-.025-.048c-.092-.168-.178-.339-.261-.511-.027-.054-.053-.108-.077-.163-.067-.147-.132-.293-.192-.439-.02-.047-.041-.094-.059-.139q-.113-.284-.211-.567c-.013-.039-.025-.079-.038-.118-.051-.155-.1-.31-.141-.466-.017-.058-.032-.116-.047-.174-.042-.162-.08-.324-.115-.487-.006-.034-.015-.067-.023-.1-.038-.193-.07-.39-.1-.585-.007-.052-.012-.1-.019-.155-.019-.152-.035-.3-.046-.457,0-.056-.009-.114-.013-.173-.012-.2-.02-.4-.02-.6V530.2c0,.2.008.4.02.6,0,.058.009.115.013.172.011.153.027.305.046.457.006.052.012.1.019.155.028.2.06.391.1.585.008.035.016.068.023.1.035.163.073.325.115.487.015.058.03.116.047.173.043.156.091.312.141.468.012.038.024.077.038.117.065.19.135.379.211.568.019.047.039.091.059.139.06.146.125.292.192.438.025.055.05.109.077.164.083.172.169.342.261.511l.025.048c.1.183.207.366.318.547.031.05.063.1.1.152.087.138.177.277.27.414l.1.146c.125.179.253.356.386.53l.052.067c.119.155.243.307.37.46.042.052.086.1.13.153.115.137.235.272.357.406.036.039.069.079.107.117.155.169.316.336.481.5l.113.111c.135.133.27.264.411.395.05.048.1.1.156.144.154.141.312.281.472.421.026.022.051.044.077.067q.281.24.574.474c.052.042.106.084.159.125q.229.18.465.358c.058.042.114.085.172.128.208.152.417.3.632.453l.039.026c.2.141.413.281.623.417.065.043.13.084.2.126q.265.169.537.336c.058.034.113.07.17.1.234.14.471.28.712.417l.142.078c.2.113.4.223.607.334l.22.117c.211.11.423.219.638.327l.138.07c.258.128.521.254.787.378l.2.094c.208.1.418.191.63.284l.236.1c.269.117.54.231.817.344l.021.01c.284.115.571.227.861.338l.246.093q.337.128.68.25l.233.084c.3.1.6.207.9.308l.148.048q.389.127.782.248l.277.085c.249.076.5.149.754.223l.152.045.047.012c.357.1.718.2,1.081.293l.246.063q.556.143,1.122.277h.006q.571.135,1.155.258l.25.053q.576.12,1.16.23l.039.009.162.028c.263.048.527.1.792.142l.306.051c.247.042.495.081.745.119.094.015.19.03.285.044.676.1,1.363.193,2.054.275l.1.013.239.025.638.069.364.036.635.058.363.032.673.05.326.024c.28.019.56.036.843.052l.137.008h.023l.677.032c.087,0,.173.008.259.012.231.009.463.016.7.023l.249.009c.237.006.476.009.715.014l.235,0q.477.007.954.006h.439l.2,0,.679-.008.36-.008c.246-.006.489-.012.733-.021l.3-.01q1.025-.038,2.033-.106c.021,0,.044,0,.067,0l.191-.014c.281-.02.562-.041.842-.064l.331-.03c.272-.024.545-.049.816-.076l.267-.027q.533-.055,1.059-.118l.167-.021q.443-.054.883-.114l.135-.018.134-.021c.437-.062.872-.126,1.3-.2l.095-.016c.418-.069.834-.141,1.246-.217l.179-.033q.623-.117,1.234-.246l.24-.05q.611-.131,1.211-.271l.045-.01.125-.032c.328-.078.653-.158.976-.242l.225-.057q.536-.142,1.061-.291l.213-.062q.468-.135.93-.278c.059-.018.115-.035.172-.053.343-.107.681-.217,1.016-.329l.225-.078c.316-.106.629-.217.938-.33l.084-.031c.328-.119.652-.244.973-.37l.221-.089c.321-.127.637-.256.949-.391l.041-.018q.45-.193.887-.394l.205-.094c.3-.139.591-.279.878-.422.042-.02.082-.041.123-.061q.388-.195.767-.4l.175-.091q.414-.224.813-.453c.052-.03.1-.061.155-.09.238-.138.47-.278.7-.419l.133-.082c.254-.159.5-.32.747-.483l.161-.11q.341-.228.667-.464c.023-.018.048-.035.072-.051q.35-.255.681-.515l.156-.122c.222-.176.44-.353.65-.534l0,0c.14-.119.277-.24.412-.361.044-.039.085-.079.128-.118q.139-.127.275-.256l.15-.143.241-.237c.05-.051.1-.1.149-.152.079-.079.155-.16.231-.239.046-.05.094-.1.139-.149.082-.088.161-.177.24-.267.036-.041.074-.082.109-.123.113-.13.224-.261.332-.393.015-.019.029-.038.046-.058.081-.1.161-.2.239-.3h0c.006-.009.014-.02.022-.029.131-.172.258-.345.38-.518.026-.038.051-.076.079-.116.094-.138.186-.277.275-.417l.1-.165c.085-.138.165-.275.244-.411.025-.045.05-.088.075-.132q.149-.268.282-.54l.014-.027c.019-.04.035-.079.055-.119.056-.118.111-.237.164-.356.026-.062.052-.125.077-.187.046-.108.089-.216.131-.324.025-.065.049-.131.073-.2.04-.109.077-.218.112-.328.02-.064.042-.127.061-.19.037-.122.07-.246.1-.368.011-.041.025-.082.035-.122,0-.011,0-.021.006-.031.042-.164.079-.329.112-.495,0-.005,0-.011,0-.016.034-.17.062-.342.087-.515.008-.055.013-.111.02-.166.015-.117.029-.235.04-.353.007-.067.011-.133.015-.2.008-.108.016-.216.019-.323,0-.029,0-.059,0-.088v-.117c0-.06,0-.12,0-.179Z" transform="translate(-258.573 -300.626)" fill="#2a405e"/>
            <path id="Trazado_827665" data-name="Trazado 827665" d="M487.879,480.255c-20.214,0-36.6,8.492-36.6,18.967s16.387,19.829,36.6,19.829,36.6-9.353,36.6-19.829-16.386-18.967-36.6-18.967" transform="translate(-258.573 -275.176)" fill="#ffc8bf"/>
            <g id="Grupo_1078806" data-name="Grupo 1078806" transform="translate(359.099 226.144)" opacity="0.7">
              <g id="Grupo_1078805" data-name="Grupo 1078805">
                <g id="Grupo_1078804" data-name="Grupo 1078804" clip-path="url(#clip-path-15)">
                  <path id="Trazado_827666" data-name="Trazado 827666" d="M844.946,545.568a11.787,11.787,0,1,1,22.263-7.717,7.7,7.7,0,0,1,13.316,7.566h4.3a5.258,5.258,0,1,1,0,10.515H846.2a5.258,5.258,0,0,1-1.251-10.364" transform="translate(-840.94 -529.586)" fill="#fff"/>
                </g>
              </g>
            </g>
            <g id="Grupo_1078809" data-name="Grupo 1078809" transform="translate(132.319 28.803)" opacity="0.7">
              <g id="Grupo_1078808" data-name="Grupo 1078808">
                <g id="Grupo_1078807" data-name="Grupo 1078807" clip-path="url(#clip-path-16)">
                  <path id="Trazado_827667" data-name="Trazado 827667" d="M330.188,74.645a5.306,5.306,0,1,0-10.023-3.474,3.464,3.464,0,0,0-5.995,3.406h-1.937a2.367,2.367,0,1,0,0,4.734h17.391a2.367,2.367,0,0,0,.564-4.666" transform="translate(-309.866 -67.45)" fill="#fff"/>
                </g>
              </g>
            </g>
            <g id="Grupo_1078812" data-name="Grupo 1078812" transform="translate(259.379)" opacity="0.7">
              <g id="Grupo_1078811" data-name="Grupo 1078811">
                <g id="Grupo_1078810" data-name="Grupo 1078810" clip-path="url(#clip-path-17)">
                  <path id="Trazado_827668" data-name="Trazado 827668" d="M611.4,15.875A11.709,11.709,0,1,1,633.513,8.21a7.644,7.644,0,0,1,13.226,7.516h4.275a5.223,5.223,0,1,1,0,10.447H612.639a5.224,5.224,0,0,1-1.242-10.3" transform="translate(-607.416)" fill="#ffb476"/>
                </g>
              </g>
            </g>
            <g id="Grupo_1078815" data-name="Grupo 1078815" transform="translate(401.684 250.477)" opacity="0.7">
              <g id="Grupo_1078814" data-name="Grupo 1078814">
                <g id="Grupo_1078813" data-name="Grupo 1078813" clip-path="url(#clip-path-18)">
                  <path id="Trazado_827669" data-name="Trazado 827669" d="M943.554,598.093a8.5,8.5,0,1,1,16.053-5.566,5.548,5.548,0,0,1,9.6,5.457h3.1a3.791,3.791,0,1,1,0,7.582H944.456a3.791,3.791,0,0,1-.9-7.473" transform="translate(-940.665 -586.569)" fill="#ffb476"/>
                </g>
              </g>
            </g>
            <g id="Grupo_1078818" data-name="Grupo 1078818" transform="translate(103.038 227.21)" opacity="0.7">
              <g id="Grupo_1078817" data-name="Grupo 1078817">
                <g id="Grupo_1078816" data-name="Grupo 1078816" clip-path="url(#clip-path-19)">
                  <path id="Trazado_827670" data-name="Trazado 827670" d="M245.175,547.559a11.415,11.415,0,1,1,21.562-7.474,7.452,7.452,0,0,1,12.894,7.328H283.8a5.092,5.092,0,1,1,0,10.184H246.387a5.092,5.092,0,0,1-1.212-10.038" transform="translate(-241.295 -532.081)" fill="#fff"/>
                </g>
              </g>
            </g>
            <path id="Trazado_827671" data-name="Trazado 827671" d="M50.051,212.62a9.911,9.911,0,1,1,18.721-6.489,6.471,6.471,0,0,1,11.2,6.363h3.619a4.421,4.421,0,1,1,0,8.842H51.1a4.421,4.421,0,0,1-1.053-8.715" transform="translate(-26.748 -114.126)" fill="#fff"/>
            <path id="Trazado_827672" data-name="Trazado 827672" d="M642.369,240.825v6.8c0,.122,0,.243-.006.364v-6.8c0-.123.006-.243.006-.364" transform="translate(-368.06 -137.988)" fill="#517a8e"/>
            <path id="Trazado_827673" data-name="Trazado 827673" d="M521.606,240.825c0,.157-.006.314-.012.471,0,.133-.014.266-.023.4,0,.082-.01.164-.018.247-.013.145-.031.29-.05.435-.008.067-.014.136-.025.2-.029.213-.064.424-.107.635a.079.079,0,0,1,0,.014c-.039.206-.087.41-.137.614-.014.062-.033.124-.05.186-.041.152-.082.3-.128.453-.024.078-.049.157-.075.235-.042.135-.089.269-.137.4-.029.081-.06.162-.089.243-.05.133-.1.265-.159.4q-.047.115-.1.231c-.064.145-.131.29-.2.434-.029.061-.057.121-.087.181-.109.222-.225.443-.346.663-.031.055-.064.108-.1.163-.1.168-.195.337-.3.5l-.129.2q-.163.256-.338.51c-.032.047-.064.1-.1.144q-.225.318-.467.635c-.105.138-.214.276-.325.413-.018.022-.034.045-.052.065-.133.163-.269.325-.409.485-.042.048-.085.1-.127.143-.1.112-.2.225-.3.337l-.164.176q-.143.151-.289.3l-.18.181c-.1.1-.2.2-.3.3l-.181.173c-.113.107-.227.213-.342.318l-.155.141c-.168.151-.338.3-.512.451q-.389.33-.8.653c-.064.051-.127.1-.192.151q-.409.32-.837.632l-.088.064c-.267.192-.541.382-.817.57l-.2.137c-.3.2-.605.4-.917.591-.055.035-.111.069-.166.1q-.421.26-.855.513l-.193.113c-.328.187-.659.372-1,.554-.072.039-.146.077-.219.116q-.462.246-.936.484c-.053.026-.1.053-.157.079-.354.175-.714.346-1.077.516l-.257.118q-.534.244-1.08.48c-.021.01-.041.017-.061.028q-.572.242-1.161.478l-.28.111c-.393.154-.788.306-1.189.454-.038.015-.077.028-.115.041-.374.137-.753.271-1.136.4l-.288.1q-.613.206-1.24.4l-.224.067q-.559.174-1.129.338l-.273.079q-.642.183-1.3.353l-.291.076q-.585.151-1.179.293l-.226.054q-.731.172-1.476.331l-.311.065q-.746.155-1.5.3l-.245.045q-.742.136-1.5.261l-.143.023q-.789.129-1.589.24l-.348.05c-.348.047-.7.092-1.047.135l-.241.03q-.639.077-1.284.144l-.366.038c-.319.031-.639.062-.96.089-.147.014-.293.026-.441.038-.329.028-.661.053-.995.076-.117.009-.232.018-.349.025q-.612.042-1.228.074l-.117.006q-.563.029-1.132.05l-.425.014c-.279.009-.56.018-.84.024l-.484.01c-.265,0-.531.009-.8.011s-.534,0-.8,0c-.391,0-.783,0-1.171-.007-.139,0-.278-.006-.416-.009-.249,0-.5-.008-.747-.015-.17,0-.339-.012-.508-.016-.216-.008-.433-.013-.648-.022l-.537-.025c-.2-.01-.407-.018-.611-.029-.1,0-.2-.012-.3-.018-.311-.017-.622-.035-.93-.057-.152-.009-.3-.022-.451-.033-.26-.018-.517-.038-.775-.059l-.484-.042q-.37-.033-.737-.068c-.163-.015-.324-.032-.486-.048q-.373-.038-.744-.08l-.446-.05c-.42-.05-.839-.1-1.255-.157l-.061-.008q-.6-.081-1.188-.17l-.394-.061q-.433-.067-.863-.138l-.418-.07q-.457-.079-.91-.162c-.1-.019-.2-.037-.3-.057-.472-.088-.94-.182-1.405-.279l-.328-.07c-.473-.1-.942-.2-1.4-.313l-.03-.006c-.457-.108-.909-.22-1.358-.336-.1-.026-.205-.052-.308-.079q-.67-.174-1.328-.36l-.241-.07q-.469-.134-.932-.275l-.339-.1q-.486-.151-.965-.307l-.178-.058q-.558-.186-1.1-.379l-.289-.1c-.28-.1-.558-.2-.831-.306l-.306-.116c-.356-.136-.709-.274-1.056-.415l-.034-.014q-.5-.207-1-.421l-.294-.129q-.389-.172-.77-.346c-.085-.04-.172-.078-.256-.118-.326-.152-.649-.307-.965-.464l-.176-.089q-.393-.2-.776-.4l-.277-.147c-.25-.133-.5-.269-.74-.405-.059-.034-.12-.066-.181-.1-.294-.168-.585-.337-.871-.511-.073-.043-.144-.088-.216-.132q-.331-.2-.653-.408l-.245-.157c-.257-.169-.511-.337-.759-.508-.018-.012-.037-.024-.054-.038-.265-.182-.522-.368-.776-.554l-.216-.162q-.287-.216-.566-.436l-.2-.156q-.36-.288-.7-.581l-.1-.086q-.3-.255-.578-.515c-.065-.059-.129-.119-.194-.179-.171-.159-.339-.321-.5-.482-.047-.047-.095-.092-.141-.139q-.3-.3-.591-.616c-.045-.048-.088-.1-.132-.146-.15-.164-.3-.331-.437-.5-.054-.062-.108-.126-.16-.189-.156-.188-.307-.375-.453-.565-.021-.028-.044-.055-.065-.082-.165-.216-.322-.433-.474-.652l-.123-.181q-.172-.252-.332-.508c-.039-.064-.079-.125-.117-.187-.136-.223-.269-.448-.392-.673-.011-.019-.02-.039-.03-.058-.113-.208-.219-.417-.321-.628-.032-.067-.064-.135-.1-.2q-.124-.269-.237-.539c-.024-.058-.049-.114-.071-.171q-.14-.347-.259-.7c-.017-.049-.03-.1-.047-.145-.061-.19-.12-.382-.173-.574-.02-.07-.039-.14-.057-.212-.052-.2-.1-.4-.141-.6-.009-.042-.019-.083-.028-.125-.047-.239-.086-.48-.12-.72-.009-.064-.015-.127-.022-.191q-.037-.28-.057-.562c-.005-.07-.012-.14-.015-.212-.015-.245-.025-.491-.025-.737v6.8c0,.248.011.493.025.738,0,.072.01.141.015.211q.021.282.057.562c.007.064.013.128.022.192.034.24.073.48.12.72.009.041.02.083.028.124.043.2.089.4.141.6.018.072.037.143.057.213.053.192.112.383.173.574.017.047.03.1.047.144q.119.351.259.7c.023.057.047.114.071.17q.113.272.237.539c.032.068.063.135.1.2.1.21.208.42.321.627.01.02.019.039.03.059.123.225.255.45.392.673.038.061.079.124.116.186q.162.256.334.51l.123.18c.152.219.309.436.474.652.021.028.043.054.064.081.147.19.3.378.455.567.052.063.105.126.159.188q.214.252.439.5c.044.047.085.1.13.144q.288.311.592.617l.138.137c.164.162.333.324.5.484l.192.178q.284.262.583.518l.093.082q.345.295.706.583l.195.154c.188.147.379.294.572.439l.212.158c.255.187.513.374.779.557l.046.032c.251.173.506.344.769.514.079.053.159.1.24.154q.325.209.66.414l.21.128q.43.259.876.512c.057.032.117.064.174.1q.369.208.746.409l.272.145q.386.2.784.4l.169.085c.317.158.641.313.967.466l.251.116c.256.117.514.234.775.349.1.043.193.085.291.127q.5.216,1,.424l.026.011c.348.142.7.281,1.058.416l.3.114q.414.156.837.308l.287.1q.546.193,1.1.379l.181.059q.477.157.961.307l.341.1c.308.093.616.184.928.274l.187.056.057.015c.441.124.883.245,1.331.361l.3.077c.456.117.914.231,1.379.34h.009c.467.111.942.215,1.419.317l.309.066c.472.1.945.193,1.425.284l.05.01.2.035q.483.09.973.173l.376.064q.454.075.915.146l.351.054q1.249.186,2.527.337l.12.015c.1.011.2.02.3.032l.782.083c.148.015.3.031.448.045l.78.073.445.038.828.064.4.029c.345.023.69.044,1.038.063l.168.011h.027c.276.015.556.026.832.039l.319.014c.284.011.57.021.856.029l.305.01c.292.007.585.012.879.018l.289.005q.585.008,1.173.008c.181,0,.36,0,.54,0,.083,0,.166,0,.249,0,.279,0,.558-.006.836-.012l.445-.009c.3-.006.6-.015.9-.026l.366-.012q1.259-.048,2.5-.132l.082,0,.234-.019c.346-.024.692-.05,1.035-.079l.407-.035q.505-.044,1-.094l.329-.032c.436-.046.87-.094,1.3-.146l.2-.025q.546-.067,1.086-.141c.055-.008.111-.014.165-.021l.165-.025q.808-.114,1.6-.241l.117-.02q.772-.125,1.533-.266l.22-.04c.509-.1,1.016-.2,1.517-.3l.293-.061c.5-.107,1-.218,1.491-.334l.057-.012c.052-.012.1-.026.152-.038q.605-.145,1.2-.3l.277-.071q.659-.174,1.305-.357l.261-.075q.576-.167,1.144-.342c.071-.021.141-.042.212-.065q.63-.2,1.248-.406l.278-.094q.583-.2,1.152-.407l.1-.037c.4-.148.8-.3,1.2-.456l.273-.109q.591-.236,1.167-.481l.05-.023c.37-.158.732-.32,1.092-.486.085-.038.168-.076.251-.115.364-.17.726-.342,1.081-.518l.151-.077c.319-.159.633-.322.943-.486l.215-.114q.509-.274,1-.556c.064-.036.126-.074.191-.111q.436-.254.858-.514l.163-.1q.47-.293.919-.594c.068-.044.132-.091.2-.135q.418-.282.82-.571l.088-.063q.429-.313.839-.634c.064-.049.127-.1.19-.149.272-.217.541-.434.8-.655l0,0c.173-.147.341-.3.508-.445l.157-.144c.115-.1.227-.209.339-.314.063-.059.123-.118.185-.177q.15-.145.3-.292c.061-.062.123-.124.183-.186.1-.1.19-.2.282-.294.058-.061.115-.122.17-.183.1-.108.2-.217.3-.328.044-.051.091-.1.134-.152q.208-.24.407-.483l.057-.071c.1-.122.2-.245.293-.368h0c.009-.012.018-.025.028-.038q.242-.316.467-.637l.1-.141q.175-.255.339-.513c.042-.068.086-.136.128-.2q.155-.252.3-.506c.032-.053.064-.107.094-.161.122-.22.238-.442.347-.664.006-.011.012-.023.017-.033.024-.048.045-.1.069-.146.069-.146.136-.292.2-.437.034-.076.066-.153.1-.229.055-.134.109-.267.159-.4.029-.08.061-.162.089-.243.048-.134.095-.269.137-.4.026-.078.052-.156.075-.234.046-.15.087-.3.128-.453.013-.05.029-.1.042-.15,0-.012.006-.025.008-.038.05-.2.1-.4.137-.609,0-.007,0-.013,0-.019.043-.21.077-.421.107-.634.011-.068.017-.135.025-.2.019-.145.037-.29.05-.435.008-.082.013-.164.018-.246.009-.132.02-.265.023-.4,0-.036,0-.072.006-.107v-.143c0-.074.006-.147.006-.221Z" transform="translate(-247.297 -137.988)" fill="#193050"/>
            <path id="Trazado_827674" data-name="Trazado 827674" d="M476.6,186.207c24.854,0,45,10.442,45,23.323s-20.148,23.753-45,23.753-45-10.872-45-23.753,20.149-23.323,45-23.323" transform="translate(-247.297 -106.693)" fill="#40546e"/>
            <path id="Trazado_827675" data-name="Trazado 827675" d="M476.6,186.207c24.854,0,45,10.442,45,23.323s-20.148,23.753-45,23.753-45-10.872-45-23.753,20.149-23.323,45-23.323" transform="translate(-247.297 -106.693)" fill="#4c5e77"/>
            <path id="Trazado_827676" data-name="Trazado 827676" d="M486.446,229.906c-16.25,0-29.472-6.851-29.472-15.273s13.222-15.275,29.472-15.275,29.472,6.853,29.472,15.275-13.22,15.273-29.472,15.273m0-34.794c-20.8,0-37.665,8.739-37.665,19.52s16.864,19.52,37.665,19.52,37.665-8.739,37.665-19.52-16.861-19.52-37.665-19.52" transform="translate(-257.142 -111.795)" fill="#ffc8bf"/>
            <path id="Trazado_827677" data-name="Trazado 827677" d="M509.42,232.685c-6.54,0-11.861-2.756-11.861-6.147s5.321-6.149,11.861-6.149,11.863,2.759,11.863,6.149-5.319,6.147-11.863,6.147m0-16.794c-11.344,0-20.543,4.767-20.543,10.647s9.2,10.648,20.543,10.648,20.547-4.767,20.547-10.648-9.2-10.647-20.547-10.647" transform="translate(-280.116 -123.701)" fill="#ffc8bf"/>
            <path id="Trazado_827678" data-name="Trazado 827678" d="M521.178,77.546l11.787-9.064L532.92,43.3l-11.742,9.029-11.743-9.064V68.482Z" transform="translate(-291.896 -24.79)" fill="#c33a32"/>
            <path id="Trazado_827679" data-name="Trazado 827679" d="M508.67,41.707l12.07,9.316,12.069-9.28.047,26.006-12.118,9.316L508.67,67.75Zm12.068,10.142-11.415-8.811V67.428L520.74,76.24l11.46-8.812-.044-24.358Z" transform="translate(-291.457 -23.897)" fill="#fff"/>
            <path id="Trazado_827680" data-name="Trazado 827680" d="M532.927,46.666,532.92,43.3l-11.742,9.029-11.743-9.064v3.37L521.178,55.7Z" transform="translate(-291.896 -24.79)" fill="#f1f2f2"/>
            <path id="Trazado_827681" data-name="Trazado 827681" d="M532.927,59.38l-.007-3.367-11.742,9.029-11.743-9.063V59.35l11.743,9.064Z" transform="translate(-291.896 -32.075)" fill="#f1f2f2"/>
            <path id="Trazado_827682" data-name="Trazado 827682" d="M532.927,72.092l-.007-3.366-11.742,9.029-11.743-9.064v3.37l11.743,9.064Z" transform="translate(-291.896 -39.359)" fill="#f1f2f2"/>
            <path id="Trazado_827683" data-name="Trazado 827683" d="M532.927,84.8l-.007-3.366-11.742,9.029L509.435,81.4v3.371l11.743,9.064Z" transform="translate(-291.896 -46.643)" fill="#f1f2f2"/>
            <path id="Trazado_827684" data-name="Trazado 827684" d="M532.927,97.519l-.007-3.367-11.742,9.029-11.743-9.063v3.37l11.743,9.064Z" transform="translate(-291.896 -53.928)" fill="#f1f2f2"/>
            <rect id="Rectángulo_378895" data-name="Rectángulo 378895" width="1.513" height="51.117" transform="translate(228.549 50.899)" fill="#fff"/>
            <path id="Trazado_827685" data-name="Trazado 827685" d="M824.213,319.13l-12.717-.854a2.34,2.34,0,0,0-2.4,2.276l-.185,7.016a2.34,2.34,0,0,0,2.277,2.4l8.269.045a3.7,3.7,0,0,0,3.494,2.474,3.448,3.448,0,0,1-1.038-2.461l1.752.011a2.341,2.341,0,0,0,2.4-2.277l.423-6.23a2.339,2.339,0,0,0-2.276-2.4" transform="translate(-463.488 -182.365)" fill="#2a405e"/>
            <path id="Trazado_827686" data-name="Trazado 827686" d="M850,167.2l-19.885-1.336a3.662,3.662,0,0,0-3.756,3.56l-.289,10.97a3.659,3.659,0,0,0,3.562,3.753l12.931.071a5.793,5.793,0,0,0,5.464,3.869,5.393,5.393,0,0,1-1.623-3.849l2.739.018a3.66,3.66,0,0,0,3.755-3.561l.661-9.743A3.658,3.658,0,0,0,850,167.2" transform="translate(-473.32 -95.034)" fill="#2a405e"/>
            <path id="Trazado_827687" data-name="Trazado 827687" d="M811.857,374.232l15.936-1.071a2.935,2.935,0,0,1,3.008,2.854l.231,8.791a2.93,2.93,0,0,1-2.853,3.007l-10.361.058a4.652,4.652,0,0,1-4.38,3.1,4.324,4.324,0,0,0,1.3-3.082l-2.2.012a2.933,2.933,0,0,1-3.008-2.855L809,377.24a2.933,2.933,0,0,1,2.854-3.008" transform="translate(-463.541 -213.813)" fill="#fff"/>
            <path id="Trazado_827688" data-name="Trazado 827688" d="M1014.507,247.673l15.936-1.071a2.936,2.936,0,0,1,3.009,2.855l.231,8.79a2.929,2.929,0,0,1-2.854,3.007l-10.36.058a4.652,4.652,0,0,1-4.38,3.1,4.325,4.325,0,0,0,1.3-3.082l-2.2.013a2.934,2.934,0,0,1-3.008-2.855l-.531-7.805a2.933,2.933,0,0,1,2.853-3.008" transform="translate(-579.655 -141.297)" fill="#fff"/>
            <path id="Trazado_827689" data-name="Trazado 827689" d="M283.017,359.165l15.936-1.071a2.937,2.937,0,0,1,3.009,2.854l.231,8.791a2.929,2.929,0,0,1-2.854,3.007l-10.361.058a4.651,4.651,0,0,1-4.38,3.1,4.326,4.326,0,0,0,1.3-3.082l-2.2.012a2.935,2.935,0,0,1-3.009-2.856l-.531-7.805a2.933,2.933,0,0,1,2.853-3.008" transform="translate(-160.527 -205.18)" fill="#fff"/>
            <path id="Trazado_827690" data-name="Trazado 827690" d="M205.793,318.057l-12.717-.854a2.341,2.341,0,0,0-2.4,2.276l-.184,7.016a2.34,2.34,0,0,0,2.277,2.4l8.269.045a3.7,3.7,0,0,0,3.495,2.474,3.448,3.448,0,0,1-1.038-2.461l1.752.011a2.341,2.341,0,0,0,2.4-2.277l.423-6.23a2.339,2.339,0,0,0-2.276-2.4" transform="translate(-109.146 -181.75)" fill="#2a405e"/>
            <path id="Trazado_827691" data-name="Trazado 827691" d="M2.855,285.774,18.791,284.7a2.935,2.935,0,0,1,3.009,2.854l.231,8.791a2.93,2.93,0,0,1-2.854,3.007l-10.361.058a4.65,4.65,0,0,1-4.38,3.1,4.326,4.326,0,0,0,1.3-3.083l-2.2.013a2.934,2.934,0,0,1-3.008-2.855L0,288.782a2.932,2.932,0,0,1,2.853-3.008" transform="translate(0 -163.128)" fill="#fff"/>
            <rect id="Rectángulo_378896" data-name="Rectángulo 378896" width="0.844" height="1.127" transform="translate(85.909 185.213) rotate(-72.051)" fill="#fff"/>
            <path id="Trazado_827692" data-name="Trazado 827692" d="M257.276,449.953l-.261.8-2.1-.68.26-.8Zm-4.2-1.364-.261.8-2.1-.683.26-.8Zm-4.207-1.363-.261.8-2.1-.682.26-.8Zm-4.207-1.365-.26.8-2.1-.681.26-.8ZM240.45,444.5l-.26.8-2.1-.683.26-.8Zm-4.208-1.363-.26.8-2.1-.682.26-.8Zm-4.208-1.365-.261.8-2.1-.682.26-.8Zm-4.208-1.364-.261.8-2.1-.682.26-.8Zm-4.209-1.365-.26.8-2.106-.682.26-.8Zm-4.209-1.364-.26.8-2.105-.683.261-.8ZM215.2,436.31l-.26.8-2.105-.683.26-.8Zm-4.208-1.364-.26.8-2.1-.683.26-.8Z" transform="translate(-119.537 -248.824)" fill="#fff"/>
            <rect id="Rectángulo_378897" data-name="Rectángulo 378897" width="0.844" height="1.127" transform="translate(139.61 202.623) rotate(-72.032)" fill="#fff"/>
            <path id="Trazado_827693" data-name="Trazado 827693" d="M205.406,426.856l-5.762,1.744a.662.662,0,0,0-.691.824.6.6,0,0,0,.307.359l3.643,4.793a.59.59,0,1,0,.939-.713l-3.277-4.31,5.183-1.569a.589.589,0,1,0-.342-1.128" transform="translate(-113.982 -244.565)" fill="#fff"/>
            <rect id="Rectángulo_378898" data-name="Rectángulo 378898" width="0.845" height="2.213" transform="translate(162.993 210.205) rotate(-72.055)" fill="#fff"/>
            <rect id="Rectángulo_378899" data-name="Rectángulo 378899" width="0.845" height="2.213" transform="translate(158.785 208.839) rotate(-72.016)" fill="#fff"/>
            <rect id="Rectángulo_378900" data-name="Rectángulo 378900" width="0.845" height="2.212" transform="matrix(0.309, -0.951, 0.951, 0.309, 154.577, 207.475)" fill="#fff"/>
            <rect id="Rectángulo_378901" data-name="Rectángulo 378901" width="0.844" height="2.213" transform="matrix(0.308, -0.951, 0.951, 0.308, 150.367, 206.11)" fill="#fff"/>
            <rect id="Rectángulo_378902" data-name="Rectángulo 378902" width="0.845" height="2.213" transform="translate(146.158 204.747) rotate(-72.061)" fill="#fff"/>
            <rect id="Rectángulo_378903" data-name="Rectángulo 378903" width="0.844" height="2.044" transform="matrix(0.308, -0.951, 0.951, 0.308, 142.109, 203.433)" fill="#fff"/>
            <rect id="Rectángulo_378904" data-name="Rectángulo 378904" width="0.845" height="2.213" transform="translate(167.201 211.568) rotate(-72.026)" fill="#fff"/>
            <rect id="Rectángulo_378905" data-name="Rectángulo 378905" width="0.845" height="2.209" transform="matrix(0.309, -0.951, 0.951, 0.309, 184.03, 217.024)" fill="#fff"/>
            <rect id="Rectángulo_378906" data-name="Rectángulo 378906" width="0.844" height="2.212" transform="translate(179.823 215.661) rotate(-72.055)" fill="#fff"/>
            <rect id="Rectángulo_378907" data-name="Rectángulo 378907" width="0.844" height="2.211" transform="matrix(0.309, -0.951, 0.951, 0.309, 175.617, 214.296)" fill="#fff"/>
            <rect id="Rectángulo_378908" data-name="Rectángulo 378908" width="0.845" height="2.211" transform="translate(171.41 212.933) rotate(-72.034)" fill="#fff"/>
            <rect id="Rectángulo_378909" data-name="Rectángulo 378909" width="0.844" height="1.127" transform="translate(188.264 218.397) rotate(-72.105)" fill="#fff"/>
            <rect id="Rectángulo_378910" data-name="Rectángulo 378910" width="1.126" height="0.844" transform="matrix(0.942, -0.337, 0.337, 0.942, 371.321, 181.751)" fill="#fff"/>
            <path id="Trazado_827694" data-name="Trazado 827694" d="M752.776,445.278l-.284-.8,2.08-.743.284.8Zm4.162-1.487-.284-.8,2.083-.744.284.8ZM761.1,442.3l-.283-.8,2.082-.743.284.8Zm4.166-1.487-.285-.8,2.083-.744.284.8Zm4.164-1.489-.283-.795,2.082-.745.285.795Zm4.166-1.489-.283-.8,2.082-.743.285.795Zm4.167-1.488-.284-.8,2.083-.744.284.8Zm4.165-1.489-.283-.795,2.083-.745.284.8Zm4.168-1.488-.284-.8,2.083-.745.283.795Zm4.165-1.489-.284-.8,2.084-.745.283.8Zm4.169-1.489-.284-.8,2.083-.744.285.8Zm4.167-1.489-.284-.795,2.084-.744.284.8Z" transform="translate(-431.162 -244.873)" fill="#fff"/>
            <path id="Trazado_827695" data-name="Trazado 827695" d="M745.351,470.387l-.284-.795,1.06-.378.284.795Z" transform="translate(-426.907 -268.85)" fill="#fff"/>
            <path id="Trazado_827696" data-name="Trazado 827696" d="M861.33,427.756l3.5-4.9a.589.589,0,0,0,.3-.366.582.582,0,0,0-.032-.389.571.571,0,0,0-.222-.319.588.588,0,0,0-.462-.1l-5.812-1.572a.59.59,0,0,0-.309,1.138l5.227,1.413-3.147,4.406a.589.589,0,1,0,.959.685" transform="translate(-491.533 -240.705)" fill="#fff"/>
            <rect id="Rectángulo_378911" data-name="Rectángulo 378911" width="2.212" height="0.845" transform="translate(293.987 209.378) rotate(-19.67)" fill="#fff"/>
            <rect id="Rectángulo_378912" data-name="Rectángulo 378912" width="2.213" height="0.845" transform="matrix(0.942, -0.336, 0.336, 0.942, 298.154, 207.889)" fill="#fff"/>
            <rect id="Rectángulo_378913" data-name="Rectángulo 378913" width="2.213" height="0.844" transform="matrix(0.942, -0.336, 0.336, 0.942, 302.32, 206.4)" fill="#fff"/>
            <rect id="Rectángulo_378914" data-name="Rectángulo 378914" width="2.213" height="0.844" transform="translate(306.487 204.913) rotate(-19.672)" fill="#fff"/>
            <rect id="Rectángulo_378915" data-name="Rectángulo 378915" width="2.213" height="0.844" transform="translate(310.653 203.425) rotate(-19.701)" fill="#fff"/>
            <rect id="Rectángulo_378916" data-name="Rectángulo 378916" width="2.044" height="0.844" transform="translate(314.821 201.936) rotate(-19.681)" fill="#fff"/>
            <rect id="Rectángulo_378917" data-name="Rectángulo 378917" width="2.213" height="0.844" transform="translate(289.822 210.866) rotate(-19.635)" fill="#fff"/>
            <rect id="Rectángulo_378918" data-name="Rectángulo 378918" width="2.209" height="0.845" transform="translate(273.165 216.817) rotate(-19.665)" fill="#fff"/>
            <rect id="Rectángulo_378919" data-name="Rectángulo 378919" width="2.212" height="0.844" transform="translate(277.328 215.33) rotate(-19.659)" fill="#fff"/>
            <rect id="Rectángulo_378920" data-name="Rectángulo 378920" width="2.211" height="0.845" transform="translate(281.492 213.842) rotate(-19.667)" fill="#fff"/>
            <rect id="Rectángulo_378921" data-name="Rectángulo 378921" width="2.211" height="0.844" transform="matrix(0.942, -0.336, 0.336, 0.942, 285.657, 212.354)" fill="#fff"/>
            <rect id="Rectángulo_378922" data-name="Rectángulo 378922" width="1.127" height="0.844" transform="matrix(0.942, -0.337, 0.337, 0.942, 269.994, 217.95)" fill="#fff"/>
            <path id="Trazado_827697" data-name="Trazado 827697" d="M390.29,420.831l-12.717-.854a2.341,2.341,0,0,0-2.4,2.276l-.185,7.016a2.34,2.34,0,0,0,2.278,2.4l8.269.045a3.7,3.7,0,0,0,3.495,2.474,3.447,3.447,0,0,1-1.038-2.461l1.752.011a2.341,2.341,0,0,0,2.4-2.277l.422-6.23a2.338,2.338,0,0,0-2.276-2.4" transform="translate(-214.859 -240.637)" fill="#2a405e"/>
            <g id="Grupo_1078821" data-name="Grupo 1078821" transform="translate(38.865 153.488)" style="mix-blend-mode: multiply;isolation: isolate">
              <g id="Grupo_1078820" data-name="Grupo 1078820">
                <g id="Grupo_1078819" data-name="Grupo 1078819" clip-path="url(#clip-path-20)">
                  <path id="Trazado_827698" data-name="Trazado 827698" d="M91.014,371.94l18.075,12.881,13.957-19.585c-5.941-3.227-14.052-5.369-23.124-5.8Z" transform="translate(-91.014 -359.44)" fill="#aecccd"/>
                </g>
              </g>
            </g>
            <g id="Grupo_1078824" data-name="Grupo 1078824" transform="translate(230.984 205.101)" style="mix-blend-mode: multiply;isolation: isolate">
              <g id="Grupo_1078823" data-name="Grupo 1078823">
                <g id="Grupo_1078822" data-name="Grupo 1078822" clip-path="url(#clip-path-21)">
                  <path id="Trazado_827699" data-name="Trazado 827699" d="M555.056,489.754l4-6.446a62.3,62.3,0,0,0-18.137-3Z" transform="translate(-540.919 -480.307)" fill="#aecccd"/>
                </g>
              </g>
            </g>
            <g id="Grupo_1078827" data-name="Grupo 1078827" transform="translate(427.986 155.633)" style="mix-blend-mode: multiply;isolation: isolate">
              <g id="Grupo_1078826" data-name="Grupo 1078826">
                <g id="Grupo_1078825" data-name="Grupo 1078825" clip-path="url(#clip-path-22)">
                  <path id="Trazado_827700" data-name="Trazado 827700" d="M1025.725,376.866c-2.426-5.374-9.255-9.869-18.415-12.4l-5.051,7.088,18.075,12.882Z" transform="translate(-1002.259 -364.462)" fill="#aecccd"/>
                </g>
              </g>
            </g>
            <path id="Trazado_827701" data-name="Trazado 827701" d="M96.705,343.8a1.518,1.518,0,0,1-1.522,1.518l-25.094-.1a1.523,1.523,0,0,1-1.516-1.53l.218-52.465a1.521,1.521,0,0,1,1.525-1.515l25.093.106a1.521,1.521,0,0,1,1.514,1.523Z" transform="translate(-39.291 -165.993)" fill="#2a405e"/>
            <path id="Trazado_827702" data-name="Trazado 827702" d="M100.594,398.638a2.851,2.851,0,1,1-2.841-2.864,2.85,2.85,0,0,1,2.841,2.864" transform="translate(-54.371 -226.77)" fill="#7dbad8"/>
            <rect id="Rectángulo_378926" data-name="Rectángulo 378926" width="37.638" height="24.717" transform="translate(31.035 167.244) rotate(-89.767)" fill="#e4e9eb"/>
            <path id="Trazado_827703" data-name="Trazado 827703" d="M100.31,297.417a.472.472,0,0,1-.473.471L90.9,297.85a.471.471,0,0,1-.468-.478.476.476,0,0,1,.472-.472l8.942.038a.472.472,0,0,1,.468.479" transform="translate(-51.813 -170.117)" fill="#7dbad8"/>
            <path id="Trazado_827704" data-name="Trazado 827704" d="M522.4,452.921a14.96,14.96,0,0,1,3.7-9.877H500.884a15.016,15.016,0,0,1-3.2,23.19h.065V468.4h32.641v-2.171h.065a15.018,15.018,0,0,1-8.057-13.313" transform="translate(-285.161 -253.855)" fill="#2a405e"/>
            <path id="Trazado_827705" data-name="Trazado 827705" d="M509.023,456.082h18a15.055,15.055,0,0,1,3.371-13.037H505.181a14.962,14.962,0,0,1,3.842,13.037" transform="translate(-289.458 -253.855)" fill="#0a2345"/>
            <path id="Rectángulo_378927" data-name="Rectángulo 378927" d="M10,0H64.747a10,10,0,0,1,10,10V42.344a10,10,0,0,1-10,10H10a10,10,0,0,1-10-10V10A10,10,0,0,1,10,0Z" transform="translate(191.531 146.839)" fill="#2a405e"/>
            <path id="Trazado_827706" data-name="Trazado 827706" d="M535.693,456.509a1.057,1.057,0,1,1-1.058-1.056,1.057,1.057,0,0,1,1.058,1.056" transform="translate(-305.73 -260.965)" fill="#7dbad8"/>
            <rect id="Rectángulo_378928" data-name="Rectángulo 378928" width="66.666" height="40.05" transform="translate(195.573 150.834)" fill="#e4e9eb"/>
            <path id="Trazado_827707" data-name="Trazado 827707" d="M525.764,532.408h-60.21l4.669-13.516H521.1Z" transform="translate(-266.752 -297.314)" fill="#2a405e"/>
            <path id="Trazado_827708" data-name="Trazado 827708" d="M527.661,521.416H481.73l-.406,1.177h46.741Z" transform="translate(-275.788 -298.761)" fill="#7dbad8"/>
            <path id="Trazado_827709" data-name="Trazado 827709" d="M527.818,527.027,527.1,525.5H480.355l-.723,1.526Z" transform="translate(-274.819 -301.101)" fill="#7dbad8"/>
            <path id="Trazado_827710" data-name="Trazado 827710" d="M526.848,529.959H478.663l-.723,1.714h49.634Z" transform="translate(-273.849 -303.656)" fill="#7dbad8"/>
            <path id="Trazado_827711" data-name="Trazado 827711" d="M527.327,536.592l-.722-1.7H476.97l-.722,1.7Z" transform="translate(-272.88 -306.481)" fill="#7dbad8"/>
            <path id="Trazado_827712" data-name="Trazado 827712" d="M517.336,541.729h13.311l-.723-1.527H518.059Z" transform="translate(-296.423 -309.525)" fill="#7dbad8"/>
            <rect id="Rectángulo_378929" data-name="Rectángulo 378929" width="60.21" height="1.864" transform="translate(198.801 235.094)" fill="#0a2345"/>
            <path id="Rectángulo_378930" data-name="Rectángulo 378930" d="M8.418,0H54.5a8.418,8.418,0,0,1,8.418,8.418V35.641A8.416,8.416,0,0,1,54.5,44.057H8.417A8.417,8.417,0,0,1,0,35.64V8.418A8.418,8.418,0,0,1,8.418,0Z" transform="translate(384.34 132.395)" fill="#2a405e"/>
            <rect id="Rectángulo_378931" data-name="Rectángulo 378931" width="53.018" height="35.43" transform="translate(389.379 136.708)" fill="#e4e9eb"/>
            <path id="Trazado_827713" data-name="Trazado 827713" d="M904.808,359.685a1.45,1.45,0,1,1-1.45-1.451,1.449,1.449,0,0,1,1.45,1.451" transform="translate(-516.774 -205.261)" fill="#7dbad8"/>
            <path id="Trazado_827714" data-name="Trazado 827714" d="M1041.554,360.414a.907.907,0,1,1-.907-.907.9.9,0,0,1,.907.907" transform="translate(-595.75 -205.99)" fill="#7dbad8"/>
            <path id="Trazado_827715" data-name="Trazado 827715" d="M659.984,380.148l-12.717-.854a2.341,2.341,0,0,0-2.4,2.276l-.185,7.016a2.339,2.339,0,0,0,2.277,2.4l8.269.045a3.7,3.7,0,0,0,3.494,2.475,3.451,3.451,0,0,1-1.038-2.461l1.752.011a2.342,2.342,0,0,0,2.4-2.277l.422-6.23a2.338,2.338,0,0,0-2.276-2.4" transform="translate(-369.388 -217.327)" fill="#2a405e"/>
            <path id="Trazado_827716" data-name="Trazado 827716" d="M665.708,391.558l15.936-1.071a2.934,2.934,0,0,1,3.009,2.854l.231,8.791a2.929,2.929,0,0,1-2.853,3.007l-10.361.058a4.651,4.651,0,0,1-4.38,3.1,4.326,4.326,0,0,0,1.3-3.083l-2.2.013a2.934,2.934,0,0,1-3.009-2.855l-.531-7.8a2.933,2.933,0,0,1,2.853-3.008" transform="translate(-379.801 -223.74)" fill="#fff"/>
          </g>
        </g>
      </g>
    </g>
  </g>
</svg>
