<svg id="Grupo_1079447" data-name="Grupo 1079447" xmlns="http://www.w3.org/2000/svg" xmlns:xlink="http://www.w3.org/1999/xlink" width="85" height="86.469" viewBox="0 0 85 86.469">
  <defs>
    <clipPath id="clip-path">
      <rect id="Rect치ngulo_379180" data-name="Rect치ngulo 379180" width="85" height="86.469" transform="translate(0 0)" fill="none"/>
    </clipPath>
    <clipPath id="clip-path-2">
      <circle id="Elipse_11399" data-name="Elipse 11399" cx="42.5" cy="42.5" r="42.5" transform="translate(0 0)" fill="none"/>
    </clipPath>
  </defs>
  <g id="Grupo_1079444" data-name="Grupo 1079444">
    <g id="Grupo_1079443" data-name="Grupo 1079443" clip-path="url(#clip-path)">
      <path id="Trazado_828905" data-name="Trazado 828905" d="M42.5,0A42.5,42.5,0,1,1,0,42.5,42.5,42.5,0,0,1,42.5,0" fill="#c6daee"/>
    </g>
  </g>
  <g id="Grupo_1079446" data-name="Grupo 1079446">
    <g id="Grupo_1079445" data-name="Grupo 1079445" clip-path="url(#clip-path-2)">
      <path id="Trazado_828906" data-name="Trazado 828906" d="M38.154,33.233a2.189,2.189,0,0,1-2.173,2.173H33.808a6.518,6.518,0,0,0-4.519-6.2c-.826-6.5-4.172-9.006-4.172-9.006A13.018,13.018,0,0,1,38.154,33.233" fill="#ffe594"/>
      <path id="Trazado_828907" data-name="Trazado 828907" d="M25.117,20.2s-3.346,2.51-4.172,9.007a6.517,6.517,0,0,0-4.52,6.2H14.253a2.179,2.179,0,0,1-2.173-2.173A13.018,13.018,0,0,1,25.117,20.2" fill="#ffe594"/>
      <path id="Trazado_828908" data-name="Trazado 828908" d="M29.289,29.2a6.43,6.43,0,0,0-2-.315H22.944a6.43,6.43,0,0,0-2,.315c.826-6.5,4.172-9.007,4.172-9.007s3.346,2.51,4.172,9.007" fill="#ffcd58"/>
      <path id="Trazado_828909" data-name="Trazado 828909" d="M29.289,29.2a6.519,6.519,0,0,1,4.52,6.2,22.476,22.476,0,0,0-8.692-2.173,22.476,22.476,0,0,0-8.692,2.173,6.519,6.519,0,0,1,4.52-6.2,6.43,6.43,0,0,1,2-.315H27.29a6.43,6.43,0,0,1,2,.315" fill="#ffcd58"/>
      <rect id="Rect치ngulo_379181" data-name="Rect치ngulo 379181" width="23.902" height="23.902" transform="translate(30.549 61.481)" fill="#cb8e57"/>
      <path id="Trazado_828910" data-name="Trazado 828910" d="M39.762,61.481H30.549l2.542-6.758a10.867,10.867,0,0,1,6.671,6.758" fill="#afc96a"/>
      <path id="Trazado_828911" data-name="Trazado 828911" d="M17.512,68h-7.6V64.958a10.834,10.834,0,0,1,7.236-10.234l2.542,6.757,5.432-4.346,5.432,4.346v9.811a3.84,3.84,0,0,0-2.2,1.086L27.29,73.432l-9.778-2.173Z" fill="#afc96a"/>
      <path id="Trazado_828912" data-name="Trazado 828912" d="M33.091,54.723l-2.542,6.758-5.433-4.346,4.346-3.259,2.13.423A10.274,10.274,0,0,1,33.091,54.723Z" fill="#9cbf54"/>
      <path id="Trazado_828913" data-name="Trazado 828913" d="M25.117,57.135l-5.432,4.346-2.543-6.758a9.563,9.563,0,0,1,1.5-.424l2.129-.423Z" fill="#9cbf54"/>
      <path id="Trazado_828914" data-name="Trazado 828914" d="M72.921,33.233v5.432a3.255,3.255,0,0,0-3.259-3.259H68.575l-.391-.152a19.41,19.41,0,0,1-8.3-6.367,19.419,19.419,0,0,1-8.3,6.367l-.391.152H50.106a3.264,3.264,0,0,0-3.26,3.259V33.233a13.037,13.037,0,0,1,26.075,0" fill="#525b66"/>
      <path id="Trazado_828915" data-name="Trazado 828915" d="M72.921,38.665v10.6a11.075,11.075,0,0,1-2.368,6.855A10.813,10.813,0,0,0,66.359,54.3l-2.13-.424V51.29a1.09,1.09,0,0,1,.6-.978,6.747,6.747,0,0,0,3.748-6.052V41.924h1.087a3.264,3.264,0,0,0,3.259-3.259" fill="#525b66"/>
      <path id="Trazado_828916" data-name="Trazado 828916" d="M55.537,51.29v2.586l-2.129.423a10.823,10.823,0,0,0-4.194,1.826,11.073,11.073,0,0,1-2.369-6.856v-10.6a3.255,3.255,0,0,0,3.26,3.26h1.086v2.336a6.737,6.737,0,0,0,3.748,6.051,1.089,1.089,0,0,1,.6.978" fill="#525b66"/>
      <path id="Trazado_828917" data-name="Trazado 828917" d="M56.624,74.518l-.163-.315a3.293,3.293,0,0,0-2.01-1.706V61.481H45.238a10.911,10.911,0,0,1,8.17-7.182l2.13-.424a3.255,3.255,0,0,0,3.259,3.26H60.97a3.255,3.255,0,0,0,3.259-3.26l2.13.424a10.886,10.886,0,0,1,8.735,10.658v6.3A8.689,8.689,0,0,1,66.4,79.95H56.624Z" fill="#e65b73"/>
      <path id="Trazado_828918" data-name="Trazado 828918" d="M45.759,61.481V68H39.24V61.481h6.519Z" fill="#a56434"/>
      <path id="Trazado_828919" data-name="Trazado 828919" d="M56.624,74.518V79.95H53.462A3.353,3.353,0,0,1,50.1,76.593V75.7A3.349,3.349,0,0,1,54.451,72.5a3.293,3.293,0,0,1,2.01,1.706Z" fill="#efc5a5"/>
      <path id="Trazado_828920" data-name="Trazado 828920" d="M69.661,35.406a3.26,3.26,0,0,1,0,6.519H68.575V35.406Z" fill="#efc5a5"/>
      <path id="Trazado_828921" data-name="Trazado 828921" d="M68.575,41.925v2.336a6.745,6.745,0,0,1-3.748,6.051,1.089,1.089,0,0,0-.6.978v2.586a3.255,3.255,0,0,1-3.259,3.259H58.8a3.254,3.254,0,0,1-3.259-3.259V51.29a1.091,1.091,0,0,0-.6-.978,6.732,6.732,0,0,1-3.748-6.051V35.406l.391-.152a19.408,19.408,0,0,0,8.3-6.366,19.416,19.416,0,0,0,8.3,6.366l.391.152Z" fill="#efc5a5"/>
      <path id="Trazado_828922" data-name="Trazado 828922" d="M51.192,35.406v6.519H50.106a3.26,3.26,0,0,1,0-6.519Z" fill="#efc5a5"/>
      <path id="Trazado_828923" data-name="Trazado 828923" d="M34.9,35.406a3.26,3.26,0,0,1,0,6.519H33.809V35.406Z" fill="#efc5a5"/>
      <path id="Trazado_828924" data-name="Trazado 828924" d="M17.512,71.259l9.778,2.173,1.054-1.054a3.828,3.828,0,0,1,2.2-1.086,3.651,3.651,0,0,1,.489-.033h.055a3.807,3.807,0,0,1,3.8,3.8,3.821,3.821,0,0,1-3.8,3.8H18.6a8.688,8.688,0,0,1-8.691-8.691V68h7.6Z" fill="#efc5a5"/>
      <path id="Trazado_828925" data-name="Trazado 828925" d="M33.808,41.925v1.63a7.616,7.616,0,0,1-3.042,6.084l-.869.652a1.1,1.1,0,0,0-.435.869v2.716l-4.346,3.259-4.345-3.259V51.16a1.1,1.1,0,0,0-.435-.869l-.869-.652a7.616,7.616,0,0,1-3.042-6.084V35.406a22.475,22.475,0,0,1,8.691-2.173,22.476,22.476,0,0,1,8.692,2.173Z" fill="#efc5a5"/>
      <path id="Trazado_828926" data-name="Trazado 828926" d="M16.425,35.406v6.519H15.339a3.26,3.26,0,1,1,0-6.519Z" fill="#efc5a5"/>
      <path id="Trazado_828927" data-name="Trazado 828927" d="M72.034,55.917a12.273,12.273,0,0,0,1.973-6.65V33.233a14.124,14.124,0,1,0-28.248,0V49.267a12.274,12.274,0,0,0,1.974,6.651A11.94,11.94,0,0,0,44.519,60.4H40.48a11.958,11.958,0,0,0-8.674-7.158l-1.257-.251V51.16l.868-.653A8.732,8.732,0,0,0,34.9,43.555v-.544a4.33,4.33,0,0,0,3.172-7.3,3.236,3.236,0,0,0,1.174-2.483,14.124,14.124,0,1,0-28.248,0,3.238,3.238,0,0,0,1.173,2.483,4.331,4.331,0,0,0,3.173,7.3v.544a8.731,8.731,0,0,0,3.475,6.952l.871.653v1.826l-1.257.251A11.984,11.984,0,0,0,8.82,64.955v5.218A9.789,9.789,0,0,0,18.6,79.951H29.463v6.518H55.537V81.037H66.4a9.789,9.789,0,0,0,9.778-9.778v-6.3A11.967,11.967,0,0,0,72.034,55.917Zm-5.462-2.68-1.257-.251v-1.7a7.819,7.819,0,0,0,4.346-7.033V43.011a4.3,4.3,0,0,0,2.173-.6v6.86a10.086,10.086,0,0,1-1.572,5.383,11.887,11.887,0,0,0-3.69-1.413m-2.228-3.893a2.159,2.159,0,0,0-1.2,1.944v2.588a2.176,2.176,0,0,1-2.173,2.173H58.8a2.175,2.175,0,0,1-2.173-2.173V51.288a2.161,2.161,0,0,0-1.2-1.944,5.656,5.656,0,0,1-3.145-5.088V36.14a20.454,20.454,0,0,0,7.6-5.52,20.47,20.47,0,0,0,7.6,5.52v8.116a5.657,5.657,0,0,1-3.144,5.088m5.317-12.851a2.173,2.173,0,1,1,0,4.345ZM59.883,21.282A11.966,11.966,0,0,1,71.834,33.233v1.691a4.3,4.3,0,0,0-2.173-.6h-.878l-.194-.077a18.3,18.3,0,0,1-7.837-6.007l-.869-1.16-.869,1.16a18.3,18.3,0,0,1-7.837,6.006l-.194.078H50.1a4.3,4.3,0,0,0-2.173.6V33.233A11.966,11.966,0,0,1,59.883,21.282M50.1,40.838a2.173,2.173,0,1,1,0-4.345Zm-2.173,8.429v-6.86a4.3,4.3,0,0,0,2.173.6v1.245a7.822,7.822,0,0,0,4.346,7.033v1.7l-1.257.251a11.854,11.854,0,0,0-3.68,1.429A10.1,10.1,0,0,1,47.932,49.267Zm-7.6,13.3h4.346v4.346H40.327ZM38.1,60.4H32.117l1.589-4.239A9.817,9.817,0,0,1,38.1,60.4M31.38,55.368c.094.018.182.052.274.073L30.059,59.7l-3.167-2.534,2.835-2.126ZM25.123,21.713a13.139,13.139,0,0,1,2.827,6.123c-.218-.02-.438-.034-.66-.034H22.944c-.223,0-.441.014-.658.034a13.337,13.337,0,0,1,2.837-6.122m-2.179,8.261H27.29A5.423,5.423,0,0,1,32.4,33.629a21.572,21.572,0,0,0-7.281-1.482,21.573,21.573,0,0,0-7.282,1.482,5.422,5.422,0,0,1,5.109-3.655M34.9,40.838V36.493a2.173,2.173,0,1,1,0,4.345m2.173-7.6a1.087,1.087,0,0,1-1.087,1.087H34.808a7.625,7.625,0,0,0-4.549-5.913,16.983,16.983,0,0,0-2.517-6.824,11.964,11.964,0,0,1,9.326,11.65M22.491,21.582a16.983,16.983,0,0,0-2.517,6.823,7.624,7.624,0,0,0-4.548,5.915H14.252a1.087,1.087,0,0,1-1.086-1.087,11.966,11.966,0,0,1,9.325-11.651M13.166,38.666a2.174,2.174,0,0,1,2.173-2.173v4.345a2.174,2.174,0,0,1-2.173-2.172m4.346,4.889V36.1a20.642,20.642,0,0,1,7.605-1.785,20.744,20.744,0,0,1,7.6,1.785v7.45a6.55,6.55,0,0,1-2.608,5.215l-.867.651a2.181,2.181,0,0,0-.871,1.739v2.173l-3.259,2.444-3.26-2.444V51.16a2.182,2.182,0,0,0-.869-1.739l-.87-.651A6.551,6.551,0,0,1,17.512,43.555Zm3,11.481,2.835,2.126L20.176,59.7l-1.6-4.261c.092-.022.182-.049.276-.069Zm-3.982,1.117,2.668,7.113,5.923-4.739L29.463,62v8.449a4.833,4.833,0,0,0-1.882,1.153l-.638.636L18.6,70.388V64.74H16.425v2.173H10.993V64.955A9.81,9.81,0,0,1,16.526,56.153Zm-5.533,14.02V69.086h5.432v1.722l-1.854,1.856L16.107,74.2l1.751-1.75,9.778,2.173,1.48-1.481a2.771,2.771,0,0,1,1.976-.8,2.716,2.716,0,0,1,0,5.433H18.6a7.615,7.615,0,0,1-7.6-7.605M31.636,84.3v-4.4a4.859,4.859,0,0,0,0-9.663V62.567h6.518v6.519h8.692V62.567h6.518v8.7A4.442,4.442,0,0,0,49.019,75.7v.89a4.442,4.442,0,0,0,4.345,4.434V84.3Zm19.556-7.7V75.7a2.271,2.271,0,0,1,4.3-1.017l.044.09v4.088H53.462a2.273,2.273,0,0,1-2.27-2.271m22.815-5.334a7.615,7.615,0,0,1-7.605,7.6H57.71V74.518A1.087,1.087,0,0,1,58.8,73.432h8.242l1.854,1.854,1.536-1.536L68.575,71.9V60.4H66.4V71.259H58.8a3.242,3.242,0,0,0-2.419,1.094,4.337,4.337,0,0,0-.841-.573V60.4H46.9a9.8,9.8,0,0,1,6.716-5.027l1.046-.21A4.337,4.337,0,0,0,58.8,58.222H60.97a4.335,4.335,0,0,0,4.13-3.064l1.047.21a9.8,9.8,0,0,1,7.86,9.587Z" fill="#040506"/>
      <path id="Trazado_828928" data-name="Trazado 828928" d="M64.229,37.579a1.087,1.087,0,1,1-1.086,1.086,1.086,1.086,0,0,1,1.086-1.086" fill="#040506"/>
      <path id="Trazado_828929" data-name="Trazado 828929" d="M55.537,37.579a1.087,1.087,0,1,1-1.086,1.086,1.086,1.086,0,0,1,1.086-1.086" fill="#040506"/>
      <path id="Trazado_828930" data-name="Trazado 828930" d="M59.282,43.984l1.2-.6a2.174,2.174,0,0,0,.972-2.915l-.486-.972v-.83H58.8v1.086a1.088,1.088,0,0,0,.114.486l.6,1.2-1.2.6Z" fill="#040506"/>
      <path id="Trazado_828931" data-name="Trazado 828931" d="M57.728,45.456l-1.436,1.63a5.431,5.431,0,0,0,7.185,0l-1.436-1.63a3.344,3.344,0,0,1-4.313,0" fill="#040506"/>
      <path id="Trazado_828932" data-name="Trazado 828932" d="M29.463,37.579a1.087,1.087,0,1,1-1.086,1.086,1.086,1.086,0,0,1,1.086-1.086" fill="#040506"/>
      <path id="Trazado_828933" data-name="Trazado 828933" d="M20.771,37.579a1.087,1.087,0,1,1-1.086,1.086,1.086,1.086,0,0,1,1.086-1.086" fill="#040506"/>
      <path id="Trazado_828934" data-name="Trazado 828934" d="M24.516,43.984l1.2-.6a2.174,2.174,0,0,0,.972-2.915L26.2,39.5v-.83H24.03v1.086a1.088,1.088,0,0,0,.114.486l.6,1.2-1.2.6Z" fill="#040506"/>
      <path id="Trazado_828935" data-name="Trazado 828935" d="M25.117,48.443a5.426,5.426,0,0,0,3.594-1.358l-1.436-1.63a3.345,3.345,0,0,1-4.314,0l-1.436,1.63a5.421,5.421,0,0,0,3.592,1.358" fill="#040506"/>
    </g>
  </g>
</svg>
