<svg id="Grupo_1079442" data-name="Grupo 1079442" xmlns="http://www.w3.org/2000/svg" xmlns:xlink="http://www.w3.org/1999/xlink" width="85" height="87.444" viewBox="0 0 85 87.444">
  <defs>
    <clipPath id="clip-path">
      <rect id="Rectángulo_379179" data-name="Rectángulo 379179" width="85" height="87.444" fill="none"/>
    </clipPath>
    <clipPath id="clip-path-2">
      <rect id="Rectángulo_379172" data-name="Rectángulo 379172" width="85" height="87.444" transform="translate(0 0)" fill="none"/>
    </clipPath>
    <clipPath id="clip-path-3">
      <circle id="Elipse_11398" data-name="Elipse 11398" cx="42.5" cy="42.5" r="42.5" transform="translate(0 0)" fill="none"/>
    </clipPath>
    <clipPath id="clip-path-4">
      <rect id="Rectángulo_379173" data-name="Rectángulo 379173" width="18.958" height="19.657" transform="translate(55.768 67.059)" fill="none"/>
    </clipPath>
    <clipPath id="clip-path-5">
      <rect id="Rectángulo_379175" data-name="Rectángulo 379175" width="10.155" height="15.051" transform="translate(50.906 34.217)" fill="none"/>
    </clipPath>
    <clipPath id="clip-path-6">
      <rect id="Rectángulo_379176" data-name="Rectángulo 379176" width="3.954" height="11.623" transform="translate(48.055 75.094)" fill="none"/>
    </clipPath>
    <clipPath id="clip-path-7">
      <rect id="Rectángulo_379177" data-name="Rectángulo 379177" width="14.257" height="20.922" transform="translate(5.545 18.622)" fill="none"/>
    </clipPath>
    <clipPath id="clip-path-8">
      <rect id="Rectángulo_379178" data-name="Rectángulo 379178" width="14.329" height="22.446" transform="translate(17.802 18.622)" fill="none"/>
    </clipPath>
  </defs>
  <g id="Grupo_1079441" data-name="Grupo 1079441" clip-path="url(#clip-path)">
    <g id="Grupo_1079423" data-name="Grupo 1079423">
      <g id="Grupo_1079422" data-name="Grupo 1079422" clip-path="url(#clip-path-2)">
        <path id="Trazado_828883" data-name="Trazado 828883" d="M42.5,0A42.5,42.5,0,1,1,0,42.5,42.5,42.5,0,0,1,42.5,0" fill="#c6daee"/>
      </g>
    </g>
    <g id="Grupo_1079440" data-name="Grupo 1079440">
      <g id="Grupo_1079439" data-name="Grupo 1079439" clip-path="url(#clip-path-3)">
        <path id="Trazado_828884" data-name="Trazado 828884" d="M74.729,82.368V86.72h-52V82.368a15.306,15.306,0,0,1,15.3-15.3H59.424A15.306,15.306,0,0,1,74.729,82.368Z" fill="#ecebeb"/>
        <g id="Grupo_1079426" data-name="Grupo 1079426" opacity="0.15" style="isolation: isolate">
          <g id="Grupo_1079425" data-name="Grupo 1079425">
            <g id="Grupo_1079424" data-name="Grupo 1079424" clip-path="url(#clip-path-4)">
              <path id="Trazado_828885" data-name="Trazado 828885" d="M74.726,82.366v4.351H71.075V82.366A15.31,15.31,0,0,0,55.768,67.06h3.658a15.3,15.3,0,0,1,15.3,15.306" fill="#040506"/>
            </g>
          </g>
        </g>
        <rect id="Rectángulo_379174" data-name="Rectángulo 379174" width="11.474" height="11.63" transform="translate(42.996 60.225)" fill="#ffd378"/>
        <path id="Trazado_828886" data-name="Trazado 828886" d="M62.188,51.519a2.242,2.242,0,0,1-2.243,2.243l-.2,1.572a11.1,11.1,0,0,1-22.028,0l-.2-1.572a2.243,2.243,0,0,1,0-4.486V46.852A11.467,11.467,0,0,1,48,35.279,11.214,11.214,0,0,1,59.945,46.472v2.8A2.235,2.235,0,0,1,62.188,51.519Z" fill="#ffd378"/>
        <path id="Trazado_828887" data-name="Trazado 828887" d="M48.725,44.445a9.41,9.41,0,0,0,6.169-1.663,1.119,1.119,0,0,1,1.2-.057,5,5,0,0,1,2.721,4.3V48.15a1.122,1.122,0,0,0,2.244,0V43.756a9.553,9.553,0,0,0-4.174-8.062c-4.493-2.945-7.9-.41-8.093-1.358a11.9,11.9,0,0,1,.239-1.807,1.116,1.116,0,0,0-1.55-1.191c-2.505,1.668-2.555,3.071-3.122,2.612-.481-.39.606-3.082-1.241-3.09a1.157,1.157,0,0,0-.156.01,7.851,7.851,0,0,0-6.578,7.748v9.534a1.122,1.122,0,1,0,2.243,0V47.03c.078-2.71,2.674-5.118,3.916-4.251A9.406,9.406,0,0,0,48.725,44.445Z" fill="#97a3a5"/>
        <g id="Grupo_1079429" data-name="Grupo 1079429" opacity="0.15" style="isolation: isolate">
          <g id="Grupo_1079428" data-name="Grupo 1079428">
            <g id="Grupo_1079427" data-name="Grupo 1079427" clip-path="url(#clip-path-5)">
              <path id="Trazado_828888" data-name="Trazado 828888" d="M61.06,43.757v4.4a1.12,1.12,0,0,1-2.24,0V47.03a4.972,4.972,0,0,0-.214-1.3V43.757a9.542,9.542,0,0,0-4.175-8.06A8.661,8.661,0,0,0,50.9,34.3,8.4,8.4,0,0,1,56.89,35.7a9.531,9.531,0,0,1,4.17,8.06" fill="#040506"/>
            </g>
          </g>
        </g>
        <path id="Trazado_828889" data-name="Trazado 828889" d="M52.009,84.267c-1.052.793-2.146,1.6-3.276,2.453-1.13-.854-2.231-1.665-3.283-2.447v-.006c2.958-12.572,1.938-8.236,2.159-9.174h2.242c.221.939-.8-3.4,2.158,9.174" fill="#ea7079"/>
        <g id="Grupo_1079432" data-name="Grupo 1079432" opacity="0.15" style="isolation: isolate">
          <g id="Grupo_1079431" data-name="Grupo 1079431">
            <g id="Grupo_1079430" data-name="Grupo 1079430" clip-path="url(#clip-path-6)">
              <path id="Trazado_828890" data-name="Trazado 828890" d="M52.01,84.27c-1.053.788-2.144,1.6-3.279,2.447-.227-.17-.454-.341-.675-.511.889-.668,1.759-1.305,2.6-1.936-.015-.065-2.163-9.171-2.163-9.176h1.362C49.853,75.111,51.995,84.207,52.01,84.27Z" fill="#040506"/>
            </g>
          </g>
        </g>
        <path id="Trazado_828891" data-name="Trazado 828891" d="M49.851,75.094h-2.24a3.829,3.829,0,0,1-1.12-2.705V71.174h4.48v1.215A3.819,3.819,0,0,1,49.851,75.094Z" fill="#ea7079"/>
        <path id="Trazado_828892" data-name="Trazado 828892" d="M58.009,67.489c-.074.254.024.025-2.868,4.13L53.663,73.7l-4.93-2.525,4.2-4.2a3.688,3.688,0,0,1,3.295-.926C56.843,66.5,57.438,67,58.009,67.489Z" fill="#c8d0d0"/>
        <path id="Trazado_828893" data-name="Trazado 828893" d="M48.733,71.174,43.8,73.7l-1.485-2.092L39.6,67.778a.943.943,0,0,1-.144-.289c.571-.5,1.166-.992,1.786-1.437l.6-.054a2.6,2.6,0,0,1,.529,0,3.359,3.359,0,0,1,2.17.98Z" fill="#c8d0d0"/>
        <path id="Trazado_828894" data-name="Trazado 828894" d="M30.182,41.067a19.485,19.485,0,0,1-6.959-1.938.652.652,0,0,0-.449-.05,16.545,16.545,0,0,1-3.933.466c-7.34,0-13.292-4.683-13.292-10.462S11.5,18.626,18.841,18.626s13.288,4.682,13.288,10.457a9.288,9.288,0,0,1-3.406,6.99.689.689,0,0,0-.176.812,8.544,8.544,0,0,0,2.166,2.874.741.741,0,0,1-.531,1.308" fill="#ea7079"/>
        <g id="Grupo_1079435" data-name="Grupo 1079435" opacity="0.5" style="isolation: isolate">
          <g id="Grupo_1079434" data-name="Grupo 1079434">
            <g id="Grupo_1079433" data-name="Grupo 1079433" clip-path="url(#clip-path-7)">
              <path id="Trazado_828895" data-name="Trazado 828895" d="M19.8,39.515c-.319.022-.637.029-.964.029-7.338,0-13.293-4.68-13.293-10.461S11.5,18.622,18.838,18.622c.312,0,.631.007.935.029-6.911.377-12.359,4.905-12.359,10.432S12.876,39.153,19.8,39.515" fill="#fff"/>
            </g>
          </g>
        </g>
        <g id="Grupo_1079438" data-name="Grupo 1079438" opacity="0.15" style="isolation: isolate">
          <g id="Grupo_1079437" data-name="Grupo 1079437">
            <g id="Grupo_1079436" data-name="Grupo 1079436" clip-path="url(#clip-path-8)">
              <path id="Trazado_828896" data-name="Trazado 828896" d="M30.712,39.762a.738.738,0,0,1-.529,1.3c-.507-.044-1.014-.109-1.514-.2a.734.734,0,0,0-.029-1.108,8.62,8.62,0,0,1-2.166-2.876.688.688,0,0,1,.174-.811,9.291,9.291,0,0,0,3.412-6.991c0-5.5-5.4-10.012-12.258-10.425.341-.029.689-.036,1.036-.036,7.346,0,13.294,4.687,13.294,10.461a9.291,9.291,0,0,1-3.412,6.991.687.687,0,0,0-.174.811,8.62,8.62,0,0,0,2.166,2.876" fill="#040506"/>
            </g>
          </g>
        </g>
        <path id="Trazado_828897" data-name="Trazado 828897" d="M59.421,66.342H57.77c-.358-.3-.732-.6-1.124-.877a.683.683,0,0,0-.449-.136,6.2,6.2,0,0,0-1-.062V63.8a11.823,11.823,0,0,0,5.264-8.373l.131-1.011a2.963,2.963,0,0,0,.96-5.385,1.816,1.816,0,0,0,.235-.881V43.769a10.252,10.252,0,0,0-4.5-8.681c-2.73-1.789-4.936-1.775-7.7-1.3.038-.256.091-.623.164-1.149a1.84,1.84,0,0,0-2.557-1.965,9.821,9.821,0,0,0-2.214,1.89,2.627,2.627,0,0,0-.535-1.912,1.839,1.839,0,0,0-1.6-.5,8.543,8.543,0,0,0-7.185,8.462v9.534a1.824,1.824,0,0,0,.235.883,2.964,2.964,0,0,0,.969,5.381L37,55.427a11.819,11.819,0,0,0,5.277,8.382v1.469a6.4,6.4,0,0,0-1.1.053.7.7,0,0,0-.358.134c-.358.257-.73.547-1.13.877H38.036A16.046,16.046,0,0,0,22,82.366V86.72a.724.724,0,0,0,.724.725h52a.724.724,0,0,0,.724-.725V82.366A16.047,16.047,0,0,0,59.421,66.342Zm-3.458.418c.384.284.761.589,1.11.884-2.246,3.183,3.259-4.6-3.638,5.125l-3.487-1.785,3.493-3.493a2.725,2.725,0,0,1,2.522-.731m-5.749,5.987a3.032,3.032,0,0,1-.681,1.622h-1.6a3.079,3.079,0,0,1-.682-1.621l1.483-.76Zm-5.165-6.28a4.09,4.09,0,0,0-1.327-.88v-.964a11.705,11.705,0,0,0,10.027-.006v.958a4.023,4.023,0,0,0-1.333.892L48.732,70.15ZM37.111,38.618a7.1,7.1,0,0,1,6.007-7.034.445.445,0,0,1,.276.068c.172.181.141.853.121,1.255-.029.639-.058,1.242.391,1.606.691.561,1.282.113,1.787-.532a8.583,8.583,0,0,1,2.128-2,.392.392,0,0,1,.5.445c-.1.7-.159,1.112-.195,1.361-.217,1.473.559,1.635,2.018,1.372a7.927,7.927,0,0,1,6.341,1.131,8.806,8.806,0,0,1,3.856,7.463V48.15a.4.4,0,0,1-.794,0V47.007a5.709,5.709,0,0,0-3.085-4.91,1.847,1.847,0,0,0-1.98.091,8.833,8.833,0,0,1-5.814,1.536,8.724,8.724,0,0,1-5.7-1.539,2.042,2.042,0,0,0-2.152-.013,5.9,5.9,0,0,0-2.9,4.858v1.122a.4.4,0,0,1-.794,0Zm1.323,16.624-.2-1.573a.724.724,0,0,0-.718-.632,1.52,1.52,0,0,1-1.519-1.518A1.5,1.5,0,0,1,37.513,50a1.855,1.855,0,0,0,1.842-1.848v-1.1a4.482,4.482,0,0,1,2.107-3.586c.292-.147.543-.181.67-.092a10.139,10.139,0,0,0,6.594,1.8,10.162,10.162,0,0,0,6.585-1.8.419.419,0,0,1,.458,0A4.266,4.266,0,0,1,58.1,47.028v1.121A1.861,1.861,0,0,0,59.945,50a1.5,1.5,0,0,1,1.519,1.519,1.52,1.52,0,0,1-1.519,1.518.724.724,0,0,0-.718.633l-.2,1.572a10.38,10.38,0,0,1-20.591,0ZM41.5,66.757a2.8,2.8,0,0,1,2.524.734l3.493,3.493-3.486,1.785-3.644-5.128C40.789,67.3,41.152,67.013,41.5,66.757ZM23.453,86V82.367A14.6,14.6,0,0,1,38.036,67.791h.758c.151.414-.06-.015,4.418,6.328a.726.726,0,0,0,.922.225l1.759-.9a4.493,4.493,0,0,0,.924,1.85L44.745,84.1a.73.73,0,0,0,.273.754L46.551,86Zm25.279-.182c-.716-.539-1.455-1.087-2.469-1.839l1.919-8.156h1.1c.208.88.718,3.051,1.918,8.154-.841.632-1.617,1.205-2.463,1.84ZM74,86H50.909l.007-.006c.519-.387,1.029-.766,1.529-1.144a.723.723,0,0,0,.269-.745l-2.071-8.8a4.568,4.568,0,0,0,.923-1.857l1.766.9a.723.723,0,0,0,.92-.225c4.486-6.323,4.336-6.065,4.422-6.328h.747A14.6,14.6,0,0,1,74,82.367Z" fill="#040506"/>
        <path id="Trazado_828898" data-name="Trazado 828898" d="M52.617,58.373a.725.725,0,0,0-1.024-.024,4.165,4.165,0,0,1-5.753,0,.724.724,0,0,0-1,1.048,5.611,5.611,0,0,0,7.753,0,.725.725,0,0,0,.024-1.024" fill="#040506"/>
        <path id="Trazado_828899" data-name="Trazado 828899" d="M52.1,51.549a.725.725,0,0,0,.947-.391.4.4,0,0,1,.746,0,.725.725,0,0,0,1.338-.557,1.855,1.855,0,0,0-3.422,0A.725.725,0,0,0,52.1,51.549Z" fill="#040506"/>
        <path id="Trazado_828900" data-name="Trazado 828900" d="M45.354,51.549a.726.726,0,0,0,.391-.947,1.857,1.857,0,0,0-3.423,0,.724.724,0,1,0,1.338.556.405.405,0,0,1,.747,0A.724.724,0,0,0,45.354,51.549Z" fill="#040506"/>
        <path id="Trazado_828901" data-name="Trazado 828901" d="M18.841,40.269a16.34,16.34,0,0,0,4.058-.492,20.3,20.3,0,0,0,7.219,2.012h0a1.436,1.436,0,0,0,1.467-.881,1.478,1.478,0,0,0-.4-1.7A8.168,8.168,0,0,1,29.2,36.619a10,10,0,0,0,3.655-7.537c0-6.165-6.286-11.181-14.013-11.181S4.824,22.917,4.824,29.083,11.112,40.269,18.841,40.269Zm0-20.919c6.928,0,12.564,4.366,12.564,9.733a8.583,8.583,0,0,1-3.159,6.445,1.4,1.4,0,0,0-.355,1.664,9.6,9.6,0,0,0,2.368,3.153h-.013a18.816,18.816,0,0,1-6.7-1.864,1.4,1.4,0,0,0-.946-.106,15.765,15.765,0,0,1-3.76.445c-6.93,0-12.568-4.368-12.568-9.737s5.638-9.733,12.568-9.733" fill="#040506"/>
        <path id="Trazado_828902" data-name="Trazado 828902" d="M12.464,26.315h12.75a.725.725,0,1,0,0-1.449H12.464a.725.725,0,1,0,0,1.449" fill="#040506"/>
        <path id="Trazado_828903" data-name="Trazado 828903" d="M12.464,29.809h12.75a.724.724,0,1,0,0-1.449H12.464a.724.724,0,1,0,0,1.449" fill="#040506"/>
        <path id="Trazado_828904" data-name="Trazado 828904" d="M12.464,33.3h7.8a.725.725,0,1,0,0-1.449h-7.8a.725.725,0,1,0,0,1.449" fill="#040506"/>
      </g>
    </g>
  </g>
</svg>
