<svg xmlns="http://www.w3.org/2000/svg" xmlns:xlink="http://www.w3.org/1999/xlink" width="1240" height="691.357" viewBox="0 0 1240 691.357">
  <defs>
    <linearGradient id="linear-gradient" x1="0.5" x2="0.5" y2="1" gradientUnits="objectBoundingBox">
      <stop offset="0" stop-color="#f5f5f5"/>
      <stop offset="0.25" stop-color="#f5f5f5"/>
      <stop offset="1" stop-color="#afafaf"/>
    </linearGradient>
  </defs>
  <g id="Grupo_1079629" data-name="Grupo 1079629" transform="translate(-180 -6694.888)">
    <g id="Grupo_1078888" data-name="Grupo 1078888" transform="translate(0 2594.888)">
      <g id="Grupo_1078266" data-name="Grupo 1078266" transform="translate(23.676 -12978.223)">
        <g id="Grupo_160746" data-name="Grupo 160746" transform="translate(0 -24)">
          <g id="Grupo_160738" data-name="Grupo 160738" transform="translate(-251.939 -860.777)">
            <g id="Grupo_160737" data-name="Grupo 160737" transform="translate(0 0.463)">
              <g id="Grupo_160736" data-name="Grupo 160736" transform="translate(76.939)">
                <rect id="Rectángulo_45382" data-name="Rectángulo 45382" width="186.638" height="59.357" rx="10" transform="translate(355 18278.537)" fill="#ffc8bf"/>
                <text id="SERVICIO_EN_LA_NUBE" data-name="SERVICIO EN
LA NUBE" transform="translate(443.873 18302.465)" fill="#12263f" font-size="18" font-family="SegoeUIBlack, Segoe UI"><tspan x="-56.175" y="0">SERVICIO EN</tspan><tspan x="-39.274" y="25">LA NUBE</tspan></text>
              </g>
            </g>
            <g id="Grupo_160735" data-name="Grupo 160735" transform="translate(255 0.463)">
              <line id="Línea_1862" data-name="Línea 1862" y2="632" transform="translate(411.176 17992.5)" fill="none" stroke="#12263f" stroke-width="4"/>
              <line id="Línea_1863" data-name="Línea 1863" x2="53" transform="translate(410.176 17992.5)" fill="none" stroke="#12263f" stroke-width="4"/>
              <line id="Línea_1864" data-name="Línea 1864" x2="53" transform="translate(410.176 18068.215)" fill="none" stroke="#12263f" stroke-width="4"/>
              <line id="Línea_1865" data-name="Línea 1865" x2="53" transform="translate(410.176 18144.215)" fill="none" stroke="#12263f" stroke-width="4"/>
              <line id="Línea_1866" data-name="Línea 1866" x2="53" transform="translate(410.176 18220.215)" fill="none" stroke="#12263f" stroke-width="4"/>
              <line id="Línea_1867" data-name="Línea 1867" x2="53" transform="translate(410.176 18296.215)" fill="none" stroke="#12263f" stroke-width="4"/>
              <line id="Línea_1868" data-name="Línea 1868" x2="53" transform="translate(410.176 18372.215)" fill="none" stroke="#12263f" stroke-width="4"/>
              <line id="Línea_1869" data-name="Línea 1869" x2="53" transform="translate(410.176 18460.715)" fill="none" stroke="#12263f" stroke-width="4"/>
              <line id="Línea_1870" data-name="Línea 1870" x2="53" transform="translate(410.176 18548.215)" fill="none" stroke="#12263f" stroke-width="4"/>
              <line id="Línea_1871" data-name="Línea 1871" x2="53" transform="translate(410.176 18624.215)" fill="none" stroke="#12263f" stroke-width="4"/>
              <g id="Grupo_160726" data-name="Grupo 160726" transform="translate(658.284 17978.002)">
                <path id="Unión_62" data-name="Unión 62" d="M0,0H30.055V11.085H0Z" transform="translate(30.055 19.755) rotate(180)" fill="#ff6148"/>
                <path id="Unión_64" data-name="Unión 64" d="M19.9,14.213,0,28.427V0Z" transform="translate(24.482 0)" fill="#ff6148"/>
              </g>
              <g id="Grupo_160727" data-name="Grupo 160727" transform="translate(658.284 18054.002)">
                <path id="Unión_62-2" data-name="Unión 62" d="M0,0H30.055V11.085H0Z" transform="translate(30.055 19.755) rotate(180)" fill="#ff6148"/>
                <path id="Unión_64-2" data-name="Unión 64" d="M19.9,14.213,0,28.427V0Z" transform="translate(24.482 0)" fill="#ff6148"/>
              </g>
              <g id="Grupo_160728" data-name="Grupo 160728" transform="translate(642.284 18130.002)">
                <path id="Unión_62-3" data-name="Unión 62" d="M0,0H30.055V11.085H0Z" transform="translate(30.055 19.755) rotate(180)" fill="#ff6148"/>
                <path id="Unión_64-3" data-name="Unión 64" d="M19.9,14.213,0,28.427V0Z" transform="translate(24.482 0)" fill="#ff6148"/>
              </g>
              <g id="Grupo_160729" data-name="Grupo 160729" transform="translate(688.284 18206.002)">
                <path id="Unión_62-4" data-name="Unión 62" d="M0,0H30.055V11.085H0Z" transform="translate(30.055 19.755) rotate(180)" fill="#ff6148"/>
                <path id="Unión_64-4" data-name="Unión 64" d="M19.9,14.213,0,28.427V0Z" transform="translate(24.482 0)" fill="#ff6148"/>
              </g>
              <g id="Grupo_160730" data-name="Grupo 160730" transform="translate(709.284 18282.002)">
                <path id="Unión_62-5" data-name="Unión 62" d="M0,0H30.055V11.085H0Z" transform="translate(30.055 19.755) rotate(180)" fill="#ff6148"/>
                <path id="Unión_64-5" data-name="Unión 64" d="M19.9,14.213,0,28.427V0Z" transform="translate(24.482 0)" fill="#ff6148"/>
              </g>
              <g id="Grupo_160731" data-name="Grupo 160731" transform="translate(643.897 18358.002)">
                <path id="Unión_62-6" data-name="Unión 62" d="M0,0H30.055V11.085H0Z" transform="translate(30.055 19.755) rotate(180)" fill="#ff6148"/>
                <path id="Unión_64-6" data-name="Unión 64" d="M19.9,14.213,0,28.427V0Z" transform="translate(24.482 0)" fill="#ff6148"/>
              </g>
              <g id="Grupo_160732" data-name="Grupo 160732" transform="translate(815.283 18446.502)">
                <path id="Unión_62-7" data-name="Unión 62" d="M0,0H30.055V11.085H0Z" transform="translate(30.055 19.755) rotate(180)" fill="#ff6148"/>
                <path id="Unión_64-7" data-name="Unión 64" d="M19.9,14.213,0,28.427V0Z" transform="translate(24.482 0)" fill="#ff6148"/>
              </g>
              <g id="Grupo_160733" data-name="Grupo 160733" transform="translate(628.285 18534.002)">
                <path id="Unión_62-8" data-name="Unión 62" d="M0,0H30.055V11.085H0Z" transform="translate(30.055 19.755) rotate(180)" fill="#ff6148"/>
                <path id="Unión_64-8" data-name="Unión 64" d="M19.9,14.213,0,28.427V0Z" transform="translate(24.482 0)" fill="#ff6148"/>
              </g>
              <g id="Grupo_160734" data-name="Grupo 160734" transform="translate(677.285 18610.002)">
                <path id="Unión_62-9" data-name="Unión 62" d="M0,0H30.055V11.085H0Z" transform="translate(30.055 19.755) rotate(180)" fill="#ff6148"/>
                <path id="Unión_64-9" data-name="Unión 64" d="M19.9,14.213,0,28.427V0Z" transform="translate(24.482 0)" fill="#ff6148"/>
              </g>
              <rect id="Rectángulo_45377" data-name="Rectángulo 45377" width="186.638" height="59.357" rx="10" transform="translate(462.646 17962.537)" fill="url(#linear-gradient)"/>
              <rect id="Rectángulo_47917" data-name="Rectángulo 47917" width="186.638" height="59.357" rx="10" transform="translate(462.646 18038.537)" fill="url(#linear-gradient)"/>
              <rect id="Rectángulo_47918" data-name="Rectángulo 47918" width="170.638" height="59.357" rx="10" transform="translate(462.646 18114.537)" fill="url(#linear-gradient)"/>
              <rect id="Rectángulo_47923" data-name="Rectángulo 47923" width="156.64" height="59.357" rx="10" transform="translate(462.646 18518.537)" fill="url(#linear-gradient)"/>
              <rect id="Rectángulo_47924" data-name="Rectángulo 47924" width="205.64" height="59.357" rx="10" transform="translate(462.646 18594.537)" fill="url(#linear-gradient)"/>
              <rect id="Rectángulo_47921" data-name="Rectángulo 47921" width="177.64" height="59.357" rx="10" transform="translate(462.646 18342.537)" fill="url(#linear-gradient)"/>
              <rect id="Rectángulo_47920" data-name="Rectángulo 47920" width="237.638" height="59.357" rx="10" transform="translate(462.646 18266.537)" fill="url(#linear-gradient)"/>
              <rect id="Rectángulo_47922" data-name="Rectángulo 47922" width="343.638" height="84.357" rx="10" transform="translate(462.646 18418.537)" fill="url(#linear-gradient)"/>
              <rect id="Rectángulo_47919" data-name="Rectángulo 47919" width="216.638" height="59.357" rx="10" transform="translate(462.646 18190.537)" fill="url(#linear-gradient)"/>
              <text id="Auditabilidad" transform="translate(503.285 17998.715)" fill="#12263f" font-size="18" font-family="SegoeUI, Segoe UI"><tspan x="0" y="0">Auditabilidad</tspan></text>
              <text id="Disponibilidad" transform="translate(503.285 18074.715)" fill="#12263f" font-size="18" font-family="SegoeUI, Segoe UI"><tspan x="0" y="0">Disponibilidad</tspan></text>
              <text id="Gobernanza" transform="translate(503.285 18150.715)" fill="#12263f" font-size="18" font-family="SegoeUI, Segoe UI"><tspan x="0" y="0">Gobernanza</tspan></text>
              <text id="Resilencia" transform="translate(503.285 18554.715)" fill="#12263f" font-size="18" font-family="SegoeUI, Segoe UI"><tspan x="0" y="0">Resilencia</tspan></text>
              <text id="Reservisibilidad" transform="translate(503.285 18630.715)" fill="#12263f" font-size="18" font-family="SegoeUI, Segoe UI"><tspan x="0" y="0">Reservisibilidad</tspan></text>
              <text id="Portabilidad" transform="translate(503.285 18378.715)" fill="#12263f" font-size="18" font-family="SegoeUI, Segoe UI"><tspan x="0" y="0">Portabilidad</tspan></text>
              <text id="Control_de_versiones" data-name="Control de versiones" transform="translate(503.285 18302.715)" fill="#12263f" font-size="18" font-family="SegoeUI, Segoe UI"><tspan x="0" y="0">Control de versiones</tspan></text>
              <text id="Protección_de_la_información_de_la_Entidad_personal" data-name="Protección de la información de la
Entidad personal" transform="translate(503.285 18454.715)" fill="#12263f" font-size="18" font-family="SegoeUI, Segoe UI"><tspan x="0" y="0">Protección de la información de la</tspan><tspan x="0" y="24">Entidad personal</tspan></text>
              <text id="Interoperabilidad" transform="translate(503.285 18226.715)" fill="#12263f" font-size="18" font-family="SegoeUI, Segoe UI"><tspan x="0" y="0">Interoperabilidad</tspan></text>
            </g>
          </g>
        </g>
        <text id="Capacidad_de_ser_auditado" data-name="Capacidad de ser auditado" transform="translate(735 17114.4)" fill="#12263f" font-size="18" font-family="SegoeUI, Segoe UI"><tspan x="0" y="0">Capacidad de ser auditado</tspan></text>
        <text id="Capacidad_de_disposición_del_servicio" data-name="Capacidad de disposición del servicio" transform="translate(735 17189.4)" fill="#12263f" font-size="18" font-family="SegoeUI, Segoe UI"><tspan x="0" y="0">Capacidad de disposición del servicio</tspan></text>
        <text id="Dirección_y_prestación_del_servicio" data-name="Dirección y prestación del servicio" transform="translate(721 17267.4)" fill="#12263f" font-size="18" font-family="SegoeUI, Segoe UI"><tspan x="0" y="0">Dirección y prestación del servicio</tspan></text>
        <text id="Interacción_o_intercambio_de_información" data-name="Interacción o intercambio de información" transform="translate(763 17342.4)" fill="#12263f" font-size="18" font-family="SegoeUI, Segoe UI"><tspan x="0" y="0">Interacción o intercambio de información</tspan></text>
        <text id="Reparación_actualización_y_control_del_servicio" data-name="Reparación, actualización y control del servicio" transform="translate(784 17417.4)" fill="#12263f" font-size="18" font-family="SegoeUI, Segoe UI"><tspan x="0" y="0">Reparación, actualización y control del servicio</tspan></text>
        <text id="Traslado_a_otros_proveedores" data-name="Traslado a otros proveedores" transform="translate(721 17495.4)" fill="#12263f" font-size="18" font-family="SegoeUI, Segoe UI"><tspan x="0" y="0">Traslado a otros proveedores</tspan></text>
        <text id="Garantía_de_protección_de_la_información" data-name="Garantía de protección de la información" transform="translate(892.73 17583.4)" fill="#12263f" font-size="18" font-family="SegoeUI, Segoe UI"><tspan x="0" y="0">Garantía de protección de la información</tspan></text>
        <text id="Capacidad_de_proporcionar_un_nivel_aceptable_de_servicio" data-name="Capacidad de proporcionar un nivel aceptable de servicio" transform="translate(701.676 17671.4)" fill="#12263f" font-size="18" font-family="SegoeUI, Segoe UI"><tspan x="0" y="0">Capacidad de proporcionar un nivel aceptable de servicio</tspan></text>
        <text id="Recuperación_de_datos_del_cliente_y_componentes_de_aplicaciones_en_la_nube" data-name="Recuperación de datos del cliente y componentes de aplicaciones en la nube" transform="translate(753.676 17746.4)" fill="#12263f" font-size="18" font-family="SegoeUI, Segoe UI"><tspan x="0" y="0">Recuperación de datos del cliente y componentes de aplicaciones en la nube</tspan></text>
      </g>
      <rect id="Rectángulo_378962" data-name="Rectángulo 378962" width="1240" height="691" transform="translate(180 4100)" fill="none"/>
    </g>
  </g>
</svg>
