<svg xmlns="http://www.w3.org/2000/svg" xmlns:xlink="http://www.w3.org/1999/xlink" width="400" height="235.98" viewBox="0 0 400 235.98">
  <defs>
    <clipPath id="clip-path">
      <path id="Trazado_165434" data-name="Trazado 165434" d="M0,3.288A3.286,3.286,0,1,0,3.286,0,3.286,3.286,0,0,0,0,3.288" fill="#2efec7"/>
    </clipPath>
    <clipPath id="clip-path-2">
      <path id="Trazado_165438" data-name="Trazado 165438" d="M3.285,0A3.285,3.285,0,1,0,6.571,3.287,3.286,3.286,0,0,0,3.285,0Z" fill="#2efec7"/>
    </clipPath>
    <clipPath id="clip-path-3">
      <path id="Trazado_165440" data-name="Trazado 165440" d="M0,3.288A3.285,3.285,0,1,0,3.286,0,3.286,3.286,0,0,0,0,3.288" fill="#2efec7"/>
    </clipPath>
    <clipPath id="clip-path-4">
      <path id="Trazado_165442" data-name="Trazado 165442" d="M0,3.286A3.285,3.285,0,1,0,3.286,0,3.286,3.286,0,0,0,0,3.286" fill="#2efec7"/>
    </clipPath>
    <clipPath id="clip-path-5">
      <path id="Trazado_165444" data-name="Trazado 165444" d="M3.284,0A3.285,3.285,0,1,0,6.57,3.286,3.285,3.285,0,0,0,3.284,0Z" fill="#2efec7"/>
    </clipPath>
    <clipPath id="clip-path-6">
      <path id="Trazado_165446" data-name="Trazado 165446" d="M0,3.288A3.287,3.287,0,1,0,3.286,0,3.286,3.286,0,0,0,0,3.288" fill="#2efec7"/>
    </clipPath>
    <clipPath id="clip-path-7">
      <path id="Trazado_165448" data-name="Trazado 165448" d="M0,3.286A3.287,3.287,0,1,0,3.287,0h0A3.29,3.29,0,0,0,0,3.286" fill="#2efec7"/>
    </clipPath>
    <clipPath id="clip-path-8">
      <path id="Trazado_165450" data-name="Trazado 165450" d="M3.284,0A3.285,3.285,0,1,0,6.57,3.287,3.285,3.285,0,0,0,3.284,0Z" fill="#2efec7"/>
    </clipPath>
    <clipPath id="clip-path-9">
      <path id="Trazado_165452" data-name="Trazado 165452" d="M0,3.288A3.285,3.285,0,1,0,3.285,0,3.286,3.286,0,0,0,0,3.288" fill="#2efec7"/>
    </clipPath>
    <clipPath id="clip-path-10">
      <path id="Trazado_165454" data-name="Trazado 165454" d="M0,3.286A3.285,3.285,0,1,0,3.285,0,3.285,3.285,0,0,0,0,3.286" fill="#2efec7"/>
    </clipPath>
    <clipPath id="clip-path-12">
      <path id="Trazado_165436" data-name="Trazado 165436" d="M0,3.286A3.286,3.286,0,1,0,3.286,0h0A3.289,3.289,0,0,0,0,3.286" fill="#2efec7"/>
    </clipPath>
  </defs>
  <g id="Grupo_1078890" data-name="Grupo 1078890" transform="translate(-180 -4996.333)">
    <g id="Grupo_1078267" data-name="Grupo 1078267" transform="translate(-1016.009 4140.579)">
      <path id="Trazado_210006" data-name="Trazado 210006" d="M2175.639,888.872l-2.749,1.595a1.119,1.119,0,0,0-.515.681,1.1,1.1,0,0,0,.117.853l.656,1.135a4.157,4.157,0,0,1,.6,1.688,1.962,1.962,0,0,1-.6,1.693c-.589.521-1.172,1.128-1.748,1.73l-.1.1c-.325.343-1.307,1.368-3.466.117l-1.037-.607a1.135,1.135,0,0,0-.853-.11,1.116,1.116,0,0,0-.687.515l-1.736,2.988a1.138,1.138,0,0,0-.1.846,1.118,1.118,0,0,0,.515.682l1.03.6a3.82,3.82,0,0,1,1.583,1.417,1.87,1.87,0,0,1,.074,1.57l-.123.393c-.2.693-.417,1.38-.552,2.025l-.037.183c-.215,1.142-.369,1.921-2.951,1.921h-1.185a1.132,1.132,0,0,0-1.123,1.123v3.441a1.112,1.112,0,0,0,.332.792,1.1,1.1,0,0,0,.791.331h1.185c2.582,0,2.736.785,2.951,1.92l.037.19c.141.65.344,1.331.552,2.012l.116.4a1.859,1.859,0,0,1-.067,1.577,3.811,3.811,0,0,1-1.583,1.41l-1.03.6a1.118,1.118,0,0,0-.515.681,1.1,1.1,0,0,0,.11.853l1.73,2.975a1.1,1.1,0,0,0,.681.521,1.125,1.125,0,0,0,.853-.116l1.043-.6c2.159-1.256,3.147-.22,3.472.118l.1.1c.577.6,1.154,1.209,1.736,1.731a1.921,1.921,0,0,1,.607,1.692,4.157,4.157,0,0,1-.6,1.687l-.656,1.129a1.131,1.131,0,0,0,.4,1.54l2.982,1.73a1.132,1.132,0,0,0,1.534-.4l.656-1.129a3.87,3.87,0,0,1,1.233-1.368,2.1,2.1,0,0,1,1.81-.27c.62.2,1.276.362,1.963.534l.791.2a1.96,1.96,0,0,1,1.178.8,3.578,3.578,0,0,1,.533,2.123v1.209a1.129,1.129,0,0,0,.332.8,1.146,1.146,0,0,0,.792.325h3.442a1.113,1.113,0,0,0,.791-.331,1.1,1.1,0,0,0,.331-.792v-1.209a3.529,3.529,0,0,1,.54-2.123,1.951,1.951,0,0,1,1.172-.8l.8-.2c.687-.172,1.343-.337,1.963-.534a2.026,2.026,0,0,1,1.454.08,3.516,3.516,0,0,1,1.589,1.558l.651,1.129a1.141,1.141,0,0,0,1.528.412l2.988-1.737a1.119,1.119,0,0,0,.515-.687,1.135,1.135,0,0,0-.111-.853l-.656-1.129a4.079,4.079,0,0,1-.6-1.687,1.927,1.927,0,0,1,.6-1.7c.583-.515,1.16-1.123,1.743-1.724l.1-.1c.326-.338,1.313-1.374,3.473-.118l1.043.6a1.124,1.124,0,0,0,.852.116,1.111,1.111,0,0,0,.682-.515l1.73-2.981a1.119,1.119,0,0,0-.4-1.534l-1.025-.6a3.769,3.769,0,0,1-1.583-1.41,1.882,1.882,0,0,1-.074-1.577l.123-.4c.2-.687.412-1.374.546-2.006l.037-.19c.214-1.135.374-1.92,2.952-1.92h1.183a1.1,1.1,0,0,0,.792-.331,1.114,1.114,0,0,0,.331-.792v-3.441a1.131,1.131,0,0,0-1.123-1.123h-1.183c-2.577,0-2.737-.779-2.952-1.921l-.037-.183c-.134-.638-.343-1.325-.552-2.012l-.116-.405a1.888,1.888,0,0,1,.067-1.57,3.848,3.848,0,0,1,1.589-1.417l1.025-.6a1.128,1.128,0,0,0,.521-.682,1.1,1.1,0,0,0-.116-.853l-1.73-2.981a1.133,1.133,0,0,0-1.534-.4l-1.043.607c-2.153,1.251-3.141.226-3.466-.117l-.1-.1c-.583-.6-1.165-1.209-1.748-1.73a1.944,1.944,0,0,1-.607-1.693,4.16,4.16,0,0,1,.607-1.688l.656-1.135a1.131,1.131,0,0,0-.4-1.534l-2.976-1.729a1.127,1.127,0,0,0-1.54.4l-.656,1.13a3.441,3.441,0,0,1-1.583,1.557,2.082,2.082,0,0,1-1.46.087c-.607-.2-1.258-.362-1.939-.534l-.816-.209a1.956,1.956,0,0,1-1.178-.79,3.622,3.622,0,0,1-.534-2.13v-1.208a1.119,1.119,0,0,0-1.122-1.116h-3.442a1.109,1.109,0,0,0-.792.324,1.127,1.127,0,0,0-.332.792v1.208a3.618,3.618,0,0,1-.533,2.13,1.938,1.938,0,0,1-1.178.79l-.815.209c-.675.172-1.326.337-1.939.527a2.1,2.1,0,0,1-1.81-.264,3.842,3.842,0,0,1-1.233-1.374l-.669-1.147a1.12,1.12,0,0,0-1.522-.38Zm-3.736-.117,3.208-1.865h.031a3.036,3.036,0,0,1,2.086-.177,3.09,3.09,0,0,1,1.889,1.436l.657,1.128a2.013,2.013,0,0,0,.576.693c.092.055.135.061.153.055.761-.238,1.4-.4,2.061-.564l.8-.2c.024-.007.055-.019.061-.031a1.783,1.783,0,0,0,.166-.982v-1.208a3.08,3.08,0,0,1,.914-2.191,3.115,3.115,0,0,1,2.191-.908h3.442a3.1,3.1,0,0,1,3.1,3.1v1.208a1.848,1.848,0,0,0,.166.982.152.152,0,0,0,.061.031l.8.2c.669.165,1.307.325,2.061.564a.245.245,0,0,0,.086-.018,1.687,1.687,0,0,0,.65-.73l.656-1.128a3.107,3.107,0,0,1,4.233-1.124l2.981,1.73a3.111,3.111,0,0,1,1.123,4.24l-.657,1.128a2.257,2.257,0,0,0-.35.877c-.012.068-.067.03-.048.043.674.6,1.27,1.221,1.858,1.834l.1.1c.061.061.239.245,1.055-.228l1.037-.6a3.1,3.1,0,0,1,4.239,1.123l1.73,2.976a3.109,3.109,0,0,1-1.123,4.238l-1.031.6a2.45,2.45,0,0,0-.816.6c-.018.042.043.024.068.11l.123.4c.208.7.423,1.405.589,2.19a1.282,1.282,0,0,1,.043.208c.037.184.061.306,1.012.306h1.184a3.11,3.11,0,0,1,3.1,3.1v3.441a3.1,3.1,0,0,1-3.1,3.105h-1.184c-.951,0-.976.129-1.012.313a1.228,1.228,0,0,1-.043.2c-.165.791-.374,1.49-.589,2.191l-.123.4c-.025.091-.086.072-.068.11a2.445,2.445,0,0,0,.816.608l1.031.594a3.111,3.111,0,0,1,1.123,4.24l-1.73,2.975a3.111,3.111,0,0,1-4.239,1.122l-1.037-.6c-.816-.478-.994-.295-1.049-.233l-.111.116c-.589.614-1.178,1.227-1.852,1.828-.013.018.042-.019.048.042a2.388,2.388,0,0,0,.35.878l.657,1.129a3.106,3.106,0,0,1-1.123,4.233l-2.981,1.737a3.107,3.107,0,0,1-4.153-.995,13.892,13.892,0,0,1-.736-1.258,1.648,1.648,0,0,0-.65-.73.141.141,0,0,0-.086-.019c-.761.24-1.4.4-2.08.571l-.779.2c-.025.007-.049.012-.061.031a1.834,1.834,0,0,0-.166.975v1.209a3.109,3.109,0,0,1-3.1,3.1h-3.442a3.109,3.109,0,0,1-3.1-3.1v-1.209a1.833,1.833,0,0,0-.166-.975c-.012-.019-.037-.024-.061-.031l-.78-.2c-.668-.172-1.319-.332-2.073-.571-.019-.006-.062-.006-.16.057a1.945,1.945,0,0,0-.576.693l-.657,1.129a3.112,3.112,0,0,1-4.239,1.124L2171.9,938.7a3.093,3.093,0,0,1-1.123-4.233l.657-1.129a2.309,2.309,0,0,0,.343-.878c0-.061.068-.024.049-.042-.675-.6-1.263-1.215-1.853-1.828l-.11-.116c-.055-.062-.233-.245-1.049.233l-1.036.6a3.1,3.1,0,0,1-4.234-1.122l-1.736-2.975a3.113,3.113,0,0,1,1.123-4.24l1.031-.594c.528-.308.76-.492.816-.608.025-.038-.043-.018-.067-.11l-.117-.4c-.215-.7-.429-1.412-.594-2.191a1.136,1.136,0,0,1-.037-.2c-.037-.184-.061-.313-1.012-.313h-1.185a3.111,3.111,0,0,1-3.1-3.105v-3.441a3.121,3.121,0,0,1,3.1-3.1h1.185c.951,0,.975-.122,1.012-.306,0-.03.031-.178.037-.208.171-.792.38-1.5.594-2.2l.117-.386c.024-.086.092-.067.067-.11-.055-.117-.288-.3-.816-.6a13.065,13.065,0,0,1-1.159-.681,3.1,3.1,0,0,1-.994-4.153l1.736-2.976a3.088,3.088,0,0,1,4.234-1.123l1.036.6c.816.472.994.288,1.055.228l.1-.1c.595-.613,1.184-1.233,1.858-1.834.019-.013-.042.025-.049-.043a2.2,2.2,0,0,0-.343-.877l-.657-1.128a3.112,3.112,0,0,1,1.123-4.24Zm16.516,7.092a17.877,17.877,0,1,1-12.651,5.239,17.808,17.808,0,0,1,12.651-5.239Zm11.245,6.637a15.906,15.906,0,1,0,4.657,11.246,15.869,15.869,0,0,0-4.657-11.246Zm0,0" transform="translate(-759.587 -24.705)" fill="#8ca3ca" fill-rule="evenodd"/>
      <path id="Trazado_210007" data-name="Trazado 210007" d="M1656.64,1055.33H1440.074c-10.479,0-19.368,8.589-19.049,19.049l3.951,130.486c.319,10.46,8.589,19.049,19.055,19.049h208.658c10.405,0,18.736-8.577,19.05-19.049l3.957-130.486c.313-10.472-8.577-19.049-19.055-19.049Zm0,10.405H1440.074a8.588,8.588,0,0,0-8.645,8.644l3.951,130.486a8.88,8.88,0,0,0,8.65,8.645h208.658a8.82,8.82,0,0,0,8.644-8.645l3.957-130.486a8.585,8.585,0,0,0-8.65-8.644Zm0,0" transform="translate(-159.085 -164.231)" fill="#cbd5eb" fill-rule="evenodd"/>
      <path id="Trazado_210008" data-name="Trazado 210008" d="M1476.993,1119.939a8.679,8.679,0,0,1,6.914-8.467l.2-.043.215-.031.208-.031.215-.025v-.006l.221-.017.215-.013h.006l.215-.006.227-.006H1702.2l.442.012h.006l.215.013.221.017.214.031.209.031a8.677,8.677,0,0,1,7.331,8.54l-3.951,130.486a8.825,8.825,0,0,1-8.65,8.644H1489.576a8.879,8.879,0,0,1-8.644-8.644Zm0,0" transform="translate(-204.654 -209.791)" fill="#e9eef7" fill-rule="evenodd"/>
      <path id="Trazado_210009" data-name="Trazado 210009" d="M1640.779,1962.079H1365.427v8.485a8.507,8.507,0,0,0,8.485,8.485h258.383a8.507,8.507,0,0,0,8.485-8.485Zm0,0" transform="translate(-113.831 -902.396)" fill="#8ca3ca" fill-rule="evenodd"/>
      <path id="Trazado_210010" data-name="Trazado 210010" d="M1767.677,1185.87h-46.559a4,4,0,0,0-3.988,3.988v20.134a4,4,0,0,0,3.988,3.983h46.559a4,4,0,0,0,3.988-3.983v-20.134a4,4,0,0,0-3.988-3.988Zm-64.387,106.872H1574.472a2.943,2.943,0,0,0-2.939,2.939v11.036a2.942,2.942,0,0,0,2.939,2.933H1703.29a2.945,2.945,0,0,0,2.938-2.933v-11.036a2.947,2.947,0,0,0-2.938-2.939Zm0-22.552H1574.472a2.946,2.946,0,0,0-2.939,2.939v11.036a2.943,2.943,0,0,0,2.939,2.939H1703.29a2.947,2.947,0,0,0,2.938-2.939V1273.13a2.95,2.95,0,0,0-2.938-2.939Zm0-22.547H1574.472a2.942,2.942,0,0,0-2.939,2.933v11.044a2.942,2.942,0,0,0,2.939,2.932H1703.29a2.946,2.946,0,0,0,2.938-2.932v-11.044a2.946,2.946,0,0,0-2.938-2.933Zm0-22.552H1574.472a2.947,2.947,0,0,0-2.939,2.938v11.037a2.947,2.947,0,0,0,2.939,2.939H1703.29a2.95,2.95,0,0,0,2.938-2.939V1228.03a2.95,2.95,0,0,0-2.938-2.938Zm-.632-39.221h-131.3a4,4,0,0,0-3.988,3.988v20.134a4,4,0,0,0,3.988,3.983h131.3a4,4,0,0,0,3.988-3.983v-20.134a4,4,0,0,0-3.988-3.988Zm60.437,36.074h-39.068a7.759,7.759,0,0,0-7.73,7.737v68.22a7.753,7.753,0,0,0,7.73,7.73h39.068a7.752,7.752,0,0,0,7.73-7.73v-68.22a7.759,7.759,0,0,0-7.73-7.737Zm0,0" transform="translate(-278.232 -270.501)" fill="#fff" fill-rule="evenodd"/>
      <path id="Trazado_210011" data-name="Trazado 210011" d="M1774.635,1350.023a21.994,21.994,0,0,1,7.08,1.146,17.673,17.673,0,0,1-.362-3.534c0-10.393,9.024-18.816,20.153-18.816a21.6,21.6,0,0,1,5.687.76c2.816-13.3,15.1-23.3,29.847-23.3,16.816,0,30.454,13.037,30.454,29.111a28.035,28.035,0,0,1-1.154,7.969c11,.743,19.663,8.479,19.663,18.455s-9.541,17.915-15.406,19.557a8.45,8.45,0,0,1-3.491,0h-92.474c-10.386,0-18.81-7.018-18.81-15.674s8.423-15.674,18.81-15.674Zm0,0" transform="translate(-431.646 -368.524)" fill="#cbd5eb" fill-rule="evenodd"/>
      <path id="Trazado_210012" data-name="Trazado 210012" d="M1574.038,865.229a55.9,55.9,0,1,1-55.9,55.9,55.906,55.906,0,0,1,55.9-55.9Zm0,0" transform="translate(-238.153 -9.474)" fill="#cbd5eb" fill-rule="evenodd"/>
      <path id="Trazado_210013" data-name="Trazado 210013" d="M1593.11,888.654a51.544,51.544,0,1,1-51.541,51.547,51.549,51.549,0,0,1,51.541-51.547Zm0,0" transform="translate(-257.224 -28.544)" fill="#e9eef7" fill-rule="evenodd"/>
      <path id="Trazado_210014" data-name="Trazado 210014" d="M1610.807,909.479a4.086,4.086,0,1,1-4.086,4.086,4.084,4.084,0,0,1,4.086-4.086Zm-21.791,5.841a4.086,4.086,0,1,1-4.086,4.086,4.085,4.085,0,0,1,4.086-4.086Zm-15.957,15.951a4.089,4.089,0,1,1-4.086,4.086,4.088,4.088,0,0,1,4.086-4.086Zm-5.393,21.89a4.086,4.086,0,1,1-4.086,4.085,4.084,4.084,0,0,1,4.086-4.085Zm5.393,21.7a4.086,4.086,0,1,1-4.086,4.086,4.084,4.084,0,0,1,4.086-4.086Zm15.957,15.95a4.087,4.087,0,1,1-4.086,4.087,4.089,4.089,0,0,1,4.086-4.087Zm43.583,0a4.087,4.087,0,1,1-4.086,4.087,4.089,4.089,0,0,1,4.086-4.087Zm15.957-15.95a4.086,4.086,0,1,1-4.086,4.086,4.085,4.085,0,0,1,4.086-4.086Zm5.834-21.792a4.086,4.086,0,1,1-4.086,4.086,4.084,4.084,0,0,1,4.086-4.086Zm-5.834-21.8a4.089,4.089,0,1,1-4.086,4.086,4.089,4.089,0,0,1,4.086-4.086ZM1632.6,915.32a4.086,4.086,0,1,1-4.086,4.086,4.085,4.085,0,0,1,4.086-4.086Zm-21.792,81.332a4.086,4.086,0,1,1-4.086,4.086,4.085,4.085,0,0,1,4.086-4.086Zm0,0" transform="translate(-275.143 -45.497)" fill="#fff" fill-rule="evenodd"/>
      <path id="Trazado_210015" data-name="Trazado 210015" d="M1795.177,1016.253q7.813-10.859-2.662-30.516-10.473,19.655-2.663,30.516a4.007,4.007,0,0,1,5.325,0Zm0,0" transform="translate(-456.63 -107.577)" fill="#cbd5eb" fill-rule="evenodd"/>
      <path id="Trazado_210016" data-name="Trazado 210016" d="M1837.679,1148.687q13,5.586,36.386-2.018-23.512-7.436-36.4-1.773a4.019,4.019,0,0,1,.018,3.792Zm0,0" transform="translate(-498.267 -235.152)" fill="#cbd5eb" fill-rule="evenodd"/>
      <path id="Trazado_210017" data-name="Trazado 210017" d="M1801.3,1144.424a3.994,3.994,0,1,1-3.995,3.994,3.99,3.99,0,0,1,3.995-3.994Zm0,0" transform="translate(-465.413 -236.761)" fill="#fff" fill-rule="evenodd"/>
      <path id="Trazado_210018" data-name="Trazado 210018" d="M2010.51,1499.63l11.829-11.829,11.835,11.829h-5.234v21.258h-13.2V1499.63Zm1.8,9.428-11.829,11.83-11.829-11.83h5.227V1487.8h13.2v21.257Zm0,0" transform="translate(-621.189 -516.297)" fill="#fff" fill-rule="evenodd"/>
      <path id="Trazado_210019" data-name="Trazado 210019" d="M2451.185,1457.213a19.884,19.884,0,0,0-3.559-4.479q7.593-4.122,8.424-9.048a8.676,8.676,0,0,1,1.877,2.356,40.283,40.283,0,0,1-6.742,11.171Zm0,0" transform="translate(-994.826 -480.383)" fill="#bd251d" fill-rule="evenodd"/>
      <path id="Trazado_210020" data-name="Trazado 210020" d="M2398.961,1457.213a19.832,19.832,0,0,1,3.564-4.479q-7.6-4.122-8.423-9.048a8.662,8.662,0,0,0-1.877,2.356,40.257,40.257,0,0,0,6.736,11.171Zm0,0" transform="translate(-949.725 -480.383)" fill="#bd251d" fill-rule="evenodd"/>
      <path id="Trazado_210021" data-name="Trazado 210021" d="M2272.176,1471.859q-8.19-11.337-30.9-15.5a40.285,40.285,0,0,1-6.742,11.172,19.86,19.86,0,0,0-3.559-4.479,19.835,19.835,0,0,0-3.564,4.479,40.27,40.27,0,0,1-6.736-11.172q-22.713,4.168-30.9,15.5-6.268,18.341-8.277,29.069,6.653,1.426,15.313,3.367-1.159,20.705-.6,35.363a334.683,334.683,0,0,1,32.773,12.153c.7-.018,1.362-.055,1.994-.1.632.044,1.295.081,1.988.1a333.687,333.687,0,0,1,32.779-12.153q.562-14.66-.6-35.363,8.66-1.942,15.307-3.367-2.006-10.722-8.276-29.069Zm0,0" transform="translate(-778.178 -490.698)" fill="#ff8e7c" fill-rule="evenodd"/>
      <path id="Trazado_210022" data-name="Trazado 210022" d="M2618.357,1589.93q1.611,10.369,2.423,23.1c.73-.16,1.449-.325,2.16-.48q-1.417-7.885-4.583-22.625Zm0,0" transform="translate(-1133.814 -599.437)" fill="#bd251d" fill-rule="evenodd"/>
      <path id="Trazado_210023" data-name="Trazado 210023" d="M2256.823,1589.93q-1.6,10.369-2.417,23.1c-.73-.16-1.454-.325-2.159-.48q1.408-7.885,4.576-22.625Zm0,0" transform="translate(-835.772 -599.437)" fill="#bd251d" fill-rule="evenodd"/>
      <path id="Trazado_210024" data-name="Trazado 210024" d="M2182.419,1891.009c1.625,4.141-1.368,10.828-3.393,12.159-36.976-3.705-60.056-8.9-74.3-16.1-4.245-2.35-11.656-3.362-16.172-6.355-10.927-11.522-2.742-26.638,8.086-25.891,7.571,1.454,11.141,3.62,14.73,7.89,12.957,2.963,39.332,13.424,71.044,28.3Zm0,0" transform="translate(-698.312 -815.055)" fill="#2b478b" fill-rule="evenodd"/>
      <path id="Trazado_210025" data-name="Trazado 210025" d="M2208.447,2051.4c1.485,10.1-11.11,11.693-37.025,7.294,10.9-3.594,12.338-6.767,4.22-11.827,22.547-4.086,32.842-4.05,32.8,4.533Zm-141.278,0c-1.49,10.1,11.111,11.693,37.019,7.294-10.889-3.594-12.331-6.767-4.221-11.827-22.54-4.086-32.835-4.05-32.8,4.533Zm0,0" transform="translate(-685.008 -969.268)" fill="#233862" fill-rule="evenodd"/>
      <path id="Trazado_210026" data-name="Trazado 210026" d="M2287.681,2065.413a17.714,17.714,0,0,1,5.221,1.705c10.9-3.595,12.338-6.766,4.22-11.828a22.417,22.417,0,0,1-6.251-.718c.853,3.8-1.368,9.043-3.19,10.841Zm-56.786,0a17.821,17.821,0,0,0-5.227,1.705c-10.889-3.595-12.331-6.766-4.221-11.828a22.371,22.371,0,0,0,6.251-.718c-.847,3.8,1.368,9.043,3.2,10.841Zm0,0" transform="translate(-806.487 -977.692)" fill="#ffb27d" fill-rule="evenodd"/>
      <path id="Trazado_210027" data-name="Trazado 210027" d="M2645.355,1721.033a77.516,77.516,0,0,0-.669-22.607q-5.043,1.087-11.135,2.453c-.711.154-1.429.319-2.16.479q1.124,20.063.632,34.442,9.93-8.007,13.332-14.768Zm0,0" transform="translate(-1144.425 -687.762)" fill="#ffb27d" fill-rule="evenodd"/>
      <path id="Trazado_210028" data-name="Trazado 210028" d="M2186.408,1721.033a77.279,77.279,0,0,1,.668-22.607q5.034,1.087,11.135,2.453c.705.154,1.429.319,2.159.479q-1.123,20.063-.638,34.442-9.929-8.007-13.325-14.768Zm0,0" transform="translate(-781.736 -687.762)" fill="#ffb27d" fill-rule="evenodd"/>
      <path id="Trazado_210029" data-name="Trazado 210029" d="M2293.282,1728.756q-.092-7.83-.57-18.485c-.369.08-.749.166-1.123.251-.711.154-1.429.319-2.16.479q.69,12.368.773,22.576.9-1.057,2.11-2.466a17.246,17.246,0,0,1,6.884-1.442,14.318,14.318,0,0,0-5.914-.914Zm-76.037,0q.092-7.83.564-18.485c.374.08.748.166,1.129.251.705.154,1.43.319,2.159.479q-.7,12.368-.773,22.576-.91-1.057-2.116-2.466a17.2,17.2,0,0,0-6.877-1.442,14.3,14.3,0,0,1,5.914-.914Zm0,0" transform="translate(-802.463 -697.404)" fill="#f08261" fill-rule="evenodd"/>
      <path id="Trazado_210030" data-name="Trazado 210030" d="M2260.851,1734.427h67.534a1.186,1.186,0,0,1,1.178,1.178v30.375a331.655,331.655,0,0,0-32.853,12.166h-4.184a330.162,330.162,0,0,0-32.853-12.166V1735.6a1.181,1.181,0,0,1,1.177-1.178Zm0,0" transform="translate(-841.818 -717.069)" fill="#cbd5eb" fill-rule="evenodd"/>
      <path id="Trazado_210031" data-name="Trazado 210031" d="M2276.565,1799.408c7.755,2.443,17.9,6.27,29.712,11.216l.1.036.816-.036h2.356l.81.036c11.859-4.957,22.038-8.8,29.811-11.252v-25.086c-4.436,5.626-13.265,10.27-24.571,13.056a7.652,7.652,0,0,1,.086,1.134,7.317,7.317,0,0,1-14.528,1.235q-4.878.44-10.05.447a109.622,109.622,0,0,1-14.54-.951Zm0,0" transform="translate(-855.569 -749.547)" fill="#8ca3ca" fill-rule="evenodd"/>
      <path id="Trazado_210032" data-name="Trazado 210032" d="M2380.661,1259.72q6.828,9.5,21.682,16.7c-2.473,7.417-6.209,14.657-14.381,16.006-7.828-1.25-12.153-6.913-13.92-14.944q6.313-7.032,6.62-17.761Zm0,0" transform="translate(-934.922 -330.621)" fill="#ffb27d" fill-rule="evenodd"/>
      <path id="Trazado_210033" data-name="Trazado 210033" d="M2370.311,1181.893a22.718,22.718,0,1,0-45.436,0v35.748a85.519,85.519,0,0,1,12.521-3.213,8.678,8.678,0,0,1,1.877-2.356q.828,4.932,8.423,9.048,7.593-4.122,8.423-9.048a8.683,8.683,0,0,1,1.877,2.356,84.99,84.99,0,0,1,12.313,3.147Zm-29.675-4.024q6.828,9.5,21.681,16.7c-2.473,7.417-6.209,14.657-14.381,16.006-7.828-1.25-12.153-6.913-13.92-14.944q6.313-7.032,6.62-17.761Zm0,0" transform="translate(-894.897 -248.769)" fill="#233862" fill-rule="evenodd"/>
      <path id="Trazado_210034" data-name="Trazado 210034" d="M2419.168,1420.715a11.694,11.694,0,0,1-1.2-4.749,13.925,13.925,0,0,1-6.982,3.251,15.337,15.337,0,0,1-8.067-3.748,28.451,28.451,0,0,1-.6,5.246q.829,4.931,8.423,9.048,7.593-4.122,8.424-9.048Zm0,0" transform="translate(-957.944 -457.412)" fill="#ffb27d" fill-rule="evenodd"/>
      <path id="Trazado_210035" data-name="Trazado 210035" d="M2420.266,1417.69c-.092-.522-.165-1.1-.233-1.724a13.929,13.929,0,0,1-6.982,3.251,15.338,15.338,0,0,1-8.067-3.748c-.025.737-.068,1.435-.123,2.086a26.99,26.99,0,0,0,8.264,3.4,20.858,20.858,0,0,0,7.141-3.264Zm0,0" transform="translate(-960.011 -457.412)" fill="#f08261" fill-rule="evenodd"/>
      <path id="Trazado_210036" data-name="Trazado 210036" d="M2313.916,1386.068h10.264v30.417h-12.766a95.962,95.962,0,0,0,2.5-30.417Zm0,0" transform="translate(-883.938 -433.478)" fill="#233862" fill-rule="evenodd"/>
      <path id="Trazado_210037" data-name="Trazado 210037" d="M2514.086,1386.068h10.258c-.7,10.1.644,20.252,2.332,30.417h-12.589Zm0,0" transform="translate(-1048.929 -433.478)" fill="#233862" fill-rule="evenodd"/>
      <path id="Trazado_210038" data-name="Trazado 210038" d="M2426.888,1825.172a4.733,4.733,0,1,1-4.736,4.735,4.729,4.729,0,0,1,4.736-4.735Zm0,0" transform="translate(-974.088 -790.943)" fill="#8ca3ca" fill-rule="evenodd"/>
      <path id="Trazado_210039" data-name="Trazado 210039" d="M2277.186,1891.009c-1.632,4.141,1.362,10.828,3.393,12.159,36.969-3.705,60.049-8.9,74.295-16.1,4.24-2.35,11.656-3.362,16.172-6.355,10.927-11.522,2.742-26.638-8.086-25.891-7.577,1.454-11.141,3.62-14.73,7.89-12.957,2.963-39.338,13.424-71.043,28.3Zm0,0" transform="translate(-855.692 -815.055)" fill="#2b478b" fill-rule="evenodd"/>
      <path id="Trazado_210040" data-name="Trazado 210040" d="M2225.288,1968.712q-30.313,11.808-47.749,9.479a24.63,24.63,0,0,1,3.834,1.613,89.86,89.86,0,0,0,13.056,5.24c.564-.1,1.141-.228,1.736-.369a6.786,6.786,0,0,1,.282-.926c11.221-5.264,21.779-9.975,31.307-14-.668-.283-1.331-.564-1.993-.841-.031-.012-.068-.026-.1-.036-.129-.056-.252-.1-.374-.16Zm0,0" transform="translate(-774.954 -907.796)" fill="#233862" fill-rule="evenodd"/>
      <path id="Trazado_210041" data-name="Trazado 210041" d="M2479.35,2059.258a227.274,227.274,0,0,1-31.724,6.884c8.288,1.288,17.552,2.441,27.914,3.478a3.158,3.158,0,0,0,.479-.392,14.517,14.517,0,0,0,3.331-9.969Zm0,0" transform="translate(-994.826 -981.507)" fill="#233862" fill-rule="evenodd"/>
      <path id="Trazado_210042" data-name="Trazado 210042" d="M2438.9,1970.45q1-.424,1.987-.84l-.81-.036h-2.355l-.816.036c.663.276,1.325.557,1.994.84Zm0,0" transform="translate(-986.096 -908.497)" fill="#151e40" fill-rule="evenodd"/>
      <path id="Trazado_210043" data-name="Trazado 210043" d="M1371.157,1558.774l-2.859,1.663a1.178,1.178,0,0,0-.417,1.6l.681,1.178a4.321,4.321,0,0,1,.632,1.761,2.026,2.026,0,0,1-.632,1.761c-.607.546-1.214,1.178-1.816,1.809l-.111.1c-.338.355-1.362,1.424-3.607.117l-1.08-.625a1.168,1.168,0,0,0-.89-.118,1.153,1.153,0,0,0-.711.54l-1.81,3.1a1.179,1.179,0,0,0-.11.884,1.147,1.147,0,0,0,.54.711l1.068.62a3.979,3.979,0,0,1,1.65,1.472,1.953,1.953,0,0,1,.074,1.638l-.123.412c-.215.718-.435,1.436-.577,2.1l-.037.2c-.227,1.184-.387,2-3.074,2h-1.233a1.174,1.174,0,0,0-1.165,1.167v3.588a1.172,1.172,0,0,0,1.165,1.166h1.233c2.687,0,2.847.815,3.074,2l.043.2c.141.681.356,1.392.571,2.1l.123.417a1.955,1.955,0,0,1-.074,1.638,3.943,3.943,0,0,1-1.65,1.472l-1.068.62a1.177,1.177,0,0,0-.424,1.6l1.8,3.105a1.185,1.185,0,0,0,1.6.418l1.08-.627c2.251-1.306,3.276-.233,3.614.117l.111.117c.6.626,1.2,1.251,1.81,1.8a2.017,2.017,0,0,1,.632,1.761,4.322,4.322,0,0,1-.632,1.761l-.681,1.178a1.174,1.174,0,0,0,.417,1.595l3.1,1.8a1.162,1.162,0,0,0,.89.123,1.191,1.191,0,0,0,.712-.539l.681-1.177a4.024,4.024,0,0,1,1.288-1.429,2.195,2.195,0,0,1,1.877-.277c.644.2,1.331.374,2.043.558l.828.209a2.056,2.056,0,0,1,1.227.827,3.765,3.765,0,0,1,.558,2.217v1.256a1.164,1.164,0,0,0,1.166,1.167h3.589a1.175,1.175,0,0,0,1.166-1.167V1611.2a3.746,3.746,0,0,1,.558-2.217,2.072,2.072,0,0,1,1.227-.827l.828-.209c.712-.184,1.4-.356,2.043-.558a2.1,2.1,0,0,1,1.515.085,3.636,3.636,0,0,1,1.65,1.621l.687,1.177a1.162,1.162,0,0,0,1.583.424l3.117-1.81a1.14,1.14,0,0,0,.534-.705,1.166,1.166,0,0,0-.116-.89l-.681-1.178a4.32,4.32,0,0,1-.632-1.761,2.033,2.033,0,0,1,.632-1.766c.607-.541,1.208-1.166,1.81-1.792l.111-.117c.337-.349,1.368-1.422,3.613-.117l1.079.627a1.185,1.185,0,0,0,1.6-.418l1.8-3.105a1.177,1.177,0,0,0-.424-1.6l-1.067-.62a3.949,3.949,0,0,1-1.651-1.472,1.956,1.956,0,0,1-.073-1.638l.129-.423c.215-.718.429-1.43.571-2.092l.037-.2c.227-1.185.386-2,3.074-2h1.233a1.173,1.173,0,0,0,1.166-1.166v-3.588a1.174,1.174,0,0,0-1.166-1.167h-1.233c-2.687,0-2.847-.815-3.074-2l-.043-.2c-.135-.663-.356-1.381-.571-2.092l-.123-.424a1.954,1.954,0,0,1,.073-1.638,3.986,3.986,0,0,1,1.651-1.472l1.067-.62a1.154,1.154,0,0,0,.54-.711,1.167,1.167,0,0,0-.116-.89l-1.8-3.1a1.152,1.152,0,0,0-.711-.54,1.168,1.168,0,0,0-.89.118l-1.079.625c-2.245,1.307-3.27.238-3.607-.117l-.11-.1c-.6-.631-1.208-1.263-1.816-1.809a2.022,2.022,0,0,1-.632-1.761,4.319,4.319,0,0,1,.632-1.761l.681-1.178a1.178,1.178,0,0,0-.417-1.6l-3.1-1.8a1.163,1.163,0,0,0-.889-.117,1.134,1.134,0,0,0-.706.533l-.687,1.178a3.628,3.628,0,0,1-1.65,1.62,2.128,2.128,0,0,1-1.515.085c-.638-.2-1.319-.374-2.025-.551l-.847-.215a2.041,2.041,0,0,1-1.227-.829,3.735,3.735,0,0,1-.558-2.214v-1.259a1.172,1.172,0,0,0-1.166-1.166h-3.589a1.165,1.165,0,0,0-.822.337,1.2,1.2,0,0,0-.344.829v1.259a3.738,3.738,0,0,1-.558,2.214,2.026,2.026,0,0,1-1.227.829l-.847.215c-.705.177-1.387.349-2.018.551a2.183,2.183,0,0,1-1.883-.275,4,4,0,0,1-1.288-1.43l-.693-1.2a1.183,1.183,0,0,0-1.589-.4Zm-3.89-.117,3.344-1.95h.031a3.241,3.241,0,0,1,4.141,1.313l.681,1.177a2.058,2.058,0,0,0,.6.718c.1.061.141.068.16.061.791-.252,1.46-.416,2.147-.589l.834-.214c.024-.006.055-.013.062-.031a1.886,1.886,0,0,0,.172-1.018v-1.259a3.246,3.246,0,0,1,3.233-3.233h3.589a3.235,3.235,0,0,1,3.227,3.233v1.259a1.883,1.883,0,0,0,.172,1.018c.012.018.043.025.067.031l.828.214c.693.172,1.362.337,2.147.589a.212.212,0,0,0,.092-.024,1.728,1.728,0,0,0,.675-.755l.681-1.177a3.237,3.237,0,0,1,4.411-1.172l3.1,1.8a3.231,3.231,0,0,1,1.165,4.416l-.681,1.178a2.339,2.339,0,0,0-.362.908c-.012.068-.067.031-.049.049.7.625,1.319,1.27,1.932,1.908l.1.111c.061.062.245.257,1.1-.24l1.08-.626a3.224,3.224,0,0,1,4.411,1.166l1.8,3.105a3.223,3.223,0,0,1-1.172,4.41l-1.068.626c-.552.318-.792.5-.853.625-.018.036.043.025.074.116l.123.411c.221.724.442,1.461.614,2.282a1.335,1.335,0,0,1,.043.215c.037.19.062.325,1.055.325h1.233a3.224,3.224,0,0,1,3.227,3.228v3.588a3.227,3.227,0,0,1-3.227,3.227h-1.233c-.994,0-1.019.135-1.055.324a1.31,1.31,0,0,1-.043.215c-.172.823-.393,1.551-.614,2.276l-.123.424c-.031.087-.092.073-.074.11a2.465,2.465,0,0,0,.853.632l1.068.619a3.223,3.223,0,0,1,1.172,4.411l-1.8,3.1a3.225,3.225,0,0,1-4.411,1.165l-1.08-.625c-.853-.492-1.037-.3-1.092-.24l-.117.117c-.613.638-1.227,1.275-1.926,1.9-.018.024.043-.018.049.049a2.385,2.385,0,0,0,.362.915l.681,1.172a3.234,3.234,0,0,1-1.165,4.418l-3.1,1.8a3.24,3.24,0,0,1-4.325-1.031c-.141-.147-.632-1.08-.767-1.313a1.737,1.737,0,0,0-.675-.76c-.055-.025-.08-.025-.092-.019-.791.245-1.466.416-2.166.589l-.81.209c-.024.006-.055.011-.067.029a1.908,1.908,0,0,0-.172,1.02v1.256a3.237,3.237,0,0,1-3.227,3.234h-3.589a3.2,3.2,0,0,1-2.282-.952,3.238,3.238,0,0,1-.951-2.282V1611.2a1.91,1.91,0,0,0-.172-1.02c-.012-.019-.043-.024-.062-.029l-.81-.2c-.706-.179-1.374-.35-2.166-.6-.018-.006-.068,0-.166.061a2.094,2.094,0,0,0-.6.724l-.681,1.172a3.242,3.242,0,0,1-4.417,1.172l-3.1-1.8a3.243,3.243,0,0,1-1.172-4.418l.687-1.172a2.383,2.383,0,0,0,.362-.915c0-.067.068-.025.049-.043-.7-.633-1.313-1.27-1.926-1.908l-.117-.117c-.062-.061-.245-.252-1.092.24l-1.079.625a3.225,3.225,0,0,1-4.411-1.165l-1.81-3.1a3.237,3.237,0,0,1,1.172-4.411l1.074-.619a2.553,2.553,0,0,0,.853-.632c.018-.037-.049-.024-.074-.11l-.122-.417c-.221-.731-.448-1.473-.62-2.282a1.286,1.286,0,0,1-.043-.215c-.037-.189-.061-.324-1.049-.324h-1.233a3.237,3.237,0,0,1-3.233-3.227v-3.588a3.234,3.234,0,0,1,3.233-3.228h1.233c.988,0,1.019-.135,1.049-.325,0-.031.037-.184.043-.215.178-.828.4-1.564.62-2.294l.122-.4c.031-.092.092-.074.074-.116a2.645,2.645,0,0,0-.853-.625,12.451,12.451,0,0,1-1.209-.713,3.2,3.2,0,0,1-1.362-1.883,3.234,3.234,0,0,1,.325-2.441l1.8-3.105a3.233,3.233,0,0,1,4.417-1.166l1.079.626c.847.5,1.037.3,1.1.24l.1-.111c.614-.638,1.227-1.282,1.933-1.908.018-.018-.043.018-.049-.049a2.44,2.44,0,0,0-.362-.908l-.687-1.178a3.256,3.256,0,0,1-.325-2.448,3.207,3.207,0,0,1,1.5-1.963Zm17.2,7.382a18.619,18.619,0,1,1-13.166,5.453,18.57,18.57,0,0,1,13.166-5.453Zm11.712,6.914a16.552,16.552,0,1,0,4.853,11.712,16.49,16.49,0,0,0-4.853-11.712Zm0,0" transform="translate(-104.107 -569.889)" fill="#8ca3ca" fill-rule="evenodd"/>
      <path id="Trazado_210044" data-name="Trazado 210044" d="M1683.948,1754.85l-1.411.822a.575.575,0,0,0-.264.35.585.585,0,0,0,.055.442l.337.582a2.17,2.17,0,0,1,.313.866,1,1,0,0,1-.313.878c-.3.264-.6.577-.9.889l-.055.054c-.166.173-.675.7-1.786.055l-.533-.305a.581.581,0,0,0-.792.2l-.89,1.541a.57.57,0,0,0-.055.435.579.579,0,0,0,.263.35l.528.306a1.949,1.949,0,0,1,.816.73.965.965,0,0,1,.037.809l-.062.2c-.1.356-.215.711-.282,1.043l-.019.092c-.111.589-.19.988-1.521.988h-.607a.6.6,0,0,0-.412.172.578.578,0,0,0-.165.4v1.773a.584.584,0,0,0,.165.411.6.6,0,0,0,.412.165h.607c1.332,0,1.411.405,1.521.994l.019.091c.073.337.178.688.282,1.039l.062.207a.948.948,0,0,1-.037.811,1.913,1.913,0,0,1-.809.724l-.534.313a.544.544,0,0,0-.263.35.572.572,0,0,0,.055.435l.9,1.534a.575.575,0,0,0,.349.27.583.583,0,0,0,.436-.06l.533-.315c1.117-.643,1.62-.109,1.792.062l.049.056c.3.313.6.62.9.89a.991.991,0,0,1,.313.872,2.085,2.085,0,0,1-.307.87l-.344.583a.575.575,0,0,0-.055.436.534.534,0,0,0,.264.349l1.534.9a.589.589,0,0,0,.442.055.574.574,0,0,0,.35-.264l.338-.583a1.954,1.954,0,0,1,.638-.7,1.076,1.076,0,0,1,.926-.136c.319.1.657.184,1.012.27l.405.111a1,1,0,0,1,.607.4,1.871,1.871,0,0,1,.276,1.1v.619a.585.585,0,0,0,.172.412.591.591,0,0,0,.4.166h1.773a.569.569,0,0,0,.4-.173.537.537,0,0,0,.172-.406v-.619a1.867,1.867,0,0,1,.276-1.1.994.994,0,0,1,.608-.4l.411-.111c.35-.086.687-.172,1.006-.27a1.012,1.012,0,0,1,.748.043,1.766,1.766,0,0,1,.816.8l.338.583a.569.569,0,0,0,.356.264.561.561,0,0,0,.429-.055l1.54-.9a.538.538,0,0,0,.264-.349.55.55,0,0,0-.055-.436l-.337-.583a2.2,2.2,0,0,1-.313-.87.99.99,0,0,1,.313-.872c.3-.27.595-.577.9-.89l.049-.056c.172-.171.681-.7,1.791-.062l.534.315a.583.583,0,0,0,.436.06.609.609,0,0,0,.356-.27l.889-1.534a.583.583,0,0,0-.208-.785l-.528-.313a1.907,1.907,0,0,1-.816-.724.97.97,0,0,1-.037-.811l.062-.207c.111-.357.214-.707.282-1.039l.018-.1c.11-.583.19-.988,1.521-.988h.607a.565.565,0,0,0,.577-.576v-1.773a.576.576,0,0,0-.166-.4.6.6,0,0,0-.411-.172h-.607c-1.332,0-1.411-.4-1.521-.988l-.018-.092c-.068-.332-.178-.687-.282-1.037l-.062-.21a.966.966,0,0,1,.037-.809,1.956,1.956,0,0,1,.816-.73l.528-.306a.589.589,0,0,0,.208-.791l-.889-1.534a.577.577,0,0,0-.356-.264.57.57,0,0,0-.436.062l-.534.305c-1.11.645-1.619.117-1.785-.055l-.056-.054c-.294-.313-.595-.625-.9-.889a1,1,0,0,1-.313-.878,2.167,2.167,0,0,1,.313-.866l.337-.582a.589.589,0,0,0,.055-.442.58.58,0,0,0-.264-.35l-1.534-.89a.571.571,0,0,0-.435-.061.6.6,0,0,0-.356.27l-.338.577a1.784,1.784,0,0,1-.816.8,1.075,1.075,0,0,1-.748.043c-.313-.1-.65-.185-1-.271l-.417-.11a.981.981,0,0,1-.608-.411,1.831,1.831,0,0,1-.276-1.092v-.62a.58.58,0,0,0-.172-.41.562.562,0,0,0-.4-.166h-1.773a.563.563,0,0,0-.4.166.581.581,0,0,0-.172.41v.62a1.835,1.835,0,0,1-.276,1.092.983.983,0,0,1-.607.411l-.417.11c-.35.086-.687.173-1,.271a1.1,1.1,0,0,1-.932-.135,2.064,2.064,0,0,1-.632-.712l-.344-.589a.593.593,0,0,0-.344-.257.584.584,0,0,0-.442.061Zm-1.92-.055,1.65-.963h.019a1.589,1.589,0,0,1,2.043.65l.337.576a.984.984,0,0,0,.3.356c.049.031.067.037.08.031.386-.123.718-.2,1.061-.289l.411-.1a.142.142,0,0,0,.031-.018.919.919,0,0,0,.086-.5v-.62a1.586,1.586,0,0,1,.467-1.128,1.615,1.615,0,0,1,1.128-.474h1.773a1.6,1.6,0,0,1,1.6,1.6v.62a.922.922,0,0,0,.086.5c0,.006.018.012.031.018l.411.1c.344.086.675.166,1.061.289a.1.1,0,0,0,.043-.012c.086-.03.2-.135.337-.374l.338-.576a1.595,1.595,0,0,1,2.177-.584l1.534.9a1.614,1.614,0,0,1,.742.969,1.591,1.591,0,0,1-.166,1.209l-.338.583a1.1,1.1,0,0,0-.178.447c0,.037-.031.018-.025.024.35.314.651.626.958.945l.049.055c.031.032.122.123.54-.116l.54-.312a1.6,1.6,0,0,1,2.178.576l.89,1.533a1.6,1.6,0,0,1-.577,2.185l-.528.307a1.319,1.319,0,0,0-.423.307c-.012.024.025.011.037.061l.061.2c.111.356.221.724.307,1.128,0,.013.018.093.018.105.019.092.031.159.521.159h.607a1.593,1.593,0,0,1,1.6,1.6v1.773a1.6,1.6,0,0,1-1.6,1.6h-.607c-.491,0-.5.062-.521.16a.746.746,0,0,1-.018.1c-.086.4-.2.767-.307,1.123l-.061.208c-.012.042-.049.036-.037.056.031.061.147.153.423.312l.528.308a1.591,1.591,0,0,1,.742.975,1.569,1.569,0,0,1-.166,1.2l-.89,1.534a1.591,1.591,0,0,1-.975.743,1.621,1.621,0,0,1-1.209-.16l-.534-.313c-.417-.245-.509-.147-.54-.116l-.055.054c-.3.319-.608.632-.951.938-.012.013.019-.006.025.025a1.227,1.227,0,0,0,.178.454l.338.583a1.57,1.57,0,0,1,.166,1.2,1.614,1.614,0,0,1-.742.975l-1.534.889a1.589,1.589,0,0,1-1.208.166,1.622,1.622,0,0,1-.932-.675,6.733,6.733,0,0,1-.375-.651.885.885,0,0,0-.337-.374.059.059,0,0,0-.043-.006c-.392.123-.724.2-1.067.294l-.405.1a.047.047,0,0,0-.031.012.947.947,0,0,0-.086.509v.619a1.592,1.592,0,0,1-1.6,1.6h-1.773a1.593,1.593,0,0,1-1.595-1.6v-.619a.943.943,0,0,0-.086-.509c0-.006-.025-.012-.031-.012l-.405-.1c-.344-.091-.675-.171-1.068-.294-.012-.006-.031-.006-.08.025a1.028,1.028,0,0,0-.3.355l-.337.583a1.585,1.585,0,0,1-2.178.576l-1.533-.889a1.59,1.59,0,0,1-.577-2.178l.338-.583a1.121,1.121,0,0,0,.178-.454c0-.031.031-.012.025-.019-.344-.312-.65-.625-.951-.944l-.061-.054c-.025-.031-.117-.129-.54.116l-.534.313a1.616,1.616,0,0,1-1.209.16,1.6,1.6,0,0,1-.969-.743l-.89-1.534a1.573,1.573,0,0,1-.165-1.2,1.59,1.59,0,0,1,.742-.975l.528-.308a1.293,1.293,0,0,0,.423-.312c.012-.02-.025-.013-.037-.056l-.061-.2c-.11-.362-.221-.73-.307-1.129,0-.018-.018-.092-.018-.1-.019-.1-.031-.16-.522-.16h-.607a1.609,1.609,0,0,1-1.6-1.6v-1.773a1.6,1.6,0,0,1,1.6-1.6h.607c.491,0,.5-.067.522-.159a.648.648,0,0,1,.018-.105c.086-.41.2-.772.307-1.134l.061-.2c.012-.05.043-.037.037-.061a1.325,1.325,0,0,0-.423-.307c-.111-.069-.534-.289-.6-.35a1.594,1.594,0,0,1-.51-2.142l.89-1.533a1.6,1.6,0,0,1,2.178-.576l.534.312c.423.239.515.148.546.116l.049-.055c.307-.319.607-.631.957-.945.012-.006-.025.013-.025-.024a1.322,1.322,0,0,0-.178-.447l-.338-.583a1.587,1.587,0,0,1,.577-2.178Zm8.5,3.644a9.216,9.216,0,1,1-6.509,2.7,9.171,9.171,0,0,1,6.509-2.7Zm5.786,3.417a8.183,8.183,0,1,0,2.4,5.79,8.156,8.156,0,0,0-2.4-5.79Zm0,0" transform="translate(-366.02 -731.627)" fill="#8ca3ca" fill-rule="evenodd"/>
    </g>
    <g id="Grupo_1078889" data-name="Grupo 1078889" transform="translate(175.949 5007.336)">
      <rect id="Rect치ngulo_373681" data-name="Rect치ngulo 373681" width="9.537" height="56.109" rx="4.769" transform="translate(397.307 0) rotate(45)" fill="#ffb476"/>
      <g id="Grupo_1065536" data-name="Grupo 1065536" transform="translate(344.075 224.978) rotate(-90)">
        <g id="Group_881454" data-name="Group 881454" transform="translate(0 53.403)">
          <g id="Grupo_108438" data-name="Grupo 108438">
            <path id="Trazado_165433" data-name="Trazado 165433" d="M0,3.288A3.286,3.286,0,1,0,3.286,0,3.286,3.286,0,0,0,0,3.288" fill="#2efec7"/>
            <g id="Grupo_108437" data-name="Grupo 108437" clip-path="url(#clip-path)">
              <g id="Group_881453" data-name="Group 881453" transform="translate(0 0)">
                <rect id="Rectangle_298909" data-name="Rectangle 298909" width="6.572" height="6.572" fill="#2efec7"/>
              </g>
            </g>
          </g>
        </g>
        <g id="Group_881458" data-name="Group 881458" transform="translate(0.001)">
          <g id="Grupo_108442" data-name="Grupo 108442">
            <path id="Trazado_165437" data-name="Trazado 165437" d="M3.285,0A3.285,3.285,0,1,0,6.571,3.287,3.286,3.286,0,0,0,3.285,0Z" fill="#2efec7"/>
            <g id="Grupo_108441" data-name="Grupo 108441" clip-path="url(#clip-path-2)">
              <g id="Group_881457" data-name="Group 881457" transform="translate(-0.001 0.001)">
                <rect id="Rectangle_298911" data-name="Rectangle 298911" width="6.572" height="6.57" fill="#2efec7"/>
              </g>
            </g>
          </g>
        </g>
        <g id="Group_881460" data-name="Group 881460" transform="translate(22.271 53.403)">
          <g id="Grupo_108444" data-name="Grupo 108444">
            <path id="Trazado_165439" data-name="Trazado 165439" d="M0,3.288A3.285,3.285,0,1,0,3.286,0,3.286,3.286,0,0,0,0,3.288" fill="#2efec7"/>
            <g id="Grupo_108443" data-name="Grupo 108443" clip-path="url(#clip-path-3)">
              <g id="Group_881459" data-name="Group 881459" transform="translate(0 0)">
                <rect id="Rectangle_298912" data-name="Rectangle 298912" width="6.572" height="6.572" fill="#2efec7"/>
              </g>
            </g>
          </g>
        </g>
        <g id="Group_881462" data-name="Group 881462" transform="translate(22.271 27.795)">
          <g id="Grupo_108446" data-name="Grupo 108446">
            <path id="Trazado_165441" data-name="Trazado 165441" d="M0,3.286A3.285,3.285,0,1,0,3.286,0,3.286,3.286,0,0,0,0,3.286" fill="#2efec7"/>
            <g id="Grupo_108445" data-name="Grupo 108445" clip-path="url(#clip-path-4)">
              <g id="Group_881461" data-name="Group 881461" transform="translate(0 0)">
                <rect id="Rectangle_298913" data-name="Rectangle 298913" width="6.572" height="6.572" fill="#2efec7"/>
              </g>
            </g>
          </g>
        </g>
        <g id="Group_881464" data-name="Group 881464" transform="translate(22.273)">
          <g id="Grupo_108448" data-name="Grupo 108448" transform="translate(0)">
            <path id="Trazado_165443" data-name="Trazado 165443" d="M3.284,0A3.285,3.285,0,1,0,6.57,3.286,3.285,3.285,0,0,0,3.284,0Z" fill="#2efec7"/>
            <g id="Grupo_108447" data-name="Grupo 108447" clip-path="url(#clip-path-5)">
              <g id="Group_881463" data-name="Group 881463" transform="translate(-0.001 0.001)">
                <rect id="Rectangle_298914" data-name="Rectangle 298914" width="6.572" height="6.57" fill="#2efec7"/>
              </g>
            </g>
          </g>
        </g>
        <g id="Group_881454-2" data-name="Group 881454" transform="translate(45.505 53.403)">
          <g id="Grupo_108450" data-name="Grupo 108450">
            <path id="Trazado_165445" data-name="Trazado 165445" d="M0,3.288A3.287,3.287,0,1,0,3.286,0,3.286,3.286,0,0,0,0,3.288" fill="#2efec7"/>
            <g id="Grupo_108449" data-name="Grupo 108449" clip-path="url(#clip-path-6)">
              <g id="Group_881453-2" data-name="Group 881453" transform="translate(0 0)">
                <rect id="Rectangle_298909-2" data-name="Rectangle 298909" width="6.572" height="6.572" fill="#2efec7"/>
              </g>
            </g>
          </g>
        </g>
        <g id="Group_881456" data-name="Group 881456" transform="translate(45.505 27.795)">
          <g id="Grupo_108452" data-name="Grupo 108452">
            <path id="Trazado_165447" data-name="Trazado 165447" d="M0,3.286A3.287,3.287,0,1,0,3.287,0h0A3.29,3.29,0,0,0,0,3.286" fill="#2efec7"/>
            <g id="Grupo_108451" data-name="Grupo 108451" clip-path="url(#clip-path-7)">
              <g id="Group_881455" data-name="Group 881455" transform="translate(0 0)">
                <rect id="Rectangle_298910" data-name="Rectangle 298910" width="6.572" height="6.572" fill="#2efec7"/>
              </g>
            </g>
          </g>
        </g>
        <g id="Group_881458-2" data-name="Group 881458" transform="translate(45.507)">
          <g id="Grupo_108454" data-name="Grupo 108454">
            <path id="Trazado_165449" data-name="Trazado 165449" d="M3.284,0A3.285,3.285,0,1,0,6.57,3.287,3.285,3.285,0,0,0,3.284,0Z" fill="#2efec7"/>
            <g id="Grupo_108453" data-name="Grupo 108453" clip-path="url(#clip-path-8)">
              <g id="Group_881457-2" data-name="Group 881457" transform="translate(-0.001 0.001)">
                <rect id="Rectangle_298911-2" data-name="Rectangle 298911" width="6.572" height="6.57" fill="#2efec7"/>
              </g>
            </g>
          </g>
        </g>
        <g id="Group_881460-2" data-name="Group 881460" transform="translate(67.777 53.403)">
          <g id="Grupo_108456" data-name="Grupo 108456">
            <path id="Trazado_165451" data-name="Trazado 165451" d="M0,3.288A3.285,3.285,0,1,0,3.285,0,3.286,3.286,0,0,0,0,3.288" fill="#2efec7"/>
            <g id="Grupo_108455" data-name="Grupo 108455" clip-path="url(#clip-path-9)">
              <g id="Group_881459-2" data-name="Group 881459" transform="translate(0 0)">
                <rect id="Rectangle_298912-2" data-name="Rectangle 298912" width="6.572" height="6.572" fill="#2efec7"/>
              </g>
            </g>
          </g>
        </g>
        <g id="Group_881462-2" data-name="Group 881462" transform="translate(67.777 27.795)">
          <g id="Grupo_108458" data-name="Grupo 108458">
            <path id="Trazado_165453" data-name="Trazado 165453" d="M0,3.286A3.285,3.285,0,1,0,3.285,0,3.285,3.285,0,0,0,0,3.286" fill="#2efec7"/>
            <g id="Grupo_108457" data-name="Grupo 108457" clip-path="url(#clip-path-10)">
              <g id="Group_881461-2" data-name="Group 881461" transform="translate(0 0)">
                <rect id="Rectangle_298913-2" data-name="Rectangle 298913" width="6.572" height="6.572" fill="#2efec7"/>
              </g>
            </g>
          </g>
        </g>
        <g id="Group_881464-2" data-name="Group 881464" transform="translate(67.778)">
          <g id="Grupo_108460" data-name="Grupo 108460">
            <path id="Trazado_165455" data-name="Trazado 165455" d="M3.284,0A3.285,3.285,0,1,0,6.57,3.286,3.285,3.285,0,0,0,3.284,0Z" fill="#2efec7"/>
            <g id="Grupo_108459" data-name="Grupo 108459" clip-path="url(#clip-path-5)">
              <g id="Group_881463-2" data-name="Group 881463" transform="translate(-0.001 0.001)">
                <rect id="Rectangle_298914-2" data-name="Rectangle 298914" width="6.572" height="6.57" fill="#2efec7"/>
              </g>
            </g>
          </g>
        </g>
        <g id="Group_881456-2" data-name="Group 881456" transform="translate(0 27.795)">
          <g id="Grupo_108440" data-name="Grupo 108440">
            <path id="Trazado_165435" data-name="Trazado 165435" d="M0,3.286A3.286,3.286,0,1,0,3.286,0h0A3.289,3.289,0,0,0,0,3.286" fill="#2efec7"/>
            <g id="Grupo_108439" data-name="Grupo 108439" clip-path="url(#clip-path-12)">
              <g id="Group_881455-2" data-name="Group 881455" transform="translate(0 0)">
                <rect id="Rectangle_298910-2" data-name="Rectangle 298910" width="6.572" height="6.572" fill="#2efec7"/>
              </g>
            </g>
          </g>
        </g>
      </g>
      <rect id="Rect치ngulo_373680" data-name="Rect치ngulo 373680" width="10.287" height="81.164" rx="5.144" transform="translate(61.442 160.313) rotate(45)" fill="#ff6148"/>
    </g>
  </g>
</svg>
