<svg xmlns="http://www.w3.org/2000/svg" xmlns:xlink="http://www.w3.org/1999/xlink" width="610" height="305" viewBox="0 0 610 305">
  <defs>
    <clipPath id="clip-path">
      <rect id="Rectángulo_378988" data-name="Rectángulo 378988" width="295" height="295" transform="translate(-0.333)" fill="none"/>
    </clipPath>
    <clipPath id="clip-path-3">
      <rect id="Rectángulo_378989" data-name="Rectángulo 378989" width="36.991" height="26.602" fill="none"/>
    </clipPath>
    <clipPath id="clip-path-4">
      <rect id="Rectángulo_378990" data-name="Rectángulo 378990" width="181.637" height="12.606" fill="#ffc8bf"/>
    </clipPath>
    <clipPath id="clip-path-5">
      <rect id="Rectángulo_378991" data-name="Rectángulo 378991" width="23.734" height="16.64" fill="none"/>
    </clipPath>
    <clipPath id="clip-path-6">
      <rect id="Rectángulo_378992" data-name="Rectángulo 378992" width="47.649" height="33.406" fill="none"/>
    </clipPath>
    <clipPath id="clip-path-7">
      <rect id="Rectángulo_378993" data-name="Rectángulo 378993" width="47.673" height="33.423" fill="none"/>
    </clipPath>
    <clipPath id="clip-path-9">
      <path id="Trazado_827928" data-name="Trazado 827928" d="M531.97,653.2a56.408,56.408,0,0,0,4.51,3.4c1.143.774,2.258,1.468,3.329,2.089a46.741,46.741,0,0,0-3.9,7.246,51.169,51.169,0,0,0-2.993,28.994,2.481,2.481,0,0,0,2.019.16c1.359-4.1,2.948-8.38,4.81-12.808a176.877,176.877,0,0,1,12.719-24.635c-1.5-2.836-3.235-5.85-5.254-8.974-1.773-2.743-3.556-5.25-5.294-7.528L531.97,653.2" transform="translate(-531.97 -641.144)" fill="none"/>
    </clipPath>
    <linearGradient id="linear-gradient" x1="-2.672" y1="3.633" x2="-2.666" y2="3.633" gradientUnits="objectBoundingBox">
      <stop offset="0" stop-color="#9c4f32"/>
      <stop offset="1" stop-color="#9e6576"/>
    </linearGradient>
    <clipPath id="clip-path-11">
      <rect id="Rectángulo_378997" data-name="Rectángulo 378997" width="12.946" height="24.468" fill="none"/>
    </clipPath>
    <clipPath id="clip-path-12">
      <path id="Trazado_827930" data-name="Trazado 827930" d="M543.567,646.686a56.364,56.364,0,0,0,5.552,1.019c1.369.181,2.676.3,3.913.379a46.729,46.729,0,0,0-.251,8.227,51.174,51.174,0,0,0,10.293,27.27,2.482,2.482,0,0,0,1.878-.76c-.616-4.271-1.112-8.814-1.428-13.607a176.864,176.864,0,0,1,.356-27.722c-2.608-1.867-5.511-3.785-8.714-5.675-2.813-1.66-5.529-3.1-8.1-4.364l-3.5,15.234" transform="translate(-543.567 -631.452)" fill="none"/>
    </clipPath>
    <linearGradient id="linear-gradient-2" x1="-2.879" y1="3.839" x2="-2.873" y2="3.839" xlink:href="#linear-gradient"/>
    <clipPath id="clip-path-14">
      <rect id="Rectángulo_379000" data-name="Rectángulo 379000" width="4.006" height="35.888" fill="none"/>
    </clipPath>
    <clipPath id="clip-path-15">
      <path id="Trazado_827945" data-name="Trazado 827945" d="M378.347,521.393a48.554,48.554,0,0,0,3.843,3.1,51.8,51.8,0,0,0,22.257,9.023l1.42-1.671c-3.139-1.805-6.381-3.785-9.7-5.957-4.819-3.155-9.218-6.338-13.211-9.452l-4.612,4.961" transform="translate(-378.347 -516.431)" fill="none"/>
    </clipPath>
    <linearGradient id="linear-gradient-3" x1="-6.977" y1="5.107" x2="-6.959" y2="5.107" xlink:href="#linear-gradient"/>
    <clipPath id="clip-path-17">
      <path id="Trazado_827948" data-name="Trazado 827948" d="M502.411,444.794c-3.757,3.853-7.463,7.317-11.033,10.42a5.557,5.557,0,0,0,3.722,5.118,45.274,45.274,0,0,0,3.527-2.969,48.391,48.391,0,0,0,12.261-18.791l-1.278-1.6c-2.218,2.555-4.614,5.173-7.2,7.824" transform="translate(-491.378 -436.97)" fill="none"/>
    </clipPath>
    <linearGradient id="linear-gradient-4" x1="-7.202" y1="6.584" x2="-7.188" y2="6.584" xlink:href="#linear-gradient"/>
    <clipPath id="clip-path-19">
      <path id="Trazado_827950" data-name="Trazado 827950" d="M550.2,427.043c-.565.236-2.8.59-3.757,1.576a4.988,4.988,0,0,0-1.214,2.193,1.144,1.144,0,0,0-.316,1.48,1.088,1.088,0,0,0,.992.455,21.545,21.545,0,0,0,4.415-.082,27.963,27.963,0,0,0,3.255-.882,20.482,20.482,0,0,0,3.916-1.32c-.02-.089-.709-.068-3.9.485l-.5.023c4.154-.855,5.918-1.3,5.9-1.433s-1.845.027-6.073.589c0-.041-.009-.083-.013-.124,2.046-.245,3.532-.451,4.509-.594.647-.094,1.924-.285,1.919-.5a.084.084,0,0,0-.03-.055c-.263-.244-4.631.091-6.493.243l.119-.131c2.8-.215,6.079-.512,6.071-.744,0-.081-.411-.138-1.261-.206a51.68,51.68,0,0,0-8.338.091,22.524,22.524,0,0,0,2.638-.994,2.455,2.455,0,0,0,1.016-1.553c0-.062-.04-.089-.1-.089-.455,0-2.253,1.363-2.747,1.57" transform="translate(-544.764 -425.473)" fill="none"/>
    </clipPath>
    <linearGradient id="linear-gradient-5" x1="-11.04" y1="19.714" x2="-11.019" y2="19.714" xlink:href="#linear-gradient"/>
    <clipPath id="clip-path-21">
      <path id="Trazado_827955" data-name="Trazado 827955" d="M467.243,515.45l.687,20.019,24.967-3.128,2.283-18.7Z" transform="translate(-467.243 -513.641)" fill="none"/>
    </clipPath>
    <linearGradient id="linear-gradient-6" x1="-4.034" y1="4.079" x2="-4.025" y2="4.079" gradientUnits="objectBoundingBox">
      <stop offset="0" stop-color="#380303"/>
      <stop offset="1" stop-color="#57161b"/>
    </linearGradient>
    <clipPath id="clip-path-23">
      <rect id="Rectángulo_379008" data-name="Rectángulo 379008" width="10.196" height="19.56" fill="none"/>
    </clipPath>
    <clipPath id="clip-path-24">
      <path id="Trazado_827957" data-name="Trazado 827957" d="M473.926,518.376l5.932,19.238,4.263-.534-5.232-19.026Z" transform="translate(-473.926 -518.055)" fill="none"/>
    </clipPath>
    <linearGradient id="linear-gradient-7" x1="-8.755" y1="5.648" x2="-8.736" y2="5.648" gradientUnits="objectBoundingBox">
      <stop offset="0" stop-color="#a2fbff"/>
      <stop offset="1" stop-color="#8c242b"/>
    </linearGradient>
    <clipPath id="clip-path-25">
      <rect id="Rectángulo_379009" data-name="Rectángulo 379009" width="6.034" height="19.037" fill="none"/>
    </clipPath>
    <clipPath id="clip-path-26">
      <path id="Trazado_827959" data-name="Trazado 827959" d="M494.333,517.649l4.98,18.979,1.053-.132-5.137-18.9Z" transform="translate(-494.333 -517.591)" fill="none"/>
    </clipPath>
    <linearGradient id="linear-gradient-8" x1="-12.457" y1="6.258" x2="-12.431" y2="6.258" xlink:href="#linear-gradient-7"/>
    <clipPath id="clip-path-27">
      <rect id="Rectángulo_379010" data-name="Rectángulo 379010" width="27.937" height="8.26" fill="none"/>
    </clipPath>
    <clipPath id="clip-path-28">
      <rect id="Rectángulo_379011" data-name="Rectángulo 379011" width="1.939" height="0.724" fill="none"/>
    </clipPath>
    <clipPath id="clip-path-29">
      <rect id="Rectángulo_379012" data-name="Rectángulo 379012" width="1.94" height="0.724" fill="none"/>
    </clipPath>
    <clipPath id="clip-path-30">
      <path id="Trazado_827979" data-name="Trazado 827979" d="M474.437,521l-2.089,19.031,26.745-3.353,5.033-17.822Z" transform="translate(-472.348 -518.854)" fill="none"/>
    </clipPath>
    <linearGradient id="linear-gradient-9" x1="-4.362" y1="3.986" x2="-4.353" y2="3.986" gradientUnits="objectBoundingBox">
      <stop offset="0" stop-color="#5c0505"/>
      <stop offset="1" stop-color="#8c242b"/>
    </linearGradient>
    <clipPath id="clip-path-32">
      <rect id="Rectángulo_379014" data-name="Rectángulo 379014" width="8.114" height="18.589" fill="none"/>
    </clipPath>
    <clipPath id="clip-path-33">
      <path id="Trazado_827981" data-name="Trazado 827981" d="M486.255,524.466l3.547,18.208,4.567-.572-2.839-18.017Z" transform="translate(-486.255 -524.085)" fill="none"/>
    </clipPath>
    <linearGradient id="linear-gradient-10" x1="-16.048" y1="6.077" x2="-16.015" y2="6.077" xlink:href="#linear-gradient-7"/>
    <clipPath id="clip-path-34">
      <rect id="Rectángulo_379015" data-name="Rectángulo 379015" width="3.709" height="18.045" fill="none"/>
    </clipPath>
    <clipPath id="clip-path-35">
      <path id="Trazado_827983" data-name="Trazado 827983" d="M507.941,523.6l2.581,17.976,1.128-.141-2.756-17.9Z" transform="translate(-507.941 -523.536)" fill="none"/>
    </clipPath>
    <linearGradient id="linear-gradient-11" x1="-32.192" y1="6.826" x2="-32.129" y2="6.826" xlink:href="#linear-gradient-7"/>
    <clipPath id="clip-path-36">
      <rect id="Rectángulo_379016" data-name="Rectángulo 379016" width="29.689" height="8.09" fill="none"/>
    </clipPath>
    <clipPath id="clip-path-37">
      <rect id="Rectángulo_379017" data-name="Rectángulo 379017" width="1.997" height="0.695" fill="none"/>
    </clipPath>
    <clipPath id="clip-path-39">
      <path id="Trazado_827998" data-name="Trazado 827998" d="M456.842,560.657s.181,9.308.857,9.829.507-1,.507-1l2.926.236s.176.544,1.183.208-.926-7.175-.926-7.175,1.566,1.617,2.291,1.746a1.721,1.721,0,0,0,1.565-.7c.141-.261-1.357-.334-2.025-.654a6.724,6.724,0,0,1-1.783-1.4,5.345,5.345,0,0,0-3.728-1.123q-.407,0-.866.032" transform="translate(-456.842 -560.625)" fill="none"/>
    </clipPath>
    <linearGradient id="linear-gradient-12" x1="-13.299" y1="14.066" x2="-13.27" y2="14.066" xlink:href="#linear-gradient"/>
    <clipPath id="clip-path-41">
      <path id="Trazado_828001" data-name="Trazado 828001" d="M421.363,350.215a13.887,13.887,0,0,0,8.192,6.777q.708-5.083,1.416-10.165l-9.608-7.592Z" transform="translate(-421.363 -339.235)" fill="none"/>
    </clipPath>
    <linearGradient id="linear-gradient-13" x1="-12.618" y1="10.546" x2="-12.588" y2="10.546" xlink:href="#linear-gradient"/>
    <clipPath id="clip-path-43">
      <rect id="Rectángulo_379023" data-name="Rectángulo 379023" width="9.737" height="12.724" fill="none"/>
    </clipPath>
    <clipPath id="clip-path-44">
      <path id="Trazado_828003" data-name="Trazado 828003" d="M405.878,316.04c-1.521.532-1.967,3.356-.921,5.02a3.447,3.447,0,0,0,2.5,1.592,3.311,3.311,0,0,0,1.712-.3q.245-2.048.489-4.1a4.1,4.1,0,0,0-3.2-2.312,1.74,1.74,0,0,0-.576.093" transform="translate(-404.388 -315.947)" fill="none"/>
    </clipPath>
    <linearGradient id="linear-gradient-14" x1="-20.654" y1="28.325" x2="-20.602" y2="28.325" xlink:href="#linear-gradient"/>
    <clipPath id="clip-path-46">
      <rect id="Rectángulo_379026" data-name="Rectángulo 379026" width="3.486" height="4.898" fill="none"/>
    </clipPath>
    <clipPath id="clip-path-47">
      <path id="Trazado_828005" data-name="Trazado 828005" d="M429.365,282.668a9.275,9.275,0,0,0-6.014,4.15c-1.1,1.886-.765,3.168-2.411,5.487a12.166,12.166,0,0,1-1.762,1.981,14.655,14.655,0,0,0-.138,7.65,13.391,13.391,0,0,0,.5,1.532,25.378,25.378,0,0,0,7.771,6.135,3.928,3.928,0,0,0,1.672.394,3.835,3.835,0,0,0,.89-.1,13.943,13.943,0,0,0,3.68-2.944,8.231,8.231,0,0,0,2.516-4.685,6.58,6.58,0,0,0-.505-3.189,15.081,15.081,0,0,0,1.21-11.116,13.566,13.566,0,0,0-2.368-4.446,8.694,8.694,0,0,0-3.849-.944,7.64,7.64,0,0,0-1.2.094" transform="translate(-418.594 -282.574)" fill="none"/>
    </clipPath>
    <linearGradient id="linear-gradient-15" x1="-6.044" y1="7.408" x2="-6.03" y2="7.408" xlink:href="#linear-gradient"/>
    <clipPath id="clip-path-49">
      <rect id="Rectángulo_379029" data-name="Rectángulo 379029" width="1.492" height="0.613" fill="none"/>
    </clipPath>
    <clipPath id="clip-path-51">
      <rect id="Rectángulo_379031" data-name="Rectángulo 379031" width="8.037" height="7.415" fill="none"/>
    </clipPath>
    <clipPath id="clip-path-52">
      <path id="Trazado_828030" data-name="Trazado 828030" d="M451.45,331.329a2.627,2.627,0,0,1-.355,1.381,2.6,2.6,0,0,1-.794.843,2.053,2.053,0,0,0-.1.635,3.179,3.179,0,0,0,1.6,2.372l.757.153a5.407,5.407,0,0,0,1.685-.868,1.655,1.655,0,0,0,.219-1.2,4.848,4.848,0,0,1-1.017-1.669l.212-1.073a1.308,1.308,0,0,0-.6-.983,1.113,1.113,0,0,0-.531-.131,1.387,1.387,0,0,0-1.07.535" transform="translate(-450.199 -330.794)" fill="none"/>
    </clipPath>
    <linearGradient id="linear-gradient-16" x1="-32.068" y1="32.623" x2="-31.997" y2="32.623" xlink:href="#linear-gradient"/>
    <clipPath id="clip-path-54">
      <rect id="Rectángulo_379034" data-name="Rectángulo 379034" width="4.293" height="5.92" fill="none"/>
    </clipPath>
    <clipPath id="clip-path-55">
      <rect id="Rectángulo_379035" data-name="Rectángulo 379035" width="0.905" height="0.925" fill="none"/>
    </clipPath>
    <clipPath id="clip-path-56">
      <rect id="Rectángulo_379036" data-name="Rectángulo 379036" width="4.107" height="2.345" fill="none"/>
    </clipPath>
    <clipPath id="clip-path-57">
      <rect id="Rectángulo_379037" data-name="Rectángulo 379037" width="9.746" height="7.654" fill="none"/>
    </clipPath>
    <clipPath id="clip-path-58">
      <rect id="Rectángulo_379038" data-name="Rectángulo 379038" width="7.073" height="3.848" fill="none"/>
    </clipPath>
    <clipPath id="clip-path-59">
      <rect id="Rectángulo_379039" data-name="Rectángulo 379039" width="5.461" height="2.584" fill="none"/>
    </clipPath>
    <clipPath id="clip-path-60">
      <rect id="Rectángulo_379040" data-name="Rectángulo 379040" width="2.431" height="2.364" fill="none"/>
    </clipPath>
  </defs>
  <g id="Grupo_1079623" data-name="Grupo 1079623" transform="translate(-180 -7273)">
    <g id="Grupo_1079043" data-name="Grupo 1079043">
      <rect id="Rectángulo_378964" data-name="Rectángulo 378964" width="610" height="305" transform="translate(180 7273)" fill="#ffeeeb"/>
      <circle id="Elipse_11393" data-name="Elipse 11393" cx="121.5" cy="121.5" r="121.5" transform="translate(355 7298)" fill="#ffc8bf"/>
      <g id="Grupo_1079042" data-name="Grupo 1079042" transform="translate(149.333 20)">
        <path id="Trazado_827874" data-name="Trazado 827874" d="M379.5,283.582H160.048V106H379.5Zm-218.836-.616h218.22V106.613H160.663Z" transform="translate(69.078 7189.538)" fill="#fff"/>
        <rect id="Rectángulo_378965" data-name="Rectángulo 378965" width="0.585" height="176.969" transform="translate(264.833 7295.843)" fill="#fff"/>
        <rect id="Rectángulo_378966" data-name="Rectángulo 378966" width="0.585" height="176.969" transform="translate(302.227 7295.843)" fill="#fff"/>
        <rect id="Rectángulo_378967" data-name="Rectángulo 378967" width="0.585" height="176.969" transform="translate(339.62 7295.843)" fill="#fff"/>
        <rect id="Rectángulo_378968" data-name="Rectángulo 378968" width="0.585" height="176.969" transform="translate(377.013 7295.843)" fill="#fff"/>
        <rect id="Rectángulo_378969" data-name="Rectángulo 378969" width="0.585" height="176.969" transform="translate(414.406 7295.843)" fill="#fff"/>
        <rect id="Rectángulo_378970" data-name="Rectángulo 378970" width="218.836" height="0.615" transform="translate(229.433 7332.534)" fill="#fff"/>
        <rect id="Rectángulo_378971" data-name="Rectángulo 378971" width="218.836" height="0.615" transform="translate(229.433 7372.579)" fill="#fff"/>
        <rect id="Rectángulo_378972" data-name="Rectángulo 378972" width="218.836" height="0.616" transform="translate(229.433 7412.624)" fill="#fff"/>
        <rect id="Rectángulo_378973" data-name="Rectángulo 378973" width="218.836" height="0.616" transform="translate(229.433 7452.668)" fill="#fff"/>
        <path id="Trazado_827875" data-name="Trazado 827875" d="M208.992,335.346l-1.062-1.005,21.66-22.885,26.265-2.948,20.859-33.85,34.536-19.437,4.928-15.107,21-3.3,13.31,13.47,4.733,1.69,3.838-21.679,6.837-6.834,13.516-9.656,12.222-15.713,1.154.9-12.352,15.882-13.64,9.745L360.418,231l-4.06,22.931-6.677-2.384-13.018-13.174L317.29,241.42l-4.827,14.8-34.7,19.531-21.035,34.135-26.441,2.967Z" transform="translate(35.893 7125.712)" fill="#fff"/>
        <path id="Trazado_827876" data-name="Trazado 827876" d="M391.319,296.237H206.643v-155.3h1.463V294.774H391.319Z" transform="translate(36.785 7165.322)" fill="#fff"/>
        <path id="Trazado_827877" data-name="Trazado 827877" d="M218.307,316.88l-.637-.6L227,306.416l5.091-20.136,20.156-11.444,12.319-61.276,29.658-14.747,7.847-15.944,16.411-6.9,14.589,6.737,6.055-4.081,33.041,4.158,9.328,5.508,13.638-.63.041.877-13.9.641-9.4-5.549-32.534-4.094-6.191,4.172-14.687-6.782-15.751,6.621-7.833,15.916-29.539,14.688L253.03,275.4l-20.178,11.457-5.055,20Z" transform="translate(29.143 7141.043)" fill="#fff"/>
        <path id="Trazado_827878" data-name="Trazado 827878" d="M232.159,480.546l-.211-.852,22.469-5.549.042,0,71.594-3.729,3.438-8.842.057-.062,13.132-14.177,9.329-15.918,19.473,1.4L404.876,418.3l.35.8-33.593,14.6L352.49,432.33l-9.1,15.53-.032.035-13.107,14.151-3.584,9.216-.283.015-71.835,3.741Z" transform="translate(19.247 6973.096)" fill="#fff"/>
        <path id="Trazado_827879" data-name="Trazado 827879" d="M649.059,199.554v41.513l7.9,8.522,2.34.757,3.072-19.339,7.9-8.373,14.263-9.815,3.291-4.674h-8.192l-10.386-5.988Z" transform="translate(-269.834 7124.698)" fill="#fff"/>
        <rect id="Rectángulo_378974" data-name="Rectángulo 378974" width="10.825" height="0.585" transform="translate(218.609 7295.55)" fill="#fff"/>
        <rect id="Rectángulo_378975" data-name="Rectángulo 378975" width="10.825" height="0.585" transform="translate(218.609 7332.55)" fill="#fff"/>
        <rect id="Rectángulo_378976" data-name="Rectángulo 378976" width="10.825" height="0.585" transform="translate(218.609 7372.595)" fill="#fff"/>
        <rect id="Rectángulo_378977" data-name="Rectángulo 378977" width="10.825" height="0.585" transform="translate(218.609 7412.64)" fill="#fff"/>
        <rect id="Rectángulo_378978" data-name="Rectángulo 378978" width="10.825" height="0.585" transform="translate(218.609 7452.684)" fill="#fff"/>
        <path id="Trazado_827880" data-name="Trazado 827880" d="M78.528,128.439H77.042V122.71l-1.774.55v-1.208l3.1-1.111h.159Z" transform="translate(127.835 7179.181)" fill="#fff"/>
        <g id="Grupo_1078892" data-name="Grupo 1078892" transform="translate(180 7263)">
          <g id="Grupo_1078891" data-name="Grupo 1078891" clip-path="url(#clip-path)">
            <path id="Trazado_827881" data-name="Trazado 827881" d="M98.808,125.134a5.037,5.037,0,0,1-.183,1.448,2.741,2.741,0,0,1-.514,1,1.98,1.98,0,0,1-.8.573,3,3,0,0,1-2.062,0,2,2,0,0,1-.8-.573,2.747,2.747,0,0,1-.519-1,4.977,4.977,0,0,1-.185-1.448v-1.3a5.048,5.048,0,0,1,.182-1.448,2.7,2.7,0,0,1,.517-.993,2.019,2.019,0,0,1,.8-.571,2.995,2.995,0,0,1,2.06,0,2.015,2.015,0,0,1,.8.571,2.72,2.72,0,0,1,.519.993,4.977,4.977,0,0,1,.185,1.448Zm-1.486-1.512a4.267,4.267,0,0,0-.069-.838,1.577,1.577,0,0,0-.206-.548.814.814,0,0,0-.332-.3,1.022,1.022,0,0,0-.442-.093,1,1,0,0,0-.44.093.8.8,0,0,0-.327.3,1.609,1.609,0,0,0-.2.548,4.267,4.267,0,0,0-.069.838v1.707a4.241,4.241,0,0,0,.072.849,1.723,1.723,0,0,0,.206.558.79.79,0,0,0,.329.306,1.1,1.1,0,0,0,.885,0,.775.775,0,0,0,.326-.306,1.719,1.719,0,0,0,.2-.558,4.38,4.38,0,0,0,.069-.849Z" transform="translate(-64.973 -83.61)" fill="#fff"/>
            <path id="Trazado_827882" data-name="Trazado 827882" d="M118.5,125.134a5.036,5.036,0,0,1-.183,1.448,2.741,2.741,0,0,1-.514,1,1.98,1.98,0,0,1-.8.573,3,3,0,0,1-2.062,0,2,2,0,0,1-.8-.573,2.747,2.747,0,0,1-.519-1,4.977,4.977,0,0,1-.185-1.448v-1.3a5.036,5.036,0,0,1,.183-1.448,2.69,2.69,0,0,1,.517-.993,2.019,2.019,0,0,1,.8-.571,2.995,2.995,0,0,1,2.06,0,2.015,2.015,0,0,1,.8.571,2.72,2.72,0,0,1,.519.993,4.977,4.977,0,0,1,.185,1.448Zm-1.486-1.512a4.267,4.267,0,0,0-.069-.838,1.577,1.577,0,0,0-.206-.548.813.813,0,0,0-.332-.3,1.021,1.021,0,0,0-.442-.093,1,1,0,0,0-.44.093.8.8,0,0,0-.327.3,1.61,1.61,0,0,0-.2.548,4.267,4.267,0,0,0-.069.838v1.707a4.242,4.242,0,0,0,.072.849,1.723,1.723,0,0,0,.206.558.79.79,0,0,0,.329.306,1.1,1.1,0,0,0,.885,0,.773.773,0,0,0,.326-.306,1.719,1.719,0,0,0,.2-.558,4.379,4.379,0,0,0,.069-.849Z" transform="translate(-78.617 -83.61)" fill="#fff"/>
            <path id="Trazado_827883" data-name="Trazado 827883" d="M133.121,122.171a1.688,1.688,0,0,1,.105-.6,1.408,1.408,0,0,1,.311-.491,1.483,1.483,0,0,1,.507-.334,1.825,1.825,0,0,1,.7-.123,1.879,1.879,0,0,1,.707.123,1.47,1.47,0,0,1,.512.334,1.376,1.376,0,0,1,.309.491,1.729,1.729,0,0,1,.1.6v.4a1.714,1.714,0,0,1-.1.594,1.349,1.349,0,0,1-.309.488,1.5,1.5,0,0,1-.506.332,1.841,1.841,0,0,1-.7.123,1.866,1.866,0,0,1-.7-.123,1.492,1.492,0,0,1-.512-.332,1.38,1.38,0,0,1-.311-.488,1.674,1.674,0,0,1-.105-.594Zm.987.4a.854.854,0,0,0,.039.257.6.6,0,0,0,.321.37.649.649,0,0,0,.283.057.636.636,0,0,0,.278-.057.553.553,0,0,0,.2-.152.655.655,0,0,0,.116-.219.864.864,0,0,0,.038-.257v-.4a.891.891,0,0,0-.038-.26.652.652,0,0,0-.116-.221.549.549,0,0,0-.2-.152.668.668,0,0,0-.285-.057.636.636,0,0,0-.278.057.576.576,0,0,0-.2.152.621.621,0,0,0-.118.221.881.881,0,0,0-.039.26Zm.936,5.091-.725-.391,3.656-5.853.725.391Zm1.656-1.275a1.693,1.693,0,0,1,.106-.6,1.349,1.349,0,0,1,.314-.491,1.528,1.528,0,0,1,.509-.332,1.826,1.826,0,0,1,.7-.123,1.879,1.879,0,0,1,.707.123,1.486,1.486,0,0,1,.512.332,1.342,1.342,0,0,1,.309.491,1.734,1.734,0,0,1,.1.6v.4a1.708,1.708,0,0,1-.1.6,1.379,1.379,0,0,1-.309.488,1.455,1.455,0,0,1-.506.332,1.878,1.878,0,0,1-.7.121,1.9,1.9,0,0,1-.7-.121,1.474,1.474,0,0,1-.514-.332,1.387,1.387,0,0,1-.314-.488,1.668,1.668,0,0,1-.106-.6Zm.987.4a.723.723,0,0,0,.046.257.688.688,0,0,0,.131.219.635.635,0,0,0,.2.152.611.611,0,0,0,.267.056.722.722,0,0,0,.306-.056.5.5,0,0,0,.193-.152.568.568,0,0,0,.1-.219,1.155,1.155,0,0,0,.028-.257v-.4a.854.854,0,0,0-.039-.257.625.625,0,0,0-.118-.219.579.579,0,0,0-.2-.152.724.724,0,0,0-.561,0,.579.579,0,0,0-.2.152.625.625,0,0,0-.118.219.854.854,0,0,0-.039.257Z" transform="translate(-92.26 -83.598)" fill="#fff"/>
            <path id="Trazado_827884" data-name="Trazado 827884" d="M80.554,241.864l-2.9,6.655H76.09l2.9-6.284H75.267v-1.2h5.287Z" transform="translate(-52.164 -167.048)" fill="#fff"/>
            <path id="Trazado_827885" data-name="Trazado 827885" d="M95.881,244.837l.432-3.805h4.2v1.239H97.532l-.185,1.61c.052-.028.115-.057.19-.09a2.387,2.387,0,0,1,.26-.092,2.6,2.6,0,0,1,.319-.072,2.213,2.213,0,0,1,.357-.028,2.547,2.547,0,0,1,.964.172,1.94,1.94,0,0,1,.717.5,2.184,2.184,0,0,1,.448.792,3.378,3.378,0,0,1,.154,1.06,2.927,2.927,0,0,1-.154.951,2.206,2.206,0,0,1-1.258,1.347,2.8,2.8,0,0,1-1.119.206,3.021,3.021,0,0,1-.936-.146,2.5,2.5,0,0,1-.8-.427,2.178,2.178,0,0,1-.566-.687,2.077,2.077,0,0,1-.231-.925h1.471a1.1,1.1,0,0,0,.327.727,1.035,1.035,0,0,0,.733.26.994.994,0,0,0,.481-.108.917.917,0,0,0,.324-.293,1.289,1.289,0,0,0,.185-.44,2.407,2.407,0,0,0,.059-.548,1.9,1.9,0,0,0-.072-.537,1.1,1.1,0,0,0-.221-.417,1,1,0,0,0-.375-.267,1.371,1.371,0,0,0-.535-.1,1.567,1.567,0,0,0-.358.036,1.335,1.335,0,0,0-.27.093,1,1,0,0,0-.208.131c-.06.05-.116.1-.167.152Z" transform="translate(-66.319 -167.048)" fill="#fff"/>
            <path id="Trazado_827886" data-name="Trazado 827886" d="M115.21,242.226a1.7,1.7,0,0,1,.105-.6,1.408,1.408,0,0,1,.311-.491,1.483,1.483,0,0,1,.507-.334,1.825,1.825,0,0,1,.7-.123,1.879,1.879,0,0,1,.707.123,1.469,1.469,0,0,1,.512.334,1.376,1.376,0,0,1,.309.491,1.729,1.729,0,0,1,.1.6v.4a1.711,1.711,0,0,1-.1.594,1.348,1.348,0,0,1-.309.489,1.5,1.5,0,0,1-.506.332,1.84,1.84,0,0,1-.7.123,1.866,1.866,0,0,1-.7-.123,1.5,1.5,0,0,1-.512-.332,1.378,1.378,0,0,1-.311-.489,1.677,1.677,0,0,1-.105-.594Zm.987.4a.855.855,0,0,0,.039.257.6.6,0,0,0,.321.37.65.65,0,0,0,.283.057.637.637,0,0,0,.278-.057.557.557,0,0,0,.2-.152.658.658,0,0,0,.116-.219.864.864,0,0,0,.038-.257v-.4a.891.891,0,0,0-.038-.26.652.652,0,0,0-.116-.221.553.553,0,0,0-.2-.152.673.673,0,0,0-.285-.056.641.641,0,0,0-.278.056.581.581,0,0,0-.2.152.621.621,0,0,0-.118.221.881.881,0,0,0-.039.26Zm.936,5.091-.725-.391,3.656-5.853.725.391Zm1.656-1.275a1.693,1.693,0,0,1,.106-.6,1.35,1.35,0,0,1,.314-.491,1.528,1.528,0,0,1,.509-.332,1.827,1.827,0,0,1,.7-.123,1.879,1.879,0,0,1,.707.123,1.487,1.487,0,0,1,.512.332,1.342,1.342,0,0,1,.309.491,1.734,1.734,0,0,1,.1.6v.4a1.7,1.7,0,0,1-.1.6,1.377,1.377,0,0,1-.309.489,1.455,1.455,0,0,1-.506.332,1.878,1.878,0,0,1-.7.121,1.9,1.9,0,0,1-.7-.121,1.474,1.474,0,0,1-.514-.332,1.385,1.385,0,0,1-.314-.489,1.665,1.665,0,0,1-.106-.6Zm.987.4a.724.724,0,0,0,.046.257.688.688,0,0,0,.131.219.64.64,0,0,0,.2.152.612.612,0,0,0,.267.056.723.723,0,0,0,.306-.056.507.507,0,0,0,.193-.152.568.568,0,0,0,.1-.219,1.157,1.157,0,0,0,.028-.257v-.4a.856.856,0,0,0-.039-.257.626.626,0,0,0-.118-.219.579.579,0,0,0-.2-.152.724.724,0,0,0-.561,0,.579.579,0,0,0-.2.152.626.626,0,0,0-.118.219.856.856,0,0,0-.039.257Z" transform="translate(-79.847 -166.803)" fill="#fff"/>
            <path id="Trazado_827887" data-name="Trazado 827887" d="M75.458,375.564l.432-3.806h4.2V373H77.109l-.185,1.61c.052-.028.115-.057.19-.09a2.324,2.324,0,0,1,.26-.093,2.6,2.6,0,0,1,.319-.072,2.215,2.215,0,0,1,.357-.028,2.547,2.547,0,0,1,.964.172,1.94,1.94,0,0,1,.717.5,2.184,2.184,0,0,1,.448.792,3.378,3.378,0,0,1,.154,1.06,2.927,2.927,0,0,1-.154.951,2.206,2.206,0,0,1-1.258,1.347,2.8,2.8,0,0,1-1.118.206,3.022,3.022,0,0,1-.936-.146,2.506,2.506,0,0,1-.8-.427,2.177,2.177,0,0,1-.566-.687,2.078,2.078,0,0,1-.231-.925h1.471a1.1,1.1,0,0,0,.327.727,1.033,1.033,0,0,0,.733.26.993.993,0,0,0,.481-.108.917.917,0,0,0,.324-.293,1.29,1.29,0,0,0,.185-.44,2.407,2.407,0,0,0,.059-.548,1.9,1.9,0,0,0-.072-.537,1.1,1.1,0,0,0-.221-.417,1,1,0,0,0-.375-.267,1.371,1.371,0,0,0-.535-.1,1.569,1.569,0,0,0-.358.036,1.336,1.336,0,0,0-.27.093.988.988,0,0,0-.208.131c-.06.05-.116.1-.167.152Z" transform="translate(-52.165 -257.649)" fill="#fff"/>
            <path id="Trazado_827888" data-name="Trazado 827888" d="M99.847,375.918a5.037,5.037,0,0,1-.183,1.448,2.741,2.741,0,0,1-.514,1,1.98,1.98,0,0,1-.8.573,3,3,0,0,1-2.062,0,2,2,0,0,1-.8-.573,2.747,2.747,0,0,1-.519-1,4.977,4.977,0,0,1-.185-1.448v-1.3a5.037,5.037,0,0,1,.183-1.448,2.69,2.69,0,0,1,.517-.993,2.019,2.019,0,0,1,.8-.571,2.994,2.994,0,0,1,2.06,0,2.015,2.015,0,0,1,.8.571,2.72,2.72,0,0,1,.519.993,4.977,4.977,0,0,1,.185,1.448Zm-1.486-1.512a4.267,4.267,0,0,0-.069-.838,1.578,1.578,0,0,0-.206-.548.812.812,0,0,0-.332-.3,1.017,1.017,0,0,0-.442-.093,1,1,0,0,0-.44.093.8.8,0,0,0-.327.3,1.609,1.609,0,0,0-.2.548,4.268,4.268,0,0,0-.069.838v1.707a4.242,4.242,0,0,0,.072.849,1.716,1.716,0,0,0,.206.558.788.788,0,0,0,.329.306,1.1,1.1,0,0,0,.885,0,.773.773,0,0,0,.326-.306,1.719,1.719,0,0,0,.2-.558,4.38,4.38,0,0,0,.069-.849Z" transform="translate(-65.693 -257.417)" fill="#fff"/>
            <path id="Trazado_827889" data-name="Trazado 827889" d="M114.473,372.954a1.7,1.7,0,0,1,.105-.6,1.408,1.408,0,0,1,.311-.491,1.483,1.483,0,0,1,.507-.334,1.825,1.825,0,0,1,.7-.123,1.879,1.879,0,0,1,.707.123,1.47,1.47,0,0,1,.512.334,1.376,1.376,0,0,1,.309.491,1.729,1.729,0,0,1,.1.6v.4a1.711,1.711,0,0,1-.1.594,1.348,1.348,0,0,1-.309.489,1.5,1.5,0,0,1-.506.332,1.839,1.839,0,0,1-.7.123,1.866,1.866,0,0,1-.7-.123,1.5,1.5,0,0,1-.512-.332,1.379,1.379,0,0,1-.311-.489,1.678,1.678,0,0,1-.105-.594Zm.987.4a.854.854,0,0,0,.039.257.6.6,0,0,0,.321.37.649.649,0,0,0,.283.057.637.637,0,0,0,.278-.057.556.556,0,0,0,.2-.152.657.657,0,0,0,.116-.219.864.864,0,0,0,.038-.257v-.4a.891.891,0,0,0-.038-.26.651.651,0,0,0-.116-.221.553.553,0,0,0-.2-.152.673.673,0,0,0-.285-.056.641.641,0,0,0-.278.056.58.58,0,0,0-.2.152.621.621,0,0,0-.118.221.881.881,0,0,0-.039.26Zm.936,5.091-.725-.391,3.656-5.852.725.391Zm1.656-1.275a1.693,1.693,0,0,1,.106-.6,1.349,1.349,0,0,1,.314-.491,1.528,1.528,0,0,1,.509-.332,1.827,1.827,0,0,1,.7-.123,1.879,1.879,0,0,1,.707.123,1.486,1.486,0,0,1,.512.332,1.342,1.342,0,0,1,.309.491,1.734,1.734,0,0,1,.1.6v.4a1.706,1.706,0,0,1-.1.6,1.377,1.377,0,0,1-.309.489,1.455,1.455,0,0,1-.506.332,1.878,1.878,0,0,1-.7.121,1.9,1.9,0,0,1-.7-.121,1.473,1.473,0,0,1-.514-.332,1.385,1.385,0,0,1-.314-.489,1.666,1.666,0,0,1-.106-.6Zm.987.4a.724.724,0,0,0,.046.257.688.688,0,0,0,.131.219.64.64,0,0,0,.2.152.612.612,0,0,0,.267.056.723.723,0,0,0,.306-.056.507.507,0,0,0,.193-.152.568.568,0,0,0,.1-.219,1.157,1.157,0,0,0,.028-.257v-.4a.856.856,0,0,0-.039-.257.626.626,0,0,0-.118-.219.579.579,0,0,0-.2-.152.724.724,0,0,0-.561,0,.579.579,0,0,0-.2.152.626.626,0,0,0-.118.219.856.856,0,0,0-.039.257Z" transform="translate(-79.336 -257.405)" fill="#fff"/>
            <path id="Trazado_827890" data-name="Trazado 827890" d="M80.55,508.864H75.417v-1.018l2.422-2.582q.272-.3.46-.545a3.986,3.986,0,0,0,.3-.452,1.735,1.735,0,0,0,.165-.383,1.3,1.3,0,0,0,.049-.342,1.144,1.144,0,0,0-.252-.784.909.909,0,0,0-.72-.285,1.087,1.087,0,0,0-.465.1.956.956,0,0,0-.34.262,1.177,1.177,0,0,0-.208.4,1.684,1.684,0,0,0-.072.5H75.268a2.528,2.528,0,0,1,.18-.951,2.279,2.279,0,0,1,.52-.782,2.49,2.49,0,0,1,.82-.53,2.854,2.854,0,0,1,1.083-.2,3.415,3.415,0,0,1,1.046.147,2.118,2.118,0,0,1,.764.419,1.753,1.753,0,0,1,.467.669,2.365,2.365,0,0,1,.16.889,2.238,2.238,0,0,1-.118.725,3.411,3.411,0,0,1-.334.7,5.747,5.747,0,0,1-.522.707q-.306.357-.681.743l-1.322,1.394h3.22Z" transform="translate(-52.165 -347.41)" fill="#fff"/>
            <path id="Trazado_827891" data-name="Trazado 827891" d="M95.73,505.415l.432-3.806h4.2v1.239H97.381l-.185,1.61c.052-.028.115-.057.19-.09a2.312,2.312,0,0,1,.26-.093,2.611,2.611,0,0,1,.319-.072,2.215,2.215,0,0,1,.357-.028,2.547,2.547,0,0,1,.964.172,1.941,1.941,0,0,1,.717.5,2.179,2.179,0,0,1,.448.792,3.375,3.375,0,0,1,.154,1.059,2.93,2.93,0,0,1-.154.951,2.206,2.206,0,0,1-1.258,1.347,2.8,2.8,0,0,1-1.119.206,3.021,3.021,0,0,1-.936-.146,2.5,2.5,0,0,1-.8-.427,2.184,2.184,0,0,1-.566-.686,2.08,2.08,0,0,1-.231-.926h1.471a1.1,1.1,0,0,0,.327.727,1.034,1.034,0,0,0,.733.26.993.993,0,0,0,.481-.108.917.917,0,0,0,.324-.293,1.3,1.3,0,0,0,.185-.44,2.425,2.425,0,0,0,.059-.548,1.9,1.9,0,0,0-.072-.538,1.1,1.1,0,0,0-.221-.417,1,1,0,0,0-.375-.267,1.372,1.372,0,0,0-.535-.1,1.569,1.569,0,0,0-.358.036,1.345,1.345,0,0,0-.27.093,1,1,0,0,0-.208.131c-.06.05-.116.1-.167.152Z" transform="translate(-66.215 -347.643)" fill="#fff"/>
            <path id="Trazado_827892" data-name="Trazado 827892" d="M115.059,502.8a1.7,1.7,0,0,1,.105-.6,1.408,1.408,0,0,1,.311-.491,1.483,1.483,0,0,1,.507-.334,1.825,1.825,0,0,1,.7-.123,1.881,1.881,0,0,1,.707.123,1.471,1.471,0,0,1,.511.334,1.376,1.376,0,0,1,.309.491,1.73,1.73,0,0,1,.1.6v.4a1.714,1.714,0,0,1-.1.594,1.349,1.349,0,0,1-.309.488,1.5,1.5,0,0,1-.506.332,1.84,1.84,0,0,1-.7.123,1.866,1.866,0,0,1-.7-.123,1.492,1.492,0,0,1-.512-.332,1.38,1.38,0,0,1-.311-.488,1.681,1.681,0,0,1-.105-.594Zm.987.4a.855.855,0,0,0,.039.257.6.6,0,0,0,.321.37.65.65,0,0,0,.283.057.638.638,0,0,0,.278-.057.554.554,0,0,0,.2-.152.657.657,0,0,0,.116-.219.864.864,0,0,0,.038-.257v-.4a.891.891,0,0,0-.038-.26.652.652,0,0,0-.116-.221.553.553,0,0,0-.2-.152.673.673,0,0,0-.285-.056.641.641,0,0,0-.278.056.581.581,0,0,0-.2.152.621.621,0,0,0-.118.221.881.881,0,0,0-.039.26Zm.936,5.091-.725-.391,3.656-5.853.725.391Zm1.656-1.275a1.694,1.694,0,0,1,.106-.6,1.349,1.349,0,0,1,.314-.491,1.528,1.528,0,0,1,.509-.332,1.827,1.827,0,0,1,.7-.123,1.879,1.879,0,0,1,.707.123,1.486,1.486,0,0,1,.512.332,1.342,1.342,0,0,1,.309.491,1.734,1.734,0,0,1,.1.6v.4a1.708,1.708,0,0,1-.1.6,1.378,1.378,0,0,1-.309.488,1.454,1.454,0,0,1-.506.332,1.878,1.878,0,0,1-.7.121,1.9,1.9,0,0,1-.7-.121,1.473,1.473,0,0,1-.514-.332,1.386,1.386,0,0,1-.314-.488,1.668,1.668,0,0,1-.106-.6Zm.987.4a.724.724,0,0,0,.046.257.688.688,0,0,0,.131.219.635.635,0,0,0,.2.152.611.611,0,0,0,.267.056.722.722,0,0,0,.306-.056.5.5,0,0,0,.193-.152.568.568,0,0,0,.1-.219,1.156,1.156,0,0,0,.028-.257v-.4a.858.858,0,0,0-.039-.257.626.626,0,0,0-.118-.219.579.579,0,0,0-.2-.152.725.725,0,0,0-.561,0,.58.58,0,0,0-.2.152.626.626,0,0,0-.118.219.857.857,0,0,0-.039.257Z" transform="translate(-79.742 -347.398)" fill="#fff"/>
            <path id="Trazado_827893" data-name="Trazado 827893" d="M78.528,661.931H77.042V656.2l-1.774.55v-1.208l3.1-1.111h.159Z" transform="translate(-52.165 -453.558)" fill="#fff"/>
            <path id="Trazado_827894" data-name="Trazado 827894" d="M93.748,655.662a1.688,1.688,0,0,1,.105-.6,1.408,1.408,0,0,1,.311-.491,1.484,1.484,0,0,1,.507-.334,1.826,1.826,0,0,1,.7-.123,1.88,1.88,0,0,1,.707.123,1.471,1.471,0,0,1,.512.334,1.377,1.377,0,0,1,.309.491,1.729,1.729,0,0,1,.1.6v.4a1.714,1.714,0,0,1-.1.594,1.349,1.349,0,0,1-.309.488,1.5,1.5,0,0,1-.506.332,1.84,1.84,0,0,1-.7.123,1.866,1.866,0,0,1-.7-.123,1.493,1.493,0,0,1-.512-.332,1.38,1.38,0,0,1-.311-.488,1.674,1.674,0,0,1-.105-.594Zm.987.4a.854.854,0,0,0,.039.257.6.6,0,0,0,.321.37.649.649,0,0,0,.283.057.637.637,0,0,0,.278-.057.557.557,0,0,0,.2-.152.659.659,0,0,0,.116-.219.864.864,0,0,0,.038-.257v-.4a.891.891,0,0,0-.038-.26.651.651,0,0,0-.116-.221.553.553,0,0,0-.2-.152.672.672,0,0,0-.285-.056.64.64,0,0,0-.278.056.581.581,0,0,0-.2.152.62.62,0,0,0-.118.221.88.88,0,0,0-.039.26Zm.936,5.091-.725-.391,3.656-5.853.725.391Zm1.656-1.275a1.693,1.693,0,0,1,.106-.6,1.35,1.35,0,0,1,.314-.491,1.528,1.528,0,0,1,.509-.332,1.825,1.825,0,0,1,.7-.123,1.878,1.878,0,0,1,.707.123,1.486,1.486,0,0,1,.512.332,1.342,1.342,0,0,1,.309.491,1.734,1.734,0,0,1,.1.6v.4a1.708,1.708,0,0,1-.1.6,1.379,1.379,0,0,1-.309.488,1.455,1.455,0,0,1-.506.332,1.879,1.879,0,0,1-.7.121,1.9,1.9,0,0,1-.7-.121,1.474,1.474,0,0,1-.514-.332,1.387,1.387,0,0,1-.314-.488,1.667,1.667,0,0,1-.106-.6Zm.987.4a.723.723,0,0,0,.046.257.687.687,0,0,0,.131.219.641.641,0,0,0,.2.152.611.611,0,0,0,.267.057.722.722,0,0,0,.306-.057.507.507,0,0,0,.193-.152.568.568,0,0,0,.1-.219,1.156,1.156,0,0,0,.028-.257v-.4a.858.858,0,0,0-.039-.257.625.625,0,0,0-.118-.219.579.579,0,0,0-.2-.152.724.724,0,0,0-.561,0,.579.579,0,0,0-.2.152.625.625,0,0,0-.118.219.858.858,0,0,0-.039.257Z" transform="translate(-64.973 -453.338)" fill="#fff"/>
            <rect id="Rectángulo_378979" data-name="Rectángulo 378979" width="114.684" height="13.022" transform="translate(49.434 216.08)" fill="#fff"/>
            <rect id="Rectángulo_378980" data-name="Rectángulo 378980" width="57.342" height="13.022" transform="translate(169.231 216.08)" fill="#fff"/>
            <rect id="Rectángulo_378981" data-name="Rectángulo 378981" width="15.73" height="13.022" transform="translate(252.539 216.08)" fill="#fff"/>
            <rect id="Rectángulo_378982" data-name="Rectángulo 378982" width="9.362" height="13.022" transform="translate(240.769 216.08)" fill="#fff"/>
            <path id="Trazado_827895" data-name="Trazado 827895" d="M311.348,153.669a11.718,11.718,0,1,1,11.718-11.718,11.731,11.731,0,0,1-11.718,11.718m0-23.129a11.411,11.411,0,1,0,11.411,11.411,11.424,11.424,0,0,0-11.411-11.411" transform="translate(-207.66 -90.259)" fill="#fff"/>
            <path id="Trazado_827896" data-name="Trazado 827896" d="M313.774,133.733c-.218,0-.433.009-.648.021l.648,10.622-9.679-4.428a10.643,10.643,0,1,0,9.679-6.216" transform="translate(-210.086 -92.684)" fill="#fff"/>
            <path id="Trazado_827897" data-name="Trazado 827897" d="M310.9,127.5q.422,5.41.844,10.82l-9.822-4.758A10.219,10.219,0,0,1,310.9,127.5" transform="translate(-209.252 -88.365)" fill="#fff"/>
            <rect id="Rectángulo_378983" data-name="Rectángulo 378983" width="5.116" height="25.053" transform="translate(259.368 161.248)" fill="#fff"/>
            <rect id="Rectángulo_378984" data-name="Rectángulo 378984" width="5.116" height="20.588" transform="translate(252.308 165.713)" fill="#fff"/>
            <rect id="Rectángulo_378985" data-name="Rectángulo 378985" width="5.116" height="26.643" transform="translate(245.248 159.659)" fill="#fff"/>
            <rect id="Rectángulo_378986" data-name="Rectángulo 378986" width="5.116" height="13.901" transform="translate(238.189 172.4)" fill="#fff"/>
            <path id="Trazado_827898" data-name="Trazado 827898" d="M808.832,637.477a2.916,2.916,0,1,1-2.916-2.916,2.916,2.916,0,0,1,2.916,2.916" transform="translate(-556.524 -439.786)" fill="#fff"/>
            <path id="Trazado_827899" data-name="Trazado 827899" d="M203.339,135.711a4.169,4.169,0,1,1-4.169-4.169,4.169,4.169,0,0,1,4.169,4.169" transform="translate(-135.146 -91.166)" fill="#fff"/>
            <path id="Trazado_827900" data-name="Trazado 827900" d="M490.51,192.633a2.967,2.967,0,1,1-2.968-2.967,2.967,2.967,0,0,1,2.968,2.967" transform="translate(-335.838 -131.449)" fill="#fff"/>
            <path id="Trazado_827901" data-name="Trazado 827901" d="M620.679,457.154a2.839,2.839,0,1,1-2.839-2.839,2.839,2.839,0,0,1,2.839,2.839" transform="translate(-426.229 -314.866)" fill="#fff"/>
            <path id="Trazado_827902" data-name="Trazado 827902" d="M610.186,455.784a6.186,6.186,0,1,1,6.185-6.186,6.193,6.193,0,0,1-6.185,6.186m0-11.451a5.265,5.265,0,1,0,5.265,5.265,5.271,5.271,0,0,0-5.265-5.265" transform="translate(-418.606 -307.31)" fill="#fff"/>
            <rect id="Rectángulo_378987" data-name="Rectángulo 378987" width="0.921" height="11.666" transform="translate(213.684 48.702)" fill="#fff"/>
            <path id="Trazado_827903" data-name="Trazado 827903" d="M697.666,161l13.2,2.353-13.2,2.764Z" transform="translate(-483.521 -111.582)" fill="#fff"/>
          </g>
        </g>
        <g id="Grupo_1078909" data-name="Grupo 1078909" transform="translate(180 7263)">
          <g id="Grupo_1078908" data-name="Grupo 1078908" clip-path="url(#clip-path)">
            <path id="Trazado_827904" data-name="Trazado 827904" d="M114.575,538.892a11.043,11.043,0,1,1,21.525-4.922,5.809,5.809,0,0,1,9.288,4.653c0,.1,0,.2-.008.3a8.62,8.62,0,0,1,6.466,8.346h0a8.616,8.616,0,0,1-8.616,8.616H116.614A8.616,8.616,0,0,1,108,547.265h0a8.619,8.619,0,0,1,6.577-8.373" transform="translate(-74.849 -363.951)" fill="#f0f0f0"/>
            <g id="Grupo_1078895" data-name="Grupo 1078895" transform="translate(111.913 40.884)" opacity="0.25">
              <g id="Grupo_1078894" data-name="Grupo 1078894">
                <g id="Grupo_1078893" data-name="Grupo 1078893" clip-path="url(#clip-path-3)">
                  <path id="Trazado_827905" data-name="Trazado 827905" d="M461.444,181.906a.9.9,0,0,0-.1-.254.661.661,0,0,0-.169-.2.6.6,0,0,0-.238-.111.757.757,0,0,0-.572.124.6.6,0,0,0-.171.2.655.655,0,0,0-.072.249.9.9,0,0,0,.017.271l.089.409a.755.755,0,0,0,.1.252.71.71,0,0,0,.182.194.669.669,0,0,0,.241.11.639.639,0,0,0,.285,0,.75.75,0,0,0,.3-.126.524.524,0,0,0,.163-.2.6.6,0,0,0,.054-.245,1.2,1.2,0,0,0-.028-.269Z" transform="translate(-430.803 -166.556)" fill="#380e1f"/>
                  <path id="Trazado_827906" data-name="Trazado 827906" d="M400.168,133.2,364.6,146.438c4.038,11.231,16.769,16.245,26.4,11.686,8.627-4.085,13.067-15.05,9.166-24.925M382.1,151.8a2.3,2.3,0,0,1-.986,1.653,2.927,2.927,0,0,1-1.1.457,3.149,3.149,0,0,1-.987.057,2.61,2.61,0,0,1-.913-.258,2.276,2.276,0,0,1-.729-.576,2.165,2.165,0,0,1-.441-.894l1.5-.325a1.146,1.146,0,0,0,.494.671,1.082,1.082,0,0,0,.805.1,1.034,1.034,0,0,0,.467-.216.96.96,0,0,0,.266-.371,1.356,1.356,0,0,0,.092-.49,2.519,2.519,0,0,0-.061-.572,1.971,1.971,0,0,0-.192-.533,1.153,1.153,0,0,0-.318-.376,1.043,1.043,0,0,0-.442-.19,1.431,1.431,0,0,0-.567.021,1.644,1.644,0,0,0-.357.116,1.411,1.411,0,0,0-.255.154,1.057,1.057,0,0,0-.184.18q-.075.1-.137.192l-1.272-.038-.4-3.98,4.283-.927.274,1.265-3.039.657.167,1.684c.046-.039.1-.084.174-.134a2.4,2.4,0,0,1,.245-.152,2.678,2.678,0,0,1,.31-.144,2.308,2.308,0,0,1,.359-.108,2.659,2.659,0,0,1,1.022-.037,2.017,2.017,0,0,1,.842.348,2.273,2.273,0,0,1,.631.709,3.524,3.524,0,0,1,.392,1.047,3.059,3.059,0,0,1,.052,1.005m6.168-1.335a2.3,2.3,0,0,1-.986,1.653,2.93,2.93,0,0,1-1.1.457,3.151,3.151,0,0,1-.988.057,2.618,2.618,0,0,1-.913-.258,2.279,2.279,0,0,1-.729-.576,2.17,2.17,0,0,1-.441-.894l1.5-.325a1.148,1.148,0,0,0,.494.671,1.081,1.081,0,0,0,.805.1,1.041,1.041,0,0,0,.467-.216.962.962,0,0,0,.266-.371,1.355,1.355,0,0,0,.092-.49,2.529,2.529,0,0,0-.06-.572,1.991,1.991,0,0,0-.192-.533,1.152,1.152,0,0,0-.318-.376,1.047,1.047,0,0,0-.442-.19,1.437,1.437,0,0,0-.567.021,1.616,1.616,0,0,0-.357.116,1.4,1.4,0,0,0-.255.154,1.033,1.033,0,0,0-.184.18q-.075.1-.137.192l-1.272-.038-.4-3.98,4.283-.927.274,1.265-3.039.658.166,1.684q.07-.059.174-.134a2.511,2.511,0,0,1,.245-.152,2.628,2.628,0,0,1,.31-.144,2.245,2.245,0,0,1,.359-.108,2.654,2.654,0,0,1,1.022-.037,2.02,2.02,0,0,1,.842.348,2.278,2.278,0,0,1,.632.709,3.531,3.531,0,0,1,.391,1.047,3.059,3.059,0,0,1,.053,1m1.434-3.288a1.56,1.56,0,0,1-.6-.226,1.436,1.436,0,0,1-.425-.43,1.75,1.75,0,0,1-.239-.583l-.087-.4a1.758,1.758,0,0,1-.025-.635,1.462,1.462,0,0,1,.209-.57,1.549,1.549,0,0,1,.443-.453,1.9,1.9,0,0,1,.684-.28,1.965,1.965,0,0,1,.749-.03,1.537,1.537,0,0,1,.6.228,1.436,1.436,0,0,1,.424.433,1.8,1.8,0,0,1,.237.589l.087.4a1.786,1.786,0,0,1,.026.629,1.405,1.405,0,0,1-.207.567,1.57,1.57,0,0,1-.444.45,1.92,1.92,0,0,1-.689.281,1.946,1.946,0,0,1-.744.029m1,3.294,2.439-6.781.827.239-2.439,6.781Zm5.673-1.107a1.444,1.444,0,0,1-.207.567,1.517,1.517,0,0,1-.444.45,1.957,1.957,0,0,1-.69.278,1.986,1.986,0,0,1-.743.032,1.533,1.533,0,0,1-.6-.225,1.448,1.448,0,0,1-.428-.429,1.741,1.741,0,0,1-.239-.586l-.089-.409a1.773,1.773,0,0,1-.024-.632,1.417,1.417,0,0,1,.211-.57,1.6,1.6,0,0,1,.447-.451,1.9,1.9,0,0,1,.684-.28,1.965,1.965,0,0,1,.749-.03,1.559,1.559,0,0,1,.6.226,1.4,1.4,0,0,1,.424.433,1.808,1.808,0,0,1,.237.586l.089.409a1.778,1.778,0,0,1,.027.632" transform="translate(-364.604 -133.198)" fill="#380e1f"/>
                  <path id="Trazado_827907" data-name="Trazado 827907" d="M446.505,170.466a.922.922,0,0,0-.1-.257.676.676,0,0,0-.167-.2.578.578,0,0,0-.236-.111.7.7,0,0,0-.3.005.667.667,0,0,0-.271.119.608.608,0,0,0-.169.2.649.649,0,0,0-.072.252.925.925,0,0,0,.018.273l.087.4a.9.9,0,0,0,.1.254.632.632,0,0,0,.41.307.677.677,0,0,0,.3,0,.669.669,0,0,0,.271-.119.585.585,0,0,0,.166-.2.681.681,0,0,0,.07-.249.9.9,0,0,0-.017-.271Z" transform="translate(-420.453 -158.623)" fill="#380e1f"/>
                </g>
              </g>
            </g>
            <path id="Trazado_827908" data-name="Trazado 827908" d="M504.414,435.32a35.755,35.755,0,1,0-69.693-15.935,18.809,18.809,0,0,0-30.07,15.065q0,.482.024.958a27.9,27.9,0,0,0,6.964,54.92H497.81a27.9,27.9,0,0,0,6.6-55.008" transform="translate(-265.953 -270.842)" fill="#f0f0f0"/>
            <g id="Grupo_1078898" data-name="Grupo 1078898" transform="translate(57.267 254.552)" opacity="0.15">
              <g id="Grupo_1078897" data-name="Grupo 1078897">
                <g id="Grupo_1078896" data-name="Grupo 1078896" clip-path="url(#clip-path-4)">
                  <path id="Trazado_827909" data-name="Trazado 827909" d="M368.206,835.615c0,3.481-40.661,6.3-90.818,6.3s-90.819-2.822-90.819-6.3,40.661-6.3,90.819-6.3,90.818,2.822,90.818,6.3" transform="translate(-186.569 -829.312)" fill="#ffc8bf"/>
                </g>
              </g>
            </g>
            <path id="Trazado_827910" data-name="Trazado 827910" d="M333.153,470.465a45.135,45.135,0,1,0-87.976-20.115,23.743,23.743,0,0,0-37.959,19.017q0,.608.031,1.209a35.222,35.222,0,0,0,8.79,69.327H324.816a35.22,35.22,0,0,0,8.337-69.438" transform="translate(-125.32 -287.105)" fill="#fff"/>
            <g id="Grupo_1078901" data-name="Grupo 1078901" transform="translate(184.52 29.749)" opacity="0.25">
              <g id="Grupo_1078900" data-name="Grupo 1078900">
                <g id="Grupo_1078899" data-name="Grupo 1078899" clip-path="url(#clip-path-5)">
                  <path id="Trazado_827911" data-name="Trazado 827911" d="M621.326,104.363a5.977,5.977,0,1,0-11.651-2.664,3.144,3.144,0,0,0-5.027,2.518c0,.054,0,.107,0,.16a4.665,4.665,0,0,0,1.164,9.181h14.406a4.664,4.664,0,0,0,1.1-9.2" transform="translate(-601.152 -96.919)" fill="#380e1f"/>
                </g>
              </g>
            </g>
            <g id="Grupo_1078904" data-name="Grupo 1078904" transform="translate(201.458 71.3)" opacity="0.25">
              <g id="Grupo_1078903" data-name="Grupo 1078903">
                <g id="Grupo_1078902" data-name="Grupo 1078902" clip-path="url(#clip-path-6)">
                  <path id="Trazado_827912" data-name="Trazado 827912" d="M696.835,247.233a12,12,0,1,0-23.391-5.348,6.313,6.313,0,0,0-10.093,5.056q0,.162.008.322A9.365,9.365,0,0,0,665.7,265.7h28.922a9.364,9.364,0,0,0,2.216-18.462" transform="translate(-656.333 -232.289)" fill="#380e1f"/>
                </g>
              </g>
            </g>
            <g id="Grupo_1078907" data-name="Grupo 1078907" transform="translate(35.991 74.032)" opacity="0.25">
              <g id="Grupo_1078906" data-name="Grupo 1078906">
                <g id="Grupo_1078905" data-name="Grupo 1078905" clip-path="url(#clip-path-7)">
                  <path id="Trazado_827913" data-name="Trazado 827913" d="M157.777,256.143a12.007,12.007,0,1,0-23.4-5.351,6.316,6.316,0,0,0-10.1,5.059c0,.108,0,.215.008.322a9.37,9.37,0,0,0,2.339,18.442H155.56a9.369,9.369,0,0,0,2.218-18.472" transform="translate(-117.255 -241.191)" fill="#380e1f"/>
                </g>
              </g>
            </g>
            <path id="Trazado_827914" data-name="Trazado 827914" d="M627.309,97.56A5.977,5.977,0,1,0,615.658,94.9a3.145,3.145,0,0,0-5.027,2.518q0,.081,0,.16a4.665,4.665,0,0,0,1.164,9.181H626.2a4.664,4.664,0,0,0,1.1-9.2" transform="translate(-420.778 -62.455)" fill="#fff"/>
            <path id="Trazado_827915" data-name="Trazado 827915" d="M709.593,238.4a12,12,0,1,0-23.391-5.348,6.313,6.313,0,0,0-10.093,5.056q0,.162.008.322a9.365,9.365,0,0,0,2.337,18.433h28.922a9.364,9.364,0,0,0,2.216-18.462" transform="translate(-463.717 -154.87)" fill="#fff"/>
            <path id="Trazado_827916" data-name="Trazado 827916" d="M142.289,242.436a12.007,12.007,0,1,0-23.4-5.351,6.316,6.316,0,0,0-10.1,5.059c0,.108,0,.215.008.322a9.37,9.37,0,0,0,2.338,18.442h28.937a9.369,9.369,0,0,0,2.218-18.472" transform="translate(-70.53 -157.659)" fill="#fff"/>
            <path id="Trazado_827917" data-name="Trazado 827917" d="M365.212,121.779a25.864,25.864,0,1,1,25.864-25.864,25.893,25.893,0,0,1-25.864,25.864m0-47.087a21.223,21.223,0,1,0,21.223,21.223,21.247,21.247,0,0,0-21.223-21.223" transform="translate(-235.187 -48.549)" fill="#fff"/>
            <path id="Trazado_827918" data-name="Trazado 827918" d="M478.848,230.437l25.51,36.829a6.288,6.288,0,0,0,8.256-7.971L481.359,227.55l-2.511,2.887" transform="translate(-331.868 -157.705)" fill="#fff"/>
            <path id="Trazado_827919" data-name="Trazado 827919" d="M298.154,351.109a9.516,9.516,0,1,1,9.516-9.516,9.526,9.526,0,0,1-9.516,9.516m0-17.324a7.809,7.809,0,1,0,7.808,7.808,7.817,7.817,0,0,0-7.808-7.808" transform="translate(-200.042 -230.149)" fill="#fff"/>
            <path id="Trazado_827920" data-name="Trazado 827920" d="M270.96,391.087l-9.386,13.55a2.313,2.313,0,0,1-3.038-2.933l11.5-11.679.924,1.062" transform="translate(-179.086 -270.309)" fill="#fff"/>
            <path id="Trazado_827921" data-name="Trazado 827921" d="M458.913,176.484a.9.9,0,0,0-.1-.254.661.661,0,0,0-.169-.2.6.6,0,0,0-.238-.111.756.756,0,0,0-.572.124.6.6,0,0,0-.171.2.655.655,0,0,0-.072.249.9.9,0,0,0,.017.271l.089.409a.755.755,0,0,0,.1.252.709.709,0,0,0,.182.194.668.668,0,0,0,.241.11.64.64,0,0,0,.285,0,.751.751,0,0,0,.3-.126.524.524,0,0,0,.163-.2.6.6,0,0,0,.054-.245,1.206,1.206,0,0,0-.028-.269Z" transform="translate(-317.136 -121.914)" fill="#fff"/>
            <path id="Trazado_827922" data-name="Trazado 827922" d="M397.637,127.776l-35.564,13.24c4.038,11.231,16.769,16.245,26.4,11.686,8.627-4.085,13.067-15.05,9.166-24.925m-18.07,18.607a2.3,2.3,0,0,1-.986,1.653,2.926,2.926,0,0,1-1.1.457,3.147,3.147,0,0,1-.987.057,2.609,2.609,0,0,1-.913-.258,2.28,2.28,0,0,1-.729-.576,2.168,2.168,0,0,1-.44-.894l1.5-.325a1.147,1.147,0,0,0,.494.671,1.082,1.082,0,0,0,.805.1,1.038,1.038,0,0,0,.467-.216.956.956,0,0,0,.266-.371,1.348,1.348,0,0,0,.092-.49,2.519,2.519,0,0,0-.061-.572,1.969,1.969,0,0,0-.192-.533,1.153,1.153,0,0,0-.318-.376,1.04,1.04,0,0,0-.442-.19,1.431,1.431,0,0,0-.567.021,1.627,1.627,0,0,0-.357.116,1.415,1.415,0,0,0-.255.154,1.046,1.046,0,0,0-.184.18q-.075.1-.137.192l-1.272-.038-.4-3.98,4.283-.927.274,1.265-3.039.658.167,1.684c.046-.039.1-.084.174-.134a2.411,2.411,0,0,1,.245-.152,2.692,2.692,0,0,1,.309-.144,2.323,2.323,0,0,1,.359-.108,2.654,2.654,0,0,1,1.022-.037,2.017,2.017,0,0,1,.842.348,2.273,2.273,0,0,1,.631.709,3.526,3.526,0,0,1,.392,1.047,3.058,3.058,0,0,1,.052,1.005m6.168-1.335a2.3,2.3,0,0,1-.986,1.653,2.924,2.924,0,0,1-1.1.457,3.16,3.16,0,0,1-.988.057,2.618,2.618,0,0,1-.913-.258,2.279,2.279,0,0,1-.729-.576,2.17,2.17,0,0,1-.441-.894l1.5-.325a1.149,1.149,0,0,0,.494.671,1.082,1.082,0,0,0,.805.1,1.04,1.04,0,0,0,.467-.216.962.962,0,0,0,.266-.371,1.357,1.357,0,0,0,.092-.49,2.533,2.533,0,0,0-.06-.572,1.984,1.984,0,0,0-.192-.533,1.148,1.148,0,0,0-.318-.376,1.048,1.048,0,0,0-.442-.19,1.438,1.438,0,0,0-.567.021,1.615,1.615,0,0,0-.357.116,1.4,1.4,0,0,0-.255.154,1.035,1.035,0,0,0-.184.18q-.075.1-.137.192l-1.272-.038-.4-3.98,4.283-.927.274,1.265-3.039.658.166,1.684q.07-.059.174-.134a2.515,2.515,0,0,1,.245-.152,2.63,2.63,0,0,1,.31-.144,2.244,2.244,0,0,1,.359-.108,2.654,2.654,0,0,1,1.022-.037,2.02,2.02,0,0,1,.842.348,2.278,2.278,0,0,1,.632.709,3.534,3.534,0,0,1,.391,1.047,3.066,3.066,0,0,1,.053,1m1.434-3.288a1.56,1.56,0,0,1-.6-.226,1.435,1.435,0,0,1-.425-.43,1.752,1.752,0,0,1-.239-.583l-.087-.4a1.757,1.757,0,0,1-.025-.635,1.461,1.461,0,0,1,.209-.57,1.55,1.55,0,0,1,.443-.453,1.9,1.9,0,0,1,.684-.28,1.964,1.964,0,0,1,.749-.03,1.532,1.532,0,0,1,.6.228,1.436,1.436,0,0,1,.424.433,1.805,1.805,0,0,1,.237.589l.087.4a1.787,1.787,0,0,1,.026.629,1.4,1.4,0,0,1-.207.567,1.57,1.57,0,0,1-.444.45,1.925,1.925,0,0,1-.689.281,1.952,1.952,0,0,1-.744.029m1,3.294,2.439-6.781.827.239L389,145.293Zm5.673-1.107a1.441,1.441,0,0,1-.207.567,1.515,1.515,0,0,1-.444.451,1.958,1.958,0,0,1-.69.278,1.986,1.986,0,0,1-.743.032,1.534,1.534,0,0,1-.6-.225,1.452,1.452,0,0,1-.428-.429,1.741,1.741,0,0,1-.239-.586l-.089-.409a1.775,1.775,0,0,1-.024-.632,1.416,1.416,0,0,1,.211-.571,1.6,1.6,0,0,1,.447-.451,1.9,1.9,0,0,1,.684-.28,1.965,1.965,0,0,1,.749-.03,1.559,1.559,0,0,1,.6.226,1.4,1.4,0,0,1,.424.433,1.816,1.816,0,0,1,.237.586l.089.409a1.779,1.779,0,0,1,.027.632" transform="translate(-250.937 -88.556)" fill="#fff"/>
            <path id="Trazado_827923" data-name="Trazado 827923" d="M443.973,165.044a.919.919,0,0,0-.1-.257.676.676,0,0,0-.167-.2.579.579,0,0,0-.236-.111.7.7,0,0,0-.3.005.667.667,0,0,0-.271.119.608.608,0,0,0-.169.2.654.654,0,0,0-.072.252.923.923,0,0,0,.018.273l.087.4a.9.9,0,0,0,.1.254.631.631,0,0,0,.41.307.677.677,0,0,0,.3,0,.67.67,0,0,0,.271-.119.578.578,0,0,0,.166-.2.681.681,0,0,0,.07-.249.9.9,0,0,0-.017-.271Z" transform="translate(-306.785 -113.981)" fill="#fff"/>
          </g>
        </g>
        <g id="Grupo_1078911" data-name="Grupo 1078911" transform="translate(180 7263)">
          <g id="Grupo_1078910" data-name="Grupo 1078910" clip-path="url(#clip-path)">
            <path id="Trazado_827924" data-name="Trazado 827924" d="M395.261,249.114a21.63,21.63,0,1,1-21.63-21.63,21.631,21.631,0,0,1,21.63,21.63" transform="translate(-243.956 -157.659)" fill="#6b1c2b"/>
            <path id="Trazado_827925" data-name="Trazado 827925" d="M467.313,395.552q2.566,11.006,6.01,22.7,1.275,4.295,2.609,8.441l-4.6,2.3a32.056,32.056,0,0,1-4.3-6.753,33.526,33.526,0,0,1-2.922-17.492l3.2-9.2" transform="translate(-321.538 -274.14)" fill="#d3e4f5"/>
            <path id="Trazado_827926" data-name="Trazado 827926" d="M529.215,808.78a2.582,2.582,0,0,1,1.479-1.276c.92-.169,2.017.625,2.689,1.961l-1.223,8.914a1.817,1.817,0,0,1,.759.811,1.837,1.837,0,0,1,.1,1.266,12.932,12.932,0,0,1-4.62-.529,29.391,29.391,0,0,1,.567-7.7l-.634-.8a5.2,5.2,0,0,1,.887-2.642" transform="translate(-366.161 -559.629)" fill="#1b4057"/>
            <path id="Trazado_827927" data-name="Trazado 827927" d="M601.509,794.061a2.584,2.584,0,0,1,.752-1.8c.747-.562,2.084-.343,3.282.551l2.894,8.52a1.793,1.793,0,0,1,1.694,1.476,12.927,12.927,0,0,1-4.369,1.594,29.374,29.374,0,0,1-2.939-7.143l-.925-.434a5.2,5.2,0,0,1-.389-2.76" transform="translate(-416.846 -548.865)" fill="#1b4057"/>
          </g>
        </g>
        <g id="Grupo_1078913" data-name="Grupo 1078913" transform="translate(343.285 7459.795)">
          <g id="Grupo_1078912" data-name="Grupo 1078912" clip-path="url(#clip-path-9)">
            <rect id="Rectángulo_378996" data-name="Rectángulo 378996" width="54.545" height="22.598" transform="translate(-2.111 54.116) rotate(-88.886)" fill="url(#linear-gradient)"/>
          </g>
        </g>
        <g id="Grupo_1078918" data-name="Grupo 1078918" transform="translate(180 7263)">
          <g id="Grupo_1078917" data-name="Grupo 1078917" clip-path="url(#clip-path)">
            <g id="Grupo_1078916" data-name="Grupo 1078916" transform="translate(166.836 202.669)" opacity="0.36">
              <g id="Grupo_1078915" data-name="Grupo 1078915">
                <g id="Grupo_1078914" data-name="Grupo 1078914" clip-path="url(#clip-path-11)">
                  <path id="Trazado_827929" data-name="Trazado 827929" d="M552.617,684.749a21.41,21.41,0,0,0,2.646-5.121c3.071-8.664-.471-16.783-1.721-19.347L545,668.544l-1.46,3.36,7.816-2.089a17.976,17.976,0,0,0-.492,10.9,16.7,16.7,0,0,0,1.755,4.035" transform="translate(-543.538 -660.281)" fill="#570025"/>
                </g>
              </g>
            </g>
          </g>
        </g>
        <g id="Grupo_1078920" data-name="Grupo 1078920" transform="translate(346.845 7456.821)">
          <g id="Grupo_1078919" data-name="Grupo 1078919" clip-path="url(#clip-path-12)">
            <rect id="Rectángulo_378999" data-name="Rectángulo 378999" width="52.542" height="22.394" transform="translate(-1.013 52.117) rotate(-88.886)" fill="url(#linear-gradient-2)"/>
          </g>
        </g>
        <g id="Grupo_1078925" data-name="Grupo 1078925" transform="translate(180 7263)">
          <g id="Grupo_1078924" data-name="Grupo 1078924" clip-path="url(#clip-path)">
            <path id="Trazado_827931" data-name="Trazado 827931" d="M393.283,554.385c-1.043,4.015-2.923,13.777,2.292,22.234,5.256,8.524,14.828,11.035,24.514,13.576a71.43,71.43,0,0,0,21.164,2.255,31.416,31.416,0,0,0,3.413-3.742,32.9,32.9,0,0,0,6.169-13.758,196.654,196.654,0,0,0-16.94-13.545c-5.067-3.612-9.98-6.751-14.625-9.477l-9.935-7.856-16.054,10.311" transform="translate(-271.733 -377.074)" fill="#10649e"/>
            <path id="Trazado_827932" data-name="Trazado 827932" d="M433.1,529.924a21.7,21.7,0,0,1-5.463,1.225,23.227,23.227,0,0,1-13.375-3.014l2.92-13.375,14.789-.754a72.342,72.342,0,0,0,1.13,15.919" transform="translate(-287.107 -356.234)" fill="#123647"/>
            <path id="Trazado_827933" data-name="Trazado 827933" d="M427.624,374.9a52.822,52.822,0,0,1,5.149,11.429,55.882,55.882,0,0,1,.5,30.644q-1.428.026-2.92.094-2.188.1-4.239.283c-.006-4.02-.192-8.3-.628-12.81a136.541,136.541,0,0,0-7.033-31.9l9.168,2.261" transform="translate(-290.013 -258.26)" fill="#40abf5"/>
            <path id="Trazado_827934" data-name="Trazado 827934" d="M443.415,373.048c1.465.92,2.976,1.922,4.521,3.014,1.85,1.307,3.565,2.613,5.149,3.893l-.628,4.521a44.359,44.359,0,0,0,2.637,8.163q.3.691.611,1.343a10.437,10.437,0,0,1,.778,6.532l-.007.037q-2.091,10.418-3.391,20.346l7.7,16.184-1.637,1.637a29.956,29.956,0,0,1-6.5-8.595s-3.309-12.174-1.95-29.573a22.959,22.959,0,0,0-.126-5.024,23.389,23.389,0,0,0-1.13-4.647c-1.175-3.43-3.258-9.679-6.028-17.834" transform="translate(-307.311 -258.543)" fill="#d3e4f5"/>
            <path id="Trazado_827935" data-name="Trazado 827935" d="M392.27,367.729q-1.858,1.631-3.768,3.265-4.489,3.842-8.917,7.41,1.433,4.89,2.889,9.8,4.225,14.238,8.54,28.258-1.773,3.816-3.516,7.912-1.965,4.626-3.642,9.042a44.166,44.166,0,0,0,12.559,6.28,107.477,107.477,0,0,0,2.763-15.2c1.59-14.675-.233-26.2-1.633-34.663a162.346,162.346,0,0,0-5.275-22.1" transform="translate(-263.074 -254.857)" fill="#d3e4f5"/>
            <path id="Trazado_827936" data-name="Trazado 827936" d="M372.879,413.128c-.673,2.16-1.306,4.421-1.884,6.782a114.84,114.84,0,0,0-3.166,22.108,5.452,5.452,0,0,1-4.706.409,5.123,5.123,0,0,1-2.456-2.251c.049-3.652.25-7.529.658-11.6a135.391,135.391,0,0,1,5.212-25.966,19.7,19.7,0,0,1,2.606,2.732,20.284,20.284,0,0,1,3.736,7.787" transform="translate(-249.962 -279.031)" fill="#d3e4f5"/>
            <g id="Grupo_1078923" data-name="Grupo 1078923" transform="translate(137.527 121.884)" opacity="0.3">
              <g id="Grupo_1078922" data-name="Grupo 1078922">
                <g id="Grupo_1078921" data-name="Grupo 1078921" clip-path="url(#clip-path-14)">
                  <path id="Trazado_827937" data-name="Trazado 827937" d="M448.053,397.087l.437,1.5c.269.959.665,2.326,1.1,3.976s.955,3.575,1.448,5.653c.24,1.041.494,2.115.707,3.22a17.048,17.048,0,0,1,.259,1.7c.038.563.051,1.145.051,1.714a43.821,43.821,0,0,1-.613,6.679l-.139.784c-.035.246-.083.514-.108.762-.051.5-.075,1-.087,1.484-.023.973.011,1.9.047,2.747.083,1.7.189,3.121.28,4.112s.146,1.558.146,1.558-.091-.562-.219-1.55-.3-2.4-.419-4.108c-.056-.853-.111-1.779-.111-2.762,0-.491.013-1,.055-1.521.021-.263.06-.508.1-.78l.132-.779a43.637,43.637,0,0,0,.56-6.628c0-.568,0-1.125-.038-1.693-.046-.546-.139-1.1-.24-1.649-.2-1.1-.449-2.171-.681-3.211s-.473-2.043-.693-3l-.641-2.68-1.336-5.531" transform="translate(-448.053 -397.087)" fill="#286782"/>
                </g>
              </g>
            </g>
            <path id="Trazado_827938" data-name="Trazado 827938" d="M443.457,399.671c.155.439.5.718.767.624s.361-.528.207-.967-.5-.718-.766-.623-.362.527-.207.966" transform="translate(-307.288 -276.312)" fill="#286782"/>
            <path id="Trazado_827939" data-name="Trazado 827939" d="M452.519,435.473c.155.439.5.718.767.624s.361-.528.207-.967-.5-.718-.767-.623-.361.527-.207.966" transform="translate(-313.569 -301.125)" fill="#286782"/>
            <path id="Trazado_827940" data-name="Trazado 827940" d="M452.585,477.481c-.049.463.141.863.424.893s.553-.321.6-.784-.141-.862-.424-.893-.553.321-.6.784" transform="translate(-313.661 -330.376)" fill="#286782"/>
            <path id="Trazado_827941" data-name="Trazado 827941" d="M445.856,628l-.711,0c-.464,0-1.144.015-2.01,0s-1.918-.04-3.124-.093-2.566-.143-4.045-.3-3.078-.343-4.761-.61-3.451-.592-5.263-1.01-3.671-.916-5.542-1.457-3.779-1.1-5.642-1.8a22.553,22.553,0,0,1-5.251-2.769c-.2-.139-.4-.291-.587-.443s-.387-.3-.568-.462-.364-.311-.554-.484l-.51-.506-.506-.5a5.77,5.77,0,0,1-.488-.518l-.913-1.087a23.742,23.742,0,0,1-2.777-4.6,28.59,28.59,0,0,1-1.6-4.536,30.453,30.453,0,0,1-.762-3.987c-.162-1.2-.22-2.251-.267-3.116-.03-.867-.033-1.547-.029-2.011s.014-.711.014-.711,0,.247,0,.711.025,1.144.075,2.008c.067.863.148,1.911.337,3.1a34.223,34.223,0,0,0,.831,3.952,28.347,28.347,0,0,0,1.639,4.476,24.789,24.789,0,0,0,2.783,4.515l.9,1.059a5.627,5.627,0,0,0,.486.511l.509.5.512.5.536.464c.179.16.372.3.56.452s.379.3.578.433a22.254,22.254,0,0,0,5.181,2.7c1.84.7,3.735,1.27,5.6,1.812s3.712,1.061,5.519,1.476,3.56.772,5.235,1.057,3.266.506,4.74.669,2.828.282,4.03.373,2.253.138,3.118.164,1.546.04,2.01.049l.711.011" transform="translate(-277.186 -413.754)" fill="#183e4d"/>
            <path id="Trazado_827942" data-name="Trazado 827942" d="M472.632,535.079a8.281,8.281,0,0,0-3.3.921,2.38,2.38,0,0,0,.614,1.842,2.108,2.108,0,0,0,2.609.384,2.192,2.192,0,0,0,.077-3.146" transform="translate(-325.266 -370.84)" fill="#bacfe3"/>
            <path id="Trazado_827943" data-name="Trazado 827943" d="M417.661,443.845c-.925.054-1.918.151-2.967.307a33.347,33.347,0,0,0-4.6,1.023q.154.768.307,1.535,1.466-.19,2.967-.409,2.3-.336,4.5-.716-.1-.87-.2-1.739" transform="translate(-284.215 -307.609)" fill="#bacfe3"/>
            <path id="Trazado_827944" data-name="Trazado 827944" d="M417.918,535.309c-.757-.252-1.577-.488-2.456-.691a27.119,27.119,0,0,0-6.062-.691c-.225.287-1.065,1.411-.691,2.3.291.691,1.247.88,3.146,1.228,2.045.375,3.068.562,4.067.077a4.343,4.343,0,0,0,2-2.225" transform="translate(-283.193 -370.042)" fill="#bacfe3"/>
          </g>
        </g>
        <g id="Grupo_1078927" data-name="Grupo 1078927" transform="translate(296.131 7421.516)">
          <g id="Grupo_1078926" data-name="Grupo 1078926" clip-path="url(#clip-path-15)">
            <rect id="Rectángulo_379002" data-name="Rectángulo 379002" width="17.373" height="27.702" transform="translate(-0.182 17.078) rotate(-89.388)" fill="url(#linear-gradient-3)"/>
          </g>
        </g>
        <g id="Grupo_1078929" data-name="Grupo 1078929" transform="translate(180 7263)">
          <g id="Grupo_1078928" data-name="Grupo 1078928" clip-path="url(#clip-path)">
            <path id="Trazado_827946" data-name="Trazado 827946" d="M370.44,502.458a25.973,25.973,0,0,0-2.242,2.356,26.243,26.243,0,0,0-3.865,6.2,6.18,6.18,0,0,0,1.637,1.842,6.289,6.289,0,0,0,3.321,1.216,25.85,25.85,0,0,1,5.649-6.623l-4.5-4.991" transform="translate(-252.503 -348.231)" fill="#d3e4f5"/>
            <path id="Trazado_827947" data-name="Trazado 827947" d="M502.6,490.629a15.425,15.425,0,0,1,.015,3.881c-.3,1.422-2.655,4.257-2.655,4.257l-1.645-3.567,1.166-4.2Z" transform="translate(-345.36 -340.033)" fill="#617882"/>
          </g>
        </g>
        <g id="Grupo_1078931" data-name="Grupo 1078931" transform="translate(330.826 7397.125)">
          <g id="Grupo_1078930" data-name="Grupo 1078930" clip-path="url(#clip-path-17)">
            <rect id="Rectángulo_379004" data-name="Rectángulo 379004" width="20.848" height="24.467" transform="translate(-1.369 0.081) rotate(-3.366)" fill="url(#linear-gradient-4)"/>
          </g>
        </g>
        <g id="Grupo_1078933" data-name="Grupo 1078933" transform="translate(180 7263)">
          <g id="Grupo_1078932" data-name="Grupo 1078932" clip-path="url(#clip-path)">
            <path id="Trazado_827949" data-name="Trazado 827949" d="M490.852,479.863a8.38,8.38,0,0,0-4.427,4.184,8.2,8.2,0,0,0-.6,4.786l5.393,2.472a15.758,15.758,0,0,1,1.24-10.947l-1.607-.495" transform="translate(-336.619 -332.572)" fill="#d3e4f5"/>
          </g>
        </g>
        <g id="Grupo_1078935" data-name="Grupo 1078935" transform="translate(347.212 7393.597)">
          <g id="Grupo_1078934" data-name="Grupo 1078934" clip-path="url(#clip-path-19)">
            <rect id="Rectángulo_379006" data-name="Rectángulo 379006" width="15.116" height="8.344" transform="matrix(0.998, -0.059, 0.059, 0.998, -0.568, 0.026)" fill="url(#linear-gradient-5)"/>
          </g>
        </g>
        <g id="Grupo_1078937" data-name="Grupo 1078937" transform="translate(180 7263)">
          <g id="Grupo_1078936" data-name="Grupo 1078936" clip-path="url(#clip-path)">
            <path id="Trazado_827951" data-name="Trazado 827951" d="M424.824,670.478a21.539,21.539,0,0,0-4.6-12.892c-5.326-6.568-14.318-9.01-22.1-7.06-8.982,2.252-13.3,9.591-14.119,11.05a55.153,55.153,0,0,0,40.824,8.9" transform="translate(-266.133 -450.399)" fill="#fff"/>
            <path id="Trazado_827952" data-name="Trazado 827952" d="M524.307,732c3.494.283,6.359,2.474,7.06,5.218.955,3.74-2.108,8.511-7.367,9.208q.153-7.213.307-14.426" transform="translate(-363.161 -507.317)" fill="#fff"/>
            <path id="Trazado_827953" data-name="Trazado 827953" d="M347,577.913a14.26,14.26,0,0,1,20.258,3.683c6.469,8.627,1.57,20.391,1.228,21.179a29.247,29.247,0,0,1-11.971-6.446A30.348,30.348,0,0,1,347,577.913" transform="translate(-240.49 -398.658)" fill="#fff"/>
          </g>
        </g>
        <g id="Grupo_1078939" data-name="Grupo 1078939" transform="translate(323.418 7420.659)">
          <g id="Grupo_1078938" data-name="Grupo 1078938" clip-path="url(#clip-path-21)">
            <path id="Trazado_827954" data-name="Trazado 827954" d="M490.918,519.493l-4.471-27.684L456.2,499.356l4.47,27.684Z" transform="translate(-459.592 -498.51)" fill="url(#linear-gradient-6)"/>
          </g>
        </g>
        <g id="Grupo_1078960" data-name="Grupo 1078960" transform="translate(180 7263)">
          <g id="Grupo_1078959" data-name="Grupo 1078959" clip-path="url(#clip-path)">
            <g id="Grupo_1078944" data-name="Grupo 1078944" transform="translate(145.469 159.014)" opacity="0.15">
              <g id="Grupo_1078943" data-name="Grupo 1078943">
                <g id="Grupo_1078942" data-name="Grupo 1078942" clip-path="url(#clip-path-23)">
                  <g id="Grupo_1078941" data-name="Grupo 1078941">
                    <g id="Grupo_1078940" data-name="Grupo 1078940" clip-path="url(#clip-path-24)">
                      <path id="Trazado_827956" data-name="Trazado 827956" d="M480.3,531.335l-3.431-21.248-12.837,3.2,3.431,21.248Z" transform="translate(-467.07 -512.533)" fill="url(#linear-gradient-7)"/>
                    </g>
                  </g>
                </g>
              </g>
            </g>
            <g id="Grupo_1078949" data-name="Grupo 1078949" transform="translate(151.733 158.872)" opacity="0.5">
              <g id="Grupo_1078948" data-name="Grupo 1078948">
                <g id="Grupo_1078947" data-name="Grupo 1078947" clip-path="url(#clip-path-25)">
                  <g id="Grupo_1078946" data-name="Grupo 1078946">
                    <g id="Grupo_1078945" data-name="Grupo 1078945" clip-path="url(#clip-path-26)">
                      <path id="Trazado_827958" data-name="Trazado 827958" d="M496.649,532.623l-3.189-19.747-8.755,2.185,3.189,19.747Z" transform="translate(-487.661 -514.323)" fill="url(#linear-gradient-8)"/>
                    </g>
                  </g>
                </g>
              </g>
            </g>
            <g id="Grupo_1078952" data-name="Grupo 1078952" transform="translate(143.418 157.659)" opacity="0.11">
              <g id="Grupo_1078951" data-name="Grupo 1078951">
                <g id="Grupo_1078950" data-name="Grupo 1078950" clip-path="url(#clip-path-27)">
                  <path id="Trazado_827960" data-name="Trazado 827960" d="M467.243,515.45s6.766,6.993,13.351,6.417c6.324-.554,14.586-8.226,14.586-8.226Z" transform="translate(-467.243 -513.641)" fill="#fff"/>
                </g>
              </g>
            </g>
            <path id="Trazado_827961" data-name="Trazado 827961" d="M463.9,517.583l-1.479-.864.869,19.527,1.3,1.357Z" transform="translate(-320.485 -358.115)" fill="#571505"/>
            <path id="Trazado_827962" data-name="Trazado 827962" d="M462.424,512.7l27.811-1.778,1.605.833L463.9,513.568Z" transform="translate(-320.485 -354.1)" fill="#a32a35"/>
            <path id="Trazado_827963" data-name="Trazado 827963" d="M494.838,513.64l-3.489.273-3.49.263-6.981.5-6.983.469-3.492.232-3.492.218.137-.151.16,5.005.143,5.006.131,5.006.107,5.007-.236-5-.213-5-.2-5-.184-5-.005-.142.142-.009,3.491-.234,3.493-.22,6.985-.436,6.987-.4,3.495-.189Z" transform="translate(-323.483 -355.981)" fill="#c9515c"/>
            <path id="Trazado_827964" data-name="Trazado 827964" d="M462.424,516.719l1.519.8-.079.135Z" transform="translate(-320.485 -358.115)" fill="#c9515c"/>
            <path id="Trazado_827965" data-name="Trazado 827965" d="M500.525,514.162l.715.77.928-.015-.808-.809Z" transform="translate(-346.891 -356.306)" fill="#c9515c"/>
            <path id="Trazado_827966" data-name="Trazado 827966" d="M519.651,512.987l.81.829.87.008-.99-.869Z" transform="translate(-360.147 -355.507)" fill="#c9515c"/>
            <path id="Trazado_827967" data-name="Trazado 827967" d="M478.655,515.153l.913.732,1.422-.084a1.768,1.768,0,0,0-1.031-.822,1.742,1.742,0,0,0-1.3.174" transform="translate(-331.735 -356.868)" fill="#afdbfa"/>
            <path id="Trazado_827968" data-name="Trazado 827968" d="M479.569,516.375s0-.091-.022-.223a1.223,1.223,0,0,0-.048-.219.407.407,0,0,0-.052-.107.228.228,0,0,0-.1-.06,1.054,1.054,0,0,0-.247-.063c-.082-.013-.159-.026-.226-.033l-.224-.027a1.824,1.824,0,0,1,.226-.017,1.459,1.459,0,0,1,.5.068.3.3,0,0,1,.125.089.48.48,0,0,1,.057.129.949.949,0,0,1,.027.235,1.127,1.127,0,0,1-.022.227" transform="translate(-331.735 -357.358)" fill="#e6f5ff"/>
            <g id="Grupo_1078955" data-name="Grupo 1078955" transform="translate(147.319 158.352)" opacity="0.37">
              <g id="Grupo_1078954" data-name="Grupo 1078954">
                <g id="Grupo_1078953" data-name="Grupo 1078953" clip-path="url(#clip-path-28)">
                  <path id="Trazado_827969" data-name="Trazado 827969" d="M479.954,516.151a1.466,1.466,0,0,1,.638-.244,1.557,1.557,0,0,1,1.3.572l-1.571.143-.369-.471" transform="translate(-479.954 -515.898)" fill="#005c7f"/>
                </g>
              </g>
            </g>
            <path id="Trazado_827970" data-name="Trazado 827970" d="M535.1,511.542l.913.732,1.422-.084a1.767,1.767,0,0,0-1.031-.822,1.743,1.743,0,0,0-1.3.174" transform="translate(-370.852 -354.365)" fill="#afdbfa"/>
            <path id="Trazado_827971" data-name="Trazado 827971" d="M536.01,512.763s0-.091-.022-.224a1.224,1.224,0,0,0-.048-.219.413.413,0,0,0-.052-.107.23.23,0,0,0-.1-.06,1.091,1.091,0,0,0-.246-.063c-.082-.013-.159-.026-.226-.033l-.224-.027a1.79,1.79,0,0,1,.226-.017,1.465,1.465,0,0,1,.5.069.3.3,0,0,1,.124.089.471.471,0,0,1,.057.129.948.948,0,0,1,.027.235,1.117,1.117,0,0,1-.022.226" transform="translate(-370.852 -354.854)" fill="#e6f5ff"/>
            <g id="Grupo_1078958" data-name="Grupo 1078958" transform="translate(164.643 157.243)" opacity="0.37">
              <g id="Grupo_1078957" data-name="Grupo 1078957">
                <g id="Grupo_1078956" data-name="Grupo 1078956" clip-path="url(#clip-path-29)">
                  <path id="Trazado_827972" data-name="Trazado 827972" d="M536.4,512.539a1.463,1.463,0,0,1,.638-.244,1.557,1.557,0,0,1,1.3.572l-1.571.143-.369-.471" transform="translate(-536.395 -512.286)" fill="#005c7f"/>
                </g>
              </g>
            </g>
            <path id="Trazado_827973" data-name="Trazado 827973" d="M553.8,488.113l1.5-2.23-6.47-3.188-2.136,3.071Z" transform="translate(-378.884 -334.535)" fill="#a70020"/>
            <path id="Trazado_827974" data-name="Trazado 827974" d="M515.333,495.535l-17.659-6.989a1.347,1.347,0,0,1-.783-1.552l3.146-12.192a1,1,0,0,1,1.365-.7l17.659,6.989a1.347,1.347,0,0,1,.783,1.552L516.7,494.833a1,1,0,0,1-1.365.7" transform="translate(-344.347 -328.524)" fill="#eb7f40"/>
            <path id="Trazado_827975" data-name="Trazado 827975" d="M521.421,481.715l1.1-1.453-19.976-8.056L498.575,486.4l14.5,5.292Z" transform="translate(-345.54 -327.265)" fill="#fff1cf"/>
            <path id="Trazado_827976" data-name="Trazado 827976" d="M516.994,497.64l-17.659-6.989a1.155,1.155,0,0,1-.649-1.5l4.6-11.618a1.155,1.155,0,0,1,1.5-.649l17.659,6.989a1.155,1.155,0,0,1,.649,1.5l-4.6,11.618a1.155,1.155,0,0,1-1.5.649" transform="translate(-345.561 -330.452)" fill="#f7955b"/>
            <path id="Trazado_827977" data-name="Trazado 827977" d="M529.272,479.926q-.03-1.245-.061-2.49l-6.1-1.964-1.517,1.567,7.674,2.888" transform="translate(-361.496 -329.529)" fill="#f7955b"/>
          </g>
        </g>
        <g id="Grupo_1078962" data-name="Grupo 1078962" transform="translate(324.985 7422.259)">
          <g id="Grupo_1078961" data-name="Grupo 1078961" clip-path="url(#clip-path-30)">
            <path id="Trazado_827978" data-name="Trazado 827978" d="M503.3,523.355l-.883-28.341-32.2,7.469.883,28.341Z" transform="translate(-470.869 -502.332)" fill="url(#linear-gradient-9)"/>
          </g>
        </g>
        <g id="Grupo_1078983" data-name="Grupo 1078983" transform="translate(180 7263)">
          <g id="Grupo_1078982" data-name="Grupo 1078982" clip-path="url(#clip-path)">
            <g id="Grupo_1078967" data-name="Grupo 1078967" transform="translate(149.253 160.865)" opacity="0.15">
              <g id="Grupo_1078966" data-name="Grupo 1078966">
                <g id="Grupo_1078965" data-name="Grupo 1078965" clip-path="url(#clip-path-32)">
                  <g id="Grupo_1078964" data-name="Grupo 1078964">
                    <g id="Grupo_1078963" data-name="Grupo 1078963" clip-path="url(#clip-path-33)">
                      <path id="Trazado_827980" data-name="Trazado 827980" d="M493.646,538.322,493.012,518l-8.631,2,.633,20.324Z" transform="translate(-484.956 -519.866)" fill="url(#linear-gradient-10)"/>
                    </g>
                  </g>
                </g>
              </g>
            </g>
            <g id="Grupo_1078972" data-name="Grupo 1078972" transform="translate(155.91 160.696)" opacity="0.5">
              <g id="Grupo_1078971" data-name="Grupo 1078971">
                <g id="Grupo_1078970" data-name="Grupo 1078970" clip-path="url(#clip-path-34)">
                  <g id="Grupo_1078969" data-name="Grupo 1078969">
                    <g id="Grupo_1078968" data-name="Grupo 1078968" clip-path="url(#clip-path-35)">
                      <path id="Trazado_827982" data-name="Trazado 827982" d="M510.948,539.523l-.585-18.769-4.241.984.585,18.769Z" transform="translate(-506.68 -521.608)" fill="url(#linear-gradient-11)"/>
                    </g>
                  </g>
                </g>
              </g>
            </g>
            <g id="Grupo_1078975" data-name="Grupo 1078975" transform="translate(147.073 159.259)" opacity="0.11">
              <g id="Grupo_1078974" data-name="Grupo 1078974">
                <g id="Grupo_1078973" data-name="Grupo 1078973" clip-path="url(#clip-path-36)">
                  <path id="Trazado_827984" data-name="Trazado 827984" d="M479.153,521s6.146,6.549,13.165,5.9c6.741-.622,16.524-8.045,16.524-8.045Z" transform="translate(-479.153 -518.854)" fill="#fff"/>
                </g>
              </g>
            </g>
            <path id="Trazado_827985" data-name="Trazado 827985" d="M471.781,524.034l-1.437-.8-1.828,18.56,1.176,1.271Z" transform="translate(-324.708 -362.63)" fill="#571505"/>
            <path id="Trazado_827986" data-name="Trazado 827986" d="M474.47,518.464l29.552-2.113,1.574.769-29.689,2.144Z" transform="translate(-328.834 -357.86)" fill="#a32a35"/>
            <path id="Trazado_827987" data-name="Trazado 827987" d="M504.126,518.854l-3.708.317-3.708.305-7.419.583-7.421.553c-2.473.19-4.949.353-7.423.529l.133-.128-.533,4.756-.553,4.754-.562,4.753-.583,4.751.462-4.764.482-4.763.491-4.761.511-4.759.013-.119.12-.009c2.474-.182,4.947-.376,7.422-.543l7.423-.519,7.426-.488,3.714-.231Z" transform="translate(-327.363 -359.595)" fill="#c9515c"/>
            <path id="Trazado_827988" data-name="Trazado 827988" d="M474.47,523.234l1.475.732-.076.136Z" transform="translate(-328.834 -362.63)" fill="#c9515c"/>
            <path id="Trazado_827989" data-name="Trazado 827989" d="M516.354,509.762s.037-4.231.629-4.48,7-.976,7.184-.478-1.066,4.526-1.066,4.526l-.588.017s1.158-3.753.866-3.861-5.633-.109-5.837.362-.6,3.9-.6,3.9Z" transform="translate(-357.862 -349.739)" fill="#c9515c"/>
            <path id="Trazado_827990" data-name="Trazado 827990" d="M514.956,520.2l.646.722.98-.028-.737-.757Z" transform="translate(-356.893 -360.481)" fill="#c9515c"/>
            <path id="Trazado_827991" data-name="Trazado 827991" d="M535.279,518.794l.737.777.916-.006-.921-.812Z" transform="translate(-370.978 -359.525)" fill="#c9515c"/>
            <path id="Trazado_827992" data-name="Trazado 827992" d="M491.718,521.468l.859.682,1.51-.1a1.454,1.454,0,0,0-.97-.767,2.152,2.152,0,0,0-1.4.186" transform="translate(-340.788 -361.243)" fill="#afdbfa"/>
            <path id="Trazado_827993" data-name="Trazado 827993" d="M492.577,522.633s.01-.09.01-.222a.863.863,0,0,0-.023-.218.181.181,0,0,0-.049-.1.273.273,0,0,0-.1-.047,1.4,1.4,0,0,0-.249-.05c-.082-.009-.158-.021-.225-.026l-.222-.023a1.88,1.88,0,0,1,.223-.021,1.676,1.676,0,0,1,.5.046.559.559,0,0,1,.067.026.258.258,0,0,1,.065.045.251.251,0,0,1,.062.131.723.723,0,0,1,0,.236,1.028,1.028,0,0,1-.054.219" transform="translate(-340.788 -361.725)" fill="#e6f5ff"/>
            <g id="Grupo_1078978" data-name="Grupo 1078978" transform="translate(151.305 160.27)" opacity="0.37">
              <g id="Grupo_1078977" data-name="Grupo 1078977">
                <g id="Grupo_1078976" data-name="Grupo 1078976" clip-path="url(#clip-path-37)">
                  <path id="Trazado_827994" data-name="Trazado 827994" d="M492.94,522.4a1.9,1.9,0,0,1,.706-.242,1.441,1.441,0,0,1,1.291.525l-1.675.16-.322-.443" transform="translate(-492.94 -522.148)" fill="#005c7f"/>
                </g>
              </g>
            </g>
            <path id="Trazado_827995" data-name="Trazado 827995" d="M551.692,517.179l.859.682,1.51-.1a1.453,1.453,0,0,0-.97-.766,2.152,2.152,0,0,0-1.4.185" transform="translate(-382.353 -358.271)" fill="#afdbfa"/>
            <path id="Trazado_827996" data-name="Trazado 827996" d="M552.551,518.343s.01-.09.01-.222a.863.863,0,0,0-.023-.218.182.182,0,0,0-.049-.1.275.275,0,0,0-.1-.047,1.4,1.4,0,0,0-.249-.05c-.082-.009-.158-.02-.225-.026l-.222-.023a1.871,1.871,0,0,1,.223-.021,1.68,1.68,0,0,1,.5.046.559.559,0,0,1,.067.026.262.262,0,0,1,.065.045.25.25,0,0,1,.062.131.721.721,0,0,1,0,.236,1.032,1.032,0,0,1-.054.219" transform="translate(-382.353 -358.752)" fill="#e6f5ff"/>
            <g id="Grupo_1078981" data-name="Grupo 1078981" transform="translate(169.714 158.954)" opacity="0.37">
              <g id="Grupo_1078980" data-name="Grupo 1078980">
                <g id="Grupo_1078979" data-name="Grupo 1078979" clip-path="url(#clip-path-37)">
                  <path id="Trazado_827997" data-name="Trazado 827997" d="M552.914,518.11a1.9,1.9,0,0,1,.706-.242,1.441,1.441,0,0,1,1.291.525l-1.675.159-.322-.442" transform="translate(-552.914 -517.858)" fill="#005c7f"/>
                </g>
              </g>
            </g>
          </g>
        </g>
        <g id="Grupo_1078985" data-name="Grupo 1078985" transform="translate(320.225 7435.081)">
          <g id="Grupo_1078984" data-name="Grupo 1078984" clip-path="url(#clip-path-39)">
            <rect id="Rectángulo_379020" data-name="Rectángulo 379020" width="10.471" height="8.654" transform="translate(-0.111 10.38) rotate(-89.388)" fill="url(#linear-gradient-12)"/>
          </g>
        </g>
        <g id="Grupo_1078987" data-name="Grupo 1078987" transform="translate(180 7263)">
          <g id="Grupo_1078986" data-name="Grupo 1078986" clip-path="url(#clip-path)">
            <path id="Trazado_827999" data-name="Trazado 827999" d="M447.408,372.639a12.9,12.9,0,0,1,2.261,2.889c2.962,5.177,1.325,10.867.816,12.433l-4.3-12.356,1.221-2.966" transform="translate(-309.233 -258.26)" fill="#d3e4f5"/>
            <path id="Trazado_828000" data-name="Trazado 828000" d="M477.223,331.023l-.648-.032-4.135-1.907q-.166.214-.341.432-.188.233-.374.455l4.667,2.135.474.029a1.084,1.084,0,0,0,.321-.443,1.1,1.1,0,0,0,.036-.669" transform="translate(-326.932 -228.074)" fill="#3d5b8a"/>
          </g>
        </g>
        <g id="Grupo_1078989" data-name="Grupo 1078989" transform="translate(309.335 7367.126)">
          <g id="Grupo_1078988" data-name="Grupo 1078988" clip-path="url(#clip-path-41)">
            <rect id="Rectángulo_379022" data-name="Rectángulo 379022" width="10.225" height="18.084" transform="translate(-0.623 0.022) rotate(-2.013)" fill="url(#linear-gradient-13)"/>
          </g>
        </g>
        <g id="Grupo_1078994" data-name="Grupo 1078994" transform="translate(180 7263)">
          <g id="Grupo_1078993" data-name="Grupo 1078993" clip-path="url(#clip-path)">
            <g id="Grupo_1078992" data-name="Grupo 1078992" transform="translate(129.031 103.354)" opacity="0.36">
              <g id="Grupo_1078991" data-name="Grupo 1078991">
                <g id="Grupo_1078990" data-name="Grupo 1078990" clip-path="url(#clip-path-43)">
                  <path id="Trazado_828002" data-name="Trazado 828002" d="M420.372,336.72a18.589,18.589,0,0,0,.987,4.246,19.582,19.582,0,0,0,6.119,8.478,9.52,9.52,0,0,0,.972-1.087,9.785,9.785,0,0,0,1.658-3.374l-9.737-8.264" transform="translate(-420.372 -336.72)" fill="#570025"/>
                </g>
              </g>
            </g>
          </g>
        </g>
        <g id="Grupo_1078996" data-name="Grupo 1078996" transform="translate(304.125 7359.978)">
          <g id="Grupo_1078995" data-name="Grupo 1078995" clip-path="url(#clip-path-44)">
            <rect id="Rectángulo_379025" data-name="Rectángulo 379025" width="5.981" height="6.983" transform="translate(-0.715 0.008) rotate(-2.013)" fill="url(#linear-gradient-14)"/>
          </g>
        </g>
        <g id="Grupo_1079001" data-name="Grupo 1079001" transform="translate(180 7263)">
          <g id="Grupo_1079000" data-name="Grupo 1079000" clip-path="url(#clip-path)">
            <g id="Grupo_1078999" data-name="Grupo 1078999" transform="translate(124.622 98.027)" opacity="0.36">
              <g id="Grupo_1078998" data-name="Grupo 1078998">
                <g id="Grupo_1078997" data-name="Grupo 1078997" clip-path="url(#clip-path-46)">
                  <path id="Trazado_828004" data-name="Trazado 828004" d="M406.278,322.52a2.546,2.546,0,0,1,0-2.238c.058-.1.521-.874,1.186-.916.816-.051,1.808,1.01,2.029,2.727a1.329,1.329,0,0,0-.743.881,1.278,1.278,0,0,0,.412,1.238,2.481,2.481,0,0,1-1.128-.033,2.83,2.83,0,0,1-1.76-1.66" transform="translate(-406.01 -319.364)" fill="#570025"/>
                </g>
              </g>
            </g>
          </g>
        </g>
        <g id="Grupo_1079003" data-name="Grupo 1079003" transform="translate(308.485 7349.734)">
          <g id="Grupo_1079002" data-name="Grupo 1079002" clip-path="url(#clip-path-47)">
            <rect id="Rectángulo_379028" data-name="Rectángulo 379028" width="21.119" height="28.116" transform="translate(-1.321 0.034) rotate(-2.013)" fill="url(#linear-gradient-15)"/>
          </g>
        </g>
        <g id="Grupo_1079008" data-name="Grupo 1079008" transform="translate(180 7263)">
          <g id="Grupo_1079007" data-name="Grupo 1079007" clip-path="url(#clip-path)">
            <path id="Trazado_828006" data-name="Trazado 828006" d="M462.725,329.154a2.458,2.458,0,0,1,.554-1.991,2.385,2.385,0,0,1,2.111-.732,2.2,2.2,0,0,1,1.189.727,2.268,2.268,0,0,1-.079.669,2.7,2.7,0,0,1-1.491,1.63,2.1,2.1,0,0,1-1.849.1,1.425,1.425,0,0,1-.436-.4" transform="translate(-320.673 -226.204)" fill="#fff"/>
            <path id="Trazado_828007" data-name="Trazado 828007" d="M434.126,318.85a3.1,3.1,0,0,0,.1.869,3.53,3.53,0,0,0,1.491,1.974,4.129,4.129,0,0,0,3.226.483,2.755,2.755,0,0,0-1.673-3.839,3.721,3.721,0,0,0-3.146.513" transform="translate(-300.873 -220.508)" fill="#fff"/>
            <path id="Trazado_828008" data-name="Trazado 828008" d="M440.648,325.489a1.14,1.14,0,1,0,1.327-.916,1.14,1.14,0,0,0-1.327.916" transform="translate(-305.381 -224.934)" fill="#34a9f7"/>
            <path id="Trazado_828009" data-name="Trazado 828009" d="M432.746,318.5a2.5,2.5,0,0,1-.687-.889,2.536,2.536,0,0,1-.188-1.473,2.891,2.891,0,0,1,1.077-.522,2.982,2.982,0,0,1,3.695,3.512,3.363,3.363,0,0,0-.176-2.605,3.849,3.849,0,0,0-4.719-1.258,1.773,1.773,0,0,1-.479-.241,1.934,1.934,0,0,1-.72-1.07,1.847,1.847,0,0,0-.084,1.053,1.934,1.934,0,0,0,.911,1.214,2.444,2.444,0,0,0,1.37,2.279" transform="translate(-298.307 -217.591)" fill="#1e253b"/>
            <path id="Trazado_828010" data-name="Trazado 828010" d="M437.919,310.38a10.383,10.383,0,0,1,4.8-.239,2.679,2.679,0,0,1,.743,1.488,4.365,4.365,0,0,0-.764-.543,4.826,4.826,0,0,0-1.68-.537,15.4,15.4,0,0,0-3.1-.169" transform="translate(-303.502 -214.824)" fill="#1e253b"/>
            <path id="Trazado_828011" data-name="Trazado 828011" d="M454.584,310.728a2.01,2.01,0,0,1,.175.17l.077.087a1.053,1.053,0,0,1,.088.107,1.666,1.666,0,0,1,.133.257,1.556,1.556,0,0,1,.112.529,1.064,1.064,0,0,1-.017.246s-.033-.094-.078-.229-.107-.31-.176-.481c-.034-.088-.07-.167-.107-.251-.014-.023-.041-.073-.058-.107l-.054-.1a2.042,2.042,0,0,1-.1-.224" transform="translate(-315.052 -215.352)" fill="#1e253b"/>
            <path id="Trazado_828012" data-name="Trazado 828012" d="M469.042,318.839a2.621,2.621,0,0,1,1.714-.3,2.437,2.437,0,0,1,1.392,1.724,4.4,4.4,0,0,0-1.053-.843,4.485,4.485,0,0,0-2.053-.584" transform="translate(-325.072 -220.742)" fill="#1e253b"/>
            <path id="Trazado_828013" data-name="Trazado 828013" d="M469.037,318.059a.787.787,0,0,1,.145-.164,1.219,1.219,0,0,1,.183-.131,1.2,1.2,0,0,1,.238-.1,1.119,1.119,0,0,1,.48-.035.785.785,0,0,1,.21.058l-.209.038a4.069,4.069,0,0,0-.432.1,3.954,3.954,0,0,0-.419.149l-.2.083" transform="translate(-325.069 -220.126)" fill="#1e253b"/>
            <path id="Trazado_828014" data-name="Trazado 828014" d="M464.39,326.718a3.08,3.08,0,0,1,.916-.6,2.669,2.669,0,0,1,2.178.487,2.722,2.722,0,0,1-.166.907,2.866,2.866,0,0,1-1.126,1.385,2.413,2.413,0,0,0,.831-.371,2.6,2.6,0,0,0,1-1.539,1.127,1.127,0,0,0,.556-.181,1.159,1.159,0,0,0,.465-.634,1.035,1.035,0,0,1-1.243.121,1.783,1.783,0,0,0-.763-.6,2,2,0,0,0-1.521.092,2.274,2.274,0,0,0-1.129.927" transform="translate(-321.847 -225.648)" fill="#1e253b"/>
            <path id="Trazado_828015" data-name="Trazado 828015" d="M464.592,331.546c-.221.534-.1,1.091.27,1.243s.848-.156,1.069-.69.1-1.091-.27-1.244-.848.156-1.069.69" transform="translate(-321.912 -229.275)" fill="#34a9f7"/>
            <g id="Grupo_1079006" data-name="Grupo 1079006" transform="translate(137.98 111.886)" opacity="0.25">
              <g id="Grupo_1079005" data-name="Grupo 1079005">
                <g id="Grupo_1079004" data-name="Grupo 1079004" clip-path="url(#clip-path-49)">
                  <path id="Trazado_828016" data-name="Trazado 828016" d="M449.528,364.64c.011-.1.405-.161.716-.1.457.088.821.449.771.548-.085.173-1.51-.251-1.488-.447" transform="translate(-449.528 -364.515)" fill="#fcd0c2"/>
                </g>
              </g>
            </g>
            <path id="Trazado_828017" data-name="Trazado 828017" d="M414.337,338.725a1.044,1.044,0,0,1-1.018.34,1,1,0,0,1-.677-.62c-.165-.46.1-.92.5-1.6a7,7,0,0,1,.858-1.169,6.282,6.282,0,0,1,.417,1.344c.145.758.25,1.313-.078,1.7" transform="translate(-285.95 -232.644)" fill="#123345"/>
            <path id="Trazado_828018" data-name="Trazado 828018" d="M416.8,335.065a.334.334,0,1,1-.268-.389.333.333,0,0,1,.268.389" transform="translate(-288.406 -231.946)" fill="#a0e1ff"/>
            <path id="Trazado_828019" data-name="Trazado 828019" d="M415.571,337.377c.049.176.115.438.173.76.154.869.241,1.357-.023,1.686-.3.369-.94.417-1.014.282-.057-.1.235-.306.462-.6a2.778,2.778,0,0,0,.4-2.124" transform="translate(-287.41 -233.821)" fill="#1a4a63"/>
            <path id="Trazado_828020" data-name="Trazado 828020" d="M413.779,344.659c-.025.049-.173.018-.216.009-.412-.086-.646-.593-.583-.653.087-.082.862.518.8.644" transform="translate(-286.211 -238.416)" fill="#2b7aa3"/>
            <path id="Trazado_828021" data-name="Trazado 828021" d="M430.2,381.819l-2.072,2.379c-.368-.305-.74-.637-1.113-1a20.092,20.092,0,0,1-3.453-4.451q.077-1.036.154-2.072a17.909,17.909,0,0,0,6.484,5.141" transform="translate(-293.553 -261.059)" fill="#2a8dd1"/>
            <path id="Trazado_828022" data-name="Trazado 828022" d="M448.053,388.828l.723-.813,1.16.813-1.374-3.658Z" transform="translate(-310.526 -266.945)" fill="#2a8dd1"/>
            <path id="Trazado_828023" data-name="Trazado 828023" d="M417.628,379.558a73.478,73.478,0,0,0-2.072-11.429c-.6-2.27-1.274-4.376-1.978-6.311l-.277-2.573a8.776,8.776,0,0,0-2.957,3.672,10.024,10.024,0,0,0,.063,6.907,18.56,18.56,0,0,0,7.221,9.733" transform="translate(-283.974 -248.977)" fill="#d3e4f5"/>
            <path id="Trazado_828024" data-name="Trazado 828024" d="M411.854,386.511a33.983,33.983,0,0,0,6.651,11.971,13.713,13.713,0,0,1-3.786-3.376,14.36,14.36,0,0,1-2.865-8.594" transform="translate(-285.438 -267.874)" fill="#bacfe3"/>
            <path id="Trazado_828025" data-name="Trazado 828025" d="M460.854,400.284c.154-1.349.267-2.821.307-4.4.043-1.693,0-3.268-.1-4.707a10.525,10.525,0,0,1-.2,9.106" transform="translate(-319.398 -271.108)" fill="#bacfe3"/>
            <path id="Trazado_828026" data-name="Trazado 828026" d="M450.333,353.379a7.3,7.3,0,0,1-1.177.077,7.614,7.614,0,0,1-3.3-.831A2.827,2.827,0,0,0,448.006,356c.252-.347.532-.707.844-1.074a17.87,17.87,0,0,1,1.483-1.548" transform="translate(-308.96 -244.389)" fill="#6e0d28"/>
            <path id="Trazado_828027" data-name="Trazado 828027" d="M448.859,357.545l-.672.94a2.888,2.888,0,0,1-.9-.48,3.039,3.039,0,0,1-1.036-1.631,6.36,6.36,0,0,0,2.225,1.113q-.179-.5-.115-.537t.5.595" transform="translate(-309.276 -246.988)" fill="#fff"/>
          </g>
        </g>
        <g id="Grupo_1079013" data-name="Grupo 1079013" transform="translate(180 7263)">
          <g id="Grupo_1079012" data-name="Grupo 1079012" clip-path="url(#clip-path)">
            <path id="Trazado_828028" data-name="Trazado 828028" d="M465.524,336.038a6.324,6.324,0,0,1-2.046-.34,6.746,6.746,0,0,1-2.244-1.3l-.032-.028-.015-.04a6.918,6.918,0,0,1-.454-2.229,7.6,7.6,0,0,1,.732-3.53l.036-.077.083-.017a8.934,8.934,0,0,1,1.721-.192h.106a9.413,9.413,0,0,1,5.625,1.951l.073.053,0,.091a7.531,7.531,0,0,1-.473,2.415,6.674,6.674,0,0,1-2.487,3.2l-.037.025-.044,0c-.18.015-.361.023-.541.023m-4.034-1.876a6.391,6.391,0,0,0,2.1,1.211,5.972,5.972,0,0,0,2.4.3,6.337,6.337,0,0,0,2.321-3.008,7.185,7.185,0,0,0,.448-2.215,9.05,9.05,0,0,0-5.349-1.831h-.1a8.587,8.587,0,0,0-1.571.167,7.254,7.254,0,0,0-.663,3.293,6.586,6.586,0,0,0,.416,2.079" transform="translate(-319.309 -227.516)" fill="#3d5b8a"/>
            <g id="Grupo_1079011" data-name="Grupo 1079011" transform="translate(141.589 100.935)" opacity="0.42">
              <g id="Grupo_1079010" data-name="Grupo 1079010">
                <g id="Grupo_1079009" data-name="Grupo 1079009" clip-path="url(#clip-path-51)">
                  <path id="Trazado_828029" data-name="Trazado 828029" d="M462.006,329.027a8.707,8.707,0,0,1,1.688-.188,9.37,9.37,0,0,1,5.628,1.917,7.417,7.417,0,0,1-.462,2.36,6.479,6.479,0,0,1-2.422,3.115,6.162,6.162,0,0,1-2.517-.309,6.607,6.607,0,0,1-2.187-1.272,6.749,6.749,0,0,1-.443-2.174,7.462,7.462,0,0,1,.716-3.45" transform="translate(-461.285 -328.839)" fill="#a0e7ff"/>
                </g>
              </g>
            </g>
          </g>
        </g>
        <g id="Grupo_1079015" data-name="Grupo 1079015" transform="translate(318.186 7364.536)">
          <g id="Grupo_1079014" data-name="Grupo 1079014" clip-path="url(#clip-path-52)">
            <rect id="Rectángulo_379033" data-name="Rectángulo 379033" width="4.309" height="5.92" transform="translate(0 0)" fill="url(#linear-gradient-16)"/>
          </g>
        </g>
        <g id="Grupo_1079041" data-name="Grupo 1079041" transform="translate(180 7263)">
          <g id="Grupo_1079040" data-name="Grupo 1079040" clip-path="url(#clip-path)">
            <g id="Grupo_1079018" data-name="Grupo 1079018" transform="translate(138.186 101.535)" opacity="0.35">
              <g id="Grupo_1079017" data-name="Grupo 1079017">
                <g id="Grupo_1079016" data-name="Grupo 1079016" clip-path="url(#clip-path-54)">
                  <path id="Trazado_828031" data-name="Trazado 828031" d="M450.3,333.553a2.06,2.06,0,0,0-.1.635,3.179,3.179,0,0,0,1.6,2.372l.757.153a5.406,5.406,0,0,0,1.685-.868,1.652,1.652,0,0,0,.219-1.2,4.849,4.849,0,0,1-1.017-1.669l.211-1.073a1.195,1.195,0,0,0-2.205-.579,2.593,2.593,0,0,1-1.149,2.224" transform="translate(-450.2 -330.794)" fill="#8c4350"/>
                </g>
              </g>
            </g>
            <path id="Trazado_828032" data-name="Trazado 828032" d="M455.782,335.876l.656.064h-.009l.453-.154a2.285,2.285,0,0,0,.437-.186,4.039,4.039,0,0,0,.779-.538l-.019.024a2.359,2.359,0,0,0,.22-1.17l.031.059a3,3,0,0,1-1.052-1.719l0-.009v-.009a4.58,4.58,0,0,1,.254-1.355,4.529,4.529,0,0,1,.64-1.211,5.333,5.333,0,0,0-.547,1.24,4.954,4.954,0,0,0-.2,1.329l0-.018a2.972,2.972,0,0,0,1.01,1.624l.029.023,0,.036a2.517,2.517,0,0,1-.252,1.243l-.007.015-.011.01a3.855,3.855,0,0,1-.826.524,2.4,2.4,0,0,1-.457.172l-.471.124h-.01Z" transform="translate(-315.882 -228.48)" fill="#743026"/>
            <path id="Trazado_828033" data-name="Trazado 828033" d="M451.96,345.678a.678.678,0,0,1,.209.024.957.957,0,0,1,.2.079.984.984,0,0,1,.2.145,1.008,1.008,0,0,1,.258.385.733.733,0,0,1,.047.205l-.131-.157a3.261,3.261,0,0,0-.291-.308,1.947,1.947,0,0,0-.17-.145,1.978,1.978,0,0,0-.16-.117l-.171-.111" transform="translate(-313.233 -239.573)" fill="#743026"/>
            <g id="Grupo_1079021" data-name="Grupo 1079021" transform="translate(139.13 104.879)" opacity="0.25">
              <g id="Grupo_1079020" data-name="Grupo 1079020">
                <g id="Grupo_1079019" data-name="Grupo 1079019" clip-path="url(#clip-path-55)">
                  <path id="Trazado_828034" data-name="Trazado 828034" d="M453.282,341.7c.056-.067.433.093.671.385.16.2.27.471.21.518s-.385-.222-.557-.408c-.027-.029-.388-.418-.323-.5" transform="translate(-453.274 -341.686)" fill="#fff"/>
                </g>
              </g>
            </g>
            <path id="Trazado_828035" data-name="Trazado 828035" d="M450.29,341.99a.968.968,0,0,1-.212-.195,1.329,1.329,0,0,1-.162-.252,1.463,1.463,0,0,1-.063-.156c-.016-.057-.033-.116-.044-.174a1.371,1.371,0,0,1-.015-.345,1.416,1.416,0,0,1,.06-.293,1.012,1.012,0,0,1,.122-.261s-.016.114-.027.279a2.447,2.447,0,0,0,.029.589c.008.053.02.1.032.152s.027.1.045.15a2.013,2.013,0,0,0,.1.257c.072.148.132.247.132.247" transform="translate(-311.729 -235.857)" fill="#743026"/>
            <g id="Grupo_1079024" data-name="Grupo 1079024" transform="translate(138.172 105.523)" opacity="0.35">
              <g id="Grupo_1079023" data-name="Grupo 1079023">
                <g id="Grupo_1079022" data-name="Grupo 1079022" clip-path="url(#clip-path-56)">
                  <path id="Trazado_828036" data-name="Trazado 828036" d="M450.153,343.786a3.333,3.333,0,0,0,.443,1.15,3.383,3.383,0,0,0,1.285,1.195,3.833,3.833,0,0,0,.843-.194,3.952,3.952,0,0,0,1.536-1,12.159,12.159,0,0,1-4.107-1.146" transform="translate(-450.153 -343.786)" fill="#8c4350"/>
                </g>
              </g>
            </g>
            <path id="Trazado_828037" data-name="Trazado 828037" d="M454.475,330.585c.559-.765,1.39-.926,1.779-.626a1.087,1.087,0,0,1,.289.882q.1-.438.238-.9c.16-.553.335-1.07.516-1.548a6.68,6.68,0,0,0-2.054-.45,13.353,13.353,0,0,1-.558,2.092q-.1.285-.21.55" transform="translate(-314.977 -227.282)" fill="#3d5b8a"/>
            <path id="Trazado_828038" data-name="Trazado 828038" d="M430.762,327.522a9.254,9.254,0,0,1-5.725-1.982l-.033-.026-.017-.039a6.2,6.2,0,0,1-.538-2.281,6.336,6.336,0,0,1,.912-3.508l.044-.073.084-.009a12.5,12.5,0,0,1,2.074-.061,13.517,13.517,0,0,1,6.894,2.382l.08.054,0,.1a6.248,6.248,0,0,1-.59,2.4,6.573,6.573,0,0,1-3.033,3.027l-.035.018Zm-5.48-2.225a8.916,8.916,0,0,0,5.48,1.882h.03a6.219,6.219,0,0,0,2.839-2.849,5.889,5.889,0,0,0,.553-2.175,13.154,13.154,0,0,0-6.64-2.27,12.167,12.167,0,0,0-1.933.051,5.982,5.982,0,0,0-.82,3.245,5.852,5.852,0,0,0,.492,2.116" transform="translate(-294.162 -221.448)" fill="#3d5b8a"/>
            <g id="Grupo_1079027" data-name="Grupo 1079027" transform="translate(130.452 98.248)" opacity="0.42">
              <g id="Grupo_1079026" data-name="Grupo 1079026">
                <g id="Grupo_1079025" data-name="Grupo 1079025" clip-path="url(#clip-path-57)">
                  <path id="Trazado_828039" data-name="Trazado 828039" d="M425.895,320.162a12.507,12.507,0,0,1,2.046-.061,13.528,13.528,0,0,1,6.807,2.353,6.116,6.116,0,0,1-.574,2.337,6.4,6.4,0,0,1-2.953,2.947,9.084,9.084,0,0,1-5.69-1.945,6.051,6.051,0,0,1-.523-2.218,6.194,6.194,0,0,1,.888-3.413" transform="translate(-425.002 -320.084)" fill="#a0e7ff"/>
                </g>
              </g>
            </g>
            <path id="Trazado_828040" data-name="Trazado 828040" d="M416.55,316.554a16.406,16.406,0,0,0-2.34-1.268.75.75,0,0,0-.527.311l2.57,2.341Z" transform="translate(-286.705 -218.511)" fill="#1e253b"/>
            <path id="Trazado_828041" data-name="Trazado 828041" d="M423.774,319.592l-1.429-.175a2.749,2.749,0,0,0-.3,1.385l1.087.374c.055-.19.12-.389.2-.6a8.291,8.291,0,0,1,.443-.987" transform="translate(-292.5 -221.374)" fill="#3d5b8a"/>
            <g id="Grupo_1079030" data-name="Grupo 1079030" transform="translate(131.269 101.57)" opacity="0.35">
              <g id="Grupo_1079029" data-name="Grupo 1079029">
                <g id="Grupo_1079028" data-name="Grupo 1079028" clip-path="url(#clip-path-58)">
                  <path id="Trazado_828042" data-name="Trazado 828042" d="M434.737,332.885a5.082,5.082,0,0,1-1.695,1.87,10.39,10.39,0,0,1-1.906-.306,10.535,10.535,0,0,1-3.339-1.528,2.439,2.439,0,0,1,.195-2.014c.854.344,1.783.68,2.784.99a36.176,36.176,0,0,0,3.961.988" transform="translate(-427.664 -330.906)" fill="#fff"/>
                </g>
              </g>
            </g>
            <g id="Grupo_1079033" data-name="Grupo 1079033" transform="translate(142.589 105.181)" opacity="0.35">
              <g id="Grupo_1079032" data-name="Grupo 1079032">
                <g id="Grupo_1079031" data-name="Grupo 1079031" clip-path="url(#clip-path-59)">
                  <path id="Trazado_828043" data-name="Trazado 828043" d="M470,343.5q-.9-.131-1.81-.274-1.7-.267-3.358-.558-.146.642-.293,1.283a6.375,6.375,0,0,0,4.065,1.3,4.81,4.81,0,0,0,1.4-1.75" transform="translate(-464.543 -342.671)" fill="#fff"/>
                </g>
              </g>
            </g>
            <g id="Grupo_1079036" data-name="Grupo 1079036" transform="translate(145.654 105.112)" opacity="0.65">
              <g id="Grupo_1079035" data-name="Grupo 1079035">
                <g id="Grupo_1079034" data-name="Grupo 1079034" clip-path="url(#clip-path-60)">
                  <path id="Trazado_828044" data-name="Trazado 828044" d="M476.879,342.47c.252.182-.068,1.587-1.127,2.1-.406.2-1.079.343-1.2.129-.259-.454,1.952-2.5,2.328-2.233" transform="translate(-474.529 -342.446)" fill="#fff"/>
                </g>
              </g>
            </g>
            <g id="Grupo_1079039" data-name="Grupo 1079039" transform="translate(136.022 102.565)" opacity="0.65">
              <g id="Grupo_1079038" data-name="Grupo 1079038">
                <g id="Grupo_1079037" data-name="Grupo 1079037" clip-path="url(#clip-path-60)">
                  <path id="Trazado_828045" data-name="Trazado 828045" d="M445.5,334.173c.252.182-.068,1.587-1.127,2.1-.406.2-1.079.343-1.2.129-.259-.454,1.952-2.5,2.328-2.233" transform="translate(-443.148 -334.149)" fill="#fff"/>
                </g>
              </g>
            </g>
          </g>
        </g>
        <rect id="Rectángulo_379043" data-name="Rectángulo 379043" width="295" height="295" transform="translate(179.667 7263)" fill="none"/>
      </g>
    </g>
  </g>
</svg>
