<svg xmlns="http://www.w3.org/2000/svg" width="112" height="112" viewBox="0 0 112 112">
  <g id="Grupo_1079621" data-name="Grupo 1079621" transform="translate(-745 -1005)">
    <circle id="Elipse_10769" data-name="Elipse 10769" cx="56" cy="56" r="56" transform="translate(745 1005)" fill="#fff"/>
    <g id="Grupo_1078219" data-name="Grupo 1078219" transform="translate(57.998 1086.784)">
      <path id="Trazado_197610" data-name="Trazado 197610" d="M828.767,66.04H788.288a2.968,2.968,0,0,0-3.279,3.245q0,12.431,0,24.863A2.974,2.974,0,0,0,788.28,97.4h13.84c1.566,0,1.552,0,1.527,1.544-.006.365-.128.428-.455.423q-1.745-.027-3.491,0a2.936,2.936,0,1,0,.013,5.873q8.818.017,17.637,0a2.937,2.937,0,1,0,0-5.873c-.857-.013-1.715,0-2.572,0-1.358,0-1.333,0-1.374-1.339-.015-.5.1-.637.619-.635,4.919.023,9.839.014,14.758.013a2.974,2.974,0,0,0,3.267-3.261q0-12.4,0-24.8A2.975,2.975,0,0,0,828.767,66.04Zm-41.8,3.34c0-1.088.289-1.379,1.371-1.379h40.411c1.039,0,1.341.3,1.341,1.348q0,9.8.012,19.593c0,.5-.1.635-.618.634q-10.5-.03-21-.014c-6.96,0-13.919-.008-20.879.015-.552,0-.651-.145-.65-.665C786.975,82.4,786.969,75.891,786.969,69.38ZM817.1,101.324c.773,0,1.22.359,1.226.969s-.443.988-1.207.989q-4.283,0-8.566,0t-8.566,0c-.809,0-1.271-.372-1.256-1,.014-.609.458-.958,1.237-.958Q808.536,101.322,817.1,101.324ZM807.094,97.4c1.3,0,2.6.015,3.9-.009.377-.007.472.094.473.472.005,1.5.02,1.5-1.443,1.5H808.5c-.834,0-1.668-.012-2.5.006-.307.007-.408-.069-.414-.4C805.555,97.4,805.542,97.4,807.094,97.4Zm23.011-5.267c-.05.711-.007,1.428-.014,2.142-.008.8-.364,1.161-1.157,1.164-2.041.006-4.081,0-6.122,0h-34.4c-1.17,0-1.439-.269-1.44-1.434,0-.714.01-1.429-.005-2.143-.006-.259.058-.373.337-.349.263.023.53,0,.8,0h20.447q10.468,0,20.937-.013C829.987,91.508,830.142,91.622,830.106,92.136Z" transform="translate(-60.24 -101.062)" fill="#083142"/>
      <path id="Trazado_197611" data-name="Trazado 197611" d="M728.691-36c3.9,0,7.8.008,11.7,0a3.917,3.917,0,0,0,3.976-3.692,3.9,3.9,0,0,0-3.527-4.114c-.454-.048-.425-.21-.408-.552a5.672,5.672,0,0,0-2.756-5.44,5.578,5.578,0,0,0-6.135-.026c-.44.26-.5.073-.646-.257A7.808,7.808,0,0,0,721.1-54.3a7.821,7.821,0,0,0-4.909,9.52c.082.294.33.637.244.858-.113.29-.585.171-.872.323-.143.076-.3.126-.444.2a3.882,3.882,0,0,0-2.019,4.32,3.861,3.861,0,0,0,3.771,3.072C720.811-35.99,724.751-36,728.691-36ZM715.1-39.219a1.944,1.944,0,0,1,.538-2.173,1.883,1.883,0,0,1,1.224-.487c.326-.008.654-.015.98,0a1.137,1.137,0,0,0,1.165-.5,1.118,1.118,0,0,0-.169-1.251,5.726,5.726,0,0,1-.687-4.808,5.873,5.873,0,0,1,6.026-4.218,5.864,5.864,0,0,1,5.372,4.8c.092.533.237,1.008.835,1.149.545.128.859-.209,1.173-.59a3.879,3.879,0,0,1,4.916-.952,3.893,3.893,0,0,1,1.785,4.729c-.382,1.12-.016,1.637,1.16,1.64.306,0,.612,0,.919,0a1.978,1.978,0,0,1,2.076,1.949,1.969,1.969,0,0,1-2.055,1.968c-1.817.009-3.634,0-5.451,0h-6.247q-5.819,0-11.637,0A1.983,1.983,0,0,1,715.1-39.219Z" transform="translate(0)" fill="#083142"/>
      <path id="Trazado_197612" data-name="Trazado 197612" d="M941.411,26.017c3.243-.019,6.487-.011,9.731-.01,1.259,0,1.506.244,1.506,1.49,0,1.472,0,1.46,1.489,1.459.355,0,.516-.054.481-.458-.041-.466-.006-.938-.01-1.407a2.934,2.934,0,0,0-3.044-3.043c-1.652-.007-3.3,0-4.957,0h-4.284c-1.445,0-1.426,0-1.447,1.443C940.867,25.926,940.987,26.02,941.411,26.017Z" transform="translate(-190.634 -65.929)" fill="#083142"/>
      <path id="Trazado_197613" data-name="Trazado 197613" d="M747.556,104.771c-.448.022-.9.008-1.346.006-.923,0-1.26-.333-1.262-1.243q0-3.029,0-6.057c0-1.563,0-1.55-1.541-1.531-.359,0-.432.117-.427.449.018,1.244.007,2.488.007,3.732q0,1.621,0,3.243c0,2.24,1.136,3.367,3.4,3.367,1.6,0,1.6,0,1.512-1.618C747.883,104.862,747.834,104.757,747.556,104.771Z" transform="translate(-25.08 -126.077)" fill="#083142"/>
      <path id="Trazado_197614" data-name="Trazado 197614" d="M917.955,26.017c.963,0,.963,0,.963-.936,0-1.024,0-1.024-1-1.024-.963,0-.963,0-.963.936C916.958,26.017,916.958,26.017,917.955,26.017Z" transform="translate(-170.627 -65.939)" fill="#083142"/>
      <path id="Trazado_197615" data-name="Trazado 197615" d="M743.027,73.005c0,.993,0,.993.967.993.993,0,.993,0,.993-.967,0-.993,0-.993-.967-.993C743.027,72.038,743.027,72.038,743.027,73.005Z" transform="translate(-25.118 -106.079)" fill="#083142"/>
      <path id="Trazado_197616" data-name="Trazado 197616" d="M822.233,103.747q4.651,0,9.3,0c.871,0,1.216-.349,1.218-1.226q.005-2.785,0-5.569,0-2.846,0-5.692c0-.885-.34-1.232-1.21-1.233q-4.651,0-9.3,0c-.915,0-1.247.335-1.248,1.255q0,5.6,0,11.2C820.994,103.4,821.327,103.746,822.233,103.747Zm1.15-11.768q3.491.023,6.982,0c.346,0,.439.092.437.438q-.02,4.471,0,8.942c0,.346-.092.44-.437.437q-3.491-.023-6.982,0c-.346,0-.442-.092-.437-.438.019-1.49.008-2.98.008-4.471s.011-2.981-.008-4.471C822.941,92.069,823.037,91.976,823.383,91.979Z" transform="translate(-90.343 -121.127)" fill="#083142"/>
      <path id="Trazado_197617" data-name="Trazado 197617" d="M906.106,97.861q3.732.008,7.463,0c.828,0,1.18-.36,1.182-1.2q.007-2.722,0-5.444c0-.838-.353-1.191-1.185-1.195-1.244-.005-2.488,0-3.732,0s-2.488-.005-3.731,0c-.791,0-1.148.367-1.15,1.167q-.008,2.753,0,5.505C904.955,97.494,905.314,97.859,906.106,97.861Zm.8-5.51c0-.295.081-.377.375-.375q2.572.02,5.144,0c.294,0,.38.079.375.374q-.025,1.592,0,3.184c0,.294-.08.381-.375.375-.857-.019-1.714-.007-2.572-.007s-1.715-.012-2.572.007c-.294.006-.38-.08-.375-.375Q906.93,93.943,906.9,92.35Z" transform="translate(-160.58 -121.123)" fill="#083142"/>
      <path id="Trazado_197618" data-name="Trazado 197618" d="M978.089,97.859c1.244.006,2.488,0,3.732,0,1.264,0,2.529.007,3.793,0a.986.986,0,0,0,1.1-1.09q.015-2.814,0-5.628a1,1,0,0,0-1.138-1.118q-3.762-.008-7.524,0a.994.994,0,0,0-1.134,1.12q-.011,2.783,0,5.567C976.924,97.5,977.29,97.856,978.089,97.859Zm1.159-5.886c.857.019,1.714.007,2.572.007s1.715.012,2.572-.007c.3-.006.379.081.375.375q-.026,1.592,0,3.184c0,.3-.082.377-.376.374q-2.572-.02-5.144,0c-.294,0-.379-.081-.375-.375q.025-1.592,0-3.184C978.868,92.053,978.955,91.968,979.249,91.974Z" transform="translate(-220.787 -121.122)" fill="#083142"/>
      <path id="Trazado_197619" data-name="Trazado 197619" d="M906.084,157.834q3.762.009,7.524,0a1,1,0,0,0,1.135-1.121q.012-2.783,0-5.567c0-.789-.369-1.145-1.169-1.149-1.244-.006-2.488,0-3.732,0-1.264,0-2.529-.007-3.793,0a.983.983,0,0,0-1.1,1.089q-.014,2.814,0,5.628A1,1,0,0,0,906.084,157.834Zm1.19-5.885c.857.019,1.714.007,2.572.007s1.715.012,2.572-.007c.295-.007.38.08.375.375q-.025,1.592,0,3.184c0,.295-.082.377-.375.374q-2.572-.02-5.144,0c-.294,0-.38-.08-.375-.375q.026-1.592,0-3.184C906.894,152.029,906.98,151.943,907.274,151.949Z" transform="translate(-160.574 -171.296)" fill="#083142"/>
      <path id="Trazado_197620" data-name="Trazado 197620" d="M985.549,150q-3.732-.006-7.463,0c-.8,0-1.159.361-1.162,1.155q-.009,2.753,0,5.505c0,.827.36,1.175,1.2,1.178,1.223,0,2.447,0,3.67,0,1.264,0,2.528.006,3.793,0a1,1,0,0,0,1.132-1.125q.012-2.783,0-5.567C986.718,150.358,986.351,150,985.549,150Zm-1.265,5.886c-.836-.022-1.674-.007-2.51-.007-.816,0-1.633-.015-2.449.007-.329.009-.46-.059-.451-.425.026-1.02.021-2.041,0-3.061-.006-.329.06-.455.425-.45,1.673.02,3.348.017,5.021,0,.328,0,.46.059.451.425-.026,1.02-.033,2.042,0,3.061C984.789,155.851,984.628,155.9,984.284,155.886Z" transform="translate(-220.79 -171.299)" fill="#083142"/>
      <path id="Trazado_197621" data-name="Trazado 197621" d="M821.481,187.914c3.246-.022,6.492-.012,9.737-.012,1.489,0,1.473,0,1.482-1.469,0-.4-.1-.506-.5-.5-1.776.023-3.552.01-5.328.01H822.34c-1.417,0-1.4,0-1.423,1.408C820.907,187.808,821.023,187.917,821.481,187.914Z" transform="translate(-90.279 -201.362)" fill="#083142"/>
    </g>
  </g>
</svg>
