<svg xmlns="http://www.w3.org/2000/svg" width="112" height="112" viewBox="0 0 112 112">
  <g id="Grupo_1079622" data-name="Grupo 1079622" transform="translate(-1102 -1005)">
    <circle id="Elipse_10770" data-name="Elipse 10770" cx="56" cy="56" r="56" transform="translate(1102 1005)" fill="#fff"/>
    <g id="Grupo_1078218" data-name="Grupo 1078218" transform="translate(392.966 1112.022)">
      <path id="Trazado_197604" data-name="Trazado 197604" d="M787.393-36.623c-.413-.065-.65-.117-.478-.657a5.447,5.447,0,0,0,.263-2c-.034-.517.168-.678.636-.8a13.588,13.588,0,0,0,4.771-2.011,3.421,3.421,0,0,0,1.52-2.966q-.044-14.148.009-28.3a3.71,3.71,0,0,0-1.863-3.4,14.536,14.536,0,0,0-4.113-1.715A44.972,44.972,0,0,0,778-79.884a52.076,52.076,0,0,0-15.42,1.433,12.449,12.449,0,0,0-4.5,2.022,3.318,3.318,0,0,0-1.4,2.835c.034,5.217.006,10.435.028,15.652,0,.523-.128.638-.636.605a12.334,12.334,0,0,0-3.533.357A13.755,13.755,0,0,0,742.258-40.65a15.741,15.741,0,0,0,1.493,3.9c-.7.071-1.351.016-2,.116a7.876,7.876,0,0,0-6.7,8.352,7.866,7.866,0,0,0,7.8,7.27q21.741.021,43.482,0a7.839,7.839,0,0,0,6.842-11.514A7.621,7.621,0,0,0,787.393-36.623Zm4.089-7.092a12.519,12.519,0,0,1-4.278,1.771c-.4.109-.3-.262-.343-.415a10.8,10.8,0,0,0-3.9-5.864c-.254-.2-.523-.377-.875-.631,3.5-.5,6.9-1.009,10.036-2.758,0,2.326-.01,4.556.008,6.786A1.3,1.3,0,0,1,791.482-43.715Zm-.136-9.723a14.073,14.073,0,0,1-4.431,1.729,51.628,51.628,0,0,1-14.157,1.176c-1.68-.061-3.351-.231-5.019-.436a.965.965,0,0,1-.746-.441,13.493,13.493,0,0,0-7.881-5.48.514.514,0,0,1-.462-.615c.023-1.285.009-2.57.009-3.926a26.658,26.658,0,0,0,9.962,2.716,58.467,58.467,0,0,0,12.394.122,33.45,33.45,0,0,0,9.273-1.957c.6-.238,1.176-.546,1.832-.854v3.183c0,1.1-.039,2.211.014,3.313A1.521,1.521,0,0,1,791.346-53.438Zm-20.933,4.721-1.507,1.19-.5-1.359ZM759.247-74.875a12.889,12.889,0,0,1,4.628-1.875,49.5,49.5,0,0,1,11.715-1.237,46.894,46.894,0,0,1,12.2,1.473,11.93,11.93,0,0,1,3.593,1.527c.961.66.969,1.224,0,1.87a15.2,15.2,0,0,1-5.5,2,54.428,54.428,0,0,1-15.35.789,36.44,36.44,0,0,1-8.374-1.515,9.809,9.809,0,0,1-2.921-1.383C758.472-73.8,758.464-74.3,759.247-74.875Zm-.588,4.27v-.616c4.445,2.267,9.216,2.772,14.027,2.989a48.912,48.912,0,0,0,16.177-1.633,14.718,14.718,0,0,0,3.257-1.407c0,2.345-.011,4.575.008,6.8a1.312,1.312,0,0,1-.7,1.141,13.2,13.2,0,0,1-4.47,1.786,50.672,50.672,0,0,1-14.092,1.184,42.488,42.488,0,0,1-9.468-1.3A13.391,13.391,0,0,1,759.4-63.29a1.518,1.518,0,0,1-.751-1.425C758.687-66.677,758.659-68.641,758.659-70.6Zm27.466,47.626c-7.2.016-14.391,0-21.586,0q-10.762,0-21.524,0a5.891,5.891,0,0,1-6-6.154,5.9,5.9,0,0,1,5.606-5.616c.921-.033,1.845-.021,2.767-.009a1.076,1.076,0,0,0,1.13-.562,1.12,1.12,0,0,0-.253-1.235,11.751,11.751,0,0,1,6.71-18.515,11.794,11.794,0,0,1,14.313,9.277c.029.161.072.32.094.481a.953.953,0,0,0,.736.876.947.947,0,0,0,1.072-.408,9.127,9.127,0,0,1,2.871-2.546,8.862,8.862,0,0,1,13.077,6.494,8.907,8.907,0,0,1-.546,4.509c-.4,1.04-.007,1.662,1.1,1.615a5.989,5.989,0,0,1,6.047,3.834A5.89,5.89,0,0,1,786.125-22.979Z" transform="translate(0 -0.05)" fill="#083142"/>
      <path id="Trazado_197605" data-name="Trazado 197605" d="M739.268-75.8a8.817,8.817,0,0,1,11.1-.517c.355.262.742.8,1.036.746.383-.065.667-.614,1.032-.906.381-.305.237-.483-.054-.739A10.907,10.907,0,0,0,745.2-80a10.908,10.908,0,0,0-6.572,2.171c-1.248.925-1.233.918-.169,2.005C738.765-75.516,738.916-75.48,739.268-75.8Z" transform="translate(-2.211 0)" fill="#083142"/>
      <path id="Trazado_197606" data-name="Trazado 197606" d="M768.017-26.158a2.962,2.962,0,0,0,2.941-2.986,2.954,2.954,0,0,0-2.959-2.9,2.96,2.96,0,0,0-2.941,2.985A2.961,2.961,0,0,0,768.017-26.158ZM768-30.085a.994.994,0,0,1,1,.952,1,1,0,0,1-.938,1.012,1,1,0,0,1-1.028-.982A.994.994,0,0,1,768-30.085Z" transform="translate(-25.097 -40.085)" fill="#083142"/>
      <path id="Trazado_197607" data-name="Trazado 197607" d="M780.087,19.681a.993.993,0,0,1-1.109-1.092c-.01-.449,0-.9,0-1.349,0-1.517,0-1.5-1.524-1.5-.41,0-.461.144-.451.491.023.817,0,1.635.009,2.452a2.939,2.939,0,0,0,2.96,2.96c.88.013,1.761,0,2.642,0h1.782c1.49,0,1.474,0,1.483-1.475,0-.4-.109-.5-.505-.5C783.61,19.7,781.848,19.69,780.087,19.681Z" transform="translate(-35.079 -80.033)" fill="#083142"/>
      <path id="Trazado_197608" data-name="Trazado 197608" d="M761.454-53.357c.358.208.652.741,1.037.614s.657-.588.979-.9a.369.369,0,0,1,.044-.042c.3-.211.243-.377-.019-.6a6.86,6.86,0,0,0-4.308-1.716,7.148,7.148,0,0,0-4.355,1.369c-.809.6-.809.6-.114,1.287a4.438,4.438,0,0,1,.39.391c.234.3.4.3.727.043A4.877,4.877,0,0,1,761.454-53.357Z" transform="translate(-16.03 -20.057)" fill="#083142"/>
      <path id="Trazado_197609" data-name="Trazado 197609" d="M843.954,41.729c1.04,0,1.04,0,1.04-1.049,0-.916,0-.916-.928-.916-1.04,0-1.04,0-1.04,1.049C843.026,41.729,843.026,41.729,843.954,41.729Z" transform="translate(-90.271 -100.114)" fill="#083142"/>
    </g>
  </g>
</svg>
