<svg xmlns="http://www.w3.org/2000/svg" width="84.462" height="59.189" viewBox="0 0 84.462 59.189">
  <g id="Grupo_163467" data-name="Grupo 163467" transform="translate(-1226.313 -1151.389)">
    <path id="Trazado_220053" data-name="Trazado 220053" d="M1259.944,1200a2.693,2.693,0,0,0-.55-.014q-14.522,0-29.044,0c-1.512,0-1.893-.383-1.893-1.921q0-18.066-.01-36.133c0-.631.16-.783.786-.782q16.725.03,33.449.014,16.793,0,33.587-.013c.569,0,.719.141.716.713-.026,4.2-.014,8.4-.013,12.6a4.125,4.125,0,0,0,.013.619.983.983,0,0,0,1.021.92.965.965,0,0,0,1.056-.873,5.5,5.5,0,0,0,.033-.892c0-6.286-.057-12.573.03-18.858a3.772,3.772,0,0,0-3.962-3.985q-32.485.05-64.971.009a3.7,3.7,0,0,0-3.879,3.843c.046,14.43.019,28.861.023,43.291a3.459,3.459,0,0,0,3.643,3.622q14.763.01,29.526,0a1.952,1.952,0,0,0,.544-.048,1.029,1.029,0,0,0,.814-1.06A1.049,1.049,0,0,0,1259.944,1200Zm-31.5-41.685c.049-.984.012-1.972.014-2.959,0-1.341.435-1.783,1.762-1.783h64.906c1.426,0,1.838.415,1.839,1.844,0,.987-.03,1.975.013,2.959.022.512-.114.661-.64.655-2.753-.028-5.505-.013-8.259-.013h-25.4v0q-16.76,0-33.52.013C1228.6,1159.03,1228.42,1158.894,1228.448,1158.317Z" fill="#083142"/>
    <path id="Trazado_220054" data-name="Trazado 220054" d="M1351,1211.1a7.364,7.364,0,0,0-.719-.224,1.118,1.118,0,0,1-.876-.8,1.3,1.3,0,0,1,.212-1.491,6.821,6.821,0,0,0,.495-.743,1.528,1.528,0,0,0-.16-2.118c-.547-.617-1.109-1.222-1.659-1.838-1.437-1.608-1.552-1.639-3.474-.621a1.3,1.3,0,0,1-1.434.12,1.385,1.385,0,0,1-.812-1.122,9.391,9.391,0,0,0-.247-1.14,1.444,1.444,0,0,0-1.414-1.175c-.778-.05-1.557-.087-2.335-.125-2.2-.108-2.537-.372-3.283,2.332a.939.939,0,0,1-.585.668,1.563,1.563,0,0,1-1.8-.228,2.441,2.441,0,0,0-1.576-.757,1.453,1.453,0,0,0-1.058.41c-.9.817-1.812,1.619-2.7,2.447a1.408,1.408,0,0,0-.344,1.808c.223.476.484.933.724,1.4a.607.607,0,0,1,.07.571c-.283.71-.617,1.3-1.522,1.279a3.342,3.342,0,0,0-.935.2,1.432,1.432,0,0,0-1.153,1.43c-.048.8-.052,1.605-.127,2.4-.258,2.72.343,2.561,2.22,3.153a1.215,1.215,0,0,1,.833.77,1.317,1.317,0,0,1-.214,1.551,6.415,6.415,0,0,0-.531.8,1.5,1.5,0,0,0,.143,1.951c.788.894,1.584,1.782,2.4,2.654a1.425,1.425,0,0,0,1.918.345,9.546,9.546,0,0,0,1.033-.54,1.206,1.206,0,0,1,1.253-.041,1.322,1.322,0,0,1,.861,1.163,9.975,9.975,0,0,0,.27,1.2,1.369,1.369,0,0,0,1.279,1.073c1.281.089,2.563.136,3.846.185a1.4,1.4,0,0,0,1.426-.978,7.433,7.433,0,0,0,.391-1.241,1.17,1.17,0,0,1,.865-.906,1.187,1.187,0,0,1,1.367.178,7.228,7.228,0,0,0,.976.637,1.463,1.463,0,0,0,1.839-.146q1.371-1.2,2.7-2.443a1.425,1.425,0,0,0,.327-1.923c-.219-.452-.463-.893-.689-1.342a.485.485,0,0,1-.064-.5c.319-.657.548-1.363,1.5-1.319a3.194,3.194,0,0,0,.935-.205,1.453,1.453,0,0,0,1.187-1.474q.083-1.579.152-3.159C1352.563,1211.852,1352.323,1211.517,1351,1211.1Zm-.846,3.7c-.009.756-.248,1.106-1.026,1.14-1.115.048-1.665.684-2.2,1.7-.738,1.4-.9,2.568.072,3.836.123.161.225.336-.007.534-.488.416-.954.859-1.431,1.29a2.434,2.434,0,0,1-.218.156c-.174-.109-.331-.2-.483-.3-.346-.224-.695-.444-1.034-.678a1.268,1.268,0,0,0-1.361-.1,7.546,7.546,0,0,1-1.739.628,1.476,1.476,0,0,0-1.212,1.145c-.492,1.617-.513,1.585-2.2,1.521-.578-.022-.876-.193-.919-.786-.023-.317-.126-.628-.181-.943a1.417,1.417,0,0,0-1.057-1.216,6.932,6.932,0,0,1-1.668-.8,1.33,1.33,0,0,0-1.426-.036c-.526.265-1.076.84-1.577.7s-.809-.826-1.247-1.224c-.38-.345-.417-.648-.07-1.018.092-.1.136-.242.227-.343a1.957,1.957,0,0,0,.265-2.621,1.031,1.031,0,0,1-.158-.45,2.31,2.31,0,0,0-2.252-2.163c-.571-.084-.69-.395-.66-.95.089-1.705.06-1.714,1.741-2.072a1.5,1.5,0,0,0,1.233-1.045,8.65,8.65,0,0,1,.766-1.605,1.494,1.494,0,0,0,.019-1.611c-.776-1.478-.736-1.464.453-2.619.435-.422.76-.557,1.236-.114a8.512,8.512,0,0,0,.8.538,1.362,1.362,0,0,0,1.545.13,7.082,7.082,0,0,1,1.741-.621,1.4,1.4,0,0,0,1.107-1.079c.511-1.642.523-1.614,2.249-1.562.553.017.842.173.887.743.025.317.127.628.176.944a1.436,1.436,0,0,0,1.025,1.243,9.63,9.63,0,0,1,1.668.8,1.368,1.368,0,0,0,1.484.042c.5-.274,1.059-.761,1.521-.69.55.084.841.844,1.3,1.25a.591.591,0,0,1,.062.978c-.18.2-.287.47-.459.683a1.646,1.646,0,0,0-.163,2.031,4.422,4.422,0,0,1,.448,1.29,1.684,1.684,0,0,0,1.344,1.375C1350.218,1213.267,1350.169,1213.294,1350.151,1214.8Z" transform="translate(-41.738 -20.619)" fill="#083142"/>
    <path id="Trazado_220055" data-name="Trazado 220055" d="M1294.3,1196.712a3.808,3.808,0,0,0,.367-4.151,3.9,3.9,0,0,0-3.717-2.272c-3.876-.018-7.753.006-11.629.011q-10.735.016-21.469.026a4.036,4.036,0,1,0-.234,8.062c5.551.018,11.1.005,16.653.005v-.023q8.326,0,16.653,0A3.944,3.944,0,0,0,1294.3,1196.712Zm-20-.5v.029q-8.256,0-16.513,0a1.892,1.892,0,1,1-.06-3.766c2.408-.012,4.816-.011,7.224-.013q12.935-.008,25.87-.012a1.874,1.874,0,0,1,2.1,1.85,1.817,1.817,0,0,1-1.906,1.9c-2.935.014-5.871.014-8.806.017Q1278.254,1196.219,1274.3,1196.216Z" transform="translate(-11.587 -16.58)" fill="#083142"/>
    <path id="Trazado_220056" data-name="Trazado 220056" d="M1313.663,1230.073c-.36-.8-.962-1.095-1.633-.8a1.164,1.164,0,0,0-.519,1.681.494.494,0,0,1-.215.728,2.357,2.357,0,0,0-.49.376.633.633,0,0,1-1.078.007,1.917,1.917,0,0,0-2.474-.468,2.2,2.2,0,0,1-.793.21,1.548,1.548,0,0,0-1.417,1.189c-.374,1.035-.4.952-1.511.877-.694-.048-.727-.434-.773-.917-.017-.182-.024-.367-.055-.547-.153-.889-2.539-2.418-3.4-2.157-.391.119-.756.326-1.138.475-.116.045-.271.187-.371.072a7.333,7.333,0,0,1-.965-1.241c-.18-.331.236-.558.426-.769a1.772,1.772,0,0,0,.384-2.188,2.563,2.563,0,0,1-.252-.923,1.565,1.565,0,0,0-1.183-1.427c-1.013-.368-.967-.4-.9-1.48.037-.586.3-.813.839-.8a1.818,1.818,0,0,0,1.978-1.351,1.279,1.279,0,0,1,.269-.477,1.9,1.9,0,0,0,.185-2.507c-.046-.078-.061-.176-.111-.25-.182-.271-.1-.455.161-.619a2.892,2.892,0,0,0,.541-.422.653.653,0,0,1,1.089-.009,1.878,1.878,0,0,0,2.469.461,1.534,1.534,0,0,1,.657-.181,1.587,1.587,0,0,0,1.6-1.339c.169-.655.489-1.047,1.238-.765a1.213,1.213,0,0,0,.341.039c.381.026.589.145.635.606a1.114,1.114,0,0,0,1.3,1.032c.651-.068,1.04-.572,1.01-1.435-.022-.15-.06-.422-.1-.693-.209-1.312-.523-1.6-1.862-1.739-.455-.048-.912-.095-1.364-.172-2.067-.352-2.47-.246-3.179,1.773a.978.978,0,0,1-1.5.4c-.221-.163-.435-.336-.654-.5a1.536,1.536,0,0,0-2.229-.012q-1.063.817-2.118,1.644a1.467,1.467,0,0,0-.526,2.041,8.5,8.5,0,0,0,.344.822.811.811,0,0,1-.011.764c-.249.637-.777.617-1.291.671-1.383.143-1.754.508-1.9,1.864-.047.433-.092.866-.162,1.3-.368,2.272-.27,2.508,1.794,3.3a.969.969,0,0,1,.4,1.457c-.2.279-.424.541-.625.819a1.447,1.447,0,0,0,0,1.95q.884,1.184,1.806,2.34a1.455,1.455,0,0,0,1.893.479c.277-.108.551-.223.825-.339a1,1,0,0,1,1.466.826c.048.294.06.593.112.886a1.45,1.45,0,0,0,1.438,1.394c.906.135,1.814.263,2.724.365a1.549,1.549,0,0,0,1.909-1.158c.1-.233.188-.467.284-.7a.992.992,0,0,1,1.579-.416c.237.18.469.368.709.544a1.466,1.466,0,0,0,2.006.007c.752-.563,1.493-1.142,2.232-1.721a1.51,1.51,0,0,0,.528-2.054C1313.909,1230.614,1313.785,1230.344,1313.663,1230.073Z" transform="translate(-28.334 -25.833)" fill="#083142"/>
    <path id="Trazado_220057" data-name="Trazado 220057" d="M1310.721,1226.461a4.083,4.083,0,1,0,4.1,4.107A4.1,4.1,0,0,0,1310.721,1226.461Zm.025,5.85a1.789,1.789,0,0,1-1.812-1.761,1.771,1.771,0,0,1,1.726-1.772,1.767,1.767,0,1,1,.086,3.532Z" transform="translate(-34.231 -32.002)" fill="#083142"/>
    <path id="Trazado_220058" data-name="Trazado 220058" d="M1334.987,1160.608c.763,0,1.225-.394,1.231-1.053s-.459-1.073-1.213-1.075a1.119,1.119,0,0,0-1.25,1.057A1.1,1.1,0,0,0,1334.987,1160.608Z" transform="translate(-45.801 -3.023)" fill="#083142"/>
    <path id="Trazado_220059" data-name="Trazado 220059" d="M1341.608,1160.6c.764.008,1.236-.379,1.26-1.031s-.454-1.087-1.2-1.1-1.242.393-1.26,1.039A1.069,1.069,0,0,0,1341.608,1160.6Z" transform="translate(-48.636 -3.021)" fill="#083142"/>
    <path id="Trazado_220060" data-name="Trazado 220060" d="M1328.34,1160.607c.754-.007,1.219-.437,1.194-1.105-.023-.636-.478-1.02-1.214-1.023a1.085,1.085,0,0,0-1.234,1.077C1327.094,1160.209,1327.578,1160.615,1328.34,1160.607Z" transform="translate(-42.958 -3.022)" fill="#083142"/>
    <path id="Trazado_220061" data-name="Trazado 220061" d="M1350.466,1217.259a7.112,7.112,0,0,0-13.786,3.5,7.031,7.031,0,0,0,5.881,5.323l2.113,0h0l.058.016.053-.031c0-.2-.151-.312-.246-.461a.886.886,0,0,1,.219-1.3c.448-.341.089-.281-.129-.31l-.259.033a2.076,2.076,0,0,1-1.51,0,5,5,0,0,1-.4-9.792,5.007,5.007,0,0,1,5.9,3.393c.06.2.112.4.168.6a2.721,2.721,0,0,1-.005,1.786,9.311,9.311,0,0,1-.865,2.024c.752.375,1.036.258,1.121-.477a1.15,1.15,0,0,1,.219-.566c.138-.185.312-.387.567-.22.315.208.024.386-.069.568-.286.555-.16.74.507.739l.3-.677c0-.651-.622-.854-.932-1.283-.108-.149-.372-.248-.127-.5.207-.208.347-.092.52.054.26.219.543.41.816.612l.031-.033-.019-.04-.009-2.293A6.3,6.3,0,0,0,1350.466,1217.259Z" transform="translate(-46.967 -25.828)" fill="#083142"/>
    <path id="Trazado_220062" data-name="Trazado 220062" d="M1355.457,1228.848c-.385-.3-.107-.669-.05-1.079-.341.138-.364.4-.417.656-.162.78-.7.941-1.365.412a5.779,5.779,0,0,1-2.7,1.8c.169.053.283.149.084.369a1.15,1.15,0,0,0-.135,1.543.214.214,0,0,1-.056.25,6.583,6.583,0,0,0,5.214-3.986C1355.855,1229.115,1355.638,1228.989,1355.457,1228.848Z" transform="translate(-52.998 -32.56)" fill="#083142"/>
    <path id="Trazado_220063" data-name="Trazado 220063" d="M1350.681,1234.689a1.15,1.15,0,0,1,.135-1.543c.2-.22.084-.316-.084-.369-.089.029-.171.068-.262.093.218.029.576-.031.128.31a.886.886,0,0,0-.219,1.3c.1.149.249.26.246.461A.214.214,0,0,0,1350.681,1234.689Z" transform="translate(-52.807 -34.695)" fill="#083142"/>
    <path id="Trazado_220064" data-name="Trazado 220064" d="M1357.743,1227.84c.094-.181.385-.36.069-.567-.255-.167-.429.034-.567.22a1.152,1.152,0,0,0-.219.566c-.085.734-.37.852-1.121.477-.019.023-.041.041-.061.064.661.529,1.2.367,1.365-.412.053-.252.076-.518.417-.656-.057.41-.335.777.05,1.078.181.142.4.268.573-.03C1357.583,1228.579,1357.457,1228.4,1357.743,1227.84Z" transform="translate(-55.218 -32.321)" fill="#083142"/>
    <path id="Trazado_220065" data-name="Trazado 220065" d="M1359.034,1225.569c.088.368.374.523.563.738.228.259.492.5.309.9a2.4,2.4,0,0,0,.276-1.112C1359.7,1226.2,1359.512,1225.675,1359.034,1225.569Z" transform="translate(-56.577 -31.622)" fill="#083142"/>
    <path id="Trazado_220066" data-name="Trazado 220066" d="M1358.634,1225.232c-.246.247.019.347.127.5.31.428.929.632.932,1.283.182-.4-.081-.636-.309-.9-.189-.216-.475-.37-.563-.738.478.105.668.629,1.149.521-.273-.2-.556-.394-.816-.612C1358.98,1225.14,1358.84,1225.024,1358.634,1225.232Z" transform="translate(-56.363 -31.43)" fill="#083142"/>
    <path id="Trazado_220067" data-name="Trazado 220067" d="M1361.043,1222.353a10.216,10.216,0,0,1,.009,2.293A4.6,4.6,0,0,0,1361.043,1222.353Z" transform="translate(-57.434 -30.251)" fill="#083142"/>
    <path id="Trazado_220068" data-name="Trazado 220068" d="M1361.043,1222.353l.009,2.293A10.216,10.216,0,0,0,1361.043,1222.353Z" transform="translate(-57.434 -30.251)" fill="#083142"/>
    <path id="Trazado_220069" data-name="Trazado 220069" d="M1347.071,1236.567a3.978,3.978,0,0,0,2.113,0A7.871,7.871,0,0,1,1347.071,1236.567Z" transform="translate(-51.478 -36.31)" fill="#083142"/>
    <path id="Trazado_220070" data-name="Trazado 220070" d="M1347.071,1236.567a7.871,7.871,0,0,0,2.113,0h0Z" transform="translate(-51.478 -36.31)" fill="#083142"/>
    <path id="Trazado_220071" data-name="Trazado 220071" d="M1269.873,1195.509c-1.649,0-3.3,0-4.947,0-1.6,0-3.207,0-4.81,0-.85,0-1.306.377-1.312,1.058s.465,1.09,1.294,1.092q4.878.012,9.757,0c.819,0,1.318-.425,1.325-1.076S1270.686,1195.512,1269.873,1195.509Z" transform="translate(-13.851 -18.807)" fill="#083142"/>
    <path id="Trazado_220072" data-name="Trazado 220072" d="M1357.459,1224.665a2.721,2.721,0,0,0,.005-1.786A7.189,7.189,0,0,1,1357.459,1224.665Z" transform="translate(-55.906 -30.475)" fill="#083142"/>
    <path id="Trazado_220073" data-name="Trazado 220073" d="M1357.464,1222.878l-.005,1.786A7.189,7.189,0,0,0,1357.464,1222.878Z" transform="translate(-55.906 -30.475)" fill="#083142"/>
    <path id="Trazado_220074" data-name="Trazado 220074" d="M1347.592,1232.995a2.076,2.076,0,0,0,1.51,0A5.643,5.643,0,0,1,1347.592,1232.995Z" transform="translate(-51.7 -34.788)" fill="#083142"/>
  </g>
</svg>
