<svg id="Grupo_1079087" data-name="Grupo 1079087" xmlns="http://www.w3.org/2000/svg" xmlns:xlink="http://www.w3.org/1999/xlink" width="382" height="230.733" viewBox="0 0 382 230.733">
  <defs>
    <clipPath id="clip-path">
      <rect id="Rectángulo_379062" data-name="Rectángulo 379062" width="382" height="230.733" fill="none"/>
    </clipPath>
    <clipPath id="clip-path-5">
      <rect id="Rectángulo_379048" data-name="Rectángulo 379048" width="13.833" height="37.077" fill="none"/>
    </clipPath>
    <clipPath id="clip-path-10">
      <rect id="Rectángulo_379053" data-name="Rectángulo 379053" width="34.24" height="9.435" fill="none"/>
    </clipPath>
    <clipPath id="clip-path-11">
      <rect id="Rectángulo_379054" data-name="Rectángulo 379054" width="21.884" height="17.131" fill="none"/>
    </clipPath>
    <clipPath id="clip-path-12">
      <rect id="Rectángulo_379056" data-name="Rectángulo 379056" width="52.185" height="36.567" fill="none"/>
    </clipPath>
    <clipPath id="clip-path-13">
      <rect id="Rectángulo_379057" data-name="Rectángulo 379057" width="58.639" height="36.411" fill="none"/>
    </clipPath>
    <clipPath id="clip-path-14">
      <rect id="Rectángulo_379058" data-name="Rectángulo 379058" width="105.028" height="110.831" fill="none"/>
    </clipPath>
    <clipPath id="clip-path-15">
      <rect id="Rectángulo_379059" data-name="Rectángulo 379059" width="25.392" height="7.154" fill="none"/>
    </clipPath>
    <clipPath id="clip-path-16">
      <rect id="Rectángulo_379060" data-name="Rectángulo 379060" width="23.006" height="15.042" fill="none"/>
    </clipPath>
  </defs>
  <g id="Grupo_1079086" data-name="Grupo 1079086" clip-path="url(#clip-path)">
    <g id="Grupo_1079047" data-name="Grupo 1079047">
      <g id="Grupo_1079046" data-name="Grupo 1079046" clip-path="url(#clip-path)">
        <path id="Trazado_828046" data-name="Trazado 828046" d="M323.109,103.486a4.052,4.052,0,0,1-1.33-.224l-6.869-2.38a4.087,4.087,0,0,1-2.668-3.081l-1.373-7.139a4.088,4.088,0,0,1,1.335-3.851l5.5-4.759a4.085,4.085,0,0,1,4-.77l6.869,2.38a4.085,4.085,0,0,1,2.668,3.081l1.373,7.138a4.089,4.089,0,0,1-1.334,3.85l-5.5,4.759a4.087,4.087,0,0,1-2.672.994m-6.5-6.766,6.419,2.224,5.136-4.447-1.283-6.671L320.457,85.6l-5.136,4.447Z" transform="translate(-136.433 -35.584)" fill="#f5f5f5"/>
        <path id="Trazado_828047" data-name="Trazado 828047" d="M469.136,72.049a4.051,4.051,0,0,1-1.329-.223l-3.478-1.2a4.087,4.087,0,0,1-2.667-3.082l-.7-3.613a4.086,4.086,0,0,1,1.334-3.85l2.783-2.41a4.085,4.085,0,0,1,4-.769l3.476,1.205a4.086,4.086,0,0,1,2.668,3.082l.695,3.612a4.088,4.088,0,0,1-1.332,3.85l-2.783,2.41a4.088,4.088,0,0,1-2.673.993m-3.111-5.591,3.027,1.049,2.421-2.1-.605-3.145-3.027-1.049-2.421,2.1Z" transform="translate(-202.323 -24.879)" fill="#f5f5f5"/>
        <path id="Trazado_828048" data-name="Trazado 828048" d="M642.984,169.125a2.963,2.963,0,0,1-2.307-1.105l-1.958-2.444a2.963,2.963,0,0,1-.448-2.919l1.137-2.918a2.96,2.96,0,0,1,2.3-1.847l3.1-.475a2.962,2.962,0,0,1,2.751,1.072l1.959,2.444a2.961,2.961,0,0,1,.448,2.918l-1.137,2.918a2.961,2.961,0,0,1-2.3,1.847l-3.1.475a2.888,2.888,0,0,1-.444.034m2.27-9.5a.684.684,0,0,0-.107.008l-3.1.475a.709.709,0,0,0-.552.443l-1.138,2.918a.711.711,0,0,0,.108.7l1.959,2.444a.714.714,0,0,0,.66.257l3.1-.475a.709.709,0,0,0,.552-.443l1.138-2.918a.711.711,0,0,0-.108-.7l-1.959-2.444a.711.711,0,0,0-.554-.265" transform="translate(-280.1 -69.088)" fill="#e0e0e0"/>
        <path id="Trazado_828049" data-name="Trazado 828049" d="M17.274,205.1a3.808,3.808,0,0,1-2.965-1.422l-4.6-5.741a3.807,3.807,0,0,1-.575-3.751l2.671-6.858a3.807,3.807,0,0,1,2.961-2.374l7.275-1.115a3.8,3.8,0,0,1,3.536,1.377l4.6,5.742a3.806,3.806,0,0,1,.576,3.75l-2.672,6.858a3.806,3.806,0,0,1-2.961,2.374l-7.274,1.115a3.77,3.77,0,0,1-.571.043m-4.456-9.56,4.508,5.623,7.123-1.092,2.615-6.715-4.508-5.623-7.123,1.092Zm14.294-2.125Z" transform="translate(-3.895 -80.685)" fill="#e0e0e0"/>
        <path id="Trazado_828050" data-name="Trazado 828050" d="M49.627,121.639H45.289a2.961,2.961,0,0,1-2.558-1.477l-2.169-3.757a2.961,2.961,0,0,1,0-2.953l2.169-3.757a2.961,2.961,0,0,1,2.558-1.477h4.338a2.962,2.962,0,0,1,2.558,1.476l2.169,3.758a2.961,2.961,0,0,1,0,2.953l-2.169,3.758a2.962,2.962,0,0,1-2.558,1.476m-4.338-11.176a.711.711,0,0,0-.614.355l-2.169,3.757a.71.71,0,0,0,0,.709l2.169,3.757a.711.711,0,0,0,.614.355h4.338a.712.712,0,0,0,.615-.355l2.169-3.757a.71.71,0,0,0,0-.709l-2.169-3.757a.711.711,0,0,0-.615-.355Z" transform="translate(-17.633 -47.506)" fill="#ebebeb"/>
        <path id="Trazado_828051" data-name="Trazado 828051" d="M160.69,31.7l-8.459-5.323L141.846,8.846,127.4,0l-2.8,3.028L126.072,5l4.557,6.117,18.107,24.3,7.384,4.063Z" transform="translate(-54.698 0)" fill="#ebebeb"/>
        <path id="Trazado_828052" data-name="Trazado 828052" d="M144.491,48.859l-2.423-8.072L115.462,10.393l-3.547,2.1,5.617,15.981,15.445,15.17,3.461,9.475Z" transform="translate(-49.128 -4.562)" fill="#ebebeb"/>
        <path id="Trazado_828053" data-name="Trazado 828053" d="M191.294,59.176s30.045,16.488,36.1,22.055,20.194,28.741,18.758,31.7-2.535,3.34-5.795.494-13.792-18.75-16.624-21.32S185.708,68.89,185.708,68.89Z" transform="translate(-81.522 -25.977)" fill="#e0e0e0"/>
        <path id="Trazado_828054" data-name="Trazado 828054" d="M149.521,56.566a9.515,9.515,0,1,1,11.6-6.815,9.515,9.515,0,0,1-11.6,6.815" transform="translate(-62.51 -16.611)" fill="#ebebeb"/>
        <path id="Trazado_828055" data-name="Trazado 828055" d="M149.431,56.46a15.292,15.292,0,0,0,2.324.24,9.108,9.108,0,0,0,2.694-.4,9.406,9.406,0,0,0,6.706-9.927,8.82,8.82,0,0,0-.641-2.617,10.512,10.512,0,0,0-.609-1.256,10.658,10.658,0,0,0-.821-1.161,9.334,9.334,0,0,0-10.722-2.788,8.605,8.605,0,0,0-2.426,1.415,8.829,8.829,0,0,0-1.835,1.974,9.434,9.434,0,0,0,1.023,11.936,9.126,9.126,0,0,0,2.16,1.658,15.23,15.23,0,0,0,2.146.922.6.6,0,0,1-.151-.032l-.438-.122a4.354,4.354,0,0,1-.7-.243,6.7,6.7,0,0,1-.915-.425,8.986,8.986,0,0,1-2.222-1.644,9.6,9.6,0,0,1-2.792-7.4,9.644,9.644,0,0,1,1.663-4.8,9.044,9.044,0,0,1,1.881-2.038,8.845,8.845,0,0,1,2.5-1.465,9.595,9.595,0,0,1,11.049,2.873,8.823,8.823,0,0,1,1.467,2.494,9.059,9.059,0,0,1,.65,2.7,9.653,9.653,0,0,1-.885,5,9.6,9.6,0,0,1-6.043,5.105,9,9,0,0,1-2.741.355,6.71,6.71,0,0,1-1.006-.075,4.391,4.391,0,0,1-.728-.126l-.442-.106a.612.612,0,0,1-.148-.046" transform="translate(-62.42 -16.506)" fill="#e0e0e0"/>
        <path id="Trazado_828056" data-name="Trazado 828056" d="M153.806,55.8a5.372,5.372,0,1,1,6.551-3.848,5.373,5.373,0,0,1-6.551,3.848" transform="translate(-65.752 -19.853)" fill="#e0e0e0"/>
        <path id="Trazado_828057" data-name="Trazado 828057" d="M153.714,55.69a12.651,12.651,0,0,0,1.312.111,5.355,5.355,0,0,0,3.291-1.171A5.252,5.252,0,0,0,160.275,50a5.254,5.254,0,0,0-1.158-2.809,5.213,5.213,0,0,0-5.983-1.555,5.256,5.256,0,0,0-2.38,1.889,5.253,5.253,0,0,0-.543,5,5.357,5.357,0,0,0,2.3,2.625,12.814,12.814,0,0,0,1.2.543,4.092,4.092,0,0,1-1.254-.443,5.349,5.349,0,0,1-2.44-2.645,5.411,5.411,0,0,1-.432-2.488,5.5,5.5,0,0,1,.944-2.741,5.5,5.5,0,0,1,2.5-2,5.474,5.474,0,0,1,6.31,1.64,5.5,5.5,0,0,1,1.205,2.964,5.489,5.489,0,0,1-.51,2.853,5.405,5.405,0,0,1-1.589,1.963,5.35,5.35,0,0,1-3.419,1.123,4.1,4.1,0,0,1-1.311-.224" transform="translate(-65.661 -19.744)" fill="#e0e0e0"/>
        <path id="Trazado_828058" data-name="Trazado 828058" d="M177.86,61.071l3.886-6.764A4.143,4.143,0,0,1,187.4,52.78l.364.209a4.142,4.142,0,0,1,1.527,5.655l-3.886,6.764a4.143,4.143,0,0,1-5.655,1.528l-.364-.209a4.141,4.141,0,0,1-1.527-5.655" transform="translate(-77.835 -22.927)" fill="#ebebeb"/>
        <path id="Trazado_828059" data-name="Trazado 828059" d="M177.811,60.971a5.351,5.351,0,0,0-.466,1.58,4.233,4.233,0,0,0,.249,1.891,4.517,4.517,0,0,0,.581,1.041,4.235,4.235,0,0,0,.98.9,6.105,6.105,0,0,0,1.313.672,4.021,4.021,0,0,0,4.526-1.442c1.289-2.152,2.655-4.614,4.121-7.143a4.014,4.014,0,0,0,.02-3.947A3.916,3.916,0,0,0,187.8,53.11a4.861,4.861,0,0,0-1.726-.766,4.029,4.029,0,0,0-3.292.784,8.492,8.492,0,0,0-1.786,2.5l-2.307,3.922c-.266.44-.479.793-.64,1.059a2.439,2.439,0,0,1-.24.359,2.34,2.34,0,0,1,.189-.389c.15-.273.346-.634.592-1.086l2.227-3.968.742-1.312a4.406,4.406,0,0,1,1.072-1.278,4.27,4.27,0,0,1,3.5-.858,5.113,5.113,0,0,1,1.822.794,4.174,4.174,0,0,1,1.433,1.509,4.3,4.3,0,0,1-.015,4.233c-1.474,2.54-2.824,4.962-4.158,7.156a4.252,4.252,0,0,1-4.816,1.5,6.285,6.285,0,0,1-1.355-.714,4.378,4.378,0,0,1-1.012-.961,4.642,4.642,0,0,1-.587-1.1,4.094,4.094,0,0,1,.148-3.155,2.25,2.25,0,0,1,.223-.373" transform="translate(-77.786 -22.827)" fill="#e0e0e0"/>
        <path id="Trazado_828060" data-name="Trazado 828060" d="M157.618,92.006s11.383,32.326,15.891,39.2,25.074,24.6,28.228,23.663,3.708-1.958,1.429-5.637-16.258-16.657-18.332-19.869-16.723-41.292-16.723-41.292Z" transform="translate(-69.191 -38.663)" fill="#e0e0e0"/>
        <path id="Trazado_828061" data-name="Trazado 828061" d="M161.318,79.166,154.012,81.9a4.142,4.142,0,0,0-2.427,5.331l.147.393a4.142,4.142,0,0,0,5.331,2.426l7.306-2.735a4.141,4.141,0,0,0,2.426-5.331l-.147-.393a4.141,4.141,0,0,0-5.331-2.427" transform="translate(-66.427 -34.636)" fill="#ebebeb"/>
        <path id="Trazado_828062" data-name="Trazado 828062" d="M161.216,79.125a2.319,2.319,0,0,1,.4-.158,4.09,4.09,0,0,1,3.137.367,4.607,4.607,0,0,1,.987.757,4.384,4.384,0,0,1,.784,1.155,6.276,6.276,0,0,1,.484,1.454,4.253,4.253,0,0,1-2.26,4.509c-2.382.959-4.991,1.9-7.737,2.938a4.3,4.3,0,0,1-4.179-.673,4.183,4.183,0,0,1-1.257-1.66,5.128,5.128,0,0,1-.488-1.927,4.27,4.27,0,0,1,1.416-3.31,4.414,4.414,0,0,1,1.435-.849l1.415-.52,4.277-1.551,1.168-.408a2.43,2.43,0,0,1,.414-.123,2.422,2.422,0,0,1-.394.179l-1.148.459L155.429,81.4a8.481,8.481,0,0,0-2.76,1.355,4.027,4.027,0,0,0-1.309,3.121,4.862,4.862,0,0,0,.475,1.827,3.91,3.91,0,0,0,1.178,1.546,4.016,4.016,0,0,0,3.9.623c2.734-1.036,5.385-1.984,7.718-2.906a4.023,4.023,0,0,0,2.159-4.231,6.1,6.1,0,0,0-.449-1.4,4.225,4.225,0,0,0-.731-1.113,4.5,4.5,0,0,0-.932-.743,4.25,4.25,0,0,0-1.825-.554,5.385,5.385,0,0,0-1.635.2" transform="translate(-66.325 -34.595)" fill="#e0e0e0"/>
      </g>
    </g>
    <g id="Grupo_1079049" data-name="Grupo 1079049">
      <g id="Grupo_1079048" data-name="Grupo 1079048" clip-path="url(#clip-path)">
        <path id="Trazado_828063" data-name="Trazado 828063" d="M382,410.9c0,.081-85.52.146-190.991.146C85.5,411.046,0,410.981,0,410.9s85.5-.146,191.009-.146c105.471,0,190.991.065,190.991.146" transform="translate(0 -180.313)" fill="#263238"/>
      </g>
    </g>
    <g id="Grupo_1079060" data-name="Grupo 1079060">
      <g id="Grupo_1079059" data-name="Grupo 1079059" clip-path="url(#clip-path)">
        <path id="Trazado_828064" data-name="Trazado 828064" d="M53.163,240.087c.155-.47,17.636-57.614,17.636-57.614l-.438-7.1,4.572-7.528,5.679,1.875-.777,8.439L75.8,184.3,58.19,241.711Z" transform="translate(-23.337 -73.682)" fill="#e0e0e0"/>
        <path id="Trazado_828065" data-name="Trazado 828065" d="M53.163,239.95s.118.031.337.1l.971.3,3.734,1.176-.065.034c2.844-9.323,9.421-30.887,17.521-57.44l.006-.02.011-.017,4.034-6.136-.024.066c.248-2.692.511-5.547.776-8.439l.1.152-.469-.155-5.209-1.721.17-.063-4.573,7.527.02-.084q.222,3.63.435,7.1v.025l-.007.025L58.249,223.594l-3.718,12.012-1.005,3.222c-.115.362-.2.639-.265.835s-.1.287-.1.287.022-.091.075-.276.137-.467.243-.824l.962-3.205,3.633-12L70.664,182.3l-.006.049q-.215-3.463-.44-7.1l0-.045.023-.039,4.57-7.529.06-.1.111.036,5.209,1.72.47.155.11.036-.01.116c-.267,2.891-.53,5.747-.778,8.438l0,.036-.02.03-4.037,6.134.017-.036-17.7,57.386-.016.05-.049-.017-3.745-1.24-.952-.321c-.213-.072-.314-.112-.314-.112" transform="translate(-23.337 -73.545)" fill="#263238"/>
        <path id="Trazado_828066" data-name="Trazado 828066" d="M30.823,297.159l-7.851,10.616L11.993,347.6s-1.578,8.123,7.4,10.431c10.075,2.592,12.4-5.127,12.4-5.127l10.675-38.9-.16-13.5,2.635-2.967a1.111,1.111,0,0,0-.482-1.792L31.85,291.588A1.111,1.111,0,0,0,30.4,292.75Z" transform="translate(-5.218 -127.976)" fill="#ff725e"/>
        <path id="Trazado_828067" data-name="Trazado 828067" d="M57.1,305.461c-.025.077-2.667-.693-5.9-1.72s-5.837-1.921-5.813-2,2.667.693,5.9,1.72,5.837,1.921,5.813,2" transform="translate(-19.922 -132.457)" fill="#263238"/>
        <path id="Trazado_828068" data-name="Trazado 828068" d="M51.287,326.772a4.18,4.18,0,0,1-.787-.139c-.5-.107-1.226-.278-2.116-.5-1.781-.447-4.227-1.125-6.9-1.976s-5.056-1.719-6.767-2.387c-.856-.333-1.543-.613-2.015-.817a4.092,4.092,0,0,1-.721-.343,4.222,4.222,0,0,1,.762.237l2.046.729c1.726.617,4.118,1.45,6.783,2.3s5.1,1.557,6.861,2.055l2.09.591a4.22,4.22,0,0,1,.759.249" transform="translate(-14.041 -140.74)" fill="#263238"/>
        <g id="Grupo_1079052" data-name="Grupo 1079052" transform="translate(9.129 183.753)" opacity="0.3">
          <g id="Grupo_1079051" data-name="Grupo 1079051">
            <g id="Grupo_1079050" data-name="Grupo 1079050" clip-path="url(#clip-path-5)">
              <path id="Trazado_828069" data-name="Trazado 828069" d="M17.869,364.534l-.269-.08a1.853,1.853,0,0,1-1.251-2.3l9.857-33.29a1.853,1.853,0,0,1,2.3-1.251l.269.08a1.853,1.853,0,0,1,1.251,2.3l-9.857,33.29a1.853,1.853,0,0,1-2.3,1.251" transform="translate(-16.272 -327.534)"/>
            </g>
          </g>
        </g>
        <g id="Grupo_1079055" data-name="Grupo 1079055" transform="translate(14.726 185.596)" opacity="0.3">
          <g id="Grupo_1079054" data-name="Grupo 1079054">
            <g id="Grupo_1079053" data-name="Grupo 1079053" clip-path="url(#clip-path-5)">
              <path id="Trazado_828070" data-name="Trazado 828070" d="M27.845,367.818l-.269-.08a1.853,1.853,0,0,1-1.251-2.3l9.857-33.29a1.853,1.853,0,0,1,2.3-1.251l.269.08a1.853,1.853,0,0,1,1.251,2.3l-9.857,33.29a1.853,1.853,0,0,1-2.3,1.251" transform="translate(-26.248 -330.818)"/>
            </g>
          </g>
        </g>
        <g id="Grupo_1079058" data-name="Grupo 1079058" transform="translate(20.666 187.355)" opacity="0.3">
          <g id="Grupo_1079057" data-name="Grupo 1079057">
            <g id="Grupo_1079056" data-name="Grupo 1079056" clip-path="url(#clip-path-5)">
              <path id="Trazado_828071" data-name="Trazado 828071" d="M38.434,370.954l-.269-.08a1.853,1.853,0,0,1-1.251-2.3l9.857-33.29a1.853,1.853,0,0,1,2.3-1.251l.269.08a1.853,1.853,0,0,1,1.251,2.3L40.737,369.7a1.853,1.853,0,0,1-2.3,1.251" transform="translate(-36.837 -333.954)"/>
            </g>
          </g>
        </g>
        <path id="Trazado_828072" data-name="Trazado 828072" d="M89.578,195.8a11.619,11.619,0,0,1-2.5-.71,11.617,11.617,0,0,1-2.4-.986,11.658,11.658,0,0,1,2.5.71,11.618,11.618,0,0,1,2.4.986" transform="translate(-37.171 -85.205)" fill="#263238"/>
        <path id="Trazado_828073" data-name="Trazado 828073" d="M95.32,169.723a4.923,4.923,0,0,1-.2.787c-.162.545-.376,1.266-.637,2.145l-2.259,7.27-.043.141-.14-.049-2.584-.9-2.663-.934-.127-.045.036-.128c.811-2.884,1.523-5.412,2.047-7.274l.628-2.128a4.907,4.907,0,0,1,.26-.761,4.818,4.818,0,0,1-.164.787c-.139.546-.322,1.268-.546,2.15l-1.95,7.3-.091-.172,2.664.928,2.582.906-.183.092,2.355-7.239.719-2.12a4.907,4.907,0,0,1,.293-.756" transform="translate(-38.046 -73.682)" fill="#263238"/>
      </g>
    </g>
    <g id="Grupo_1079062" data-name="Grupo 1079062">
      <g id="Grupo_1079061" data-name="Grupo 1079061" clip-path="url(#clip-path)">
        <path id="Trazado_828074" data-name="Trazado 828074" d="M387.411,51.918a4.052,4.052,0,0,1-1.33-.223l-6.87-2.38a4.087,4.087,0,0,1-2.667-3.08l-1.373-7.14a4.084,4.084,0,0,1,1.335-3.851l5.5-4.759a4.088,4.088,0,0,1,4-.77l6.869,2.38a4.087,4.087,0,0,1,2.668,3.082l1.373,7.138a4.085,4.085,0,0,1-1.335,3.851l-5.5,4.759a4.084,4.084,0,0,1-2.672.993m-6.5-6.766,6.419,2.224,5.136-4.446-1.283-6.671-6.419-2.224-5.135,4.447Z" transform="translate(-164.66 -12.946)" fill="#e0e0e0"/>
        <path id="Trazado_828075" data-name="Trazado 828075" d="M384.362,48.6a2.853,2.853,0,0,1-.114-.444c-.07-.33-.164-.767-.282-1.316-.242-1.189-.58-2.852-.994-4.89a.11.11,0,0,1,.035-.1l5.116-4.469a.139.139,0,0,1,.136-.026l6.42,2.216.1.112v.005l0,.007,0,.014.006.027.01.055.021.109.042.219.084.436.165.865.325,1.7c.213,1.115.419,2.2.617,3.237a.138.138,0,0,1-.045.13L390.852,50.9a.109.109,0,0,1-.107.02l-4.7-1.684-1.262-.467a2.734,2.734,0,0,1-.423-.176,3.542,3.542,0,0,1,.469.134l1.3.419,4.69,1.57-.107.02,5.116-4.469-.045.13-.629-3.234-.328-1.7q-.083-.43-.167-.865l-.084-.436-.042-.219-.021-.109-.011-.055-.005-.027,0-.013v-.012l.094.109-6.415-2.232.135-.026-5.154,4.424.035-.1.882,4.866.229,1.342a3.53,3.53,0,0,1,.065.484" transform="translate(-168.116 -16.393)" fill="#263238"/>
        <path id="Trazado_828076" data-name="Trazado 828076" d="M387.305,51.8c0-.015.244-.006.695-.09a4.126,4.126,0,0,0,1.794-.826L395.372,46a4.01,4.01,0,0,0,1.256-1.995,4.1,4.1,0,0,0,.129-1.258,11.79,11.79,0,0,0-.222-1.322c-.352-1.808-.728-3.739-1.123-5.77A5.673,5.673,0,0,0,395,34.18a3.947,3.947,0,0,0-2.261-2.056l-1.581-.547-3.247-1.123-1.661-.575a4.621,4.621,0,0,0-1.685-.355,3.994,3.994,0,0,0-1.664.368,5.516,5.516,0,0,0-1.387,1l-2.6,2.248-2.5,2.169a3.953,3.953,0,0,0-1.279,2.708A5.591,5.591,0,0,0,375.3,39.5q.141.743.278,1.466l.532,2.8c.176.9.327,1.789.5,2.608a3.994,3.994,0,0,0,2.193,2.594c.328.147.682.255,1.012.375l1.878.663,3.007,1.068a16.854,16.854,0,0,0,1.906.635c.45.085.7.075.695.09a2.735,2.735,0,0,1-.7-.031,14.625,14.625,0,0,1-1.933-.585l-3.023-1.021-1.886-.642c-.333-.118-.678-.218-1.031-.372a4.189,4.189,0,0,1-2.33-2.714c-.191-.85-.342-1.714-.525-2.621s-.358-1.838-.546-2.8q-.14-.722-.284-1.465a5.865,5.865,0,0,1-.177-1.55,4.227,4.227,0,0,1,1.36-2.9l2.505-2.179,2.6-2.251c.224-.191.431-.383.674-.573a4.388,4.388,0,0,1,.781-.471,4.283,4.283,0,0,1,1.787-.4,4.916,4.916,0,0,1,1.78.371l1.66.576,3.245,1.127,1.582.55a4.229,4.229,0,0,1,2.416,2.208,5.923,5.923,0,0,1,.423,1.542c.386,2.033.753,3.965,1.1,5.775a11.9,11.9,0,0,1,.217,1.354,4.334,4.334,0,0,1-.145,1.33,4.221,4.221,0,0,1-1.339,2.093l-5.643,4.818a4.059,4.059,0,0,1-1.854.795,2.768,2.768,0,0,1-.7.031" transform="translate(-164.555 -12.832)" fill="#263238"/>
        <path id="Trazado_828077" data-name="Trazado 828077" d="M307.968,39.46a2.964,2.964,0,0,1-2.307-1.106L303.7,35.911a2.961,2.961,0,0,1-.448-2.92l1.137-2.918a2.961,2.961,0,0,1,2.3-1.847l3.1-.475a2.963,2.963,0,0,1,2.752,1.072l1.959,2.444a2.962,2.962,0,0,1,.448,2.918L313.812,37.1a2.961,2.961,0,0,1-2.3,1.847l-3.1.475a2.968,2.968,0,0,1-.444.034m2.269-9.5a.688.688,0,0,0-.107.008l-3.1.475a.71.71,0,0,0-.554.443l-1.137,2.918a.712.712,0,0,0,.108.7l1.959,2.443a.714.714,0,0,0,.661.258l3.1-.475a.71.71,0,0,0,.553-.443l1.137-2.918a.711.711,0,0,0-.108-.7l-1.959-2.444a.712.712,0,0,0-.554-.265" transform="translate(-133.034 -12.168)" fill="#e0e0e0"/>
        <path id="Trazado_828078" data-name="Trazado 828078" d="M311.886,31.707a.376.376,0,0,1,.241.011.714.714,0,0,1,.265.14,3.42,3.42,0,0,1,.266.3l1.594,1.915.259.318a.832.832,0,0,1,.155.454,1.113,1.113,0,0,1-.109.467q-.08.21-.162.426l-.7,1.844q-.094.243-.189.493a.855.855,0,0,1-.418.467,2.148,2.148,0,0,1-.577.131l-.555.087c-.757.113-1.5.243-2.337.351a.858.858,0,0,1-.639-.286l-.375-.466-.72-.9-.694-.871-.169-.212a.911.911,0,0,1-.158-.269.853.853,0,0,1,.013-.612l.729-1.835.333-.831a2.007,2.007,0,0,1,.19-.405.81.81,0,0,1,.361-.28c1.079-.2,1.9-.274,2.488-.357a4.015,4.015,0,0,1,.912-.074,1.135,1.135,0,0,1-.23.057l-.665.13c-.567.112-1.445.238-2.427.436a.6.6,0,0,0-.263.214,1.913,1.913,0,0,0-.156.362l-.316.837-.7,1.845a.579.579,0,0,0-.006.42,1.78,1.78,0,0,0,.286.4l.7.867.724.9.366.453a.565.565,0,0,0,.421.188l2.294-.342.556-.084a2.033,2.033,0,0,0,.5-.1.577.577,0,0,0,.287-.316l.194-.491.729-1.835.169-.423a.891.891,0,0,0,.1-.377.61.61,0,0,0-.107-.335l-.243-.314-1.522-1.973a.935.935,0,0,0-.684-.518" transform="translate(-134.684 -13.913)" fill="#263238"/>
        <path id="Trazado_828079" data-name="Trazado 828079" d="M307.873,39.346a1.884,1.884,0,0,1,.374-.058l1.071-.187,1.7-.286a4.086,4.086,0,0,0,1.021-.248,2.869,2.869,0,0,0,.957-.65,2.935,2.935,0,0,0,.663-1.085q.248-.646.514-1.342c.3-.939.933-1.9.705-2.97a2.955,2.955,0,0,0-.72-1.456l-1.121-1.394-.576-.716a3.223,3.223,0,0,0-.627-.638,2.826,2.826,0,0,0-1.691-.564,6.228,6.228,0,0,0-.931.108l-.937.143-1.823.283a2.828,2.828,0,0,0-1.929,1.506c-.116.24-.212.518-.316.774l-.6,1.519a7.949,7.949,0,0,0-.491,1.427,2.955,2.955,0,0,0,.766,2.462l1.409,1.792a7.528,7.528,0,0,0,.59.712,2.916,2.916,0,0,0,.613.461,3.632,3.632,0,0,0,1.381.407c0,.005-.033.009-.1.012a2.07,2.07,0,0,1-.285-.008,2.863,2.863,0,0,1-1.052-.311,2.952,2.952,0,0,1-.655-.461,7.364,7.364,0,0,1-.621-.711L303.72,36.1a3.164,3.164,0,0,1-.844-2.629,7.972,7.972,0,0,1,.491-1.483l.587-1.523c.105-.262.19-.521.321-.8a3.1,3.1,0,0,1,2.114-1.664c.616-.109,1.216-.192,1.84-.291l.937-.144a6.423,6.423,0,0,1,.976-.112,3.113,3.113,0,0,1,1.866.624,3.521,3.521,0,0,1,.678.691l.574.718,1.116,1.4a3.226,3.226,0,0,1,.768,1.585,3.077,3.077,0,0,1-.179,1.672l-.566,1.432-.53,1.336a3.133,3.133,0,0,1-.727,1.148,3.278,3.278,0,0,1-2.1.915l-1.706.236c-.468.061-.831.114-1.081.133a1.843,1.843,0,0,1-.382,0" transform="translate(-132.94 -12.054)" fill="#263238"/>
        <path id="Trazado_828080" data-name="Trazado 828080" d="M406.72,35.591a8.533,8.533,0,0,1-1.445,1.849,6.976,6.976,0,0,1-1.766,1.548,14.929,14.929,0,0,1,1.552-1.747,10.641,10.641,0,0,1,1.659-1.651" transform="translate(-177.131 -15.622)" fill="#263238"/>
        <path id="Trazado_828081" data-name="Trazado 828081" d="M390.472,29.843a6.76,6.76,0,0,1,.751,2.122,6.751,6.751,0,0,1,.3,2.232,12.372,12.372,0,0,1-.581-2.163,12.318,12.318,0,0,1-.467-2.19" transform="translate(-171.403 -13.1)" fill="#263238"/>
        <path id="Trazado_828082" data-name="Trazado 828082" d="M379.675,44.259a13.143,13.143,0,0,1-2.157-.618,13.056,13.056,0,0,1-2.129-.709,10.382,10.382,0,0,1,4.286,1.327" transform="translate(-164.788 -18.837)" fill="#263238"/>
        <path id="Trazado_828083" data-name="Trazado 828083" d="M380.889,60.3a6.735,6.735,0,0,1,1.147-1.6,6.745,6.745,0,0,1,1.371-1.414,6.706,6.706,0,0,1-1.147,1.6,6.731,6.731,0,0,1-1.371,1.414" transform="translate(-167.2 -25.146)" fill="#263238"/>
        <path id="Trazado_828084" data-name="Trazado 828084" d="M397.315,65.276a5.956,5.956,0,0,1-.395-1.809,5.935,5.935,0,0,1-.105-1.849,5.974,5.974,0,0,1,.395,1.809,5.979,5.979,0,0,1,.105,1.849" transform="translate(-174.176 -27.049)" fill="#263238"/>
        <path id="Trazado_828085" data-name="Trazado 828085" d="M409.455,54.347a10.163,10.163,0,0,1-3.205-1.232,10.163,10.163,0,0,1,3.205,1.232" transform="translate(-178.335 -23.31)" fill="#263238"/>
      </g>
    </g>
    <g id="Grupo_1079085" data-name="Grupo 1079085">
      <g id="Grupo_1079084" data-name="Grupo 1079084" clip-path="url(#clip-path)">
        <path id="Trazado_828086" data-name="Trazado 828086" d="M610.484,101.758A103.282,103.282,0,0,0,621.042,87.4a36.083,36.083,0,0,0,5.2-16.877c.021-.9-.368-7.161-1.235-7.411-.619-.179-1.045,5.347-1.552,5.744-4.843,3.792-7.992,9.42-9.8,15.3a80.587,80.587,0,0,0-3.174,17.6" transform="translate(-267.99 -27.703)" fill="#263238"/>
        <path id="Trazado_828087" data-name="Trazado 828087" d="M521.967,122.315c1.515-3.919,8.968-23.54,8.938-23.552,0,0-12.854-6.69-8.441-20.31,2.132-6.579,7.624-19.77,12.732-31.649a26.671,26.671,0,0,1,33.038-14.727l1.308.442c13.833,5.589,16.814,20.46,10.843,34.134l-27.471,63.675-24.088-7.446Z" transform="translate(-228.946 -13.463)" fill="#ffc09d"/>
        <path id="Trazado_828088" data-name="Trazado 828088" d="M537.182,152.044a34.58,34.58,0,0,0,19.423.742s-7.642,8.634-20.764,2.842Z" transform="translate(-235.223 -66.744)" fill="#ff9b6c"/>
        <path id="Trazado_828089" data-name="Trazado 828089" d="M545.779,81.817a2.044,2.044,0,0,0,1.207,2.585,1.956,1.956,0,0,0,2.586-1.073,2.045,2.045,0,0,0-1.206-2.585,1.956,1.956,0,0,0-2.588,1.073" transform="translate(-239.532 -35.379)" fill="#263238"/>
        <path id="Trazado_828090" data-name="Trazado 828090" d="M547.653,70.381c.154.334,1.989-.257,4.071.452,2.09.679,3.258,2.268,3.57,2.089.149-.075.059-.614-.444-1.324a5.61,5.61,0,0,0-2.752-1.984,5.392,5.392,0,0,0-3.348-.045c-.806.275-1.178.659-1.1.812" transform="translate(-240.404 -30.432)" fill="#263238"/>
        <path id="Trazado_828091" data-name="Trazado 828091" d="M578.372,94.922a2.044,2.044,0,0,0,1.208,2.585,1.955,1.955,0,0,0,2.586-1.072,2.046,2.046,0,0,0-1.206-2.585,1.957,1.957,0,0,0-2.589,1.073" transform="translate(-253.84 -41.132)" fill="#263238"/>
        <path id="Trazado_828092" data-name="Trazado 828092" d="M583.536,84.172c.155.334,1.991-.256,4.072.453,2.09.679,3.258,2.268,3.57,2.089.149-.076.06-.613-.444-1.324a5.606,5.606,0,0,0-2.752-1.984,5.391,5.391,0,0,0-3.347-.045c-.805.276-1.178.659-1.1.812" transform="translate(-256.156 -36.487)" fill="#263238"/>
        <path id="Trazado_828093" data-name="Trazado 828093" d="M556.74,95.706a14.569,14.569,0,0,0-3.179-1.754c-.514-.235-.982-.511-.949-.9a2.869,2.869,0,0,1,.888-1.458l2.943-3.522c4.135-5.032,7.319-9.242,7.115-9.407s-3.721,3.78-7.855,8.813q-1.511,1.868-2.885,3.568a3.254,3.254,0,0,0-.981,2,1.406,1.406,0,0,0,.612,1.073,3.774,3.774,0,0,0,.861.431,14.338,14.338,0,0,0,3.43,1.164" transform="translate(-242.245 -34.529)" fill="#263238"/>
        <path id="Trazado_828094" data-name="Trazado 828094" d="M563.98,115.3c-.333-.134-1.1,2.127-3.58,3.078s-4.8-.11-4.927.2c-.08.131.389.621,1.4.992a5.946,5.946,0,0,0,4.07-.039,5.178,5.178,0,0,0,2.856-2.63c.406-.917.343-1.562.184-1.6" transform="translate(-243.838 -50.613)" fill="#263238"/>
        <path id="Trazado_828095" data-name="Trazado 828095" d="M588.84,69.476c.014.636,2.186,1.07,4.532,2.191,2.368,1.073,4.1,2.455,4.594,2.057.227-.195.063-.844-.549-1.662a8.748,8.748,0,0,0-6.953-3.235c-1.02.058-1.622.351-1.625.65" transform="translate(-258.489 -30.209)" fill="#263238"/>
        <path id="Trazado_828096" data-name="Trazado 828096" d="M553.357,58.413c.207.6,1.809.591,3.543,1.151,1.754.5,3.081,1.395,3.585,1.013.228-.19.159-.742-.329-1.406a5.393,5.393,0,0,0-5.744-1.744c-.774.281-1.139.7-1.055.986" transform="translate(-242.907 -25.103)" fill="#263238"/>
        <path id="Trazado_828097" data-name="Trazado 828097" d="M614.479,112.04c.265-.022,10.25.39,6.823,9.563s-11.93,3.84-11.848,3.57,5.025-13.133,5.025-13.133" transform="translate(-267.538 -49.183)" fill="#ffc09d"/>
        <path id="Trazado_828098" data-name="Trazado 828098" d="M616.743,125.88c.052-.015.118.172.342.4a1.7,1.7,0,0,0,1.185.471c1.1.007,2.493-1.227,3.155-2.863a5.636,5.636,0,0,0,.407-2.455,1.97,1.97,0,0,0-.743-1.676.868.868,0,0,0-1.107.086c-.219.21-.229.415-.283.413-.034.013-.14-.227.076-.578a1.086,1.086,0,0,1,.576-.44,1.286,1.286,0,0,1,.971.1,2.4,2.4,0,0,1,1.138,2.045,5.79,5.79,0,0,1-.4,2.764c-.75,1.826-2.342,3.2-3.811,3.09a1.828,1.828,0,0,1-1.371-.789c-.2-.333-.171-.556-.133-.56" transform="translate(-270.725 -52.316)" fill="#ff9b6c"/>
        <path id="Trazado_828099" data-name="Trazado 828099" d="M566.672,32.738c-1.166-1.384,5.112-4.472,9.381-4.726,6.452-.384,15.433,1.3,19.948,4.682,5.436,4.07,9.34,9.05,10.272,15.778a38.512,38.512,0,0,1-3.009,19.908,11.7,11.7,0,0,1-3.431,5.091c-2.052,1.531-4.991,1.864-5.954,4.693a4.1,4.1,0,0,1-2.021,2.426c-2.355,1.138-3.76-1.319-4.058-3.357-.635-4.352.782-8.713,2.179-12.883.994-2.964,2.018-5.987,3.915-8.473,1.032-1.352,2.3-2.516,3.258-3.923a5.883,5.883,0,0,0,1.1-4.813,6.136,6.136,0,0,0-.454-1.036,10.213,10.213,0,0,0-8.768-5.43c-5.847-.154-15.682-.808-17.308-3.436-2.339-3.781-2.5-5.724-2.5-5.724Z" transform="translate(-248.695 -12.273)" fill="#263238"/>
        <path id="Trazado_828100" data-name="Trazado 828100" d="M575.472,24.1c.588.3,14.373,8.815,14.282,21.235S587.391,60.8,587.391,60.8a7.7,7.7,0,0,1,1.1,1.878c.37.944-1.744,4.14-3.559,3.074-12.377-11.484-29.432-18.078-48.889-24.1l-14.677-5.253c-4.292-.94-5.364-2.534-3.267-2.971,1.608-.335,14.938-1.009,14.938-1.009l2.879-.886,8.99-6.346s-.348-1.433,1.477-1.9,17.481-5.072,29.091.82" transform="translate(-226.978 -9.274)" fill="#ff725e"/>
        <path id="Trazado_828101" data-name="Trazado 828101" d="M550.667,39.662s.2.078.573.2l1.658.53c1.448.43,3.51,1.159,6.043,2.093a120.392,120.392,0,0,1,18.935,9.243,185.26,185.26,0,0,1,17.4,11.927c2.154,1.631,3.869,2.989,5.06,3.918l1.374,1.069c.315.242.49.359.49.359s-.152-.144-.457-.4L600.4,67.5c-1.172-.954-2.871-2.333-5.012-3.985a172.832,172.832,0,0,0-17.38-12.005,115.219,115.219,0,0,0-19-9.192c-5.084-1.856-8.34-2.651-8.34-2.651" transform="translate(-241.731 -17.411)" fill="#263238"/>
        <g id="Grupo_1079065" data-name="Grupo 1079065" transform="translate(325.646 16.649)" opacity="0.3">
          <g id="Grupo_1079064" data-name="Grupo 1079064">
            <g id="Grupo_1079063" data-name="Grupo 1079063" clip-path="url(#clip-path-10)">
              <path id="Trazado_828102" data-name="Trazado 828102" d="M614.693,39.11s-15.213-8.143-23.617-7.155l.982-.134-7.846.653c-1.325.111-2.847.15-3.759-.817a33.783,33.783,0,0,1,12.286-1.98c7.523.039,18.561,2.737,21.954,9.434" transform="translate(-580.453 -29.676)"/>
            </g>
          </g>
        </g>
        <path id="Trazado_828103" data-name="Trazado 828103" d="M608.841,38.693a12.062,12.062,0,0,0-1.118-1.442,21.232,21.232,0,0,0-3.69-3.335,25.25,25.25,0,0,0-6.563-3.362,21.2,21.2,0,0,0-8.921-1.239,38.184,38.184,0,0,0-4.624.762c-1.473.335-2.9.584-4.252.959a22.9,22.9,0,0,1-3.808.907,7.353,7.353,0,0,1-3.328-.443c-3.978-1.307-6.127-2.961-5.862-3.151a.667.667,0,0,0,.209.421,5.351,5.351,0,0,0,1.075.828,22.773,22.773,0,0,0,4.521,2.078,7.509,7.509,0,0,0,3.408.483,22.645,22.645,0,0,0,3.85-.89c1.328-.362,2.771-.609,4.241-.94a38.7,38.7,0,0,1,4.593-.752,21.174,21.174,0,0,1,8.82,1.206,25.606,25.606,0,0,1,6.534,3.285,22.429,22.429,0,0,1,3.721,3.252c.4.431.691.777.882,1.019s.312.355.312.355" transform="translate(-248.749 -12.445)" fill="#263238"/>
        <g id="Grupo_1079068" data-name="Grupo 1079068" transform="translate(340.695 26.868)" opacity="0.3">
          <g id="Grupo_1079067" data-name="Grupo 1079067">
            <g id="Grupo_1079066" data-name="Grupo 1079066" clip-path="url(#clip-path-11)">
              <path id="Trazado_828104" data-name="Trazado 828104" d="M629.162,62.214c-2.881-1.013-4.814-2.514-7.466-4.127-2.825-1.718-5.67-3.287-8.41-5.138-2.079-1.4-4.6-2.889-5.525-5.059a3.536,3.536,0,0,0-.054,3.476c.589,1.144,3.09,3.125,4.154,3.848,6.064,4.122,10.279,6.939,17.057,9.808a21.01,21.01,0,0,0,.244-2.808" transform="translate(-607.278 -47.891)"/>
            </g>
          </g>
        </g>
        <path id="Trazado_828105" data-name="Trazado 828105" d="M629.434,54.827c1.557,1.422,2.5,2.343,2.013,3.919-.4,1.312-1.21,2.808-2.566,2.6a3.375,3.375,0,0,1-1.147-.492L609.179,49.983a3.13,3.13,0,0,1-1.54-1.476,2.132,2.132,0,0,1,1.633-2.5,5.85,5.85,0,0,1,3.285.371,70.118,70.118,0,0,1,16.878,8.452" transform="translate(-266.705 -20.144)" fill="#ff725e"/>
        <path id="Trazado_828106" data-name="Trazado 828106" d="M607.8,48.381a2.025,2.025,0,0,1-.237-1.054,2.642,2.642,0,0,1,1.683-2.234,6.557,6.557,0,0,1,4.314.49c1.571.63,3.293,1.346,5.07,2.158a55.968,55.968,0,0,1,8.736,4.848c1.056.723,1.872,1.363,2.435,1.807l.642.518a1.212,1.212,0,0,0,.236.168,1.251,1.251,0,0,0-.2-.208l-.612-.557c-.544-.469-1.345-1.134-2.393-1.881a51.294,51.294,0,0,0-8.734-4.935c-1.784-.815-3.509-1.525-5.091-2.144a6.646,6.646,0,0,0-4.468-.439,2.735,2.735,0,0,0-1.719,2.4,1.786,1.786,0,0,0,.174.817.968.968,0,0,0,.165.24" transform="translate(-266.664 -19.62)" fill="#263238"/>
        <path id="Trazado_828107" data-name="Trazado 828107" d="M559.175,31.9l12.632,4.046-2.273,3.171L556,34.145Z" transform="translate(-244.071 -14.003)" fill="#fff"/>
        <path id="Trazado_828108" data-name="Trazado 828108" d="M569.987,54.032c.033-.065-5.285-2.784-11.876-6.072s-11.961-5.9-11.993-5.839,5.284,2.783,11.877,6.073,11.96,5.9,11.992,5.838" transform="translate(-239.734 -18.49)" fill="#263238"/>
        <path id="Trazado_828109" data-name="Trazado 828109" d="M512.993,168.007l.166-8.292-28.376,10.541s-5.244-17.035-5.244-17.839l-6.289,3.953L462.8,151.875l-10.452-5.165-21.141,37-22.177,65.394,52.261,34.851,38.744-41.522,23.554-35.891,12.95-22.734Z" transform="translate(-179.555 -64.403)" fill="#ff725e"/>
        <path id="Trazado_828110" data-name="Trazado 828110" d="M532.134,178.124a5.354,5.354,0,0,1-.044-.829c-.007-.581-.017-1.36-.029-2.325l.128.081a35.49,35.49,0,0,0-8.545,5.851l-.227.212-.017-.31c-.021-.369-.043-.762-.066-1.16-.227-4.067-.417-7.749-.54-10.416-.054-1.3-.1-2.37-.13-3.159-.009-.346-.015-.63-.021-.859a1.142,1.142,0,0,1,.013-.3,1.19,1.19,0,0,1,.046.3l.075.857c.056.787.131,1.854.223,3.153.175,2.664.4,6.344.625,10.411.022.4.044.791.064,1.16l-.244-.1a33.244,33.244,0,0,1,8.666-5.8l.131-.059,0,.141c-.022.966-.04,1.744-.054,2.325a5.3,5.3,0,0,1-.053.829" transform="translate(-229.43 -72.392)" fill="#263238"/>
        <path id="Trazado_828111" data-name="Trazado 828111" d="M570.151,185.381a1.749,1.749,0,0,1-.323.176l-.95.451-3.516,1.61-11.647,5.21-5.533,2.444-.236.1.044-.254a43.638,43.638,0,0,0,.646-7.985l.132.079-2.619,1.273-.7.327a.134.134,0,1,1-.022-.045l.679-.369,2.582-1.348.127-.066,0,.145a40.746,40.746,0,0,1-.556,8.036l-.191-.149,5.527-2.46,11.682-5.132,3.555-1.525.972-.4a1.777,1.777,0,0,1,.347-.122" transform="translate(-239.33 -81.378)" fill="#263238"/>
        <path id="Trazado_828112" data-name="Trazado 828112" d="M327.645,275.736h-213.7a8.173,8.173,0,0,1-8.173-8.172V119.6a8.173,8.173,0,0,1,8.173-8.172h213.7a8.172,8.172,0,0,1,8.172,8.172V267.563a8.172,8.172,0,0,1-8.172,8.172" transform="translate(-46.433 -48.914)" fill="#455a64"/>
        <path id="Trazado_828113" data-name="Trazado 828113" d="M329,399.765H99.736a9.985,9.985,0,0,1-9.985-9.985v-4.392H338.984v4.392A9.985,9.985,0,0,1,329,399.765" transform="translate(-39.399 -169.177)" fill="#455a64"/>
        <rect id="Rectángulo_379055" data-name="Rectángulo 379055" width="217.048" height="138.757" transform="translate(65.518 69.041)" fill="#263238"/>
        <path id="Trazado_828114" data-name="Trazado 828114" d="M270.375,382.641l3.093,5.313h43.519l2.872-5.313Z" transform="translate(-118.689 -167.971)" fill="#263238"/>
        <path id="Trazado_828115" data-name="Trazado 828115" d="M331.47,265.051H126.588a1.836,1.836,0,0,1-1.836-1.836V133.272a1.836,1.836,0,0,1,1.836-1.836H331.47a1.836,1.836,0,0,1,1.836,1.836V263.215a1.836,1.836,0,0,1-1.836,1.836" transform="translate(-54.764 -57.698)" fill="#ebebeb"/>
        <path id="Trazado_828116" data-name="Trazado 828116" d="M332.907,273.06H124.353l.223-123.825h208.33Z" transform="translate(-54.589 -65.511)" fill="#fafafa"/>
        <path id="Trazado_828117" data-name="Trazado 828117" d="M153.3,139.227a1.719,1.719,0,1,1-1.718-1.8,1.76,1.76,0,0,1,1.718,1.8" transform="translate(-65.787 -60.328)" fill="#263238"/>
        <path id="Trazado_828118" data-name="Trazado 828118" d="M134.743,139.227a1.719,1.719,0,1,1-1.717-1.8,1.76,1.76,0,0,1,1.717,1.8" transform="translate(-57.642 -60.328)" fill="#263238"/>
        <path id="Trazado_828119" data-name="Trazado 828119" d="M144.279,139.227a1.719,1.719,0,1,1-1.717-1.8,1.76,1.76,0,0,1,1.717,1.8" transform="translate(-61.828 -60.328)" fill="#263238"/>
        <path id="Trazado_828120" data-name="Trazado 828120" d="M333.841,382.515c0,.089-51.058.161-114.027.161-62.991,0-114.038-.072-114.038-.161s51.047-.161,114.038-.161c62.969,0,114.027.072,114.027.161" transform="translate(-46.434 -167.846)" fill="#263238"/>
        <path id="Trazado_828121" data-name="Trazado 828121" d="M246.468,179.233a44.432,44.432,0,0,1,10.85-4.715l2.235-10.74,18.146-.318,2.611,10.654a44.447,44.447,0,0,1,11.011,4.331l9.17-6.011,13.057,12.607-5.684,9.374a44.459,44.459,0,0,1,4.715,10.853l10.739,2.235.319,18.146-10.654,2.612a44.47,44.47,0,0,1-4.331,11.008l6.01,9.172-12.6,13.057-9.376-5.685a44.453,44.453,0,0,1-10.852,4.715l-2.235,10.74-18.145.319-2.612-10.655a44.49,44.49,0,0,1-11.009-4.332l-9.171,6.011L225.6,250l5.685-9.375a44.433,44.433,0,0,1-4.716-10.852l-10.74-2.235-.318-18.145,10.654-2.613a44.5,44.5,0,0,1,4.331-11.009l-6.011-9.171,12.605-13.057Zm9.673,24.173a19.469,19.469,0,1,0,27.529-.484,19.469,19.469,0,0,0-27.529.484" transform="translate(-94.605 -71.755)" fill="#e0e0e0"/>
        <path id="Trazado_828122" data-name="Trazado 828122" d="M397.074,191.414a15.326,15.326,0,0,1,1.264-3.877l-2.26-3.032,4.066-4.755,3.345,1.762a15.328,15.328,0,0,1,3.634-1.85l.546-3.74,6.237-.487,1.119,3.61a15.309,15.309,0,0,1,3.878,1.264l3.031-2.26,4.755,4.066-1.762,3.346a15.313,15.313,0,0,1,1.85,3.634l3.74.546.488,6.236L427.4,197a15.3,15.3,0,0,1-1.264,3.877l2.26,3.032-4.065,4.754-3.346-1.762a15.356,15.356,0,0,1-3.634,1.85l-.545,3.74-6.237.487-1.119-3.61a15.33,15.33,0,0,1-3.878-1.264l-3.032,2.26L397.78,206.3l1.761-3.346a15.357,15.357,0,0,1-1.85-3.634l-3.74-.546-.488-6.236Zm8.452,1.891a6.714,6.714,0,1,0,5.52-5.993,6.716,6.716,0,0,0-5.52,5.993" transform="translate(-172.723 -77.012)" fill="#e0e0e0"/>
        <path id="Trazado_828123" data-name="Trazado 828123" d="M153.226,298.624a18.1,18.1,0,0,1,.781-4.75l-3.179-3.133,3.893-6.274,4.218,1.457a18.094,18.094,0,0,1,3.909-2.81l-.033-4.461L170,276.969l1.952,4.011a18.081,18.081,0,0,1,4.751.781l3.132-3.179,6.275,3.893-1.456,4.219a18.091,18.091,0,0,1,2.808,3.909l4.462-.033,1.684,7.189-4.011,1.952a18.08,18.08,0,0,1-.782,4.75L192,307.6l-3.892,6.274-4.219-1.456a18.106,18.106,0,0,1-3.909,2.809l.033,4.461-7.189,1.684-1.952-4.011a18.053,18.053,0,0,1-4.75-.781l-3.133,3.179-6.274-3.893,1.456-4.219a18.1,18.1,0,0,1-2.809-3.909l-4.461.033-1.685-7.189Zm10.4,2.024a7.921,7.921,0,1,0,5.906-9.519,7.921,7.921,0,0,0-5.906,9.519" transform="translate(-65.502 -121.584)" fill="#e0e0e0"/>
        <path id="Trazado_828124" data-name="Trazado 828124" d="M177.247,199.294a11.557,11.557,0,0,1,.953-2.923l-1.7-2.286,3.065-3.584,2.522,1.328a11.555,11.555,0,0,1,2.74-1.395l.411-2.82,4.7-.367.844,2.722a11.526,11.526,0,0,1,2.923.953l2.286-1.7,3.584,3.065-1.328,2.522a11.567,11.567,0,0,1,1.4,2.74l2.819.411.367,4.7-2.721.844a11.556,11.556,0,0,1-.953,2.923l1.7,2.286-3.065,3.584-2.522-1.329a11.554,11.554,0,0,1-2.739,1.4l-.411,2.82-4.7.367-.844-2.721a11.542,11.542,0,0,1-2.923-.953l-2.285,1.7-3.584-3.065,1.328-2.523a11.543,11.543,0,0,1-1.4-2.739l-2.82-.411-.367-4.7Zm6.369,2.284a5.059,5.059,0,1,0,4.65-5.438,5.059,5.059,0,0,0-4.65,5.438" transform="translate(-76.613 -82.198)" fill="#ebebeb"/>
        <path id="Trazado_828125" data-name="Trazado 828125" d="M398.49,290.874a9.932,9.932,0,0,1,.818-2.511l-1.463-1.963,2.633-3.079,2.166,1.141a9.939,9.939,0,0,1,2.353-1.2l.353-2.422,4.039-.315.725,2.337a9.94,9.94,0,0,1,2.512.819l1.963-1.463,3.079,2.633-1.141,2.167a9.922,9.922,0,0,1,1.2,2.353l2.422.353.316,4.039-2.338.725a9.936,9.936,0,0,1-.819,2.511l1.464,1.964-2.633,3.079-2.167-1.141a9.936,9.936,0,0,1-2.353,1.2l-.353,2.422-4.039.316L406.5,302.5a9.912,9.912,0,0,1-2.511-.819l-1.963,1.464-3.079-2.633,1.141-2.167a9.924,9.924,0,0,1-1.2-2.353l-2.422-.353-.315-4.039Zm5.471,1.962a4.346,4.346,0,1,0,3.994-4.671,4.346,4.346,0,0,0-3.994,4.671" transform="translate(-173.903 -123.145)" fill="#ebebeb"/>
        <path id="Trazado_828126" data-name="Trazado 828126" d="M282.7,257.336H254.784a9.364,9.364,0,0,1-8.11-14.046l13.957-24.173,13.956-24.173a9.364,9.364,0,0,1,16.219,0l13.957,24.173,13.956,24.173a9.364,9.364,0,0,1-8.11,14.046Z" transform="translate(-107.728 -83.521)" fill="#ff725e"/>
        <path id="Trazado_828127" data-name="Trazado 828127" d="M317.933,250.435s.078.144.218.434a3.858,3.858,0,0,1-.37,3.6,3.807,3.807,0,0,1-1.052,1.048,3.449,3.449,0,0,1-1.605.524c-4.756.051-11.625.043-20.119.063l-29.835.031-4.262,0a3.674,3.674,0,0,1-3.439-2.488,4.059,4.059,0,0,1-.141-2.26c.049-.186.109-.369.17-.552.082-.173.16-.354.247-.522l.538-.984,2.178-3.984,9.077-16.594,9.085-16.6,4.322-7.89c.36-.643.688-1.287,1.069-1.921a4.379,4.379,0,0,1,1.57-1.559,4.62,4.62,0,0,1,4.221-.189,4.408,4.408,0,0,1,1.668,1.332,18.387,18.387,0,0,1,1.05,1.8l1.94,3.552,3.709,6.793c2.392,4.383,4.619,8.467,6.653,12.2l9.616,17.668,2.6,4.81.67,1.254c.149.284.219.433.219.433s-.087-.139-.246-.418l-.7-1.24-2.649-4.784-9.7-17.624-6.685-12.177-3.722-6.787-1.946-3.549a18.445,18.445,0,0,0-1.031-1.764,4.133,4.133,0,0,0-1.57-1.251,4.348,4.348,0,0,0-3.969.182,4.088,4.088,0,0,0-1.472,1.466c-.367.612-.7,1.272-1.061,1.911l-4.315,7.894-9.08,16.6-9.083,16.591-2.181,3.983a8.4,8.4,0,0,0-.929,1.985,3.777,3.777,0,0,0,.13,2.1,3.4,3.4,0,0,0,3.177,2.309l4.262,0,29.835.031,20.111.03a3.347,3.347,0,0,0,1.559-.5,3.736,3.736,0,0,0,1.033-1.012,3.814,3.814,0,0,0,.667-2.155,4.159,4.159,0,0,0-.443-1.828" transform="translate(-112.919 -87.873)" fill="#263238"/>
        <path id="Trazado_828128" data-name="Trazado 828128" d="M303.822,260.725c0-2.475,1.972-4.321,4.783-4.321s4.741,1.846,4.741,4.321a4.776,4.776,0,0,1-9.524,0m.042-25.341h9.482l-1.594,18.67h-6.335Z" transform="translate(-133.372 -103.329)" fill="#fff"/>
        <path id="Trazado_828129" data-name="Trazado 828129" d="M306.987,193.193a7.691,7.691,0,0,0-1.777-.366,6.284,6.284,0,0,0-4.045,1.353,10.167,10.167,0,0,0-2.675,3.434c-.509,1.01-.748,1.676-.793,1.659a1.561,1.561,0,0,1,.117-.484,11.81,11.81,0,0,1,.49-1.264,9.474,9.474,0,0,1,2.681-3.575,6.169,6.169,0,0,1,4.239-1.328,4.264,4.264,0,0,1,1.327.325,1.354,1.354,0,0,1,.435.247" transform="translate(-130.681 -84.547)" fill="#fff"/>
        <path id="Trazado_828130" data-name="Trazado 828130" d="M293.448,209.984a3.733,3.733,0,0,1,.614-1.325c.408-.691.8-1.218.866-1.176a7.305,7.305,0,0,1-1.48,2.5" transform="translate(-128.813 -91.079)" fill="#fff"/>
        <g id="Grupo_1079071" data-name="Grupo 1079071" transform="translate(139.855 121.629)" opacity="0.3">
          <g id="Grupo_1079070" data-name="Grupo 1079070">
            <g id="Grupo_1079069" data-name="Grupo 1079069" clip-path="url(#clip-path-12)">
              <path id="Trazado_828131" data-name="Trazado 828131" d="M298.4,216.8l-43.47,26.786-5.647,9.78,52.186-31.251Z" transform="translate(-249.286 -216.8)" fill="#fff"/>
            </g>
          </g>
        </g>
        <g id="Grupo_1079074" data-name="Grupo 1079074" transform="translate(138.196 133.5)" opacity="0.3">
          <g id="Grupo_1079073" data-name="Grupo 1079073">
            <g id="Grupo_1079072" data-name="Grupo 1079072" clip-path="url(#clip-path-13)">
              <path id="Trazado_828132" data-name="Trazado 828132" d="M303.949,237.959l-57.62,33.989a6.085,6.085,0,0,0,1.252,2.422l57.387-34.646Z" transform="translate(-246.329 -237.959)" fill="#fff"/>
            </g>
          </g>
        </g>
        <path id="Trazado_828133" data-name="Trazado 828133" d="M524.126,286.94a16.967,16.967,0,0,0-17.753-4.754L501,276.294l-.748-.837-42.484-46.613a16.968,16.968,0,0,0-17.962-23.529l-2.075.825,7.227,4.853-.383,7.88-5.842,5.3-7.88-.383-5.151-5.678-2.129.832c-.61,4.756,2.578,10.744,6.052,14.573a16.967,16.967,0,0,0,17.725,4.762l43.2,47.394,1.329,1.473,4.094,4.492a16.966,16.966,0,0,0,3.021,18.1c3.46,3.814,8.05,6.36,12.823,6.231l2.129-.832-5.152-5.678.383-7.88,5.842-5.3,7.88.383,3.022,6.51,2.129-.833a16.95,16.95,0,0,0-3.923-15.405" transform="translate(-185.907 -90.056)" fill="#e0e0e0"/>
        <g id="Grupo_1079077" data-name="Grupo 1079077" transform="translate(237.592 115.092)" opacity="0.3">
          <g id="Grupo_1079076" data-name="Grupo 1079076">
            <g id="Grupo_1079075" data-name="Grupo 1079075" clip-path="url(#clip-path-14)">
              <path id="Trazado_828134" data-name="Trazado 828134" d="M524.126,286.94a16.967,16.967,0,0,0-17.753-4.754L501,276.294l-.748-.837-42.484-46.613a16.968,16.968,0,0,0-17.962-23.529l-2.075.825,7.227,4.853-.383,7.88-5.842,5.3-7.88-.383-5.151-5.678-2.129.832c-.61,4.756,2.578,10.744,6.052,14.573a16.967,16.967,0,0,0,17.725,4.762l43.2,47.394,1.329,1.473,4.094,4.492a16.966,16.966,0,0,0,3.021,18.1c3.46,3.814,8.05,6.36,12.823,6.231l2.129-.832-5.152-5.678.383-7.88,5.842-5.3,7.88.383,3.022,6.51,2.129-.833a16.95,16.95,0,0,0-3.923-15.405" transform="translate(-423.499 -205.148)"/>
            </g>
          </g>
        </g>
        <path id="Trazado_828135" data-name="Trazado 828135" d="M521.682,288.423a16.967,16.967,0,0,0-17.753-4.754l-5.37-5.892-.748-.836-42.484-46.614A16.968,16.968,0,0,0,437.365,206.8l5.151,5.678-.383,7.88-5.842,5.3-7.88-.383L423.26,219.6a16.968,16.968,0,0,0,21.649,20.168l43.2,47.394,1.329,1.473,4.094,4.492a16.968,16.968,0,0,0,17.973,23.5l-5.152-5.678.383-7.88,5.843-5.3,7.88.383,5.151,5.678a16.951,16.951,0,0,0-3.923-15.405" transform="translate(-185.593 -90.707)" fill="#e0e0e0"/>
        <path id="Trazado_828136" data-name="Trazado 828136" d="M521.569,288.32s.245.271.713.812a17.984,17.984,0,0,1,1.756,2.649,16.987,16.987,0,0,1,1.514,11.958l-.027.111-.076-.085-5.16-5.67.05.024-7.88-.372.059-.021-5.837,5.307.03-.062c-.117,2.447-.244,5.113-.376,7.88l-.025-.071,5.156,5.674.133.146-.2.028a17.041,17.041,0,0,1-15.385-5.819,16.886,16.886,0,0,1-3.876-8.315,17.212,17.212,0,0,1,1.157-9.522l.022.135-48.633-53.347.151.041a17.264,17.264,0,0,1-9.483.266,17.111,17.111,0,0,1-12.351-20.606l.065-.267.185.2,5.151,5.678-.1-.047,7.88.384-.1.037,5.843-5.3-.047.1q.194-3.985.384-7.88l.036.1-5.15-5.679-.177-.2.261-.035a17.083,17.083,0,0,1,16.322,7.016,16.929,16.929,0,0,1,3.093,8.263,17.416,17.416,0,0,1-1.318,8.438l-.022-.135,48.556,53.384-.067-.018a17.022,17.022,0,0,1,13.969,1.645,17.806,17.806,0,0,1,2.938,2.261c.578.6.865.909.865.909s-.3-.294-.889-.885a18.33,18.33,0,0,0-2.949-2.228,16.981,16.981,0,0,0-13.895-1.58l-.04.013-.028-.031-48.648-53.3-.054-.06.032-.075a17.165,17.165,0,0,0,1.291-8.314,16.866,16.866,0,0,0-10-13.78,16.985,16.985,0,0,0-9.12-1.248l.084-.231,5.153,5.676.039.043,0,.059q-.189,3.9-.382,7.879l0,.059-.044.04-5.841,5.3-.044.04-.059,0-7.88-.382-.06,0-.04-.045-5.152-5.677.249-.063a16.825,16.825,0,0,0,21.463,19.995l.089-.028.063.069,48.6,53.372.055.061-.032.075a16.965,16.965,0,0,0-1.149,9.383,16.912,16.912,0,0,0,10.884,13.119,16.914,16.914,0,0,0,8.108.846l-.063.174-5.147-5.682-.027-.03,0-.04c.137-2.767.269-5.432.39-7.879l0-.038.028-.025,5.848-5.294.026-.023.034,0,7.879.393.03,0,.02.022,5.143,5.686-.1.026a16.977,16.977,0,0,0-1.452-11.9,18.771,18.771,0,0,0-1.725-2.659c-.459-.547-.688-.832-.688-.832" transform="translate(-185.48 -90.604)" fill="#263238"/>
        <path id="Trazado_828137" data-name="Trazado 828137" d="M470.364,253.713a1.411,1.411,0,0,1-.185.419,9.476,9.476,0,0,1-.654,1.058,13.673,13.673,0,0,1-6.428,4.943,9.573,9.573,0,0,1-1.192.359,1.42,1.42,0,0,1-.452.071c-.012-.048.611-.221,1.568-.621a15.539,15.539,0,0,0,6.339-4.873c.633-.822.96-1.38,1-1.355" transform="translate(-202.569 -111.375)" fill="#263238"/>
        <path id="Trazado_828138" data-name="Trazado 828138" d="M527.24,282.512l-16.162-7.519-14.426-1.8,5.3,4.461s-18.647,6.5-18.974,7.965,1.473,5.4,4.758,4.675a5.549,5.549,0,0,0-1.078,4.715c.769,2.491,2.468,2.941,5.6,2.363,0,0-2.133,3.193-.461,4.82a5.482,5.482,0,0,0,4.273,1.215s.031,3.889,2.086,4.229a33.424,33.424,0,0,0,9.913-.722l10.855-3.353L526,302.011Z" transform="translate(-212 -119.927)" fill="#ffc09d"/>
        <path id="Trazado_828139" data-name="Trazado 828139" d="M501.288,298.558c.062.214-2.083,1.025-4.792,1.812s-4.955,1.252-5.017,1.038,2.083-1.024,4.792-1.812,4.954-1.252,5.016-1.038" transform="translate(-215.749 -131.038)" fill="#ff9b6c"/>
        <path id="Trazado_828140" data-name="Trazado 828140" d="M507.717,312.23c.065.213-1.64.914-3.806,1.567s-3.975,1.008-4.039.795,1.64-.914,3.807-1.566,3.974-1.008,4.038-.8" transform="translate(-219.433 -137.035)" fill="#ff9b6c"/>
        <path id="Trazado_828141" data-name="Trazado 828141" d="M513.018,323.535c.038.239-1.51.567-3.329,1.023-1.809.475-3.233,1.1-3.346.887-.1-.176,1.2-1.153,3.14-1.666,1.926-.481,3.506-.444,3.535-.245" transform="translate(-222.272 -141.964)" fill="#ff9b6c"/>
        <path id="Trazado_828142" data-name="Trazado 828142" d="M514.429,280c.06.218-2.057.986-4.673,1.889s-4.76,1.6-4.847,1.387,1.939-1.24,4.584-2.149,4.878-1.338,4.935-1.127" transform="translate(-221.644 -122.892)" fill="#ff9b6c"/>
        <path id="Trazado_828143" data-name="Trazado 828143" d="M552.132,287.283l34.944,12.655-2.042,23.985-38.471-15.511Z" transform="translate(-239.93 -126.111)" fill="#ffc09d"/>
        <path id="Trazado_828144" data-name="Trazado 828144" d="M615.641,212.471a35.578,35.578,0,0,1,7.209,13.175c2.633,8.406,15.166,44.351,14.846,55.773-.33,11.808-8.28,20.235-25.751,15.568C601.52,294.2,589.1,289.7,589.1,289.7l8.827-29.023,6.906,1.741-11.152-20.933Z" transform="translate(-258.604 -93.27)" fill="#ff725e"/>
        <path id="Trazado_828145" data-name="Trazado 828145" d="M605.081,236.925c.066.047-4.767,6.932-10.792,15.376s-10.965,15.255-11.031,15.208,4.765-6.93,10.793-15.378,10.964-15.254,11.03-15.206" transform="translate(-256.038 -104.005)" fill="#263238"/>
        <path id="Trazado_828146" data-name="Trazado 828146" d="M627.928,303.995c-.013.021-.3-.148-.848-.4a15.72,15.72,0,0,0-2.4-.847c-1.036-.287-2.293-.554-3.689-.858l-4.535-1c-3.216-.72-6.125-1.387-8.226-1.884l-2.485-.6a5.8,5.8,0,0,1-.9-.26,5.756,5.756,0,0,1,.928.149l2.506.513c2.113.446,5.028,1.081,8.245,1.8l4.53,1.025c1.391.318,2.646.606,3.685.922a13.341,13.341,0,0,1,2.388.944,6.444,6.444,0,0,1,.6.352c.132.089.2.14.194.148" transform="translate(-265.516 -130.876)" fill="#263238"/>
        <g id="Grupo_1079080" data-name="Grupo 1079080" transform="translate(345.963 168.752)" opacity="0.3">
          <g id="Grupo_1079079" data-name="Grupo 1079079">
            <g id="Grupo_1079078" data-name="Grupo 1079078" clip-path="url(#clip-path-15)">
              <path id="Trazado_828147" data-name="Trazado 828147" d="M642.05,306.423a4.35,4.35,0,0,0-2.4-3.215,11.815,11.815,0,0,0-4.015-1.077c-6.281-.862-12.628-1.1-18.962-1.338l.586.254a118.215,118.215,0,0,1,22.861,6.661,1.734,1.734,0,0,0,1.324.159,1.384,1.384,0,0,0,.611-1.445" transform="translate(-616.668 -300.795)"/>
            </g>
          </g>
        </g>
        <g id="Grupo_1079083" data-name="Grupo 1079083" transform="translate(204.628 62.655)" opacity="0.3">
          <g id="Grupo_1079082" data-name="Grupo 1079082">
            <g id="Grupo_1079081" data-name="Grupo 1079081" clip-path="url(#clip-path-16)">
              <path id="Trazado_828148" data-name="Trazado 828148" d="M387.487,112.117c-5.889-1-12.934.707-18.823-.294a3.929,3.929,0,0,0-2.617.16,3.267,3.267,0,0,0-1.3,2.793,10.643,10.643,0,0,0,3.386,7.946,15.027,15.027,0,0,0,7.914,3.78,10.862,10.862,0,0,0,6.975-.813c3.661-1.983,5.431-9.523,4.462-13.572" transform="translate(-364.742 -111.68)"/>
            </g>
          </g>
        </g>
        <path id="Trazado_828149" data-name="Trazado 828149" d="M361.181,114.3s-3.574-4.186-4.092-6.12c-.343-1.281-.171-4.862-.016-7.135a3.911,3.911,0,0,1,2.55-3.48,1.3,1.3,0,0,1,1.334.108,13.606,13.606,0,0,1,1.628-1.828c1.4-1.436,2.068-2.409,5.156-1.516,0,0,2.27-2.4,3.576-2.218a20.325,20.325,0,0,1,2.6.56s4.976-.21,6,1.371a4.529,4.529,0,0,0,2.26,1.5,6.159,6.159,0,0,1,3.55,3.239,12.765,12.765,0,0,1,.994,4.337l-5.064.2s.357,11.616-.914,12.553-1.758.6-1.758.6-.97,2.727-4.755.709c0,0-3.143.947-4.484-.348s-6.272-13.746-6.272-13.746l.138,6.188s2.6,4,1.326,4.941-3.753.08-3.753.08" transform="translate(-156.667 -40.432)" fill="#ffc09d"/>
        <path id="Trazado_828150" data-name="Trazado 828150" d="M375.774,103.6a4.047,4.047,0,0,1,.289.73c.179.531.408,1.21.683,2.022.565,1.712,1.326,4.081,2.15,6.7a58.917,58.917,0,0,0,2.278,6.64,13.994,13.994,0,0,0,1.03,1.851,6.17,6.17,0,0,1,.43.654c-.008.007-.059-.042-.149-.14a5.3,5.3,0,0,1-.373-.448,11.377,11.377,0,0,1-1.124-1.827,47.958,47.958,0,0,1-2.37-6.642c-.824-2.623-1.553-5-2.068-6.731-.24-.824-.439-1.512-.6-2.05a4.061,4.061,0,0,1-.18-.764" transform="translate(-164.956 -45.479)" fill="#ff9b6c"/>
        <path id="Trazado_828151" data-name="Trazado 828151" d="M386.847,101.047a4.108,4.108,0,0,1,.258.752c.157.545.357,1.243.6,2.079.492,1.758,1.152,4.192,1.864,6.885s1.34,5.136,1.781,6.908l.508,2.1a4.091,4.091,0,0,1,.148.781,4.178,4.178,0,0,1-.257-.752c-.157-.544-.357-1.242-.6-2.078-.492-1.758-1.152-4.193-1.864-6.888s-1.34-5.137-1.781-6.908l-.507-2.1a4.147,4.147,0,0,1-.148-.78" transform="translate(-169.816 -44.357)" fill="#ff9b6c"/>
      </g>
    </g>
  </g>
</svg>
