<svg xmlns="http://www.w3.org/2000/svg" width="64.205" height="59.707" viewBox="0 0 64.205 59.707">
  <g id="Grupo_163466" data-name="Grupo 163466" transform="translate(-1169.909 -1025.688)">
    <path id="Trazado_220049" data-name="Trazado 220049" d="M1233.993,1055.765a12.344,12.344,0,0,0-9.172-10.441c1.544-3.588,1.147-6.361-1.214-8.558a6.793,6.793,0,0,0-8.261-.71l-.2-.513a15.344,15.344,0,0,0-29.414,2.695c-.083.441-.2.609-.657.582a10.141,10.141,0,0,0-2.247.167,15.388,15.388,0,0,0,1.683,30.559c.438.017.509.185.545.543a13.13,13.13,0,0,0,.245,1.607c1.44,6.3,5.2,10.667,11.294,12.72a17.037,17.037,0,0,0,22.349-14.319c.046-.429.186-.557.61-.539.793.034,1.588.015,2.382.007a12.306,12.306,0,0,0,11.824-9.488,6.3,6.3,0,0,1,.353-1.55v-.376a3.015,3.015,0,0,1,0-1.881v-.251C1233.979,1055.978,1234.006,1055.863,1233.993,1055.765Zm-19.651,21.132a16.134,16.134,0,0,1-3.5,3.563c-.29.217-.461.252-.753-.051-1.335-1.383-2.723-2.715-4.061-4.095a1.461,1.461,0,0,0-1.672-.422,8.111,8.111,0,0,1-10.472-7.572,2.718,2.718,0,0,1,.135-1.16c1.307,1.307,2.619,2.56,3.856,3.882a1.689,1.689,0,0,0,1.952.513c1.174-.363,2.364-.678,3.558-.968a1.321,1.321,0,0,0,1.069-1.072c.321-1.272.668-2.539,1.025-3.8a1.4,1.4,0,0,0-.408-1.526c-1.216-1.177-2.4-2.385-3.595-3.586-.14-.141-.34-.242-.394-.529a8.122,8.122,0,0,1,8.684,10.366,1.587,1.587,0,0,0,.464,1.783c1.374,1.313,2.693,2.686,4.05,4.017C1214.521,1076.475,1214.541,1076.618,1214.342,1076.9Zm1.251-2.17c-1.247-1.249-2.438-2.449-3.64-3.637-.2-.2-.156-.391-.1-.624a10.09,10.09,0,0,0-6.795-11.969,9.861,9.861,0,0,0-6.218.033,1.017,1.017,0,0,0-.439,1.833q2.336,2.363,4.7,4.7a.764.764,0,0,1,.246.872c-.236.777-.439,1.565-.635,2.353a.648.648,0,0,1-.558.558c-.813.178-1.621.394-2.414.646a.652.652,0,0,1-.763-.207q-2.294-2.317-4.607-4.614c-.883-.88-1.663-.691-2.028.484A10.116,10.116,0,0,0,1204.266,1078c.232-.052.458-.15.691.087,1.2,1.22,2.417,2.422,3.638,3.639a14.872,14.872,0,0,1-17.816-3.418,15.052,15.052,0,1,1,24.813-3.577Zm15.936-14.155a9.946,9.946,0,0,1-8.323,6.886,14.7,14.7,0,0,1-2.088.1h-.916c-1.133,0-1.133,0-1.246-1.1a17.058,17.058,0,0,0-33.716-1.375,8.572,8.572,0,0,0-.23,1.861c.016.64-.3.64-.758.6a12.985,12.985,0,0,1-9.411-4.97,13.415,13.415,0,0,1,8.154-21.581,18.024,18.024,0,0,1,3.187-.186c.962,0,1.281-.288,1.383-1.229a13.332,13.332,0,0,1,26.107-2.094c.028.1.06.2.087.3.328,1.2,1.068,1.4,1.993.536a4.741,4.741,0,0,1,6.941,6.442,5.037,5.037,0,0,1-.428.458,1.014,1.014,0,0,0-.3,1.141,1,1,0,0,0,.91.652,9.934,9.934,0,0,1,6.226,3.042A9.809,9.809,0,0,1,1231.529,1060.573Z" transform="translate(0 0)" fill="#083142"/>
    <path id="Trazado_220050" data-name="Trazado 220050" d="M1552.542,1210v-1.881A5.646,5.646,0,0,0,1552.542,1210Z" transform="translate(-318.428 -151.847)" fill="#083142"/>
    <path id="Trazado_220051" data-name="Trazado 220051" d="M1552.187,1210a5.646,5.646,0,0,1,0-1.881A3.015,3.015,0,0,0,1552.187,1210Z" transform="translate(-318.072 -151.847)" fill="#083142"/>
    <path id="Trazado_220052" data-name="Trazado 220052" d="M1297.905,1049.655a11.468,11.468,0,0,0-10.506,8.069,9.94,9.94,0,0,0-.431,2.268.99.99,0,0,0,1.96.266c.038-.162.06-.328.082-.494a9.012,9.012,0,0,1,2.471-5.149,9.3,9.3,0,0,1,6.613-2.959c.792-.031,1.232-.483,1.131-1.152Q1299.091,1049.62,1297.905,1049.655Z" transform="translate(-97.435 -19.948)" fill="#083142"/>
  </g>
</svg>
