<svg xmlns="http://www.w3.org/2000/svg" width="60.591" height="53.542" viewBox="0 0 60.591 53.542">
  <g id="Grupo_163464" data-name="Grupo 163464" transform="translate(-1149.008 -930.905)">
    <path id="Trazado_220044" data-name="Trazado 220044" d="M1355.834,948.852a8.97,8.97,0,0,0-8.381-7.768c-.552-.035-.644-.221-.626-.731a9.062,9.062,0,0,0-17.624-3.329c-.134.4-.222.531-.7.344a5.012,5.012,0,0,0-6.766,5.648c.087.435-.023.6-.411.767a8.068,8.068,0,0,0,3.516,15.425c1.715.006,3.431,0,5.146,0,5.56,0,11.12.03,16.68-.01a8.947,8.947,0,0,0,8.5-5.416,21.876,21.876,0,0,0,.773-2.5v-2.248C1355.852,949.006,1355.846,948.932,1355.834,948.852Zm-2.156,3.118a7.007,7.007,0,0,1-6.569,5.2c-3.725.062-7.453.015-11.179.015v.009q-5.5,0-11,0a6.235,6.235,0,0,1-4.907-2.174,6.07,6.07,0,0,1,2.643-9.585c.037-.012.073-.031.11-.043,1.641-.5,1.725-.684,1.072-2.278a3.008,3.008,0,0,1,4.766-3.358c.1.092.2.187.3.285a1.023,1.023,0,0,0,1.126.31,1.042,1.042,0,0,0,.69-.949,7.527,7.527,0,0,1,.606-2.268,7.062,7.062,0,0,1,13.457,3.626c-.036.351-.14.694-.2,1.044-.142.88.287,1.4,1.176,1.316a7.448,7.448,0,0,1,4.715.946A7.069,7.069,0,0,1,1353.678,951.97Z" transform="translate(-146.345)" fill="#083142"/>
    <path id="Trazado_220045" data-name="Trazado 220045" d="M1206.5,1165.666a4.169,4.169,0,0,0-3.392.557c-3.4,1.976-6.806,3.938-10.274,5.942a4,4,0,0,0-3.194-3.466c-2.02-.431-4.065-.746-6.1-1.089a25.685,25.685,0,0,1-7.331-2.109,17.469,17.469,0,0,0-15.822-.132,12.561,12.561,0,0,1-2.8.909c-.351.072-.546.058-.517-.4.041-.648.013-1.3.01-1.952-.005-1.017-.321-1.336-1.348-1.339q-2.633-.008-5.265,0c-1.163,0-1.456.3-1.456,1.476q0,8.519,0,17.038c0,1.5-.006,3,0,4.5,0,.83.363,1.2,1.182,1.205q2.839.015,5.679,0c.86,0,1.2-.357,1.206-1.236.007-.611,0-1.223,0-1.834,0-.961,0-.945.96-.8q5.6.867,11.211,1.716c4.243.649,8.488,1.289,12.728,1.955a4.184,4.184,0,0,0,2.889-.5c4.538-2.642,9.094-5.255,13.641-7.881q4.445-2.567,8.885-5.144a4.036,4.036,0,0,0-.895-7.416Zm-51.433,18.666c0,.349-.062.477-.445.466-1.044-.03-2.091-.033-3.135,0-.418.013-.469-.147-.467-.5.012-3.194.007-6.389.007-9.583s.007-6.389-.009-9.583c0-.4.076-.542.507-.527,1,.035,2.012.03,3.016,0,.4-.011.531.074.529.5Q1155.046,1174.719,1155.066,1184.332ZM1206.7,1171.1a7.905,7.905,0,0,1-.945.6q-10.932,6.315-21.862,12.635a2.277,2.277,0,0,1-1.578.286q-9.194-1.415-18.39-2.817-3.24-.494-6.486-.951c-.379-.053-.361-.263-.361-.531q.006-2.869,0-5.738c0-1.893.01-3.786-.008-5.679,0-.387.092-.542.5-.6a13.855,13.855,0,0,0,3.82-1.163,15.53,15.53,0,0,1,13.846.134,25.987,25.987,0,0,0,7.535,2.245c2.158.339,4.306.742,6.451,1.155a1.948,1.948,0,0,1,1.562,2.234,1.988,1.988,0,0,1-2.088,1.686c-.471-.022-.94-.1-1.407-.165q-5.815-.855-11.629-1.715a1.129,1.129,0,0,0-1.225.369.941.941,0,0,0-.113,1,1.057,1.057,0,0,0,.879.612c4.072.6,8.145,1.183,12.214,1.793a5.041,5.041,0,0,0,2.9-.143,3.659,3.659,0,0,0,1.4-.964,4.29,4.29,0,0,1,1.247-.964q5.624-3.238,11.244-6.483a2.03,2.03,0,0,1,2.841.419A1.969,1.969,0,0,1,1206.7,1171.1Z" transform="translate(0 -202.364)" fill="#083142"/>
  </g>
</svg>
