<svg xmlns="http://www.w3.org/2000/svg" width="59.214" height="59.188" viewBox="0 0 59.214 59.188">
  <g id="Grupo_163465" data-name="Grupo 163465" transform="translate(-1185.09 -945.09)">
    <path id="Trazado_220046" data-name="Trazado 220046" d="M1244.16,971.807a12.828,12.828,0,0,0-11.407-10.859c-.347-.037-.448-.105-.4-.477a11.949,11.949,0,0,0-.12-3.97,13.673,13.673,0,0,0-10.559-11.064,14.163,14.163,0,0,1-1.775-.347h-2.66c-.644.142-1.295.259-1.932.429a13.55,13.55,0,0,0-9.179,7.6c-.183.386-.332.4-.659.183a7.952,7.952,0,0,0-3.557-1.243,8.858,8.858,0,0,0-9.577,11.071c.109.418.07.616-.363.816a11.612,11.612,0,0,0-6.21,6.782c-.3.805-.355,1.668-.669,2.464v2.891c.154.046.107.182.124.286a11.854,11.854,0,0,0,5.54,8.4,11.339,11.339,0,0,0,2.665,1.219,1.025,1.025,0,0,0,1.128-.207.948.948,0,0,0,.24-.96c-.133-.493-.558-.636-.988-.783a9.867,9.867,0,0,1-.152-18.663c1.123-.4,1.285-.784.831-1.914a6.581,6.581,0,0,1-.109-4.851,6.873,6.873,0,0,1,11.059-2.917c.955.79,1.581.63,1.983-.531a12.429,12.429,0,0,1,2.533-4.289,11.862,11.862,0,0,1,16.92-.473,11.615,11.615,0,0,1,3.351,10.883c-.2,1.1.136,1.534,1.28,1.564a10.569,10.569,0,0,1,3.618.638c4.292,1.68,6.8,4.834,7.149,9.406.343,4.478-1.615,7.927-5.478,10.255a11.706,11.706,0,0,1-3.506,1.269.943.943,0,0,0-.771,1.163,1.015,1.015,0,0,0,1.192.747A12.87,12.87,0,0,0,1244.16,971.807Z" fill="#083142"/>
    <path id="Trazado_220047" data-name="Trazado 220047" d="M1292.5,1174.212c.173,0,.347,0,.52-.016a2.914,2.914,0,0,0,2.828-2.621q1.319-8.733,2.634-17.466c.181-1.2-.16-1.59-1.377-1.59h-29.54c-.5,0-1-.013-1.5.006a.988.988,0,0,0-1.031,1.172c.019.23.056.459.091.687q1.259,8.391,2.519,16.783a3.687,3.687,0,0,0,.807,2.06,3.272,3.272,0,0,0,2.606.991Q1281.777,1174.2,1292.5,1174.212Zm-3.555-13.428c-.152,1.374-.281,2.751-.4,4.129-.029.344-.155.447-.5.442-1.287-.019-2.575-.021-3.862,0-.367.006-.453-.116-.448-.461q.026-2.046,0-4.093c0-.343.117-.415.43-.407.749.02,1.5.007,2.248.007.73,0,1.461.013,2.191-.006C1288.921,1160.387,1288.979,1160.475,1288.945,1160.784Zm2.247-2.68c.126-1.087.228-2.177.324-3.267.023-.256.095-.358.379-.355,1.383.017,2.766.01,4.15.005.234,0,.39-.012.33.332q-.269,1.53-.458,3.073c-.051.41-.178.585-.627.549-.592-.047-1.19-.011-1.786-.012-.653,0-1.307-.006-1.96,0C1291.3,1158.438,1291.155,1158.43,1291.193,1158.1Zm-.681,6.853q.224-2.092.414-4.187c.026-.282.12-.389.421-.376.634.026,1.269.008,1.9.008s1.27.02,1.9-.008c.335-.015.38.112.335.4-.223,1.4-.443,2.807-.646,4.213-.037.257-.113.354-.389.351q-1.788-.023-3.577,0C1290.566,1165.357,1290.479,1165.265,1290.511,1164.957Zm-.7,6.984c.15-1.436.3-2.872.427-4.309.027-.3.181-.32.418-.315.578.011,1.156,0,1.734,0s1.156.015,1.733-.006c.288-.01.371.074.325.359-.2,1.234-.373,2.473-.577,3.706a.916.916,0,0,1-.946.841c-.943.02-1.887.007-2.831.018C1289.877,1172.24,1289.792,1172.176,1289.816,1171.941Zm-5.631-17.456c.828.015,1.656.005,2.484.005s1.656.019,2.483-.008c.379-.012.427.1.382.456-.129,1.011-.212,2.028-.294,3.045-.026.32-.109.464-.478.458-1.54-.023-3.08-.016-4.621,0-.29,0-.406-.064-.4-.379.018-1.059.022-2.118,0-3.177C1283.732,1154.519,1283.89,1154.48,1284.186,1154.485Zm.014,12.827c1.233.02,2.467.012,3.7,0,.274,0,.4.024.359.374-.159,1.377-.284,2.758-.4,4.14-.027.326-.153.416-.466.411-1.079-.016-2.158-.019-3.237,0-.346.006-.421-.124-.412-.438.02-.674.006-1.349.006-2.023s.021-1.35-.009-2.023C1283.724,1167.389,1283.852,1167.307,1284.2,1167.312Zm-2.83,4.927c-.713-.014-1.425,0-2.138,0-.674,0-1.349-.017-2.022.007-.326.012-.483-.055-.513-.418-.117-1.381-.258-2.759-.4-4.137-.027-.261.005-.376.315-.374,1.6.016,3.2.012,4.8,0,.255,0,.377.04.373.34-.015,1.406-.017,2.812,0,4.218C1281.784,1172.206,1281.643,1172.245,1281.37,1172.239Zm.407-7.295c0,.282-.053.412-.378.409q-2.483-.022-4.967,0c-.318,0-.387-.122-.412-.394-.131-1.4-.265-2.8-.42-4.192-.036-.329.086-.378.371-.373.9.015,1.81.005,2.715.005.886,0,1.771.01,2.657-.005.293-.005.444.029.438.39C1281.759,1162.172,1281.766,1163.559,1281.777,1164.945Zm-6.356-10.464c.981.028,1.962.009,2.944.009,1,0,2,.013,3-.007.33-.007.419.093.413.418-.02,1.058-.016,2.117,0,3.175,0,.269-.06.365-.35.363q-2.857-.02-5.714,0c-.28,0-.355-.088-.378-.35-.092-1.053-.191-2.106-.319-3.156C1274.973,1154.578,1275.048,1154.471,1275.421,1154.481Zm-7.741,3.633c-.163-1.1-.324-2.2-.5-3.3-.055-.334.121-.327.354-.325.846.007,1.692,0,2.537,0,.827,0,1.654.015,2.48-.007.332-.009.479.066.506.428.081,1.072.188,2.143.313,3.212.034.292-.083.312-.309.312-1.672,0-3.345-.009-5.017,0C1267.783,1158.44,1267.712,1158.332,1267.68,1158.115Zm1.038,6.922c-.21-1.445-.418-2.891-.643-4.334-.046-.3.088-.305.31-.3.808.008,1.617,0,2.425,0,.789,0,1.579.014,2.367-.007.314-.008.433.081.461.407q.178,2.1.409,4.192c.034.308-.066.359-.333.357q-2.31-.012-4.619,0C1268.848,1165.354,1268.751,1165.262,1268.718,1165.036Zm.968,6.324c-.194-1.232-.367-2.468-.568-3.7-.051-.309.064-.351.329-.347.749.014,1.5.005,2.249.005.711,0,1.423.016,2.133-.007.331-.011.474.064.5.429.111,1.378.247,2.755.4,4.129.032.288-.031.37-.314.368-1.23-.011-2.46,0-3.69-.009A.956.956,0,0,1,1269.686,1171.361Z" transform="translate(-70.052 -181.777)" fill="#083142"/>
    <path id="Trazado_220048" data-name="Trazado 220048" d="M1338.643,1114.472c.42.042.847.01,1.271.01.385,0,.771,0,1.156,0,.786-.008,1.223-.369,1.213-1-.009-.594-.454-.965-1.195-.97q-1.763-.012-3.526,0a1.045,1.045,0,0,0-1.194,1.049q-.744,4.82-1.477,9.642-1.577,10.415-3.145,20.831a1.071,1.071,0,0,1-1.209,1.046c-.578.013-1.157-.019-1.734.011-.344.018-.448-.126-.542-.43a4.908,4.908,0,0,0-9.419,0c-.1.312-.208.434-.546.428-1.1-.022-2.2-.024-3.294,0a.488.488,0,0,1-.559-.415,4.8,4.8,0,0,0-4.842-3.517,4.913,4.913,0,1,0,4.841,6.3c.083-.256.163-.419.5-.411,1.136.026,2.274.022,3.41,0,.324-.006.419.129.494.412a4.451,4.451,0,0,0,1.132,1.981,4.9,4.9,0,0,0,8.285-1.982c.1-.323.233-.424.558-.41.577.025,1.156.014,1.734.005a3.012,3.012,0,0,0,3.162-2.808c.2-1.41.416-2.817.63-4.224q1.016-6.705,2.036-13.41.886-5.849,1.762-11.7C1338.186,1114.6,1338.276,1114.435,1338.643,1114.472Zm-25.962,31.7a2.966,2.966,0,0,1-2.963,2.852,3,3,0,0,1-2.936-3.014,2.957,2.957,0,0,1,3.039-2.89A2.92,2.92,0,0,1,1312.681,1146.172Zm10.806,2.851a2.965,2.965,0,0,1-2.881-3,2.931,2.931,0,0,1,3.012-2.906,2.964,2.964,0,0,1,2.895,2.979A3,3,0,0,1,1323.487,1149.023Z" transform="translate(-104.917 -146.716)" fill="#083142"/>
  </g>
</svg>
