<svg xmlns="http://www.w3.org/2000/svg" xmlns:xlink="http://www.w3.org/1999/xlink" width="400" height="289.527" viewBox="0 0 400 289.527">
  <defs>
    <linearGradient id="linear-gradient" x1="0.52" y1="1.509" x2="0.468" y2="0.18" gradientUnits="objectBoundingBox">
      <stop offset="0" stop-color="#2b3582"/>
      <stop offset="1" stop-color="#150e42"/>
    </linearGradient>
    <linearGradient id="linear-gradient-2" x1="0.525" y1="0.297" x2="0.225" y2="5.134" xlink:href="#linear-gradient"/>
    <linearGradient id="linear-gradient-3" x1="0" y1="0.5" x2="1" y2="0.5" xlink:href="#linear-gradient"/>
    <linearGradient id="linear-gradient-4" y1="0.5" x2="1" y2="0.5" gradientUnits="objectBoundingBox">
      <stop offset="0" stop-color="#b37cff"/>
      <stop offset="1" stop-color="#f895e7"/>
    </linearGradient>
    <linearGradient id="linear-gradient-13" x1="0" y1="0.5" x2="1" y2="0.5" xlink:href="#linear-gradient-4"/>
    <linearGradient id="linear-gradient-16" x1="-37.93" y1="0.5" x2="-36.93" y2="0.5" gradientUnits="objectBoundingBox">
      <stop offset="0" stop-color="#53d8ff"/>
      <stop offset="1" stop-color="#3840f7"/>
    </linearGradient>
    <linearGradient id="linear-gradient-17" x1="-39.03" y1="0.5" x2="-38.03" y2="0.5" xlink:href="#linear-gradient"/>
    <linearGradient id="linear-gradient-18" x1="-134.654" y1="0.5" x2="-133.654" y2="0.5" gradientUnits="objectBoundingBox">
      <stop offset="0" stop-color="#f9b776"/>
      <stop offset="1" stop-color="#f47960"/>
    </linearGradient>
    <linearGradient id="linear-gradient-19" x1="-98.978" y1="0.5" x2="-97.978" y2="0.5" xlink:href="#linear-gradient-16"/>
    <linearGradient id="linear-gradient-20" x1="-67.432" y1="0.5" x2="-66.432" y2="0.5" xlink:href="#linear-gradient"/>
    <linearGradient id="linear-gradient-21" x1="-112.673" y1="0.5" x2="-111.673" y2="0.5" xlink:href="#linear-gradient-18"/>
    <linearGradient id="linear-gradient-22" x1="1.21" y1="-19.618" x2="0.741" y2="-6.323" gradientUnits="objectBoundingBox">
      <stop offset="0" stop-color="#cb236d"/>
      <stop offset="1" stop-color="#4c246d"/>
    </linearGradient>
    <linearGradient id="linear-gradient-23" x1="-24.237" y1="0.308" x2="-25.108" y2="1.354" xlink:href="#linear-gradient-18"/>
    <linearGradient id="linear-gradient-24" x1="0.564" y1="0.086" x2="-0.072" y2="1.841" gradientUnits="objectBoundingBox">
      <stop offset="0" stop-color="#fdf53f"/>
      <stop offset="1" stop-color="#d93c65"/>
    </linearGradient>
    <linearGradient id="linear-gradient-25" x1="20.468" y1="-11.623" x2="-12.15" y2="8.18" xlink:href="#linear-gradient-24"/>
    <linearGradient id="linear-gradient-26" x1="-70.551" y1="1.478" x2="-70.279" y2="0.434" xlink:href="#linear-gradient-18"/>
    <linearGradient id="linear-gradient-27" x1="-49.859" y1="0.35" x2="-50.971" y2="1.106" xlink:href="#linear-gradient-18"/>
    <linearGradient id="linear-gradient-28" x1="-36.413" y1="0.152" x2="-35.663" y2="1.129" xlink:href="#linear-gradient"/>
    <linearGradient id="linear-gradient-29" x1="-204.654" y1="-0.685" x2="-209.204" y2="1.784" xlink:href="#linear-gradient-18"/>
    <linearGradient id="linear-gradient-30" x1="-27.08" y1="-0.752" x2="-27.433" y2="0.28" xlink:href="#linear-gradient-18"/>
    <linearGradient id="linear-gradient-31" x1="15.447" y1="-4.334" x2="14.875" y2="-1.249" xlink:href="#linear-gradient-18"/>
    <linearGradient id="linear-gradient-32" x1="9.641" y1="7.245" x2="8.901" y2="9.708" xlink:href="#linear-gradient"/>
    <linearGradient id="linear-gradient-33" x1="6.327" y1="0.133" x2="5.929" y2="0.802" xlink:href="#linear-gradient"/>
    <linearGradient id="linear-gradient-34" x1="56.193" y1="-0.305" x2="54.371" y2="1.584" xlink:href="#linear-gradient-16"/>
    <linearGradient id="linear-gradient-35" x1="0.562" y1="-0.429" x2="0.505" y2="0.65" gradientUnits="objectBoundingBox">
      <stop offset="0" stop-color="#5ab6ff"/>
      <stop offset="1" stop-color="#2f68e3"/>
    </linearGradient>
    <linearGradient id="linear-gradient-36" x1="0.548" y1="0.417" x2="0.384" y2="1.597" xlink:href="#linear-gradient-16"/>
  </defs>
  <g id="Grupo_163506" data-name="Grupo 163506" transform="translate(-398.874 -451.187)">
    <path id="Trazado_220090" data-name="Trazado 220090" d="M838.362,705.788a144.186,144.186,0,0,1-22.126,13.39C744.058,756.4,658.653,745.552,640.5,742.9c-26.8-3.913-78.614-11.477-116.072-43.139-56.671-47.9-47.847-123.371-3.889-173.189,8.041-9.113,50.513-59.69,136.839-67.8,52.243-4.909,113.142,4.992,157.243,31.549C907.2,546.07,900.605,658.688,838.362,705.788Z" transform="translate(-85.853 -5.706)" fill="#ffeeeb"/>
    <g id="Grupo_163488" data-name="Grupo 163488" transform="translate(462.263 506.711)">
      <g id="Grupo_163484" data-name="Grupo 163484" transform="translate(0 0)">
        <path id="Trazado_220091" data-name="Trazado 220091" d="M1459.7,2410.815l-6.935,62.2h80.464l-10.481-62.2Z" transform="translate(-1358.763 -2260.753)" fill="url(#linear-gradient)"/>
        <path id="Trazado_220092" data-name="Trazado 220092" d="M1336.846,2976.25H1219.081c-3.2,0-5.6-2.277-4.983-4.724l1.511-5.976c.454-1.8,2.432-3.117,4.78-3.19l113.529-3.543c2.453-.077,4.626,1.226,5.161,3.094l2.724,9.519C1342.511,2973.9,1340.1,2976.25,1336.846,2976.25Z" transform="translate(-1145.044 -2751.26)" fill="url(#linear-gradient-2)"/>
        <path id="Trazado_220093" data-name="Trazado 220093" d="M556.714,996.322v142.456a21.61,21.61,0,0,0,21.054,21.6c52.032,1.342,186.046,4.6,235.577,3.865A15.9,15.9,0,0,0,829,1148.8c.955-33.094,2.506-112.676-3.234-149.622a16.363,16.363,0,0,0-15.646-13.85c-43.6-1.395-188.542-5.823-238.049-4.711A15.708,15.708,0,0,0,556.714,996.322Z" transform="translate(-556.714 -980.438)" fill="url(#linear-gradient-3)"/>
        <path id="Trazado_220094" data-name="Trazado 220094" d="M641.917,1042.848v135.343a12.521,12.521,0,0,0,12.334,12.52l228.233,3.412a12.186,12.186,0,0,0,12.368-12.139l.462-134.134a8.912,8.912,0,0,0-8.7-8.942l-234.81-5.713A9.656,9.656,0,0,0,641.917,1042.848Z" transform="translate(-632.978 -1027.658)" fill="#9bacb2"/>
        <path id="Trazado_220095" data-name="Trazado 220095" d="M893.917,2569.682h-.007L638.9,2564.52a.353.353,0,1,1,.014-.706l255.013,5.162a.353.353,0,0,1-.007.706Z" transform="translate(-629.965 -2397.7)" fill="#fff" opacity="0.65"/>
        <path id="Trazado_220096" data-name="Trazado 220096" d="M1863.691,3001.119a.353.353,0,0,1,0-.707l4.865-.071h.005a.353.353,0,0,1,0,.706l-4.865.071Z" transform="translate(-1726.258 -2788.432)" fill="#fff"/>
        <path id="Trazado_220097" data-name="Trazado 220097" d="M1253.471,3011.62a.363.363,0,0,1-.056,0,.353.353,0,0,1-.293-.4l.694-4.347a4.818,4.818,0,0,1,4.7-4.065l51.6-.755a.369.369,0,0,1,.358.348.354.354,0,0,1-.348.359l-51.6.754a4.113,4.113,0,0,0-4.008,3.47l-.694,4.347A.353.353,0,0,1,1253.471,3011.62Z" transform="translate(-1180.057 -2789.956)" fill="#fff"/>
      </g>
      <circle id="Elipse_8782" data-name="Elipse 8782" cx="4.272" cy="4.272" r="4.272" transform="translate(33.358 30.978) rotate(-80.783)" fill="#fff"/>
      <circle id="Elipse_8783" data-name="Elipse 8783" cx="4.272" cy="4.272" r="4.272" transform="translate(32.678 47.737) rotate(-22.5)" fill="#fff"/>
      <circle id="Elipse_8784" data-name="Elipse 8784" cx="4.272" cy="4.272" r="4.272" transform="translate(33.987 68.38)" fill="#fff"/>
      <circle id="Elipse_8785" data-name="Elipse 8785" cx="4.272" cy="4.272" r="4.272" transform="translate(33.358 98.787) rotate(-80.783)" fill="#fff"/>
      <circle id="Elipse_8786" data-name="Elipse 8786" cx="4.272" cy="4.272" r="4.272" transform="translate(33.987 116.058)" fill="#fff"/>
      <circle id="Elipse_8787" data-name="Elipse 8787" cx="4.272" cy="4.272" r="4.272" transform="translate(33.987 138.661)" fill="#fff"/>
      <rect id="Rectángulo_48526" data-name="Rectángulo 48526" width="4.944" height="150.804" rx="2.472" transform="translate(53.058 10.746)" fill="#fff" opacity="0.7"/>
      <g id="Grupo_163485" data-name="Grupo 163485" transform="translate(65.066 38.293)" opacity="0.6">
        <rect id="Rectángulo_48527" data-name="Rectángulo 48527" width="126.082" height="4.944" rx="2.472" fill="#fff"/>
        <rect id="Rectángulo_48528" data-name="Rectángulo 48528" width="46.736" height="4.944" rx="2.472" transform="translate(0 16.028)" fill="#fff"/>
        <rect id="Rectángulo_48529" data-name="Rectángulo 48529" width="46.736" height="4.944" rx="2.472" transform="translate(134.205 47.708)" fill="#fff"/>
        <rect id="Rectángulo_48530" data-name="Rectángulo 48530" width="46.736" height="4.944" rx="2.472" transform="translate(72.013 63.437)" fill="#fff"/>
        <rect id="Rectángulo_48531" data-name="Rectángulo 48531" width="28.842" height="4.944" rx="2.472" transform="translate(54.388 77.765)" fill="#fff"/>
        <rect id="Rectángulo_48532" data-name="Rectángulo 48532" width="28.842" height="4.944" rx="2.472" transform="translate(1.766 90.832)" fill="#fff"/>
        <rect id="Rectángulo_48533" data-name="Rectángulo 48533" width="46.736" height="4.944" rx="2.472" transform="translate(1.766 77.765)" fill="#fff"/>
        <rect id="Rectángulo_48534" data-name="Rectángulo 48534" width="77.227" height="4.944" rx="2.472" transform="translate(89.588 77.765)" fill="#fff"/>
        <rect id="Rectángulo_48535" data-name="Rectángulo 48535" width="67.691" height="4.944" rx="2.472" transform="translate(107.364 31.887)" fill="#fff"/>
        <rect id="Rectángulo_48536" data-name="Rectángulo 48536" width="67.691" height="4.944" rx="2.472" transform="translate(0 63.437)" fill="#fff"/>
        <rect id="Rectángulo_48537" data-name="Rectángulo 48537" width="101.125" height="4.944" rx="2.472" transform="translate(52.976 16.028)" fill="#fff"/>
        <rect id="Rectángulo_48538" data-name="Rectángulo 48538" width="101.125" height="4.944" rx="2.472" transform="translate(0 31.887)" fill="#fff"/>
        <rect id="Rectángulo_48539" data-name="Rectángulo 48539" width="126.082" height="4.944" rx="2.472" transform="translate(0 47.708)" fill="#fff"/>
      </g>
      <g id="Grupo_163486" data-name="Grupo 163486" transform="translate(73.06 20.413)">
        <path id="Trazado_220098" data-name="Trazado 220098" d="M1258.381,1195.913l-5.264-3.9.1-1.229,5.842-2.951-.149,1.772-4.027,1.938,3.645,2.6Z" transform="translate(-1253.117 -1186.487)" fill="#fff"/>
        <path id="Trazado_220099" data-name="Trazado 220099" d="M1318.491,1175.185l-5.264,11.155-2.016-.17,5.264-11.155Z" transform="translate(-1305.115 -1175.015)" fill="#fff"/>
        <path id="Trazado_220100" data-name="Trazado 220100" d="M1381.686,1200.736l4.052-1.951-3.669-2.586.149-1.772,5.266,3.887-.1,1.229-5.843,2.967Z" transform="translate(-1368.063 -1192.39)" fill="#fff"/>
      </g>
      <g id="Grupo_163487" data-name="Grupo 163487" transform="translate(68.53 141.542)">
        <path id="Trazado_220101" data-name="Trazado 220101" d="M1215.2,2350.5l-5.264-3.9.1-1.229,5.842-2.951-.15,1.772-4.027,1.937,3.645,2.6Z" transform="translate(-1209.938 -2341.074)" fill="#fff"/>
        <path id="Trazado_220102" data-name="Trazado 220102" d="M1275.311,2329.773l-5.264,11.155-2.016-.17,5.264-11.155Z" transform="translate(-1261.936 -2329.603)" fill="#fff"/>
        <path id="Trazado_220103" data-name="Trazado 220103" d="M1338.506,2355.324l4.052-1.951-3.67-2.586.149-1.772,5.266,3.887-.1,1.229-5.843,2.967Z" transform="translate(-1324.885 -2346.978)" fill="#fff"/>
      </g>
    </g>
    <g id="Grupo_163497" data-name="Grupo 163497" transform="translate(641.271 451.36)">
      <g id="Grupo_163492" data-name="Grupo 163492" transform="translate(40.017 21.783)">
        <g id="Grupo_163489" data-name="Grupo 163489" transform="translate(0 31.675)" opacity="0.24">
          <path id="Trazado_220104" data-name="Trazado 220104" d="M2374.646,962.389a.69.69,0,0,0-.666.489q-.163.535-.312,1.075a.689.689,0,1,0,1.329.368q.145-.524.3-1.042a.69.69,0,0,0-.653-.89Z" transform="translate(-2372.036 -962.389)" fill="url(#linear-gradient-4)"/>
          <path id="Trazado_220105" data-name="Trazado 220105" d="M2359.931,1005.738a.689.689,0,0,1,.547.807c-.135.706-.255,1.427-.355,2.141a.689.689,0,0,1-1.365-.192c.1-.737.227-1.48.367-2.209a.689.689,0,0,1,.807-.547Zm-.805,5.729a.689.689,0,0,1,.647.729c-.042.719-.068,1.449-.075,2.17a.689.689,0,0,1-.7.683h0a.689.689,0,0,1-.683-.7c.007-.744.034-1.5.077-2.238a.689.689,0,0,1,.694-.649Zm.677,6.426c.05.72.118,1.447.2,2.161a.689.689,0,0,1-1.369.162c-.087-.737-.157-1.486-.208-2.228a.69.69,0,0,1,.641-.735l.055,0A.689.689,0,0,1,2359.8,1017.893Zm.756,5.644c.141.7.3,1.417.478,2.117a.689.689,0,0,1-1.337.337c-.182-.722-.348-1.456-.493-2.183a.689.689,0,0,1,.541-.811.663.663,0,0,1,.142-.014A.69.69,0,0,1,2360.559,1023.536Zm1.478,5.5c.231.681.483,1.366.75,2.037a.689.689,0,0,1-1.282.508c-.274-.691-.534-1.4-.773-2.1a.69.69,0,1,1,1.306-.444Zm2.182,5.261c.319.646.658,1.294,1.01,1.925a.689.689,0,1,1-1.2.671c-.363-.651-.713-1.319-1.042-1.985a.69.69,0,1,1,1.237-.61Zm2.849,4.935c.4.6.821,1.2,1.25,1.777a.689.689,0,0,1-1.107.821c-.443-.6-.877-1.214-1.29-1.832a.69.69,0,0,1,1.147-.766Zm3.463,4.524c.475.543.969,1.081,1.469,1.6a.69.69,0,1,1-.992.958c-.515-.534-1.025-1.089-1.515-1.65a.689.689,0,1,1,1.038-.907Zm4.016,4.039c.541.478,1.1.948,1.661,1.4a.689.689,0,1,1-.861,1.077c-.579-.463-1.156-.948-1.713-1.441a.689.689,0,1,1,.913-1.033Zm4.5,3.489c.6.4,1.211.8,1.826,1.171a.689.689,0,0,1-.715,1.179c-.634-.385-1.267-.791-1.883-1.208a.689.689,0,1,1,.773-1.142Zm46.313,2.618a.689.689,0,0,1-.282.933c-.657.352-1.33.692-2,1.009a.689.689,0,1,1-.59-1.246c.649-.307,1.3-.637,1.938-.978a.69.69,0,0,1,.933.282Zm-41.4.261c.643.323,1.3.634,1.96.925a.689.689,0,1,1-.557,1.261c-.678-.3-1.359-.62-2.022-.954a.689.689,0,1,1,.619-1.232Zm36.174,2.216a.689.689,0,0,1-.4.889c-.694.263-1.4.512-2.114.741a.69.69,0,0,1-.423-1.312c.687-.222,1.377-.463,2.049-.717a.688.688,0,0,1,.889.4Zm-30.935,0c.681.237,1.375.46,2.062.662a.69.69,0,0,1-.389,1.323c-.709-.208-1.424-.438-2.127-.683a.689.689,0,1,1,.454-1.3Zm25.428,1.774a.689.689,0,0,1-.513.829c-.725.171-1.463.325-2.192.459a.689.689,0,1,1-.25-1.356c.707-.13,1.422-.28,2.126-.445a.667.667,0,0,1,.165-.019A.689.689,0,0,1,2414.625,1058.156Zm-19.946-.254c.7.146,1.42.277,2.135.389a.689.689,0,1,1-.214,1.362c-.737-.116-1.478-.251-2.2-.4a.689.689,0,0,1,.281-1.35Zm14.255,1.3a.689.689,0,0,1-.616.756c-.648.066-1.3.12-1.952.158l-.282.016a.689.689,0,0,1-.072-1.377l.271-.015c.629-.038,1.266-.089,1.9-.153a.68.68,0,0,1,.077,0A.689.689,0,0,1,2408.934,1059.2Zm-8.618-.507c.719.054,1.448.091,2.168.109a.69.69,0,0,1-.035,1.379c-.742-.019-1.495-.057-2.236-.113a.689.689,0,0,1,.057-1.377Z" transform="translate(-2358.32 -1001.179)" fill="url(#linear-gradient-4)"/>
          <path id="Trazado_220106" data-name="Trazado 220106" d="M3016.255,1438.155a.687.687,0,0,0-.394.12q-.449.305-.9.6a.689.689,0,1,0,.748,1.159q.47-.3.933-.619a.69.69,0,0,0-.383-1.259Z" transform="translate(-2945.786 -1388.242)" fill="url(#linear-gradient-4)"/>
        </g>
        <g id="Grupo_163490" data-name="Grupo 163490" transform="translate(17.854)" opacity="0.24">
          <path id="Trazado_220107" data-name="Trazado 220107" d="M3201.267,1164.711a.689.689,0,0,0-.683.563q-.1.535-.213,1.064a.689.689,0,1,0,1.348.287q.116-.547.22-1.1a.69.69,0,0,0-.551-.8A.718.718,0,0,0,3201.267,1164.711Z" transform="translate(-3129.871 -1111.81)" fill="url(#linear-gradient-4)"/>
          <path id="Trazado_220108" data-name="Trazado 220108" d="M2589.8,660.472a.689.689,0,0,1-.018,1.379h-.006l-.4-.006c-.575-.005-1.16,0-1.74.018a.689.689,0,1,1-.041-1.378c.6-.018,1.2-.024,1.8-.018Zm3.574.206c.729.071,1.465.161,2.187.267a.689.689,0,0,1-.2,1.364c-.7-.1-1.414-.19-2.12-.259a.689.689,0,0,1,.073-1.376C2593.335,660.676,2593.355,660.677,2593.376,660.679Zm-8.59.662a.689.689,0,0,1-.612.76c-.7.076-1.417.17-2.12.28a.689.689,0,1,1-.213-1.362c.724-.113,1.459-.21,2.185-.289a.69.69,0,0,1,.759.612Zm14.294.267c.713.164,1.432.347,2.135.545a.69.69,0,1,1-.374,1.327c-.681-.192-1.378-.37-2.069-.528a.689.689,0,1,1,.308-1.344Zm-19.921.615a.69.69,0,0,1-.51.831c-.692.165-1.387.35-2.066.547a.689.689,0,1,1-.385-1.324c.7-.2,1.417-.394,2.131-.565a.688.688,0,0,1,.831.51Zm25.458,1.036c.684.253,1.372.526,2.044.812a.69.69,0,1,1-.54,1.269c-.652-.278-1.318-.542-1.981-.787a.69.69,0,1,1,.478-1.294Zm-30.927.555a.69.69,0,0,1-.4.889c-.665.252-1.33.524-1.978.807a.69.69,0,1,1-.552-1.264c.669-.292,1.356-.573,2.041-.833a.689.689,0,0,1,.889.4Zm36.2,1.789c.646.337,1.293.7,1.926,1.067a.689.689,0,1,1-.7,1.189c-.613-.359-1.241-.707-1.867-1.034a.689.689,0,1,1,.639-1.222Zm-41.424.49a.689.689,0,0,1-.282.933c-.624.334-1.25.689-1.859,1.054a.689.689,0,1,1-.709-1.183c.628-.377,1.273-.742,1.917-1.087a.689.689,0,0,1,.933.282Zm46.363,2.507c.6.418,1.2.856,1.775,1.3a.689.689,0,0,1-.842,1.092c-.562-.433-1.141-.858-1.722-1.264a.689.689,0,1,1,.789-1.131Zm4.521,3.6c.542.49,1.079,1,1.6,1.517a.689.689,0,1,1-.974.977c-.5-.5-1.023-1-1.549-1.472a.689.689,0,0,1,.925-1.022Zm4.031,4.144c.476.556.945,1.131,1.393,1.709a.689.689,0,1,1-1.089.845c-.435-.56-.889-1.118-1.351-1.657a.69.69,0,0,1,1.047-.9Zm3.474,4.623c.4.613.794,1.243,1.165,1.873a.689.689,0,1,1-1.188.7c-.36-.611-.74-1.222-1.13-1.816a.689.689,0,1,1,1.153-.756Zm2.858,5.03c.32.659.628,1.335.916,2.009a.689.689,0,0,1-1.268.541c-.278-.653-.577-1.308-.888-1.947a.689.689,0,1,1,1.24-.6Zm2.189,5.354c.232.691.451,1.4.65,2.1a.689.689,0,0,1-1.327.375c-.193-.684-.405-1.371-.63-2.041a.689.689,0,1,1,1.307-.439Zm1.485,5.585c.142.717.269,1.448.376,2.171a.69.69,0,0,1-1.364.2c-.1-.7-.226-1.409-.365-2.1a.69.69,0,0,1,.542-.81.7.7,0,0,1,.141-.013A.69.69,0,0,1,2633.392,696.934Zm.762,5.728q.016.224.029.449c.035.583.059,1.172.071,1.752a.689.689,0,1,1-1.378.03c-.012-.562-.036-1.134-.069-1.7q-.013-.218-.028-.436a.689.689,0,0,1,.64-.735l.055,0A.689.689,0,0,1,2634.154,702.662Zm-.612,5.053a.689.689,0,0,1,.649.727c-.041.732-.1,1.471-.178,2.2a.689.689,0,1,1-1.371-.145c.074-.7.133-1.42.173-2.13a.689.689,0,0,1,.694-.65Z" transform="translate(-2561.427 -660.464)" fill="url(#linear-gradient-4)"/>
          <path id="Trazado_220109" data-name="Trazado 220109" d="M2530.087,739.4a.687.687,0,0,0-.406.128q-.456.325-.9.661a.689.689,0,1,0,.828,1.1q.434-.326.876-.641a.69.69,0,0,0-.394-1.251Z" transform="translate(-2528.502 -731.116)" fill="url(#linear-gradient-4)"/>
        </g>
        <g id="Grupo_163491" data-name="Grupo 163491" transform="translate(10.8 11.127)">
          <path id="Trazado_220110" data-name="Trazado 220110" d="M2466.918,782.137a.536.536,0,0,0-.046.621l3.381,5.579a28.426,28.426,0,0,0-2.734,8.791l-5.943,2.679a.536.536,0,0,0-.313.538l.715,7.792a.536.536,0,0,0,.406.471l6.331,1.553a28.418,28.418,0,0,0,4.288,8.147l-2.309,6.1a.536.536,0,0,0,.158.6l6.015,5a.536.536,0,0,0,.62.047l5.579-3.381a28.409,28.409,0,0,0,8.791,2.734l2.679,5.943a.536.536,0,0,0,.537.313l7.792-.715a.536.536,0,0,0,.471-.406l1.553-6.332a28.417,28.417,0,0,0,8.147-4.288l6.1,2.31a.536.536,0,0,0,.6-.159l5-6.015a.535.535,0,0,0,.046-.62l-3.381-5.579a28.422,28.422,0,0,0,2.735-8.791l5.943-2.679a.536.536,0,0,0,.313-.537l-.714-7.792a.537.537,0,0,0-.406-.472l-6.332-1.553a28.414,28.414,0,0,0-4.288-8.147l2.309-6.1a.536.536,0,0,0-.158-.6l-6.015-5a.536.536,0,0,0-.62-.046l-5.579,3.381a28.416,28.416,0,0,0-8.791-2.734l-2.679-5.943a.537.537,0,0,0-.538-.313l-7.792.715a.536.536,0,0,0-.472.406l-1.553,6.331a28.42,28.42,0,0,0-8.147,4.288l-6.1-2.309a.536.536,0,0,0-.6.159Z" transform="translate(-2461.26 -766.531)" fill="#ff6148"/>
          <path id="Trazado_220111" data-name="Trazado 220111" d="M2727.961,1024.662a7.473,7.473,0,1,1-1.109-.092A7.6,7.6,0,0,1,2727.961,1024.662Zm2.6,12.579a6.4,6.4,0,0,0-2.774-11.489h0a6.4,6.4,0,0,0-1.985,12.638,6.489,6.489,0,0,0,.946.079A6.348,6.348,0,0,0,2730.564,1037.241Z" transform="translate(-2692.226 -997.499)" fill="#fff"/>
          <path id="Trazado_220112" data-name="Trazado 220112" d="M2628.677,914.572a19.261,19.261,0,0,0-1.946.08h0q-.391.036-.78.088a19.351,19.351,0,0,0-2.691.554l-.075.021q-.228.065-.454.136a.276.276,0,0,0-.193.26.266.266,0,0,0,.013.085.276.276,0,0,0,.345.181,18.757,18.757,0,0,1,3.885-.776h0a18.619,18.619,0,0,1,20.136,16.026q.054.4.091.8a18.99,18.99,0,0,1,.079,1.913,18.606,18.606,0,0,1-37.134,1.486,18.614,18.614,0,0,1,1.753-9.754.276.276,0,1,0-.5-.239,19.1,19.1,0,0,0-1.885,8.1,19.161,19.161,0,0,0,20.906,19.271,19.161,19.161,0,0,0,17.408-18.857,19.538,19.538,0,0,0-.081-1.97A19.185,19.185,0,0,0,2628.677,914.572Z" transform="translate(-2593.791 -899.04)" fill="#fff"/>
        </g>
      </g>
      <g id="Grupo_163496" data-name="Grupo 163496" transform="translate(0 0)">
        <g id="Grupo_163493" data-name="Grupo 163493" transform="translate(0 19.128)" opacity="0.3">
          <path id="Trazado_220113" data-name="Trazado 220113" d="M1986.073,635.162a.384.384,0,0,0-.371.273q-.141.465-.266.937a.384.384,0,1,0,.743.2q.122-.458.259-.911a.384.384,0,0,0-.364-.5Z" transform="translate(-1984.527 -635.162)" fill="url(#linear-gradient-4)"/>
          <path id="Trazado_220114" data-name="Trazado 220114" d="M1977.805,662.155a.385.385,0,0,1,.307.449c-.118.628-.215,1.27-.287,1.906a.385.385,0,1,1-.764-.087c.074-.655.174-1.315.3-1.961a.385.385,0,0,1,.449-.307Zm-.5,3.877a.384.384,0,0,1,.369.4q-.017.415-.021.835-.005.544.012,1.093a.385.385,0,1,1-.769.023q-.017-.563-.012-1.124,0-.431.022-.859a.384.384,0,0,1,.388-.369Zm.488,4.251c.066.638.155,1.279.266,1.909a.385.385,0,1,1-.757.133c-.114-.647-.206-1.307-.273-1.964a.384.384,0,0,1,.343-.422l.043,0A.385.385,0,0,1,1977.8,670.284Zm.668,3.793c.156.621.338,1.243.539,1.85a.385.385,0,0,1-.73.242c-.207-.625-.394-1.265-.554-1.9a.384.384,0,0,1,.279-.467.4.4,0,0,1,.1-.011A.384.384,0,0,1,1978.464,674.077Zm1.211,3.656c.245.591.515,1.182.8,1.755a.384.384,0,1,1-.687.345c-.3-.589-.574-1.2-.826-1.8a.385.385,0,0,1,.711-.295Zm1.731,3.444c.328.549.681,1.093,1.049,1.619a.384.384,0,1,1-.63.441c-.378-.541-.741-1.1-1.079-1.665a.385.385,0,0,1,.133-.527.379.379,0,0,1,.2-.055A.384.384,0,0,1,1981.405,681.177Zm2.212,3.156c.4.494.83.982,1.271,1.45a.385.385,0,0,1-.56.527c-.453-.482-.893-.983-1.307-1.492a.385.385,0,0,1,.6-.486Zm2.642,2.8c.469.431.962.853,1.465,1.252a.385.385,0,0,1-.478.6c-.518-.411-1.025-.845-1.507-1.288a.385.385,0,0,1,.52-.567Zm3.017,2.4c.525.359,1.074.7,1.63,1.029a.385.385,0,1,1-.387.665c-.572-.333-1.136-.689-1.676-1.058a.385.385,0,1,1,.434-.635Zm27.989,1.67a.384.384,0,0,1-.159.52c-.582.31-1.182.6-1.784.868a.385.385,0,0,1-.311-.7c.585-.258,1.168-.542,1.733-.843a.384.384,0,0,1,.52.158Zm-24.661.265c.576.281,1.168.544,1.76.782a.385.385,0,1,1-.286.714c-.609-.245-1.219-.515-1.811-.8a.384.384,0,1,1,.337-.691Zm21.109,1.367a.385.385,0,0,1-.233.492c-.618.221-1.255.422-1.891.6a.385.385,0,0,1-.205-.741c.619-.172,1.238-.367,1.838-.582a.385.385,0,0,1,.491.233Zm-17.537.066c.611.195,1.235.369,1.856.518a.385.385,0,1,1-.18.748c-.639-.154-1.281-.333-1.91-.534a.384.384,0,0,1,.234-.733Zm13.784,1.031a.384.384,0,0,1-.3.452c-.646.129-1.3.236-1.958.319a.385.385,0,0,1-.1-.763c.635-.08,1.275-.184,1.9-.31a.384.384,0,0,1,.452.3Zm-10.04-.132c.63.1,1.274.186,1.911.243a.385.385,0,0,1-.069.766c-.656-.059-1.319-.143-1.967-.25a.385.385,0,0,1,.066-.764A.406.406,0,0,1,1999.921,693.8Zm6.168.675a.384.384,0,0,1-.363.4c-.582.031-1.172.044-1.755.039l-.228,0a.385.385,0,0,1,.011-.769h0l.22,0c.567.005,1.141-.007,1.706-.038h.025A.385.385,0,0,1,2006.089,694.475Z" transform="translate(-1976.885 -659.318)" fill="url(#linear-gradient-4)"/>
          <path id="Trazado_220115" data-name="Trazado 220115" d="M2372.355,922.676a.382.382,0,0,0-.22.067q-.391.266-.792.52a.385.385,0,0,0,.411.651q.413-.261.814-.535a.385.385,0,0,0-.213-.7Z" transform="translate(-2329.8 -892.513)" fill="url(#linear-gradient-4)"/>
        </g>
        <g id="Grupo_163494" data-name="Grupo 163494" transform="translate(10.791)" opacity="0.3">
          <path id="Trazado_220116" data-name="Trazado 220116" d="M2486.335,754.662a.385.385,0,0,0-.382.318q-.082.468-.181.929a.385.385,0,0,0,.752.16q.1-.476.186-.957a.385.385,0,0,0-.312-.445A.361.361,0,0,0,2486.335,754.662Z" transform="translate(-2443.167 -722.997)" fill="url(#linear-gradient-13)"/>
          <path id="Trazado_220117" data-name="Trazado 220117" d="M2117.845,452.834c.65.022,1.3.067,1.946.135a.384.384,0,0,1,.343.422.379.379,0,0,1-.422.342c-.624-.065-1.26-.109-1.892-.131a.385.385,0,0,1,.016-.769Zm-1.553.375a.385.385,0,0,1-.37.4q-.3.011-.606.03c-.428.026-.861.062-1.287.107a.384.384,0,1,1-.081-.765c.438-.047.883-.084,1.323-.11.208-.012.416-.023.624-.03h.018A.385.385,0,0,1,2116.292,453.209Zm5.431.033c.64.114,1.281.252,1.907.411a.385.385,0,0,1-.189.746c-.608-.154-1.232-.288-1.854-.4a.385.385,0,0,1,.071-.763A.4.4,0,0,1,2121.723,453.242Zm-9.262.326a.384.384,0,0,1-.31.447c-.621.112-1.245.247-1.854.4a.385.385,0,1,1-.19-.745c.627-.16,1.268-.3,1.907-.414a.4.4,0,0,1,.073-.006A.385.385,0,0,1,2112.462,453.568Zm13.04.631c.613.2,1.228.431,1.828.679a.384.384,0,1,1-.293.711c-.583-.24-1.181-.462-1.776-.66a.385.385,0,0,1,.125-.75A.389.389,0,0,1,2125.5,454.2Zm-16.781.266a.385.385,0,0,1-.244.486c-.6.2-1.2.422-1.776.663a.385.385,0,1,1-.3-.71c.6-.248,1.212-.478,1.829-.683a.391.391,0,0,1,.125-.02A.385.385,0,0,1,2108.721,454.465Zm20.383,1.221c.578.289,1.155.6,1.713.933a.384.384,0,1,1-.391.662c-.543-.321-1.1-.626-1.665-.906a.385.385,0,1,1,.343-.688Zm-23.957.2a.385.385,0,0,1-.171.516c-.563.283-1.123.589-1.664.911a.385.385,0,0,1-.393-.661c.557-.331,1.133-.647,1.712-.937a.385.385,0,0,1,.517.171Zm27.313,1.783c.534.37,1.061.763,1.563,1.166a.385.385,0,1,1-.481.6c-.489-.393-1-.774-1.521-1.135a.385.385,0,1,1,.438-.632Zm3.042,2.441c.477.442.943.905,1.384,1.376a.385.385,0,1,1-.561.526c-.429-.458-.882-.908-1.345-1.337a.385.385,0,0,1,.523-.564Zm2.667,2.846c.409.5.8,1.029,1.176,1.559a.385.385,0,0,1-.63.441c-.361-.515-.745-1.025-1.143-1.515a.385.385,0,0,1,.6-.485Zm2.237,3.2c.333.558.65,1.133.942,1.711a.384.384,0,1,1-.687.346c-.283-.561-.592-1.121-.916-1.663a.385.385,0,0,1,.66-.4Zm1.76,3.485c.25.6.481,1.213.687,1.826a.385.385,0,1,1-.729.245c-.2-.6-.424-1.193-.667-1.775a.384.384,0,0,1,.207-.5.376.376,0,0,1,.151-.03A.384.384,0,0,1,2142.165,469.64Zm1.24,3.7c.161.627.3,1.268.419,1.906a.385.385,0,1,1-.757.138c-.113-.619-.25-1.242-.406-1.851a.384.384,0,1,1,.744-.192Zm.7,3.836c.051.461.09.928.117,1.389q.016.278.027.555a.384.384,0,1,1-.768.031q-.011-.27-.027-.541c-.027-.448-.065-.9-.115-1.351a.385.385,0,0,1,.34-.425.375.375,0,0,1,.046,0A.384.384,0,0,1,2144.106,477.173Zm-.219,3.5a.385.385,0,0,1,.373.4c-.02.649-.063,1.3-.13,1.947a.384.384,0,1,1-.765-.079c.064-.625.107-1.262.126-1.892a.385.385,0,0,1,.388-.373Z" transform="translate(-2100.319 -452.834)" fill="url(#linear-gradient-4)"/>
          <path id="Trazado_220118" data-name="Trazado 220118" d="M2080.909,498.776a.384.384,0,0,0-.223.069q-.4.279-.789.571a.385.385,0,1,0,.462.615q.378-.284.767-.556a.385.385,0,0,0-.217-.7Z" transform="translate(-2079.743 -493.956)" fill="url(#linear-gradient-4)"/>
        </g>
        <g id="Grupo_163495" data-name="Grupo 163495" transform="translate(6.496 6.678)">
          <path id="Trazado_220119" data-name="Trazado 220119" d="M2042.22,525.921a.324.324,0,0,0-.028.375l2.043,3.372a17.174,17.174,0,0,0-1.653,5.313l-3.592,1.619a.324.324,0,0,0-.189.325l.432,4.709a.323.323,0,0,0,.245.285l3.826.939a17.173,17.173,0,0,0,2.592,4.924l-1.4,3.687a.324.324,0,0,0,.1.364l3.635,3.024a.324.324,0,0,0,.375.028l3.372-2.043a17.17,17.17,0,0,0,5.313,1.653l1.619,3.592a.324.324,0,0,0,.325.189l4.709-.432a.324.324,0,0,0,.285-.245l.939-3.826a17.17,17.17,0,0,0,4.923-2.591l3.687,1.4a.324.324,0,0,0,.364-.1l3.024-3.635a.323.323,0,0,0,.028-.375l-2.043-3.372a17.154,17.154,0,0,0,1.653-5.313l3.592-1.619a.325.325,0,0,0,.19-.325l-.432-4.709a.324.324,0,0,0-.246-.285l-3.826-.939a17.171,17.171,0,0,0-2.591-4.923l1.4-3.687a.324.324,0,0,0-.1-.364l-3.635-3.024a.324.324,0,0,0-.375-.028l-3.372,2.043a17.173,17.173,0,0,0-5.312-1.653l-1.619-3.592a.324.324,0,0,0-.325-.189l-4.709.432a.323.323,0,0,0-.285.245l-.939,3.826a17.166,17.166,0,0,0-4.923,2.591l-3.687-1.4a.324.324,0,0,0-.364.1Z" transform="translate(-2038.8 -516.489)" fill="#ff6148"/>
          <path id="Trazado_220120" data-name="Trazado 220120" d="M2199.546,672a4.56,4.56,0,1,1-.678-.057A4.649,4.649,0,0,1,2199.546,672Zm1.535,7.61a3.814,3.814,0,0,0-1.654-6.851h0a3.814,3.814,0,0,0-1.184,7.536,3.878,3.878,0,0,0,.564.047A3.784,3.784,0,0,0,2201.081,679.606Z" transform="translate(-2177.942 -655.631)" fill="#fff" opacity="0.56"/>
          <path id="Trazado_220121" data-name="Trazado 220121" d="M2138.12,603.88a11.973,11.973,0,0,0-1.2.049h0l-.054.005a11.837,11.837,0,0,0-2.366.474l-.042.013a.384.384,0,1,0,.23.734,11.09,11.09,0,0,1,2.3-.46H2137a11.02,11.02,0,1,1-8.942,6.207.385.385,0,0,0-.693-.333,11.8,11.8,0,1,0,22.429,5.229q.005-.595-.049-1.2A11.813,11.813,0,0,0,2138.12,603.88Z" transform="translate(-2117.035 -594.711)" fill="#fff" opacity="0.56"/>
        </g>
      </g>
    </g>
    <g id="Grupo_163501" data-name="Grupo 163501" transform="translate(488.587 543.169)">
      <path id="Trazado_220122" data-name="Trazado 220122" d="M912.967,3112.609c-3.729.323-10.2.846-15.3,1.071a14.728,14.728,0,0,1-5.849-.573c0,.115,0,.223.009.324a1.055,1.055,0,0,0,1,1,179.188,179.188,0,0,0,20.036.02.751.751,0,0,0,.612-1.129A6.166,6.166,0,0,0,912.967,3112.609Z" transform="translate(-852.968 -2925.378)" fill="url(#linear-gradient-16)"/>
      <path id="Trazado_220123" data-name="Trazado 220123" d="M897.654,3049.443c5.1-.225,11.573-.748,15.3-1.071-3.666-4.5-15.3-7.529-15.3-7.529h-3.286a13.78,13.78,0,0,0-2.563,8.027A14.731,14.731,0,0,0,897.654,3049.443Z" transform="translate(-852.957 -2861.142)" fill="url(#linear-gradient-17)"/>
      <path id="Trazado_220124" data-name="Trazado 220124" d="M910.969,2989.7l.308,6.085a1.39,1.39,0,0,0,1.187,1.308,5.413,5.413,0,0,0,2.469-.2,1.645,1.645,0,0,0,1.105-1.264l1.063-5.924Z" transform="translate(-870.112 -2815.367)" fill="url(#linear-gradient-18)"/>
      <g id="Grupo_163498" data-name="Grupo 163498" transform="translate(0 176.211)">
        <path id="Trazado_220125" data-name="Trazado 220125" d="M524.237,3157.874a3.207,3.207,0,0,1-2.655-2.538l-.006.031a2.893,2.893,0,0,0,1.416,3.1,7.373,7.373,0,0,0,3.921.793,3.626,3.626,0,0,0,2.94-1.752l.009-.016C528.644,3158.268,526.934,3158.36,524.237,3157.874Z" transform="translate(-521.521 -3139.833)" fill="url(#linear-gradient-19)"/>
        <path id="Trazado_220126" data-name="Trazado 220126" d="M532.378,3007.57h-2.71c-4.128-.109-6.72,11.144-7.569,15.5a3.208,3.208,0,0,0,2.655,2.538c2.7.486,4.407.395,5.625-.385,2.23-3.793,3.336-9.348,3.867-12.59C534.851,3008.948,532.378,3007.57,532.378,3007.57Z" transform="translate(-522.038 -3007.57)" fill="url(#linear-gradient-20)"/>
      </g>
      <path id="Trazado_220127" data-name="Trazado 220127" d="M584.31,2953.735l-1.5,5.986a1.624,1.624,0,0,0,.845,1.841,5.769,5.769,0,0,0,3.116.755,1.358,1.358,0,0,0,1.107-.905l2.209-6.3Z" transform="translate(-576.332 -2783.172)" fill="url(#linear-gradient-21)"/>
      <path id="Trazado_220128" data-name="Trazado 220128" d="M640.479,2187.829s-13.448,84.065-13.227,84.527a11.186,11.186,0,0,1-7.764.215s1.216-44.938,4.066-62.169c0,0-22.952,40.166-30.241,60.18a18.221,18.221,0,0,1-6.948-2.524s24.713-72.3,31.306-81.927Z" transform="translate(-579.562 -2096.098)" fill="#083142"/>
      <path id="Trazado_220129" data-name="Trazado 220129" d="M944.888,2333.359l4.987-7.966,3.627-.73-.067-.331-3.77.759-5.064,8.089Z" transform="translate(-900.216 -2219.8)" fill="url(#linear-gradient-22)"/>
      <path id="Trazado_220130" data-name="Trazado 220130" d="M1406.9,1417.68s-9.075,2-14.594,4.55a5.039,5.039,0,0,0-2.469,2.482c-1.651,3.616-6.59,12.684-16.168,17.011,1.379,1.831,3.6,5.639,4.568,12.04,5.753-4.282,10.719-11.432,13.1-23.159a4.68,4.68,0,0,0,4.081-.113c1.2-.581,2.578-1.406,3.616-2.054a4.74,4.74,0,0,0,2.1-2.823,16.381,16.381,0,0,0,.162-4.371l4.665-1.445A1.659,1.659,0,0,0,1406.9,1417.68Z" transform="translate(-1284.273 -1408.266)" fill="url(#linear-gradient-23)"/>
      <path id="Trazado_220131" data-name="Trazado 220131" d="M744.632,1653.607c-.967-6.4-3.188-10.209-4.568-12.04-5.95,2.688-13.69,3.548-23.546.132a10.478,10.478,0,0,0-2.817-.556c-5.247-.308-22.537-.869-36.844,3.858a11.118,11.118,0,0,0-6.707,6.1c-3.87,8.882-10.136,29.109,7.259,39.32a43.146,43.146,0,0,1,4.2-7.944c-2.8-4.725-3.631-11.179,1.34-19.582,3.625,9.787,5.325,24.069,5.681,30.389a13.585,13.585,0,0,1-1.065,6.079l-.089.209a.72.72,0,0,0,.505.982A82.51,82.51,0,0,0,711,1701.91a1.256,1.256,0,0,0,1.119-.959c4.762-20.064,4.773-33.751,3.607-42.4C720.18,1659.544,733.8,1661.668,744.632,1653.607Z" transform="translate(-650.664 -1608.11)" fill="url(#linear-gradient-24)"/>
      <path id="Trazado_220132" data-name="Trazado 220132" d="M1108.73,1692.534s2.33,3.671,3.477,12.331Z" transform="translate(-1047.125 -1654.285)" fill="url(#linear-gradient-25)"/>
      <path id="Trazado_220133" data-name="Trazado 220133" d="M895.276,1531.409s-.991,10.475-1.863,13.573a1.059,1.059,0,0,0,.5,1.21c1.48.846,5.031,2.226,9.888-.155a2.2,2.2,0,0,0,1.223-2.073l-.428-10.122Z" transform="translate(-854.362 -1510.063)" fill="url(#linear-gradient-26)"/>
      <g id="Grupo_163499" data-name="Grupo 163499" transform="translate(32.054 0)">
        <path id="Trazado_220134" data-name="Trazado 220134" d="M893.95,1403.681s3.169,7.279,3.381,11.1,1.036,6.3-3.381,7.069a9.391,9.391,0,0,1-10.154-5.237s-3.159-5.864-2.45-8.265S893.95,1403.681,893.95,1403.681Z" transform="translate(-875.557 -1395.736)" fill="url(#linear-gradient-27)"/>
        <path id="Trazado_220135" data-name="Trazado 220135" d="M836.8,1346.086l.251-.111a.606.606,0,0,0,.3-.833c-.623-1.2-1.837-3.962-.268-4.6,2.022-.829,10.03-2.462,11.758-5.3a5.287,5.287,0,0,0-2.022-7.259.3.3,0,0,0-.4.13l-.184.349a.3.3,0,0,1-.554-.057h0a.3.3,0,0,0-.54-.078c-.531.85-1.965,2.229-5.8,2.936-5.45,1.006-9.052,3.211-9.142,6.977a.3.3,0,0,1-.465.248c-.4-.245-1.046-.36-1.907.363-1.5,1.259-.884,4.523,2.4,7.208a.3.3,0,0,1-.014.481c-.595.387-1.482,1.308.816,2.536a7.736,7.736,0,0,0,4.834,1.053.3.3,0,0,0,.242-.361l-.729-3.31a.3.3,0,0,1,.293-.365Z" transform="translate(-827.054 -1327.946)" fill="url(#linear-gradient-28)"/>
        <path id="Trazado_220136" data-name="Trazado 220136" d="M887.317,1477s-1.209-4.649-3.293-3.346,1.082,5.21,2.758,5.384Z" transform="translate(-877.432 -1458.161)" fill="url(#linear-gradient-29)"/>
      </g>
      <path id="Trazado_220137" data-name="Trazado 220137" d="M1554.3,1467.849a.348.348,0,0,1-.27-.567c.343-.422,3.382-4.138,4.547-4.8.446-.252.7-.5.76-.752a.66.66,0,0,0-.073-.441l-3.629.727-2.037,1.748a.348.348,0,0,1-.453-.528l2.106-1.807a.343.343,0,0,1,.158-.077l3.961-.794a.347.347,0,0,1,.357.146,1.466,1.466,0,0,1,.287,1.185,2,2,0,0,1-1.094,1.2c-.889.5-3.442,3.512-4.35,4.63A.347.347,0,0,1,1554.3,1467.849Z" transform="translate(-1444.808 -1446.643)" fill="#f8a570"/>
      <path id="Trazado_220138" data-name="Trazado 220138" d="M791.553,2051.952l14.3-.311s-12.469-3.524-13.242-2.564c0,0-7.728-5.078-11.964-12.222a43.134,43.134,0,0,0-4.2,7.944C780.245,2047.027,785.231,2050.9,791.553,2051.952Z" transform="translate(-749.703 -1962.482)" fill="url(#linear-gradient-30)"/>
      <path id="Trazado_220139" data-name="Trazado 220139" d="M916.572,2157.165s-.295,5.7,7.184,4.87c4.064-.45,10.626-4.239,10.626-4.239S917.279,2157.75,916.572,2157.165Z" transform="translate(-875.125 -2070.171)" fill="url(#linear-gradient-31)"/>
      <g id="Grupo_163500" data-name="Grupo 163500" transform="translate(42.864 56.585)">
        <path id="Trazado_220140" data-name="Trazado 220140" d="M931.6,2144.553l.082,0,35.552-.039a1.574,1.574,0,1,0,0-3.149l-35.552.038a1.574,1.574,0,0,0-.078,3.147Z" transform="translate(-930.092 -2112.615)" fill="url(#linear-gradient-32)"/>
        <path id="Trazado_220141" data-name="Trazado 220141" d="M1175.85,1867.306h-29.608a5.647,5.647,0,0,0-5.1,3.2l-13.688,28.717h36.795a3.43,3.43,0,0,0,3.189-2.146l10.614-26.573A2.342,2.342,0,0,0,1175.85,1867.306Z" transform="translate(-1106.746 -1867.306)" fill="url(#linear-gradient-33)"/>
        <path id="Trazado_220142" data-name="Trazado 220142" d="M1387.52,1982.622c-.642,1.972-.167,3.888,1.059,4.278s2.741-.892,3.382-2.864.168-3.888-1.059-4.278S1388.162,1980.649,1387.52,1982.622Z" transform="translate(-1339.275 -1967.897)" fill="url(#linear-gradient-34)"/>
      </g>
    </g>
    <g id="Grupo_163505" data-name="Grupo 163505" transform="translate(546.882 451.187)">
      <g id="Grupo_163502" data-name="Grupo 163502" transform="translate(0 0)">
        <path id="Trazado_220143" data-name="Trazado 220143" d="M1144.621,473.213a.542.542,0,0,1-.526-.535c-.054-2.994-.976-17.861-13.909-20.968-14.4-3.459-20.987,11.365-20.987,11.365s-17.814-6.918-21.23,11.612c-11.17,2.714-14.072,17.483-6.807,24.7a6.206,6.206,0,0,0,4.318,1.809l69.952.638a4.613,4.613,0,0,0,4.457-3.335C1162.076,491.032,1164.94,473.695,1144.621,473.213Z" transform="translate(-1077.178 -451.187)" fill="url(#linear-gradient-35)"/>
        <path id="Trazado_220144" data-name="Trazado 220144" d="M1160.466,488.668a.542.542,0,0,1-.526-.534c-.057-2.872-.971-16.658-13.151-19.547-13.614-3.23-19.844,10.613-19.844,10.613s-16.844-6.46-20.075,10.844c-10.46,2.51-13.252,16.062-6.631,22.869a6.209,6.209,0,0,0,4.4,1.887l65.85.593a4.613,4.613,0,0,0,4.46-3.347C1177,504.954,1179.436,489.127,1160.466,488.668Z" transform="translate(-1094.622 -466.324)" fill="url(#linear-gradient-36)"/>
      </g>
      <g id="Grupo_163503" data-name="Grupo 163503" transform="translate(32.915 16.477)">
        <path id="Trazado_220145" data-name="Trazado 220145" d="M1408.792,626.436l-6.225.251-.719-17.8a.41.41,0,0,1,.394-.427l5.377-.217a.438.438,0,0,1,.455.42Z" transform="translate(-1400.702 -608.244)" fill="#fff"/>
        <path id="Trazado_220146" data-name="Trazado 220146" d="M1390.979,772.655s3.809,6.748,5.095,8.793a.4.4,0,0,0,.707-.047l4.221-9.1c.151-.268.011-.69-.226-.68l-9.6.388C1390.963,772.019,1390.848,772.387,1390.979,772.655Z" transform="translate(-1390.923 -754.482)" fill="#fff"/>
      </g>
      <g id="Grupo_163504" data-name="Grupo 163504" transform="translate(43.816 16.521)">
        <path id="Rectángulo_48540" data-name="Rectángulo 48540" d="M3.014,0h0A3.215,3.215,0,0,1,6.23,3.215V18.224a0,0,0,0,1,0,0H0a0,0,0,0,1,0,0V3.014A3.014,3.014,0,0,1,3.014,0Z" transform="matrix(-1, 0.015, -0.015, -1, 8.563, 27.022)" fill="#fff"/>
        <path id="Trazado_220147" data-name="Trazado 220147" d="M1504.929,617.784s-3.634-6.844-4.867-8.921a.4.4,0,0,0-.708.029l-4.454,8.986c-.158.264-.028.689.208.686l9.6-.141C1504.929,618.42,1505.052,618.055,1504.929,617.784Z" transform="translate(-1494.831 -608.667)" fill="#fff"/>
      </g>
    </g>
  </g>
</svg>
