<svg xmlns="http://www.w3.org/2000/svg" xmlns:xlink="http://www.w3.org/1999/xlink" width="505" height="410.47" viewBox="0 0 505 410.47">
  <defs>
    <clipPath id="clip-path">
      <path id="Trazado_165434" data-name="Trazado 165434" d="M0,4.151A4.149,4.149,0,1,0,4.148,0,4.148,4.148,0,0,0,0,4.151" fill="#2efec7"/>
    </clipPath>
    <clipPath id="clip-path-2">
      <path id="Trazado_165438" data-name="Trazado 165438" d="M4.147,0A4.148,4.148,0,1,0,8.3,4.15,4.148,4.148,0,0,0,4.147,0Z" fill="#2efec7"/>
    </clipPath>
    <clipPath id="clip-path-3">
      <path id="Trazado_165440" data-name="Trazado 165440" d="M0,4.151A4.148,4.148,0,1,0,4.148,0,4.149,4.149,0,0,0,0,4.151" fill="#2efec7"/>
    </clipPath>
    <clipPath id="clip-path-4">
      <path id="Trazado_165442" data-name="Trazado 165442" d="M0,4.149A4.148,4.148,0,1,0,4.148,0,4.148,4.148,0,0,0,0,4.149" fill="#2efec7"/>
    </clipPath>
    <clipPath id="clip-path-5">
      <path id="Trazado_165444" data-name="Trazado 165444" d="M4.146,0A4.148,4.148,0,1,0,8.3,4.149,4.147,4.147,0,0,0,4.146,0Z" fill="#2efec7"/>
    </clipPath>
    <clipPath id="clip-path-6">
      <path id="Trazado_165446" data-name="Trazado 165446" d="M0,4.151A4.149,4.149,0,1,0,4.148,0,4.149,4.149,0,0,0,0,4.151" fill="#2efec7"/>
    </clipPath>
    <clipPath id="clip-path-7">
      <path id="Trazado_165448" data-name="Trazado 165448" d="M0,4.149A4.149,4.149,0,1,0,4.15,0h0A4.153,4.153,0,0,0,0,4.149" fill="#2efec7"/>
    </clipPath>
    <clipPath id="clip-path-8">
      <path id="Trazado_165450" data-name="Trazado 165450" d="M4.146,0A4.148,4.148,0,1,0,8.3,4.15,4.147,4.147,0,0,0,4.146,0Z" fill="#2efec7"/>
    </clipPath>
    <clipPath id="clip-path-9">
      <path id="Trazado_165452" data-name="Trazado 165452" d="M0,4.151A4.148,4.148,0,1,0,4.147,0,4.148,4.148,0,0,0,0,4.151" fill="#2efec7"/>
    </clipPath>
    <clipPath id="clip-path-10">
      <path id="Trazado_165454" data-name="Trazado 165454" d="M0,4.149A4.148,4.148,0,1,0,4.147,0,4.147,4.147,0,0,0,0,4.149" fill="#2efec7"/>
    </clipPath>
    <clipPath id="clip-path-12">
      <path id="Trazado_165436" data-name="Trazado 165436" d="M0,4.149A4.149,4.149,0,1,0,4.149,0h0A4.153,4.153,0,0,0,0,4.149" fill="#2efec7"/>
    </clipPath>
  </defs>
  <g id="Grupo_1079382" data-name="Grupo 1079382" transform="translate(-810 -3718.463)">
    <g id="Grupo_1079385" data-name="Grupo 1079385" transform="translate(2967.902 11621.895)">
      <g id="Grupo_1078349" data-name="Grupo 1078349" transform="translate(-2127.144 -7861.694)">
        <ellipse id="Elipse_6441" data-name="Elipse 6441" cx="144.394" cy="147.206" rx="144.394" ry="147.206" transform="translate(151.477 0)" fill="#ffc8bf"/>
        <circle id="Elipse_6442" data-name="Elipse 6442" cx="131.454" cy="131.454" r="131.454" transform="translate(20.733 38.113)" fill="#ffc8bf"/>
      </g>
    </g>
    <g id="Grupo_1079473" data-name="Grupo 1079473">
      <g id="Grupo_1079381" data-name="Grupo 1079381" transform="translate(3294.026 11687.414)">
        <g id="Grupo_1078803" data-name="Grupo 1078803" transform="translate(-3294.026 -12615.435)">
          <g id="Grupo_1078481" data-name="Grupo 1078481" transform="translate(805.949 4646.483)">
            <rect id="Rect치ngulo_373681" data-name="Rect치ngulo 373681" width="12.041" height="70.838" rx="6.021" transform="translate(500.537 0) rotate(45)" fill="#ffb476"/>
            <g id="Grupo_1065536" data-name="Grupo 1065536" transform="translate(433.332 410.469) rotate(-90)">
              <g id="Group_881454" data-name="Group 881454" transform="translate(0 67.421)">
                <g id="Grupo_108438" data-name="Grupo 108438">
                  <path id="Trazado_165433" data-name="Trazado 165433" d="M0,4.151A4.149,4.149,0,1,0,4.148,0,4.148,4.148,0,0,0,0,4.151" fill="#2efec7"/>
                  <g id="Grupo_108437" data-name="Grupo 108437" clip-path="url(#clip-path)">
                    <g id="Group_881453" data-name="Group 881453" transform="translate(0 0)">
                      <rect id="Rectangle_298909" data-name="Rectangle 298909" width="8.297" height="8.297" fill="#2efec7"/>
                    </g>
                  </g>
                </g>
              </g>
              <g id="Group_881458" data-name="Group 881458" transform="translate(0.001)">
                <g id="Grupo_108442" data-name="Grupo 108442">
                  <path id="Trazado_165437" data-name="Trazado 165437" d="M4.147,0A4.148,4.148,0,1,0,8.3,4.15,4.148,4.148,0,0,0,4.147,0Z" fill="#2efec7"/>
                  <g id="Grupo_108441" data-name="Grupo 108441" clip-path="url(#clip-path-2)">
                    <g id="Group_881457" data-name="Group 881457" transform="translate(-0.001 0.001)">
                      <rect id="Rectangle_298911" data-name="Rectangle 298911" width="8.297" height="8.295" fill="#2efec7"/>
                    </g>
                  </g>
                </g>
              </g>
              <g id="Group_881460" data-name="Group 881460" transform="translate(28.117 67.421)">
                <g id="Grupo_108444" data-name="Grupo 108444">
                  <path id="Trazado_165439" data-name="Trazado 165439" d="M0,4.151A4.148,4.148,0,1,0,4.148,0,4.149,4.149,0,0,0,0,4.151" fill="#2efec7"/>
                  <g id="Grupo_108443" data-name="Grupo 108443" clip-path="url(#clip-path-3)">
                    <g id="Group_881459" data-name="Group 881459" transform="translate(0 0)">
                      <rect id="Rectangle_298912" data-name="Rectangle 298912" width="8.297" height="8.297" fill="#2efec7"/>
                    </g>
                  </g>
                </g>
              </g>
              <g id="Group_881462" data-name="Group 881462" transform="translate(28.117 35.091)">
                <g id="Grupo_108446" data-name="Grupo 108446">
                  <path id="Trazado_165441" data-name="Trazado 165441" d="M0,4.149A4.148,4.148,0,1,0,4.148,0,4.148,4.148,0,0,0,0,4.149" fill="#2efec7"/>
                  <g id="Grupo_108445" data-name="Grupo 108445" clip-path="url(#clip-path-4)">
                    <g id="Group_881461" data-name="Group 881461" transform="translate(0 0)">
                      <rect id="Rectangle_298913" data-name="Rectangle 298913" width="8.297" height="8.297" fill="#2efec7"/>
                    </g>
                  </g>
                </g>
              </g>
              <g id="Group_881464" data-name="Group 881464" transform="translate(28.119)">
                <g id="Grupo_108448" data-name="Grupo 108448">
                  <path id="Trazado_165443" data-name="Trazado 165443" d="M4.146,0A4.148,4.148,0,1,0,8.3,4.149,4.147,4.147,0,0,0,4.146,0Z" fill="#2efec7"/>
                  <g id="Grupo_108447" data-name="Grupo 108447" clip-path="url(#clip-path-5)">
                    <g id="Group_881463" data-name="Group 881463" transform="translate(-0.002 0.001)">
                      <rect id="Rectangle_298914" data-name="Rectangle 298914" width="8.297" height="8.295" fill="#2efec7"/>
                    </g>
                  </g>
                </g>
              </g>
              <g id="Group_881454-2" data-name="Group 881454" transform="translate(57.451 67.421)">
                <g id="Grupo_108450" data-name="Grupo 108450">
                  <path id="Trazado_165445" data-name="Trazado 165445" d="M0,4.151A4.149,4.149,0,1,0,4.148,0,4.149,4.149,0,0,0,0,4.151" fill="#2efec7"/>
                  <g id="Grupo_108449" data-name="Grupo 108449" clip-path="url(#clip-path-6)">
                    <g id="Group_881453-2" data-name="Group 881453" transform="translate(0 0)">
                      <rect id="Rectangle_298909-2" data-name="Rectangle 298909" width="8.297" height="8.297" fill="#2efec7"/>
                    </g>
                  </g>
                </g>
              </g>
              <g id="Group_881456" data-name="Group 881456" transform="translate(57.451 35.091)">
                <g id="Grupo_108452" data-name="Grupo 108452">
                  <path id="Trazado_165447" data-name="Trazado 165447" d="M0,4.149A4.149,4.149,0,1,0,4.15,0h0A4.153,4.153,0,0,0,0,4.149" fill="#2efec7"/>
                  <g id="Grupo_108451" data-name="Grupo 108451" clip-path="url(#clip-path-7)">
                    <g id="Group_881455" data-name="Group 881455" transform="translate(0 0)">
                      <rect id="Rectangle_298910" data-name="Rectangle 298910" width="8.297" height="8.297" fill="#2efec7"/>
                    </g>
                  </g>
                </g>
              </g>
              <g id="Group_881458-2" data-name="Group 881458" transform="translate(57.453)">
                <g id="Grupo_108454" data-name="Grupo 108454">
                  <path id="Trazado_165449" data-name="Trazado 165449" d="M4.146,0A4.148,4.148,0,1,0,8.3,4.15,4.147,4.147,0,0,0,4.146,0Z" fill="#2efec7"/>
                  <g id="Grupo_108453" data-name="Grupo 108453" clip-path="url(#clip-path-8)">
                    <g id="Group_881457-2" data-name="Group 881457" transform="translate(-0.001 0.001)">
                      <rect id="Rectangle_298911-2" data-name="Rectangle 298911" width="8.297" height="8.295" fill="#2efec7"/>
                    </g>
                  </g>
                </g>
              </g>
              <g id="Group_881460-2" data-name="Group 881460" transform="translate(85.569 67.421)">
                <g id="Grupo_108456" data-name="Grupo 108456">
                  <path id="Trazado_165451" data-name="Trazado 165451" d="M0,4.151A4.148,4.148,0,1,0,4.147,0,4.148,4.148,0,0,0,0,4.151" fill="#2efec7"/>
                  <g id="Grupo_108455" data-name="Grupo 108455" clip-path="url(#clip-path-9)">
                    <g id="Group_881459-2" data-name="Group 881459" transform="translate(0 0)">
                      <rect id="Rectangle_298912-2" data-name="Rectangle 298912" width="8.297" height="8.297" fill="#2efec7"/>
                    </g>
                  </g>
                </g>
              </g>
              <g id="Group_881462-2" data-name="Group 881462" transform="translate(85.569 35.091)">
                <g id="Grupo_108458" data-name="Grupo 108458">
                  <path id="Trazado_165453" data-name="Trazado 165453" d="M0,4.149A4.148,4.148,0,1,0,4.147,0,4.147,4.147,0,0,0,0,4.149" fill="#2efec7"/>
                  <g id="Grupo_108457" data-name="Grupo 108457" clip-path="url(#clip-path-10)">
                    <g id="Group_881461-2" data-name="Group 881461" transform="translate(0 0)">
                      <rect id="Rectangle_298913-2" data-name="Rectangle 298913" width="8.297" height="8.297" fill="#2efec7"/>
                    </g>
                  </g>
                </g>
              </g>
              <g id="Group_881464-2" data-name="Group 881464" transform="translate(85.57)">
                <g id="Grupo_108460" data-name="Grupo 108460">
                  <path id="Trazado_165455" data-name="Trazado 165455" d="M4.146,0A4.148,4.148,0,1,0,8.3,4.149,4.147,4.147,0,0,0,4.146,0Z" fill="#2efec7"/>
                  <g id="Grupo_108459" data-name="Grupo 108459" clip-path="url(#clip-path-5)">
                    <g id="Group_881463-2" data-name="Group 881463" transform="translate(-0.001 0.001)">
                      <rect id="Rectangle_298914-2" data-name="Rectangle 298914" width="8.297" height="8.295" fill="#2efec7"/>
                    </g>
                  </g>
                </g>
              </g>
              <g id="Group_881456-2" data-name="Group 881456" transform="translate(0 35.091)">
                <g id="Grupo_108440" data-name="Grupo 108440">
                  <path id="Trazado_165435" data-name="Trazado 165435" d="M0,4.149A4.149,4.149,0,1,0,4.149,0h0A4.153,4.153,0,0,0,0,4.149" fill="#2efec7"/>
                  <g id="Grupo_108439" data-name="Grupo 108439" clip-path="url(#clip-path-12)">
                    <g id="Group_881455-2" data-name="Group 881455" transform="translate(0 0)">
                      <rect id="Rectangle_298910-2" data-name="Rectangle 298910" width="8.297" height="8.297" fill="#2efec7"/>
                    </g>
                  </g>
                </g>
              </g>
            </g>
            <rect id="Rect치ngulo_373680" data-name="Rect치ngulo 373680" width="12.987" height="102.47" rx="6.494" transform="translate(76.508 328.829) rotate(45)" fill="#ff6148"/>
          </g>
        </g>
      </g>
      <g id="Grupo_1079605" data-name="Grupo 1079605" transform="translate(573.321 3682.296)">
        <g id="Grupo_163982" data-name="Grupo 163982" transform="translate(580.69 85.988)">
          <g id="Grupo_163962" data-name="Grupo 163962" transform="translate(24.653 127.376)">
            <path id="Trazado_222798" data-name="Trazado 222798" d="M592.041,244.656c-9-5.2-16.3-17.787-16.3-28.117,0-3.833,1.015-6.8,2.74-8.763-4.941.358-8.283,4.495-8.283,11.475,0,10.332,7.3,22.92,16.3,28.117,5.656,3.266,10.623,2.817,13.541-.519A14.153,14.153,0,0,1,592.041,244.656Z" transform="translate(-558.385 -188.091)" fill="#72b5e8"/>
            <path id="Trazado_222799" data-name="Trazado 222799" d="M609.634,243.625a32.33,32.33,0,0,0-.278-3.953l6.589-.833a59.622,59.622,0,0,0-2.986-9.976l-7.508-2.27a52.718,52.718,0,0,0-4.673-8.06l1.8-7.578a60.29,60.29,0,0,0-7.191-7.578l-4.042,5.227a32.782,32.782,0,0,0-3.3-2.227,25.3,25.3,0,0,0-3.3-1.587l-4.042-9.895a20.011,20.011,0,0,0-7.191-.725l1.8,9.654a10.316,10.316,0,0,0-4.673,2.665l-7.508-6.4a19.611,19.611,0,0,0-2.986,6.527l6.589,8.443a25.046,25.046,0,0,0-.278,3.63,32.311,32.311,0,0,0,.278,3.951l-6.589.833a59.615,59.615,0,0,0,2.986,9.976l7.508,2.27a52.656,52.656,0,0,0,4.673,8.06l-1.8,7.578a60.219,60.219,0,0,0,7.191,7.579l4.042-5.229a32.736,32.736,0,0,0,3.3,2.228,25.611,25.611,0,0,0,3.3,1.587l4.042,9.895a20.009,20.009,0,0,0,7.191.724l-1.8-9.654a10.315,10.315,0,0,0,4.673-2.664l7.508,6.4a19.612,19.612,0,0,0,2.986-6.527l-6.589-8.442A25.072,25.072,0,0,0,609.634,243.625Zm-21.386,6.121c-9-5.2-16.3-17.786-16.3-28.117s7.3-14.492,16.3-9.294,16.3,17.787,16.3,28.117S597.25,254.944,588.248,249.746Z" transform="translate(-560.135 -190.47)" fill="#a8cff0"/>
            <path id="Trazado_222800" data-name="Trazado 222800" d="M588.005,201.583l-4.041-9.895-6.315,3.627,4.041,9.895Z" transform="translate(-557.089 -190.889)" fill="#72b5e8"/>
            <path id="Trazado_222801" data-name="Trazado 222801" d="M581.092,203.744a25.3,25.3,0,0,1,3.3,1.587,32.782,32.782,0,0,1,3.3,2.227l4.042-5.227h0s-.682-.428-1.028-.628a25.455,25.455,0,0,0-3.3-1.587Z" transform="translate(-556.49 -189.423)" fill="#d1ebff"/>
            <path id="Trazado_222802" data-name="Trazado 222802" d="M585.03,191.806a20.041,20.041,0,0,0-7.191-.725l-6.316,3.627a20.011,20.011,0,0,1,7.191.725Z" transform="translate(-558.155 -191.007)" fill="#d1ebff"/>
            <path id="Trazado_222803" data-name="Trazado 222803" d="M603.669,206.492a60.229,60.229,0,0,0-7.191-7.579l-6.314,3.627a60.29,60.29,0,0,1,7.191,7.578Z" transform="translate(-554.913 -189.632)" fill="#d1ebff"/>
            <path id="Trazado_222804" data-name="Trazado 222804" d="M596.555,209l-1.8,7.577,6.315-3.627,1.8-7.577Z" transform="translate(-554.114 -188.51)" fill="#72b5e8"/>
            <path id="Trazado_222805" data-name="Trazado 222805" d="M594.756,215.45a52.717,52.717,0,0,1,4.673,8.06l6.314-3.626a52.785,52.785,0,0,0-4.673-8.061Z" transform="translate(-554.114 -187.387)" fill="#72b5e8"/>
            <path id="Trazado_222806" data-name="Trazado 222806" d="M598.737,222.317l7.508,2.27,6.315-3.627-7.508-2.27Z" transform="translate(-553.422 -186.193)" fill="#d1ebff"/>
            <path id="Trazado_222807" data-name="Trazado 222807" d="M605.133,224.25a59.622,59.622,0,0,1,2.986,9.976l6.314-3.627a59.588,59.588,0,0,0-2.986-9.975Z" transform="translate(-552.31 -185.857)" fill="#72b5e8"/>
            <path id="Trazado_222808" data-name="Trazado 222808" d="M574.861,203.475l-.524-2.808-5.342-4.554-6.316,3.627,7.508,6.4A10.316,10.316,0,0,1,574.861,203.475Z" transform="translate(-559.693 -190.119)" fill="#72b5e8"/>
            <path id="Trazado_222809" data-name="Trazado 222809" d="M608.119,247.108a19.612,19.612,0,0,1-2.986,6.527l6.314-3.626a19.632,19.632,0,0,0,2.986-6.528Z" transform="translate(-552.31 -181.882)" fill="#72b5e8"/>
            <path id="Trazado_222810" data-name="Trazado 222810" d="M608.378,237a24.879,24.879,0,0,0,.278-3.63c0-.38-.025-.768-.045-1.153l-6.548.828a32.342,32.342,0,0,1,.278,3.953,25.08,25.08,0,0,1-.278,3.63Z" transform="translate(-552.843 -183.841)" fill="#72b5e8"/>
            <path id="Trazado_222811" data-name="Trazado 222811" d="M602.064,239.917l6.589,8.442,6.315-3.627-6.589-8.442Z" transform="translate(-552.843 -183.132)" fill="#d1ebff"/>
            <path id="Trazado_222812" data-name="Trazado 222812" d="M599.429,246.681a10.315,10.315,0,0,1-4.673,2.664l1.8,9.654,6.314-3.627-1.276-6.846Z" transform="translate(-554.114 -181.325)" fill="#72b5e8"/>
            <path id="Trazado_222813" data-name="Trazado 222813" d="M566.487,215.947l-6.352,3.728,6.589-.833C566.6,217.868,566.528,216.9,566.487,215.947Z" transform="translate(-560.135 -186.67)" fill="#d1ebff"/>
            <path id="Trazado_222814" data-name="Trazado 222814" d="M581.691,244.878l-4.042,5.229,6.361-3.621C583.227,245.984,582.453,245.453,581.691,244.878Z" transform="translate(-557.089 -181.639)" fill="#72b5e8"/>
            <g id="Grupo_163961" data-name="Grupo 163961" transform="translate(0.318 3.598)" style="mix-blend-mode: color-dodge;isolation: isolate">
              <path id="Trazado_222815" data-name="Trazado 222815" d="M572.533,202.77l-.018-.1c-.3.115-.589.252-.875.394C571.934,202.962,572.227,202.851,572.533,202.77Z" transform="translate(-558.452 -192.576)" fill="#fff"/>
              <path id="Trazado_222816" data-name="Trazado 222816" d="M565.876,218.508l-5.47.693c.021.106.05.212.073.318l5.431-.687C565.9,218.724,565.889,218.616,565.876,218.508Z" transform="translate(-560.406 -189.823)" fill="#fff"/>
              <path id="Trazado_222817" data-name="Trazado 222817" d="M596.991,210l-1.8,7.578a52.716,52.716,0,0,1,4.673,8.06l7.508,2.272a59.871,59.871,0,0,1,2.914,9.657l.743-.123a59.621,59.621,0,0,0-2.985-9.976l-7.508-2.27a52.818,52.818,0,0,0-4.673-8.06l1.8-7.578a60.124,60.124,0,0,0-7.19-7.578l-.248.832A60.654,60.654,0,0,1,596.991,210Z" transform="translate(-555.221 -192.697)" fill="#fff"/>
              <path id="Trazado_222818" data-name="Trazado 222818" d="M586.637,247.01c-9-5.2-16.3-17.786-16.3-28.117,0-4.563,1.432-7.907,3.8-9.782-2.736,1.762-4.42,5.277-4.42,10.225,0,10.33,7.3,22.919,16.3,28.117,4.545,2.624,8.652,2.856,11.609,1.12-.218.067-.448.11-.675.16C594.141,249.753,590.553,249.271,586.637,247.01Z" transform="translate(-558.787 -191.457)" fill="#fff"/>
              <path id="Trazado_222819" data-name="Trazado 222819" d="M595.789,248.953a10.242,10.242,0,0,0,2.97-1.663l-.277-.237A10.314,10.314,0,0,1,595.789,248.953Z" transform="translate(-554.253 -184.859)" fill="#fff"/>
              <path id="Trazado_222820" data-name="Trazado 222820" d="M569.938,205.777c-.275.012,0-.214.277-.437l-7.23-6.162c-.205.283-.39.593-.049.63Z" transform="translate(-559.999 -193.184)" fill="#fff"/>
              <path id="Trazado_222821" data-name="Trazado 222821" d="M594.613,249.375l1.722,9.24c-.2-.011.194-.015.573-.051l-1.781-9.557C594.768,249.147,594.4,249.276,594.613,249.375Z" transform="translate(-554.468 -184.519)" fill="#fff" style="mix-blend-mode: color-dodge;isolation: isolate"/>
              <path id="Trazado_222822" data-name="Trazado 222822" d="M602.706,236.8a31.172,31.172,0,0,0-.247-3.629l-.655.049a32.285,32.285,0,0,1,.278,3.953,25.034,25.034,0,0,1-.278,3.629l6.589,8.443a20.142,20.142,0,0,1-2.406,5.631l.043.522a19.613,19.613,0,0,0,2.985-6.527l-6.589-8.443A24.858,24.858,0,0,0,602.706,236.8Z" transform="translate(-553.207 -187.273)" fill="#fff"/>
              <path id="Trazado_222823" data-name="Trazado 222823" d="M578.392,195.164l4.041,9.895a25.379,25.379,0,0,1,3.3,1.586,32.57,32.57,0,0,1,3.3,2.228l.127-.628a30.757,30.757,0,0,0-2.836-1.891,25.449,25.449,0,0,0-3.3-1.587l-4.042-9.895a20.013,20.013,0,0,0-7.191-.725l.077.416A23.535,23.535,0,0,1,578.392,195.164Z" transform="translate(-558.426 -194.072)" fill="#fff"/>
              <path id="Trazado_222824" data-name="Trazado 222824" d="M580.939,245.25l-3.38,4.372c.142.128.281.264.424.39l3.422-4.427C581.25,245.471,581.092,245.366,580.939,245.25Z" transform="translate(-557.423 -185.172)" fill="#fff"/>
            </g>
          </g>
          <g id="Grupo_163964" data-name="Grupo 163964" transform="translate(5.341 21.327)">
            <path id="Trazado_222825" data-name="Trazado 222825" d="M591.678,181.367c-13.543-7.818-24.522-26.754-24.522-42.295,0-5.765,1.527-10.225,4.122-13.181-7.432.538-12.46,6.759-12.46,17.261,0,15.54,10.978,34.475,24.522,42.295,8.508,4.912,15.979,4.237,20.37-.782C600.156,184.925,596.058,183.9,591.678,181.367Z" transform="translate(-541.052 -96.282)" fill="#72b5e8"/>
            <path id="Trazado_222826" data-name="Trazado 222826" d="M618.142,179.818a48.169,48.169,0,0,0-.42-5.945l9.912-1.254a89.639,89.639,0,0,0-4.493-15.006L611.848,154.2a79.393,79.393,0,0,0-7.029-12.125l2.706-11.4a90.5,90.5,0,0,0-10.816-11.4l-6.08,7.864a49.284,49.284,0,0,0-4.969-3.35,38.2,38.2,0,0,0-4.969-2.387l-6.08-14.885a30.134,30.134,0,0,0-10.818-1.091L566.5,119.95a15.514,15.514,0,0,0-7.029,4.009l-11.294-9.626a29.5,29.5,0,0,0-4.492,9.817l9.911,12.7a37.531,37.531,0,0,0-.419,5.461,48.36,48.36,0,0,0,.419,5.943l-9.911,1.254a89.633,89.633,0,0,0,4.492,15.006l11.293,3.416a79.475,79.475,0,0,0,7.031,12.124l-2.707,11.4a90.589,90.589,0,0,0,10.818,11.4l6.08-7.864a49.1,49.1,0,0,0,4.969,3.35,38.225,38.225,0,0,0,4.969,2.388l6.08,14.884a30.1,30.1,0,0,0,10.816,1.091l-2.706-14.522a15.512,15.512,0,0,0,7.029-4.008l11.294,9.626a29.514,29.514,0,0,0,4.493-9.819l-9.912-12.7A37.37,37.37,0,0,0,618.142,179.818Zm-32.171,9.208c-13.542-7.819-24.522-26.754-24.522-42.295s10.98-21.8,24.522-13.981,24.521,26.754,24.521,42.3S599.514,196.844,585.972,189.026Z" transform="translate(-543.684 -99.86)" fill="#a8cff0"/>
            <path id="Trazado_222827" data-name="Trazado 222827" d="M585.607,116.577l-6.079-14.884-9.5,5.456,6.079,14.884Z" transform="translate(-539.102 -100.491)" fill="#72b5e8"/>
            <path id="Trazado_222828" data-name="Trazado 222828" d="M575.208,119.827a38.367,38.367,0,0,1,4.969,2.388,49.284,49.284,0,0,1,4.969,3.35l6.078-7.863h0s-1.027-.644-1.546-.945a38.278,38.278,0,0,0-4.969-2.387Z" transform="translate(-538.202 -98.286)" fill="#d1ebff"/>
            <path id="Trazado_222829" data-name="Trazado 222829" d="M581.131,101.871a30.112,30.112,0,0,0-10.818-1.092l-9.5,5.456a30.134,30.134,0,0,1,10.818,1.091Z" transform="translate(-540.705 -100.669)" fill="#d1ebff"/>
            <path id="Trazado_222830" data-name="Trazado 222830" d="M609.169,123.96a90.583,90.583,0,0,0-10.816-11.4l-9.5,5.457a90.409,90.409,0,0,1,10.816,11.4Z" transform="translate(-535.829 -98.601)" fill="#d1ebff"/>
            <path id="Trazado_222831" data-name="Trazado 222831" d="M598.468,127.727l-2.706,11.4,9.5-5.456,2.706-11.4Z" transform="translate(-534.628 -96.912)" fill="#72b5e8"/>
            <path id="Trazado_222832" data-name="Trazado 222832" d="M595.762,137.436a79.4,79.4,0,0,1,7.029,12.125l9.5-5.456a79.378,79.378,0,0,0-7.029-12.125Z" transform="translate(-534.628 -95.223)" fill="#72b5e8"/>
            <path id="Trazado_222833" data-name="Trazado 222833" d="M601.75,147.765l11.294,3.415,9.5-5.456-11.294-3.415Z" transform="translate(-533.586 -93.427)" fill="#d1ebff"/>
            <path id="Trazado_222834" data-name="Trazado 222834" d="M611.371,150.674a89.639,89.639,0,0,1,4.493,15.006l9.5-5.456a89.672,89.672,0,0,0-4.492-15.006Z" transform="translate(-531.913 -92.921)" fill="#72b5e8"/>
            <path id="Trazado_222835" data-name="Trazado 222835" d="M565.835,119.422l-.788-4.224-8.036-6.85-9.5,5.456,11.294,9.626A15.514,15.514,0,0,1,565.835,119.422Z" transform="translate(-543.019 -99.333)" fill="#72b5e8"/>
            <path id="Trazado_222836" data-name="Trazado 222836" d="M615.864,185.058a29.514,29.514,0,0,1-4.493,9.819l9.5-5.456a29.514,29.514,0,0,0,4.492-9.819Z" transform="translate(-531.913 -86.942)" fill="#72b5e8"/>
            <path id="Trazado_222837" data-name="Trazado 222837" d="M616.253,169.85a37.514,37.514,0,0,0,.419-5.46c0-.572-.038-1.154-.068-1.735l-9.849,1.247a48.392,48.392,0,0,1,.419,5.945,37.536,37.536,0,0,1-.419,5.46Z" transform="translate(-532.716 -89.889)" fill="#72b5e8"/>
            <path id="Trazado_222838" data-name="Trazado 222838" d="M606.755,174.24l9.912,12.7,9.5-5.456-9.912-12.7Z" transform="translate(-532.716 -88.823)" fill="#d1ebff"/>
            <path id="Trazado_222839" data-name="Trazado 222839" d="M602.791,184.414a15.513,15.513,0,0,1-7.029,4.008l2.706,14.522,9.5-5.456-1.919-10.3Z" transform="translate(-534.628 -86.105)" fill="#72b5e8"/>
            <path id="Trazado_222840" data-name="Trazado 222840" d="M553.238,138.184l-9.554,5.608,9.911-1.254C553.413,141.072,553.3,139.621,553.238,138.184Z" transform="translate(-543.684 -94.145)" fill="#d1ebff"/>
            <path id="Trazado_222841" data-name="Trazado 222841" d="M576.109,181.7l-6.08,7.864,9.57-5.446C578.42,183.366,577.254,182.567,576.109,181.7Z" transform="translate(-539.103 -86.576)" fill="#72b5e8"/>
            <g id="Grupo_163963" data-name="Grupo 163963" transform="translate(0.478 5.412)" style="mix-blend-mode: color-dodge;isolation: isolate">
              <path id="Trazado_222842" data-name="Trazado 222842" d="M562.334,118.363l-.027-.147c-.452.174-.885.382-1.316.594C561.434,118.65,561.873,118.484,562.334,118.363Z" transform="translate(-541.152 -103.029)" fill="#fff"/>
              <path id="Trazado_222843" data-name="Trazado 222843" d="M552.32,142.036l-8.229,1.041c.032.16.076.32.109.48l8.169-1.034C552.348,142.36,552.339,142.2,552.32,142.036Z" transform="translate(-544.091 -98.886)" fill="#fff"/>
              <path id="Trazado_222844" data-name="Trazado 222844" d="M599.122,129.234l-2.706,11.4a79.388,79.388,0,0,1,7.029,12.125l11.294,3.415a89.935,89.935,0,0,1,4.383,14.526l1.119-.184a89.666,89.666,0,0,0-4.492-15.006l-11.294-3.415a79.378,79.378,0,0,0-7.029-12.125l2.706-11.4a90.5,90.5,0,0,0-10.816-11.4l-.372,1.253A91.078,91.078,0,0,1,599.122,129.234Z" transform="translate(-536.291 -103.211)" fill="#fff"/>
              <path id="Trazado_222845" data-name="Trazado 222845" d="M583.549,184.911c-13.543-7.819-24.522-26.754-24.522-42.295,0-6.865,2.154-11.9,5.717-14.716-4.117,2.651-6.648,7.938-6.648,15.38,0,15.54,10.978,34.476,24.521,42.3,6.838,3.947,13.016,4.3,17.463,1.685-.328.1-.674.166-1.014.241C594.838,189.036,589.439,188.313,583.549,184.911Z" transform="translate(-541.655 -101.345)" fill="#fff"/>
              <path id="Trazado_222846" data-name="Trazado 222846" d="M597.316,187.831a15.4,15.4,0,0,0,4.468-2.5l-.418-.356A15.506,15.506,0,0,1,597.316,187.831Z" transform="translate(-534.835 -91.419)" fill="#fff"/>
              <path id="Trazado_222847" data-name="Trazado 222847" d="M558.431,122.886c-.413.018,0-.322.417-.657l-10.876-9.269c-.309.426-.587.892-.075.949Z" transform="translate(-543.479 -103.943)" fill="#fff"/>
              <path id="Trazado_222848" data-name="Trazado 222848" d="M595.547,188.468l2.59,13.9c-.3-.015.291-.022.863-.076l-2.679-14.376C595.779,188.123,595.231,188.318,595.547,188.468Z" transform="translate(-535.159 -90.908)" fill="#fff" style="mix-blend-mode: color-dodge;isolation: isolate"/>
              <path id="Trazado_222849" data-name="Trazado 222849" d="M607.72,169.551a46.66,46.66,0,0,0-.371-5.457l-.986.075a48.356,48.356,0,0,1,.419,5.943,37.523,37.523,0,0,1-.419,5.46l9.912,12.7a30.323,30.323,0,0,1-3.619,8.47l.063.788a29.513,29.513,0,0,0,4.492-9.819l-9.911-12.7A37.515,37.515,0,0,0,607.72,169.551Z" transform="translate(-533.262 -95.05)" fill="#fff"/>
              <path id="Trazado_222850" data-name="Trazado 222850" d="M571.146,106.92l6.08,14.884a38.064,38.064,0,0,1,4.969,2.388,49.132,49.132,0,0,1,4.969,3.349l.19-.944a46.623,46.623,0,0,0-4.267-2.846,38.21,38.21,0,0,0-4.969-2.387l-6.08-14.885a30.131,30.131,0,0,0-10.816-1.091l.116.625A35.428,35.428,0,0,1,571.146,106.92Z" transform="translate(-541.112 -105.279)" fill="#fff"/>
              <path id="Trazado_222851" data-name="Trazado 222851" d="M574.977,182.262l-5.084,6.575c.215.193.423.4.637.588l5.148-6.658C575.446,182.6,575.208,182.437,574.977,182.262Z" transform="translate(-539.604 -91.891)" fill="#fff"/>
            </g>
          </g>
          <path id="Trazado_222852" data-name="Trazado 222852" d="M589.9,101.031c.075-1.571,1.154-2.256,2.409-1.531a4.927,4.927,0,0,1,2.139,4.156c-.074,1.571-1.153,2.256-2.409,1.531A4.932,4.932,0,0,1,589.9,101.031Z" transform="translate(-530.306 -79.595)" fill="#eb4680"/>
          <path id="Trazado_222853" data-name="Trazado 222853" d="M583.912,260.975c.049-1.045.767-1.5,1.6-1.018a3.28,3.28,0,0,1,1.423,2.765c-.049,1.045-.768,1.5-1.6,1.018A3.28,3.28,0,0,1,583.912,260.975Z" transform="translate(-531.347 -51.674)" fill="#eb4680"/>
          <g id="Grupo_163965" data-name="Grupo 163965" transform="translate(97.89 127.342)">
            <path id="Trazado_222854" data-name="Trazado 222854" d="M623.109,196.978a.587.587,0,0,1-.506-.883l2.814-4.825a.587.587,0,1,1,1.014.59l-2.057,3.526,4.152-1.278a.587.587,0,0,1,.346,1.122l-5.59,1.721A.594.594,0,0,1,623.109,196.978Z" transform="translate(-622.522 -190.978)" fill="#eb4680"/>
          </g>
          <g id="Grupo_163967" data-name="Grupo 163967" transform="translate(41.451 153.763)">
            <path id="Trazado_222855" data-name="Trazado 222855" d="M582.551,214.338a13.462,13.462,0,0,1,5.233,6.319,14.049,14.049,0,0,0,1.735-.588,4.633,4.633,0,0,1,4.029.617,13.684,13.684,0,0,1,6.208,10.708c0,7.19-12.31,9.681-12.31,9.681s-11.706-15.647-11.706-22.837c0-1.963-.832-2.567.286-3.211.1-.055,2.323-1.24,2.426-1.283A4.589,4.589,0,0,1,582.551,214.338Z" transform="translate(-574.27 -213.486)" fill="#d62d69"/>
            <path id="Trazado_222856" data-name="Trazado 222856" d="M580.652,215.291a13.666,13.666,0,0,1,5.5,7c1.038-1.673,3.109-2.029,5.5-.649a13.684,13.684,0,0,1,6.208,10.708c0,7.19-11.706,9.32-11.706,9.32s-11.706-15.647-11.706-22.837C574.444,214.9,577.223,213.312,580.652,215.291Z" transform="translate(-574.444 -213.32)" fill="#eb4680"/>
            <g id="Grupo_163966" data-name="Grupo 163966" transform="translate(2.1 1.035)" style="mix-blend-mode: color-dodge;isolation: isolate">
              <path id="Trazado_222857" data-name="Trazado 222857" d="M580,215.452a14.165,14.165,0,0,1,5.776,7.007c.21-.34-.08-.214.211-.441a13.545,13.545,0,0,0-5.344-6.618c-1.874-1.081-3.3-1.337-4.41-.652A4.821,4.821,0,0,1,580,215.452Z" transform="translate(-576.233 -214.367)" fill="#fff" opacity="0.7"/>
              <path id="Trazado_222858" data-name="Trazado 222858" d="M589.871,220.682c-1.869-1.079-3.328-1.1-4.259-.522a4.805,4.805,0,0,1,3.754.7,13.684,13.684,0,0,1,6.208,10.708c0,3.341-2.527,5.588-5.233,7.038,3.024-1.417,5.739-3.5,5.739-7.214A13.682,13.682,0,0,0,589.871,220.682Z" transform="translate(-574.602 -213.425)" fill="#fff" opacity="0.7"/>
            </g>
          </g>
          <g id="Grupo_163968" data-name="Grupo 163968" transform="translate(62.115 22.524)">
            <path id="Trazado_222859" data-name="Trazado 222859" d="M630.194,211.706l-.789-.869c6.318-5.736,9.658-15.086,9.658-27.041,0-29.747-21.092-66.125-47.016-81.092l.587-1.017c26.247,15.154,47.6,51.989,47.6,82.109C640.237,196.091,636.765,205.743,630.194,211.706Z" transform="translate(-592.047 -101.688)" fill="#eb4680"/>
          </g>
          <g id="Grupo_163972" data-name="Grupo 163972" transform="translate(75.541 110.158)">
            <g id="Grupo_163969" data-name="Grupo 163969" transform="translate(42.76)">
              <path id="Trazado_222860" data-name="Trazado 222860" d="M640.5,178.69h-.009a.587.587,0,0,1-.578-.6q.009-.579.008-1.168a.587.587,0,1,1,1.174,0q0,.6-.008,1.186A.587.587,0,0,1,640.5,178.69Z" transform="translate(-639.91 -176.34)" fill="#a8cff0"/>
            </g>
            <g id="Grupo_163970" data-name="Grupo 163970" transform="translate(4.643 4.671)">
              <path id="Trazado_222861" data-name="Trazado 222861" d="M613.836,218.673a.587.587,0,0,1,0-1.174c.764-.006,1.533-.036,2.289-.094a.587.587,0,1,1,.087,1.172c-.781.059-1.578.09-2.367.1Zm-3.491-.135-.05,0q-1.161-.1-2.349-.265a.587.587,0,0,1-.5-.662.6.6,0,0,1,.663-.5q1.155.164,2.285.258a.587.587,0,0,1-.048,1.172Zm9.281-.4a.587.587,0,0,1-.1-1.164c.752-.137,1.5-.3,2.232-.5a.587.587,0,0,1,.3,1.135c-.757.2-1.537.372-2.318.515A.646.646,0,0,1,619.625,218.136Zm5.595-1.589a.587.587,0,0,1-.217-1.133c.707-.279,1.407-.59,2.084-.923a.586.586,0,1,1,.518,1.052c-.7.347-1.435.671-2.168.963A.583.583,0,0,1,625.22,216.547Zm5.155-2.679a.587.587,0,0,1-.324-1.076c.635-.42,1.258-.87,1.851-1.335a.587.587,0,0,1,.724.924c-.618.485-1.267.952-1.929,1.39A.578.578,0,0,1,630.375,213.868Zm4.5-3.681a.588.588,0,0,1-.414-1c.535-.536,1.055-1.1,1.548-1.676a.587.587,0,0,1,.892.764c-.512.6-1.053,1.184-1.611,1.742A.586.586,0,0,1,634.878,210.187Zm3.7-4.483a.586.586,0,0,1-.485-.918c.43-.627.842-1.277,1.229-1.932a.587.587,0,1,1,1.011.6c-.4.677-.827,1.35-1.27,2A.589.589,0,0,1,638.582,205.7Zm2.881-5.054a.571.571,0,0,1-.25-.056.587.587,0,0,1-.281-.782q.482-1.023.918-2.1a.587.587,0,1,1,1.089.439q-.449,1.111-.946,2.166A.586.586,0,0,1,641.462,200.65Zm2.109-5.423a.618.618,0,0,1-.177-.027.588.588,0,0,1-.383-.737q.34-1.083.639-2.212a.587.587,0,0,1,1.135.3q-.3,1.157-.655,2.266A.586.586,0,0,1,643.572,195.226ZM645,189.58a.527.527,0,0,1-.114-.012.587.587,0,0,1-.465-.688c.146-.745.278-1.5.4-2.273a.587.587,0,0,1,1.161.178q-.181,1.18-.4,2.318A.588.588,0,0,1,645,189.58Zm.83-5.764a.462.462,0,0,1-.058,0,.585.585,0,0,1-.528-.64q.109-1.136.183-2.3a.569.569,0,0,1,.622-.549.588.588,0,0,1,.549.622c-.049.792-.113,1.573-.185,2.343A.588.588,0,0,1,645.827,183.816Z" transform="translate(-607.439 -180.319)" fill="#a8cff0"/>
            </g>
            <g id="Grupo_163971" data-name="Grupo 163971" transform="translate(0 40.55)">
              <path id="Trazado_222862" data-name="Trazado 222862" d="M605.214,212.325a.661.661,0,0,1-.126-.013c-.386-.086-.771-.176-1.159-.272a.587.587,0,0,1,.282-1.14q.569.143,1.128.265a.587.587,0,0,1-.126,1.16Z" transform="translate(-603.484 -210.883)" fill="#a8cff0"/>
            </g>
          </g>
          <g id="Grupo_163976" data-name="Grupo 163976">
            <g id="Grupo_163973" data-name="Grupo 163973" transform="translate(1.314 56.905)">
              <path id="Trazado_222863" data-name="Trazado 222863" d="M541.041,133.309a.588.588,0,0,1-.576-.482c-.07-.389-.14-.777-.2-1.165a.587.587,0,1,1,1.157-.194c.065.383.13.765.2,1.149a.588.588,0,0,1-.473.682A.653.653,0,0,1,541.041,133.309Z" transform="translate(-540.253 -130.976)" fill="#a8cff0"/>
            </g>
            <g id="Grupo_163974" data-name="Grupo 163974">
              <path id="Trazado_222864" data-name="Trazado 222864" d="M649.455,153.664a.59.59,0,0,1-.545-.367q-.442-1.1-.909-2.188a.587.587,0,1,1,1.08-.46q.468,1.1.918,2.208a.588.588,0,0,1-.545.808ZM647.1,148.2a.588.588,0,0,1-.534-.344q-.491-1.076-1-2.147a.587.587,0,1,1,1.059-.507q.516,1.081,1.012,2.167a.588.588,0,0,1-.29.778A.6.6,0,0,1,647.1,148.2Zm-2.586-5.358a.589.589,0,0,1-.524-.322q-.535-1.055-1.091-2.1a.587.587,0,1,1,1.037-.549q.56,1.056,1.1,2.121a.588.588,0,0,1-.258.79A.6.6,0,0,1,644.514,142.842Zm-2.8-5.245a.587.587,0,0,1-.512-.3q-.581-1.034-1.176-2.058a.586.586,0,1,1,1.013-.59q.6,1.032,1.186,2.073a.586.586,0,0,1-.511.875ZM540.5,137.056a.587.587,0,0,1-.581-.511q-.157-1.19-.285-2.374a.587.587,0,0,1,1.168-.127q.127,1.171.282,2.347a.587.587,0,0,1-.506.659A.575.575,0,0,1,540.5,137.056Zm98.195-4.583a.588.588,0,0,1-.5-.278q-.62-1.009-1.257-2.006a.587.587,0,1,1,.988-.632q.643,1,1.269,2.021a.586.586,0,0,1-.5.895Zm-98.788-1.331a.586.586,0,0,1-.585-.547q-.081-1.2-.129-2.39a.588.588,0,0,1,.565-.609h.022a.586.586,0,0,1,.587.563q.046,1.173.127,2.357a.587.587,0,0,1-.546.625Zm95.566-3.661a.586.586,0,0,1-.486-.258q-.664-.981-1.341-1.951a.587.587,0,0,1,.964-.671q.68.976,1.349,1.965a.587.587,0,0,1-.486.916ZM539.721,125.2h0a.586.586,0,0,1-.585-.589c0-.81.018-1.608.047-2.4a.587.587,0,0,1,.587-.565h.021a.588.588,0,0,1,.566.608c-.029.776-.043,1.561-.047,2.357A.587.587,0,0,1,539.721,125.2Zm92.333-2.577a.584.584,0,0,1-.472-.238q-.7-.953-1.42-1.891a.587.587,0,1,1,.933-.713q.722.946,1.431,1.906a.587.587,0,0,1-.472.936ZM539.98,119.27l-.052,0a.588.588,0,0,1-.534-.635q.1-1.211.248-2.385a.593.593,0,0,1,.654-.509.586.586,0,0,1,.512.654c-.1.768-.175,1.548-.244,2.342A.587.587,0,0,1,539.98,119.27Zm88.447-1.343a.587.587,0,0,1-.457-.218q-.741-.921-1.5-1.825a.588.588,0,0,1,.9-.754q.762.914,1.512,1.843a.586.586,0,0,1-.458.954Zm-3.826-4.536a.586.586,0,0,1-.44-.2q-.782-.887-1.577-1.755a.586.586,0,1,1,.864-.792q.8.875,1.593,1.771a.586.586,0,0,1-.44.974Zm-83.84-.008a.539.539,0,0,1-.106-.011.587.587,0,0,1-.473-.682q.22-1.2.484-2.354a.587.587,0,1,1,1.145.262q-.257,1.13-.472,2.3A.588.588,0,0,1,540.761,113.383Zm79.809-4.348a.59.59,0,0,1-.421-.177q-.828-.852-1.666-1.682a.587.587,0,0,1,.826-.835q.845.838,1.681,1.7a.585.585,0,0,1-.012.83A.578.578,0,0,1,620.57,109.035Zm-78.42-1.425a.61.61,0,0,1-.17-.025.586.586,0,0,1-.391-.733q.356-1.167.758-2.284a.586.586,0,1,1,1.1.4q-.393,1.088-.737,2.227A.587.587,0,0,1,542.15,107.61Zm74.176-2.735a.584.584,0,0,1-.4-.157q-.866-.808-1.748-1.593a.587.587,0,1,1,.783-.876q.888.792,1.764,1.611a.586.586,0,0,1-.4,1.015Zm-72.081-2.819a.586.586,0,0,1-.533-.831q.509-1.113,1.073-2.161a.587.587,0,1,1,1.034.555q-.546,1.018-1.041,2.1A.585.585,0,0,1,544.244,102.056Zm67.624-1.113a.586.586,0,0,1-.377-.136q-.909-.759-1.831-1.493a.587.587,0,1,1,.731-.918q.931.741,1.852,1.511a.586.586,0,0,1-.376,1.037ZM607.2,97.269a.585.585,0,0,1-.349-.115q-.954-.7-1.917-1.379a.587.587,0,1,1,.674-.961q.974.683,1.94,1.4a.586.586,0,0,1-.349,1.059Zm-60.06-.393a.58.58,0,0,1-.328-.1.587.587,0,0,1-.16-.815c.454-.674.932-1.332,1.422-1.957a.587.587,0,0,1,.924.724c-.472.6-.933,1.237-1.371,1.888A.585.585,0,0,1,547.135,96.875Zm55.172-2.983a.581.581,0,0,1-.317-.093q-1-.641-2-1.25a.586.586,0,1,1,.607-1q1.02.616,2.032,1.265a.587.587,0,0,1-.318,1.081ZM550.881,92.28a.588.588,0,0,1-.418-1c.568-.573,1.162-1.129,1.769-1.653a.587.587,0,1,1,.765.89c-.582.5-1.154,1.037-1.7,1.588A.586.586,0,0,1,550.881,92.28ZM597.2,90.858a.584.584,0,0,1-.282-.072q-1.048-.572-2.088-1.1a.587.587,0,0,1,.529-1.048q1.055.534,2.121,1.114a.587.587,0,0,1-.281,1.1Zm-41.743-2.349a.587.587,0,0,1-.324-1.076c.673-.446,1.371-.866,2.076-1.251a.587.587,0,0,1,.562,1.031c-.675.369-1.345.771-1.99,1.2A.585.585,0,0,1,555.456,88.509Zm36.417-.282a.592.592,0,0,1-.238-.05q-1.092-.482-2.171-.912a.587.587,0,1,1,.436-1.091q1.1.437,2.21.929a.587.587,0,0,1-.237,1.125Zm-5.542-2.141a.58.58,0,0,1-.183-.029q-1.134-.373-2.249-.687a.587.587,0,1,1,.318-1.13q1.139.32,2.3.7a.587.587,0,0,1-.183,1.145Zm-25.615-.309a.587.587,0,0,1-.215-1.134c.742-.291,1.511-.558,2.289-.791a.587.587,0,0,1,.337,1.125c-.747.224-1.485.48-2.2.76A.6.6,0,0,1,560.716,85.777ZM580.6,84.548a.612.612,0,0,1-.12-.013q-1.166-.238-2.309-.41a.588.588,0,0,1,.174-1.162q1.175.178,2.372.423a.587.587,0,0,1-.117,1.162Zm-14.174-.369a.587.587,0,0,1-.1-1.165c.784-.139,1.589-.25,2.395-.332a.587.587,0,1,1,.119,1.168c-.776.079-1.553.187-2.309.319A.52.52,0,0,1,566.424,84.18Zm8.287-.43h-.036q-1.183-.076-2.338-.075a.587.587,0,1,1,0-1.174q1.192,0,2.412.076a.587.587,0,0,1-.038,1.173Z" transform="translate(-539.134 -82.501)" fill="#a8cff0"/>
            </g>
            <g id="Grupo_163975" data-name="Grupo 163975" transform="translate(111.06 73.382)">
              <path id="Trazado_222865" data-name="Trazado 222865" d="M634.735,147.288a.587.587,0,0,1-.552-.385l-.406-1.1a.587.587,0,1,1,1.1-.41l.408,1.1a.588.588,0,0,1-.35.752A.616.616,0,0,1,634.735,147.288Z" transform="translate(-633.741 -145.012)" fill="#a8cff0"/>
            </g>
          </g>
          <g id="Grupo_163980" data-name="Grupo 163980" transform="translate(56.341 160.97)">
            <g id="Grupo_163977" data-name="Grupo 163977" transform="translate(33.387)">
              <path id="Trazado_222866" data-name="Trazado 222866" d="M616.6,221.884a.588.588,0,0,1-.545-.367q-.218-.539-.444-1.079a.587.587,0,1,1,1.082-.453c.153.363.3.728.451,1.092a.589.589,0,0,1-.324.765A.608.608,0,0,1,616.6,221.884Z" transform="translate(-615.57 -219.625)" fill="#eb4680"/>
            </g>
            <g id="Grupo_163978" data-name="Grupo 163978" transform="translate(4.177 4.346)">
              <path id="Trazado_222867" data-name="Trazado 222867" d="M604.733,275.887h0c-.783,0-1.581-.043-2.374-.119a.587.587,0,0,1-.529-.64.61.61,0,0,1,.64-.529c.757.072,1.521.11,2.268.114a.587.587,0,0,1,0,1.174Zm3.474-.245a.587.587,0,0,1-.086-1.168,20.042,20.042,0,0,0,2.21-.457.587.587,0,0,1,.3,1.135,21.615,21.615,0,0,1-2.34.482A.553.553,0,0,1,608.206,275.642Zm-9.239-.41a.559.559,0,0,1-.123-.014c-.75-.161-1.521-.357-2.293-.58a.587.587,0,1,1,.325-1.128c.747.216,1.491.4,2.215.562a.587.587,0,0,1-.124,1.16Zm14.785-1.255a.587.587,0,0,1-.25-1.118,18.289,18.289,0,0,0,1.971-1.084.586.586,0,1,1,.628.99,18.627,18.627,0,0,1-2.1,1.155A.6.6,0,0,1,613.753,273.977Zm-20.338-.445a.576.576,0,0,1-.215-.041c-.716-.282-1.439-.587-2.171-.922a.587.587,0,1,1,.488-1.068q1.065.488,2.111.9a.587.587,0,0,1-.214,1.134Zm25.126-2.8a.587.587,0,0,1-.4-1.017,19.7,19.7,0,0,0,1.56-1.628.586.586,0,0,1,.892.761,20.39,20.39,0,0,1-1.654,1.727A.581.581,0,0,1,618.541,270.732Zm3.65-4.5a.578.578,0,0,1-.305-.086.587.587,0,0,1-.195-.808c.386-.632.753-1.3,1.088-1.989a.587.587,0,0,1,1.055.515c-.353.721-.737,1.422-1.142,2.086A.588.588,0,0,1,622.191,266.232Zm2.444-5.258a.574.574,0,0,1-.19-.033.586.586,0,0,1-.364-.745c.242-.7.464-1.438.66-2.183a.587.587,0,0,1,1.135.3c-.2.771-.434,1.532-.686,2.264A.586.586,0,0,1,624.635,260.974Zm1.4-5.634a.547.547,0,0,1-.1-.008.585.585,0,0,1-.482-.675q.183-1.108.306-2.27a.587.587,0,0,1,1.168.124q-.129,1.2-.317,2.338A.587.587,0,0,1,626.032,255.341Zm.548-5.783h-.02a.588.588,0,0,1-.567-.607c.016-.526.025-1.061.025-1.6l0-.7a.588.588,0,0,1,.579-.6.619.619,0,0,1,.6.58l0,.711c0,.555-.008,1.1-.025,1.642A.589.589,0,0,1,626.58,249.558Zm-.136-5.811a.589.589,0,0,1-.585-.542q-.085-1.143-.215-2.295a.587.587,0,1,1,1.167-.131q.13,1.173.219,2.337a.588.588,0,0,1-.541.63Zm-.7-5.772a.587.587,0,0,1-.578-.49q-.19-1.132-.419-2.269a.587.587,0,1,1,1.152-.231c.154.771.3,1.539.425,2.306a.588.588,0,0,1-.481.676A.578.578,0,0,1,625.742,237.975Zm-1.192-5.69a.587.587,0,0,1-.569-.444q-.278-1.118-.6-2.233a.587.587,0,1,1,1.13-.319q.319,1.134.6,2.266a.587.587,0,0,1-.426.713A.605.605,0,0,1,624.551,232.285Zm-1.62-5.585a.585.585,0,0,1-.556-.4q-.361-1.094-.753-2.185a.587.587,0,1,1,1.1-.4q.4,1.106.762,2.215a.587.587,0,0,1-.558.77Z" transform="translate(-590.687 -223.327)" fill="#eb4680"/>
            </g>
            <g id="Grupo_163979" data-name="Grupo 163979" transform="translate(0 50.305)">
              <path id="Trazado_222868" data-name="Trazado 222868" d="M588.741,264.229a.579.579,0,0,1-.282-.073q-.516-.283-1.035-.582a.587.587,0,1,1,.585-1.018c.339.195.677.386,1.014.57a.587.587,0,0,1-.282,1.1Z" transform="translate(-587.129 -262.478)" fill="#eb4680"/>
            </g>
          </g>
          <g id="Grupo_163981" data-name="Grupo 163981" transform="translate(88.787 159.502)">
            <path id="Trazado_222869" data-name="Trazado 222869" d="M615.355,222.678h-.038a.586.586,0,0,1-.548-.622l.195-3.131a.586.586,0,0,1,.934-.434l2.641,1.957a.586.586,0,1,1-.7.941l-1.774-1.314-.127,2.053A.588.588,0,0,1,615.355,222.678Z" transform="translate(-614.768 -218.374)" fill="#eb4680"/>
          </g>
        </g>
        <path id="Trazado_222870" data-name="Trazado 222870" d="M437.377,134.462c-.021-3.854-5.449-6.988-12.124-7s-12.069,3.1-12.048,6.955c.019,3.528,4.571,6.444,10.458,6.924l.011,1.953c-1.116.17-1.939.751-1.936,1.451l.036,6.668c0,.835,1.18,1.513,2.626,1.517l1.98,0c1.446,0,2.615-.673,2.611-1.507l-.036-6.668c0-.7-.833-1.284-1.952-1.458l-.011-1.953C432.876,140.888,437.4,137.988,437.377,134.462Z" transform="translate(19.657 11.305)" fill="#fff"/>
        <g id="Grupo_163984" data-name="Grupo 163984" transform="translate(378.775 62.453)">
          <path id="Trazado_222871" data-name="Trazado 222871" d="M591.7,418.141,381.841,296.911c-8.125-4.691-14.71-17.275-14.71-28.108V77.9c0-10.833,6.586-15.811,14.71-11.12L591.7,188.009c8.125,4.691,14.71,17.275,14.71,28.108v190.9C606.407,417.853,599.821,422.832,591.7,418.141Z" transform="translate(-367.131 -62.007)" fill="#d1ebff"/>
          <path id="Trazado_222872" data-name="Trazado 222872" d="M596.69,185.449,386.834,64.219c-3.214-1.856-6.188-2.2-8.608-1.264-.308.12-6.056,3.089-6.346,3.249l-.013.008c2.506-1.217,5.685-.99,9.151,1.012l209.855,121.23c8.125,4.691,14.71,17.275,14.71,28.108v190.9c0,6.759-2.565,11.239-6.469,12.513a2.442,2.442,0,0,0,1.289-.439c.187-.107,6.285-3.409,6.462-3.533,2.8-1.957,4.535-5.979,4.535-11.547v-190.9C611.4,202.724,604.813,190.14,596.69,185.449Z" transform="translate(-366.307 -62.453)" fill="#3f92d1"/>
          <path id="Trazado_222873" data-name="Trazado 222873" d="M595.041,186.122,385.187,64.892c-3.214-1.856-6.188-2.2-8.608-1.263-.308.119-4.409,2.3-4.7,2.458l-.013.008c2.506-1.217,5.685-.99,9.151,1.012l209.855,121.23Z" transform="translate(-366.307 -62.336)" fill="#4f9fdb"/>
          <path id="Trazado_222874" data-name="Trazado 222874" d="M591.431,187.707,381.577,66.475c-3.332-1.924-6.394-2.2-8.861-1.132a10.856,10.856,0,0,1,7.1,1.661L589.666,188.236c8.123,4.691,14.71,17.274,14.71,28.108v190.9c0,6.391-2.3,10.72-5.851,12.253,4.539-.72,7.615-5.382,7.615-12.783v-190.9C606.141,204.981,599.555,192.4,591.431,187.707Z" transform="translate(-366.16 -62.057)" fill="#fff" style="mix-blend-mode: screen;isolation: isolate"/>
          <path id="Trazado_222875" data-name="Trazado 222875" d="M374.169,90.449V264.378c0,8.5,4.044,16.8,10.583,20.955L592.366,405.256l.345.2a2.815,2.815,0,0,0,4.21-2.443V219.13Z" transform="translate(-365.907 -57.584)" fill="#03336e"/>
          <path id="Trazado_222876" data-name="Trazado 222876" d="M596.624,403.888l-.344-.2L388.664,283.768c-6.539-4.154-10.583-12.457-10.583-20.954V92.709l-3.913-2.26V264.378c0,8.5,4.044,16.8,10.583,20.955L592.366,405.256l.345.2a2.809,2.809,0,0,0,4.037-1.514C596.707,403.918,596.665,403.911,596.624,403.888Z" transform="translate(-365.907 -57.584)" fill="#001a46"/>
          <g id="Grupo_163983" data-name="Grupo 163983" transform="translate(198.443 125.665)">
            <path id="Trazado_222877" data-name="Trazado 222877" d="M553.967,182.7a8.921,8.921,0,0,0,4.049,6.984c2.235,1.291,4.049.257,4.049-2.308a8.924,8.924,0,0,0-4.049-6.984C555.78,179.1,553.967,180.135,553.967,182.7Z" transform="translate(-533.082 -167.704)" fill="#fc0"/>
            <path id="Trazado_222878" data-name="Trazado 222878" d="M545.071,177.533a8.919,8.919,0,0,0,4.049,6.982c2.236,1.291,4.049.258,4.049-2.308a8.919,8.919,0,0,0-4.049-6.982C546.884,173.934,545.071,174.967,545.071,177.533Z" transform="translate(-534.629 -168.603)" fill="#eb4680"/>
            <path id="Trazado_222879" data-name="Trazado 222879" d="M536.176,172.365a8.919,8.919,0,0,0,4.049,6.984c2.235,1.291,4.049.258,4.049-2.308a8.924,8.924,0,0,0-4.049-6.984C537.989,168.767,536.176,169.8,536.176,172.365Z" transform="translate(-536.176 -169.502)" fill="#0fbab8"/>
          </g>
        </g>
        <path id="Trazado_222880" data-name="Trazado 222880" d="M493.481,168.361l-15.227-8.791c-1.539-.887-2.786-.176-2.786,1.588a6.137,6.137,0,0,0,2.786,4.8l15.227,8.791c1.539.889,2.786.177,2.786-1.588A6.139,6.139,0,0,0,493.481,168.361Zm25.07,14.474-15.228-8.791c-1.538-.889-2.786-.177-2.786,1.588a6.136,6.136,0,0,0,2.786,4.8l15.228,8.793c1.538.887,2.786.177,2.786-1.588A6.14,6.14,0,0,0,518.551,182.835Zm25.069,14.474-15.227-8.793c-1.539-.887-2.786-.176-2.786,1.588a6.137,6.137,0,0,0,2.786,4.8L543.62,203.7c1.539.889,2.786.177,2.786-1.588A6.135,6.135,0,0,0,543.62,197.309Zm25.069,14.473-15.227-8.791c-1.539-.889-2.786-.177-2.786,1.588a6.137,6.137,0,0,0,2.786,4.8l15.227,8.791c1.539.887,2.786.177,2.786-1.588A6.137,6.137,0,0,0,568.689,211.783Z" transform="translate(30.485 16.823)" fill="#72b5e8"/>
        <g id="Grupo_163988" data-name="Grupo 163988" transform="translate(309.92 111.255)">
          <g id="Grupo_163985" data-name="Grupo 163985" transform="translate(10.677)">
            <path id="Trazado_222881" data-name="Trazado 222881" d="M439.344,178.356v65.532l7.168-4.2V173.974Z" transform="translate(-296.394 -91.861)" fill="#2672ab"/>
            <path id="Trazado_222882" data-name="Trazado 222882" d="M460.548,189.881v65.532L317.571,173.42V107.7Z" transform="translate(-317.571 -103.386)" fill="#3f92d1"/>
            <path id="Trazado_222883" data-name="Trazado 222883" d="M317.571,108.341,460.548,190.52l7.141-4.382L324.666,104.025Z" transform="translate(-317.571 -104.025)" fill="#72b5e8"/>
            <path id="Trazado_222884" data-name="Trazado 222884" d="M317.571,107.7l142.977,82.179,7.141-4.382-7.161,3.384Z" transform="translate(-317.571 -103.386)" fill="#fff" opacity="0.7"/>
          </g>
          <g id="Grupo_163986" data-name="Grupo 163986" transform="translate(68.048 48.07)">
            <path id="Trazado_222885" data-name="Trazado 222885" d="M428.214,217.5v-2.783L383.09,189.061v2.782Z" transform="translate(-363.548 -137.307)" fill="#fff"/>
            <path id="Trazado_222886" data-name="Trazado 222886" d="M366.443,144.974v2.782l75.85,43.392v-2.783Z" transform="translate(-366.443 -144.974)" fill="#fff"/>
            <path id="Trazado_222887" data-name="Trazado 222887" d="M393.15,180.094l-26.707-15.419v2.783l26.707,15.419Z" transform="translate(-366.443 -141.548)" fill="#fff"/>
            <path id="Trazado_222888" data-name="Trazado 222888" d="M404.59,196.549v2.782l11.032,5.969v-2.783Z" transform="translate(-359.809 -136.005)" fill="#fff"/>
            <path id="Trazado_222889" data-name="Trazado 222889" d="M409.511,179.69l-43.068-24.866v2.782l43.068,24.866Z" transform="translate(-366.443 -143.261)" fill="#fff"/>
            <path id="Trazado_222890" data-name="Trazado 222890" d="M382.218,168.858l-15.775-9.108v2.783l15.775,9.108Z" transform="translate(-366.443 -142.405)" fill="#fff"/>
            <path id="Trazado_222891" data-name="Trazado 222891" d="M376.465,183.094l30.277,17.48v-2.782l-30.277-17.48Z" transform="translate(-364.7 -138.829)" fill="#fff"/>
            <path id="Trazado_222892" data-name="Trazado 222892" d="M382.215,168.855v2.782l42.508,24.141V193Z" transform="translate(-363.7 -140.821)" fill="#fff"/>
            <path id="Trazado_222893" data-name="Trazado 222893" d="M391.527,179.157v2.783l21.252,12.27v-2.782Z" transform="translate(-362.081 -139.03)" fill="#fff"/>
            <path id="Trazado_222894" data-name="Trazado 222894" d="M375.468,179.736l-9.025-5.211v2.782l9.025,5.211Z" transform="translate(-366.443 -139.835)" fill="#fff"/>
            <path id="Trazado_222895" data-name="Trazado 222895" d="M405.465,180.136l30.043,16.944V194.3l-30.043-16.944Z" transform="translate(-359.657 -139.343)" fill="#fff"/>
            <path id="Trazado_222896" data-name="Trazado 222896" d="M420.759,193.55l12.089,6.979v-2.782l-12.089-6.98Z" transform="translate(-356.997 -137.011)" fill="#fff"/>
            <path id="Trazado_222897" data-name="Trazado 222897" d="M366.443,152.682l75.85,43.392v-2.783L366.443,149.9Z" transform="translate(-366.443 -144.118)" fill="#fff"/>
            <path id="Trazado_222898" data-name="Trazado 222898" d="M411.965,193.739l22.412,12.539V203.5l-22.412-12.539Z" transform="translate(-358.527 -136.978)" fill="#fff"/>
            <path id="Trazado_222899" data-name="Trazado 222899" d="M383.245,189.151l-16.8-9.7v2.783l16.8,9.7Z" transform="translate(-366.443 -138.979)" fill="#fff"/>
            <path id="Trazado_222900" data-name="Trazado 222900" d="M423.863,215.043l8.445,4.876v-2.783l-8.445-4.876Z" transform="translate(-356.457 -133.273)" fill="#fff"/>
            <path id="Trazado_222901" data-name="Trazado 222901" d="M416.321,205.764l17.3,9.987v-2.782l-17.3-9.987Z" transform="translate(-357.769 -134.887)" fill="#fff"/>
            <path id="Trazado_222902" data-name="Trazado 222902" d="M366.443,172.382l75.85,43.392v-2.783L366.443,169.6Z" transform="translate(-366.443 -140.692)" fill="#fff"/>
          </g>
          <path id="Trazado_222903" data-name="Trazado 222903" d="M357.807,137.877l-24.937-14.425c-4.359-2.517-7.893.155-7.893,5.968v28.864c0,5.812,3.535,12.565,7.893,15.082l24.937,14.424c4.359,2.518,7.893-.154,7.893-5.967V152.96C365.7,147.146,362.165,140.394,357.807,137.877Z" transform="translate(-305.607 -100.811)" fill="#2672ab"/>
          <path id="Trazado_222904" data-name="Trazado 222904" d="M360.888,185.434,335.951,171.01c-4.359-2.517-7.893-9.27-7.893-15.083V127.063a9.456,9.456,0,0,1,.977-4.505c-2.419.4-4.058,2.9-4.058,6.853v28.863c0,5.813,3.535,12.567,7.893,15.083l24.937,14.424c2.981,1.721,5.574,1.014,6.917-1.463A5.8,5.8,0,0,1,360.888,185.434Z" transform="translate(-305.607 -100.802)" fill="#084c94"/>
          <g id="Grupo_163987" data-name="Grupo 163987" transform="translate(0 27.383)">
            <path id="Trazado_222905" data-name="Trazado 222905" d="M341.307,144.752l-24.937-14.425c-4.359-2.517-7.893.155-7.893,5.968v28.864c0,5.812,3.535,12.565,7.893,15.082l24.937,14.424c4.359,2.518,7.893-.154,7.893-5.967V159.835C349.2,154.021,345.665,147.269,341.307,144.752Z" transform="translate(-308.476 -126.999)" fill="#0fbab8"/>
            <path id="Trazado_222906" data-name="Trazado 222906" d="M344.978,142.72l-24.936-14.425a5.158,5.158,0,0,0-4.932-.533l-.043-.047-4.314,2.533.016.053c1.39-.828,3.208-.774,5.205.379L340.911,145.1c4.359,2.517,7.893,9.269,7.893,15.082v28.864c0,2.826-.839,4.9-2.2,6.006l2.406-1.585a7.1,7.1,0,0,0,3.86-6.806V157.8C352.872,151.99,349.338,145.236,344.978,142.72Z" transform="translate(-308.08 -127.352)" fill="#0ba19f"/>
            <path id="Trazado_222907" data-name="Trazado 222907" d="M341.337,144.437,316.4,130.013c-2.166-1.251-4.126-1.219-5.553-.16a5.333,5.333,0,0,1,4.592.676l24.936,14.425c4.36,2.517,7.894,9.269,7.894,15.082V188.9c0,2.925-.9,5.052-2.342,6.125,2-.757,3.3-3.117,3.3-6.643V159.521C349.23,153.707,345.7,146.955,341.337,144.437Z" transform="translate(-308.064 -127.054)" fill="#fff" opacity="0.7"/>
            <path id="Trazado_222908" data-name="Trazado 222908" d="M314.111,136.972v33.042l27.042,15.619V152.592Zm25.309,45.659-23.576-13.618V139.975l23.576,13.617Z" transform="translate(-307.496 -125.679)" fill="#fff"/>
            <path id="Trazado_222909" data-name="Trazado 222909" d="M333.1,156.224c0,2.165-1.53,3.036-3.416,1.947a7.528,7.528,0,0,1-3.416-5.892c0-2.165,1.53-3.037,3.416-1.948A7.526,7.526,0,0,1,333.1,156.224Z" transform="translate(-305.382 -123.437)" fill="#fff"/>
            <path id="Trazado_222910" data-name="Trazado 222910" d="M314.883,158.988l7.041-9.1,7.149,18.09,5.2-4.225,5.741,15.6-.108,1.579-24.914-13.324Z" transform="translate(-307.362 -123.432)" fill="#fff"/>
          </g>
        </g>
        <g id="Grupo_163991" data-name="Grupo 163991" transform="translate(607.608 146.281)">
          <g id="Grupo_163989" data-name="Grupo 163989">
            <path id="Trazado_222911" data-name="Trazado 222911" d="M600.429,162.7c0,4.49-1.55,7.67-4.069,9.209-.075.047-4.3,2.669-4.38,2.712-2.621,1.466-.945-1.859-4.925-4.157-8.011-4.625-14.5-15.825-14.5-25.017,0-4.545-4.2-4.582-1.628-6.1.072-.042,4.8-2.743,4.876-2.783,2.614-1.416,6.186-1.155,10.125,1.12C593.935,142.308,600.429,153.508,600.429,162.7Z" transform="translate(-560.669 -133.545)" fill="#fc0"/>
            <path id="Trazado_222912" data-name="Trazado 222912" d="M581.6,139.8c-3.84-2.216-7.328-2.516-9.923-1.219,2.419-.676,5.42-.17,8.67,1.706,8.011,4.625,14.5,15.825,14.5,25.017,0,4.785-1.762,8.079-4.581,9.487,3.54-.991,5.833-4.514,5.833-9.975C596.1,155.621,589.61,144.421,581.6,139.8Z" transform="translate(-560.393 -133.177)" fill="#fff"/>
            <ellipse id="Elipse_11348" data-name="Elipse 11348" cx="11.805" cy="20.447" rx="11.805" ry="20.447" transform="matrix(0.863, -0.505, 0.505, 0.863, 0, 11.916)" fill="#ffd70f"/>
          </g>
          <path id="Trazado_222913" data-name="Trazado 222913" d="M577.931,149.459c0,1.291-.913,1.813-2.039,1.162a4.494,4.494,0,0,1-2.038-3.516c0-1.291.913-1.811,2.038-1.161A4.49,4.49,0,0,1,577.931,149.459Z" transform="translate(-560.014 -131.81)" fill="#d99f00"/>
          <path id="Trazado_222914" data-name="Trazado 222914" d="M584.952,153.513c0,1.291-.912,1.811-2.038,1.162a4.491,4.491,0,0,1-2.038-3.516c0-1.291.912-1.811,2.038-1.161A4.488,4.488,0,0,1,584.952,153.513Z" transform="translate(-558.793 -131.105)" fill="#d99f00"/>
          <path id="Trazado_222915" data-name="Trazado 222915" d="M572.541,153.428l1.9.322a13.853,13.853,0,0,0,5.836,8.093c2.537,1.465,4.858.981,5.776-1.2l1.882,1.924c-1.217,2.895-4.294,3.535-7.657,1.593C576.812,162.157,573.7,157.845,572.541,153.428Z" transform="translate(-560.242 -130.46)" fill="#d99f00"/>
          <path id="Trazado_222916" data-name="Trazado 222916" d="M576.488,150.2a4.49,4.49,0,0,1-2.039-3.515,1.707,1.707,0,0,1,.275-.993c-.525.12-.87.617-.87,1.409a4.494,4.494,0,0,0,2.038,3.516c.759.438,1.413.335,1.764-.169A1.63,1.63,0,0,1,576.488,150.2Z" transform="translate(-560.014 -131.805)" fill="#b08100"/>
          <path id="Trazado_222917" data-name="Trazado 222917" d="M583.509,154.254a4.49,4.49,0,0,1-2.038-3.516,1.7,1.7,0,0,1,.275-.992c-.525.12-.87.617-.87,1.409a4.491,4.491,0,0,0,2.038,3.516c.758.438,1.413.335,1.764-.169A1.631,1.631,0,0,1,583.509,154.254Z" transform="translate(-558.793 -131.1)" fill="#b08100"/>
          <g id="Grupo_163990" data-name="Grupo 163990" transform="translate(12.299 22.969)">
            <path id="Trazado_222918" data-name="Trazado 222918" d="M584.413,159.811l-.234-.239a3.48,3.48,0,0,1-.87,1.247A3.057,3.057,0,0,0,584.413,159.811Z" transform="translate(-570.668 -152.361)" fill="#b08100"/>
            <path id="Trazado_222919" data-name="Trazado 222919" d="M580.872,163.741a18.289,18.289,0,0,1-7.578-10.185l-.754-.127c1.161,4.416,4.271,8.728,7.736,10.728,2.532,1.463,4.9,1.459,6.437.134C585.195,165.174,583.1,165.026,580.872,163.741Z" transform="translate(-572.541 -153.429)" fill="#b08100"/>
          </g>
        </g>
        <g id="Grupo_163999" data-name="Grupo 163999" transform="translate(483.791 225.362)">
          <g id="Grupo_163992" data-name="Grupo 163992">
            <path id="Trazado_222920" data-name="Trazado 222920" d="M589.863,282.151v80.03l7.168-4.2V277.769Z" transform="translate(-433.413 -187.917)" fill="#2672ab"/>
            <path id="Trazado_222921" data-name="Trazado 222921" d="M613.066,294.823v80.03L456.59,285.122V204.905Z" transform="translate(-456.59 -200.589)" fill="#3f92d1"/>
            <path id="Trazado_222922" data-name="Trazado 222922" d="M456.59,205.545l156.477,89.918,7.141-4.382L463.684,201.228Z" transform="translate(-456.59 -201.228)" fill="#72b5e8"/>
            <path id="Trazado_222923" data-name="Trazado 222923" d="M456.59,204.905l156.477,89.918,7.141-4.382-7.161,3.384Z" transform="translate(-456.59 -200.589)" fill="#fff" opacity="0.7"/>
          </g>
          <ellipse id="Elipse_11349" data-name="Elipse 11349" cx="19.986" cy="34.618" rx="19.986" ry="34.618" transform="translate(87.697 95.302) rotate(-30.311)" fill="#2672ab"/>
          <path id="Trazado_222924" data-name="Trazado 222924" d="M566.862,329.772c-13.562-7.829-24.556-26.791-24.556-42.352,0-5.806,1.532-10.316,4.156-13.286-4.036,2.692-6.5,7.972-6.5,15.341,0,15.561,10.994,34.523,24.556,42.352,8.5,4.909,15.992,4.275,20.4-.714C580.426,334.105,574,333.9,566.862,329.772Z" transform="translate(-442.092 -188.55)" fill="#084c94"/>
          <g id="Grupo_163994" data-name="Grupo 163994" transform="translate(9.086 42.233)">
            <path id="Trazado_222925" data-name="Trazado 222925" d="M508.748,243.237l-5.28-3.047v59.5l5.28,3.047Zm7.6-2.983-5.28-3.049v66.806l5.28,3.047Zm7.828,13.44-5.28-3.047v57.837l5.28,3.049Zm-36.365,4.191v32.6l5.279,3.049v-32.6Zm13.107-9.061-5.28-3.047v49.177l5.28,3.049Zm30.936,21.389-5.279-3.049v45.793L531.857,316Zm7.529,18.882-5.279-3.049v31.309l5.279,3.047Zm-54.122-36.859-5.28-3.049V285.76l5.28,3.049Zm-20.934,2.159v22.161l5.279,3.049V257.442Zm13.107-8.692-5.279-3.049v38.374l5.279,3.049Z" transform="translate(-464.33 -237.205)" fill="#2672ab"/>
            <path id="Trazado_222926" data-name="Trazado 222926" d="M508.748,265.124l-5.28-3.047V298.22l5.28,3.047Zm7.6-16.432-5.28-3.049v56.9l5.28,3.047Zm7.828,14.1-5.28-3.049v47.277l5.28,3.049Zm-36.365,1.548v24.677l5.279,3.049V267.385Zm13.107-.967-5.28-3.047v33.164l5.28,3.049Zm-15.656-9.61-5.28-3.049v33.582l5.28,3.049Zm-20.934,14.91v6.418l5.279,3.049v-6.419Zm13.107.013-5.279-3.049v13.926l5.279,3.049Zm54.42,8.585-5.279-3.047v37.269l5.279,3.049Zm7.529,15-5.279-3.047v26.664l5.279,3.047Z" transform="translate(-464.33 -235.738)" fill="#a8cff0"/>
            <g id="Grupo_163993" data-name="Grupo 163993" transform="translate(0 9.906)">
              <path id="Trazado_222927" data-name="Trazado 222927" d="M516.095,261.359l-5.279-3.048v-.66l5.279,3.048Z" transform="translate(-456.246 -243.555)" fill="#fff"/>
              <path id="Trazado_222928" data-name="Trazado 222928" d="M509.427,249.351l-5.28-3.048v-.66l5.28,3.048Z" transform="translate(-457.405 -245.643)" fill="#fff"/>
              <path id="Trazado_222929" data-name="Trazado 222929" d="M529.049,286.475l-5.279-3.048v-.66l5.279,3.048Z" transform="translate(-453.993 -239.188)" fill="#fff"/>
              <path id="Trazado_222930" data-name="Trazado 222930" d="M502.95,263.349l-5.28-3.048v-.66l5.28,3.048Z" transform="translate(-458.532 -243.209)" fill="#fff"/>
              <path id="Trazado_222931" data-name="Trazado 222931" d="M522.636,273.693l-5.279-3.048v-.66l5.279,3.048Z" transform="translate(-455.108 -241.41)" fill="#fff"/>
              <path id="Trazado_222932" data-name="Trazado 222932" d="M476.277,266.38,471,263.332v-.66l5.28,3.048Z" transform="translate(-463.17 -242.682)" fill="#fff"/>
              <path id="Trazado_222933" data-name="Trazado 222933" d="M482.945,253.668l-5.279-3.048v-.66l5.279,3.048Z" transform="translate(-462.011 -244.893)" fill="#fff"/>
              <path id="Trazado_222934" data-name="Trazado 222934" d="M469.609,268.306v.66l-5.28-3.048v-.66Z" transform="translate(-464.33 -242.232)" fill="#fff"/>
              <path id="Trazado_222935" data-name="Trazado 222935" d="M496.282,261.854,491,258.806v-.66l5.28,3.048Z" transform="translate(-459.691 -243.469)" fill="#fff"/>
              <path id="Trazado_222936" data-name="Trazado 222936" d="M489.614,265.275l-5.28-3.048v-.66l5.28,3.048Z" transform="translate(-460.851 -242.874)" fill="#fff"/>
            </g>
          </g>
          <g id="Grupo_163998" data-name="Grupo 163998" transform="translate(91.848 85.586)">
            <g id="Grupo_163995" data-name="Grupo 163995" transform="translate(0.218)">
              <path id="Trazado_222937" data-name="Trazado 222937" d="M541,293.246c.322-11.761,8.871-16.438,19.36-10.382,5.4,3.118,10.286,8.49,13.805,14.622l3.869-.973c-4.408-8-10.7-15.048-17.674-19.076-13.2-7.621-23.952-1.6-24.113,13.414l3.1,2.811Z" transform="translate(-534.803 -274.135)" fill="#fc0"/>
              <path id="Trazado_222938" data-name="Trazado 222938" d="M570.3,326.98a16.667,16.667,0,0,1-9.721-2.584c-9.936-5.736-18.138-19.095-19.252-30.8l-4.734-2.387c.008.086-1.582.407-1.574.493,1.369,14.572,13.191,30.979,25.561,38.121,4.491,2.593,7.532,3.957,11.137,3.573.151-.015,1.469-.391,1.618-.412Z" transform="translate(-535.017 -271.166)" fill="#fc0"/>
              <path id="Trazado_222939" data-name="Trazado 222939" d="M570.64,297.2a37.046,37.046,0,0,1,3.753,15.269c0,7.03-2.864,11.645-7.316,13.156l3,5.935c5.51-1.895,9.047-7.64,9.047-16.361a46.047,46.047,0,0,0-4.638-18.967Z" transform="translate(-529.442 -270.293)" fill="#fc0"/>
            </g>
            <path id="Trazado_222940" data-name="Trazado 222940" d="M564.941,308.613a16.541,16.541,0,0,1-3.4-4.071c-.562-.941-.542-1.963,0-2.281a4.353,4.353,0,0,0,1.736-1.937c.6.165,1.335-.054,1.335-.871a3.233,3.233,0,0,0-.86-2.2c-.146-3.568-1.364-7.234-5.468-9.6a5.1,5.1,0,0,0-3.323-.938c-.188.036-1.815.465-1.973.544-1.113.553-.089,1.748-.171,3.683-.493-.109-.862.373-.862,1.207a3.945,3.945,0,0,0,1.336,2.414,19.406,19.406,0,0,0,1.735,3.941c.547.95.567,1.993,0,2.286a4.483,4.483,0,0,1-3.4.146,2.55,2.55,0,0,0-1.422-.057c-.118.033-1.58.412-1.689.466-.763.38.107.937.107,2.232v3.679a2.482,2.482,0,0,0,1.126,1.94l15.766,10.435c.274.157,1.822-.393,2.017-.466a.739.739,0,0,0,.406-.758v-3.679A8.758,8.758,0,0,0,564.941,308.613Z" transform="translate(-532.505 -271.956)" fill="#fc0"/>
            <g id="Grupo_163996" data-name="Grupo 163996" transform="translate(0.606 0.303)">
              <path id="Trazado_222941" data-name="Trazado 222941" d="M540.1,293.505c.322-11.763,8.871-16.439,19.36-10.383,5.4,3.118,10.286,8.49,13.805,14.622l3.869-.973c-4.408-8-10.7-15.048-17.674-19.076-13.2-7.621-23.952-1.6-24.113,13.414Z" transform="translate(-535.347 -274.393)" fill="#fff"/>
              <path id="Trazado_222942" data-name="Trazado 222942" d="M569.162,327.238a16.667,16.667,0,0,1-9.721-2.584c-9.936-5.736-18.138-19.095-19.252-30.8l-4.734-2.387C536.728,306.1,547,322.9,559.441,330.081c4.68,2.7,9.052,3.683,12.754,3.161Z" transform="translate(-535.328 -271.424)" fill="#fff"/>
              <path id="Trazado_222943" data-name="Trazado 222943" d="M569.737,297.456a37.046,37.046,0,0,1,3.753,15.269c0,7.031-2.864,11.645-7.316,13.156l3,5.935c5.51-1.895,9.047-7.64,9.047-16.361a46.046,46.046,0,0,0-4.638-18.967Z" transform="translate(-529.986 -270.551)" fill="#fff"/>
            </g>
            <path id="Trazado_222944" data-name="Trazado 222944" d="M563.975,308.871a16.524,16.524,0,0,1-3.4-4.072c-.562-.94-.542-1.962,0-2.28a4.353,4.353,0,0,0,1.736-1.937c.6.166,1.335-.054,1.335-.871a3.233,3.233,0,0,0-.86-2.2c-.146-3.567-1.364-7.234-5.468-9.6S552,287.8,551.854,291.2c-.493-.109-.862.373-.862,1.207a3.945,3.945,0,0,0,1.336,2.414,19.4,19.4,0,0,0,1.735,3.941c.547.95.567,1.993,0,2.286a4.483,4.483,0,0,1-3.4.146c-1.723-.521-3,.518-3,2.64v3.679a2.482,2.482,0,0,0,1.126,1.94l17.064,9.851c.621.359,1.125.072,1.125-.641v-3.679A8.758,8.758,0,0,0,563.975,308.871Z" transform="translate(-532.599 -271.911)" fill="#fff"/>
            <g id="Grupo_163997" data-name="Grupo 163997" transform="translate(0 0.454)">
              <path id="Trazado_222945" data-name="Trazado 222945" d="M539.584,293.633c.322-11.761,8.871-16.438,19.36-10.382,5.4,3.118,10.286,8.49,13.805,14.622l3.869-.973c-4.408-8-10.7-15.048-17.674-19.076-13.2-7.621-23.952-1.6-24.113,13.414Z" transform="translate(-534.831 -274.522)" fill="#ffde17"/>
              <path id="Trazado_222946" data-name="Trazado 222946" d="M568.646,327.367a16.667,16.667,0,0,1-9.721-2.584c-9.936-5.736-18.138-19.095-19.252-30.8l-4.734-2.387c1.273,14.632,11.543,31.43,23.986,38.614,4.68,2.7,9.052,3.683,12.754,3.161Z" transform="translate(-534.812 -271.553)" fill="#ffde17"/>
              <path id="Trazado_222947" data-name="Trazado 222947" d="M569.221,297.585a37.045,37.045,0,0,1,3.753,15.269c0,7.031-2.864,11.645-7.316,13.156l3,5.935c5.51-1.895,9.047-7.64,9.047-16.361a46.046,46.046,0,0,0-4.638-18.967Z" transform="translate(-529.47 -270.68)" fill="#ffde17"/>
            </g>
            <path id="Trazado_222948" data-name="Trazado 222948" d="M563.459,309a16.538,16.538,0,0,1-3.4-4.071c-.562-.941-.542-1.963,0-2.281a4.353,4.353,0,0,0,1.736-1.937c.6.166,1.335-.054,1.335-.871a3.232,3.232,0,0,0-.86-2.2c-.146-3.568-1.364-7.234-5.468-9.6s-5.322-.11-5.468,3.288c-.493-.109-.862.373-.862,1.207a3.945,3.945,0,0,0,1.336,2.414,19.4,19.4,0,0,0,1.735,3.941c.547.95.567,1.993,0,2.286a4.478,4.478,0,0,1-3.4.146c-1.723-.521-3,.518-3,2.64v3.679a2.482,2.482,0,0,0,1.126,1.94l17.064,9.851c.621.359,1.125.072,1.125-.642v-3.678A8.758,8.758,0,0,0,563.459,309Z" transform="translate(-532.689 -271.888)" fill="#ffde17"/>
          </g>
        </g>
        <g id="Grupo_164002" data-name="Grupo 164002" transform="translate(360.672 224.495)">
          <g id="Grupo_164000" data-name="Grupo 164000">
            <path id="Trazado_222949" data-name="Trazado 222949" d="M457.329,264.858v33.512l5.621-3.089v-33.7Z" transform="translate(-333.342 -189.865)" fill="#0ba19f"/>
            <path id="Trazado_222950" data-name="Trazado 222950" d="M475.724,275.007V308.52l-124.014-71.6v-33.7Z" transform="translate(-351.709 -200.014)" fill="#0fbab8"/>
            <path id="Trazado_222951" data-name="Trazado 222951" d="M351.709,203.7l124.014,71.784,5.594-3.275L357.257,200.489Z" transform="translate(-351.709 -200.489)" fill="#3ecfcd"/>
            <path id="Trazado_222952" data-name="Trazado 222952" d="M351.709,203.223l124.014,71.784,5.594-3.275-5.478,2.395Z" transform="translate(-351.709 -200.014)" fill="#fff" opacity="0.7"/>
          </g>
          <path id="Trazado_222953" data-name="Trazado 222953" d="M468.512,296.849l-111.59-65.127V211.976L468.512,277.1Z" transform="translate(-350.803 -198.492)" fill="#fff"/>
          <g id="Grupo_164001" data-name="Grupo 164001" transform="translate(10.795 19.065)">
            <path id="Trazado_222954" data-name="Trazado 222954" d="M360.905,216.73l2.257,1.3,1.044,10.779.042.025,1.107-9.538,2.554,1.476,1.107,10.815.043.025,1.042-9.573,2.023,1.167-1.511,13.262-2.917-1.683-1.065-9.179-.042-.025-1.065,7.949-3.109-1.794Z" transform="translate(-360.905 -216.73)" fill="#084c94"/>
            <path id="Trazado_222955" data-name="Trazado 222955" d="M372.285,223.345l2.257,1.3,1.042,10.779.042.025,1.108-9.537,2.554,1.474,1.107,10.816.042.023,1.044-9.573,2.023,1.168-1.511,13.26-2.917-1.683-1.065-9.179-.042-.025-1.065,7.95-3.109-1.795Z" transform="translate(-358.926 -215.58)" fill="#084c94"/>
            <path id="Trazado_222956" data-name="Trazado 222956" d="M383.756,229.869l2.257,1.3,1.042,10.779.043.025,1.107-9.537,2.554,1.474,1.107,10.816.043.025,1.042-9.574,2.023,1.168-1.511,13.26-2.917-1.683-1.065-9.179-.042-.025-1.065,7.95-3.108-1.795Z" transform="translate(-356.931 -214.445)" fill="#084c94"/>
          </g>
        </g>
        <g id="Grupo_164005" data-name="Grupo 164005" transform="translate(396.198 96.132)">
          <g id="Grupo_164003" data-name="Grupo 164003" transform="translate(0 16.626)">
            <path id="Trazado_222957" data-name="Trazado 222957" d="M399.672,117.766v23.37l3.525-1.942V115.644Z" transform="translate(-378.895 -103.507)" fill="#fc0"/>
            <path id="Trazado_222958" data-name="Trazado 222958" d="M402.776,119.259v23.37l-20.8-12.019V107.059Z" transform="translate(-381.973 -105)" fill="#ffd70f"/>
            <path id="Trazado_222959" data-name="Trazado 222959" d="M381.973,107.364l20.8,12.2,3.5-2.123-20.849-12.136Z" transform="translate(-381.973 -105.305)" fill="#ffde17"/>
            <path id="Trazado_222960" data-name="Trazado 222960" d="M381.973,107.059l20.8,12.2,3.5-2.123-3.675,1Z" transform="translate(-381.973 -105)" fill="#fff"/>
          </g>
          <g id="Grupo_164004" data-name="Grupo 164004" transform="translate(5.425)">
            <path id="Trazado_222961" data-name="Trazado 222961" d="M415.255,111.321v37.843l5.708-3.144V107.883Z" transform="translate(-381.61 -88.231)" fill="#d62d69"/>
            <path id="Trazado_222962" data-name="Trazado 222962" d="M386.594,94.476l33.687,19.756,5.666-3.437L392.186,91.143Z" transform="translate(-386.594 -91.143)" fill="#f76195"/>
            <path id="Trazado_222963" data-name="Trazado 222963" d="M386.594,93.982l33.687,19.756,5.666-3.437-5.513,2.625Z" transform="translate(-386.594 -90.649)" fill="#fff" opacity="0.7"/>
          </g>
          <path id="Trazado_222964" data-name="Trazado 222964" d="M386.594,93.982v15.7l17.829,10.456v22.286l15.859,9.162V113.738Z" transform="translate(-381.169 -90.649)" fill="#eb4680"/>
        </g>
        <g id="Grupo_164011" data-name="Grupo 164011" transform="translate(484.045 194.659)">
          <g id="Grupo_164006" data-name="Grupo 164006" transform="translate(0 0)">
            <path id="Trazado_222965" data-name="Trazado 222965" d="M476.594,189.005v26.127l3.941-2.171v-26.33Z" transform="translate(-453.365 -173.064)" fill="#0ba19f"/>
            <path id="Trazado_222966" data-name="Trazado 222966" d="M480.064,190.674V216.8l-23.258-13.437V177.035Z" transform="translate(-456.806 -174.733)" fill="#0fbab8"/>
            <path id="Trazado_222967" data-name="Trazado 222967" d="M456.806,177.376l23.258,13.64,3.912-2.373-23.309-13.568Z" transform="translate(-456.806 -175.074)" fill="#3ecfcd"/>
            <path id="Trazado_222968" data-name="Trazado 222968" d="M456.806,177.035l23.258,13.64,3.912-2.373-4.109,1.115Z" transform="translate(-456.806 -174.733)" fill="#fff" opacity="0.7"/>
          </g>
          <g id="Grupo_164007" data-name="Grupo 164007" transform="translate(30.522 17.609)">
            <path id="Trazado_222969" data-name="Trazado 222969" d="M502.594,204.005v26.127l3.941-2.171v-26.33Z" transform="translate(-479.365 -188.064)" fill="#0ba19f"/>
            <path id="Trazado_222970" data-name="Trazado 222970" d="M506.064,205.674V231.8l-23.258-13.437V192.035Z" transform="translate(-482.806 -189.733)" fill="#0fbab8"/>
            <path id="Trazado_222971" data-name="Trazado 222971" d="M482.806,192.376l23.258,13.64,3.912-2.373-23.309-13.568Z" transform="translate(-482.806 -190.074)" fill="#3ecfcd"/>
            <path id="Trazado_222972" data-name="Trazado 222972" d="M482.806,192.035l23.258,13.64,3.912-2.373-4.109,1.115Z" transform="translate(-482.806 -189.733)" fill="#fff" opacity="0.7"/>
          </g>
          <g id="Grupo_164008" data-name="Grupo 164008" transform="translate(60.847 35.021)">
            <path id="Trazado_222973" data-name="Trazado 222973" d="M528.427,218.839v26.127l3.941-2.171V216.465Z" transform="translate(-505.198 -202.897)" fill="#0ba19f"/>
            <path id="Trazado_222974" data-name="Trazado 222974" d="M531.9,220.508v26.127L508.639,233.2V206.868Z" transform="translate(-508.639 -204.566)" fill="#0fbab8"/>
            <path id="Trazado_222975" data-name="Trazado 222975" d="M508.639,207.209l23.258,13.64,3.912-2.373L512.5,204.907Z" transform="translate(-508.639 -204.907)" fill="#3ecfcd"/>
            <path id="Trazado_222976" data-name="Trazado 222976" d="M508.639,206.868l23.258,13.64,3.912-2.373-4.109,1.115Z" transform="translate(-508.639 -204.566)" fill="#fff" opacity="0.7"/>
          </g>
          <g id="Grupo_164009" data-name="Grupo 164009" transform="translate(90.782 52.043)">
            <path id="Trazado_222977" data-name="Trazado 222977" d="M553.927,233.339v26.127l3.941-2.171V230.965Z" transform="translate(-530.698 -217.397)" fill="#0ba19f"/>
            <path id="Trazado_222978" data-name="Trazado 222978" d="M557.4,235.008v26.127L534.139,247.7V221.368Z" transform="translate(-534.139 -219.066)" fill="#0fbab8"/>
            <path id="Trazado_222979" data-name="Trazado 222979" d="M534.139,221.709l23.258,13.64,3.912-2.373L538,219.407Z" transform="translate(-534.139 -219.407)" fill="#3ecfcd"/>
            <path id="Trazado_222980" data-name="Trazado 222980" d="M534.139,221.368l23.258,13.64,3.912-2.373-4.109,1.115Z" transform="translate(-534.139 -219.066)" fill="#fff" opacity="0.7"/>
          </g>
          <path id="Trazado_222981" data-name="Trazado 222981" d="M524.024,229.97a10.482,10.482,0,0,1-2.152-2.577c-.356-.6-.343-1.242,0-1.443a2.744,2.744,0,0,0,1.1-1.226c.378.1.845-.034.845-.552a2.041,2.041,0,0,0-.545-1.392,6.845,6.845,0,0,0-3.46-6.077c-2.6-1.5-3.368-.069-3.461,2.081-.311-.069-.545.236-.545.764a2.494,2.494,0,0,0,.845,1.527,12.29,12.29,0,0,0,1.1,2.493c.346.6.359,1.262,0,1.446a2.836,2.836,0,0,1-2.152.092c-1.091-.33-1.9.329-1.9,1.67v2.329a1.573,1.573,0,0,0,.711,1.228l10.8,6.233c.393.228.711.046.711-.4v-2.328A5.541,5.541,0,0,0,524.024,229.97Z" transform="translate(-446.911 -167.942)" fill="#fff"/>
          <path id="Trazado_222982" data-name="Trazado 222982" d="M537.719,243.879l3.769,2.176V239.3l-3.769-2.175Zm5.968,3.445,3.769,2.176V237.11l-3.769-2.176Zm5.968-14.576v18.023l3.769,2.175V234.924Z" transform="translate(-442.735 -165.044)" fill="#fff"/>
          <path id="Trazado_222983" data-name="Trazado 222983" d="M499.862,214.2a8.739,8.739,0,0,0-.075-1.067l1.781-.225a16.023,16.023,0,0,0-.808-2.7l-2.029-.614a14.284,14.284,0,0,0-1.263-2.178l.486-2.048a16.3,16.3,0,0,0-1.943-2.047l-1.093,1.412a8.947,8.947,0,0,0-.892-.6,7.074,7.074,0,0,0-.893-.428l-1.092-2.674a5.418,5.418,0,0,0-1.944-.2l.486,2.61a2.788,2.788,0,0,0-1.263.72l-2.029-1.729a5.3,5.3,0,0,0-.808,1.764l1.781,2.281a6.793,6.793,0,0,0-.075.981,8.787,8.787,0,0,0,.075,1.068l-1.781.225a16.145,16.145,0,0,0,.808,2.7l2.029.614a14.33,14.33,0,0,0,1.263,2.179l-.486,2.047a16.309,16.309,0,0,0,1.944,2.048l1.092-1.413a8.755,8.755,0,0,0,.893.6,6.754,6.754,0,0,0,.892.428l1.093,2.674a5.384,5.384,0,0,0,1.943.2l-.486-2.608a2.8,2.8,0,0,0,1.263-.721l2.029,1.729a5.284,5.284,0,0,0,.808-1.763l-1.781-2.282A6.784,6.784,0,0,0,499.862,214.2Zm-5.836-.68a5.162,5.162,0,0,1-2.344-4.043c0-1.485,1.049-2.084,2.344-1.336a5.168,5.168,0,0,1,2.343,4.043C496.369,213.673,495.32,214.272,494.026,213.524Z" transform="translate(-451.645 -170.597)" fill="#fff"/>
          <g id="Grupo_164010" data-name="Grupo 164010" transform="translate(3.726 12.66)">
            <path id="Trazado_222984" data-name="Trazado 222984" d="M460.479,185.891l7.486,11.7,7.486-3.053.007.009a2.866,2.866,0,0,0-.889-.865l-13.208-7.626a1.126,1.126,0,0,0-.889-.16Z" transform="translate(-459.894 -185.859)" fill="#fff"/>
            <path id="Trazado_222985" data-name="Trazado 222985" d="M475.56,194.564l-7.509,4.281-2.126-3.667-5.36,2.187-.023-.035,4.984-2.841-4.983-8.6a.939.939,0,0,0-.562.991v8.946a3.23,3.23,0,0,0,1.467,2.531l13.208,7.626c.81.468,1.467.094,1.467-.837V196.2A3.077,3.077,0,0,0,475.56,194.564Zm-.023,11.446-5.36-8.376.4-.229,4.983,8.6Z" transform="translate(-459.98 -185.853)" fill="#fff"/>
          </g>
        </g>
        <g id="Grupo_164013" data-name="Grupo 164013" transform="translate(300.174 231.729)">
          <g id="Grupo_164012" data-name="Grupo 164012">
            <path id="Trazado_222986" data-name="Trazado 222986" d="M376.818,254.2v33.512l5.291-3.01V251Z" transform="translate(-286.845 -198.939)" fill="#2672ab"/>
            <path id="Trazado_222987" data-name="Trazado 222987" d="M390.173,261.45v33.512l-90-51.945v-33.7Z" transform="translate(-300.174 -206.188)" fill="#3f92d1"/>
            <path id="Trazado_222988" data-name="Trazado 222988" d="M300.174,209.782l90,52.132,5.265-3.2-90.046-52.066Z" transform="translate(-300.174 -206.652)" fill="#72b5e8"/>
            <path id="Trazado_222989" data-name="Trazado 222989" d="M300.174,209.318l90,52.132,5.265-3.2-5.478,2.2Z" transform="translate(-300.174 -206.188)" fill="#fff" opacity="0.7"/>
          </g>
          <path id="Trazado_222990" data-name="Trazado 222990" d="M333.912,232.775l-16.452-9.5c-1.011-.583-1.829-.116-1.829,1.042v11.144a4.025,4.025,0,0,0,1.829,3.153l10.282,5.938,5.142,8.868v-5.9l1.028.594c1.01.583,1.828.116,1.828-1.042V235.928A4.027,4.027,0,0,0,333.912,232.775Zm-11.6,2.086c-.535.305-1.4-.2-1.939-1.12s-.535-1.919,0-2.225,1.4.2,1.939,1.119S322.849,234.556,322.314,234.861Zm4.456,2.572c-.535.305-1.4-.2-1.939-1.119s-.535-1.921,0-2.226,1.4.2,1.939,1.12S327.305,237.128,326.77,237.433Zm4.456,2.573c-.536.305-1.4-.2-1.939-1.12s-.535-1.919,0-2.225,1.4.2,1.939,1.12S331.761,239.7,331.226,240.006Zm-16.966-5.335v-9.047L307.976,222c-1.01-.583-1.828-.116-1.828,1.042v11.144a4.027,4.027,0,0,0,1.828,3.153l1.028.594v5.9l5.142-2.931,10.283,5.936c1.01.583,1.828.116,1.828-1.042v-.525l-8.8-5.078A7.062,7.062,0,0,1,314.26,234.671Z" transform="translate(-299.135 -204.027)" fill="#fff"/>
          <path id="Trazado_222991" data-name="Trazado 222991" d="M334.548,235.916V238.7l43,24.825v-2.783Z" transform="translate(-294.196 -201.563)" fill="#fff"/>
          <path id="Trazado_222992" data-name="Trazado 222992" d="M363.945,262.755l-29.4-16.989v2.782l29.4,16.989Z" transform="translate(-294.196 -199.85)" fill="#fff"/>
          <path id="Trazado_222993" data-name="Trazado 222993" d="M334.548,243.624l43,24.825v-2.783l-43-24.825Z" transform="translate(-294.196 -200.706)" fill="#fff"/>
        </g>
      </g>
    </g>
  </g>
</svg>
