<svg xmlns="http://www.w3.org/2000/svg" width="321.764" height="353.124" viewBox="0 0 321.764 353.124">
  <g id="Grupo_1077923" data-name="Grupo 1077923" transform="translate(-222.768 -31.44)">
    <path id="Trazado_201126" data-name="Trazado 201126" d="M287.778,304.539l-27.835,16.332c-7.057-2.165-16.049-1.5-21.982,1.985-7.219,4.235-7.171,11.021.107,15.155a22.125,22.125,0,0,0,5.476,2.147,29.331,29.331,0,0,0,4.351.751c5.789.563,11.968-.469,16.422-3.082,5.395-3.165,6.728-7.753,4.022-11.6l3.843-2.254-.109-2.439,4.042-.029-.1-2.283,4.042-.029-.1-2.284,4.042-.028-.1-2.284,4.043-.029-.1-2.284,4.316-.03,1.316-.773,1.453-6Zm-39.171,31.249a7.552,7.552,0,0,1-6.834.048c-1.894-1.076-1.907-2.842-.027-3.945a7.55,7.55,0,0,1,6.833-.048C250.475,332.919,250.487,334.686,248.607,335.788Z" transform="translate(0.245 6.832)" fill="#c4d9e8" opacity="0.5"/>
    <g id="Grupo_154870" data-name="Grupo 154870" transform="translate(222.768 31.441)">
      <g id="Grupo_154827" data-name="Grupo 154827" transform="translate(231.352 63.825)">
        <g id="Grupo_154811" data-name="Grupo 154811" transform="translate(0 5.301)">
          <path id="Trazado_201127" data-name="Trazado 201127" d="M475.426,150.3a1.053,1.053,0,0,1-.231-.026,1.025,1.025,0,0,1-.769-1.229l10-43.4a1.025,1.025,0,0,1,2,.46l-10,43.4A1.026,1.026,0,0,1,475.426,150.3Z" transform="translate(-447.825 -98.731)" fill="#5793ce"/>
          <path id="Trazado_201128" data-name="Trazado 201128" d="M462.464,147.317a1.054,1.054,0,0,1-.232-.026,1.025,1.025,0,0,1-.769-1.229l10-43.4a1.025,1.025,0,0,1,2,.46l-10,43.4A1.023,1.023,0,0,1,462.464,147.317Z" transform="translate(-448.149 -98.806)" fill="#5793ce"/>
          <path id="Trazado_201129" data-name="Trazado 201129" d="M449.5,144.331a1.056,1.056,0,0,1-.232-.026,1.025,1.025,0,0,1-.769-1.229l10-43.4a1.025,1.025,0,0,1,2,.46l-10,43.4A1.025,1.025,0,0,1,449.5,144.331Z" transform="translate(-448.473 -98.88)" fill="#5793ce"/>
        </g>
        <g id="Grupo_154816" data-name="Grupo 154816" transform="translate(3.248 0)">
          <g id="Grupo_154815" data-name="Grupo 154815">
            <g id="Grupo_154814" data-name="Grupo 154814">
              <g id="Grupo_154812" data-name="Grupo 154812" transform="translate(0 16.481)">
                <rect id="Rectángulo_45520" data-name="Rectángulo 45520" width="5.496" height="11.859" transform="translate(2.731 0) rotate(13.191)" fill="#5793ce"/>
                <path id="Trazado_201130" data-name="Trazado 201130" d="M455.978,123.24a4.3,4.3,0,0,1-3.784-.888,1.184,1.184,0,0,1,.513-2.184,4.3,4.3,0,0,1,3.783.887A1.185,1.185,0,0,1,455.978,123.24Z" transform="translate(-451.642 -109.531)" fill="#5793ce"/>
              </g>
              <g id="Grupo_154813" data-name="Grupo 154813" transform="translate(0.559)">
                <rect id="Rectángulo_45521" data-name="Rectángulo 45521" width="8.905" height="18.6" transform="translate(4.284 0) rotate(13.192)" fill="#5793ce"/>
                <path id="Trazado_201131" data-name="Trazado 201131" d="M453.894,111.643l-.916,3.907a7.107,7.107,0,0,0,5.351,1.255l.916-3.907A7.112,7.112,0,0,0,453.894,111.643Z" transform="translate(-452.167 -93.262)" fill="#396caa"/>
                <path id="Trazado_201132" data-name="Trazado 201132" d="M459.212,114.922a6.962,6.962,0,0,1-6.131-1.437c-1.465-1.375-1.093-2.959.829-3.54a6.963,6.963,0,0,1,6.131,1.437C461.505,112.756,461.134,114.34,459.212,114.922Z" transform="translate(-452.187 -93.308)" fill="#5793ce"/>
              </g>
            </g>
          </g>
          <path id="Trazado_201133" data-name="Trazado 201133" d="M453.813,120.532a.556.556,0,0,1-1.008.3,2.015,2.015,0,0,1-.527-1.746.556.556,0,0,1,1.008-.3A2.015,2.015,0,0,1,453.813,120.532Z" transform="translate(-451.627 -93.087)" fill="#d4ecff"/>
        </g>
        <g id="Grupo_154821" data-name="Grupo 154821" transform="translate(15.569 7.337)">
          <g id="Grupo_154820" data-name="Grupo 154820" transform="translate(0 0)">
            <g id="Grupo_154819" data-name="Grupo 154819">
              <g id="Grupo_154817" data-name="Grupo 154817" transform="translate(0 16.481)">
                <rect id="Rectángulo_45522" data-name="Rectángulo 45522" width="5.496" height="11.859" transform="translate(2.731 0) rotate(13.191)" fill="#5793ce"/>
                <path id="Trazado_201134" data-name="Trazado 201134" d="M468,130.4a4.293,4.293,0,0,1-3.783-.887,1.184,1.184,0,0,1,.512-2.184,4.291,4.291,0,0,1,3.783.887A1.184,1.184,0,0,1,468,130.4Z" transform="translate(-463.662 -116.688)" fill="#5793ce"/>
              </g>
              <g id="Grupo_154818" data-name="Grupo 154818" transform="translate(0.558)">
                <rect id="Rectángulo_45523" data-name="Rectángulo 45523" width="8.905" height="18.6" transform="matrix(0.974, 0.228, -0.228, 0.974, 4.284, 0)" fill="#5793ce"/>
                <path id="Trazado_201135" data-name="Trazado 201135" d="M465.914,118.8,465,122.708a7.107,7.107,0,0,0,5.351,1.254l.916-3.907A7.112,7.112,0,0,0,465.914,118.8Z" transform="translate(-464.187 -100.42)" fill="#396caa"/>
                <path id="Trazado_201136" data-name="Trazado 201136" d="M471.232,122.079a6.956,6.956,0,0,1-6.131-1.437c-1.465-1.375-1.093-2.959.829-3.539a6.956,6.956,0,0,1,6.131,1.437C473.525,119.914,473.154,121.5,471.232,122.079Z" transform="translate(-464.207 -100.465)" fill="#5793ce"/>
              </g>
            </g>
          </g>
          <path id="Trazado_201137" data-name="Trazado 201137" d="M465.833,127.689a.556.556,0,0,1-1.008.3,2.014,2.014,0,0,1-.527-1.746.555.555,0,0,1,1.008-.3A2.013,2.013,0,0,1,465.833,127.689Z" transform="translate(-463.647 -100.244)" fill="#d4ecff"/>
        </g>
        <g id="Grupo_154826" data-name="Grupo 154826" transform="translate(28.027 14.617)">
          <g id="Grupo_154825" data-name="Grupo 154825">
            <g id="Grupo_154824" data-name="Grupo 154824">
              <g id="Grupo_154822" data-name="Grupo 154822" transform="translate(0 16.481)">
                <rect id="Rectángulo_45524" data-name="Rectángulo 45524" width="5.496" height="11.859" transform="translate(2.731 0) rotate(13.191)" fill="#5793ce"/>
                <path id="Trazado_201138" data-name="Trazado 201138" d="M480.152,137.5a4.3,4.3,0,0,1-3.783-.888,1.184,1.184,0,0,1,.511-2.184,4.3,4.3,0,0,1,3.783.887A1.185,1.185,0,0,1,480.152,137.5Z" transform="translate(-475.816 -123.791)" fill="#5793ce"/>
              </g>
              <g id="Grupo_154823" data-name="Grupo 154823" transform="translate(0.558)">
                <rect id="Rectángulo_45525" data-name="Rectángulo 45525" width="8.905" height="18.6" transform="matrix(0.974, 0.228, -0.228, 0.974, 4.284, 0)" fill="#5793ce"/>
                <path id="Trazado_201139" data-name="Trazado 201139" d="M478.068,125.9l-.915,3.907a7.106,7.106,0,0,0,5.351,1.255l.915-3.907A7.111,7.111,0,0,0,478.068,125.9Z" transform="translate(-476.341 -107.522)" fill="#396caa"/>
                <path id="Trazado_201140" data-name="Trazado 201140" d="M483.386,129.182a6.962,6.962,0,0,1-6.131-1.437c-1.464-1.375-1.093-2.959.829-3.54a6.963,6.963,0,0,1,6.131,1.437C485.68,127.016,485.308,128.6,483.386,129.182Z" transform="translate(-476.361 -107.568)" fill="#5793ce"/>
              </g>
            </g>
          </g>
          <path id="Trazado_201141" data-name="Trazado 201141" d="M477.988,134.792a.556.556,0,0,1-1.008.3,2.016,2.016,0,0,1-.528-1.746.556.556,0,0,1,1.008-.3A2.016,2.016,0,0,1,477.988,134.792Z" transform="translate(-475.801 -107.347)" fill="#d4ecff"/>
        </g>
      </g>
      <path id="Trazado_201142" data-name="Trazado 201142" d="M300.841,376.188l-35.85-20.613c-2.413-1.393-2.11-3.827.677-5.437l34.794-20.088c2.787-1.609,7-1.784,9.417-.391l35.85,20.613c2.414,1.393,2.112,3.827-.675,5.437l-34.8,20.088C307.471,377.406,303.255,377.581,300.841,376.188Z" transform="translate(-221.752 -24.004)" fill="#c4d9e8" opacity="0.5"/>
      <g id="Grupo_154833" data-name="Grupo 154833" transform="translate(59.945 69.079)">
        <g id="Grupo_154829" data-name="Grupo 154829">
          <path id="Trazado_201143" data-name="Trazado 201143" d="M402.571,342.018,283.522,273.286c-3.367-1.944-2.945-5.341.944-7.586l81.062-46.786c3.889-2.245,9.772-2.489,13.139-.544L497.715,287.1c3.368,1.944,2.946,5.341-.943,7.586L415.71,341.473C411.821,343.718,405.938,343.962,402.571,342.018Z" transform="translate(-281.249 -95.876)" fill="#c4d9e8" opacity="0.5"/>
          <path id="Trazado_201144" data-name="Trazado 201144" d="M523.136,168.3,404.088,99.57a4.8,4.8,0,0,0-4.033-.5l.007-.012-.216.082-.052.019-4.3,1.646,3.861,1.891c-.016.071-.039.137-.055.21l-19.39,88.266c-.971,4.417.973,9.575,4.34,11.519l116.185,67.078-.414,4.924,4.7-1.822a6.612,6.612,0,0,0,3.368-4.79l19.39-88.266C528.447,175.4,526.5,170.246,523.136,168.3Z" transform="translate(-278.788 -98.834)" fill="#173d7a"/>
          <path id="Trazado_201145" data-name="Trazado 201145" d="M522.968,168.3,403.921,99.57a4.8,4.8,0,0,0-4.033-.5l.007-.012-.216.082-.052.019-4.3,1.646,3.861,1.891c-.016.071-.039.137-.055.21l-12.78,58.173L444.6,206.465l82.131-33.419A9.237,9.237,0,0,0,522.968,168.3Z" transform="translate(-278.62 -98.834)" fill="#396caa"/>
          <path id="Trazado_201146" data-name="Trazado 201146" d="M515.474,180.159l9.062-3.858a11.353,11.353,0,0,0-3.672-9.074L506.52,173.26Z" transform="translate(-275.614 -97.123)" fill="#274f89"/>
          <path id="Trazado_201147" data-name="Trazado 201147" d="M496.062,274.19,377.014,205.459c-3.367-1.944-5.311-7.1-4.341-11.519l19.391-88.266c.971-4.418,4.488-6.422,7.855-4.478l119.047,68.732c3.368,1.944,5.312,7.1,4.341,11.519l-19.391,88.266C502.946,274.13,499.43,276.135,496.062,274.19Z" transform="translate(-278.969 -98.793)" fill="#d4ecff"/>
          <path id="Trazado_201148" data-name="Trazado 201148" d="M493.362,267.467,381.4,202.857c-3.081-1.779-4.86-6.5-3.972-10.54l17.744-80.771c.888-4.042,4.106-5.876,7.188-4.1l111.962,64.61c3.082,1.778,4.86,6.5,3.972,10.54L500.549,263.37C499.662,267.412,496.443,269.246,493.362,267.467Z" transform="translate(-278.849 -98.635)" fill="#fff"/>
          <path id="Trazado_201149" data-name="Trazado 201149" d="M493.362,267.467,381.4,202.857c-3.081-1.779-4.86-6.5-3.972-10.54l17.744-80.771c.888-4.042,4.106-5.876,7.188-4.1l111.962,64.61c3.082,1.778,4.86,6.5,3.972,10.54L500.549,263.37C499.662,267.412,496.443,269.246,493.362,267.467Z" transform="translate(-278.849 -98.635)" fill="#fff"/>
          <path id="Trazado_201150" data-name="Trazado 201150" d="M499.986,274.436l-16.273-2.149L378.667,211.638c-3.367-1.943-9.25-1.7-13.139.545l-74.435,42.959-9.84-1.3v5.583h.009a3.834,3.834,0,0,0,2.259,3.449l119.048,68.731c3.367,1.944,9.25,1.7,13.139-.544l81.062-46.786c2.187-1.263,3.278-2.891,3.214-4.419h0Z" transform="translate(-281.249 -96.044)" fill="#173d7a"/>
          <path id="Trazado_201151" data-name="Trazado 201151" d="M421.058,235.589l-7.463-4.309H331.544l-40.45,23.339-9.84-1.3V258.9h.009a3.834,3.834,0,0,0,2.259,3.449l119.048,68.731a12.311,12.311,0,0,0,6.781,1.271Z" transform="translate(-281.249 -95.52)" fill="#396caa"/>
          <path id="Trazado_201152" data-name="Trazado 201152" d="M285.621,253.357l-4.367-.576v5.583h.009a3.834,3.834,0,0,0,2.259,3.449l2.1,1.211Z" transform="translate(-281.249 -94.982)" fill="#5793ce"/>
          <path id="Trazado_201153" data-name="Trazado 201153" d="M400.779,329.513a15.243,15.243,0,0,0,11.163-.694V316.366H400.779Z" transform="translate(-278.259 -93.392)" fill="#274f89"/>
          <path id="Trazado_201154" data-name="Trazado 201154" d="M402.571,326.258,283.522,257.525c-3.367-1.944-2.945-5.34.944-7.585l81.062-46.786c3.889-2.246,9.772-2.49,13.139-.545l119.047,68.732c3.368,1.944,2.946,5.34-.943,7.585L415.71,325.712C411.821,327.958,405.938,328.2,402.571,326.258Z" transform="translate(-281.249 -96.27)" fill="#d4ecff"/>
          <path id="Trazado_201155" data-name="Trazado 201155" d="M496.772,275.621l-81.062,46.786c-3.889,2.245-9.772,2.489-13.139.545L283.522,254.22a4.43,4.43,0,0,1-2.093-2.29c-.527,1.593.145,3.2,2.093,4.329l119.048,68.732c3.367,1.944,9.25,1.7,13.139-.544l81.062-46.786c2.614-1.51,3.653-3.537,3.037-5.3A6.333,6.333,0,0,1,496.772,275.621Z" transform="translate(-281.249 -95.004)" fill="#fff"/>
          <g id="Grupo_154828" data-name="Grupo 154828" transform="translate(47.227 109.259)">
            <path id="Trazado_201156" data-name="Trazado 201156" d="M333,234.149l-5.386-3.11c-.433-.249-.378-.686.122-.974l6.357-3.671a1.875,1.875,0,0,1,1.687-.071l5.387,3.11c.433.25.378.686-.121.975l-6.358,3.671A1.875,1.875,0,0,1,333,234.149Z" transform="translate(-327.324 -204.908)" fill="#173d7a"/>
            <path id="Trazado_201157" data-name="Trazado 201157" d="M341.119,238.834l-5.386-3.11c-.433-.249-.378-.686.121-.974l6.357-3.671a1.877,1.877,0,0,1,1.688-.07l5.386,3.11c.432.249.378.686-.122.974l-6.357,3.671A1.872,1.872,0,0,1,341.119,238.834Z" transform="translate(-327.121 -204.791)" fill="#173d7a"/>
            <path id="Trazado_201158" data-name="Trazado 201158" d="M349.234,243.52l-5.386-3.11c-.433-.25-.378-.686.121-.974l6.358-3.672a1.878,1.878,0,0,1,1.687-.07l5.386,3.11c.433.25.378.686-.121.974l-6.358,3.672A1.878,1.878,0,0,1,349.234,243.52Z" transform="translate(-326.918 -204.673)" fill="#173d7a"/>
            <path id="Trazado_201159" data-name="Trazado 201159" d="M360.458,239.637l-5.387-3.11c-.433-.25-.378-.687.121-.975l5.337-3.081a1.875,1.875,0,0,1,1.687-.07l5.386,3.11c.433.249.378.686-.121.974l-5.337,3.081A1.878,1.878,0,0,1,360.458,239.637Z" transform="translate(-326.637 -204.756)" fill="#173d7a"/>
            <path id="Trazado_201160" data-name="Trazado 201160" d="M368.573,244.322l-5.386-3.11c-.433-.25-.378-.686.121-.974l5.337-3.082a1.875,1.875,0,0,1,1.687-.07l5.386,3.11c.433.25.378.686-.121.974l-5.337,3.082A1.878,1.878,0,0,1,368.573,244.322Z" transform="translate(-326.434 -204.639)" fill="#173d7a"/>
            <path id="Trazado_201161" data-name="Trazado 201161" d="M376.688,249.007,371.3,245.9c-.433-.249-.378-.686.121-.974l5.337-3.081a1.875,1.875,0,0,1,1.687-.071l5.386,3.11c.433.25.378.686-.121.975l-5.337,3.081A1.875,1.875,0,0,1,376.688,249.007Z" transform="translate(-326.231 -204.521)" fill="#173d7a"/>
            <path id="Trazado_201162" data-name="Trazado 201162" d="M384.8,253.693l-5.386-3.11c-.433-.25-.378-.687.122-.975l5.336-3.081a1.875,1.875,0,0,1,1.687-.07l5.386,3.11c.433.249.378.686-.121.974l-5.337,3.081A1.875,1.875,0,0,1,384.8,253.693Z" transform="translate(-326.028 -204.404)" fill="#173d7a"/>
            <path id="Trazado_201163" data-name="Trazado 201163" d="M392.919,258.378l-5.386-3.11c-.433-.25-.378-.686.121-.975l5.337-3.081a1.878,1.878,0,0,1,1.687-.07l5.386,3.11c.433.25.378.686-.121.974l-5.337,3.082A1.878,1.878,0,0,1,392.919,258.378Z" transform="translate(-325.825 -204.287)" fill="#173d7a"/>
            <path id="Trazado_201164" data-name="Trazado 201164" d="M401.034,263.063l-5.386-3.11c-.433-.249-.378-.686.121-.974l5.337-3.081a1.871,1.871,0,0,1,1.687-.07l5.386,3.109c.433.25.378.686-.121.975l-5.337,3.081A1.875,1.875,0,0,1,401.034,263.063Z" transform="translate(-325.622 -204.17)" fill="#173d7a"/>
            <path id="Trazado_201165" data-name="Trazado 201165" d="M409.149,267.749l-5.386-3.11c-.433-.25-.378-.687.121-.975l5.337-3.081a1.875,1.875,0,0,1,1.687-.07l5.386,3.11c.433.249.378.686-.121.974l-5.337,3.081A1.875,1.875,0,0,1,409.149,267.749Z" transform="translate(-325.419 -204.052)" fill="#173d7a"/>
            <path id="Trazado_201166" data-name="Trazado 201166" d="M417.264,272.434l-5.387-3.11c-.433-.25-.378-.686.122-.974l5.336-3.082a1.875,1.875,0,0,1,1.687-.07l5.386,3.11c.433.25.378.686-.121.975l-5.337,3.081A1.878,1.878,0,0,1,417.264,272.434Z" transform="translate(-325.216 -203.935)" fill="#173d7a"/>
            <path id="Trazado_201167" data-name="Trazado 201167" d="M425.38,277.119l-5.386-3.11c-.433-.249-.378-.686.121-.974l5.337-3.081a1.875,1.875,0,0,1,1.687-.071l5.386,3.11c.433.25.378.687-.122.975l-5.336,3.081A1.875,1.875,0,0,1,425.38,277.119Z" transform="translate(-325.013 -203.818)" fill="#173d7a"/>
            <path id="Trazado_201168" data-name="Trazado 201168" d="M433.495,281.8l-5.386-3.109c-.433-.25-.378-.686.121-.975l5.337-3.081a1.875,1.875,0,0,1,1.687-.07l5.387,3.11c.433.249.378.686-.121.974l-5.337,3.081A1.871,1.871,0,0,1,433.495,281.8Z" transform="translate(-324.81 -203.701)" fill="#173d7a"/>
            <path id="Trazado_201169" data-name="Trazado 201169" d="M372.415,237.418l-5.386-3.11c-.433-.249-.378-.686.121-.974l5.337-3.081a1.875,1.875,0,0,1,1.687-.07l5.386,3.109c.433.25.378.687-.121.975l-5.337,3.081A1.875,1.875,0,0,1,372.415,237.418Z" transform="translate(-326.338 -204.811)" fill="#396caa"/>
            <path id="Trazado_201170" data-name="Trazado 201170" d="M364.179,232.663l-5.386-3.11c-.433-.25-.378-.686.121-.974l5.337-3.081a1.875,1.875,0,0,1,1.687-.071l5.386,3.11c.433.25.378.686-.122.975l-5.336,3.081A1.875,1.875,0,0,1,364.179,232.663Z" transform="translate(-326.544 -204.93)" fill="#396caa"/>
            <path id="Trazado_201171" data-name="Trazado 201171" d="M356.08,227.987l-11.6-6.7c-.433-.25-.378-.687.121-.975l5.337-3.081a1.875,1.875,0,0,1,1.687-.07l11.6,6.7c.433.25.378.686-.121.975l-5.337,3.081A1.875,1.875,0,0,1,356.08,227.987Z" transform="translate(-326.902 -205.137)" fill="#173d7a"/>
            <path id="Trazado_201172" data-name="Trazado 201172" d="M361.793,222.163l-9.414-5.435c-.433-.25-.378-.686.121-.975l5.337-3.081a1.875,1.875,0,0,1,1.687-.07l9.414,5.436c.433.249.378.686-.121.974l-5.337,3.081A1.871,1.871,0,0,1,361.793,222.163Z" transform="translate(-326.705 -205.251)" fill="#173d7a"/>
            <path id="Trazado_201173" data-name="Trazado 201173" d="M380.53,242.1l-5.386-3.11c-.433-.25-.378-.686.121-.975l5.337-3.081a1.875,1.875,0,0,1,1.687-.07l5.386,3.11c.433.249.378.686-.121.974l-5.337,3.081A1.875,1.875,0,0,1,380.53,242.1Z" transform="translate(-326.135 -204.694)" fill="#396caa"/>
            <path id="Trazado_201174" data-name="Trazado 201174" d="M388.645,246.789l-5.386-3.11c-.432-.25-.378-.686.122-.974l5.336-3.081a1.877,1.877,0,0,1,1.688-.071l5.386,3.11c.432.25.378.686-.122.975l-5.336,3.081A1.877,1.877,0,0,1,388.645,246.789Z" transform="translate(-325.932 -204.577)" fill="#173d7a"/>
            <path id="Trazado_201175" data-name="Trazado 201175" d="M396.761,251.474l-5.386-3.11c-.433-.249-.378-.686.121-.974l5.337-3.081a1.872,1.872,0,0,1,1.687-.07l5.386,3.11c.433.249.378.686-.121.974l-5.337,3.081A1.875,1.875,0,0,1,396.761,251.474Z" transform="translate(-325.729 -204.46)" fill="#173d7a"/>
            <path id="Trazado_201176" data-name="Trazado 201176" d="M404.876,256.16l-5.386-3.11c-.433-.25-.378-.686.121-.975l5.337-3.081a1.875,1.875,0,0,1,1.687-.07l5.386,3.11c.433.25.378.686-.121.974l-5.337,3.081A1.875,1.875,0,0,1,404.876,256.16Z" transform="translate(-325.526 -204.342)" fill="#173d7a"/>
            <path id="Trazado_201177" data-name="Trazado 201177" d="M412.991,260.845l-5.386-3.11c-.433-.25-.378-.686.121-.974l5.337-3.081a1.875,1.875,0,0,1,1.687-.071l5.386,3.11c.433.25.378.686-.121.975l-5.337,3.081A1.875,1.875,0,0,1,412.991,260.845Z" transform="translate(-325.323 -204.225)" fill="#173d7a"/>
            <path id="Trazado_201178" data-name="Trazado 201178" d="M421.106,265.53l-5.386-3.11c-.433-.249-.378-.686.122-.974l5.336-3.081a1.874,1.874,0,0,1,1.688-.07l5.385,3.11c.433.249.378.686-.121.974l-5.337,3.081A1.875,1.875,0,0,1,421.106,265.53Z" transform="translate(-325.12 -204.108)" fill="#173d7a"/>
            <path id="Trazado_201179" data-name="Trazado 201179" d="M429.222,270.216l-5.386-3.11c-.433-.25-.378-.686.121-.975l5.337-3.081a1.875,1.875,0,0,1,1.687-.07l5.386,3.11c.433.249.378.686-.121.974l-5.337,3.081A1.875,1.875,0,0,1,429.222,270.216Z" transform="translate(-324.917 -203.991)" fill="#173d7a"/>
            <path id="Trazado_201180" data-name="Trazado 201180" d="M437.337,274.9l-5.386-3.11c-.433-.25-.378-.686.121-.974l5.337-3.082a1.878,1.878,0,0,1,1.687-.07l5.386,3.11c.433.25.378.686-.121.975l-5.337,3.081A1.875,1.875,0,0,1,437.337,274.9Z" transform="translate(-324.714 -203.874)" fill="#173d7a"/>
            <path id="Trazado_201181" data-name="Trazado 201181" d="M445.452,279.586l-5.386-3.11c-.433-.249-.378-.686.121-.974l5.337-3.081a1.871,1.871,0,0,1,1.687-.07l5.386,3.109c.433.25.378.687-.121.975l-5.337,3.081A1.875,1.875,0,0,1,445.452,279.586Z" transform="translate(-324.511 -203.756)" fill="#173d7a"/>
            <path id="Trazado_201182" data-name="Trazado 201182" d="M460.034,288.005l-11.753-6.786c-.433-.25-.378-.686.122-.974l5.336-3.082a1.878,1.878,0,0,1,1.687-.07l11.753,6.786c.433.25.378.686-.121.974l-5.337,3.082A1.878,1.878,0,0,1,460.034,288.005Z" transform="translate(-324.306 -203.638)" fill="#173d7a"/>
            <path id="Trazado_201183" data-name="Trazado 201183" d="M475.789,278.858l-9.92-5.727c-.432-.25-.378-.687.121-.975l5.337-3.081a1.874,1.874,0,0,1,1.687-.07l9.92,5.727c.433.25.378.686-.122.975l-5.336,3.081A1.875,1.875,0,0,1,475.789,278.858Z" transform="translate(-323.866 -203.84)" fill="#173d7a"/>
            <path id="Trazado_201184" data-name="Trazado 201184" d="M394.742,241.187l-5.386-3.11c-.433-.25-.378-.686.121-.975l5.337-3.081a1.878,1.878,0,0,1,1.687-.07l5.386,3.11c.433.25.378.686-.121.975l-5.337,3.081A1.878,1.878,0,0,1,394.742,241.187Z" transform="translate(-325.78 -204.717)" fill="#173d7a"/>
            <path id="Trazado_201185" data-name="Trazado 201185" d="M386.425,236.385l-5.386-3.11c-.433-.25-.378-.686.121-.974l5.337-3.082a1.878,1.878,0,0,1,1.687-.07l5.386,3.11c.433.25.378.686-.121.975l-5.337,3.081A1.875,1.875,0,0,1,386.425,236.385Z" transform="translate(-325.988 -204.837)" fill="#173d7a"/>
            <path id="Trazado_201186" data-name="Trazado 201186" d="M378.107,231.583l-5.385-3.11c-.433-.25-.379-.686.121-.974l5.336-3.081a1.877,1.877,0,0,1,1.688-.071l5.386,3.11c.432.25.378.686-.122.975l-5.336,3.081A1.877,1.877,0,0,1,378.107,231.583Z" transform="translate(-326.196 -204.957)" fill="#396caa"/>
            <path id="Trazado_201187" data-name="Trazado 201187" d="M369.79,226.781l-5.386-3.11c-.433-.249-.378-.686.122-.974l5.336-3.081a1.875,1.875,0,0,1,1.687-.071l5.386,3.11c.433.25.378.687-.121.975l-5.337,3.081A1.875,1.875,0,0,1,369.79,226.781Z" transform="translate(-326.404 -205.077)" fill="#173d7a"/>
            <path id="Trazado_201188" data-name="Trazado 201188" d="M402.857,245.872l-5.386-3.11c-.433-.249-.378-.686.121-.974l5.337-3.081a1.875,1.875,0,0,1,1.687-.071l5.387,3.11c.433.25.378.687-.121.975l-5.337,3.081A1.875,1.875,0,0,1,402.857,245.872Z" transform="translate(-325.577 -204.6)" fill="#173d7a"/>
            <path id="Trazado_201189" data-name="Trazado 201189" d="M410.972,250.558l-5.386-3.11c-.433-.25-.378-.686.121-.975l5.337-3.081a1.875,1.875,0,0,1,1.687-.07l5.386,3.11c.433.249.378.686-.121.974l-5.337,3.081A1.875,1.875,0,0,1,410.972,250.558Z" transform="translate(-325.374 -204.483)" fill="#173d7a"/>
            <path id="Trazado_201190" data-name="Trazado 201190" d="M419.087,255.243l-5.386-3.11c-.432-.25-.378-.686.122-.975l5.336-3.081a1.88,1.88,0,0,1,1.688-.07l5.386,3.11c.432.25.378.686-.122.974l-5.336,3.082A1.877,1.877,0,0,1,419.087,255.243Z" transform="translate(-325.171 -204.365)" fill="#173d7a"/>
            <path id="Trazado_201191" data-name="Trazado 201191" d="M427.2,259.928l-5.386-3.11c-.433-.249-.378-.686.121-.974l5.337-3.081a1.875,1.875,0,0,1,1.687-.07l5.386,3.109c.433.25.378.687-.121.975l-5.337,3.081A1.875,1.875,0,0,1,427.2,259.928Z" transform="translate(-324.968 -204.248)" fill="#173d7a"/>
            <path id="Trazado_201192" data-name="Trazado 201192" d="M435.318,264.614l-5.386-3.11c-.433-.25-.378-.687.121-.975l5.337-3.081a1.875,1.875,0,0,1,1.687-.07l5.386,3.11c.433.249.378.686-.121.974L437,264.543A1.875,1.875,0,0,1,435.318,264.614Z" transform="translate(-324.765 -204.131)" fill="#173d7a"/>
            <path id="Trazado_201193" data-name="Trazado 201193" d="M443.433,269.3l-5.386-3.11c-.433-.25-.378-.686.121-.974l5.337-3.082a1.878,1.878,0,0,1,1.687-.07l5.386,3.11c.433.25.378.686-.121.974l-5.337,3.082A1.878,1.878,0,0,1,443.433,269.3Z" transform="translate(-324.562 -204.014)" fill="#173d7a"/>
            <path id="Trazado_201194" data-name="Trazado 201194" d="M451.548,273.984l-5.386-3.11c-.431-.249-.378-.686.122-.974l5.336-3.081a1.877,1.877,0,0,1,1.688-.07l5.386,3.11c.432.249.378.686-.122.974l-5.336,3.081A1.877,1.877,0,0,1,451.548,273.984Z" transform="translate(-324.359 -203.897)" fill="#173d7a"/>
            <path id="Trazado_201195" data-name="Trazado 201195" d="M459.664,278.67l-5.386-3.11c-.433-.25-.378-.687.121-.975l5.337-3.081a1.875,1.875,0,0,1,1.687-.07l5.386,3.11c.433.249.378.686-.121.974l-5.337,3.081A1.875,1.875,0,0,1,459.664,278.67Z" transform="translate(-324.156 -203.779)" fill="#173d7a"/>
            <path id="Trazado_201196" data-name="Trazado 201196" d="M467.779,283.355l-5.387-3.11c-.433-.25-.378-.686.121-.974l5.337-3.082a1.878,1.878,0,0,1,1.687-.07l5.386,3.11c.433.25.378.686-.121.975l-5.337,3.081A1.878,1.878,0,0,1,467.779,283.355Z" transform="translate(-323.953 -203.662)" fill="#173d7a"/>
            <path id="Trazado_201197" data-name="Trazado 201197" d="M390.469,229.6l-5.386-3.11c-.433-.25-.378-.686.121-.974l5.337-3.082a1.878,1.878,0,0,1,1.687-.07l5.386,3.11c.433.25.378.686-.122.975l-5.336,3.081A1.875,1.875,0,0,1,390.469,229.6Z" transform="translate(-325.887 -205.007)" fill="#173d7a"/>
            <path id="Trazado_201198" data-name="Trazado 201198" d="M382.394,224.936l-5.386-3.11c-.433-.25-.378-.686.121-.974l5.337-3.082a1.878,1.878,0,0,1,1.687-.07l5.386,3.11c.433.25.378.686-.121.975l-5.337,3.081A1.875,1.875,0,0,1,382.394,224.936Z" transform="translate(-326.089 -205.124)" fill="#173d7a"/>
            <path id="Trazado_201199" data-name="Trazado 201199" d="M374.319,220.274l-5.386-3.11c-.433-.25-.378-.686.121-.974l5.337-3.082a1.878,1.878,0,0,1,1.687-.07l5.386,3.11c.433.25.378.686-.121.975l-5.337,3.081A1.878,1.878,0,0,1,374.319,220.274Z" transform="translate(-326.291 -205.24)" fill="#173d7a"/>
            <path id="Trazado_201200" data-name="Trazado 201200" d="M366.244,215.612l-5.386-3.11c-.433-.25-.378-.686.121-.974l5.337-3.082a1.878,1.878,0,0,1,1.687-.07l5.386,3.11c.433.25.378.686-.121.974l-5.337,3.082A1.875,1.875,0,0,1,366.244,215.612Z" transform="translate(-326.493 -205.357)" fill="#173d7a"/>
            <path id="Trazado_201201" data-name="Trazado 201201" d="M374.547,210.767l-5.386-3.11c-.433-.25-.378-.686.122-.974l1.764-1.019a1.875,1.875,0,0,1,1.687-.07l5.386,3.109c.433.25.378.687-.121.975l-1.765,1.019A1.878,1.878,0,0,1,374.547,210.767Z" transform="translate(-326.285 -205.426)" fill="#173d7a"/>
            <path id="Trazado_201202" data-name="Trazado 201202" d="M385.085,216.851l-5.386-3.11c-.433-.25-.378-.686.121-.975l1.765-1.018a1.871,1.871,0,0,1,1.687-.07l5.386,3.11c.433.249.378.686-.122.974l-1.764,1.019A1.875,1.875,0,0,1,385.085,216.851Z" transform="translate(-326.021 -205.274)" fill="#173d7a"/>
            <path id="Trazado_201203" data-name="Trazado 201203" d="M393.126,221.493l-5.387-3.11c-.432-.249-.378-.686.121-.974l1.765-1.019a1.878,1.878,0,0,1,1.687-.07l5.386,3.11c.433.25.378.686-.121.974l-1.765,1.019A1.875,1.875,0,0,1,393.126,221.493Z" transform="translate(-325.82 -205.158)" fill="#173d7a"/>
            <path id="Trazado_201204" data-name="Trazado 201204" d="M401.167,226.136l-5.385-3.11c-.432-.249-.378-.686.121-.974l1.764-1.019a1.875,1.875,0,0,1,1.687-.07l5.386,3.11c.433.249.378.686-.121.974l-1.764,1.019A1.877,1.877,0,0,1,401.167,226.136Z" transform="translate(-325.619 -205.042)" fill="#173d7a"/>
            <path id="Trazado_201205" data-name="Trazado 201205" d="M409.209,230.779l-5.386-3.11c-.433-.25-.378-.686.121-.975l1.764-1.018a1.875,1.875,0,0,1,1.687-.071l5.386,3.11c.433.25.378.686-.121.975l-1.764,1.018A1.875,1.875,0,0,1,409.209,230.779Z" transform="translate(-325.418 -204.926)" fill="#173d7a"/>
            <path id="Trazado_201206" data-name="Trazado 201206" d="M454.1,256.7l-5.386-3.11c-.433-.25-.378-.686.121-.975L450.6,251.6a1.875,1.875,0,0,1,1.687-.071l5.386,3.11c.433.25.378.686-.121.975l-1.764,1.018A1.875,1.875,0,0,1,454.1,256.7Z" transform="translate(-324.295 -204.277)" fill="#173d7a"/>
            <path id="Trazado_201207" data-name="Trazado 201207" d="M462.143,261.34l-5.386-3.11c-.433-.249-.378-.686.121-.974l1.764-1.019a1.875,1.875,0,0,1,1.687-.07l5.386,3.11c.433.249.378.686-.121.974l-1.764,1.019A1.875,1.875,0,0,1,462.143,261.34Z" transform="translate(-324.094 -204.161)" fill="#173d7a"/>
            <path id="Trazado_201208" data-name="Trazado 201208" d="M470.184,265.983l-5.386-3.11c-.433-.25-.378-.686.121-.974l1.765-1.019a1.871,1.871,0,0,1,1.687-.07l5.386,3.109c.433.25.378.687-.122.975l-1.764,1.019A1.878,1.878,0,0,1,470.184,265.983Z" transform="translate(-323.892 -204.045)" fill="#173d7a"/>
            <path id="Trazado_201209" data-name="Trazado 201209" d="M478.225,270.625l-5.386-3.11c-.433-.249-.378-.686.122-.974l1.764-1.019a1.878,1.878,0,0,1,1.687-.07l5.387,3.11c.433.25.378.686-.121.974l-1.765,1.019A1.872,1.872,0,0,1,478.225,270.625Z" transform="translate(-323.691 -203.929)" fill="#173d7a"/>
            <path id="Trazado_201210" data-name="Trazado 201210" d="M398.584,234.283l-5.387-3.11c-.432-.249-.378-.686.121-.974l5.337-3.081a1.875,1.875,0,0,1,1.687-.07l5.386,3.11c.433.249.378.686-.121.974l-5.337,3.081A1.875,1.875,0,0,1,398.584,234.283Z" transform="translate(-325.684 -204.89)" fill="#173d7a"/>
            <path id="Trazado_201211" data-name="Trazado 201211" d="M406.7,238.969l-5.386-3.11c-.433-.25-.378-.686.121-.975l5.337-3.081a1.875,1.875,0,0,1,1.687-.07l5.386,3.11c.433.249.378.686-.121.974l-5.337,3.081A1.875,1.875,0,0,1,406.7,238.969Z" transform="translate(-325.481 -204.772)" fill="#173d7a"/>
            <path id="Trazado_201212" data-name="Trazado 201212" d="M414.814,243.654l-5.386-3.11c-.433-.25-.378-.686.121-.974l5.337-3.081a1.875,1.875,0,0,1,1.687-.071l5.387,3.11c.433.25.378.686-.121.975l-5.337,3.081A1.875,1.875,0,0,1,414.814,243.654Z" transform="translate(-325.278 -204.655)" fill="#173d7a"/>
            <path id="Trazado_201213" data-name="Trazado 201213" d="M422.929,248.339l-5.385-3.11c-.433-.249-.378-.686.121-.974L423,241.174a1.875,1.875,0,0,1,1.687-.07l5.386,3.11c.433.249.378.686-.122.974l-5.336,3.081A1.877,1.877,0,0,1,422.929,248.339Z" transform="translate(-325.075 -204.538)" fill="#173d7a"/>
            <path id="Trazado_201214" data-name="Trazado 201214" d="M431.045,253.025l-5.386-3.11c-.433-.25-.378-.686.121-.975l5.337-3.081a1.875,1.875,0,0,1,1.687-.07l5.386,3.11c.433.25.378.686-.121.974l-5.337,3.081A1.875,1.875,0,0,1,431.045,253.025Z" transform="translate(-324.872 -204.421)" fill="#173d7a"/>
            <path id="Trazado_201215" data-name="Trazado 201215" d="M439.16,257.71l-5.386-3.11c-.433-.249-.378-.686.121-.974l5.337-3.081a1.875,1.875,0,0,1,1.687-.071l5.386,3.11c.433.25.378.686-.121.975l-5.337,3.081A1.875,1.875,0,0,1,439.16,257.71Z" transform="translate(-324.668 -204.304)" fill="#173d7a"/>
            <path id="Trazado_201216" data-name="Trazado 201216" d="M447.275,262.395l-5.386-3.11c-.433-.249-.378-.686.121-.974l5.337-3.081a1.875,1.875,0,0,1,1.687-.07l5.386,3.11c.433.249.378.686-.121.974l-5.337,3.081A1.875,1.875,0,0,1,447.275,262.395Z" transform="translate(-324.466 -204.186)" fill="#173d7a"/>
            <path id="Trazado_201217" data-name="Trazado 201217" d="M455.39,267.081,450,263.971c-.433-.25-.379-.686.121-.975l5.336-3.081a1.877,1.877,0,0,1,1.688-.07l5.386,3.11c.432.25.378.686-.122.974l-5.336,3.082A1.88,1.88,0,0,1,455.39,267.081Z" transform="translate(-324.262 -204.069)" fill="#173d7a"/>
            <path id="Trazado_201218" data-name="Trazado 201218" d="M463.506,271.766l-5.386-3.11c-.433-.25-.378-.686.121-.974l5.337-3.082a1.878,1.878,0,0,1,1.687-.07l5.386,3.11c.433.25.378.686-.121.975l-5.337,3.081A1.875,1.875,0,0,1,463.506,271.766Z" transform="translate(-324.059 -203.952)" fill="#173d7a"/>
            <path id="Trazado_201219" data-name="Trazado 201219" d="M352.443,235.009l-15.864-9.159c-.433-.25-.378-.687.121-.975l5.337-3.081a1.875,1.875,0,0,1,1.687-.07l15.864,9.159c.433.25.378.686-.121.974l-5.337,3.082A1.878,1.878,0,0,1,352.443,235.009Z" transform="translate(-327.1 -205.023)" fill="#173d7a"/>
            <path id="Trazado_201220" data-name="Trazado 201220" d="M452.14,292.569l-15.863-9.159c-.433-.25-.378-.686.121-.974l5.337-3.081a1.875,1.875,0,0,1,1.687-.071l15.863,9.16c.432.249.378.686-.121.974l-5.337,3.081A1.875,1.875,0,0,1,452.14,292.569Z" transform="translate(-324.606 -203.583)" fill="#173d7a"/>
            <path id="Trazado_201221" data-name="Trazado 201221" d="M419.431,284.048l-5.386-3.11c-.433-.249-.378-.686.122-.974l6.357-3.671a1.875,1.875,0,0,1,1.687-.07l5.386,3.11c.433.249.378.686-.121.974l-6.358,3.671A1.875,1.875,0,0,1,419.431,284.048Z" transform="translate(-325.162 -203.659)" fill="#173d7a"/>
            <path id="Trazado_201222" data-name="Trazado 201222" d="M360.576,250.069l-8.614-4.973c-.433-.249-.378-.686.121-.974l6.358-3.671a1.871,1.871,0,0,1,1.687-.07l8.614,4.973c.433.249.378.686-.121.974L362.264,250A1.875,1.875,0,0,1,360.576,250.069Z" transform="translate(-326.715 -204.556)" fill="#173d7a"/>
            <path id="Trazado_201223" data-name="Trazado 201223" d="M411.69,279.58l-8.614-4.973c-.433-.25-.378-.686.121-.975l6.358-3.671a1.878,1.878,0,0,1,1.687-.07l8.614,4.973c.433.25.378.686-.121.975l-6.358,3.671A1.875,1.875,0,0,1,411.69,279.58Z" transform="translate(-325.436 -203.818)" fill="#173d7a"/>
            <path id="Trazado_201224" data-name="Trazado 201224" d="M372.285,256.829l-8.614-4.973c-.433-.249-.378-.686.121-.974l6.358-3.671a1.875,1.875,0,0,1,1.687-.071l8.614,4.973c.433.25.378.687-.121.975l-6.358,3.671A1.875,1.875,0,0,1,372.285,256.829Z" transform="translate(-326.422 -204.387)" fill="#173d7a"/>
            <path id="Trazado_201225" data-name="Trazado 201225" d="M371.887,247.169l37.452,21.624a.513.513,0,0,1,0,.972l-6.483,3.743a1.859,1.859,0,0,1-1.683,0l-37.452-21.624Z" transform="translate(-326.414 -204.382)" fill="#173d7a"/>
            <path id="Trazado_201226" data-name="Trazado 201226" d="M442.078,292.351l6,3.465c.354.205.31.562-.1.8l-2.6,1.5a1.537,1.537,0,0,1-1.383.057l-6-3.465c-.355-.2-.311-.562.1-.8l2.6-1.5A1.541,1.541,0,0,1,442.078,292.351Z" transform="translate(-324.562 -203.255)" fill="#173d7a"/>
            <path id="Trazado_201227" data-name="Trazado 201227" d="M433.9,287.627l6,3.465c.355.2.311.562-.1.8l-2.6,1.5a1.541,1.541,0,0,1-1.383.057l-6-3.465c-.355-.205-.31-.562.1-.8l2.6-1.5A1.543,1.543,0,0,1,433.9,287.627Z" transform="translate(-324.766 -203.373)" fill="#173d7a"/>
            <path id="Trazado_201228" data-name="Trazado 201228" d="M425.78,282.942l6,3.464c.355.205.31.563-.1.8l-2.6,1.5a1.536,1.536,0,0,1-1.384.057l-6-3.464c-.355-.205-.311-.563.1-.8l2.6-1.5A1.534,1.534,0,0,1,425.78,282.942Z" transform="translate(-324.969 -203.491)" fill="#173d7a"/>
            <path id="Trazado_201229" data-name="Trazado 201229" d="M438.377,285.04l6,3.464c.354.205.31.563-.1.8l-2.6,1.5a1.534,1.534,0,0,1-1.383.057l-6-3.464c-.355-.205-.311-.563.1-.8l2.6-1.5A1.534,1.534,0,0,1,438.377,285.04Z" transform="translate(-324.654 -203.438)" fill="#173d7a"/>
          </g>
        </g>
        <g id="Grupo_154832" data-name="Grupo 154832" transform="translate(106.655 24.757)">
          <g id="Grupo_154830" data-name="Grupo 154830">
            <path id="Trazado_201230" data-name="Trazado 201230" d="M427.739,141.611l-7.96-4.6a2.277,2.277,0,0,1-.971-2.358h0a1.107,1.107,0,0,1,1.7-.813l7.96,4.6a2.276,2.276,0,0,1,.971,2.358h0A1.107,1.107,0,0,1,427.739,141.611Z" transform="translate(-384.465 -122.719)" fill="#d4ecff"/>
            <path id="Trazado_201231" data-name="Trazado 201231" d="M446.329,152.344l-11.737-6.776a2.278,2.278,0,0,1-.971-2.358h0a1.107,1.107,0,0,1,1.7-.813l11.737,6.776a2.277,2.277,0,0,1,.972,2.358h0A1.108,1.108,0,0,1,446.329,152.344Z" transform="translate(-384.094 -122.505)" fill="#d4ecff"/>
            <path id="Trazado_201232" data-name="Trazado 201232" d="M414.2,177.86l-7.96-4.6a2.276,2.276,0,0,1-.971-2.357h0a1.107,1.107,0,0,1,1.7-.813l7.96,4.6a2.277,2.277,0,0,1,.972,2.358h0A1.108,1.108,0,0,1,414.2,177.86Z" transform="translate(-384.803 -121.812)" fill="#d4ecff"/>
            <path id="Trazado_201233" data-name="Trazado 201233" d="M430.784,187.433l-11.737-6.776a2.275,2.275,0,0,1-.972-2.357h0a1.108,1.108,0,0,1,1.7-.814l11.738,6.776a2.279,2.279,0,0,1,.971,2.358h0A1.107,1.107,0,0,1,430.784,187.433Z" transform="translate(-384.483 -121.627)" fill="#d4ecff"/>
            <path id="Trazado_201234" data-name="Trazado 201234" d="M404.757,135.687l-4.972-2.871a2.276,2.276,0,0,1-.971-2.358h0a1.107,1.107,0,0,1,1.7-.813l4.972,2.871a2.275,2.275,0,0,1,.972,2.357h0A1.108,1.108,0,0,1,404.757,135.687Z" transform="translate(-384.965 -122.824)" fill="#d4ecff"/>
            <path id="Trazado_201235" data-name="Trazado 201235" d="M419.959,151.807l-15.193-8.772a2.275,2.275,0,0,1-.972-2.357h0a1.108,1.108,0,0,1,1.7-.814l15.193,8.772a2.276,2.276,0,0,1,.971,2.358h0A1.107,1.107,0,0,1,419.959,151.807Z" transform="translate(-384.84 -122.568)" fill="#d4ecff"/>
            <path id="Trazado_201236" data-name="Trazado 201236" d="M406.746,158.867,401.774,156a2.275,2.275,0,0,1-.972-2.357h0a1.108,1.108,0,0,1,1.7-.814l4.972,2.871a2.278,2.278,0,0,1,.972,2.358h0A1.108,1.108,0,0,1,406.746,158.867Z" transform="translate(-384.915 -122.244)" fill="#d4ecff"/>
            <path id="Trazado_201237" data-name="Trazado 201237" d="M433.318,203.585l-13.282-7.668a2.278,2.278,0,0,1-.971-2.358h0a1.107,1.107,0,0,1,1.7-.813l13.282,7.668a2.276,2.276,0,0,1,.971,2.357h0A1.107,1.107,0,0,1,433.318,203.585Z" transform="translate(-384.458 -121.245)" fill="#d4ecff"/>
            <path id="Trazado_201238" data-name="Trazado 201238" d="M401.974,170.8l-3.192-1.843a2.278,2.278,0,0,1-.972-2.358h0a1.108,1.108,0,0,1,1.7-.813l3.192,1.843a2.276,2.276,0,0,1,.971,2.358h0A1.107,1.107,0,0,1,401.974,170.8Z" transform="translate(-384.99 -121.92)" fill="#d4ecff"/>
            <path id="Trazado_201239" data-name="Trazado 201239" d="M399.754,184.207l-3.964-2.289a2.278,2.278,0,0,1-.971-2.358h0a1.107,1.107,0,0,1,1.7-.813l3.964,2.289a2.275,2.275,0,0,1,.972,2.357h0A1.108,1.108,0,0,1,399.754,184.207Z" transform="translate(-385.065 -121.596)" fill="#d4ecff"/>
            <path id="Trazado_201240" data-name="Trazado 201240" d="M414.956,192.984l-10.45-6.034a2.276,2.276,0,0,1-.972-2.358h0a1.108,1.108,0,0,1,1.7-.813l10.45,6.034a2.274,2.274,0,0,1,.972,2.357h0A1.108,1.108,0,0,1,414.956,192.984Z" transform="translate(-384.847 -121.47)" fill="#d4ecff"/>
            <path id="Trazado_201241" data-name="Trazado 201241" d="M401.808,192.737l-7.514-4.339a2.276,2.276,0,0,1-.971-2.357h0a1.107,1.107,0,0,1,1.7-.813l7.514,4.338a2.274,2.274,0,0,1,.971,2.357h0A1.107,1.107,0,0,1,401.808,192.737Z" transform="translate(-385.102 -121.433)" fill="#d4ecff"/>
            <path id="Trazado_201242" data-name="Trazado 201242" d="M444.229,209.916,439.4,207.13a2.276,2.276,0,0,1-.972-2.358h0a1.108,1.108,0,0,1,1.7-.813l4.825,2.786a2.277,2.277,0,0,1,.972,2.358h0A1.108,1.108,0,0,1,444.229,209.916Z" transform="translate(-383.974 -120.965)" fill="#d4ecff"/>
            <path id="Trazado_201243" data-name="Trazado 201243" d="M425,169.4l-13.282-7.668a2.278,2.278,0,0,1-.971-2.358h0a1.107,1.107,0,0,1,1.7-.813l13.282,7.668a2.278,2.278,0,0,1,.971,2.358h0A1.107,1.107,0,0,1,425,169.4Z" transform="translate(-384.667 -122.1)" fill="#d4ecff"/>
            <path id="Trazado_201244" data-name="Trazado 201244" d="M426.418,162.88,403.27,149.516a2.277,2.277,0,0,1-.972-2.358h0a1.108,1.108,0,0,1,1.7-.813l23.147,13.364a2.277,2.277,0,0,1,.972,2.358h0A1.107,1.107,0,0,1,426.418,162.88Z" transform="translate(-384.878 -122.406)" fill="#d4ecff"/>
            <path id="Trazado_201245" data-name="Trazado 201245" d="M413.559,170.145l-13.281-7.668a2.277,2.277,0,0,1-.972-2.358h0a1.108,1.108,0,0,1,1.7-.813l13.281,7.668a2.275,2.275,0,0,1,.972,2.357h0A1.108,1.108,0,0,1,413.559,170.145Z" transform="translate(-384.953 -122.082)" fill="#d4ecff"/>
            <path id="Trazado_201246" data-name="Trazado 201246" d="M434.616,174.958l-4.826-2.786a2.278,2.278,0,0,1-.971-2.358h0a1.107,1.107,0,0,1,1.7-.813l4.826,2.786a2.277,2.277,0,0,1,.972,2.358h0A1.108,1.108,0,0,1,434.616,174.958Z" transform="translate(-384.214 -121.839)" fill="#d4ecff"/>
            <path id="Trazado_201247" data-name="Trazado 201247" d="M481.666,172.746l-28.576-16.5a2.278,2.278,0,0,1-.971-2.358h0a1.107,1.107,0,0,1,1.7-.813l28.576,16.5a2.276,2.276,0,0,1,.971,2.358h0A1.107,1.107,0,0,1,481.666,172.746Z" transform="translate(-383.631 -122.238)" fill="#d4ecff"/>
            <path id="Trazado_201248" data-name="Trazado 201248" d="M413.252,184.655l-15.966-9.218a2.274,2.274,0,0,1-.971-2.357h0a1.107,1.107,0,0,1,1.7-.813l15.966,9.217a2.278,2.278,0,0,1,.971,2.358h0A1.107,1.107,0,0,1,413.252,184.655Z" transform="translate(-385.027 -121.758)" fill="#d4ecff"/>
            <path id="Trazado_201249" data-name="Trazado 201249" d="M413.018,133.112l-11.737-6.777a2.275,2.275,0,0,1-.971-2.356h0a1.108,1.108,0,0,1,1.7-.814l11.737,6.777a2.274,2.274,0,0,1,.971,2.357h0A1.108,1.108,0,0,1,413.018,133.112Z" transform="translate(-384.928 -122.986)" fill="#d4ecff"/>
            <path id="Trazado_201250" data-name="Trazado 201250" d="M399.916,198.988l-13.594-7.849a2.278,2.278,0,0,1-.971-2.358h0a1.107,1.107,0,0,1,1.7-.813l13.594,7.849a2.275,2.275,0,0,1,.972,2.357h0A1.108,1.108,0,0,1,399.916,198.988Z" transform="translate(-385.302 -121.365)" fill="#d4ecff"/>
          </g>
          <g id="Grupo_154831" data-name="Grupo 154831" transform="translate(88.45 67.344)">
            <path id="Trazado_201251" data-name="Trazado 201251" d="M489.53,226.861l-7.96-4.6a2.275,2.275,0,0,1-.972-2.356h0a1.108,1.108,0,0,1,1.7-.814l7.96,4.6a2.278,2.278,0,0,1,.971,2.358h0A1.107,1.107,0,0,1,489.53,226.861Z" transform="translate(-471.369 -187.931)" fill="#d4ecff"/>
            <path id="Trazado_201252" data-name="Trazado 201252" d="M495.286,200.808l-15.193-8.772a2.277,2.277,0,0,1-.972-2.356h0a1.108,1.108,0,0,1,1.7-.814l15.193,8.772a2.277,2.277,0,0,1,.972,2.358h0A1.108,1.108,0,0,1,495.286,200.808Z" transform="translate(-471.406 -188.687)" fill="#d4ecff"/>
            <path id="Trazado_201253" data-name="Trazado 201253" d="M482.073,207.868,477.1,205a2.278,2.278,0,0,1-.971-2.358h0a1.107,1.107,0,0,1,1.7-.813l4.972,2.871a2.277,2.277,0,0,1,.972,2.358h0A1.108,1.108,0,0,1,482.073,207.868Z" transform="translate(-471.48 -188.363)" fill="#d4ecff"/>
            <path id="Trazado_201254" data-name="Trazado 201254" d="M477.3,219.8l-3.192-1.843a2.278,2.278,0,0,1-.971-2.358h0a1.107,1.107,0,0,1,1.7-.813l3.192,1.843a2.275,2.275,0,0,1,.972,2.357h0A1.108,1.108,0,0,1,477.3,219.8Z" transform="translate(-471.555 -188.038)" fill="#d4ecff"/>
            <path id="Trazado_201255" data-name="Trazado 201255" d="M500.322,218.4l-13.281-7.668a2.277,2.277,0,0,1-.972-2.358h0a1.108,1.108,0,0,1,1.7-.813l13.281,7.668a2.278,2.278,0,0,1,.972,2.358h0A1.108,1.108,0,0,1,500.322,218.4Z" transform="translate(-471.232 -188.219)" fill="#d4ecff"/>
            <path id="Trazado_201256" data-name="Trazado 201256" d="M501.745,211.881,478.6,198.517a2.276,2.276,0,0,1-.971-2.358h0a1.107,1.107,0,0,1,1.7-.813l23.148,13.364a2.278,2.278,0,0,1,.972,2.358h0A1.108,1.108,0,0,1,501.745,211.881Z" transform="translate(-471.443 -188.525)" fill="#d4ecff"/>
            <path id="Trazado_201257" data-name="Trazado 201257" d="M488.887,219.146,475.6,211.478a2.279,2.279,0,0,1-.971-2.358h0a1.108,1.108,0,0,1,1.7-.814l13.281,7.668a2.277,2.277,0,0,1,.972,2.358h0A1.108,1.108,0,0,1,488.887,219.146Z" transform="translate(-471.518 -188.201)" fill="#d4ecff"/>
            <path id="Trazado_201258" data-name="Trazado 201258" d="M488.579,233.656l-15.965-9.218a2.275,2.275,0,0,1-.972-2.357h0a1.108,1.108,0,0,1,1.7-.814l15.965,9.218a2.277,2.277,0,0,1,.972,2.358h0A1.108,1.108,0,0,1,488.579,233.656Z" transform="translate(-471.593 -187.876)" fill="#d4ecff"/>
          </g>
        </g>
      </g>
      <g id="Grupo_154836" data-name="Grupo 154836" transform="translate(39.371 281.658)">
        <g id="Grupo_154834" data-name="Grupo 154834" transform="translate(44.237 0)">
          <path id="Trazado_201259" data-name="Trazado 201259" d="M339.554,340l-5.5-3.179,20.294-11.717a1.06,1.06,0,0,0,0-2.007l-20.732-11.97a3.847,3.847,0,0,0-3.477,0l-20.3,11.717-5.5-3.178,20.294-11.718a16.032,16.032,0,0,1,14.486,0l20.733,11.97c3.995,2.305,3.995,6.057,0,8.363Z" transform="translate(-304.335 -306.224)" fill="#396caa"/>
        </g>
        <g id="Grupo_154835" data-name="Grupo 154835" transform="translate(0 5.837)">
          <path id="Trazado_201260" data-name="Trazado 201260" d="M349.489,341.261c0-2.943-1.789-6.361-4-7.635L308.722,312.4a2.561,2.561,0,0,0-2.588-.221l0,0-43.9,25.513,42.456,31.993,43.253-25.1a2.011,2.011,0,0,0,.382-.222h0A3.76,3.76,0,0,0,349.489,341.261Z" transform="translate(-261.152 -311.919)" fill="#d4ecff"/>
          <path id="Trazado_201261" data-name="Trazado 201261" d="M303.784,369.066l43.253-25.1a2.009,2.009,0,0,0,.382-.222h0a3.759,3.759,0,0,0,1.169-3.09,9.8,9.8,0,0,0-1.077-4.253l-49.305,28.467Z" transform="translate(-260.252 -311.306)" fill="#173d7a"/>
          <path id="Trazado_201262" data-name="Trazado 201262" d="M301.945,368.948l-36.77-21.23c-2.207-1.274-4-4.693-4-7.635h0c0-2.942,1.79-4.295,4-3.021l36.77,21.23c2.207,1.274,4,4.693,4,7.635h0C305.941,368.87,304.152,370.222,301.945,368.948Z" transform="translate(-261.178 -311.302)" fill="#5793ce"/>
        </g>
        <path id="Trazado_201263" data-name="Trazado 201263" d="M296.344,361.961l-5.659-3.265a2.443,2.443,0,0,1-1.02-1.949h0c0-.75.457-1.1,1.02-.771l5.659,3.265a2.443,2.443,0,0,1,1.02,1.949h0C297.364,361.941,296.907,362.286,296.344,361.961Z" transform="translate(-260.465 -304.983)" fill="#173d7a"/>
      </g>
      <g id="Grupo_154843" data-name="Grupo 154843" transform="translate(205.391)">
        <g id="Grupo_154839" data-name="Grupo 154839">
          <path id="Trazado_201264" data-name="Trazado 201264" d="M517.393,136.414l12.545-4.99-2.821-18.455-6.09,5.4Z" transform="translate(-420.788 -29.401)" fill="#5793ce"/>
          <path id="Trazado_201265" data-name="Trazado 201265" d="M435.488,52.195l30.3-12.111S460.21,52.17,460.2,52.195s-16.182,3.745-16.182,3.745Z" transform="translate(-422.837 -31.225)" fill="#5793ce"/>
          <path id="Trazado_201266" data-name="Trazado 201266" d="M530.1,102.626a13.349,13.349,0,0,0-4.911-1.688c1.673-11.153-3.146-22.927-12.393-28.269a20.167,20.167,0,0,0-8.665-2.723c3.624-13.519-1.973-28.884-13.381-35.474a21.01,21.01,0,0,0-18.078-1.743l.005-.01-.279.112c-.147.056-.291.115-.437.174l-9.495,3.735L466.249,40c-5.135,1.617-9.576,5.77-11.921,11.908C450,63.226,454.44,76.99,464.236,82.65l58.232,49.086c7.355,4.25,11.821,2.475,15.069-6.024S537.453,106.876,530.1,102.626Z" transform="translate(-422.408 -31.441)" fill="#5793ce"/>
          <path id="Trazado_201267" data-name="Trazado 201267" d="M456.875,46.923,489.54,33.873a20.871,20.871,0,0,0-16.977-1.144l.005-.01-.279.112c-.147.056-.291.115-.437.174l-9.495,3.735L466.144,40A18.116,18.116,0,0,0,456.875,46.923Z" transform="translate(-422.302 -31.441)" fill="#5793ce"/>
          <path id="Trazado_201268" data-name="Trazado 201268" d="M501.767,94.913l21.57-8.6a25.989,25.989,0,0,0-11.355-14.692,21.226,21.226,0,0,0-2.178-1.1L480.091,82.39Z" transform="translate(-421.722 -30.463)" fill="#5793ce"/>
          <path id="Trazado_201269" data-name="Trazado 201269" d="M468.686,38.089l9.258,5.349,16.064-6.4a25.426,25.426,0,0,0-3.662-2.582,22.683,22.683,0,0,0-6.28-2.491Z" transform="translate(-422.007 -31.428)" fill="#d4ecff"/>
          <path id="Trazado_201270" data-name="Trazado 201270" d="M521.27,82.423,505.744,88.6l4.581,6.436,13.322-5.3A29.908,29.908,0,0,0,521.27,82.423Z" transform="translate(-421.08 -30.165)" fill="#d4ecff"/>
          <path id="Trazado_201271" data-name="Trazado 201271" d="M520.453,106.607a13.336,13.336,0,0,0-4.911-1.687c1.673-11.154-3.27-23-12.517-28.343a19.538,19.538,0,0,0-8.541-2.65c3.623-13.52-1.973-28.884-13.381-35.475-12.267-7.088-26.6-1.343-32.017,12.832-.185.482-.353.967-.512,1.453-9.36-4.164-19.709.528-23.771,11.161-4.325,11.319.112,25.083,9.908,30.743l73.984,42.744c7.357,4.25,15.952.8,19.2-7.695S527.809,110.858,520.453,106.607Z" transform="translate(-423.146 -31.341)" fill="#d4ecff"/>
          <g id="Grupo_154837" data-name="Grupo 154837" transform="translate(11.184 3.223)">
            <path id="Trazado_201272" data-name="Trazado 201272" d="M521.062,105.774a13.356,13.356,0,0,0-4.911-1.688c1.672-11.153-3.271-23-12.519-28.342a19.536,19.536,0,0,0-8.54-2.651c3.623-13.519-1.974-28.884-13.382-35.474a20.885,20.885,0,0,0-21.852.1,20.911,20.911,0,0,1,20.326.754c11.407,6.59,17,21.955,13.381,35.475a19.525,19.525,0,0,1,8.542,2.65c9.248,5.343,14.19,17.189,12.517,28.343a13.336,13.336,0,0,1,4.911,1.687c7.356,4.251,10.687,14.586,7.44,23.085a15.243,15.243,0,0,1-5.782,7.424,14.809,14.809,0,0,0,7.309-8.278C531.749,120.36,528.417,110.024,521.062,105.774Z" transform="translate(-433.412 -34.585)" fill="#fff"/>
            <path id="Trazado_201273" data-name="Trazado 201273" d="M448.3,52.373c.138-.425.289-.848.446-1.269a16.47,16.47,0,0,0-14.69,1.5A16.521,16.521,0,0,1,448.3,52.373Z" transform="translate(-434.057 -34.199)" fill="#fff"/>
          </g>
          <g id="Grupo_154838" data-name="Grupo 154838" transform="translate(4.767 7.788)">
            <path id="Trazado_201274" data-name="Trazado 201274" d="M440.1,54.863a9.715,9.715,0,0,0-3.9.789c-2.938,1.281-5.478,4.255-6.969,8.157-3.8,9.946.262,22.548,8.869,27.521l73.985,42.745a7.711,7.711,0,0,0,6.6.934c1.871-.75,3.532-2.721,4.558-5.407,2.742-7.177-.19-16.273-6.4-19.863a9.61,9.61,0,0,0-3.518-1.234l-3-.406.385-2.575c1.543-10.286-3.207-21.143-11.294-25.815a15.576,15.576,0,0,0-6.805-2.163l-3.724-.241.837-3.123c3.323-12.4-2.049-26.716-12.229-32.6-4.734-2.735-9.721-3.287-14.04-1.558s-7.85,5.7-9.939,11.168c-.163.424-.311.852-.451,1.282l-2,6.128-5.8-2.58A12.737,12.737,0,0,0,440.1,54.863Z" transform="translate(-427.797 -39.039)" fill="#396caa"/>
          </g>
        </g>
        <g id="Grupo_154842" data-name="Grupo 154842" transform="translate(38.231 42.465)">
          <path id="Trazado_201275" data-name="Trazado 201275" d="M475.165,100.924l2.549-1.026-1.982-1.525Z" transform="translate(-460.076 -72.231)" fill="#5793ce"/>
          <path id="Trazado_201276" data-name="Trazado 201276" d="M473.922,73.945l2.476-1-.175,1.039Z" transform="translate(-460.107 -72.868)" fill="#5793ce"/>
          <path id="Trazado_201277" data-name="Trazado 201277" d="M483,94.682l2.583-1.042-3.766-3.791Z" transform="translate(-459.909 -72.445)" fill="#5793ce"/>
          <g id="Grupo_154840" data-name="Grupo 154840" transform="translate(2.589)">
            <path id="Trazado_201278" data-name="Trazado 201278" d="M477.256,100.249l-9.873-5.7a1.6,1.6,0,0,1-.674-1.627l2.366-11.205,11.688,6.748L478.4,99.669A.744.744,0,0,1,477.256,100.249Z" transform="translate(-462.877 -72.648)" fill="#5793ce"/>
            <path id="Trazado_201279" data-name="Trazado 201279" d="M476.645,72.955,463.3,79.682c-.566.285-.377,1.349.31,1.747L474.5,87.716,485.394,94c.688.4,1.235-.242.9-1.048l-7.911-19C478.041,73.139,477.222,72.665,476.645,72.955Z" transform="translate(-462.97 -72.869)" fill="#5793ce"/>
          </g>
          <g id="Grupo_154841" data-name="Grupo 154841" transform="translate(0 1.045)">
            <path id="Trazado_201280" data-name="Trazado 201280" d="M474.731,101.268l-9.873-5.7a1.6,1.6,0,0,1-.674-1.628l2.366-11.205,11.687,6.749-2.365,11.205A.744.744,0,0,1,474.731,101.268Z" transform="translate(-460.351 -73.668)" fill="#d4ecff"/>
            <path id="Trazado_201281" data-name="Trazado 201281" d="M474.12,73.975,460.778,80.7c-.567.286-.378,1.35.31,1.747l10.891,6.287,10.891,6.288c.687.4,1.235-.242.9-1.049l-7.911-19C475.516,74.158,474.7,73.685,474.12,73.975Z" transform="translate(-460.444 -73.889)" fill="#d4ecff"/>
          </g>
        </g>
      </g>
      <g id="Grupo_154869" data-name="Grupo 154869" transform="translate(0 265.019)">
        <g id="Grupo_154868" data-name="Grupo 154868" transform="translate(0 0)">
          <path id="Trazado_201282" data-name="Trazado 201282" d="M253.68,312l8.908,5.06,9.089-5.333-.024-2.32-.077.045-.007-.164,4.042-.028-.024-2.284,3.964-.028-.024-2.284,3.964-.028-.024-2.284,3.964-.028-.024-2.284,4.238-.03,1.317-.772,1.453-6-.024-2.32-.7,2.223-6.415-.857Z" transform="translate(-221.994 -289.969)" fill="#396caa"/>
          <g id="Grupo_154867" data-name="Grupo 154867">
            <g id="Grupo_154866" data-name="Grupo 154866">
              <g id="Grupo_154859" data-name="Grupo 154859" transform="translate(10.055)">
                <g id="Grupo_154845" data-name="Grupo 154845" transform="translate(21.606)">
                  <g id="Grupo_154844" data-name="Grupo 154844">
                    <path id="Trazado_201283" data-name="Trazado 201283" d="M262.564,314.762l9.089-5.333-.109-2.438,4.042-.028-.1-2.284,4.042-.028-.1-2.284,4.042-.028-.1-2.284,4.042-.028-.1-2.284,4.316-.03,1.317-.773,1.453-6-7.14-.954L253.656,309.7Z" transform="translate(-253.656 -289.992)" fill="#d4ecff"/>
                  </g>
                </g>
                <g id="Grupo_154847" data-name="Grupo 154847" transform="translate(21.606 15.859)">
                  <g id="Grupo_154846" data-name="Grupo 154846">
                    <path id="Trazado_201284" data-name="Trazado 201284" d="M268.616,310.824a12.507,12.507,0,0,0-4.128-3.559,21.3,21.3,0,0,0-4.267-1.8l-6.565,3.851,8.908,5.06Z" transform="translate(-253.656 -305.464)" fill="#396caa"/>
                  </g>
                </g>
                <g id="Grupo_154849" data-name="Grupo 154849" transform="translate(32.758 0.794)">
                  <g id="Grupo_154848" data-name="Grupo 154848">
                    <path id="Trazado_201285" data-name="Trazado 201285" d="M293.875,291.932l.244-1.006-1.2-.16L264.536,307.42l1.495.849Z" transform="translate(-264.536 -290.766)" fill="#5793ce"/>
                  </g>
                </g>
                <g id="Grupo_154851" data-name="Grupo 154851" transform="translate(0.002 26.051)">
                  <g id="Grupo_154850" data-name="Grupo 154850">
                    <path id="Trazado_201286" data-name="Trazado 201286" d="M232.677,318.7l-.1-3.3,1.056,2.227Z" transform="translate(-232.579 -315.407)" fill="#d3d0cf"/>
                  </g>
                </g>
                <path id="Trazado_201287" data-name="Trazado 201287" d="M238.163,326.311c7.278,4.134,19.029,4.052,26.249-.183,3.619-2.124,5.412-4.888,5.382-7.638v0l-.1-3.493-.594.66a11.357,11.357,0,0,0-4.8-4.685c-7.278-4.134-19.029-4.052-26.249.183S230.885,322.177,238.163,326.311Zm10.513-6.169c1.9,1.076,1.908,2.843.028,3.945a7.552,7.552,0,0,1-6.834.048c-1.894-1.076-1.907-2.842-.028-3.945A7.552,7.552,0,0,1,248.676,320.142Z" transform="translate(-232.575 -289.543)" fill="#396caa"/>
                <g id="Grupo_154853" data-name="Grupo 154853" transform="translate(0 15.085)">
                  <g id="Grupo_154852" data-name="Grupo 154852">
                    <path id="Trazado_201288" data-name="Trazado 201288" d="M238.067,323.095c7.278,4.135,19.029,4.053,26.249-.183s7.172-11.02-.107-15.155-19.029-4.052-26.249.183S230.789,318.961,238.067,323.095Zm10.513-6.168c1.9,1.076,1.908,2.842.028,3.945a7.549,7.549,0,0,1-6.834.047c-1.894-1.075-1.907-2.842-.028-3.945A7.555,7.555,0,0,1,248.58,316.927Z" transform="translate(-232.577 -304.709)" fill="#f2f2f2"/>
                  </g>
                </g>
                <g id="Grupo_154855" data-name="Grupo 154855" transform="translate(0 15.085)">
                  <g id="Grupo_154854" data-name="Grupo 154854">
                    <path id="Trazado_201289" data-name="Trazado 201289" d="M238.067,323.095a22.169,22.169,0,0,0,5.476,2.148,29.2,29.2,0,0,0,4.351.75c5.789.564,11.968-.468,16.422-3.082,7.219-4.235,7.172-11.02-.107-15.155s-19.029-4.052-26.249.183S230.789,318.961,238.067,323.095Zm10.513-6.168c1.9,1.076,1.908,2.842.028,3.945a7.549,7.549,0,0,1-6.834.047c-1.894-1.075-1.907-2.842-.028-3.945A7.555,7.555,0,0,1,248.58,316.927Z" transform="translate(-232.577 -304.709)" fill="#d4ecff"/>
                  </g>
                </g>
                <g id="Grupo_154858" data-name="Grupo 154858" transform="translate(2.05 16.267)">
                  <g id="Grupo_154857" data-name="Grupo 154857">
                    <g id="Grupo_154856" data-name="Grupo 154856">
                      <path id="Trazado_201290" data-name="Trazado 201290" d="M234.578,315.558c.355-2.113,1.92-4.177,4.709-5.812,6.423-3.769,16.879-3.842,23.354-.164,3.218,1.828,4.843,4.238,4.88,6.664.461-2.753-1.139-5.59-4.8-7.671-6.475-3.679-16.931-3.606-23.354.163C236.133,310.632,234.541,313.1,234.578,315.558Z" transform="translate(-234.577 -305.862)" fill="#396caa"/>
                    </g>
                  </g>
                </g>
              </g>
              <g id="Grupo_154863" data-name="Grupo 154863" transform="translate(0 25.39)">
                <g id="Grupo_154862" data-name="Grupo 154862">
                  <g id="Grupo_154861" data-name="Grupo 154861">
                    <g id="Grupo_154860" data-name="Grupo 154860">
                      <path id="Trazado_201291" data-name="Trazado 201291" d="M230.5,345.331a7.285,7.285,0,0,1-3.643-.941c-2.607-1.478-4.058-4.453-4.085-8.374-.051-7.151,4.926-15.913,11.1-19.534,3.381-1.984,6.678-2.261,9.285-.778a7.279,7.279,0,0,1,2.7,2.7h0a11.241,11.241,0,0,1,1.386,5.674c.05,7.151-4.928,15.915-11.1,19.534A11.279,11.279,0,0,1,230.5,345.331Zm9-27.94a8.7,8.7,0,0,0-4.309,1.353c-5.449,3.2-9.845,10.937-9.8,17.253.021,2.945,1,5.115,2.757,6.111s4.125.731,6.663-.759c5.448-3.2,9.844-10.937,9.8-17.254a8.827,8.827,0,0,0-1.025-4.366,4.562,4.562,0,0,0-4.086-2.339Z" transform="translate(-222.768 -314.763)" fill="#396caa"/>
                    </g>
                  </g>
                </g>
              </g>
              <g id="Grupo_154865" data-name="Grupo 154865" transform="translate(16.088 34.069)">
                <g id="Grupo_154864" data-name="Grupo 154864">
                  <path id="Trazado_201292" data-name="Trazado 201292" d="M240.3,327.03a27.362,27.362,0,0,0,5.546,1.534c2.452.3.055-3.216.055-3.216a28.044,28.044,0,0,1-6.35-1.892C236.727,322.134,240.3,327.03,240.3,327.03Z" transform="translate(-238.463 -323.229)" fill="#396caa"/>
                </g>
              </g>
            </g>
          </g>
        </g>
        <path id="Trazado_201293" data-name="Trazado 201293" d="M242.458,323.053l5.18,1.27.744-3.845a7.549,7.549,0,0,1-6.834.047Z" transform="translate(-222.298 -289.229)" fill="#d4ecff"/>
        <path id="Trazado_201294" data-name="Trazado 201294" d="M237.933,322.662a22.168,22.168,0,0,0,5.476,2.148,29.192,29.192,0,0,0,4.351.75c5.789.564,11.968-.468,16.422-3.082l-21.1-.474Z" transform="translate(-222.388 -289.191)" fill="#d4ecff"/>
      </g>
    </g>
  </g>
</svg>
