<svg xmlns="http://www.w3.org/2000/svg" width="49.463" height="49.427" viewBox="0 0 49.463 49.427">
  <g id="Grupo_1077915" data-name="Grupo 1077915" transform="translate(-222.225 411.021)">
    <path id="Trazado_197629" data-name="Trazado 197629" d="M348.808,156.054a.191.191,0,0,0-.13.049c.076-.02.152-.038.229-.056Z" transform="translate(-115.45 -517.698)" fill="#12263f"/>
    <path id="Trazado_197630" data-name="Trazado 197630" d="M272.485-369.568a6.452,6.452,0,0,0-1.932-3.481q-3.264-3.253-6.518-6.516-1.484-1.484-2.969-2.968c-.613-.611-.974-.612-1.59-.021a2.364,2.364,0,0,1-.409.333.831.831,0,0,1-1.1-.144.821.821,0,0,1-.128-1.1,3.506,3.506,0,0,1,.407-.473.884.884,0,0,0-.007-1.421c-.483-.5-.964-.993-1.473-1.461-.247-.227-.248-.355,0-.594q1.9-1.856,3.753-3.753a.716.716,0,0,1,.724-.211,9.423,9.423,0,0,0,5.553-.731,9.789,9.789,0,0,0,5.587-11.044c-.08-.413-.17-.784-.629-.933s-.755.122-1.046.413c-1.546,1.547-3.1,3.089-4.638,4.642a.488.488,0,0,1-.581.162c-1.151-.4-2.309-.777-3.467-1.156a.57.57,0,0,1-.393-.425q-.552-1.716-1.145-3.418a.475.475,0,0,1,.138-.582c1.191-1.174,2.37-2.361,3.553-3.543.432-.432.88-.85,1.293-1.3a.827.827,0,0,0-.4-1.427,9.331,9.331,0,0,0-3.921-.17,9.82,9.82,0,0,0-8.166,11.226.773.773,0,0,1-.212.761q-8.745,8.723-17.467,17.47a.685.685,0,0,1-.676.231,9.043,9.043,0,0,0-2.255-.113,9.877,9.877,0,0,0-9.147,9.19l0,1.363a9.887,9.887,0,0,0,8.4,9.065c.1.015.231-.024.3.1h2.22a.191.191,0,0,1,.13-.049l.1-.006a14.46,14.46,0,0,0,2-.5,9.772,9.772,0,0,0,6.53-8.276,7.78,7.78,0,0,0-.085-2.593.617.617,0,0,1,.2-.634q1.907-1.879,3.786-3.788c.22-.224.342-.237.561,0,.482.517.991,1.01,1.5,1.5a.855.855,0,0,0,1.384.012,4.3,4.3,0,0,1,.428-.386.919.919,0,0,1,1.187.1.88.88,0,0,1,.078,1.145c-.138.195-.322.356-.477.539a.832.832,0,0,0-.012,1.176c.091.111.2.209.3.311,3.071,3.07,6.15,6.132,9.208,9.215a7.313,7.313,0,0,0,3.549,2.108c.085.02.2,0,.232.127h2.316c.015-.077.073-.084.138-.1A6.569,6.569,0,0,0,272.485-369.568Zm-31.016-4.878a1.3,1.3,0,0,0-.361,1.307,8.014,8.014,0,0,1-2.789,8.09,8.283,8.283,0,0,1-13.432-4.78,8.291,8.291,0,0,1,7.062-9.8,7.778,7.778,0,0,1,2.872.139,1.177,1.177,0,0,0,1.217-.353q9.15-9.172,18.325-18.32a1.285,1.285,0,0,0,.332-1.311,7.932,7.932,0,0,1,2.314-7.578,8.034,8.034,0,0,1,6.081-2.313c.017.2-.141.263-.234.356-1.246,1.256-2.481,2.524-3.756,3.75a1.235,1.235,0,0,0-.333,1.468c.5,1.421.971,2.851,1.434,4.284a1.289,1.289,0,0,0,.894.91q2.243.722,4.471,1.489a1.052,1.052,0,0,0,1.213-.3c1.241-1.261,2.5-2.506,3.75-3.757.112-.112.23-.22.424-.4a8.123,8.123,0,0,1-1.037,4.494,8.121,8.121,0,0,1-8.949,3.969,1.2,1.2,0,0,0-1.207.372Q250.624-383.579,241.469-374.446Zm20.973,9.769q-4.509-4.528-9.036-9.039a.321.321,0,0,1-.057-.484,2.527,2.527,0,0,0-.341-3.218,2.522,2.522,0,0,0-3.183-.322c-.191.118-.309.166-.483-.03-.288-.324-.6-.625-.919-.922-.153-.144-.145-.235,0-.383q3.352-3.333,6.689-6.68c.167-.168.268-.18.412.006a1.946,1.946,0,0,0,.306.307,1.116,1.116,0,0,1,.406,1.62,2.5,2.5,0,0,0,2.451,3.406,2.3,2.3,0,0,0,1.326-.438c.208-.155.312-.1.471.055q4.51,4.528,9.033,9.042c.232.232.241.359,0,.6q-3.256,3.223-6.48,6.479C262.8-364.434,262.669-364.449,262.442-364.677Zm7.012.041a4.929,4.929,0,0,1-5.1,1.111l6.313-6.307A4.908,4.908,0,0,1,269.453-364.637Z" transform="translate(-0.918 0)" fill="#12263f"/>
    <path id="Trazado_197632" data-name="Trazado 197632" d="M381.437-11.439a7.313,7.313,0,0,1-3.549-2.108c-3.057-3.083-6.137-6.145-9.208-9.215-.1-.1-.211-.2-.3-.311a.832.832,0,0,1,.012-1.176c.156-.183.339-.345.477-.539a.88.88,0,0,0-.078-1.145.919.919,0,0,0-1.187-.1,4.305,4.305,0,0,0-.428.386.855.855,0,0,1-1.384-.011c-.508-.493-1.017-.986-1.5-1.5-.219-.235-.341-.221-.561,0q-1.877,1.91-3.786,3.788a.617.617,0,0,0-.2.634,7.781,7.781,0,0,1,.085,2.593,9.772,9.772,0,0,1-6.53,8.276,14.464,14.464,0,0,1-2,.5,8.861,8.861,0,0,0,6.294-3.322,9.665,9.665,0,0,0,2.292-7.9.773.773,0,0,1,.2-.709q1.844-1.837,3.681-3.682c.2-.2.365-.215.568-.005.346.359.7.706,1.055,1.058.964.964,1.1.971,2.148.111.05-.041-.014.008.036-.031a.825.825,0,0,1,1.1,0,.8.8,0,0,1,.043,1.057,2.427,2.427,0,0,1-.214.26c-.646.719-.639,1.075.043,1.757,3.1,3.1,6.215,6.194,9.3,9.313a6.613,6.613,0,0,0,3.821,2.142C381.639-11.44,381.521-11.42,381.437-11.439Z" transform="translate(-117.847 -350.281)" fill="#12263f"/>
    <path id="Trazado_197634" data-name="Trazado 197634" d="M231.255,60.5a9.887,9.887,0,0,1-8.4-9.065l-.034,0a5.74,5.74,0,0,0,.089,1.28,9.715,9.715,0,0,0,4.344,6.389,8.556,8.556,0,0,0,4.3,1.491C231.486,60.479,231.36,60.518,231.255,60.5Z" transform="translate(-0.549 -422.195)" fill="#12263f"/>
    <path id="Trazado_197635" data-name="Trazado 197635" d="M222.353,37.029c0-.023,0-.047,0-.07a10.944,10.944,0,0,1,.03-1.258.084.084,0,0,0-.08.006v1.351C222.322,37.033,222.338,37.024,222.353,37.029Z" transform="translate(-0.08 -407.821)" fill="#12263f"/>
    <path id="Trazado_197636" data-name="Trazado 197636" d="M222.838,37.035c0,.023,0,.047,0,.07a.06.06,0,0,1,.033.035l0-1.363A10.95,10.95,0,0,0,222.838,37.035Z" transform="translate(-0.563 -407.898)" fill="#12263f"/>
    <path id="Trazado_197637" data-name="Trazado 197637" d="M222.352,51.059c0-.013,0-.025,0-.038-.015,0-.031,0-.048.03l.04.009Z" transform="translate(-0.08 -421.814)" fill="#12263f"/>
    <path id="Trazado_197638" data-name="Trazado 197638" d="M222.85,51.032c0,.013,0,.025,0,.038l.034,0A.06.06,0,0,0,222.85,51.032Z" transform="translate(-0.576 -421.825)" fill="#12263f"/>
    <path id="Trazado_197639" data-name="Trazado 197639" d="M223.254-406.081q1.576,2.757,3.153,5.514a1.149,1.149,0,0,0,.785.575c.827.2,1.645.432,2.474.618a1.43,1.43,0,0,1,.732.42q4.7,4.715,9.414,9.42c.261.261.523.7.8.714.321.017.531-.49.831-.72.315-.242.3-.4.012-.695-3.163-3.138-6.326-6.277-9.448-9.455a4.234,4.234,0,0,0-2.522-1.434,13.812,13.812,0,0,1-1.448-.35.638.638,0,0,1-.445-.323q-1.253-2.222-2.527-4.431a.306.306,0,0,1,.063-.448q1.018-.995,2.011-2.015c.157-.162.272-.146.449-.044q2.209,1.275,4.43,2.53a.611.611,0,0,1,.311.446c.184.781.395,1.555.58,2.335a1.908,1.908,0,0,0,.539.941q4.82,4.8,9.627,9.617c.272.272.545.737.833.75.33.015.554-.514.869-.75.341-.256.212-.422-.026-.659q-4.053-4.034-8.09-8.083a11.681,11.681,0,0,1-2.059-2.149,10.994,10.994,0,0,1-.767-2.816,1.222,1.222,0,0,0-.6-.829q-2.763-1.566-5.516-3.149a.879.879,0,0,0-1.176.148q-1.571,1.568-3.138,3.14a.838.838,0,0,0-.3.67A.912.912,0,0,0,223.254-406.081Z" transform="translate(-0.809 -0.284)" fill="#12263f"/>
    <path id="Trazado_197640" data-name="Trazado 197640" d="M279.28-12.916a.937.937,0,0,0-.867-.5q-2.388,0-4.775,0a.908.908,0,0,0-.83.481q-1.183,1.984-2.375,3.962a.888.888,0,0,0,0,1Q271.627-6,272.81-4.016a.934.934,0,0,0,.875.487c.788-.008,1.576,0,2.363,0,.772,0,1.544-.008,2.315,0a.963.963,0,0,0,.912-.509q1.159-1.942,2.332-3.876a.994.994,0,0,0,0-1.128Q280.437-10.973,279.28-12.916Zm.6,4.683c-.568.929-1.135,1.859-1.681,2.8a.478.478,0,0,1-.5.26c-.562-.013-1.124,0-1.686,0s-1.124-.011-1.686.005a.445.445,0,0,1-.452-.261q-.813-1.389-1.658-2.759a.464.464,0,0,1-.009-.562q.845-1.37,1.659-2.759a.463.463,0,0,1,.46-.26q1.71.016,3.42,0a.461.461,0,0,1,.458.261q.827,1.409,1.682,2.8A.394.394,0,0,1,279.883-8.234Z" transform="translate(-43.879 -362.986)" fill="#12263f"/>
    <path id="Trazado_197641" data-name="Trazado 197641" d="M416.361-235.312c-.088-.11-.133-.175-.187-.23a8.44,8.44,0,0,1-.607-.619c-.262-.33-.439-.333-.756-.015q-8.4,8.44-16.833,16.854c-.294.294-.8.588-.81.9-.017.364.551.606.814.945.207.267.329.161.511-.025.81-.826,1.633-1.64,2.451-2.458q7.535-7.536,15.071-15.07A4.346,4.346,0,0,1,416.361-235.312Z" transform="translate(-159.718 -159.406)" fill="#12263f"/>
    <path id="Trazado_197642" data-name="Trazado 197642" d="M607.009-27.649c-.3-.3-.644-.853-.885-.812-.365.063-.651.553-.982.848-.167.149-.184.248-.013.419q3.929,3.913,7.844,7.841c.135.136.225.192.38.021.259-.285.541-.549.813-.823.051-.052.1-.109.205-.231a3.293,3.293,0,0,1-.371-.276Q610.5-24.153,607.009-27.649Z" transform="translate(-349.464 -349.251)" fill="#12263f"/>
  </g>
</svg>
