<svg xmlns="http://www.w3.org/2000/svg" xmlns:xlink="http://www.w3.org/1999/xlink" width="820" height="232" viewBox="0 0 820 232">
  <defs>
    <linearGradient id="linear-gradient" x1="0.317" y1="0.321" x2="0.831" y2="0.824" gradientUnits="objectBoundingBox">
      <stop offset="0" stop-color="#fff"/>
      <stop offset="0.231" stop-color="#f7f7f6"/>
      <stop offset="0.589" stop-color="#e1e1e1"/>
      <stop offset="1" stop-color="#c1c1c0"/>
    </linearGradient>
    <linearGradient id="linear-gradient-2" x1="0.495" y1="0.493" x2="0.182" y2="0.091" gradientUnits="objectBoundingBox">
      <stop offset="0" stop-color="#fff"/>
      <stop offset="0.38" stop-color="#f7f7f7"/>
      <stop offset="0.968" stop-color="#e1e2e4"/>
      <stop offset="0.994" stop-color="#e0e1e3"/>
    </linearGradient>
    <linearGradient id="linear-gradient-3" x1="0.317" y1="0.753" x2="0.831" y2="1.256" xlink:href="#linear-gradient"/>
    <linearGradient id="linear-gradient-4" x1="0.495" y1="0.947" x2="0.182" y2="0.545" xlink:href="#linear-gradient-2"/>
  </defs>
  <g id="Grupo_1079625" data-name="Grupo 1079625" transform="translate(-390 -4996)">
    <g id="Grupo_1079624" data-name="Grupo 1079624">
      <path id="Trazado_829285" data-name="Trazado 829285" d="M47,0H773a47,47,0,0,1,47,47V185a47,47,0,0,1-47,47H47A47,47,0,0,1,0,185V47A47,47,0,0,1,47,0Z" transform="translate(390 4996)" fill="#083142"/>
    </g>
    <path id="Trazado_827274" data-name="Trazado 827274" d="M81.979,0A81.979,81.979,0,1,1,0,81.979,81.979,81.979,0,0,1,81.979,0Z" transform="translate(390 5111.969) rotate(-45)" fill="#2efec7"/>
    <g id="Grupo_149826" data-name="Grupo 149826" transform="translate(413.187 5019.221)">
      <g id="Grupo_149802" data-name="Grupo 149802" transform="translate(0 0)">
        <circle id="Elipse_4995" data-name="Elipse 4995" cx="65.583" cy="65.583" r="65.583" transform="translate(0 92.748) rotate(-45)" fill="url(#linear-gradient)"/>
        <circle id="Elipse_4996" data-name="Elipse 4996" cx="62.304" cy="62.304" r="62.304" transform="translate(4.637 92.748) rotate(-45)" fill="url(#linear-gradient-2)"/>
      </g>
    </g>
    <path id="Trazado_829286" data-name="Trazado 829286" d="M8.148-.349a6.464,6.464,0,0,1-2.8.52A4.724,4.724,0,0,1,1.8-1.155,4.848,4.848,0,0,1,.506-4.689,5.179,5.179,0,0,1,1.958-8.5a5.081,5.081,0,0,1,3.77-1.463,7.05,7.05,0,0,1,2.42.362v2.126a4.288,4.288,0,0,0-2.242-.588A2.974,2.974,0,0,0,3.678-7.2,3.221,3.221,0,0,0,2.83-4.847a3.16,3.16,0,0,0,.8,2.266,2.826,2.826,0,0,0,2.153.844,4.593,4.593,0,0,0,2.365-.629ZM11.806,0H9.646V-10.363h2.16Zm2.912-8.107a1.262,1.262,0,0,1-.9-.325,1.046,1.046,0,0,1-.349-.8,1.009,1.009,0,0,1,.349-.793,1.3,1.3,0,0,1,.9-.308,1.3,1.3,0,0,1,.9.308,1.013,1.013,0,0,1,.345.793,1.042,1.042,0,0,1-.345.807A1.283,1.283,0,0,1,14.718-8.107ZM15.784,0h-2.16V-7h2.16Zm8.107-2.885H19.325q.109,1.524,1.921,1.524a3.75,3.75,0,0,0,2.03-.547V-.349a5.334,5.334,0,0,1-2.522.52,3.551,3.551,0,0,1-2.632-.94,3.551,3.551,0,0,1-.937-2.622A3.746,3.746,0,0,1,18.2-6.152a3.371,3.371,0,0,1,2.488-1.019,3.059,3.059,0,0,1,2.369.909,3.5,3.5,0,0,1,.837,2.468Zm-2-1.326q0-1.5-1.217-1.5a1.162,1.162,0,0,0-.9.431,1.955,1.955,0,0,0-.461,1.073ZM31.938,0H29.784V-3.89q0-1.627-1.162-1.627a1.153,1.153,0,0,0-.923.431,1.641,1.641,0,0,0-.362,1.094V0h-2.16V-7h2.16v1.107h.027a2.475,2.475,0,0,1,2.249-1.278q2.324,0,2.324,2.885Zm5.94-.082a3.193,3.193,0,0,1-1.442.253q-2.283,0-2.283-2.372V-5.407H33.018V-7h1.135V-8.511l2.153-.615V-7h1.572v1.593H36.306v2.83q0,1.094.868,1.094a1.464,1.464,0,0,0,.7-.2Zm7.451-2.8H40.763q.109,1.524,1.921,1.524a3.75,3.75,0,0,0,2.03-.547V-.349a5.334,5.334,0,0,1-2.522.52,3.551,3.551,0,0,1-2.632-.94,3.551,3.551,0,0,1-.937-2.622,3.746,3.746,0,0,1,1.012-2.762,3.371,3.371,0,0,1,2.488-1.019,3.059,3.059,0,0,1,2.369.909,3.5,3.5,0,0,1,.837,2.468Zm-2-1.326q0-1.5-1.217-1.5a1.162,1.162,0,0,0-.9.431,1.955,1.955,0,0,0-.461,1.073Z" transform="translate(480.755 5152.348)" fill="#12263f"/>
    <path id="Trazado_824460" data-name="Trazado 824460" d="M81.979,0A81.979,81.979,0,1,1,0,81.979,81.979,81.979,0,0,1,81.979,0Z" transform="translate(586.044 5111.97) rotate(-45)" fill="#2efec7"/>
    <g id="Grupo_149829" data-name="Grupo 149829" transform="translate(609.23 5019.221)">
      <g id="Grupo_149805" data-name="Grupo 149805" transform="translate(0 0)">
        <circle id="Elipse_4997" data-name="Elipse 4997" cx="65.583" cy="65.583" r="65.583" transform="translate(0 92.748) rotate(-45)" fill="url(#linear-gradient-3)"/>
        <circle id="Elipse_4998" data-name="Elipse 4998" cx="62.304" cy="62.304" r="62.304" transform="translate(4.637 92.748) rotate(-45)" fill="url(#linear-gradient-4)"/>
      </g>
      <text id="Proveedor" transform="translate(58.27 133.127)" fill="#12263f" font-size="14" font-family="SegoeUI-Bold, Segoe UI" font-weight="700"><tspan x="0" y="0">Proveedor</tspan></text>
      <g id="Grupo_1078499" data-name="Grupo 1078499" transform="translate(-629.737 67.28)">
        <path id="Trazado_208068" data-name="Trazado 208068" d="M836.318,239.724a3.366,3.366,0,0,0-3.591-3.562q-8.771-.005-17.542,0a3.366,3.366,0,0,0-3.59,3.563q-.012,5.416,0,10.832a3.4,3.4,0,0,0,3.567,3.6c1.292.009,2.584,0,3.876.005.176,0,.439-.1.431.249a4.807,4.807,0,0,1-.1,1.869c-.174.351-.955.072-1.463.117a1.343,1.343,0,0,1-.272,0c-.328-.038-.428.109-.431.43a9.726,9.726,0,0,1-.049,1.829h13.6a5.836,5.836,0,0,1-.043-1.624c.026-.511-.124-.686-.642-.644s-1.218.193-1.511-.069c-.349-.312-.057-1.03-.121-1.565-.055-.46.074-.623.572-.607,1.245.04,2.493.02,3.739.011a3.4,3.4,0,0,0,3.567-3.6Q836.329,245.14,836.318,239.724Zm-22.456.051c0-.974.387-1.384,1.349-1.386q8.738-.012,17.476,0c.97,0,1.362.4,1.364,1.371.007,2.362-.011,4.724.014,7.085,0,.468-.158.555-.581.553-3.2-.015-6.392-.008-9.588-.008-3.128,0-6.256-.014-9.384.013-.546,0-.671-.154-.665-.679C813.876,244.409,813.856,242.092,813.862,239.776ZM826.2,255.986c.07.331-.138.422-.444.414-.611-.015-1.224,0-1.836,0a12.765,12.765,0,0,0-1.494.011c-.635.075-.748-.195-.735-.766.033-1.481.008-1.482,1.484-1.482h2.38c.136,0,.325-.056.4.012C826.528,254.7,826.073,255.383,826.2,255.986Zm6.245-4.085q-8.491,0-16.981,0c-1.346,0-1.895-.7-1.608-2,.09-.412.392-.229.592-.23,3.192-.013,6.385-.009,9.577-.009,3.147,0,6.294.01,9.441-.011.47,0,.608.111.6.594C834.042,251.59,833.769,251.9,832.446,251.9Z" transform="translate(-101.065 -212.81)" fill="#083142"/>
        <path id="Trazado_208069" data-name="Trazado 208069" d="M698.152,132.539a3.307,3.307,0,0,0,3.388-3.405q.021-6.708,0-13.415a3.291,3.291,0,0,0-3.322-3.4c-2.288-.031-4.576-.009-6.864,0a3.244,3.244,0,0,0-2.161.851,4.294,4.294,0,0,0-1.12,1.9v14.718c.867,2.193,1.707,2.759,4.1,2.759C694.165,132.546,696.159,132.565,698.152,132.539Zm-6.144-18c1.949,0,3.9,0,5.848,0a1.469,1.469,0,0,1,1.455,2.048c-.107.324-.358.222-.561.223-1.292.009-2.584,0-3.876,0-1.337,0-2.675-.014-4.012.009-.418.007-.537-.131-.543-.543C690.3,114.887,690.615,114.541,692.008,114.54Zm-1.139,4.49c1.335.021,2.67.008,4.006.008,1.313,0,2.625.012,3.938-.008.378-.006.512.1.509.494q-.024,2.891,0,5.782c0,.361-.074.522-.483.519q-4.006-.025-8.012,0c-.377,0-.513-.1-.509-.494.017-1.927.02-3.855,0-5.782C690.309,119.111,690.474,119.024,690.869,119.03Zm-.539,9.269c.087-.341.327-.256.532-.257,1.337-.007,2.674,0,4.012,0,1.292,0,2.584.018,3.875-.01.45-.01.578.134.579.578,0,1.331-.345,1.708-1.677,1.709q-2.889,0-5.779,0A1.447,1.447,0,0,1,690.329,128.3Z" transform="translate(0 -111.467)" fill="#083142"/>
        <path id="Trazado_208070" data-name="Trazado 208070" d="M830.755-3.646q8.393-.026,16.787,0c.476,0,.6-.123.6-.6q-.026-9.84-.015-19.679H830.172q0,9.84-.015,19.679C830.156-3.77,830.28-3.645,830.755-3.646ZM832.4-13.773c0-2.43.011-4.86-.01-7.29,0-.463.11-.621.6-.619q6.154.028,12.308,0c.486,0,.6.151.6.617q-.022,7.29,0,14.58c0,.443-.113.57-.565.568q-6.188-.027-12.376,0c-.448,0-.572-.119-.568-.566C832.415-8.912,832.4-11.342,832.4-13.773Z" transform="translate(-116.258)" fill="#083142"/>
        <path id="Trazado_208071" data-name="Trazado 208071" d="M787.243,108.89a6.743,6.743,0,0,0,.531,13.475c3.67.019,7.34,0,11.01,0q5.4,0,10.806,0a8.982,8.982,0,0,0,1.557-.089,6.744,6.744,0,0,0-.738-13.383c-.472-.029-.632-.161-.748-.619a11.215,11.215,0,0,0-21.722.021C787.834,108.718,787.694,108.864,787.243,108.89Zm6.939,5.5a6.53,6.53,0,0,0-3.634-4.8c-.424-.215-.543-.4-.422-.862a8.982,8.982,0,0,1,17.527.948,12.872,12.872,0,0,1,.143,1.283c.017.428.173.553.59.434a5.223,5.223,0,0,1,2.616-.16,4.5,4.5,0,0,1-1,8.9c-3.739.026-7.478.007-11.217.007-3.671,0-7.342.009-11.013,0a4.507,4.507,0,0,1-.79-8.969,4.449,4.449,0,0,1,5.01,3.813c.059.57.249.757.782.665a2.013,2.013,0,0,1,.339,0C794.4,115.641,794.423,115.637,794.182,114.387Z" transform="translate(-75.912 -101.29)" fill="#083142"/>
        <path id="Trazado_208072" data-name="Trazado 208072" d="M1010.518,128a3.352,3.352,0,0,0-3.366-3.445q-3.362-.047-6.724,0a3.348,3.348,0,0,0-3.376,3.43c-.013,1.474,0,2.949,0,4.423q0,2.144,0,4.287c0,.045,0,.091,0,.136a3.37,3.37,0,0,0,3.464,3.485c2.2.019,4.393.023,6.588,0a3.367,3.367,0,0,0,3.416-3.467Q1010.535,132.422,1010.518,128Zm-3.911,10.054c-.949-.049-1.9-.009-2.853-.009-1.064,0-2.129.009-3.193,0a1.479,1.479,0,0,1-1.269-2.062c.092-.2.255-.155.4-.155,2.718,0,5.435,0,8.153-.008.32,0,.422.092.431.421C1008.312,137.379,1008.182,138.135,1006.607,138.053Zm0-4.506h-2.849c-1.311,0-2.623-.013-3.934.008-.394.006-.548-.075-.554-.517-.024-1.721-.042-1.721,1.651-1.721,2.261,0,4.522.009,6.783-.008.421,0,.58.085.581.551C1008.289,133.547,1008.308,133.547,1006.606,133.547Zm1.649-4.649c-.112.228-.312.138-.474.139-1.336.008-2.673,0-4.009,0-1.314,0-2.628-.011-3.941.007-.38.005-.561-.047-.564-.5-.008-1.381.3-1.724,1.7-1.724,2.016,0,4.032-.008,6.048,0A1.464,1.464,0,0,1,1008.256,128.9Z" transform="translate(-252.812 -121.471)" fill="#083142"/>
        <path id="Trazado_208073" data-name="Trazado 208073" d="M707.94,5.222a.99.99,0,0,0,.815.82,1.082,1.082,0,0,0,1.151-.4,4.891,4.891,0,0,0,.366-.572A32.766,32.766,0,0,1,724.97-8c.5-.229,1.3-.246,1.414-.745.106-.46-.359-1.035-.514-1.576-.121-.425-.318-.361-.631-.233a35.047,35.047,0,0,0-10.751,6.872,36.857,36.857,0,0,0-4.78,5.48c-.166-1.183-.306-2.216-.457-3.247-.075-.515,0-1.207-.3-1.494-.35-.333-1.007.047-1.534.089-.09.007-.181.023-.271.023-.264,0-.358.119-.32.384C707.2.105,707.552,2.666,707.94,5.222Z" transform="translate(-15.337 -10.858)" fill="#083142"/>
        <path id="Trazado_208074" data-name="Trazado 208074" d="M963.174,255.586a1.073,1.073,0,0,0-.9-.977,1.057,1.057,0,0,0-1.165.5c-.125.189-.241.384-.359.577a32.744,32.744,0,0,1-14.68,13c-.482.22-1.252.243-1.371.706-.111.432.341.991.486,1.511.125.448.311.457.7.3a34.819,34.819,0,0,0,8.53-4.976,35.645,35.645,0,0,0,6.949-7.352c.165,1.129.326,2.11.448,3.1.234,1.894.224,1.886,2.114,1.54.308-.056.363-.175.323-.449C963.889,260.57,963.539,258.077,963.174,255.586Z" transform="translate(-209.964 -227.884)" fill="#083142"/>
        <path id="Trazado_208075" data-name="Trazado 208075" d="M966.6-1.9c.132.087.272.163.407.245a32.787,32.787,0,0,1,13.129,14.834c.212.47.263,1.23.661,1.341.427.119.994-.309,1.511-.459.445-.129.511-.294.325-.752A35.119,35.119,0,0,0,974.8,1.571a37.892,37.892,0,0,0-4.465-3.756c1.208-.169,2.261-.322,3.315-.462,1.554-.206,1.554-.2,1.331-1.778a1.018,1.018,0,0,1-.02-.2c.027-.41-.158-.48-.538-.423-2.441.364-4.884.706-7.327,1.056a1.088,1.088,0,0,0-1.007.867A1.075,1.075,0,0,0,966.6-1.9Z" transform="translate(-227.454 -15.429)" fill="#083142"/>
        <path id="Trazado_208076" data-name="Trazado 208076" d="M717.517,249.645c-.152-.1-.308-.19-.463-.284a32.789,32.789,0,0,1-13.041-14.736c-.222-.486-.262-1.279-.694-1.387-.452-.113-1.031.347-1.57.5-.428.123-.408.309-.263.667a35.072,35.072,0,0,0,8.55,12.453,42.041,42.041,0,0,0,3.745,3.073c-1.343.2-2.565.376-3.786.561-1.087.164-1.086.167-.928,1.237.164,1.111.164,1.112,1.264.977.337-.042.673-.091,1.01-.139,1.9-.272,3.81-.542,5.714-.821a1.133,1.133,0,0,0,.463-2.1Z" transform="translate(-10.899 -210.404)" fill="#083142"/>
        <path id="Trazado_208077" data-name="Trazado 208077" d="M940.027,16.268A28.054,28.054,0,0,1,954.418,30.7c.228.5.245,1.3.731,1.433.451.12,1.039-.332,1.58-.479.415-.112.384-.3.253-.627A30.355,30.355,0,0,0,940.89,14.175c-.123-.056-.248-.108-.364-.159-.244-.046-.248.15-.305.283-.169.395-.305.807-.508,1.183C939.483,15.907,939.6,16.073,940.027,16.268Z" transform="translate(-205.805 -31.039)" fill="#083142"/>
        <path id="Trazado_208078" data-name="Trazado 208078" d="M734.128,21.242a29.406,29.406,0,0,0-5.312,7.67c-.071.149-.36.354-.1.5.568.32,1.175.573,1.745.844.173,0,.189-.013.393-.424a28,28,0,0,1,12.914-12.911c.475-.238,1.241-.284,1.355-.745.106-.43-.34-.986-.506-1.5-.137-.421-.308-.47-.724-.287A30.24,30.24,0,0,0,734.128,21.242Z" transform="translate(-33.17 -31.27)" fill="#083142"/>
        <path id="Trazado_208079" data-name="Trazado 208079" d="M957.31,236.617c-.19.184.011.331.092.474.293.517.6,1.026.9,1.539.214-.127.351-.205.486-.288a30.365,30.365,0,0,0,12.149-13.906c.7-1.6.7-1.572-.906-2.187-.456-.175-.612-.075-.78.351a27.914,27.914,0,0,1-11.541,13.76A2.248,2.248,0,0,0,957.31,236.617Z" transform="translate(-220.234 -201.36)" fill="#083142"/>
        <path id="Trazado_208080" data-name="Trazado 208080" d="M741.823,245.876a24.183,24.183,0,0,1-4.091-3.015,27.937,27.937,0,0,1-6.491-8.547c-.088-.178-.1-.459-.394-.476-.479.227-.937.479-1.421.662-.415.157-.44.327-.248.717a30.243,30.243,0,0,0,10.992,12.3c1.078.692,1.077.693,1.734-.439a1.638,1.638,0,0,1,.14-.232C742.4,246.422,742.32,246.161,741.823,245.876Z" transform="translate(-33.538 -210.91)" fill="#083142"/>
        <path id="Trazado_208081" data-name="Trazado 208081" d="M863.863,26.022c0-.383-.1-.493-.488-.491q-4.01.025-8.021,0c-.388,0-.49.111-.486.492.018,1.929.025,3.859,0,5.789-.007.464.182.507.559.5,1.314-.018,2.628-.007,3.942-.007s2.628-.011,3.942.007c.379.005.564-.042.558-.5C863.839,29.881,863.845,27.951,863.863,26.022Zm-3.87,4.017h-1.223c-1.849,0-1.841,0-1.665-1.843.028-.291.122-.395.409-.392q1.834.014,3.669,0c.318,0,.469.1.436.43a1.045,1.045,0,0,0,0,.136C861.662,30.039,861.662,30.039,859.994,30.039Z" transform="translate(-136.475 -40.466)" fill="#083142"/>
        <path id="Trazado_208082" data-name="Trazado 208082" d="M854.643,2.263c-.052.467.1.623.585.61,1.29-.035,2.581-.012,3.871-.012h2.853c1.688,0,1.668,0,1.687-1.678.005-.476-.113-.6-.592-.6-2.241.028-4.483.009-6.724.015-.538,0-1.244-.168-1.567.1C854.415.995,854.7,1.729,854.643,2.263Z" transform="translate(-136.247 -20.027)" fill="#083142"/>
      </g>
    </g>
    <path id="Trazado_829287" data-name="Trazado 829287" d="M81.979,0A81.979,81.979,0,1,1,0,81.979,81.979,81.979,0,0,1,81.979,0Z" transform="translate(782.087 5111.969) rotate(-45)" fill="#2efec7"/>
    <g id="Grupo_149832" data-name="Grupo 149832" transform="translate(805.273 5019.221)">
      <g id="Grupo_149809" data-name="Grupo 149809" transform="translate(0 0)">
        <circle id="Elipse_4999" data-name="Elipse 4999" cx="65.583" cy="65.583" r="65.583" transform="translate(0 92.748) rotate(-45)" fill="url(#linear-gradient)"/>
        <circle id="Elipse_5000" data-name="Elipse 5000" cx="62.304" cy="62.304" r="62.304" transform="translate(4.637 92.748) rotate(-45)" fill="url(#linear-gradient-2)"/>
      </g>
      <text id="Partner" transform="translate(68.495 134.127)" fill="#12263f" font-size="14" font-family="SegoeUI-Bold, Segoe UI" font-weight="700"><tspan x="0" y="0">Partner</tspan></text>
      <g id="Grupo_1078500" data-name="Grupo 1078500" transform="translate(-604.478 205.925)">
        <path id="Trazado_208061" data-name="Trazado 208061" d="M725.886-94.821c-.292-.373-1.05-.113-1.6-.116-.34,0-.426-.1-.436-.439-.051-1.7-.06-1.746,1.614-1.694a3.473,3.473,0,0,0,3.743-2.606v-9.863a5.145,5.145,0,0,0-.97-1.636,3.459,3.459,0,0,0-2.48-.927c-1.535,0-3.07-.018-4.6.011-.437.008-.537-.127-.525-.54.029-1.015-.035-2.034.026-3.046.038-.63-.2-.725-.754-.72-3.112.025-6.225,0-9.338.025-.543,0-.675-.146-.669-.681q.043-4.15,0-8.3c-.005-.523.1-.69.658-.683,2.529.033,5.058.015,7.587.015a10.7,10.7,0,0,0,10.945-9.142c.016-.088.029-.168.124-.2v-2.6a5.859,5.859,0,0,1-.311-1.353,10.724,10.724,0,0,0-11.269-8.093.739.739,0,0,1-.823-.485c-3.135-5.636-7.957-8.493-14.377-8.051-6.106.42-10.4,3.714-12.852,9.335-.17.39-.308.509-.747.386a6.176,6.176,0,0,0-2.061-.163c-.351.023-.433-.1-.427-.437.02-1.081-.006-2.163.015-3.244.007-.347-.075-.529-.449-.518a1.958,1.958,0,0,1-.382-.07,1.354,1.354,0,0,1-.937-2.3c.455-.554.357-.833-.118-1.278-1.151-1.079-2.263-2.2-3.349-3.348-.339-.358-.553-.341-.881-.042a1.662,1.662,0,0,1-.84.46c-.916.153-1.587-.4-1.689-1.5-.044-.468-.173-.61-.654-.6-1.686.033-3.374.024-5.061,0-.386,0-.615.066-.588.5a1.146,1.146,0,0,1-.05.254,1.383,1.383,0,0,1-2.368.966c-.464-.37-.711-.378-1.13.069-1.108,1.183-2.27,2.317-3.435,3.446-.3.289-.364.466-.085.828.984,1.273.577,2.326-1,2.562-.506.076-.6.267-.589.725.026,1.665.021,3.33,0,5,0,.386.055.586.507.6a1.466,1.466,0,0,1,1.105,2.577c-.317.311-.273.519.046.825,1.169,1.125,2.324,2.264,3.438,3.443.4.427.682.524,1.125.086a1.3,1.3,0,0,1,1.434-.33,1.246,1.246,0,0,1,.917,1.2c.013,2.1,0,4.191,0,6.389a6.544,6.544,0,0,0-2.6-1.171,3.629,3.629,0,0,0-2.222.179,2.759,2.759,0,0,0-1.312,3.732,19.135,19.135,0,0,1,1.791,6.449c.087,1.016.068,2.032.053,3.047a7.488,7.488,0,0,0,3.337,6.646,2.05,2.05,0,0,1,.978,1.952c-.047,5.493-.026,10.986-.028,16.479h15.055c-.01-1.015-.029-2.03-.03-3.045,0-4.432.034-8.864-.029-13.295a2.232,2.232,0,0,1,1.076-2.166,7.166,7.166,0,0,0,3.064-4.634,8.629,8.629,0,0,0,.176-1.8c0-2.573.01-5.145-.012-7.718,0-.439.086-.577.554-.575q8.042.027,16.085,0c.434,0,.53.126.527.54q-.027,4.28,0,8.56c0,.476-.154.557-.585.555-3.178-.017-6.356,0-9.534-.022-.515,0-.663.132-.641.644.041.993-.018,1.99.024,2.982.022.516-.083.7-.651.684-1.469-.047-2.94-.023-4.41-.014a3.264,3.264,0,0,0-3.523,3.514q-.006,4.021,0,8.042a3.251,3.251,0,0,0,3.436,3.464c.5,0,1,.017,1.491-.005.32-.015.438.061.448.417.048,1.7.061,1.712-1.623,1.712-.425,0-.566.11-.535.54.039.538.01,1.08.01,1.621h12.849c0-.13.006-.259,0-.389-.009-.561.189-1.287-.088-1.637-.292-.368-1.051-.109-1.606-.115-.328,0-.437-.088-.45-.435-.062-1.707-.074-1.706,1.616-1.707,2.5,0,3.756-1.25,3.756-3.727q0-3.858,0-7.716a3.281,3.281,0,0,0-3.589-3.577c-1.491-.005-2.983-.012-4.474.007-.369,0-.519-.051-.522-.48-.008-1.646-.027-1.646,1.615-1.646,5.685,0,11.37.007,17.054-.012.511,0,.64.132.63.635-.03,1.5-.008,1.5-1.512,1.5-1.211,0-2.421-.011-3.631,0a3.248,3.248,0,0,0-3.443,3.462q-.014,4.053,0,8.105a3.245,3.245,0,0,0,3.447,3.452c.5,0,1,.018,1.491-.006.328-.015.437.077.448.427.053,1.681.065,1.694-1.639,1.7-.415,0-.574.1-.542.539.039.537,0,1.08,0,1.62h12.848c.006-.129.02-.258.018-.387C725.968-93.745,726.162-94.468,725.886-94.821Zm-27.219-.13c-.734,0-1.468-.014-2.2.006-.338.009-.487-.054-.5-.448-.045-1.687-.06-1.687,1.639-1.687h.518c.583,0,1.166.016,1.748-.006.319-.013.384.108.4.407C700.347-94.951,700.356-94.951,698.667-94.951Zm5.414-4.281q-5.96,0-11.919,0c-1.284,0-1.8-.661-1.535-1.909.077-.359.325-.219.5-.22,2.332-.01,4.664-.007,7-.007,2.31,0,4.621.012,6.931-.011.45,0,.579.108.571.566C705.6-99.529,705.342-99.232,704.081-99.232Zm.279-10.7c.88,0,1.246.375,1.251,1.272.008,1.535-.012,3.07.012,4.6.007.423-.114.545-.539.542-2.335-.02-4.67-.009-7.005-.009-2.292,0-4.584-.012-6.875.01-.443,0-.592-.1-.583-.565.03-1.535.005-3.07.014-4.6,0-.885.376-1.249,1.272-1.25Q698.134-109.942,704.361-109.936ZM671.269-139.7a3.839,3.839,0,0,0-2.342-.074.455.455,0,0,1-.514-.164,6.247,6.247,0,0,0-.551-.55,2.09,2.09,0,0,1-.9-2.219,3.06,3.06,0,0,0-1.625-3.153.766.766,0,0,1-.438-.827,2.581,2.581,0,0,0,0-.518,2.2,2.2,0,0,1,.943-2.278,3.03,3.03,0,0,0,1.053-3.382.693.693,0,0,1,.241-.833,3.532,3.532,0,0,0,.46-.456,2.017,2.017,0,0,1,2.16-.881,3.035,3.035,0,0,0,3.167-1.592.808.808,0,0,1,.876-.466,2.741,2.741,0,0,0,.583,0,2.074,2.074,0,0,1,2.164.914,3.032,3.032,0,0,0,3.371,1.085.723.723,0,0,1,.893.255,1.969,1.969,0,0,0,.365.368,2.153,2.153,0,0,1,.955,2.273,3.086,3.086,0,0,0,1.675,3.189.621.621,0,0,1,.377.656,4.381,4.381,0,0,0,0,.777,2.009,2.009,0,0,1-.9,2.1,3.07,3.07,0,0,0-1.1,3.428.718.718,0,0,1-.254.842,3.208,3.208,0,0,0-.414.411c-.588.674-1.162,1.289-2.22.9a2.662,2.662,0,0,0-1.478.183,1.074,1.074,0,0,1,.577-1.371,7.4,7.4,0,0,0,3.28-8.691,7.561,7.561,0,0,0-7.693-5.166,7.535,7.535,0,0,0-6.748,5.8,7.372,7.372,0,0,0,3.392,8.031A1.088,1.088,0,0,1,671.269-139.7Zm3.178-6.685c-1.626.046-2.694,1.084-3.175,3.087a5.247,5.247,0,0,1-1.869-5.689,5.363,5.363,0,0,1,5.071-3.813,5.322,5.322,0,0,1,5.194,3.808,5.2,5.2,0,0,1-1.839,5.692C677.129-145.515,676.123-146.432,674.447-146.384Zm9.274,51.438c-1.642-.006-3.284,0-4.926,0-1.577,0-3.155-.014-4.732.009-.431.006-.6-.083-.593-.559q.036-3.726,0-7.453c0-.447.117-.649.575-.575.021,0,.044,0,.065,0a3.06,3.06,0,0,0,3.291-1.333c.256-.385.51-.3.74.026a3.129,3.129,0,0,0,3.236,1.324,23.31,23.31,0,0,1,2.4-.023c.306-.006.413.089.412.4-.01,2.593-.015,5.185,0,7.778C684.194-94.958,684.011-94.945,683.721-94.946Zm.469-11.161c.008.37-.108.474-.471.466-.992-.023-1.986-.018-2.979,0a.843.843,0,0,1-.674-.288c-.661-.681-1.348-1.338-2.005-2.024-.224-.234-.36-.259-.6-.008-.638.674-1.306,1.319-1.963,1.975a2.921,2.921,0,0,1-1.879.331c-.191-.087-.135-.251-.136-.39-.005-1.166.012-2.332-.012-3.5-.008-.388.182-.4.474-.4,1.641.008,3.281,0,4.922,0,1.6,0,3.2.016,4.792-.011.432-.007.541.123.53.539C684.164-108.309,684.167-107.208,684.19-106.107Zm2.059-6.966a4.06,4.06,0,0,1-2.87,1c-3.35-.075-6.7-.033-10.055-.019a1.741,1.741,0,0,1-1.065-.358,6.309,6.309,0,0,1-2.93-3.8,6.6,6.6,0,0,1-.135-1.611,21.465,21.465,0,0,0-2.027-10.317c-.314-.638.051-1.1.771-1.058a3.64,3.64,0,0,1,3.379,3.481c.022.843.02,1.687,0,2.53-.008.337.092.432.435.443,1.728.054,1.728.065,1.728-1.623q0-4.379,0-8.758,0-4.866,0-9.731c0-.858.337-1.29,1-1.323a1.033,1.033,0,0,1,1.117.938,5.718,5.718,0,0,1,.01.648c0,6.379.007,12.759-.012,19.138,0,.549.1.739.695.719,1.475-.049,1.476-.014,1.476-1.492,0-2.681-.008-5.363.005-8.044,0-.954.8-1.489,1.554-1.078a1.155,1.155,0,0,1,.572,1.146c-.009,2.919.013,5.839-.019,8.758-.006.57.129.727.707.709,1.468-.044,1.469-.013,1.469-1.5,0-2.314-.006-4.628,0-6.942,0-.868.552-1.365,1.294-1.189a1.069,1.069,0,0,1,.83,1.215c-.007,2.552.013,5.1-.015,7.655-.006.559.092.782.723.759,1.45-.053,1.452-.016,1.452-1.45,0-1.946,0-3.892,0-5.839,0-.859.393-1.315,1.089-1.3.669.017,1.03.459,1.031,1.293q0,6.26,0,12.521A5.568,5.568,0,0,1,686.249-113.074Zm18.964-15.1c-4.65,0-9.3-.008-13.951.011-.5,0-.668-.11-.645-.631a9.035,9.035,0,0,0-.056-2.07,3.152,3.152,0,0,0-4.268-2.426.589.589,0,0,1-.795-.217,3.065,3.065,0,0,0-3.533-.851c-.244.095-.411.209-.65-.093a3.039,3.039,0,0,0-3.176-1.126c-.3.06-.393.017-.371-.28a2.71,2.71,0,0,1,.146-1.207,1.411,1.411,0,0,1,2.263-.264c.4.317.621.332.991-.056,1.162-1.222,2.366-2.4,3.574-3.582.257-.251.281-.426.051-.69a2.164,2.164,0,0,1-.529-.878,1.319,1.319,0,0,1,1.091-1.673,11.866,11.866,0,0,1,3.041.068,5.159,5.159,0,0,1,3.869,3.034c.166.36.317.455.66.281a4.127,4.127,0,0,1,.486-.177c1.173-.417,1.175-.418.54-1.534a7.028,7.028,0,0,0-2.262-2.457c-.3-.194-.318-.373-.2-.685a12.883,12.883,0,0,1,12.947-8.159,12.55,12.55,0,0,1,11.049,8.246c.2.484.368.667.964.535a8.539,8.539,0,0,1,10.487,6.852,8.588,8.588,0,0,1-7.64,9.986c-.409.029-.821.042-1.231.042Q711.637-128.168,705.213-128.17Zm6.853,19.452c0-.836.391-1.216,1.241-1.217q6.261-.007,12.522,0c.814,0,1.21.371,1.22,1.177.019,1.6-.01,3.2.017,4.8.008.495-.278.432-.582.432q-3.471,0-6.942,0c-2.314,0-4.628-.01-6.942.009-.411,0-.555-.091-.547-.529C712.08-105.6,712.057-107.162,712.066-108.719Zm1.557,9.487c-1.312,0-1.78-.582-1.567-1.882.068-.412.35-.245.539-.246,2.333-.012,4.666-.008,7-.008,2.311,0,4.623.01,6.934-.009.416,0,.545.1.541.532-.013,1.311-.284,1.612-1.587,1.613Q719.553-99.23,713.623-99.232Zm6.479,4.28c-.754,0-1.508-.013-2.262.005-.338.008-.429-.112-.443-.446-.066-1.69-.076-1.689,1.572-1.689h.582c.582,0,1.164.015,1.745-.006.31-.011.39.1.4.4C721.785-94.951,721.794-94.951,720.1-94.951Z" transform="translate(0 0)" fill="#083142"/>
        <path id="Trazado_208062" data-name="Trazado 208062" d="M983.956-64.807c-.042.391.112.5.489.561a4.226,4.226,0,0,1,3.8,4.267,4.226,4.226,0,0,1-3.853,4.216c-.331.044-.463.148-.431.477.019.193,0,.389,0,.583a4.187,4.187,0,0,1,0,.583c-.068.48.148.572.584.53a6.488,6.488,0,0,0,5.859-6.34,6.473,6.473,0,0,0-5.7-6.474c-.488-.059-.858-.044-.743.627A3.567,3.567,0,0,1,983.956-64.807Z" transform="translate(-265.484 -76.73)" fill="#083142"/>
        <path id="Trazado_208063" data-name="Trazado 208063" d="M883.011-109.36c.235.419.272,1.114.714,1.206.415.087.914-.315,1.393-.427.508-.118.446-.345.291-.728a10.788,10.788,0,0,0-10.091-6.59,7.584,7.584,0,0,0-1.825.176,9.882,9.882,0,0,0-1.98.588c-.768.321-.77.313-.415,1.031a7.736,7.736,0,0,1,.334.7c.155.413.324.5.793.306A8.573,8.573,0,0,1,883.011-109.36Z" transform="translate(-172.029 -35.831)" fill="#083142"/>
        <path id="Trazado_208064" data-name="Trazado 208064" d="M931.879-41.715a3.214,3.214,0,0,0-3.359,3.124,3.211,3.211,0,0,0,3.138,3.282,3.215,3.215,0,0,0,3.3-3.124A3.228,3.228,0,0,0,931.879-41.715Zm-.137,4.275a1.058,1.058,0,0,1-1.056-1.065,1.047,1.047,0,0,1,1.047-1.072,1.064,1.064,0,0,1,1.061,1.064A1.064,1.064,0,0,1,931.742-37.44Z" transform="translate(-219.681 -97.155)" fill="#083142"/>
        <path id="Trazado_208065" data-name="Trazado 208065" d="M882.29-41.718a3.209,3.209,0,0,0-3.2,3.22,3.208,3.208,0,0,0,3.231,3.187,3.206,3.206,0,0,0,3.2-3.22A3.21,3.21,0,0,0,882.29-41.718Zm-.007,4.277a1.064,1.064,0,0,1-1.027-1.1,1.048,1.048,0,0,1,1.08-1.041,1.072,1.072,0,0,1,1.035,1.095A1.08,1.08,0,0,1,882.283-37.442Z" transform="translate(-178.826 -97.154)" fill="#083142"/>
        <path id="Trazado_208066" data-name="Trazado 208066" d="M833.043-41.717a3.206,3.206,0,0,0-3.362,3.115,3.2,3.2,0,0,0,3.122,3.29,3.191,3.191,0,0,0,3.294-3.115A3.2,3.2,0,0,0,833.043-41.717Zm-.134,4.275a1.061,1.061,0,0,1-1.07-1.055,1.05,1.05,0,0,1,1.04-1.083,1.082,1.082,0,0,1,1.083,1.052A1.1,1.1,0,0,1,832.91-37.442Z" transform="translate(-137.984 -97.153)" fill="#083142"/>
        <path id="Trazado_208067" data-name="Trazado 208067" d="M848.223-96.661a.965.965,0,0,0,.2-.142c.4-.49,1.018-.944,1.125-1.495.066-.339-.642-.83-1-1.252a1.2,1.2,0,0,1-.087-.095c-.137-.2-.25-.147-.4,0a10.822,10.822,0,0,0-1.346,1.555c-.064.093-.229.217-.094.317C847.131-97.39,847.669-97.038,848.223-96.661Z" transform="translate(-151.937 -49.166)" fill="#083142"/>
      </g>
    </g>
    <path id="Trazado_827275" data-name="Trazado 827275" d="M81.979,0A81.979,81.979,0,1,1,0,81.979,81.979,81.979,0,0,1,81.979,0Z" transform="translate(978.129 5111.97) rotate(-45)" fill="#2efec7"/>
    <g id="Grupo_149835" data-name="Grupo 149835" transform="translate(1001.316 5019.221)">
      <g id="Grupo_149813" data-name="Grupo 149813" transform="translate(0 0)">
        <circle id="Elipse_5001" data-name="Elipse 5001" cx="65.583" cy="65.583" r="65.583" transform="translate(0 92.748) rotate(-45)" fill="url(#linear-gradient-3)"/>
        <circle id="Elipse_5002" data-name="Elipse 5002" cx="62.304" cy="62.304" r="62.304" transform="translate(4.637 92.748) rotate(-45)" fill="url(#linear-gradient-4)"/>
      </g>
      <text id="Subroles_Asociados" data-name="Subroles
Asociados" transform="translate(93.684 125.127)" fill="#12263f" font-size="14" font-family="SegoeUI-Bold, Segoe UI" font-weight="700"><tspan x="-28.393" y="0">Subroles</tspan><tspan x="-33.089" y="14">Asociados</tspan></text>
      <g id="Grupo_1077983" data-name="Grupo 1077983" transform="translate(-598.522 103.868)">
        <path id="Trazado_208083" data-name="Trazado 208083" d="M723.815-37.392a7.175,7.175,0,0,0-2.687-5.348,7.848,7.848,0,0,0-3.834-1.942c-.425-.089-.622-.282-.585-.726a5.613,5.613,0,0,0-.107-1.316c-1.055-6.9-4.871-11.55-11.4-13.986a13.365,13.365,0,0,0-3.811-.7h-3.284a26.428,26.428,0,0,0-2.656.432,16.823,16.823,0,0,0-9.231,6.446c-.222.309-.418.47-.829.3a13.97,13.97,0,0,0-5.788-1.039,13.028,13.028,0,0,0-6.851,2.076A13.226,13.226,0,0,0,667-45.7a1.238,1.238,0,0,1-1.1,1.008,8.006,8.006,0,0,0-4.844,2.845,7.371,7.371,0,0,0-1.858,4.44v2.147c.138.526.086,1.082.277,1.6a8.455,8.455,0,0,0,7.052,5.75c.819.133.826.1.826.96q0,9.283,0,18.566c0,.818.077.925-.91,1.033a3.348,3.348,0,0,0-3.245,3.631A7.377,7.377,0,0,0,665.681,1.5a6.368,6.368,0,0,0,4.135,1.758h43.448a12.986,12.986,0,0,0,1.784-.309,7.564,7.564,0,0,0,4.087-3.755,7.2,7.2,0,0,0,.737-2.792,3.428,3.428,0,0,0-3.431-3.784c-.466-.044-.732-.131-.731-.686q.019-9.566,0-19.133c0-.472.156-.649.644-.7a8.48,8.48,0,0,0,6.135-3.571,7.558,7.558,0,0,0,1.382-3.536v-2.274A.172.172,0,0,1,723.815-37.392ZM716.167-5.079c1.176,0,1.492.346,1.41,1.531a5.18,5.18,0,0,1-4.681,4.68c-.419.029-.841.027-1.262.027q-10.072,0-20.144,0-10.293,0-20.586,0a5.194,5.194,0,0,1-5.325-4.115,3.163,3.163,0,0,1-.059-.373c-.15-1.421.141-1.749,1.551-1.749,5.515,0,11.03.006,16.544-.011.491,0,.628.12.626.619-.012,2.336,1.242,3.562,3.589,3.562q3.789,0,7.578,0a3.142,3.142,0,0,0,3.424-3.405c-.011-.647.165-.783.791-.78C705.138-5.069,710.653-5.08,716.167-5.079Zm-29.838.236c.065-.351.3-.231.475-.232,1.578-.009,3.157-.005,4.735-.005,1.557,0,3.115.01,4.672-.007.376,0,.55.048.545.5C696.744-3.279,696.5-3,695.17-3q-3.662,0-7.324,0C686.574-3,686.1-3.6,686.329-4.843ZM721.6-34.867a6.313,6.313,0,0,1-5.648,4.743c-.352.022-.435-.087-.419-.407a5.585,5.585,0,0,0-.416-2.654,5.068,5.068,0,0,0-4.619-3.177c-1.659-.078-3.325-.011-4.987-.029-.341,0-.446.115-.423.438a5.828,5.828,0,0,1-.028.691c.083.987.083.987,1.095.987,1.368,0,2.736-.008,4.1,0a3.039,3.039,0,0,1,3.17,3.126c.02,7.829,0,15.658.023,23.487,0,.549-.292.479-.631.479q-13.038,0-26.075,0c-5.493,0-10.986-.006-16.479.011-.486,0-.631-.111-.629-.616.017-7.7.009-15.405.015-23.108a3.1,3.1,0,0,1,3.368-3.379c1.41,0,2.821-.034,4.23.015.608.021.861-.138.75-.755a.852.852,0,0,1,.03-.248c-.093-1.121-.093-1.122-1.272-1.121-1.347,0-2.695-.022-4.041.008a5.227,5.227,0,0,0-5.163,5.214,3.545,3.545,0,0,0,0,.568c.068.466-.168.5-.545.457a6.252,6.252,0,0,1-5.7-6.038,6.235,6.235,0,0,1,5.178-6.359A5.687,5.687,0,0,1,668-42.6c.442.035.63-.049.722-.566.891-4.989,3.743-8.263,8.675-9.563a11.022,11.022,0,0,1,8.452,1.241c.823.464.821.455,1.288-.336a14.471,14.471,0,0,1,10.686-7.33,14.593,14.593,0,0,1,16.33,11.332,20.588,20.588,0,0,1,.338,2.689c.028.361-.066.489-.453.561a8.342,8.342,0,0,0-5.078,3.044c-.245.3-.24.463.1.663.434.254.822.748,1.26.785s.651-.617,1-.932a6.291,6.291,0,0,1,7.384-.743A6.257,6.257,0,0,1,721.6-34.867Z" transform="translate(0 0)" fill="#083142"/>
        <path id="Trazado_208084" data-name="Trazado 208084" d="M900.4-26.232c.4.157.968-.134,1.468-.193.395-.047.46-.224.384-.589a12.6,12.6,0,0,0-13.227-9.721c-1.258.129-1.258.129-1.038,1.4.029.165.066.33.085.5.031.261.132.331.415.283.495-.085,1-.1,1.254-.118a10.51,10.51,0,0,1,10.2,7.156C900.091-27.073,900.013-26.382,900.4-26.232Z" transform="translate(-190.145 -20.469)" fill="#083142"/>
        <path id="Trazado_208085" data-name="Trazado 208085" d="M835.654.578a3.118,3.118,0,1,0,3.136,3.116A3.128,3.128,0,0,0,835.654.578Zm.022,4.157a1.042,1.042,0,1,1,1.006-1.063A1.035,1.035,0,0,1,835.676,4.735Z" transform="translate(-144.116 -51.544)" fill="#083142"/>
        <path id="Trazado_208086" data-name="Trazado 208086" d="M897.679,37.629a3.133,3.133,0,1,0,3.088,3.157A3.123,3.123,0,0,0,897.679,37.629Zm-.031,4.163a1.049,1.049,0,0,1-1.039-1.037,1.045,1.045,0,1,1,1.039,1.037Z" transform="translate(-195.684 -82.353)" fill="#083142"/>
        <path id="Trazado_208087" data-name="Trazado 208087" d="M773.836,37.628a3.133,3.133,0,1,0,3.127,3.12A3.12,3.12,0,0,0,773.836,37.628Zm.006,4.163a1.028,1.028,0,1,1,1.049-1.027A1.044,1.044,0,0,1,773.842,41.791Z" transform="translate(-92.738 -82.352)" fill="#083142"/>
        <path id="Trazado_208088" data-name="Trazado 208088" d="M847.01,53.168V51.594c0-1.573,0-1.559-1.547-1.561-.4,0-.537.087-.528.513.028,1.385.011,2.771.011,4.156,0,1.637,0,1.622,1.642,1.591.389-.007.436-.153.429-.48C847,54.932,847.01,54.05,847.01,53.168Z" transform="translate(-154.439 -92.667)" fill="#083142"/>
        <path id="Trazado_208089" data-name="Trazado 208089" d="M907.445,89.787a3.762,3.762,0,0,1,.438.006c.486.055.82-.075.839-.636a.246.246,0,0,1,.1-.173.625.625,0,0,1-.109-.192c-.1-.242.043-.616-.272-.721a2.713,2.713,0,0,0-1.305-.021c-.2.034-.226.223-.255.39a.96.96,0,0,1-.169.54.57.57,0,0,1,.155.366C906.918,89.687,907.138,89.788,907.445,89.787Z" transform="translate(-205.811 -124.221)" fill="#083142"/>
        <path id="Trazado_208090" data-name="Trazado 208090" d="M906.776,87.6c.029-.168.052-.356.255-.39a2.713,2.713,0,0,1,1.305.021c.315.1.176.478.272.721a.625.625,0,0,0,.108.192c.011-.009.022-.019.034-.027a2.493,2.493,0,0,1-.02-.5c.084-.535-.147-.714-.652-.627a1.486,1.486,0,0,1-.25,0c-1.157,0-1.157,0-1.244,1.123.009.007.014.016.022.023A.96.96,0,0,0,906.776,87.6Z" transform="translate(-205.703 -123.384)" fill="#083142"/>
        <path id="Trazado_208091" data-name="Trazado 208091" d="M908.732,93.916a.246.246,0,0,0-.1.173c-.019.561-.353.691-.839.636a3.764,3.764,0,0,0-.438-.006c-.307,0-.527-.1-.575-.442a.571.571,0,0,0-.155-.366l-.019.02c.073.944.088.946,1.086.946s1.015,0,1.073-.934A.39.39,0,0,1,908.732,93.916Z" transform="translate(-205.719 -129.155)" fill="#083142"/>
        <path id="Trazado_208092" data-name="Trazado 208092" d="M906.607,93.8c-.008-.007-.013-.016-.022-.023,0,.015,0,.028,0,.042Z" transform="translate(-205.703 -129.042)" fill="#083142"/>
        <path id="Trazado_208093" data-name="Trazado 208093" d="M919.267,93.825c0-.019,0-.036,0-.056-.012.008-.023.018-.034.027A.387.387,0,0,0,919.267,93.825Z" transform="translate(-216.223 -129.035)" fill="#083142"/>
        <path id="Trazado_208094" data-name="Trazado 208094" d="M794.839,93.2a.4.4,0,0,1,.118-.194.441.441,0,0,1-.116-.19c0,.105,0,.22,0,.353C794.838,93.185,794.839,93.194,794.839,93.2Z" transform="translate(-112.782 -128.247)" fill="#083142"/>
        <path id="Trazado_208095" data-name="Trazado 208095" d="M783.1,93.341c0-.079,0-.165,0-.263,0-.008,0-.015,0-.023a.482.482,0,0,1-.1.154.4.4,0,0,1,.051.044A.306.306,0,0,1,783.1,93.341Z" transform="translate(-102.937 -128.441)" fill="#083142"/>
        <path id="Trazado_208096" data-name="Trazado 208096" d="M782.894,88.031c.017-1.05-.135-.887,1.159-.888.8,0,.749-.1.736.849a.439.439,0,0,0,.116.19.382.382,0,0,1,.036-.031c-.008-.083-.021-.165-.023-.247-.019-.89-.019-.89-.891-.89h-.062c-1.157,0-1.157,0-1.214,1.136a.381.381,0,0,1,.042.036A.484.484,0,0,0,782.894,88.031Z" transform="translate(-102.731 -123.417)" fill="#083142"/>
        <path id="Trazado_208097" data-name="Trazado 208097" d="M784.8,94.141c.007.783.114.649-1.182.659-.643,0-.707,0-.712-.717a.308.308,0,0,0-.05-.088.4.4,0,0,0-.051-.044c-.012.012-.025.024-.038.036.043.938.068.941,1.055.941h.063c.991,0,1.012,0,1.066-.952a.382.382,0,0,1-.033-.029A.4.4,0,0,0,784.8,94.141Z" transform="translate(-102.748 -129.183)" fill="#083142"/>
        <path id="Trazado_208098" data-name="Trazado 208098" d="M782.793,93.794a.382.382,0,0,0-.042-.036c0,.025,0,.047,0,.071C782.768,93.818,782.781,93.806,782.793,93.794Z" transform="translate(-102.731 -129.026)" fill="#083142"/>
        <path id="Trazado_208099" data-name="Trazado 208099" d="M795.571,93.823c0-.02,0-.038,0-.059a.383.383,0,0,0-.036.031A.412.412,0,0,0,795.571,93.823Z" transform="translate(-113.365 -129.031)" fill="#083142"/>
        <path id="Trazado_208100" data-name="Trazado 208100" d="M768.255,113.769c.628-.045,1.262-.016,1.893-.007.872.012.993.126,1,.982.01,1.241,0,2.483,0,3.724q0,6.6,0,13.192c0,1.072-.088,1.159-1.14,1.163-.863,0-1.726.018-2.588-.007-.64-.018-.773-.159-.8-.789-.019-.378,0-.757-.007-1.136-.005-.884-.006-.886-.8-1.2-.176-.07-.355-.132-.528-.209-.623-.274-.763-.621-.507-1.263a7.594,7.594,0,0,1,.356-.739.786.786,0,0,0-.172-1.024q-2.23-2.233-4.463-4.463a.692.692,0,0,0-.911-.128,6.687,6.687,0,0,1-.911.435.786.786,0,0,1-1.092-.449,8.841,8.841,0,0,1-.389-1,.7.7,0,0,0-.752-.531q-3.156.01-6.312,0a.706.706,0,0,0-.751.534,8.908,8.908,0,0,1-.39,1,.787.787,0,0,1-1.094.446,6.742,6.742,0,0,1-.911-.435.691.691,0,0,0-.911.13q-2.232,2.231-4.463,4.464a.776.776,0,0,0-.168,1.023c.031.055.055.113.082.171.655,1.378.591,1.562-.882,2.085a.869.869,0,0,0-.692.968c.025.461.007.925,0,1.388s-.2.715-.679.723q-1.578.027-3.155,0a.628.628,0,0,1-.691-.712c0-.168-.008-.337-.008-.5q0-8.3,0-16.6c0-.168.007-.337.006-.5,0-.5.256-.72.744-.726.715-.008,1.433-.039,2.145.005s1.293-.02,1.454-.857a2.3,2.3,0,0,1-.025-.5c.089-.534-.17-.62-.637-.608-1.114.03-2.23,0-3.345.012a2.115,2.115,0,0,0-2.295,2.273q-.006,9.215,0,18.431a2.1,2.1,0,0,0,2.241,2.258q17.579.008,35.157,0a2.1,2.1,0,0,0,2.242-2.257q.008-9.216,0-18.431a2.117,2.117,0,0,0-2.295-2.274c-.926-.008-1.851,0-2.777,0-1.147,0-1.147,0-1.23,1.1C766.965,113.746,767.55,113.82,768.255,113.769Zm-9.312,18.92c-1.892-.022-3.785-.009-5.677-.009-1.872,0-3.743-.013-5.614.009-.438.005-.528-.111-.43-.53a6.26,6.26,0,0,1,12.126.031C759.434,132.578,759.36,132.694,758.943,132.689Zm5.815-.183c-.074.194-.218.167-.357.169-.421.006-.842,0-1.263,0v-.019a3.623,3.623,0,0,1-1.431-.04c-.425-.2-.308-.849-.443-1.294a8.33,8.33,0,0,0-16.151.808c-.09.474-.26.572-.688.554-.714-.031-1.431-.02-2.146,0-.328.008-.46-.059-.5-.44-.063-.67.12-1.084.823-1.186a.951.951,0,0,0,.871-.843,1.607,1.607,0,0,1,.232-.583,1.522,1.522,0,0,0-.028-1.907.472.472,0,0,1,.086-.708q1.428-1.384,2.812-2.813c.213-.218.4-.282.644-.1a1.88,1.88,0,0,0,2.028.07c.806-.327,1.386-.7,1.526-1.593.039-.248.21-.318.458-.316,1.368.01,2.737.016,4.1,0,.347,0,.435.189.487.449a1.82,1.82,0,0,0,1.325,1.389c.81.326,1.5.564,2.257-.028.2-.156.366-.081.539.1.944.961,1.891,1.919,2.859,2.856a.473.473,0,0,1,.075.711,1.521,1.521,0,0,0-.02,1.906,1.213,1.213,0,0,1,.178.469c.1.607.51.846,1.045,1.007A1.037,1.037,0,0,1,764.759,132.506Z" transform="translate(-61.744 -144.031)" fill="#083142"/>
        <path id="Trazado_208101" data-name="Trazado 208101" d="M776.48,118.7c-.11.61.181.732.732.709.988-.041,1.978,0,2.967-.017.324-.005.487.042.486.433q-.018,8.936,0,17.871c0,.354-.1.475-.459.465-.883-.023-1.768-.007-2.652-.007-1.069,0-1.066,0-1.07-1.051a3.929,3.929,0,0,0-.078-1.675c-.245-.459-.993-.439-1.51-.655-.019-.008-.037-.02-.057-.027a.538.538,0,0,1-.339-.8,6.954,6.954,0,0,1,.49-1.021.691.691,0,0,0-.153-1.018c-1.317-1.272-2.6-2.583-3.893-3.877-.372-.371-.7-.92-1.145-1.046s-.928.385-1.416.567c-.039.015-.073.042-.111.059a.583.583,0,0,1-.918-.4c-.11-.339-.265-.666-.352-1.01a.664.664,0,0,0-.782-.581c-1.789.034-3.578.01-5.367.016-.587,0-1.29-.161-1.724.105-.366.224-.42.959-.612,1.469-.007.02-.008.042-.016.061a.579.579,0,0,1-.9.345c-.359-.174-.733-.322-1.074-.526a.555.555,0,0,0-.8.135c-1.325,1.354-2.673,2.685-4.012,4.025-1.093,1.093-1.093,1.094-.446,2.469.027.057.047.117.076.173.219.437.069.722-.367.884a9.048,9.048,0,0,1-1.129.394c-.4.089-.485.3-.469.672.026.609-.017,1.222.016,1.831.021.4-.134.5-.509.49q-1.61-.032-3.22,0c-.363.007-.459-.112-.458-.466q.014-8.936,0-17.871c0-.392.163-.439.486-.433.863.016,1.726.006,2.589.006,1.06,0,1.06,0,1.136-1.01-.161.837-.748.9-1.454.857s-1.43-.013-2.145-.005c-.488.006-.746.225-.744.726,0,.168-.006.337-.006.5q0,8.3,0,16.6c0,.168.006.337.008.5a.628.628,0,0,0,.691.712q1.578.026,3.155,0c.476-.008.672-.27.679-.723s.025-.927,0-1.388a.869.869,0,0,1,.692-.968c1.473-.523,1.536-.707.882-2.085-.027-.057-.052-.116-.082-.17a.776.776,0,0,1,.168-1.023q2.23-2.233,4.463-4.464a.691.691,0,0,1,.911-.13,6.737,6.737,0,0,0,.911.435.786.786,0,0,0,1.094-.446,8.908,8.908,0,0,0,.39-1,.706.706,0,0,1,.751-.534q3.156.009,6.312,0a.7.7,0,0,1,.752.531,8.83,8.83,0,0,0,.389,1,.786.786,0,0,0,1.092.449,6.7,6.7,0,0,0,.911-.435.692.692,0,0,1,.911.128q2.233,2.231,4.463,4.463a.786.786,0,0,1,.172,1.024,7.6,7.6,0,0,0-.355.739c-.256.642-.116.989.507,1.263.173.076.352.139.528.209.8.317.8.318.8,1.2,0,.379-.012.758.007,1.136.031.63.164.771.8.789.862.025,1.725.01,2.588.007,1.052,0,1.139-.091,1.14-1.163q0-6.6,0-13.192c0-1.241.007-2.483,0-3.724-.007-.855-.128-.97-1-.982-.631-.008-1.265-.038-1.893.007-.706.051-1.29-.023-1.454-.856h0A1.211,1.211,0,0,1,776.48,118.7Z" transform="translate(-71.396 -149.508)" fill="#083142"/>
        <path id="Trazado_208102" data-name="Trazado 208102" d="M783.02,113.657c.009,1.343.015,2.685,0,4.028a1.538,1.538,0,0,0,.513,1.227c.46.429.895.885,1.339,1.331a.474.474,0,0,0,.756.01c.934-.813.973-.88.053-1.716a2.42,2.42,0,0,1-.87-2.1c.062-.94.009-1.887.017-2.831,0-.266-.05-.552.169-.774a1.52,1.52,0,0,1-.024-.372c.111-.618-.153-.837-.746-.729a1.069,1.069,0,0,1-.187,0c-1.136,0-1.136,0-1.2,1.1C783.088,113.062,783.018,113.373,783.02,113.657Z" transform="translate(-102.804 -143.946)" fill="#083142"/>
        <path id="Trazado_208103" data-name="Trazado 208103" d="M782.862,123.495a.832.832,0,0,0,.2.694c.668.64,1.318,1.3,1.967,1.961.158.161.254.194.457.024,1.373-1.149,1.379-1.143.15-2.373-.148-.149-.29-.305-.447-.445a.6.6,0,0,1-.224-.491c.016-1.493.022-2.986.031-4.479-.219.222-.167.508-.169.774-.008.944.045,1.891-.017,2.831a2.42,2.42,0,0,0,.87,2.1c.92.836.881.9-.053,1.716a.474.474,0,0,1-.756-.01c-.444-.446-.879-.9-1.339-1.331a1.538,1.538,0,0,1-.513-1.227c.017-1.343.011-2.685,0-4.028,0-.285.068-.6-.181-.83h0Q782.85,120.939,782.862,123.495Z" transform="translate(-102.804 -149.502)" fill="#083142"/>
        <path id="Trazado_208104" data-name="Trazado 208104" d="M900.552,113.6c.008,1.049-.021,2.1.012,3.147a1.784,1.784,0,0,1-.652,1.554,3.766,3.766,0,0,0-.268.266c-.769.769-.7,1.243.254,1.8a.414.414,0,0,0,.561-.091c.556-.541,1.113-1.082,1.642-1.651a1.282,1.282,0,0,0,.254-.947c0-1.343-.005-2.685,0-4.028,0-.285-.068-.6.181-.83a1.618,1.618,0,0,1-.019-.373c.112-.617-.149-.836-.743-.727a1.055,1.055,0,0,1-.187,0c-1.129,0-1.129,0-1.208,1.1C900.6,113.047,900.55,113.333,900.552,113.6Z" transform="translate(-199.496 -143.942)" fill="#083142"/>
        <path id="Trazado_208105" data-name="Trazado 208105" d="M898.713,122.233a1.691,1.691,0,0,1-.627,1.535c-.4.33-1.014.74-1.024,1.128-.011.45.691.768,1.034,1.186.244.3.4.23.639-.017q.846-.894,1.741-1.74a1.025,1.025,0,0,0,.337-.829c-.008-1.7.008-3.408.016-5.111-.249.235-.179.546-.181.83-.009,1.343,0,2.685,0,4.028a1.282,1.282,0,0,1-.254.947c-.529.569-1.086,1.109-1.642,1.651a.414.414,0,0,1-.561.091c-.951-.56-1.023-1.035-.254-1.8a3.765,3.765,0,0,1,.268-.266,1.784,1.784,0,0,0,.652-1.554c-.033-1.048,0-2.1-.012-3.147,0-.266.05-.552-.169-.774h0C898.681,119.668,898.658,120.952,898.713,122.233Z" transform="translate(-197.784 -149.502)" fill="#083142"/>
        <path id="Trazado_208106" data-name="Trazado 208106" d="M846,101.691c1.06,0,1.06,0,1.06-1.036s0-1.029-1-1.029c-1.06,0-1.06,0-1.06,1.037S845,101.691,846,101.691Z" transform="translate(-154.493 -133.905)" fill="#083142"/>
        <path id="Trazado_208107" data-name="Trazado 208107" d="M783.6,89.146c.089.23-.031.576.3.641a4.512,4.512,0,0,0,1.3.008c.161-.016.232-.153.25-.313a1.774,1.774,0,0,1,.04-.277c0-.011,0-.02,0-.031,0-.133,0-.247,0-.353a.615.615,0,0,1-.024-.208c.025-.538-.283-.635-.725-.6a3.086,3.086,0,0,1-.5,0c-.384-.028-.605.1-.594.526a.763.763,0,0,1-.049.315c0,.008,0,.015,0,.023C783.6,88.98,783.6,89.066,783.6,89.146Z" transform="translate(-103.436 -124.245)" fill="#083142"/>
        <path id="Trazado_208108" data-name="Trazado 208108" d="M784.244,87.788a3.088,3.088,0,0,0,.5,0c.442-.04.75.057.725.6a.615.615,0,0,0,.024.208c.013-.953.061-.85-.736-.849-1.295,0-1.142-.161-1.159.888a.761.761,0,0,0,.049-.315C783.639,87.893,783.86,87.76,784.244,87.788Z" transform="translate(-103.438 -124.016)" fill="#083142"/>
        <path id="Trazado_208109" data-name="Trazado 208109" d="M785.2,95.4a4.512,4.512,0,0,1-1.3-.008c-.335-.064-.215-.411-.3-.641,0,.714.069.721.712.717,1.3-.009,1.188.124,1.182-.659a1.766,1.766,0,0,0-.04.277C785.437,95.25,785.366,95.387,785.2,95.4Z" transform="translate(-103.438 -129.855)" fill="#083142"/>
        <path id="Trazado_208110" data-name="Trazado 208110" d="M847.025,125.86c0-1.649,0-1.639-1.643-1.59-.323.01-.444.086-.428.423.026.544.007,1.09.007,1.634v.566c0,1.661,0,1.652,1.675,1.565.3-.016.4-.1.395-.4C847.014,127.327,847.025,126.593,847.025,125.86Z" transform="translate(-154.454 -154.386)" fill="#083142"/>
      </g>
    </g>
    <g id="Grupo_1077984" data-name="Grupo 1077984" transform="translate(864.106 5134.689)">
      <path id="Trazado_208057" data-name="Trazado 208057" d="M-331.389-8.876c-.375.025-.371-.139-.369-.437q.025-4.6.014-9.207a.959.959,0,0,0-.9-1.079,1,1,0,0,0-.981,1.019c-.015.167,0,.336,0,.5q0,4.1,0,8.2c0,.915-.077.995-.956.995q-12.93,0-25.861,0c-.8,0-.942-.144-.942-.961q0-8.2,0-16.4c0-.865.122-.988.98-.989q3.721,0,7.443,0,9.177,0,18.355,0c.892,0,.98.089.982.973,0,.988-.011,1.976.005,2.964.012.731.394,1.165.969,1.154.55-.01.909-.433.916-1.127.011-1.114,0-2.228,0-3.342a2.471,2.471,0,0,0-.607-1.676,2.753,2.753,0,0,0-2.275-.843q-9.461.013-18.922.01a3.716,3.716,0,0,1-1.354-.223c-2.124-.811-1.658-.153-1.746-2.448a1.233,1.233,0,0,1,.646-1.2,12.085,12.085,0,0,0,5.3-8.355c.061-.376.115-.6.629-.618a3.572,3.572,0,0,0,3.358-4.457,4.9,4.9,0,0,1-.207-1.413c-.055-2.877.177-5.762-.131-8.631a8.164,8.164,0,0,0-2.715-5.445,14.691,14.691,0,0,1-1.36-1.009,15.2,15.2,0,0,0-8.926-4.776,3.053,3.053,0,0,1-1.25-.229h-.126a5.221,5.221,0,0,1-2.523,0h-.5c-.059.161-.2.112-.319.125a16.075,16.075,0,0,0-9.123,4.152.961.961,0,0,0-.338,1.122.924.924,0,0,0,1.55.3,18.788,18.788,0,0,1,2.649-1.918,14.268,14.268,0,0,1,9.235-1.728,13.07,13.07,0,0,1,8.365,4.327,2.366,2.366,0,0,0,.666.567,5.211,5.211,0,0,1,2.577,3.487c.76,2.876.207,5.813.424,8.766a6.491,6.491,0,0,0-1.3-.264c-.352.022-.468-.111-.457-.468.025-.819.022-1.64,0-2.459a1.508,1.508,0,0,0-1.409-1.706,4.006,4.006,0,0,1-2.86-1.948,1.9,1.9,0,0,0-3.1-.48,15.069,15.069,0,0,1-11.992,3.2,4.742,4.742,0,0,0-5.431,3.481c-.058.263-.175.4-.467.377a2.737,2.737,0,0,0-1.106.211c-.195.07-.311.047-.309-.209a28.583,28.583,0,0,1,.333-5.84,16.213,16.213,0,0,1,1.539-4.038.935.935,0,0,0-.384-1.344.937.937,0,0,0-1.277.465,16.218,16.218,0,0,0-1.985,6.181c-.215,2.034-.065,4.075-.117,6.112a1.631,1.631,0,0,1-.072.681,3.551,3.551,0,0,0,3.3,4.817c.453.025.5.221.554.556a11.635,11.635,0,0,0,5.023,8.177,2.532,2.532,0,0,1,1.3,2.69.775.775,0,0,1-.559.786c-3.168,1.095-6.331,2.2-9.5,3.307a5.921,5.921,0,0,0-4.093,4.328c-.513,2.1-.9,4.225-1.319,6.344-.547,2.757-1.127,5.51-1.59,8.281a3.339,3.339,0,0,0,2.717,4.029.834.834,0,0,1,.2.119h23.719c.405-.32.787-.659.566-1.251-.215-.575-.7-.652-1.238-.644-.882.013-1.765.015-2.647,0a1.388,1.388,0,0,1-1.417-1.025c-.112-.423-.006-.71.491-.727.126,0,.252,0,.378,0q15.758,0,31.515.006c.311,0,.728-.163.883.266a1.037,1.037,0,0,1-.4,1.117,1.712,1.712,0,0,1-1.293.371q-10.967-.006-21.934,0c-.147,0-.294.005-.441,0-.535-.023-1.023.058-1.239.638s.156.932.557,1.255h24.1a3.756,3.756,0,0,0,2.289-1.9C-328.267-7.454-329.769-8.982-331.389-8.876Zm-18.748-38.239a1.819,1.819,0,0,1,1.689,1.648,1.821,1.821,0,0,1-1.7,1.637c-.249.013-.392-.029-.378-.33.021-.438.006-.879.005-1.318,0-.419.016-.838-.006-1.255C-350.542-47.034-350.444-47.135-350.137-47.114Zm-25.335,1.646c0,.419-.023.839.007,1.256.026.374-.157.412-.453.377a1.811,1.811,0,0,1-1.632-1.64,1.807,1.807,0,0,1,1.638-1.632c.3-.032.473.016.447.383C-375.5-46.308-375.472-45.887-375.472-45.469ZM-372.72-39a9.972,9.972,0,0,1-.84-3.911c-.014-1.681-.025-3.362-.016-5.043.011-2.165,1.362-3.277,3.522-3.013a16.83,16.83,0,0,0,13.129-3.459c.366-.294.493-.209.727.147a5.264,5.264,0,0,0,3.345,2.382c.362.079.456.243.451.6-.021,1.513-.009,3.026-.009,4.846a30.442,30.442,0,0,1-.224,5.286,10.6,10.6,0,0,1-9.019,8.363A10.755,10.755,0,0,1-372.72-39Zm-5.186,33.771c-1.449-.017-2.9.006-4.346-.012-1.523-.019-2.115-.684-1.894-2.183.162-1.1.426-2.178.61-3.273.051-.306.179-.362.449-.358.882.013,1.764,0,2.646,0,.861,0,1.722.015,2.582-.008.332-.009.421.092.417.42-.016,1.658-.02,3.317,0,4.975C-377.434-5.279-377.572-5.222-377.906-5.226ZM-364.122-8.8A2.184,2.184,0,0,0-366-6.009c.053.244.11.487.175.776h-3.043c-2.059,0-4.118-.012-6.177.01-.409,0-.519-.1-.516-.514.02-2.647.01-5.294.01-7.941a4.579,4.579,0,0,0-.008-.5.933.933,0,0,0-.953-.9.943.943,0,0,0-.928.927c-.043.39.179.955-.1,1.13-.319.2-.847.08-1.284.081-1.385.005-2.771,0-4.247,0,.2-1.032.388-2.027.588-3.019q.545-2.712,1.1-5.423a4.167,4.167,0,0,1,2.795-3.225c3.127-1.139,6.284-2.195,9.43-3.283a.474.474,0,0,1,.12-.011c.419,3.03,2.283,3.662,4.565,3.983,1.183.166,1.191.106,1.191,1.27,0,4.264-.023,8.529.022,12.793C-363.256-9.146-363.288-8.869-364.122-8.8Zm.848-17.515c0,.509-.063.7-.643.586-.555-.1-1.115-.194-1.659-.342A1.958,1.958,0,0,1-367.1-28c-.026-1.133-.006-2.267-.006-3.494a12.659,12.659,0,0,0,8.579-.127c0,.76-.013,1.464.006,2.168.008.313-.154.332-.39.328-.525-.009-1.051-.006-1.576,0A2.5,2.5,0,0,0-363.274-26.318Z" transform="translate(0)" fill="#083142"/>
      <path id="Trazado_208058" data-name="Trazado 208058" d="M-243.107-67.923h-2.523A10.141,10.141,0,0,0-243.107-67.923Z" transform="translate(-118.319)" fill="#083142"/>
      <path id="Trazado_208059" data-name="Trazado 208059" d="M-243.107-67.923a10.141,10.141,0,0,1-2.523,0A5.221,5.221,0,0,0-243.107-67.923Z" transform="translate(-118.319)" fill="#083142"/>
      <path id="Trazado_208060" data-name="Trazado 208060" d="M-161.133,231.572a3.113,3.113,0,0,0,3.129,3.11,3.114,3.114,0,0,0,3.108-3.13,3.115,3.115,0,0,0-3.128-3.111A3.114,3.114,0,0,0-161.133,231.572Zm4.343.01A1.238,1.238,0,0,1-158,232.788a1.224,1.224,0,0,1-1.227-1.247,1.216,1.216,0,0,1,1.2-1.2A1.23,1.23,0,0,1-156.791,231.582Z" transform="translate(-189.488 -249.617)" fill="#083142"/>
    </g>
  </g>
</svg>
